<svg width="80" height="23" viewBox="0 0 80 23" fill="none" xmlns="http://www.w3.org/2000/svg">
<g clip-path="url(#clip0_534_28144)">
<path d="M34.5344 14.1336L33.6713 16.7938C33.6475 16.8824 33.565 16.9426 33.4735 16.9377H31.3911C31.2653 16.9377 31.2297 16.8658 31.2471 16.7582L34.8416 6.38739C34.964 6.03476 35.025 5.66376 35.0221 5.29051C35.0204 5.25974 35.0306 5.2295 35.0507 5.2061C35.0707 5.1827 35.099 5.16794 35.1297 5.16489H38.006C38.0927 5.16489 38.1317 5.18301 38.15 5.27239L42.2278 16.7765C42.2635 16.8632 42.2461 16.9377 42.1411 16.9377H39.8046C39.762 16.9436 39.7188 16.9341 39.6826 16.9111C39.6464 16.8881 39.6195 16.8529 39.6068 16.8119L38.6905 14.1336H34.5344ZM35.181 11.8872H38.0216L37.7482 11.0071C37.3714 9.8102 36.8699 8.25255 36.6013 7.24973H36.583C36.2958 8.45411 35.6486 10.4315 35.181 11.8872ZM42.5141 12.5485C42.5133 9.97848 44.436 7.82161 47.726 7.82161C47.8693 7.82161 48.0497 7.83973 48.3196 7.85708V4.31629C48.3163 4.28779 48.3239 4.25911 48.341 4.23601C48.358 4.21291 48.3831 4.1971 48.4113 4.19176L50.7097 4.19051C50.7966 4.19051 50.8183 4.22598 50.8183 4.29801V14.9205C50.8139 15.3592 50.8379 15.7977 50.8902 16.2333C50.8902 16.3027 50.8786 16.3416 50.8189 16.3724L50.7646 16.3946C49.6448 16.8705 48.4403 17.1151 47.2236 17.114C44.5635 17.114 42.5143 15.6043 42.5143 12.5483M48.3197 9.99567C48.1049 9.92662 47.8794 9.89724 47.6541 9.90895C47.3293 9.88523 47.003 9.92792 46.6952 10.0344C46.3874 10.1409 46.1045 10.309 45.8638 10.5284C45.623 10.7478 45.4295 11.0139 45.295 11.3106C45.1605 11.6072 45.0879 11.9282 45.0814 12.2538L45.0843 12.425C45.0843 14.2046 46.1089 14.9777 47.4746 14.9777C47.7603 14.9898 48.0461 14.9534 48.3197 14.87V9.99567ZM61.1057 12.2332L61.1121 12.4216C61.1121 15.244 59.2788 17.1129 56.6871 17.1129C53.6132 17.1129 52.2474 14.7946 52.2474 12.4754C52.2119 11.87 52.3019 11.2638 52.5119 10.6949C52.7218 10.126 53.0471 9.60671 53.4674 9.16957C53.8877 8.73243 54.3938 8.38693 54.954 8.15477C55.5142 7.92261 56.1164 7.80881 56.7227 7.82051C59.5421 7.82051 61.0311 9.88489 61.1057 12.2332ZM54.7818 12.4371C54.7818 14.0188 55.5185 15.0252 56.7227 15.0252C57.764 15.0252 58.556 14.1263 58.556 12.4725C58.556 11.0705 57.9808 9.9027 56.6152 9.9027C55.5739 9.9027 54.7818 10.8371 54.7818 12.4371ZM62.6965 4.1902L64.889 4.18926C65.0329 4.18926 65.0686 4.20754 65.0686 4.33332V8.01817C65.4622 7.91253 65.8658 7.84879 66.2727 7.82801L66.5782 7.82036C67.131 7.79291 67.6836 7.8773 68.203 8.06848C68.7224 8.25965 69.1979 8.55369 69.601 8.93297C70.0041 9.31225 70.3265 9.76897 70.5489 10.2758C70.7713 10.7826 70.8892 11.3291 70.8954 11.8825L70.8921 12.0986C70.8921 15.4599 68.2319 17.1136 65.5005 17.1136C64.5442 17.1203 63.5925 16.981 62.6782 16.7007C62.6462 16.6826 62.6195 16.6565 62.6007 16.625C62.5818 16.5935 62.5714 16.5577 62.5705 16.521V4.31629C62.5705 4.22957 62.6061 4.19051 62.6965 4.19051M66.2838 9.93895L66.1296 9.94114C65.771 9.93692 65.4138 9.98546 65.0694 10.0852V14.9561C65.2147 14.9897 65.3625 15.0118 65.5113 15.0218L65.7347 15.028C66.0899 15.0482 66.4451 14.9915 66.7764 14.8618C67.1076 14.7322 67.407 14.5326 67.654 14.2767C67.9011 14.0209 68.0901 13.7147 68.2081 13.3792C68.3261 13.0436 68.3704 12.6866 68.3379 12.3324C68.3776 12.0372 68.3545 11.7369 68.2699 11.4513C68.1854 11.1657 68.0414 10.9012 67.8474 10.6752C67.6535 10.4492 67.4138 10.2667 67.1444 10.1399C66.8749 10.013 66.5816 9.94444 66.2838 9.93895ZM74.4041 13.1221C74.4908 14.1468 75.2127 14.9918 76.9741 14.9918C77.7315 15.0058 78.4838 14.8651 79.1848 14.578C79.2394 14.5424 79.2932 14.5597 79.2932 14.6647V16.3721C79.2932 16.4979 79.2577 16.5518 79.1674 16.5882C78.3913 16.9356 77.5506 17.1153 76.7002 17.1154L76.4171 17.1086C73.0385 17.1086 71.8515 14.7904 71.8515 12.5615C71.8515 10.1429 73.304 7.92973 75.9918 7.82051L76.201 7.8163C76.7118 7.79756 77.2209 7.8859 77.6955 8.07562C78.1702 8.26533 78.5999 8.55224 78.957 8.91791C79.3142 9.28358 79.5909 9.71992 79.7694 10.1989C79.9479 10.6779 80.0242 11.1889 79.9935 11.6991C80.0067 12.1024 79.9775 12.5061 79.9066 12.9033C79.904 12.9406 79.888 12.9757 79.8615 13.0021C79.8351 13.0286 79.8 13.0446 79.7627 13.0472C79.3009 13.091 78.8382 13.1155 78.3746 13.1207L74.4041 13.1221ZM76.7407 11.379C77.0408 11.3902 77.3413 11.3783 77.6396 11.3435V11.2175C77.6342 11.0234 77.5903 10.8323 77.5103 10.6553C77.4302 10.4784 77.3158 10.3191 77.1735 10.1869C77.0313 10.0547 76.8641 9.95212 76.6818 9.88522C76.4995 9.81831 76.3056 9.7884 76.1116 9.79723C75.6763 9.79034 75.2549 9.95042 74.9339 10.2446C74.6129 10.5388 74.4168 10.9447 74.3858 11.379H76.7407ZM11.7678 7.92473L17.3094 21.0729H13.6774L12.0194 16.8857H7.96407L11.7678 7.92473ZM23.5311 0.24707V21.0704L14.8314 0.24707H23.5311ZM8.70329 0.24707L0 21.0704V0.24707H8.70329Z" fill="#869DBD" fill-opacity="0.75"/>
</g>
<defs>
<clipPath id="clip0_534_28144">
<rect width="80" height="23" fill="white"/>
</clipPath>
</defs>
</svg>
