<svg width="80" height="23" viewBox="0 0 80 23" fill="none" xmlns="http://www.w3.org/2000/svg">
<path d="M48.7922 17.5151C44.5449 20.6412 38.395 22.3102 33.0959 22.3102C26.0168 22.3455 19.1795 19.7369 13.9229 14.9952C13.5285 14.6373 13.8864 14.1479 14.3612 14.4255C19.8209 17.6027 26.5698 19.5127 33.5414 19.5127C38.2452 19.5127 43.4165 18.5413 48.175 16.5217C48.8908 16.215 49.4934 16.9928 48.7922 17.5151Z" fill="#869DBD" fill-opacity="0.75"/>
<path d="M50.5547 15.5085C51.1025 16.2023 49.9521 19.0692 49.4409 20.3474C49.2875 20.7345 49.6198 20.8915 49.9704 20.5994C52.2492 18.693 52.8336 14.705 52.3698 14.128C51.906 13.551 47.9253 13.0616 45.5004 14.7708C45.1242 15.0301 45.1863 15.3916 45.6026 15.3441C46.9721 15.1798 50.0142 14.8146 50.5547 15.5085ZM45.6976 2.71917V1.05751C45.6976 0.805518 45.8911 0.637527 46.1175 0.637527H53.5494C53.7867 0.637527 53.9766 0.80917 53.9766 1.05751V2.48179C53.9766 2.71917 53.7758 3.02959 53.4179 3.52261L49.5687 9.01886C51.0003 8.98234 52.5085 9.19781 53.805 9.92821C54.0972 10.0926 54.1775 10.3336 54.2031 10.5746V12.3458C54.2031 12.5869 53.9328 12.8681 53.6553 12.722C52.4406 12.0966 51.0938 11.7716 49.7276 11.7741C48.3614 11.7767 47.0158 12.1067 45.8035 12.7366C45.5478 12.8754 45.2776 12.5942 45.2776 12.3531V10.6732C45.2776 10.403 45.2776 9.94282 45.5515 9.53014L50.0069 3.13915H46.1249C45.8875 3.13915 45.6939 2.9675 45.6939 2.72282M18.5961 13.0726H16.3319C16.2309 13.0649 16.1357 13.0225 16.0625 12.9526C15.9893 12.8827 15.9425 12.7896 15.9301 12.6891V1.08672C15.9301 0.852995 16.1237 0.670394 16.3684 0.670394H18.4756C18.6947 0.677698 18.87 0.849342 18.8846 1.05751V2.57309H18.9248C19.4726 1.10863 20.5097 0.425712 21.9011 0.425712C23.3181 0.425712 24.2019 1.10863 24.8374 2.57309C25.0631 1.93045 25.4872 1.37616 26.0484 0.9902C26.6096 0.604238 27.279 0.406567 27.9598 0.425712C28.4646 0.416722 28.9643 0.526769 29.4186 0.746936C29.8729 0.967103 30.269 1.2912 30.5746 1.69296C31.2904 2.66804 31.1444 4.08866 31.1444 5.33034V12.6526C31.1434 12.709 31.1313 12.7647 31.1087 12.8164C31.0861 12.8682 31.0535 12.9149 31.0128 12.9539C30.972 12.993 30.9239 13.0236 30.8713 13.0439C30.8187 13.0643 30.7625 13.074 30.7061 13.0726H28.4492C28.3412 13.0654 28.2396 13.0186 28.1641 12.9411C28.0886 12.8635 28.0444 12.7608 28.0402 12.6526V6.50264C28.0402 6.01327 28.084 4.7935 27.9781 4.3297C27.8101 3.55182 27.3025 3.3327 26.6487 3.3327C26.1009 3.3327 25.5312 3.6979 25.2975 4.28222C25.0638 4.86654 25.0893 5.84528 25.0893 6.50264V12.6526C25.0884 12.709 25.0763 12.7647 25.0537 12.8164C25.0311 12.8682 24.9985 12.9149 24.9578 12.9539C24.917 12.993 24.8689 13.0236 24.8163 13.0439C24.7637 13.0643 24.7075 13.074 24.6511 13.0726H22.3978C22.2896 13.067 22.1875 13.0206 22.1122 12.9426C22.037 12.8646 21.9942 12.761 21.9924 12.6526L21.9888 6.50264C21.9888 5.20983 22.2006 3.30714 20.5974 3.30714C18.9722 3.30714 19.0343 5.16235 19.0343 6.50264V12.6526C19.0334 12.709 19.0213 12.7647 18.9987 12.8164C18.9761 12.8682 18.9435 12.9149 18.9027 12.9539C18.862 12.993 18.8139 13.0236 18.7613 13.0439C18.7087 13.0643 18.6525 13.074 18.5961 13.0726ZM60.3786 0.425712C63.7311 0.425712 65.5462 3.30714 65.5462 6.97009C65.5462 10.5052 63.5376 13.3136 60.3749 13.3136C57.0808 13.3136 55.2877 10.4322 55.2877 6.84592C55.2877 3.23044 57.1064 0.425712 60.3786 0.425712ZM60.3896 2.79221C58.7242 2.79221 58.6183 5.06375 58.6183 6.48073C58.6183 7.8977 58.5964 10.9252 60.3713 10.9252C62.1242 10.9252 62.2046 8.47837 62.2046 6.992C62.2046 6.01327 62.1681 4.84463 61.8686 3.91702C61.613 3.10993 61.109 2.79221 60.3896 2.79221ZM69.8957 13.0726H67.6424C67.5351 13.0646 67.4344 13.0174 67.3596 12.9399C67.2849 12.8624 67.2412 12.7602 67.2371 12.6526L67.2334 1.04655C67.2461 0.940391 67.2982 0.842864 67.3793 0.773224C67.4605 0.703585 67.5648 0.666891 67.6716 0.670394H69.7642C69.857 0.675012 69.9459 0.708982 70.0181 0.767401C70.0903 0.82582 70.1421 0.90567 70.166 0.995425V2.76664H70.2098C70.8416 1.18168 71.729 0.425712 73.2921 0.425712C74.3037 0.425712 75.2934 0.790911 75.9288 1.79156C76.5204 2.71917 76.5204 4.28222 76.5204 5.40704V12.7074C76.503 12.8105 76.4492 12.9041 76.3689 12.971C76.2885 13.038 76.1868 13.074 76.0822 13.0726H73.818C73.7197 13.0657 73.6266 13.0259 73.5537 12.9597C73.4809 12.8934 73.4324 12.8045 73.4162 12.7074V6.40403C73.4162 5.13679 73.5623 3.28157 72.0029 3.28157C71.4551 3.28157 70.9438 3.64678 70.6955 4.20918C70.3778 4.91767 70.3376 5.62251 70.3376 6.40403V12.6526C70.3329 12.7663 70.2841 12.8736 70.2016 12.952C70.1192 13.0304 70.0095 13.0736 69.8957 13.0726ZM39.7777 7.5325V7.04313C38.1379 7.04313 36.4142 7.39007 36.4142 9.31833C36.4142 10.2934 36.9218 10.9544 37.791 10.9544C38.4228 10.9544 38.9962 10.5637 39.354 9.92821C39.7996 9.14669 39.7777 8.41263 39.7777 7.5325ZM42.0565 13.0397C41.9835 13.1015 41.8935 13.1398 41.7984 13.1495C41.7033 13.1593 41.6074 13.1401 41.5233 13.0945C40.771 12.4737 40.6359 12.1815 40.2232 11.5862C38.9815 12.8535 38.1051 13.2296 36.4982 13.2296C34.5955 13.2296 33.1164 12.061 33.1164 9.70909C33.1164 7.87579 34.1061 6.62315 35.5267 6.01327C36.7538 5.47277 38.4666 5.37782 39.7777 5.22809V4.93593C39.7777 4.39909 39.8142 3.76364 39.5001 3.29983C39.2262 2.88351 38.6967 2.71186 38.2292 2.71186C37.371 2.71186 36.6041 3.1501 36.4142 4.06675C36.3777 4.27127 36.2279 4.47213 36.0198 4.48308L33.8286 4.2457C33.646 4.20553 33.4378 4.0558 33.4926 3.77094C33.9966 1.11594 36.3996 0.3125 38.5506 0.3125C39.6462 0.3125 41.0851 0.60466 41.9543 1.44097C43.0535 2.46353 42.9476 3.83668 42.9476 5.32669V8.85087C42.9476 9.90995 43.3859 10.3738 43.8022 10.9471C43.9446 11.148 43.9775 11.3927 43.7912 11.546C43.3311 11.9332 42.513 12.6453 42.0602 13.047L42.0565 13.0397ZM10.1417 7.5325V7.04313C8.50562 7.04313 6.78188 7.39007 6.78188 9.31833C6.78188 10.2934 7.28585 10.9544 8.15503 10.9544C8.79047 10.9544 9.36019 10.5637 9.71808 9.92821C10.1636 9.14669 10.1417 8.41263 10.1417 7.5325ZM12.4206 13.0397C12.3475 13.1015 12.2576 13.1398 12.1624 13.1495C12.0673 13.1593 11.9714 13.1401 11.8874 13.0945C11.1351 12.4737 11.0036 12.1815 10.5909 11.5862C9.34923 12.8535 8.47275 13.2296 6.86587 13.2296C4.96318 13.2296 3.48047 12.061 3.48047 9.70909C3.48047 7.87579 4.47381 6.62315 5.89079 6.01327C7.11786 5.47277 8.83065 5.37782 10.1417 5.22809V4.93593C10.1417 4.39909 10.1819 3.76364 9.86781 3.29983C9.59026 2.88351 9.06437 2.71186 8.60057 2.71186C7.7387 2.71186 6.96813 3.1501 6.78188 4.06675C6.74536 4.27127 6.59197 4.47213 6.39111 4.48308L4.19626 4.2457C4.01366 4.20553 3.80915 4.0558 3.86028 3.77094C4.36425 1.11594 6.76361 0.3125 8.91464 0.3125C10.0139 0.3125 11.4528 0.60466 12.3183 1.44097C13.4176 2.46353 13.3153 3.83668 13.3153 5.32669V8.85087C13.3153 9.90995 13.7535 10.3738 14.1662 10.9471C14.3123 11.148 14.3452 11.3927 14.1589 11.546C13.6988 11.9332 12.8807 12.6453 12.4279 13.047L12.4206 13.0397Z" fill="#869DBD" fill-opacity="0.75"/>
</svg>
