<svg width="80" height="23" viewBox="0 0 80 23" fill="none" xmlns="http://www.w3.org/2000/svg">
<path d="M23.0678 20.8825V22.4219H12.293V20.8825H23.0678ZM39.9063 20.8825C38.8255 21.8763 37.4098 22.4259 35.9416 22.4218L24.6071 22.4066V20.8825H39.9063ZM55.9273 20.8825L55.3898 22.4218L54.8571 20.8825H55.9273ZM50.7745 20.8825V22.4219H43.0782V20.8825H50.7745ZM67.7063 20.8825V22.4219H60.01V20.8825H67.7063ZM41.6498 17.9441C41.5176 18.484 41.3091 19.0023 41.0305 19.4833H24.6071V17.9441H41.6498ZM56.9588 17.9441L56.4186 19.4835H54.3659L53.8256 17.9441H56.9588ZM50.7745 17.9441V19.4833H43.0782V17.9441H50.7745ZM67.7063 17.9441V19.4833H60.01V17.9441H67.7063ZM23.0678 17.9441V19.4833H12.293V17.9441H23.0678ZM19.9891 15.0054V16.5447H15.3714V15.0054H19.9891ZM32.3032 15.0054V16.5447H27.6854V15.0054H32.3032ZM41.6128 15.0054C41.7492 15.5071 41.8184 16.0247 41.8186 16.5447H36.6413V15.0054H41.6128ZM57.9904 15.0054L57.4501 16.5447H53.3342L52.7937 15.0054H57.9904ZM50.7744 15.0054V16.5447H46.1566V15.0054H50.7744ZM64.6277 15.0054V16.5447H60.0099V15.0054H64.6277ZM19.9891 12.0668V13.6061H15.3714V12.0668H19.9891ZM50.7744 12.0668V13.6061H46.1566V12.0668H50.7744ZM64.6277 12.0668V13.6061H60.0099V12.0668H64.6277ZM39.7447 12.0668C40.2574 12.5029 40.6916 13.0234 41.0287 13.606H27.6855V12.0667L39.7447 12.0668ZM59.0221 12.0668L58.4818 13.6061H52.3025L51.7622 12.0667L59.0221 12.0668ZM54.9594 9.12831L55.3921 10.3725L55.8247 9.12831H64.6276V10.6675H60.0101V9.25331L59.5133 10.6677H51.271L50.7744 9.2531V10.6677H46.1568V9.12831H54.9594ZM27.6854 9.12831H41.0289C40.6918 9.71089 40.2575 10.2315 39.7449 10.6675H27.6855L27.6854 9.12831ZM19.9891 9.12831V10.6675H15.3714V9.1282L19.9891 9.12831ZM19.9891 6.18967V7.72891H15.3714V6.18967H19.9891ZM32.3032 6.18967V7.72891H27.6854V6.18967H32.3032ZM41.8187 6.18967C41.8185 6.7096 41.7492 7.2272 41.6128 7.72891H36.6413V6.18967H41.8187ZM53.9375 6.18967L54.4728 7.72891H46.1568V6.18967H53.9375ZM64.6276 6.18967V7.72891H56.3115L56.8467 6.18967H64.6276ZM23.0676 3.25103V4.79038H12.293V3.25093L23.0676 3.25103ZM41.0304 3.25103C41.309 3.73205 41.5175 4.25035 41.6497 4.79027H24.6068V3.25103H41.0304ZM67.7062 3.25103V4.79027H57.3333L57.8686 3.25103H67.7062ZM52.9156 3.25103L53.4509 4.79027H43.0781V3.25103H52.9156ZM23.0679 0.312614V1.85174H12.293V0.312505L23.0679 0.312614ZM35.9416 0.312505C37.4094 0.310497 38.8244 0.859849 39.9063 1.85174H24.6071V0.312505H35.9416ZM67.7063 0.312505V1.85185H58.3553L58.8906 0.312614L67.7063 0.312505ZM51.894 0.312505L52.4292 1.85185H43.0782V0.312614L51.894 0.312505Z" fill="#869DBD" fill-opacity="0.75"/>
</svg>
