<svg width="80" height="23" viewBox="0 0 80 23" fill="none" xmlns="http://www.w3.org/2000/svg">
<g clip-path="url(#clip0_534_28148)">
<path d="M78.4746 1.62158C78.6731 1.61649 78.8708 1.65166 79.0557 1.72412C79.2403 1.79654 79.4087 1.905 79.5508 2.04345C79.693 2.18208 79.8067 2.34777 79.8838 2.53076C79.9609 2.71368 80 2.91038 80 3.10888V20.4936C79.9975 20.6906 79.9562 20.8851 79.8779 21.0659C79.7997 21.2467 79.6859 21.4098 79.5439 21.5464C79.402 21.683 79.2344 21.7905 79.0508 21.8618C78.8673 21.933 78.6714 21.9675 78.4746 21.9624H61.1602C60.9651 21.9649 60.7709 21.9285 60.5898 21.856C60.4089 21.7834 60.2438 21.6759 60.1045 21.5395C59.9652 21.4032 59.8547 21.2404 59.7783 21.061C59.702 20.8816 59.6618 20.6887 59.6602 20.4936V3.10888C59.6593 2.91231 59.6972 2.71726 59.7725 2.53564C59.8476 2.35421 59.9583 2.18958 60.0977 2.05126C60.2373 1.91283 60.4037 1.80367 60.5859 1.72997C60.7682 1.65628 60.9635 1.61904 61.1602 1.62158H78.4746ZM56.7363 18.9487H53.9395V17.6782C53.5901 18.1441 53.138 18.5232 52.6191 18.7876C52.1002 19.052 51.5277 19.1948 50.9453 19.2036C48.0469 19.2036 46.1398 17.1122 46.1396 14.1567C46.1396 11.4426 47.8312 8.95068 50.5898 8.95068C51.1697 8.8998 51.7535 8.98833 52.292 9.20947C52.8305 9.43066 53.3078 9.7783 53.6846 10.2222H53.7227V4.62841H56.7363V18.9487ZM40.6738 8.92529C43.4895 8.92545 45.2568 10.9339 45.2568 14.0483V14.9956H38.2646C38.3477 15.5343 38.6237 16.0248 39.041 16.3755C39.4582 16.726 39.9884 16.9127 40.5332 16.9018C40.9625 16.9012 41.3851 16.7923 41.7607 16.5845C42.1364 16.3766 42.453 16.0768 42.6816 15.7134L44.792 17.271C44.2892 17.8735 43.6594 18.3573 42.9473 18.687C42.2351 19.0167 41.4585 19.1846 40.6738 19.1782C37.6609 19.1782 35.2451 17.1693 35.2451 14.0483C35.2451 10.9274 37.6609 8.92529 40.6738 8.92529ZM20.5986 9.02392C23.656 9.02392 24.2158 11.0326 24.2158 13.645V18.9712H21.2275V14.2485C21.2275 13.1236 21.2278 11.7067 19.6582 11.7065C18.0883 11.7065 17.8467 12.933 17.8467 14.1977V18.9976H14.833V9.26513H17.7061V10.5942H17.7451C18.0349 10.0995 18.4527 9.69192 18.9551 9.41552C19.4575 9.13913 20.0255 9.0038 20.5986 9.02392ZM73.3574 9.02001C72.7851 8.99931 72.2181 9.13452 71.7158 9.40966C71.2134 9.68491 70.7945 10.0908 70.5039 10.5845H70.4658V9.24951H67.5732V18.9868H70.5859V14.188C70.586 12.9233 70.8343 11.697 72.3975 11.6968C73.961 11.6968 73.9619 13.1137 73.9619 14.2388V18.9556H76.9746V13.6411C76.9745 11.0289 76.4083 9.02001 73.3574 9.02001ZM2.95312 16.0727H8.76367V18.9712H-0.186523V4.64404H2.95312V16.0727ZM28.7852 13.2065L32.2051 9.25244H35.8984L31.9443 13.7466L35.8154 18.9712H32.0273L28.8242 14.1724H28.7852V18.9712H25.7725V4.64404H28.7852V13.2065ZM13.1621 18.9653H10.1484V9.26513H13.1621V18.9653ZM62.6729 9.24951V18.9556H65.6855V9.24951H62.6729ZM51.5234 11.5884L51.3584 11.5893C50.9305 11.6081 50.5137 11.738 50.1494 11.9673C49.7329 12.2296 49.404 12.6108 49.2051 13.061C49.0063 13.5111 48.9457 14.0102 49.0322 14.4946C49.1188 14.9792 49.3488 15.4273 49.6914 15.7808C50.0339 16.134 50.4737 16.3772 50.9551 16.479C51.4367 16.5808 51.9383 16.5367 52.3945 16.352C52.8508 16.1673 53.2414 15.85 53.5166 15.4419C53.7917 15.0339 53.9392 14.5531 53.9395 14.061C53.9664 13.7344 53.9226 13.4055 53.8115 13.0972C53.7005 12.789 53.5247 12.5082 53.2959 12.2739C53.067 12.0396 52.7899 11.857 52.4844 11.7388C52.1787 11.6205 51.8506 11.5691 51.5234 11.5884ZM40.4004 11.1177C39.8736 11.0844 39.3545 11.2599 38.9561 11.606C38.5577 11.952 38.3113 12.4412 38.2705 12.9673H42.25C42.256 12.7229 42.2118 12.4795 42.1211 12.2524C42.0303 12.0254 41.8946 11.8189 41.7217 11.646C41.5487 11.4731 41.3423 11.3373 41.1152 11.2466C40.8881 11.1558 40.6449 11.1116 40.4004 11.1177ZM11.6553 4.44091C12.0009 4.44091 12.3386 4.54387 12.626 4.73583C12.9134 4.9279 13.1382 5.20063 13.2705 5.52001C13.4028 5.83929 13.4375 6.19082 13.3701 6.52978C13.3027 6.86883 13.136 7.18083 12.8916 7.42529C12.6471 7.66975 12.3352 7.83636 11.9961 7.9038C11.6571 7.97117 11.3056 7.93645 10.9863 7.80419C10.6671 7.67195 10.3942 7.44791 10.2021 7.16064C10.0101 6.87318 9.90723 6.53468 9.90723 6.18896C9.90726 5.72541 10.0912 5.28041 10.4189 4.95263C10.7467 4.62486 11.1917 4.44092 11.6553 4.44091ZM64.8477 4.5708C64.5283 4.43861 64.1768 4.40376 63.8379 4.47119C63.4989 4.53867 63.1878 4.70531 62.9434 4.9497C62.699 5.19409 62.5323 5.50527 62.4648 5.84423C62.3974 6.18319 62.4323 6.53468 62.5645 6.854C62.6968 7.1734 62.9206 7.44708 63.208 7.63915C63.4953 7.83111 63.8332 7.933 64.1787 7.9331C64.6423 7.9331 65.0872 7.74919 65.415 7.42138C65.7429 7.09357 65.9268 6.64865 65.9268 6.18505C65.9267 5.83953 65.8248 5.50166 65.6328 5.21435C65.4407 4.92689 65.1671 4.7031 64.8477 4.5708Z" fill="#869DBD" fill-opacity="0.75"/>
</g>
<defs>
<clipPath id="clip0_534_28148">
<rect width="80" height="23" fill="white"/>
</clipPath>
</defs>
</svg>
