<svg width="80" height="23" viewBox="0 0 80 23" fill="none" xmlns="http://www.w3.org/2000/svg">
<path d="M29.368 3.83733H32.4L37.556 13.3093L42.708 3.83733H45.676V19.3973H43.2V7.46933L38.68 15.7293H36.36L31.84 7.46933V19.4013H29.368V3.83733ZM53.652 19.6773C52.5053 19.6773 51.4987 19.42 50.632 18.9053C49.7678 18.3962 49.0638 17.6547 48.6 16.7653C48.1006 15.7967 47.8504 14.7189 47.872 13.6293C47.872 12.4373 48.1093 11.3813 48.584 10.4613C49.056 9.54133 49.7147 8.82133 50.56 8.30133C51.4027 7.78399 52.3707 7.52533 53.464 7.52533C54.552 7.52533 55.488 7.78666 56.272 8.30933C57.056 8.83199 57.66 9.56399 58.084 10.5053C58.508 11.4467 58.72 12.5507 58.72 13.8173V14.5053H50.32C50.4275 15.3611 50.8291 16.1529 51.456 16.7453C52.056 17.292 52.816 17.5653 53.736 17.5653C54.4747 17.5653 55.1107 17.4533 55.644 17.2293C56.1773 17.008 56.6773 16.6707 57.144 16.2173L58.456 17.8533C57.1549 19.0663 55.4303 19.7211 53.652 19.6773ZM55.456 10.4453C55.1912 10.1769 54.8734 9.96641 54.5229 9.82731C54.1724 9.68821 53.7968 9.62352 53.42 9.63733C53.0399 9.62817 52.662 9.69652 52.3092 9.83818C51.9564 9.97985 51.6362 10.1919 51.368 10.4613C50.7906 11.0668 50.4244 11.8427 50.324 12.6733H56.344C56.272 11.724 55.976 10.9813 55.456 10.4453ZM61.72 9.86132H59.444V7.80532H61.724V4.40533H64.108V7.80532H67.568V9.86132H64.108V15.0733C64.108 15.9427 64.2547 16.5613 64.548 16.9293C64.8387 17.3027 65.3387 17.4893 66.048 17.4893C66.36 17.4893 66.6267 17.476 66.848 17.4493C67.064 17.4227 67.304 17.3867 67.568 17.3413V19.3773C66.9254 19.5677 66.2582 19.6621 65.588 19.6573C63.012 19.6573 61.724 18.2267 61.724 15.3653L61.72 9.86132ZM80 19.3973H77.656V17.7773C77.24 18.3853 76.712 18.8533 76.072 19.1813C75.432 19.512 74.7013 19.6773 73.88 19.6773C72.8747 19.6773 71.9827 19.416 71.204 18.8933C70.4107 18.3506 69.778 17.6046 69.372 16.7333C68.9165 15.7515 68.6881 14.6796 68.704 13.5973C68.704 12.4107 68.9307 11.3613 69.384 10.4493C69.8373 9.53733 70.4627 8.82266 71.26 8.30532C72.0573 7.78799 72.9747 7.52799 74.012 7.52533C74.7907 7.52533 75.492 7.67999 76.116 7.98933C76.728 8.28933 77.256 8.73733 77.656 9.29333V7.80532H80V19.3973ZM77.616 11.8613C77.38 11.2268 76.9534 10.6809 76.3948 10.2985C75.8362 9.91608 75.1729 9.71586 74.496 9.72533C74.0369 9.70694 73.5794 9.79152 73.1572 9.97285C72.7351 10.1542 72.3588 10.4277 72.056 10.7733C71.448 11.472 71.144 12.412 71.144 13.5933C71.144 14.788 71.4373 15.7347 72.024 16.4333C72.3127 16.7775 72.677 17.0503 73.0884 17.2307C73.4998 17.4111 73.9473 17.4941 74.396 17.4733C75.095 17.4833 75.7807 17.2826 76.364 16.8973C76.9373 16.5245 77.3761 15.9778 77.616 15.3373V11.8613ZM17.412 3.30933C15.42 3.30933 13.868 4.82933 12.46 6.76533C10.524 4.26133 8.908 3.30933 6.972 3.30933C3.024 3.30933 0 8.52532 0 14.0493C0 17.5053 1.644 19.6813 4.4 19.6813C6.388 19.6813 7.812 18.7333 10.352 14.2293L12.136 11.0293C12.3893 11.4453 12.6573 11.8947 12.94 12.3773L14.132 14.4093C16.448 18.3493 17.74 19.6813 20.08 19.6813C22.764 19.6813 24.26 17.4733 24.26 13.9453C24.26 8.16533 21.168 3.30933 17.412 3.30933ZM8.416 13.0093C6.36 16.2853 5.648 17.0173 4.504 17.0173C3.324 17.0173 2.624 15.9653 2.624 14.0933C2.624 10.0853 4.592 5.98532 6.936 5.98532C8.208 5.98532 9.268 6.72933 10.896 9.09333C9.352 11.5013 8.416 13.0093 8.416 13.0093ZM16.176 12.5973L14.756 10.1893C14.3984 9.59533 14.029 9.00855 13.648 8.42933C14.928 6.42133 15.988 5.42133 17.244 5.42133C19.856 5.42133 21.948 9.32933 21.948 14.1293C21.948 15.9573 21.356 17.0173 20.136 17.0173C18.964 17.0173 18.404 16.2333 16.176 12.5973Z" fill="#869DBD" fill-opacity="0.75"/>
</svg>
