<svg width="16" height="15" viewBox="0 0 16 15" fill="none" xmlns="http://www.w3.org/2000/svg">
<path d="M6.77421 0.504099C7.15805 -0.168004 8.12711 -0.168002 8.51094 0.504101L10.2968 3.63111C10.4389 3.88006 10.6811 4.05602 10.9618 4.1143L14.4876 4.84643C15.2455 5.00379 15.5449 5.92542 15.0243 6.49816L12.6022 9.16289C12.4094 9.37503 12.3169 9.65973 12.3482 9.94471L12.7414 13.5242C12.826 14.2936 12.042 14.8632 11.3364 14.545L8.05361 13.0649C7.79226 12.9471 7.4929 12.9471 7.23155 13.0649L3.94877 14.545C3.24319 14.8632 2.4592 14.2936 2.54373 13.5242L2.93697 9.94471C2.96828 9.65973 2.87577 9.37503 2.68294 9.16289L0.26083 6.49816C-0.259765 5.92542 0.0396893 5.00379 0.797509 4.84643L4.32332 4.1143C4.60402 4.05602 4.84621 3.88006 4.98838 3.63111L6.77421 0.504099Z" fill="#FFB829"/>
</svg>
