<svg width="100" height="23" viewBox="0 0 100 23" fill="none" xmlns="http://www.w3.org/2000/svg">
<g clip-path="url(#clip0_621_4206)">
<path fill-rule="evenodd" clip-rule="evenodd" d="M0.194169 15.6741C0.11116 15.8906 0.22378 15.9357 0.250479 15.9741C0.498537 16.1537 0.750479 16.2838 1.00291 16.4299C2.35242 17.1435 3.62427 17.3522 4.95437 17.3522C7.66311 17.3522 9.34758 15.9105 9.34758 13.5901V13.5445C9.34758 11.3988 7.44466 10.6173 5.66796 10.059L5.43544 9.98377C4.09077 9.54785 2.93058 9.16824 2.93058 8.28474V8.2396C2.93058 7.48232 3.61019 6.92406 4.65873 6.92406C5.82379 6.92406 7.21214 7.31193 8.10049 7.8027C8.10049 7.8027 8.3636 7.97261 8.45923 7.71872C8.51117 7.58134 8.96408 6.36921 9.01262 6.23329C9.06408 6.09105 8.97379 5.98377 8.88107 5.92843C7.86165 5.30707 6.45389 4.88474 4.99758 4.88474L4.72718 4.88571C2.2466 4.88571 0.513586 6.38571 0.513586 8.53134V8.57746C0.513586 10.8396 2.42621 11.5775 4.21262 12.0872L4.49999 12.1765C5.80097 12.5765 6.92719 12.9241 6.92719 13.8367V13.8823C6.92719 14.7221 6.19418 15.3483 5.01942 15.3483C4.56261 15.3483 3.10679 15.3406 1.52912 14.3435C1.33834 14.2323 1.22961 14.1522 1.08252 14.0624C1.00485 14.0153 0.810673 13.9304 0.726207 14.1847L0.192227 15.6702L0.194169 15.6741ZM39.8524 15.6702C39.7694 15.8867 39.882 15.9318 39.9097 15.9702C40.1568 16.1498 40.4097 16.2799 40.6621 16.426C42.0117 17.1396 43.2835 17.3483 44.6136 17.3483C47.3223 17.3483 49.0068 15.9066 49.0068 13.5862V13.5406C49.0068 11.3949 47.1087 10.6134 45.3272 10.0551L45.0947 9.97989C43.75 9.54397 42.5898 9.16435 42.5898 8.28086V8.23571C42.5898 7.47843 43.2694 6.92018 44.318 6.92018C45.483 6.92018 46.8665 7.30804 47.7597 7.79882C47.7597 7.79882 48.0228 7.96872 48.1189 7.71484C48.1704 7.57746 48.6238 6.36533 48.6675 6.2294C48.7194 6.08717 48.6286 5.97989 48.5364 5.92455C47.517 5.30319 46.1092 4.88086 44.6529 4.88086L44.382 4.88183C41.9015 4.88183 40.1684 6.38183 40.1684 8.52746V8.57358C40.1684 10.8357 42.0811 11.5736 43.8675 12.0833L44.1544 12.1726C45.4602 12.5726 46.5816 12.9202 46.5816 13.8328V13.8784C46.5816 14.7182 45.8485 15.3445 44.6738 15.3445C44.216 15.3445 42.7563 15.3367 41.1835 14.3396C40.9927 14.2284 40.8811 14.1517 40.7364 14.0585C40.6874 14.0275 40.4587 13.9381 40.3806 14.1809L39.8466 15.6663L39.8524 15.6702ZM66.934 11.1226C66.934 12.4333 66.6893 13.4673 66.2107 14.2003C65.733 14.9236 65.0117 15.2779 64.0068 15.2779C63.0019 15.2779 62.2835 14.9265 61.8126 14.2051C61.3384 13.477 61.099 12.4381 61.099 11.1275C61.099 9.81678 61.3398 8.78766 61.8126 8.06435C62.2825 7.34591 62.9971 7.00125 64.0068 7.00125C65.0165 7.00125 65.735 7.34931 66.2107 8.06435C66.6922 8.78766 66.934 9.81678 66.934 11.1275V11.1226ZM69.1961 8.69542C68.9733 7.943 68.6282 7.2828 68.167 6.7294C67.7053 6.17601 67.1233 5.7294 66.4291 5.40901C65.7398 5.0862 64.9243 4.92358 64.0019 4.92358C63.0796 4.92358 62.2689 5.08717 61.5748 5.40901C60.8854 5.73134 60.2981 6.17601 59.8369 6.7294C59.3767 7.2828 59.0311 7.943 58.8078 8.69542C58.5869 9.443 58.4748 10.2585 58.4748 11.1275C58.4748 11.9964 58.5869 12.8119 58.8078 13.5595C59.0296 14.3119 59.3757 14.9721 59.8369 15.5255C60.2985 16.0789 60.8854 16.5207 61.5748 16.8362C62.2689 17.1508 63.0845 17.311 64.0019 17.311C64.9194 17.311 65.735 17.1508 66.4243 16.8362C67.1136 16.5216 67.701 16.0789 68.1621 15.5255C68.6228 14.9721 68.968 14.3119 69.1913 13.5595C69.4117 12.8119 69.5238 11.9964 69.5238 11.1275C69.5238 10.2634 69.4117 9.443 69.1913 8.69542H69.1961ZM87.7835 14.909C87.7092 14.6891 87.4947 14.7721 87.4947 14.7721C87.166 14.8978 86.815 15.0144 86.4413 15.0726C86.0646 15.1318 85.6451 15.1614 85.2034 15.1614C84.1112 15.1614 83.2374 14.8357 82.616 14.1906C81.9898 13.5449 81.6403 12.5061 81.6451 11.0983C81.6485 9.81678 81.9583 8.85562 82.5141 8.11775C83.0626 7.3896 83.9073 7.01096 85.0238 7.01096C85.9558 7.01096 86.6694 7.11921 87.417 7.35319C87.417 7.35319 87.5942 7.43037 87.6791 7.19688C87.8777 6.64833 88.0243 6.25513 88.2374 5.65319C88.2976 5.48086 88.15 5.40804 88.0961 5.38717C87.8029 5.27261 87.1107 5.08474 86.5864 5.00562C86.0961 4.93086 85.5282 4.89202 84.8874 4.89202C83.9359 4.89202 83.0913 5.05465 82.368 5.37698C81.6447 5.69882 81.033 6.14397 80.5476 6.69736C80.0621 7.25076 79.6932 7.91096 79.4456 8.66338C79.2005 9.41096 79.0767 10.2313 79.0767 11.1003C79.0767 12.9741 79.5816 14.4935 80.5816 15.6051C81.5816 16.7216 83.0864 17.2847 85.0476 17.2847C86.2078 17.2847 87.3971 17.0503 88.2515 16.7119C88.2515 16.7119 88.4146 16.6333 88.3437 16.443L87.7854 14.909H87.7835ZM91.7418 9.86047C91.85 9.13232 92.0495 8.52552 92.3631 8.05465C92.8325 7.3362 93.5476 6.943 94.5524 6.943C95.5573 6.943 96.2223 7.33814 96.6981 8.05465C97.0136 8.52795 97.1515 9.15659 97.2029 9.86047L91.7175 9.8595L91.7418 9.86047ZM99.3631 8.25853C99.1704 7.53523 98.6932 6.80222 98.3825 6.46727C97.8874 5.93814 97.4068 5.56435 96.9262 5.36047C96.2325 5.06542 95.4859 4.91401 94.732 4.91533C93.7757 4.91533 92.9068 5.07698 92.2029 5.40562C91.499 5.73668 90.9068 6.18717 90.4408 6.75028C89.9752 7.31338 89.6252 7.97843 89.4019 8.74057C89.1786 9.49299 89.066 10.3182 89.066 11.1823C89.066 12.0658 89.183 12.8862 89.4131 13.6289C89.6456 14.3765 90.0199 15.0318 90.5248 15.5755C91.0296 16.1241 91.6752 16.5512 92.4519 16.8522C93.2238 17.1508 94.1607 17.3056 95.2335 17.3022C97.4471 17.2949 98.6121 16.8022 99.0879 16.5352C99.1728 16.4877 99.2529 16.4056 99.1529 16.1692L98.6529 14.7663C98.5762 14.5571 98.3646 14.6328 98.3646 14.6328C97.816 14.8377 97.0393 15.2056 95.2189 15.2008C94.0296 15.1988 93.151 14.8478 92.5976 14.2978C92.0345 13.7347 91.7529 12.9144 91.7092 11.7493L99.3791 11.7551C99.3791 11.7551 99.5811 11.7532 99.6019 11.5561C99.6102 11.4745 99.8646 9.98329 99.3733 8.25999L99.3631 8.25853ZM30.4311 9.86047C30.5393 9.13232 30.7393 8.52552 31.0524 8.05465C31.5223 7.3362 32.2369 6.943 33.2417 6.943C34.2466 6.943 34.9117 7.33814 35.3874 8.05465C35.7024 8.52795 35.8403 9.15659 35.8922 9.86047L30.4068 9.8595L30.4311 9.86047ZM38.0524 8.25853C37.8602 7.53523 37.3825 6.80222 37.0718 6.46727C36.5767 5.93814 36.0961 5.56435 35.6155 5.36047C34.9217 5.06542 34.1753 4.91401 33.4214 4.91533C32.465 4.91533 31.5961 5.07698 30.8922 5.40562C30.1884 5.73668 29.5961 6.18717 29.1301 6.75028C28.6655 7.31338 28.3146 7.97843 28.0913 8.74057C27.8685 9.49299 27.7563 10.3182 27.7563 11.1823C27.7563 12.0658 27.8723 12.8862 28.1039 13.6289C28.3359 14.3765 28.7107 15.0318 29.2107 15.5755C29.7155 16.1241 30.3612 16.5512 31.1379 16.8522C31.9097 17.1508 32.8418 17.3056 33.9194 17.3022C36.133 17.2949 37.2981 16.8022 37.7738 16.5352C37.8583 16.4877 37.9388 16.4056 37.8384 16.1692L37.3384 14.7663C37.2612 14.5571 37.0495 14.6328 37.0495 14.6328C36.501 14.8377 35.7243 15.2056 33.9039 15.2008C32.7194 15.1988 31.8359 14.8478 31.2825 14.2978C30.7194 13.7347 30.4379 12.9144 30.3942 11.7493L38.0641 11.7551C38.0641 11.7551 38.266 11.7532 38.2869 11.5561C38.2952 11.4745 38.5495 9.98329 38.0578 8.25999L38.0524 8.25853ZM13.8777 14.8605C13.5772 14.6207 13.5354 14.5619 13.4359 14.4061C13.284 14.1716 13.2063 13.8381 13.2063 13.411C13.2063 12.7411 13.4296 12.2556 13.8908 11.9304C13.8859 11.9313 14.551 11.3576 16.1141 11.377C16.8098 11.3895 17.5039 11.4486 18.1917 11.5542V15.0347H18.1927C18.1927 15.0347 17.2218 15.244 16.1248 15.31C14.5665 15.4037 13.8772 14.8614 13.882 14.8629L13.8777 14.8605ZM16.9262 9.47212C16.6155 9.44931 16.2126 9.43814 15.732 9.43814C15.0767 9.43814 14.4408 9.51969 13.8485 9.67989C13.2515 9.84105 12.7126 10.0906 12.2515 10.4226C11.789 10.7525 11.4086 11.1844 11.1398 11.6847C10.8685 12.1896 10.7301 12.7818 10.7301 13.4517C10.7301 14.1313 10.8481 14.7187 11.0811 15.1993C11.3094 15.676 11.6531 16.0881 12.0811 16.3983C12.5068 16.708 13.0325 16.9372 13.6393 17.0731C14.2413 17.2105 14.9209 17.2799 15.6685 17.2799C16.4549 17.2799 17.2364 17.2139 17.9937 17.0862C18.6386 16.9749 19.2812 16.85 19.9209 16.7114C20.1762 16.6527 20.4597 16.5755 20.4597 16.5755C20.649 16.5275 20.6345 16.325 20.6345 16.325L20.6301 9.33474C20.6301 7.80076 20.2204 6.65999 19.4117 5.9561C18.6058 5.25222 17.4262 4.89785 15.8971 4.89785C15.3243 4.89785 14.3971 4.97552 13.8437 5.08668C13.8437 5.08668 12.1738 5.41096 11.4845 5.95076C11.4845 5.95076 11.333 6.04397 11.4155 6.25513L11.9592 7.71144C12.0267 7.90028 12.2107 7.83571 12.2107 7.83571C12.2107 7.83571 12.2684 7.8129 12.3364 7.77261C13.8073 6.97164 15.6714 6.99591 15.6714 6.99591C16.4966 6.99591 17.1374 7.16338 17.5646 7.49105C17.9825 7.81193 18.1956 8.29688 18.1956 9.3163V9.64008C17.5403 9.54494 16.9335 9.49008 16.9335 9.49008L16.9262 9.47212ZM78.5767 5.52552C78.5879 5.49989 78.5937 5.47236 78.5937 5.4445C78.5937 5.41659 78.5883 5.38897 78.5777 5.36324C78.567 5.33751 78.551 5.31421 78.5311 5.29474C78.5112 5.27523 78.4874 5.25994 78.4617 5.24979C78.3311 5.20028 77.6801 5.0629 77.1801 5.03183C76.2189 4.97164 75.685 5.13377 75.2044 5.34931C74.7296 5.56338 74.2044 5.90756 73.9131 6.30562L73.9121 5.37358C73.9121 5.24542 73.8214 5.14202 73.6922 5.14202H71.7311C71.6039 5.14202 71.5117 5.24542 71.5117 5.37358V16.7813C71.5117 16.8429 71.5364 16.902 71.5801 16.9456C71.6233 16.9892 71.6825 17.0137 71.7442 17.0139H73.7539C73.8155 17.0137 73.8743 16.9892 73.918 16.9456C73.9617 16.902 73.9859 16.8429 73.9859 16.7813V11.0532C73.9859 10.2862 74.0704 9.52406 74.2388 9.04348C74.4049 8.56824 74.6306 8.18911 74.9087 7.91727C75.1743 7.65469 75.4985 7.45989 75.8553 7.34931C76.1898 7.25329 76.5364 7.2046 76.8845 7.20465C77.285 7.20465 77.7243 7.30756 77.7243 7.30756C77.8718 7.32406 77.9539 7.23377 78.0039 7.10076C78.1354 6.75076 78.5087 5.7027 78.5816 5.49397" fill="#869DBD"/>
<path fill-rule="evenodd" clip-rule="evenodd" d="M59.8063 0.260541C59.5578 0.185467 59.3053 0.12549 59.0495 0.080932C58.7058 0.0235313 58.3573 -0.00343416 58.0087 0.000349205C56.6238 0.000349205 55.532 0.391613 54.7655 1.16443C54.0044 1.93142 53.4864 3.09986 53.2267 4.63724L53.133 5.15617H51.3947C51.3947 5.15617 51.1825 5.14743 51.1379 5.37898L50.8524 6.97121C50.8325 7.12364 50.8981 7.21879 51.1019 7.21782H52.7942L51.0772 16.8018C50.9427 17.5736 50.7888 18.2086 50.6184 18.6897C50.4505 19.1644 50.2864 19.5202 50.0845 19.7785C49.8888 20.0285 49.7034 20.2125 49.3835 20.3198C49.1194 20.4086 48.8155 20.4494 48.4826 20.4494C48.2972 20.4494 48.0506 20.4183 47.8685 20.3819C47.6865 20.346 47.5918 20.3052 47.4554 20.2479C47.4554 20.2479 47.2569 20.1722 47.1787 20.3712C47.1151 20.5338 46.6642 21.7741 46.6108 21.9275C46.5564 22.079 46.6326 22.1984 46.7287 22.2329C46.954 22.3134 47.1215 22.3649 47.4283 22.4372C47.8545 22.5377 48.2137 22.544 48.55 22.544C49.2549 22.544 49.8971 22.445 50.4296 22.2528C50.9655 22.0591 51.432 21.7217 51.8447 21.2649C52.2908 20.7722 52.5714 20.2562 52.8398 19.5523C53.1053 18.8547 53.3316 17.9887 53.5126 16.9795L55.2379 7.21782H57.7602C57.7602 7.21782 57.9728 7.22558 58.017 6.995L58.3024 5.40277C58.3223 5.25034 58.2573 5.15519 58.0524 5.15617H55.6044C55.6165 5.10083 55.7277 4.23967 56.0087 3.42899C56.1286 3.08287 56.3544 2.80375 56.5456 2.612C56.7243 2.42938 56.9442 2.2925 57.1869 2.21297C57.4529 2.13071 57.7306 2.09074 58.0087 2.09452C58.2393 2.09452 58.4655 2.12219 58.6379 2.15812C58.8752 2.2086 58.9675 2.2353 59.0296 2.25375C59.2791 2.32996 59.3126 2.25617 59.3617 2.1353L59.9471 0.527534C60.0073 0.354717 59.8607 0.2819 59.8063 0.260541ZM25.5957 16.8222C25.5957 16.9503 25.5045 17.0547 25.3763 17.0547H23.3457C23.2171 17.0547 23.1258 16.9503 23.1258 16.8222V0.478505C23.1258 0.350835 23.2171 0.247438 23.3457 0.247438H25.3763C25.5045 0.247438 25.5957 0.350835 25.5957 0.478505V16.8222Z" fill="#869DBD"/>
</g>
<defs>
<clipPath id="clip0_621_4206">
<rect width="100" height="22.8155" fill="white"/>
</clipPath>
</defs>
</svg>
