<svg width="135" height="19" viewBox="0 0 135 19" fill="none" xmlns="http://www.w3.org/2000/svg">
<g clip-path="url(#clip0_621_4207)">
<path d="M28.4653 6.0656C27.0935 6.0656 26.2148 6.50555 26.2148 7.29009C26.2148 8.07462 27.1378 8.4192 28.5096 8.55847C30.4598 8.71988 32.9885 9.04251 32.9885 11.6162C32.9885 13.4492 31.2089 14.7543 28.4875 14.7543C26.7709 14.7543 25.121 14.3878 23.6676 12.9213L24.8245 11.4548C25.7956 12.4007 27.106 12.9279 28.4689 12.9213C29.6479 12.9213 30.8048 12.5767 30.8048 11.6529C30.8048 10.7289 29.9037 10.4247 28.3392 10.2853C26.3667 10.124 24.0309 9.55201 24.0309 7.35225C24.0309 5.15268 26.4556 4.33512 28.4244 4.33512C29.8963 4.30718 31.3346 4.76736 32.5028 5.64022L31.3459 6.94919C30.5132 6.35084 29.4997 6.03994 28.4653 6.0656ZM40.2963 12.8259C41.4086 12.8259 42.6988 12.4594 43.3625 11.7591L44.8011 13.0642C43.7072 14.2118 41.8831 14.7543 40.2556 14.7543C36.7815 14.7543 34.5532 12.7233 34.5532 9.54481C34.5532 6.5275 36.8667 4.33512 40.2111 4.33512C43.3217 4.33512 45.4647 6.04365 45.4647 9.46771C45.4647 9.74625 45.4424 10.0506 45.4202 10.3513H36.8556C37.0411 11.8984 38.3387 12.8259 40.2963 12.8259ZM40.2111 6.18661C38.6055 6.18661 37.2115 7.01136 36.8741 8.62082H43.2846C43.1585 7.0298 42.0463 6.18661 40.2111 6.18661ZM55.6903 8.93976C55.6903 7.23143 54.6597 6.24527 52.8392 6.24527C52.4402 6.242 52.0447 6.31847 51.6774 6.46993C51.3098 6.6214 50.9783 6.84466 50.7028 7.12591C50.4249 7.4098 50.2081 7.74518 50.0657 8.11218C49.9231 8.47917 49.8576 8.8703 49.8731 9.2624V14.516H47.6484V4.57696H49.6654L49.7951 5.96285C50.6765 4.92431 51.9797 4.32775 53.3509 4.33512C55.9017 4.33512 57.8963 5.82377 57.8963 8.9215V14.5162H55.6719L55.6904 8.93976H55.6903ZM71.3809 14.5162H69.301L69.1711 12.9432C68.342 14.1247 66.9615 14.8074 65.5081 14.7543C62.442 14.7543 60.1062 12.8444 60.1062 9.54481C60.1062 6.16447 62.3973 4.33512 65.4636 4.33512C66.7502 4.33512 68.4853 4.91804 69.1711 6.106V0.45248H71.3959L71.3809 14.516V14.5162ZM62.3121 9.54481C62.3121 11.5573 63.7692 12.8259 65.649 12.8259C67.4756 12.8259 68.9562 11.3618 68.9562 9.5557C68.9562 7.74977 67.4756 6.28548 65.649 6.28548C63.7692 6.28548 62.3121 7.5321 62.3121 9.54481ZM75.4964 0.188693C75.6731 0.174529 75.8509 0.196955 76.0181 0.254501C76.1853 0.312046 76.3381 0.403406 76.4664 0.522577C76.5959 0.64288 76.6986 0.78802 76.7677 0.948854C76.837 1.10969 76.871 1.28273 76.8682 1.45708C76.8152 2.16765 76.2169 2.71754 75.4964 2.71754C74.7758 2.71754 74.1775 2.16783 74.1247 1.45708C74.1218 1.28273 74.1559 1.10969 74.2252 0.948854C74.2943 0.78802 74.3969 0.64288 74.5264 0.522577C74.6548 0.403406 74.8076 0.312046 74.9748 0.254501C75.142 0.196955 75.3198 0.174529 75.4964 0.188693ZM76.5903 14.5162H74.3655V4.57714H76.5903V14.5162ZM87.6055 8.93976C87.6055 7.23143 86.5785 6.24527 84.7542 6.24527C84.3551 6.24149 83.9596 6.3176 83.5919 6.4689C83.2242 6.6202 82.8923 6.84344 82.6168 7.1248C82.3386 7.40879 82.122 7.74439 81.9796 8.1116C81.8373 8.47882 81.7721 8.87017 81.7882 9.2624V14.516H79.5637V4.57696H81.5769L81.7066 5.96285C82.5895 4.92431 83.8939 4.32756 85.266 4.33512C87.8168 4.33512 89.8115 5.82377 89.8115 8.9215V14.5162H87.5868L87.6055 8.93976ZM94.8724 6.20487C95.5584 5.01691 97.2971 4.33512 98.5801 4.33512C101.624 4.33512 103.941 6.16816 103.941 9.54481C103.941 12.8444 101.453 14.7543 98.5616 14.7543C97.2305 14.7543 95.7103 14.2118 94.8724 12.9432L94.7463 14.5162H92.6664V0.45248H94.891L94.8724 6.20487ZM95.0021 9.54481C94.9948 9.98198 95.0779 10.4161 95.2464 10.8213C95.4149 11.2266 95.6654 11.5946 95.9829 11.9036C96.2974 12.2096 96.6731 12.4494 97.0868 12.608C97.5003 12.7667 97.943 12.8409 98.3872 12.8259C100.319 12.8259 101.724 11.5575 101.724 9.54481C101.724 7.5321 100.312 6.28548 98.3872 6.28548C97.9449 6.27113 97.5043 6.34499 97.0925 6.50253C96.6806 6.66006 96.3061 6.89793 95.992 7.20154C95.6749 7.50803 95.424 7.87324 95.254 8.27569C95.0839 8.67812 94.9984 9.10964 95.0021 9.54481ZM108.591 14.5162H106.366V0.45248H108.591V14.5162H108.591ZM113.714 9.98845C113.714 11.6785 114.723 12.8444 116.588 12.8444C116.984 12.8482 117.377 12.7725 117.742 12.622C118.106 12.4715 118.436 12.2494 118.709 11.9696C118.984 11.6871 119.198 11.3534 119.339 10.9884C119.479 10.6234 119.542 10.2346 119.524 9.84531V4.57696H121.73V14.516H119.74L119.61 13.145C118.71 14.207 117.366 14.8006 115.965 14.7543C113.37 14.7543 111.516 13.0056 111.516 10.0067V4.57714H113.722L113.714 9.98845ZM129.835 12.8259C130.948 12.8259 132.234 12.4594 132.902 11.7591L134.336 13.0642C133.243 14.2118 131.422 14.7543 129.791 14.7543C126.32 14.7543 124.088 12.7233 124.088 9.54481C124.088 6.5275 126.406 4.33512 129.75 4.33512C132.857 4.33512 135 6.04365 135 9.46771C135 9.74625 134.978 10.0506 134.959 10.3513H126.383C126.58 11.8984 127.885 12.8259 129.835 12.8259H129.835ZM129.75 6.18661C128.141 6.18661 126.747 7.01136 126.413 8.62082H132.82C132.686 7.0298 131.57 6.18661 129.75 6.18661H129.75Z" fill="#869DBD"/>
<path fill-rule="evenodd" clip-rule="evenodd" d="M16.1343 13.5973C15.6412 14.431 14.8359 15.0463 13.8874 15.3141C14.023 14.8607 14.0922 14.3909 14.093 13.9187C14.093 11.5667 12.4293 9.59404 10.196 9.05687C10.659 8.61576 11.2306 8.29807 11.856 8.13436C12.3383 8.00645 12.8419 7.9735 13.3375 8.0374C13.833 8.10132 14.3105 8.26085 14.7421 8.50661C16.5584 9.53427 17.1829 11.8178 16.1343 13.5973ZM8.97873 17.6451C7.98526 17.6451 7.04026 17.2584 6.33913 16.5982C6.80741 16.4862 7.25688 16.3097 7.67398 16.074C9.75219 14.8984 10.6639 12.5014 10.0233 10.3384C11.6136 10.7848 12.7822 12.2192 12.7822 13.9187C12.7822 15.9731 11.0757 17.6451 8.97873 17.6451ZM1.82279 13.5973C1.32615 12.7543 1.19758 11.7611 1.42971 10.8373C1.76279 11.1767 2.14309 11.4687 2.55951 11.7051C3.33334 12.1442 4.21289 12.3755 5.10841 12.3754C5.79941 12.3749 6.48314 12.238 7.1184 11.9731C7.75366 11.7082 8.3273 11.3207 8.80472 10.834C9.20367 12.4057 8.51977 14.1122 7.01867 14.9614C6.44329 15.288 5.78926 15.46 5.12337 15.4599C4.45356 15.4601 3.79556 15.288 3.21595 14.961C2.63632 14.6339 2.15566 14.1635 1.8226 13.5973H1.82279ZM1.8226 5.50184C2.31573 4.66815 3.12107 4.05286 4.06969 3.78502C3.93382 4.23853 3.86446 4.70846 3.86369 5.18087C3.86369 7.53152 5.52667 9.50365 7.75881 10.0417C6.56899 11.1681 4.71686 11.4422 3.21501 10.5926C2.33495 10.0945 1.70577 9.29115 1.44278 8.32952C1.3121 7.85703 1.27838 7.36405 1.34356 6.87883C1.40873 6.39361 1.57152 5.92569 1.8226 5.50184ZM8.97873 1.45411C9.97258 1.45411 10.9166 1.84039 11.6172 2.50003C11.1493 2.61303 10.7002 2.78982 10.2831 3.0252C9.09972 3.69482 8.25336 4.77523 7.90005 6.06834C7.65791 6.95177 7.66904 7.88295 7.93224 8.76062C6.34273 8.31384 5.17506 6.87962 5.17506 5.18087C5.17506 3.12592 6.88121 1.45411 8.97873 1.45411ZM16.1343 5.50184C16.6315 6.34596 16.7603 7.34023 16.5266 8.26515C16.1944 7.92436 15.8143 7.6311 15.3978 7.3941C14.2144 6.72504 12.8362 6.54721 11.5163 6.89364C10.6128 7.13077 9.79426 7.60664 9.15103 8.26865C8.99335 7.65484 8.99869 7.01201 9.16656 6.40075C9.42917 5.43931 10.0585 4.63559 10.9386 4.13772C11.8185 3.64021 12.8434 3.50795 13.8247 3.76547C14.8061 4.02316 15.6261 4.63983 16.1343 5.50184ZM17.2698 4.8599C16.5866 3.70053 15.4837 2.87136 14.1638 2.52493C13.8518 2.44347 13.5326 2.39084 13.2105 2.36777C12.2638 1.00383 10.6747 0.169678 8.97873 0.169678C7.22221 0.169678 5.67019 1.04202 4.74886 2.36721C3.06883 2.48822 1.53575 3.41978 0.687499 4.85953C0.00397784 6.01872 -0.177221 7.36938 0.176089 8.66249C0.260155 8.96785 0.373303 9.26491 0.514063 9.54977C-0.218118 11.0353 -0.160938 12.8006 0.68712 14.2398C1.56528 15.7299 3.11181 16.6097 4.74355 16.7292C5.69026 18.0942 7.28261 18.9299 8.97854 18.9299C10.7349 18.9299 12.2869 18.0573 13.208 16.732C14.8881 16.6109 16.4211 15.6798 17.2696 14.2398C18.1479 12.7493 18.1525 10.9963 17.4417 9.55217C18.1748 8.06592 18.118 6.29984 17.2696 4.8599" fill="#869DBD"/>
</g>
<defs>
<clipPath id="clip0_621_4207">
<rect width="135" height="19" fill="white"/>
</clipPath>
</defs>
</svg>
