<svg width="100" height="32" viewBox="0 0 100 32" fill="none" xmlns="http://www.w3.org/2000/svg">
<g clip-path="url(#clip0_621_4205)">
<path fill-rule="evenodd" clip-rule="evenodd" d="M77.9334 7.26951C77.4943 7.2693 77.0731 7.44366 76.7625 7.75425C76.4519 8.06482 76.2772 8.48619 76.277 8.92562C76.2768 9.36507 76.4511 9.78657 76.7613 10.0974C77.0717 10.4083 77.4927 10.5831 77.9318 10.5833C78.3711 10.5833 78.7923 10.4087 79.1031 10.0978C79.4136 9.7869 79.5882 9.36527 79.5882 8.92562C79.5882 8.48596 79.4136 8.06433 79.1031 7.75346C78.7923 7.44256 78.3711 7.26792 77.9318 7.26792L77.9334 7.26951ZM79.0745 11.859H76.7666C76.722 11.8594 76.6792 11.8775 76.6477 11.9093C76.6161 11.9411 76.5984 11.9841 76.5984 12.0289V22.1101C76.5984 22.2054 76.6731 22.2802 76.7666 22.2802H79.0762C79.1212 22.2802 79.1644 22.2622 79.1963 22.2303C79.2281 22.1985 79.246 22.1553 79.246 22.1101V12.0289C79.246 11.9839 79.2281 11.9406 79.1963 11.9088C79.1644 11.8769 79.1212 11.859 79.0762 11.859H79.0745ZM84.2079 11.8685V11.5508C84.2079 10.6103 84.5682 10.1909 85.3762 10.1909C85.8572 10.1909 86.243 10.2862 86.6778 10.4324C86.7033 10.4411 86.7305 10.4434 86.7572 10.4394C86.7839 10.4353 86.8092 10.4249 86.831 10.409C86.8525 10.3931 86.8703 10.3723 86.8823 10.3481C86.8943 10.324 86.9004 10.2973 86.9 10.2704V8.32433C86.8998 8.28796 86.8882 8.2526 86.8664 8.22344C86.8446 8.19427 86.8143 8.17283 86.7794 8.1623C86.1572 7.97205 85.5094 7.87881 84.8587 7.88588C82.7271 7.88588 81.6 9.08845 81.6 11.3617V11.851H80.4904C80.4458 11.851 80.4028 11.8687 80.3709 11.9002C80.3391 11.9318 80.3212 11.9746 80.3206 12.0194V14.0163C80.3206 14.11 80.3969 14.1862 80.4904 14.1862H81.6V22.1134C81.6 22.2054 81.6745 22.2818 81.7682 22.2818H84.0778C84.1226 22.2814 84.1654 22.2633 84.1969 22.2315C84.2283 22.1995 84.246 22.1565 84.246 22.1117V14.1847H86.4016L89.7049 22.1117C89.3301 22.9427 88.9619 23.1095 88.4587 23.1095C88.0509 23.1095 87.6222 22.9871 87.1841 22.7472C87.1639 22.7364 87.1417 22.7297 87.1187 22.7274C87.0959 22.7252 87.0727 22.7276 87.0507 22.7345C87.0287 22.7421 87.0084 22.7541 86.991 22.77C86.9739 22.7859 86.9601 22.8052 86.9507 22.8266L86.1682 24.5439C86.1501 24.5826 86.1473 24.627 86.1607 24.6677C86.1739 24.7085 86.2022 24.7425 86.2397 24.7631C87.0572 25.2064 87.7953 25.3954 88.7063 25.3954C90.4112 25.3954 91.354 24.6011 92.1841 22.4612L96.1904 12.1004C96.201 12.0748 96.2049 12.0469 96.202 12.0193C96.1992 11.9917 96.1894 11.9653 96.1739 11.9424C96.1584 11.9194 96.1375 11.9007 96.1128 11.8878C96.0884 11.8749 96.0611 11.8683 96.0334 11.8685H93.6301C93.5951 11.8689 93.5611 11.88 93.5328 11.9005C93.5043 11.921 93.4829 11.9497 93.4715 11.9829L91.0079 19.0219L88.3096 11.9781C88.2976 11.946 88.2762 11.9183 88.2481 11.8987C88.22 11.8791 88.1866 11.8686 88.1523 11.8685H84.2079ZM75.3556 11.859H72.8159V9.25843C72.8159 9.23619 72.8114 9.21415 72.8028 9.19362C72.7943 9.17309 72.7819 9.15445 72.766 9.13879C72.7503 9.12313 72.7316 9.11077 72.711 9.1024C72.6904 9.09403 72.6682 9.08983 72.646 9.09004H70.3365C70.2921 9.09044 70.2495 9.10832 70.2179 9.13981C70.1866 9.1713 70.1686 9.21391 70.1682 9.25843V11.859H69.0572C69.035 11.859 69.0128 11.8634 68.9925 11.8719C68.9719 11.8805 68.9534 11.893 68.9377 11.9088C68.922 11.9246 68.9096 11.9434 68.9012 11.964C68.8929 11.9846 68.8888 12.0067 68.889 12.0289V14.0147C68.889 14.1084 68.9652 14.1847 69.0572 14.1847H70.1682V19.3222C70.1682 21.4001 71.2 22.4516 73.2381 22.4516C74.0666 22.4516 74.7523 22.2818 75.4 21.9148C75.4263 21.9001 75.4479 21.8785 75.4629 21.8527C75.478 21.8266 75.4859 21.7971 75.4857 21.7671V19.8766C75.4862 19.8476 75.479 19.819 75.4652 19.7935C75.4513 19.7681 75.4312 19.7467 75.4065 19.7313C75.3819 19.716 75.3538 19.7072 75.3248 19.706C75.2959 19.7047 75.2672 19.711 75.2413 19.7241C74.7969 19.9481 74.3666 20.0513 73.8857 20.0513C73.1444 20.0513 72.8143 19.7161 72.8143 18.9616V14.1847H75.354C75.3764 14.1849 75.3986 14.1806 75.4191 14.1722C75.4399 14.1637 75.4586 14.1512 75.4745 14.1354C75.4904 14.1195 75.5028 14.1007 75.5114 14.08C75.5198 14.0593 75.524 14.0371 75.5238 14.0147V12.0289C75.524 12.0067 75.5198 11.9846 75.5114 11.964C75.5031 11.9434 75.4908 11.9246 75.4752 11.9088C75.4595 11.893 75.4409 11.8805 75.4204 11.8719C75.3998 11.8634 75.3778 11.859 75.3556 11.859ZM63.1794 11.6477C60.0682 11.6477 57.6285 14.0465 57.6285 17.1077C57.6285 20.1371 60.0509 22.5089 63.1413 22.5089C66.2635 22.5089 68.7096 20.1196 68.7096 17.0695C68.7096 14.029 66.2811 11.6477 63.1794 11.6477ZM63.1794 20.1657C61.5238 20.1657 60.2745 18.8345 60.2745 17.068C60.2745 15.2967 61.4811 14.0115 63.1413 14.0115C64.8079 14.0115 66.0619 15.3427 66.0619 17.1093C66.0619 18.8805 64.8509 20.1657 63.1794 20.1657ZM52.046 11.6477C50.7444 11.6477 49.6778 12.1608 48.7984 13.2108V12.0289C48.7984 11.9841 48.7809 11.9411 48.7493 11.9093C48.7177 11.8775 48.6749 11.8594 48.6301 11.859H46.3206C46.276 11.8594 46.2332 11.8775 46.2016 11.9093C46.1701 11.9411 46.1523 11.9841 46.1523 12.0289V25.1667C46.1523 25.2588 46.2285 25.3349 46.3206 25.3349H48.6301C48.6747 25.3345 48.7173 25.3168 48.7487 25.2852C48.7802 25.2537 48.798 25.2111 48.7984 25.1667V21.0205C49.6794 22.0068 50.746 22.4897 52.046 22.4897C54.4619 22.4897 56.9079 20.628 56.9079 17.0695C56.9079 13.5111 54.4635 11.6477 52.046 11.6477ZM54.2238 17.0695C54.2238 18.8805 53.1079 20.1467 51.5112 20.1467C49.9318 20.1467 48.7413 18.8234 48.7413 17.0695C48.7413 15.3157 49.9318 13.9924 51.5112 13.9924C53.0825 13.9924 54.2255 15.2856 54.2255 17.0695H54.2238ZM40.8334 14.1942C38.2556 13.5778 37.7969 13.1457 37.7969 12.2386C37.7969 11.3808 38.6033 10.8041 39.8033 10.8041C40.9652 10.8041 42.1191 11.241 43.3271 12.1433C43.345 12.1566 43.3654 12.1662 43.3872 12.1716C43.409 12.177 43.4316 12.178 43.4536 12.1746C43.4758 12.1712 43.4969 12.1635 43.5161 12.1518C43.5352 12.1402 43.5519 12.1249 43.5652 12.1068L44.8255 10.3291C44.8499 10.294 44.8603 10.251 44.8544 10.2085C44.8485 10.1661 44.8267 10.1275 44.7937 10.1004C43.3556 8.94388 41.735 8.38311 39.8413 8.38311C37.0556 8.38311 35.1112 10.0543 35.1112 12.4483C35.1112 15.0139 36.789 15.9226 39.689 16.6232C42.1556 17.1919 42.5731 17.6684 42.5731 18.5215C42.5731 19.4651 41.7318 20.0513 40.3745 20.0513C38.8699 20.0513 37.643 19.543 36.2682 18.3547C36.2338 18.3255 36.1896 18.3106 36.1444 18.3134C36.122 18.3151 36.1002 18.3214 36.0804 18.3318C36.0605 18.3421 36.0428 18.3564 36.0285 18.3738L34.6159 20.0545C34.5872 20.088 34.5727 20.1316 34.576 20.1757C34.5792 20.2198 34.6 20.2607 34.6334 20.2896C36.1898 21.7009 38.2173 22.4789 40.3175 22.4708C43.3175 22.4708 45.2572 20.8299 45.2572 18.2912C45.2572 16.145 43.9762 14.9583 40.8334 14.1926V14.1942ZM15.0905 0.484619C11.1291 0.484619 7.32994 2.05957 4.5288 4.86299C1.72766 7.66641 0.153992 11.4687 0.153992 15.4333C0.153992 19.3979 1.72766 23.2001 4.5288 26.0036C7.32994 28.807 11.1291 30.382 15.0905 30.382C19.0519 30.382 22.8511 28.807 25.6521 26.0036C28.4534 23.2001 30.0271 19.3979 30.0271 15.4333C30.0271 11.4687 28.4534 7.66641 25.6521 4.86299C22.8511 2.05957 19.0519 0.484619 15.0905 0.484619ZM21.9413 22.0451C21.8776 22.1498 21.7941 22.2409 21.6951 22.3132C21.5963 22.3852 21.4841 22.4374 21.3652 22.4661C21.246 22.4948 21.1226 22.4999 21.0016 22.4808C20.8806 22.4616 20.7648 22.4189 20.6603 22.3549C17.1524 20.2102 12.7397 19.7257 7.53971 20.914C7.42057 20.9413 7.29725 20.9447 7.17678 20.9242C7.05631 20.9038 6.94106 20.8596 6.8376 20.7946C6.73411 20.7296 6.64446 20.6447 6.57375 20.5451C6.50301 20.4453 6.45263 20.3326 6.42542 20.2134C6.39823 20.0942 6.39474 19.9707 6.41519 19.8502C6.43566 19.7296 6.47965 19.6143 6.54464 19.5107C6.60965 19.4071 6.6944 19.3174 6.79403 19.2466C6.89369 19.1758 7.00629 19.1254 7.12542 19.0982C12.8143 17.7955 17.6953 18.3563 21.6318 20.7647C22.0699 21.0331 22.2079 21.6066 21.9413 22.0451ZM23.7666 17.975C23.6051 18.238 23.346 18.4262 23.046 18.4983C22.7462 18.5703 22.4299 18.5204 22.1666 18.3595C18.1524 15.8892 12.0318 15.1744 7.28257 16.6168C6.9936 16.6854 6.68939 16.6411 6.43191 16.493C6.17444 16.3449 5.98309 16.1041 5.89686 15.8197C5.81063 15.5353 5.83603 15.2287 5.96786 14.9624C6.09969 14.6961 6.32804 14.4901 6.60637 14.3864C12.0318 12.739 18.7746 13.5381 23.3841 16.3722C23.5147 16.4522 23.6281 16.5572 23.7181 16.6812C23.8081 16.8052 23.8729 16.9457 23.9086 17.0947C23.9442 17.2437 23.9501 17.3983 23.9261 17.5496C23.902 17.701 23.8485 17.8461 23.7682 17.9766L23.7666 17.975ZM23.9271 13.7367C19.1111 10.8756 11.1683 10.6119 6.57303 12.0099C6.3967 12.0662 6.21094 12.0868 6.02654 12.0706C5.84214 12.0545 5.66279 12.0018 5.49894 11.9156C5.33507 11.8295 5.18994 11.7116 5.07199 11.5688C4.95405 11.426 4.86564 11.2612 4.81189 11.084C4.75815 10.9067 4.74012 10.7205 4.75892 10.5362C4.7777 10.3519 4.83289 10.1732 4.92128 10.0104C5.00967 9.84765 5.12951 9.70411 5.27383 9.5881C5.41815 9.47209 5.58405 9.38596 5.76193 9.33468C11.0365 7.7302 19.808 8.04156 25.3493 11.3331C25.6678 11.5223 25.8984 11.8304 25.9902 12.1897C26.0819 12.549 26.0271 12.93 25.8381 13.249C25.6491 13.5679 25.3411 13.7986 24.9823 13.8904C24.6232 13.9822 24.2426 13.9274 23.9238 13.7383" fill="#869DBD"/>
</g>
<defs>
<clipPath id="clip0_621_4205">
<rect width="100" height="31.7719" fill="white"/>
</clipPath>
</defs>
</svg>
