<svg width="69" height="24" viewBox="0 0 69 24" fill="none" xmlns="http://www.w3.org/2000/svg">
<g clip-path="url(#clip0_621_4204)">
<path d="M3.93553 16.9596C4.2246 17.7267 4.62481 18.3826 5.13623 18.9273C5.64765 19.4721 6.25354 19.889 6.95389 20.1781C7.65431 20.4671 8.41584 20.6116 9.23854 20.6116C10.039 20.6116 10.7894 20.4615 11.4898 20.1613C12.1903 19.8611 12.8017 19.4387 13.3242 18.894C13.8467 18.3492 14.2525 17.6989 14.5416 16.9429C14.8306 16.1869 14.9751 15.342 14.9751 14.4081V0H18.4771V23.3465H15.0085V21.1786C14.2303 22.0012 13.313 22.6349 12.2569 23.0797C11.2007 23.5243 10.0612 23.7467 8.83833 23.7467C7.59313 23.7467 6.43139 23.5298 5.35298 23.0963C4.27463 22.6627 3.34071 22.0458 2.55144 21.2453C1.76216 20.4448 1.13952 19.4833 0.683743 18.3603C0.22789 17.2375 0 15.9868 0 14.6082V0H3.50196V14.4081C3.50196 15.342 3.64646 16.1924 3.93553 16.9596Z" fill="#869DBD"/>
<path d="M24.5137 0V8.50476C25.2919 7.72656 26.1924 7.1096 27.2152 6.65375C28.238 6.1979 29.3498 5.97001 30.5504 5.97001C31.7956 5.97001 32.9628 6.20343 34.0524 6.67035C35.1418 7.13728 36.0868 7.77099 36.8873 8.57148C37.6877 9.37197 38.3215 10.3169 38.7884 11.4064C39.2553 12.4959 39.4887 13.6521 39.4887 14.8751C39.4887 16.0979 39.2553 17.2486 38.7884 18.3269C38.3215 19.4053 37.6877 20.3448 36.8873 21.1451C36.0868 21.9456 35.1418 22.5793 34.0524 23.0463C32.9628 23.5132 31.7955 23.7466 30.5504 23.7466C29.3497 23.7466 28.2325 23.5187 27.1985 23.0629C26.1646 22.6071 25.2585 21.99 24.4803 21.2118V23.3464H21.1451V0H24.5137ZM24.8972 17.1763C25.1973 17.8879 25.6143 18.5104 26.1479 19.0441C26.6816 19.5777 27.3041 20.0002 28.0156 20.3115C28.7272 20.6228 29.4943 20.7784 30.317 20.7784C31.1175 20.7784 31.8734 20.6228 32.5849 20.3115C33.2964 20.0002 33.9133 19.5778 34.436 19.0441C34.9585 18.5105 35.3753 17.8879 35.6866 17.1763C35.9979 16.4648 36.1535 15.6978 36.1535 14.8751C36.1535 14.0523 35.9979 13.2797 35.6866 12.557C35.3753 11.8344 34.9585 11.2063 34.436 10.6727C33.9134 10.1391 33.2964 9.72215 32.5849 9.42201C31.8733 9.12187 31.1174 8.97169 30.317 8.97169C29.5165 8.97169 28.7606 9.12179 28.0491 9.42201C27.3376 9.72222 26.715 10.1391 26.1813 10.6727C25.6477 11.2063 25.2252 11.8344 24.914 12.557C24.6027 13.2797 24.447 14.0523 24.447 14.8751C24.447 15.6978 24.5971 16.4648 24.8972 17.1763Z" fill="#869DBD"/>
<path d="M41.3891 11.4397C41.8338 10.3724 42.4454 9.43306 43.2235 8.62149C44.0016 7.80993 44.9245 7.17069 45.9917 6.70377C47.059 6.23684 48.2152 6.00342 49.4603 6.00342C50.6833 6.00342 51.8172 6.22577 52.8623 6.67041C53.9073 7.11512 54.8078 7.73215 55.5638 8.5215C56.3198 9.31077 56.9091 10.2447 57.3314 11.323C57.7539 12.4015 57.9651 13.5743 57.9651 14.8418V15.9424H44.124C44.2353 16.6317 44.4576 17.2709 44.7911 17.86C45.1247 18.4492 45.5415 18.9607 46.0418 19.3942C46.5421 19.8279 47.109 20.167 47.7428 20.4115C48.3765 20.656 49.049 20.7784 49.7606 20.7784C51.784 20.7784 53.4182 19.9446 54.6634 18.2769L57.098 20.0779C56.2531 21.2119 55.2081 22.1013 53.963 22.7461C52.7178 23.3909 51.317 23.7133 49.7606 23.7133C48.4932 23.7133 47.3093 23.4909 46.2086 23.0462C45.108 22.6016 44.1519 21.979 43.3404 21.1785C42.5288 20.378 41.8896 19.4386 41.4227 18.3602C40.9557 17.2819 40.7222 16.1089 40.7222 14.8416C40.7221 13.641 40.9445 12.507 41.3891 11.4397ZM46.0751 10.1223C45.1301 10.9116 44.502 11.9622 44.1908 13.274H54.5633C54.2742 11.9622 53.6572 10.9116 52.7122 10.1223C51.7672 9.33299 50.661 8.93831 49.3937 8.93831C48.1263 8.93831 47.0201 9.33299 46.0751 10.1223Z" fill="#869DBD"/>
<path d="M64.2687 10.5058C63.5572 11.284 63.2014 12.3402 63.2014 13.6743V23.3465H59.8328V6.33687H63.168V8.43806C63.5905 7.74878 64.1408 7.204 64.8189 6.80379C65.4971 6.40351 66.3031 6.20337 67.237 6.20337H68.4043V9.33848H67.0035C65.8918 9.33855 64.9802 9.72762 64.2687 10.5058Z" fill="#869DBD"/>
</g>
<defs>
<clipPath id="clip0_621_4204">
<rect width="68.4043" height="23.7467" fill="white"/>
</clipPath>
</defs>
</svg>
