<svg width="297" height="344" viewBox="0 0 297 344" fill="none" xmlns="http://www.w3.org/2000/svg">
<path d="M148.809 121.599L133.303 348.088H322.418L339.549 97.8689H174.173L148.809 121.599Z" fill="#407BFF" fill-opacity="0.1"/>
<path d="M148.809 121.599L133.303 348.088H322.418L339.549 97.8689H174.173L148.809 121.599Z" fill="white" fill-opacity="0.8"/>
<path d="M306.944 174.346C319.686 162.033 320.693 142.406 309.195 130.508C297.697 118.609 278.047 118.945 265.306 131.257C252.565 143.57 251.557 163.197 263.055 175.096C274.553 186.994 294.203 186.658 306.944 174.346Z" fill="#407BFF"/>
<path d="M305.85 173.214C317.921 161.549 318.876 142.955 307.983 131.683C297.09 120.411 278.474 120.729 266.403 132.394C254.332 144.058 253.377 162.652 264.27 173.925C275.163 185.197 293.779 184.879 305.85 173.214Z" fill="white"/>
<mask id="mask0_621_4266" style="mask-type:luminance" maskUnits="userSpaceOnUse" x="256" y="123" width="60" height="60">
<path d="M305.85 173.214C317.921 161.549 318.876 142.955 307.983 131.683C297.09 120.411 278.474 120.729 266.403 132.394C254.332 144.058 253.377 162.652 264.27 173.925C275.163 185.197 293.779 184.879 305.85 173.214Z" fill="white"/>
</mask>
<g mask="url(#mask0_621_4266)">
<path d="M278.415 163.029L272.631 162.647C272.631 162.647 269.942 176.488 268.217 177.683C265.87 179.31 261.215 183.248 258.134 184.676C257.867 185.298 257.678 187.054 257.938 187.591C262.741 187.617 271.617 182.814 273.154 180.734C276.658 175.99 278.415 163.029 278.415 163.029Z" fill="#FFC3BD"/>
<path d="M281.168 154.322C282.917 157.581 277.469 169.359 277.469 169.359L270.046 166.989C270.046 166.989 270.31 161.126 272.522 156.513C274.357 152.686 279.249 150.745 281.168 154.322Z" fill="#263238"/>
<path opacity="0.2" d="M275.499 160.325C276.527 162.678 275.188 168.38 274.156 171.99C271.646 167.689 271.302 163.691 275.499 160.325Z" fill="black"/>
<path d="M275.466 154.9C274.326 159.069 272.092 170.019 273.921 187.208H293.453C293.904 183.936 293.332 167.975 297.921 152.558C297.921 152.558 294.336 151.825 290.87 151.657C288.159 151.526 284.224 151.439 281.809 151.657C280.347 151.789 279.015 152.082 278.001 152.359C276.774 152.696 275.801 153.674 275.466 154.9Z" fill="#263238"/>
<path opacity="0.2" d="M292.937 156.364C292.346 158.901 292.582 164.972 294.346 171.986C294.856 166.587 295.762 160.328 297.482 154.091L297.485 154.061C296.095 153.918 293.498 153.986 292.937 156.364Z" fill="black"/>
<path d="M290.474 143.183C289.631 146.098 289.012 149.712 290.87 151.657C290.87 151.657 289.423 154.614 284.006 154.614C279.056 154.614 281.809 151.657 281.809 151.657C285.132 150.881 285.336 146.86 284.981 144.595L290.474 143.183Z" fill="#FFC3BD"/>
<path d="M284.006 154.614C284.864 156.068 284.785 157.414 284.785 157.414C284.785 157.414 291.792 155.021 291.801 151.514C291.801 151.514 290.891 150.942 290.323 150.478C290.323 150.478 289.848 153.21 284.006 154.614Z" fill="white"/>
<path d="M283.811 154.613C282.682 156.067 282.434 157.204 282.434 157.204C282.434 157.204 279.554 155.124 280.799 151.658C280.799 151.658 281.7 151.295 282.587 151.106C282.587 151.106 281.741 153.862 283.811 154.613Z" fill="white"/>
<path opacity="0.2" d="M284.978 144.598C285.192 145.925 285.208 147.856 284.511 149.384C284.996 149.313 285.499 149.167 286.005 148.938C287.918 148.073 288.948 146.714 290.076 144.696C290.195 144.179 290.329 143.673 290.472 143.184L284.978 144.598Z" fill="black"/>
<path d="M280.25 141.898C280.557 142.891 281.306 143.607 282.085 143.938C283.256 144.436 284.108 143.375 284.006 142.139C283.915 141.027 283.196 139.427 281.913 139.455C280.649 139.482 279.899 140.762 280.25 141.898Z" fill="#FFC3BD"/>
<path opacity="0.2" d="M280.25 141.898C280.557 142.891 281.306 143.607 282.085 143.938C283.256 144.436 284.108 143.375 284.006 142.139C283.915 141.027 283.196 139.427 281.913 139.455C280.649 139.482 279.899 140.762 280.25 141.898Z" fill="black"/>
<path d="M285.477 133.733C285.1 131.419 281.693 135.478 282.419 137.622C283.145 139.766 285.901 136.331 285.477 133.733Z" fill="#263238"/>
<path d="M292.78 139.588C291.527 143.455 290.985 145.765 288.536 147.434C284.853 149.944 280.613 147.33 280.72 143.269C280.816 139.614 282.849 133.904 286.986 133.002C291.063 132.113 294.033 135.721 292.78 139.588Z" fill="#FFC3BD"/>
<path d="M291.64 137.298C287.418 136.7 281.36 135.924 283.556 132.474C285.651 129.183 293.987 129.781 291.456 131.24C294.734 131.427 298.89 132.998 295.749 134.082C298.281 135.877 297.278 140.701 292.451 142.384C291.056 140.365 289.959 139.467 291.64 137.298Z" fill="#263238"/>
<path d="M293.38 144.198C292.605 145.002 291.564 145.404 290.689 145.445C289.372 145.507 289.123 144.253 289.832 143.159C290.47 142.174 291.924 140.955 293.08 141.411C294.219 141.859 294.266 143.279 293.38 144.198Z" fill="#FFC3BD"/>
<path d="M286.712 139.667C286.629 139.985 286.397 140.214 286.194 140.179C285.991 140.144 285.894 139.857 285.977 139.538C286.06 139.22 286.292 138.991 286.495 139.026C286.698 139.062 286.795 139.349 286.712 139.667Z" fill="#263238"/>
<path d="M283.203 139.053C283.12 139.371 282.888 139.6 282.685 139.565C282.482 139.529 282.385 139.243 282.468 138.924C282.551 138.606 282.783 138.377 282.986 138.412C283.189 138.448 283.286 138.734 283.203 139.053Z" fill="#263238"/>
<path d="M284.277 139.406C284.277 139.406 283.093 141.118 282.085 141.868C282.497 142.49 283.494 142.413 283.494 142.413L284.277 139.406Z" fill="#ED847E"/>
<path d="M284.169 143.451C284.119 143.442 284.089 143.393 284.102 143.342C284.115 143.291 284.167 143.256 284.218 143.265C285.581 143.504 286.471 142.639 286.48 142.631C286.519 142.593 286.579 142.59 286.613 142.626C286.648 142.661 286.645 142.721 286.606 142.76C286.567 142.797 285.63 143.706 284.169 143.451Z" fill="#263238"/>
<path d="M288.072 138.693C288.017 138.683 287.969 138.648 287.946 138.593C287.628 137.842 286.947 137.765 286.941 137.765C286.844 137.759 286.772 137.662 286.791 137.558C286.811 137.454 286.91 137.378 287.012 137.388C287.048 137.391 287.901 137.487 288.295 138.419C288.334 138.512 288.288 138.627 288.192 138.675C288.152 138.694 288.11 138.699 288.072 138.693Z" fill="#263238"/>
<path d="M281.959 137.502C281.933 137.496 281.908 137.483 281.887 137.464C281.813 137.398 281.812 137.279 281.885 137.197C282.617 136.385 283.472 136.469 283.509 136.472C283.609 136.479 283.677 136.576 283.657 136.681C283.636 136.785 283.538 136.86 283.436 136.849C283.407 136.846 282.739 136.788 282.155 137.436C282.102 137.495 282.025 137.518 281.959 137.502Z" fill="#263238"/>
<path d="M299.645 157.913L294.349 160.716C294.349 160.716 299.461 173.322 298.589 175.213C297.403 177.787 295.434 183.465 293.495 186.274C293.596 186.919 294.378 188.436 294.897 188.729C299.137 186.167 304.352 177.521 304.581 175.017C305.102 169.308 299.645 157.913 299.645 157.913Z" fill="#FFC3BD"/>
<path d="M297.921 152.558C301.616 153.214 304.335 166.388 304.335 166.388L295.216 168.999C295.216 168.999 293.167 164.322 292.013 159.664C290.803 154.782 293.959 151.854 297.921 152.558Z" fill="#263238"/>
</g>
<path d="M296.877 321.404C309.618 309.091 310.626 289.464 299.128 277.566C287.63 265.667 267.98 266.003 255.239 278.315C242.497 290.628 241.489 310.255 252.988 322.153C264.486 334.052 284.136 333.716 296.877 321.404Z" fill="#407BFF"/>
<path d="M295.781 320.262C307.852 308.597 308.807 290.003 297.914 278.73C287.021 267.458 268.405 267.776 256.334 279.441C244.263 291.106 243.308 309.7 254.201 320.972C265.094 332.244 283.71 331.926 295.781 320.262Z" fill="white"/>
<mask id="mask1_621_4266" style="mask-type:luminance" maskUnits="userSpaceOnUse" x="246" y="270" width="60" height="60">
<path d="M295.781 320.262C307.852 308.597 308.807 290.003 297.914 278.73C287.021 267.458 268.405 267.776 256.334 279.441C244.263 291.106 243.308 309.7 254.201 320.972C265.094 332.244 283.71 331.926 295.781 320.262Z" fill="white"/>
</mask>
<g mask="url(#mask1_621_4266)">
<path d="M265.84 310.342L260.413 308.573C260.413 308.573 254.502 321.588 252.567 322.353C249.934 323.394 244.541 326.161 241.256 326.83C240.851 327.379 240.246 329.067 240.365 329.66C244.942 330.841 254.572 328.236 256.541 326.552C261.031 322.714 265.84 310.342 265.84 310.342Z" fill="#FFB573"/>
<path d="M270.572 302.41C271.453 306.048 263.408 316.363 263.408 316.363L256.898 312.238C256.898 312.238 258.567 306.514 261.793 302.493C264.469 299.157 269.605 298.418 270.572 302.41Z" fill="#407BFF"/>
<path opacity="0.3" d="M270.572 302.41C271.453 306.048 263.408 316.363 263.408 316.363L256.898 312.238C256.898 312.238 258.567 306.514 261.793 302.493C264.469 299.157 269.605 298.418 270.572 302.41Z" fill="black"/>
<path opacity="0.2" d="M265.494 306.942C266.101 309.461 265.55 313.485 263.939 316.914C262.515 314.77 260.84 309.598 265.494 306.942Z" fill="black"/>
<path d="M265.399 301.949C264.259 306.118 262.025 317.068 263.854 334.257H283.386C283.837 330.985 283.265 315.024 287.854 299.607C287.854 299.607 284.269 298.874 280.803 298.706C278.092 298.575 274.157 298.488 271.742 298.706C270.28 298.838 268.948 299.131 267.934 299.408C266.706 299.745 265.734 300.724 265.399 301.949Z" fill="#407BFF"/>
<path opacity="0.3" d="M265.399 301.949C264.259 306.118 262.025 317.068 263.854 334.257H283.386C283.837 330.985 283.265 315.024 287.854 299.607C287.854 299.607 284.269 298.874 280.803 298.706C278.092 298.575 274.157 298.488 271.742 298.706C270.28 298.838 268.948 299.131 267.934 299.408C266.706 299.745 265.734 300.724 265.399 301.949Z" fill="black"/>
<path opacity="0.2" d="M282.937 306.693C282.346 309.23 281.827 315.256 284.279 319.036C284.788 313.637 285.695 307.378 287.415 301.141L287.418 301.111C286.027 300.968 283.498 304.314 282.937 306.693Z" fill="black"/>
<g opacity="0.95">
<path d="M273.691 306.557L272.618 307.03L271.8 306.286C269.05 303.782 269.091 300.856 269.706 298.998C270.339 298.877 271.024 298.773 271.742 298.708C274.157 298.489 278.091 298.576 280.803 298.708C281.501 298.742 282.202 298.799 282.878 298.868L282.196 299.746C282.048 299.935 278.513 304.437 273.691 306.557Z" fill="white"/>
</g>
<path d="M280.406 290.233C279.563 293.148 278.944 296.762 280.802 298.707C280.802 298.707 277.482 302.979 273.061 304.923C269.776 301.931 271.741 298.707 271.741 298.707C275.064 297.931 275.268 293.91 274.913 291.645L280.406 290.233Z" fill="#FFB573"/>
<path opacity="0.2" d="M274.911 291.647C275.125 292.974 275.141 294.905 274.444 296.433C274.929 296.362 275.432 296.216 275.938 295.987C277.851 295.122 278.881 293.762 280.009 291.745C280.128 291.228 280.262 290.722 280.405 290.233L274.911 291.647Z" fill="black"/>
<path d="M270.182 288.948C270.489 289.941 271.238 290.657 272.017 290.988C273.188 291.486 274.04 290.425 273.939 289.189C273.848 288.077 273.128 286.477 271.846 286.505C270.582 286.532 269.832 287.812 270.182 288.948Z" fill="#FFB573"/>
<path opacity="0.2" d="M270.182 288.948C270.489 289.941 271.238 290.657 272.017 290.988C273.188 291.486 274.04 290.425 273.939 289.189C273.848 288.077 273.128 286.477 271.846 286.505C270.582 286.532 269.832 287.812 270.182 288.948Z" fill="black"/>
<path d="M274.814 282.107C274.431 279.498 271.526 282.49 271.202 284.399C270.878 286.307 272.473 288.243 273.556 286.349C274.638 284.454 275.021 283.517 274.814 282.107Z" fill="#263238"/>
<path d="M282.713 286.638C281.46 290.505 280.918 292.815 278.469 294.484C274.786 296.994 270.546 294.38 270.653 290.319C270.749 286.664 272.782 280.953 276.919 280.052C280.996 279.163 283.966 282.77 282.713 286.638Z" fill="#FFB573"/>
<path d="M280.817 290.688C279.32 289.663 279.052 289.306 279.851 288.407C281.148 286.949 279.217 286.742 280.239 284.929C281.658 282.411 277.132 284.181 277.05 282.349C276.983 280.863 273.023 283.539 272.636 281.826C272.052 279.246 275.826 279.716 276.494 278.46C277.162 277.204 281.03 277.014 281.653 278.846C282.275 280.678 284.22 279.22 285.488 281.464C286.755 283.708 284.129 283.868 285.398 286.051C286.413 287.796 284.467 289.007 283.103 290.439C282.246 291.338 281.746 291.323 280.817 290.688Z" fill="#263238"/>
<path d="M283.563 290.722C282.857 291.586 281.849 292.075 280.975 292.192C279.661 292.369 279.301 291.149 279.916 290.004C280.469 288.973 281.819 287.639 283.018 287.989C284.199 288.333 284.371 289.734 283.563 290.722Z" fill="#FFB573"/>
<path d="M276.645 286.717C276.562 287.035 276.33 287.264 276.127 287.229C275.924 287.193 275.827 286.907 275.91 286.588C275.993 286.27 276.225 286.041 276.428 286.076C276.63 286.112 276.728 286.399 276.645 286.717Z" fill="#263238"/>
<path d="M273.135 286.102C273.052 286.42 272.82 286.649 272.617 286.614C272.414 286.579 272.317 286.292 272.4 285.973C272.483 285.655 272.715 285.426 272.918 285.461C273.121 285.497 273.218 285.784 273.135 286.102Z" fill="#263238"/>
<path d="M274.21 286.456C274.21 286.456 273.025 288.168 272.017 288.918C272.429 289.54 273.426 289.463 273.426 289.463L274.21 286.456Z" fill="#ED893E"/>
<path d="M274.102 290.5C274.052 290.491 274.022 290.442 274.035 290.391C274.048 290.339 274.1 290.305 274.151 290.313C275.514 290.552 276.404 289.688 276.413 289.679C276.452 289.641 276.512 289.638 276.546 289.674C276.581 289.709 276.578 289.769 276.539 289.808C276.5 289.847 275.563 290.756 274.102 290.5Z" fill="#263238"/>
<path d="M278.004 285.742C277.949 285.732 277.901 285.697 277.878 285.643C277.56 284.892 276.88 284.815 276.872 284.815C276.775 284.809 276.703 284.712 276.722 284.607C276.742 284.503 276.841 284.427 276.943 284.437C276.979 284.44 277.832 284.536 278.226 285.468C278.265 285.561 278.219 285.676 278.122 285.724C278.085 285.743 278.043 285.749 278.004 285.742Z" fill="#263238"/>
<path d="M271.892 284.551C271.866 284.545 271.841 284.532 271.82 284.513C271.746 284.447 271.745 284.328 271.818 284.246C272.55 283.434 273.405 283.517 273.441 283.521C273.541 283.528 273.609 283.625 273.589 283.73C273.568 283.834 273.47 283.909 273.368 283.898C273.34 283.895 272.671 283.837 272.087 284.485C272.034 284.545 271.958 284.568 271.892 284.551Z" fill="#263238"/>
<path d="M289.984 305.411L284.417 307.534C284.417 307.534 287.813 320.803 286.711 322.583C285.212 325.005 282.544 330.434 280.275 332.994C280.291 333.652 280.864 335.271 281.336 335.631C285.835 333.613 292.077 325.633 292.625 323.158C293.875 317.513 289.984 305.411 289.984 305.411Z" fill="#FFB573"/>
<path d="M288.981 299.832C292.528 300.963 293.498 314.494 293.498 314.494L284.198 315.933C284.198 315.933 282.789 310.99 282.256 306.181C281.698 301.142 285.177 298.618 288.981 299.832Z" fill="#407BFF"/>
<path opacity="0.3" d="M288.981 299.832C292.528 300.963 293.498 314.494 293.498 314.494L284.198 315.933C284.198 315.933 282.789 310.99 282.256 306.181C281.698 301.142 285.177 298.618 288.981 299.832Z" fill="black"/>
</g>
<path d="M209.44 247.873C222.181 235.56 223.189 215.933 211.691 204.035C200.193 192.136 180.543 192.472 167.801 204.784C155.06 217.097 154.052 236.724 165.55 248.622C177.049 260.521 196.699 260.185 209.44 247.873Z" fill="#407BFF"/>
<path d="M208.344 246.739C220.415 235.074 221.37 216.48 210.477 205.208C199.584 193.935 180.968 194.253 168.897 205.918C156.826 217.583 155.871 236.177 166.764 247.449C177.657 258.722 196.273 258.404 208.344 246.739Z" fill="white"/>
<mask id="mask2_621_4266" style="mask-type:luminance" maskUnits="userSpaceOnUse" x="159" y="196" width="60" height="60">
<path d="M208.344 246.739C220.415 235.074 221.37 216.48 210.477 205.208C199.584 193.935 180.968 194.253 168.897 205.918C156.826 217.583 155.871 236.177 166.764 247.449C177.657 258.722 196.273 258.404 208.344 246.739Z" fill="white"/>
</mask>
<g mask="url(#mask2_621_4266)">
<path d="M200.906 233.247C201.063 235.632 201.179 238.026 201.275 240.415L201.563 247.556L201.611 248.425L201.681 249.19C201.759 249.715 201.82 250.255 201.93 250.806C202.138 251.906 202.415 253.027 202.729 254.147C203.33 256.396 204.059 258.668 204.773 260.914L202.701 261.878C201.432 259.756 200.365 257.576 199.392 255.294C198.931 254.144 198.5 252.972 198.127 251.745C197.941 251.133 197.769 250.497 197.638 249.841L197.474 248.822L197.367 247.899C196.843 243.06 196.494 238.294 196.299 233.482L200.906 233.247Z" fill="#FF8B7B"/>
<path d="M199.807 228.009C201.634 228.483 202.412 236.136 202.412 236.136L194.968 240.973C194.968 240.973 192.663 231.9 194.234 229.855C195.869 227.727 197.14 227.318 199.807 228.009Z" fill="#407BFF"/>
<path opacity="0.2" d="M199.522 229.719L200.423 237.433L197.408 239.387L199.522 229.719Z" fill="black"/>
<path d="M179.496 208.285C176.374 208.734 169.815 223.692 180.506 230.672C191.197 237.652 199.069 229.725 199.069 229.725C199.069 229.725 192.568 221.997 193.511 216.961C194.454 211.925 198.512 205.57 190.188 203.449C184.318 201.952 176.44 203.398 179.496 208.285Z" fill="#263238"/>
<path d="M199.807 228.009C199.807 228.009 201.905 228.766 195.786 255.245C188.514 255.245 180.997 255.245 177.458 255.245C178.276 247.786 178.6 243.186 176.083 227.878C176.083 227.878 179.98 227.043 183.936 226.853C187.03 226.704 189.564 226.606 192.258 226.853C195.81 227.18 199.807 228.009 199.807 228.009Z" fill="#407BFF"/>
<path opacity="0.2" d="M177.18 233.939C178.811 234.353 180.221 236.164 179.81 239.499C179.563 241.499 178.543 243.012 177.994 243.698C177.876 241.133 177.588 238.154 177.069 234.342L177.18 233.939Z" fill="black"/>
<path d="M190.892 232.723C190.892 232.723 187.717 235.195 187.537 237.826C185.166 235.997 182.143 231.016 182.008 227.836C181.985 227.3 182.446 226.827 182.987 226.795C183.269 226.778 183.497 226.743 183.66 226.709C183.854 226.669 184.046 226.719 184.188 226.843L190.892 232.723Z" fill="#FAFAFA"/>
<path d="M190.892 232.723C190.892 232.723 193.54 234.139 193.803 237.627C196.458 235.775 195.548 230.246 194.325 227.542C194.132 227.114 193.728 226.826 193.253 226.77C192.886 226.727 192.607 226.678 192.424 226.64C192.283 226.611 192.142 226.709 192.112 226.853L190.892 232.723Z" fill="#FAFAFA"/>
<path d="M185.402 217.482C185.744 220.16 185.932 225.066 183.936 226.853C183.936 226.853 186.186 230.149 190.892 232.723C194.808 229.756 192.258 226.853 192.258 226.853C189.321 226.14 189.55 223.924 190.212 221.844L185.402 217.482Z" fill="#FF8B7B"/>
<path opacity="0.2" d="M187.363 219.262L190.21 221.842C190.051 222.334 189.92 222.834 189.852 223.319C188.723 223.154 186.995 222.182 186.835 220.942C186.759 220.355 187.247 219.54 187.363 219.262Z" fill="black"/>
<path d="M181.207 213.182C182.15 217.486 182.456 219.334 185.038 221.084C188.922 223.716 194.106 221.254 194.493 216.667C194.841 212.538 193.24 206.193 188.637 205.406C184.101 204.63 180.264 208.877 181.207 213.182Z" fill="#FF8B7B"/>
<path d="M182.436 217.06C185.21 214.417 185.309 211.151 184.606 210.129C186.988 209.929 193.148 208.434 192.159 206.14C191.169 203.846 181.582 202.6 180.257 208.483C177.083 211.127 179.111 216.462 182.436 217.06Z" fill="#263238"/>
<path d="M188.45 212.793C188.505 213.148 188.74 213.395 188.976 213.343C189.212 213.291 189.359 212.961 189.304 212.606C189.249 212.251 189.014 212.005 188.778 212.056C188.543 212.108 188.396 212.438 188.45 212.793Z" fill="#263238"/>
<path d="M192.528 211.9C192.583 212.255 192.818 212.502 193.054 212.45C193.29 212.398 193.437 212.068 193.382 211.713C193.327 211.358 193.092 211.111 192.856 211.163C192.62 211.215 192.473 211.545 192.528 211.9Z" fill="#263238"/>
<path d="M192.754 211.206L193.583 210.77C193.583 210.77 193.241 211.534 192.754 211.206Z" fill="#263238"/>
<path d="M191.369 212.816C191.369 212.816 192.216 214.212 193.004 214.802C192.595 215.344 191.755 215.321 191.755 215.321L191.369 212.816Z" fill="#FF5652"/>
<path d="M190.001 217.143C190.171 217.132 190.35 217.107 190.538 217.066C190.597 217.053 190.637 216.996 190.628 216.939C190.619 216.881 190.564 216.842 190.506 216.858C188.922 217.202 188.016 216.277 188.007 216.268C187.968 216.227 187.9 216.227 187.856 216.27C187.812 216.312 187.808 216.38 187.847 216.421C187.883 216.457 188.641 217.233 190.001 217.143Z" fill="#263238"/>
<path d="M180.628 217.475C181.089 218.248 181.881 218.711 182.622 218.849C183.737 219.057 184.268 218.022 183.938 217.011C183.64 216.101 182.701 214.896 181.593 215.146C180.5 215.393 180.1 216.591 180.628 217.475Z" fill="#FF8B7B"/>
<path d="M186.535 212.014C186.625 212.002 186.705 211.934 186.728 211.84C186.97 210.867 188.159 210.321 188.17 210.316C188.28 210.266 188.335 210.139 188.293 210.032C188.251 209.925 188.128 209.878 188.016 209.928C187.959 209.954 186.608 210.575 186.312 211.764C186.283 211.88 186.353 211.991 186.467 212.012C186.491 212.017 186.513 212.017 186.535 212.014Z" fill="#263238"/>
<path d="M193.516 209.056C193.589 209.059 193.664 209.026 193.711 208.96C193.783 208.861 193.764 208.729 193.67 208.664C192.727 208.014 191.791 208.397 191.752 208.414C191.64 208.461 191.582 208.587 191.622 208.695C191.662 208.803 191.783 208.852 191.895 208.806C191.932 208.79 192.661 208.504 193.41 209.021C193.443 209.042 193.479 209.054 193.516 209.056Z" fill="#263238"/>
<path d="M188.677 212.099L189.505 211.663C189.505 211.663 189.164 212.427 188.677 212.099Z" fill="#263238"/>
<path d="M177.258 254.17L176.677 255.811C176.604 255.938 176.746 256.068 176.958 256.068H195.821C195.986 256.068 196.129 255.987 196.146 255.883L196.424 254.242C196.443 254.128 196.307 254.032 196.126 254.032H177.567C177.429 254.032 177.304 254.088 177.258 254.17Z" fill="#407BFF"/>
<path opacity="0.2" d="M177.258 254.17L176.677 255.811C176.604 255.938 176.746 256.068 176.958 256.068H195.821C195.986 256.068 196.129 255.987 196.146 255.883L196.424 254.242C196.443 254.128 196.307 254.032 196.126 254.032H177.567C177.429 254.032 177.304 254.088 177.258 254.17Z" fill="white"/>
<path d="M179.669 256.245H179.172C179.073 256.245 179.001 256.194 179.012 256.132L179.391 254.001C179.402 253.939 179.492 253.888 179.591 253.888H180.088C180.187 253.888 180.259 253.939 180.248 254.001L179.869 256.132C179.858 256.194 179.768 256.245 179.669 256.245Z" fill="#407BFF"/>
<path opacity="0.4" d="M179.669 256.245H179.172C179.073 256.245 179.001 256.194 179.012 256.132L179.391 254.001C179.402 253.939 179.492 253.888 179.591 253.888H180.088C180.187 253.888 180.259 253.939 180.248 254.001L179.869 256.132C179.858 256.194 179.768 256.245 179.669 256.245Z" fill="black"/>
<path d="M194.411 256.245H193.914C193.815 256.245 193.743 256.194 193.754 256.132L194.133 254.001C194.144 253.939 194.234 253.888 194.333 253.888H194.83C194.929 253.888 195.001 253.939 194.99 254.001L194.611 256.132C194.6 256.194 194.51 256.245 194.411 256.245Z" fill="#407BFF"/>
<path opacity="0.4" d="M194.411 256.245H193.914C193.815 256.245 193.743 256.194 193.754 256.132L194.133 254.001C194.144 253.939 194.234 253.888 194.333 253.888H194.83C194.929 253.888 195.001 253.939 194.99 254.001L194.611 256.132C194.6 256.194 194.51 256.245 194.411 256.245Z" fill="black"/>
<path d="M187.071 256.245H186.574C186.475 256.245 186.403 256.194 186.414 256.132L186.793 254.001C186.804 253.939 186.894 253.888 186.993 253.888H187.49C187.589 253.888 187.661 253.939 187.65 254.001L187.271 256.132C187.26 256.194 187.17 256.245 187.071 256.245Z" fill="#407BFF"/>
<path opacity="0.4" d="M187.071 256.245H186.574C186.475 256.245 186.403 256.194 186.414 256.132L186.793 254.001C186.804 253.939 186.894 253.888 186.993 253.888H187.49C187.589 253.888 187.661 253.939 187.65 254.001L187.271 256.132C187.26 256.194 187.17 256.245 187.071 256.245Z" fill="black"/>
<path d="M178.118 233.988C177.604 237.042 177.014 240.082 176.411 243.12C176.123 244.641 175.789 246.154 175.474 247.671L174.995 249.944L174.788 250.927C174.771 250.982 174.766 251.034 174.798 251.154C174.858 251.386 175.131 251.835 175.556 252.246C175.974 252.667 176.511 253.078 177.083 253.463C178.239 254.239 179.566 254.893 180.909 255.531C182.259 256.164 183.66 256.736 185.081 257.266C186.491 257.819 187.952 258.315 189.375 258.791L188.859 261.018C185.713 260.501 182.674 259.739 179.63 258.682C178.109 258.152 176.612 257.51 175.12 256.679C174.376 256.253 173.633 255.781 172.905 255.158C172.195 254.531 171.424 253.771 170.947 252.541C170.714 251.935 170.589 251.201 170.664 250.486C170.713 250.058 170.736 249.972 170.767 249.756L170.856 249.182L171.212 246.887C171.453 245.358 171.675 243.825 171.944 242.302C172.454 239.249 172.977 236.199 173.576 233.162L178.118 233.988Z" fill="#FF8B7B"/>
<path d="M176.083 227.879C174.209 228.437 171.57 234.76 171.57 234.76L177.542 241.375C177.542 241.375 181.304 234.575 180.695 232.202C180.061 229.73 178.222 227.242 176.083 227.879Z" fill="#407BFF"/>
</g>
<path opacity="0.3" d="M165.32 149.846H236.976C238.337 149.846 239.516 148.742 239.61 147.381C239.703 146.02 238.675 144.916 237.314 144.916H165.658C164.297 144.916 163.118 146.02 163.025 147.381C162.93 148.742 163.958 149.846 165.32 149.846Z" fill="#407BFF"/>
<path opacity="0.3" d="M185.12 160.687H236.233C237.594 160.687 238.773 159.583 238.866 158.222C238.959 156.861 237.931 155.757 236.57 155.757H185.457C184.096 155.757 182.917 156.861 182.824 158.222C182.731 159.584 183.759 160.687 185.12 160.687Z" fill="#407BFF"/>
<path d="M197.065 139.004H237.718C239.079 139.004 240.258 137.9 240.351 136.539C240.444 135.178 239.416 134.074 238.055 134.074H197.402C196.041 134.074 194.862 135.178 194.768 136.539C194.676 137.901 195.704 139.004 197.065 139.004Z" fill="white"/>
<path opacity="0.3" d="M197.146 308.228H226.132C227.493 308.228 228.521 309.332 228.428 310.693C228.335 312.054 227.156 313.158 225.794 313.158H196.808C195.447 313.158 194.419 312.054 194.512 310.693C194.606 309.332 195.785 308.228 197.146 308.228Z" fill="#407BFF"/>
<path opacity="0.3" d="M157.884 308.228H186.87C188.231 308.228 189.259 309.332 189.166 310.693C189.073 312.054 187.894 313.158 186.532 313.158H157.546C156.185 313.158 155.157 312.054 155.25 310.693C155.344 309.332 156.523 308.228 157.884 308.228Z" fill="#407BFF"/>
<path opacity="0.3" d="M175.761 297.387H226.874C228.235 297.387 229.263 298.491 229.17 299.852C229.077 301.213 227.898 302.317 226.536 302.317H175.423C174.062 302.317 173.034 301.213 173.127 299.852C173.221 298.49 174.4 297.387 175.761 297.387Z" fill="#407BFF"/>
<path d="M169.025 286.545H227.617C228.978 286.545 230.006 287.649 229.913 289.01C229.82 290.371 228.641 291.475 227.279 291.475H168.687C167.326 291.475 166.298 290.371 166.391 289.01C166.484 287.648 167.663 286.545 169.025 286.545Z" fill="white"/>
<path opacity="0.3" d="M290.797 234.704H237.402C236.041 234.704 234.862 235.808 234.768 237.169C234.675 238.53 235.703 239.634 237.064 239.634H290.459C291.82 239.634 292.999 238.53 293.093 237.169C293.186 235.807 292.158 234.704 290.797 234.704Z" fill="#407BFF"/>
<path opacity="0.3" d="M263.341 223.862H238.144C236.783 223.862 235.604 224.966 235.51 226.327C235.417 227.688 236.445 228.792 237.806 228.792H263.003C264.364 228.792 265.543 227.688 265.637 226.327C265.73 224.965 264.702 223.862 263.341 223.862Z" fill="#407BFF"/>
<path d="M278.095 213.02H238.887C237.526 213.02 236.347 214.124 236.253 215.485C236.16 216.846 237.188 217.95 238.549 217.95H277.757C279.118 217.95 280.297 216.846 280.391 215.485C280.484 214.124 279.456 213.02 278.095 213.02Z" fill="white"/>
<path opacity="0.3" d="M309.8 223.862H273.998C272.637 223.862 271.458 224.966 271.365 226.327C271.272 227.688 272.3 228.792 273.661 228.792H309.463C310.824 228.792 312.003 227.688 312.097 226.327C312.189 224.965 311.161 223.862 309.8 223.862Z" fill="#407BFF"/>
<path opacity="0.3" d="M148.809 121.599H175.591L174.173 97.8689L148.809 121.599Z" fill="#407BFF"/>
<path d="M148.809 121.599L177.48 118.167L174.173 97.8689L148.809 121.599Z" fill="#407BFF"/>
<path d="M40.784 191.905C39.931 193.912 38.991 196.122 38.158 198.262C37.32 200.426 36.476 202.586 35.715 204.764C34.153 209.104 32.794 213.488 31.863 217.798C31.725 218.341 31.656 218.867 31.552 219.402L31.406 220.203L31.3 220.83C31.197 221.529 31.19 222.5 31.241 223.508C31.368 225.546 31.718 227.781 32.133 230.022C32.995 234.509 34.131 239.163 35.264 243.723L30.183 245.87C27.662 241.527 25.554 237.101 23.821 232.317C22.966 229.918 22.208 227.457 21.708 224.721C21.458 223.343 21.271 221.903 21.317 220.199L21.345 219.549C21.357 219.335 21.376 219.207 21.391 219.031L21.489 218.043C21.561 217.388 21.606 216.715 21.711 216.078C22.428 210.901 23.687 205.992 25.205 201.217C25.979 198.834 26.785 196.471 27.713 194.158C28.646 191.821 29.543 189.581 30.688 187.209L40.784 191.905Z" fill="#E0A5A3"/>
<path d="M35.087 242.436L38.989 246.243L30.481 250.201C30.481 250.201 28.416 246.596 29.842 243.336L35.087 242.436Z" fill="#E0A5A3"/>
<path d="M42.132 251.912L34.946 254.855L30.48 250.202L38.989 246.243L42.132 251.912Z" fill="#E0A5A3"/>
<g filter="url(#filter0_d_621_4266)">
<path d="M227.802 230.029C239.039 202.902 226.157 171.803 199.031 160.567C171.905 149.331 140.806 162.212 129.57 189.338C118.333 216.465 131.215 247.564 158.341 258.8C185.467 270.036 216.566 257.155 227.802 230.029Z" fill="#407BFF"/>
<path d="M178.677 260.05C206.492 260.05 229.041 237.502 229.041 209.686C229.041 181.871 206.492 159.322 178.677 159.322C150.862 159.322 128.313 181.871 128.313 209.686C128.313 237.502 150.862 260.05 178.677 260.05Z" fill="white"/>
<mask id="mask3_621_4266" style="mask-type:luminance" maskUnits="userSpaceOnUse" x="128" y="159" width="102" height="102">
<path d="M178.677 260.05C206.492 260.05 229.041 237.502 229.041 209.686C229.041 181.871 206.492 159.322 178.677 159.322C150.862 159.322 128.313 181.871 128.313 209.686C128.313 237.502 150.862 260.05 178.677 260.05Z" fill="white"/>
</mask>
<g mask="url(#mask3_621_4266)">
<path d="M200.544 221.285C201.097 225.403 201.58 229.541 202.028 233.674L203.385 246.02L203.569 247.503L203.781 248.829L204.07 250.21L204.423 251.62C204.938 253.507 205.529 255.432 206.185 257.35C207.469 261.198 208.975 265.066 210.44 268.897L206.982 270.742C204.587 267.183 202.526 263.507 200.6 259.66C199.673 257.722 198.781 255.747 198.015 253.668L197.455 252.087L196.955 250.443C196.807 249.876 196.676 249.286 196.539 248.706L196.227 247.102C195.463 242.924 194.832 238.805 194.256 234.659C193.66 230.52 193.125 226.383 192.687 222.223L200.544 221.285Z" fill="#FF8B7B"/>
<path d="M198.054 212.571C201.243 213.383 203.474 226.507 203.474 226.507L191.277 234.802C191.277 234.802 186.259 219.244 188.713 215.738C191.267 212.086 193.4 211.386 198.054 212.571Z" fill="#407BFF"/>
<path opacity="0.2" d="M197.766 215.502L200.216 228.73L195.276 232.08L197.766 215.502Z" fill="black"/>
<path d="M160.911 178.748C155.61 179.518 146.12 205.167 165.271 217.136C184.422 229.106 196.99 215.511 196.99 215.511C196.99 215.511 184.935 202.259 185.961 193.624C186.987 184.989 193.199 174.091 178.676 170.454C168.435 167.89 155.097 170.37 160.911 178.748Z" fill="#263238"/>
<path d="M198.054 212.571C198.054 212.571 201.74 213.869 194.356 259.273C181.886 259.273 168.997 259.273 162.929 259.273C163.456 246.483 163.471 238.596 157.358 212.347C157.358 212.347 163.943 210.915 170.703 210.589C175.991 210.334 180.324 210.165 184.973 210.59C191.103 211.148 198.054 212.571 198.054 212.571Z" fill="#407BFF"/>
<path opacity="0.2" d="M159.95 222.738C162.796 223.447 165.427 226.554 165.112 232.272C164.923 235.701 163.352 238.296 162.491 239.472C161.988 235.073 161.144 229.965 159.806 223.429L159.95 222.738Z" fill="black"/>
<path d="M183.32 220.654C183.32 220.654 178.166 224.894 178.166 229.405C173.886 226.269 168.118 217.728 167.513 212.274C167.411 211.354 168.146 210.545 169.07 210.49C169.551 210.461 169.938 210.4 170.215 210.343C170.543 210.275 170.878 210.36 171.136 210.573L183.32 220.654Z" fill="#FAFAFA"/>
<path d="M183.32 220.654C183.32 220.654 188.027 223.081 188.887 229.064C193.222 225.888 191.012 216.408 188.598 211.771C188.216 211.037 187.49 210.542 186.669 210.447C186.035 210.373 185.551 210.289 185.233 210.225C184.988 210.176 184.758 210.343 184.724 210.59L183.32 220.654Z" fill="#FAFAFA"/>
<path d="M172.117 194.52C173.017 199.112 173.915 207.525 170.703 210.588C170.703 210.588 174.947 216.239 183.319 220.653C189.685 215.566 184.973 210.588 184.973 210.588C179.853 209.365 179.985 205.567 180.877 201.999L172.117 194.52Z" fill="#FF8B7B"/>
<path opacity="0.2" d="M175.689 197.572L180.874 201.996C180.66 202.84 180.494 203.697 180.434 204.529C178.478 204.246 175.402 202.58 174.982 200.453C174.782 199.446 175.522 198.048 175.689 197.572Z" fill="black"/>
<path d="M164.419 187.145C166.542 194.525 167.283 197.695 171.916 200.695C178.885 205.208 187.486 200.987 187.611 193.121C187.724 186.041 184.233 175.161 176.247 173.811C168.378 172.482 162.296 179.765 164.419 187.145Z" fill="#FF8B7B"/>
<path d="M166.981 193.796C171.427 189.265 171.213 183.665 169.888 181.912C173.949 181.57 184.337 179.005 182.371 175.072C180.405 171.139 163.818 169.002 162.236 179.09C157.106 183.622 161.21 192.77 166.981 193.796Z" fill="#263238"/>
<path d="M176.794 186.479C176.929 187.088 177.362 187.51 177.76 187.422C178.158 187.333 178.371 186.768 178.236 186.159C178.101 185.55 177.668 185.128 177.27 185.216C176.872 185.304 176.659 185.87 176.794 186.479Z" fill="#263238"/>
<path d="M183.681 184.949C183.816 185.558 184.249 185.98 184.647 185.892C185.045 185.803 185.258 185.238 185.123 184.629C184.988 184.02 184.555 183.598 184.157 183.686C183.758 183.774 183.545 184.339 183.681 184.949Z" fill="#263238"/>
<path d="M183.988 183.758L185.358 183.011C185.358 183.011 184.861 184.321 183.988 183.758Z" fill="#263238"/>
<path d="M181.801 186.518C181.801 186.518 183.418 188.911 184.837 189.924C184.2 190.854 182.756 190.814 182.756 190.814L181.801 186.518Z" fill="#FF5652"/>
<path d="M179.964 193.939C180.254 193.92 180.558 193.878 180.877 193.807C180.976 193.785 181.038 193.687 181.017 193.589C180.995 193.49 180.896 193.423 180.798 193.45C178.122 194.04 176.46 192.454 176.444 192.438C176.371 192.367 176.256 192.368 176.185 192.441C176.114 192.513 176.116 192.63 176.188 192.7C176.252 192.762 177.642 194.092 179.964 193.939Z" fill="#263238"/>
<path d="M163.93 194.508C164.812 195.833 166.224 196.628 167.511 196.865C169.446 197.221 170.237 195.447 169.551 193.713C168.933 192.152 167.182 190.086 165.311 190.515C163.467 190.937 162.921 192.992 163.93 194.508Z" fill="#FF8B7B"/>
<path d="M173.418 185.143C173.571 185.122 173.7 185.006 173.729 184.845C174.03 183.176 176.004 182.24 176.023 182.231C176.207 182.146 176.286 181.928 176.201 181.744C176.116 181.561 175.9 181.48 175.714 181.566C175.618 181.61 173.376 182.675 173.008 184.714C172.972 184.913 173.104 185.104 173.304 185.14C173.343 185.148 173.382 185.148 173.418 185.143Z" fill="#263238"/>
<path d="M185.042 180.07C185.167 180.076 185.292 180.018 185.366 179.906C185.477 179.737 185.43 179.51 185.261 179.398C183.568 178.283 182.008 178.94 181.943 178.969C181.757 179.05 181.672 179.266 181.753 179.451C181.834 179.636 182.048 179.72 182.235 179.641C182.297 179.614 183.514 179.124 184.858 180.01C184.914 180.048 184.978 180.068 185.042 180.07Z" fill="#263238"/>
<path d="M177.102 185.289L178.472 184.542C178.472 184.542 177.974 185.852 177.102 185.289Z" fill="#263238"/>
<path d="M162.458 257.429L161.654 260.242C161.544 260.46 161.802 260.683 162.166 260.683H194.51C194.793 260.683 195.028 260.544 195.046 260.366L195.33 257.553C195.35 257.358 195.104 257.193 194.794 257.193H162.97C162.736 257.193 162.529 257.288 162.458 257.429Z" fill="#407BFF"/>
<path opacity="0.2" d="M162.458 257.429L161.654 260.242C161.544 260.46 161.802 260.683 162.166 260.683H194.51C194.793 260.683 195.028 260.544 195.046 260.366L195.33 257.553C195.35 257.358 195.104 257.193 194.794 257.193H162.97C162.736 257.193 162.529 257.288 162.458 257.429Z" fill="white"/>
<path d="M166.838 260.987H165.986C165.816 260.987 165.687 260.9 165.699 260.793L166.099 257.138C166.111 257.031 166.259 256.943 166.429 256.943H167.281C167.451 256.943 167.58 257.03 167.568 257.138L167.168 260.793C167.156 260.9 167.007 260.987 166.838 260.987Z" fill="#407BFF"/>
<path opacity="0.4" d="M166.838 260.987H165.986C165.816 260.987 165.687 260.9 165.699 260.793L166.099 257.138C166.111 257.031 166.259 256.943 166.429 256.943H167.281C167.451 256.943 167.58 257.03 167.568 257.138L167.168 260.793C167.156 260.9 167.007 260.987 166.838 260.987Z" fill="black"/>
<path d="M192.116 260.987H191.264C191.094 260.987 190.965 260.9 190.977 260.793L191.377 257.138C191.389 257.031 191.537 256.943 191.707 256.943H192.559C192.729 256.943 192.858 257.03 192.846 257.138L192.446 260.793C192.434 260.9 192.285 260.987 192.116 260.987Z" fill="#407BFF"/>
<path opacity="0.4" d="M192.116 260.987H191.264C191.094 260.987 190.965 260.9 190.977 260.793L191.377 257.138C191.389 257.031 191.537 256.943 191.707 256.943H192.559C192.729 256.943 192.858 257.03 192.846 257.138L192.446 260.793C192.434 260.9 192.285 260.987 192.116 260.987Z" fill="black"/>
<path d="M179.529 260.987H178.677C178.507 260.987 178.378 260.9 178.39 260.793L178.79 257.138C178.802 257.031 178.95 256.943 179.12 256.943H179.972C180.142 256.943 180.271 257.03 180.259 257.138L179.859 260.793C179.847 260.9 179.699 260.987 179.529 260.987Z" fill="#407BFF"/>
<path opacity="0.4" d="M179.529 260.987H178.677C178.507 260.987 178.378 260.9 178.39 260.793L178.79 257.138C178.802 257.031 178.95 256.943 179.12 256.943H179.972C180.142 256.943 180.271 257.03 180.259 257.138L179.859 260.793C179.847 260.9 179.699 260.987 179.529 260.987Z" fill="black"/>
<path d="M161.555 222.56C161.301 225.225 160.967 227.88 160.676 230.541L159.665 238.507C159.346 241.164 158.934 243.811 158.569 246.463L158.005 250.439L157.822 251.705C157.819 251.807 157.848 251.989 157.977 252.259C158.223 252.805 158.865 253.584 159.673 254.286C160.487 255 161.456 255.685 162.487 256.327C164.546 257.636 166.857 258.75 169.202 259.828C171.557 260.896 173.991 261.862 176.459 262.761C178.907 263.699 181.438 264.541 183.906 265.35L183.035 269.171C177.603 268.289 172.346 267.002 167.083 265.233C164.45 264.355 161.854 263.296 159.263 261.952C157.973 261.267 156.689 260.49 155.421 259.523C154.168 258.535 152.867 257.396 151.824 255.586C151.317 254.683 150.895 253.577 150.766 252.344C150.746 252.035 150.719 251.725 150.73 251.414C150.738 251.131 150.768 250.713 150.779 250.613L150.865 249.613L151.213 245.614C151.455 242.95 151.651 240.28 151.939 237.62L152.751 229.636C153.067 226.98 153.34 224.319 153.694 221.667L161.555 222.56Z" fill="#FF8B7B"/>
<path d="M157.358 212.347C154.21 213.305 150.428 224.146 150.428 224.146L161.445 235.49C161.445 235.49 167.098 223.83 165.775 219.76C164.397 215.521 160.951 211.254 157.358 212.347Z" fill="#407BFF"/>
</g>
<g opacity="0.2" filter="url(#filter1_d_621_4266)">
<path d="M130.522 222.661C123.355 196.071 139.099 168.699 165.695 161.53C192.292 154.361 219.659 170.113 226.826 196.703C233.995 223.3 218.251 250.671 191.654 257.84C165.058 265.009 137.691 249.258 130.522 222.661Z" fill="#407BFF"/>
</g>
<path opacity="0.2" d="M214.823 175.32L173.753 259.32C177.223 259.67 180.774 259.66 184.343 259.23L221.273 183.73C219.413 180.68 217.253 177.86 214.823 175.32ZM226.823 196.7C226.733 196.38 226.643 196.05 226.553 195.73L197.063 256.05C220.343 246.85 233.493 221.44 226.823 196.7ZM165.693 161.53C139.103 168.7 123.353 196.07 130.523 222.66C133.173 232.5 138.593 240.85 145.713 247.11L187.983 160.68C180.803 159.31 173.223 159.5 165.693 161.53Z" fill="white"/>
<path d="M122.564 204.27L121.568 204.174C121.733 202.462 121.977 200.741 122.297 199.061L123.279 199.248C122.966 200.899 122.726 202.588 122.564 204.27ZM124.504 194.117L123.543 193.839C124.823 189.417 126.65 185.127 128.975 181.086L129.842 181.585C127.557 185.556 125.761 189.772 124.504 194.117Z" fill="#407BFF"/>
<g filter="url(#filter2_d_621_4266)">
<path d="M230.659 195.671C222.921 166.961 193.372 149.959 164.662 157.698C135.952 165.436 118.95 194.985 126.689 223.695C134.429 252.409 163.978 269.411 192.687 261.673C221.397 253.935 238.399 224.386 230.659 195.671ZM130.522 222.661C123.355 196.071 139.099 168.699 165.695 161.53C192.292 154.361 219.659 170.113 226.826 196.703C233.995 223.3 218.251 250.671 191.654 257.84C165.058 265.009 137.691 249.258 130.522 222.661Z" fill="#407BFF"/>
</g>
<path d="M131.324 230.906C131.295 233.203 130.727 233.498 130.099 233.574L128.285 234.053L124.656 235.011L117.398 236.928L102.853 240.661C93.144 243.1 83.415 245.469 73.673 247.787L44.451 254.756L29.857 258.303C24.999 259.51 20.116 260.625 15.311 262.031C13.258 262.632 11.107 261.455 10.505 259.402C9.90398 257.349 11.081 255.197 13.134 254.596C13.183 254.582 13.246 254.565 13.295 254.553C18.155 253.354 22.937 251.864 27.744 250.466L42.144 246.198L70.911 237.537C80.498 234.645 90.099 231.804 99.72 229.033L114.17 224.951L121.409 222.961L125.028 221.966L126.837 221.468C127.418 221.218 128.058 221.188 129.237 223.159C130.679 225.57 131.349 228.288 131.324 230.906Z" fill="#407BFF"/>
</g>
<path d="M68.398 156.296C68.397 156.889 68.711 157.369 69.098 157.37C69.485 157.37 69.8 156.89 69.8 156.298C69.801 155.706 69.487 155.225 69.099 155.225C68.712 155.223 68.398 155.703 68.398 156.296Z" fill="#263238"/>
<path d="M68.656 157.369C68.656 157.369 70 160.789 71.482 162.439C70.433 163.417 68.651 162.968 68.651 162.968L68.656 157.369Z" fill="#D95D75"/>
<path d="M66.301 153.01C66.193 153.01 66.086 152.96 66.018 152.865C65.906 152.709 65.941 152.492 66.097 152.379C67.66 151.254 69.164 151.818 69.228 151.843C69.407 151.913 69.496 152.114 69.426 152.293C69.357 152.472 69.153 152.559 68.978 152.492C68.929 152.473 67.751 152.046 66.503 152.943C66.442 152.989 66.371 153.01 66.301 153.01Z" fill="#263238"/>
<path d="M49.324 160.128C49.845 165.918 49.925 176.445 45.829 179.896C45.829 179.896 46.756 185.806 56.7 186.728C67.634 187.742 62.461 181.439 62.461 181.439C56.634 179.37 57.225 174.674 58.675 170.348L49.324 160.128Z" fill="#E0A5A3"/>
<path d="M32.036 181.767C25.664 184.817 22.996 205.333 22.996 205.333L37.647 211.079C37.647 211.079 41.151 202.78 43.154 193.925C45.252 184.648 38.551 178.649 32.036 181.767Z" fill="#407BFF"/>
<path opacity="0.3" d="M32.036 181.767C25.664 184.817 22.996 205.333 22.996 205.333L37.647 211.079C37.647 211.079 41.151 202.78 43.154 193.925C45.252 184.648 38.551 178.649 32.036 181.767Z" fill="black"/>
<path opacity="0.2" d="M41.532 187.8C42.052 187.55 42.572 187.36 43.092 187.23C43.642 189.15 43.722 191.42 43.152 193.93C41.152 202.78 37.652 211.08 37.652 211.08L32.822 209.19C33.712 203.82 36.442 190.24 41.532 187.8Z" fill="black"/>
<path d="M74.52 181.611C74.52 181.611 82.339 190.443 74.955 245.108C63.116 245.108 41.423 245.108 35.662 245.108C35.391 239.076 39.181 209.652 33.364 181.232C33.364 181.232 40.099 179.88 46.517 179.571C51.538 179.329 58.807 179.169 63.22 179.572C69.039 180.103 74.52 181.611 74.52 181.611Z" fill="#407BFF"/>
<path opacity="0.3" d="M74.52 181.611C74.52 181.611 82.339 190.443 74.955 245.108C63.116 245.108 41.423 245.108 35.662 245.108C35.391 239.076 39.181 209.652 33.364 181.232C33.364 181.232 40.099 179.88 46.517 179.571C51.538 179.329 58.807 179.169 63.22 179.572C69.039 180.103 74.52 181.611 74.52 181.611Z" fill="black"/>
<path opacity="0.2" d="M66.612 193.33C68.392 187.99 72.672 186.28 77.032 189.45C77.912 194.63 78.532 202.98 77.822 216.22L70.152 216.15C70.152 216.15 63.962 201.28 66.612 193.33Z" fill="black"/>
<path d="M79.064 189.684C79.438 191.966 79.856 194.466 80.334 196.847C80.825 199.249 81.311 201.651 81.888 204.015C83.012 208.741 84.336 213.412 86.104 217.621C86.546 218.665 87.013 219.68 87.516 220.631L88.173 221.806C88.266 222 88.488 222.268 88.739 222.548C89.828 223.743 91.767 224.98 93.757 226.088C97.825 228.281 102.508 230.194 107.072 231.946L105.975 237.352C100.61 236.922 95.472 235.987 90.2 234.131C88.885 233.655 87.559 233.121 86.232 232.436C84.902 231.752 83.55 230.963 82.181 229.852C81.501 229.268 80.818 228.633 80.161 227.798L79.677 227.163L79.366 226.698C79.163 226.388 78.947 226.077 78.757 225.766C77.977 224.52 77.291 223.266 76.651 222.008C74.175 216.962 72.493 211.865 71.108 206.739C70.436 204.172 69.821 201.605 69.325 199.017C68.82 196.408 68.359 193.895 68.026 191.139L79.064 189.684Z" fill="#E0A5A3"/>
<path d="M64.702 186.968C62.632 193.68 71.026 213.685 71.026 213.685L88.722 209.235C88.722 209.235 87.098 199.089 83.29 190.839C77.547 178.393 67.186 178.913 64.702 186.968Z" fill="#407BFF"/>
<path opacity="0.3" d="M64.702 186.968C62.632 193.68 71.026 213.685 71.026 213.685L88.722 209.235C88.722 209.235 87.098 199.089 83.29 190.839C77.547 178.393 67.186 178.913 64.702 186.968Z" fill="black"/>
<path d="M107.177 231.956L114.765 235.371L107.414 241.44C107.414 241.44 104.168 240.381 103.639 235.057L102.506 230.639L105.84 231.489C106.299 231.605 106.746 231.762 107.177 231.956Z" fill="#E0A5A3"/>
<path d="M118.803 239.095L111.406 243.499L107.414 241.439L114.765 235.371L118.803 239.095Z" fill="#E0A5A3"/>
<path d="M66.558 178.922C63.388 176.242 55.691 174.315 47.066 173.833C42.143 173.559 37.077 174.367 34.961 175.309C32.844 176.25 35.345 183.044 38.107 183.19C36.651 185.487 38.77 189.927 41.938 190.797C41.436 194.638 51.118 194.996 56.977 191.9C61.643 189.434 70.357 182.134 66.558 178.922Z" fill="#263238"/>
<path d="M48.635 155.023C49.076 162.301 48.964 166.583 52.636 170.321C58.16 175.944 67.146 172.619 68.888 165.357C70.456 158.82 69.472 148.017 62.351 145.115C55.336 142.255 48.194 147.745 48.635 155.023Z" fill="#E0A5A3"/>
<path d="M62.264 159.056C65.005 156.278 69.53 150.223 67.949 145.667C65.616 138.945 58.671 141.222 59.782 142.556C55.745 139.917 47.699 139.792 49.393 143.334C42.115 144.334 41.53 147.279 43.545 148.39C38.365 153.334 38.615 158.445 42.543 158.057C39.56 161.057 45.06 167.001 51.227 169.835C53.338 164.333 64.579 163.329 62.264 159.056Z" fill="#263238"/>
<path d="M59.073 161.694C59.024 161.694 58.975 161.68 58.932 161.651C58.818 161.573 58.788 161.418 58.866 161.304C60.449 158.978 61.991 157.118 63.351 155.476C65.952 152.339 67.831 150.073 67.991 146.986C68.121 144.491 66.655 142.307 64.07 141.143C62.208 140.304 60.209 140.254 59.421 141.028C59.002 141.439 58.963 142.051 59.303 142.847C59.358 142.974 59.299 143.12 59.172 143.175C59.045 143.228 58.898 143.171 58.844 143.043C58.308 141.793 58.672 141.063 59.072 140.671C60.014 139.747 62.202 139.754 64.277 140.687C67.056 141.94 68.632 144.304 68.492 147.012C68.323 150.265 66.399 152.585 63.737 155.795C62.383 157.428 60.849 159.278 59.281 161.585C59.231 161.656 59.153 161.694 59.073 161.694Z" fill="#263238"/>
<path d="M59.428 158.237C59.542 160.143 60.428 161.937 61.493 163.109C63.095 164.873 64.766 163.774 65.049 161.625C65.304 159.691 64.778 156.442 62.82 155.469C60.89 154.512 59.297 156.057 59.428 158.237Z" fill="#E0A5A3"/>
<path d="M61.016 245.108C61.016 245.108 63.496 294.632 58.668 315.609C51.022 348.835 36.386 387.357 36.386 387.357L22.77 384.793C22.77 384.793 34.24 346.21 36.727 318.555C38.961 293.711 35.661 265.177 35.661 245.109C44.814 245.108 61.016 245.108 61.016 245.108Z" fill="#263238"/>
<path opacity="0.2" d="M57.332 259.78C58.354 257.848 60.282 263.6 61.642 270.98C61.682 281.16 61.462 292.74 60.572 302.55C53.774 290 55.219 263.778 57.332 259.78Z" fill="black"/>
<path d="M74.955 245.108C74.955 245.108 86.02 292.009 86.799 314.412C87.673 339.537 78.904 398.8 78.904 398.8H66.46C66.46 398.8 64.928 339.076 64.374 316.191C63.77 291.242 49.126 245.108 49.126 245.108H74.955Z" fill="#263238"/>
<defs>
<filter id="filter0_d_621_4266" x="-63.652" y="81.8293" width="370.18" height="255.712" filterUnits="userSpaceOnUse" color-interpolation-filters="sRGB">
<feFlood flood-opacity="0" result="BackgroundImageFix"/>
<feColorMatrix in="SourceAlpha" type="matrix" values="0 0 0 0 0 0 0 0 0 0 0 0 0 0 0 0 0 0 127 0" result="hardAlpha"/>
<feOffset/>
<feGaussianBlur stdDeviation="37"/>
<feColorMatrix type="matrix" values="0 0 0 0 0.141176 0 0 0 0 0.372549 0 0 0 0 1 0 0 0 0.68 0"/>
<feBlend mode="normal" in2="BackgroundImageFix" result="effect1_dropShadow_621_4266"/>
<feBlend mode="normal" in="SourceGraphic" in2="effect1_dropShadow_621_4266" result="shape"/>
</filter>
<filter id="filter1_d_621_4266" x="54.7913" y="85.7991" width="247.766" height="247.772" filterUnits="userSpaceOnUse" color-interpolation-filters="sRGB">
<feFlood flood-opacity="0" result="BackgroundImageFix"/>
<feColorMatrix in="SourceAlpha" type="matrix" values="0 0 0 0 0 0 0 0 0 0 0 0 0 0 0 0 0 0 127 0" result="hardAlpha"/>
<feOffset/>
<feGaussianBlur stdDeviation="37"/>
<feColorMatrix type="matrix" values="0 0 0 0 0.141176 0 0 0 0 0.372549 0 0 0 0 1 0 0 0 0.68 0"/>
<feBlend mode="normal" in2="BackgroundImageFix" result="effect1_dropShadow_621_4266"/>
<feBlend mode="normal" in="SourceGraphic" in2="effect1_dropShadow_621_4266" result="shape"/>
</filter>
<filter id="filter2_d_621_4266" x="50.8202" y="81.8293" width="255.708" height="255.712" filterUnits="userSpaceOnUse" color-interpolation-filters="sRGB">
<feFlood flood-opacity="0" result="BackgroundImageFix"/>
<feColorMatrix in="SourceAlpha" type="matrix" values="0 0 0 0 0 0 0 0 0 0 0 0 0 0 0 0 0 0 127 0" result="hardAlpha"/>
<feOffset/>
<feGaussianBlur stdDeviation="37"/>
<feColorMatrix type="matrix" values="0 0 0 0 0.141176 0 0 0 0 0.372549 0 0 0 0 1 0 0 0 0.68 0"/>
<feBlend mode="normal" in2="BackgroundImageFix" result="effect1_dropShadow_621_4266"/>
<feBlend mode="normal" in="SourceGraphic" in2="effect1_dropShadow_621_4266" result="shape"/>
</filter>
</defs>
</svg>
