<svg width="20" height="20" viewBox="0 0 20 20" fill="none" xmlns="http://www.w3.org/2000/svg">
<path fill-rule="evenodd" clip-rule="evenodd" d="M9.58751 18.4H10.475L12.625 16.25H15.625L16.25 15.625V12.6L18.425 10.45V9.56255L16.2875 7.41255V4.36255L15.6625 3.75005H12.625L10.475 1.61255H9.58751L7.50001 3.75005H4.41251L3.75001 4.37505V7.41255L1.63751 9.56255V10.45L3.75001 12.6V15.625L4.41251 16.25H7.50001L9.58751 18.4ZM7.70001 15H5.00001V12.3375L4.85001 11.9L2.96251 10L4.81251 8.11255L5.00001 7.67505V5.00005H7.70001L8.15001 4.82505L10 2.93755L11.925 4.82505L12.3625 5.00005H15V7.67505L15.2125 8.11255L17.1125 10L15.175 11.9L15 12.3375V15H12.3625L11.8875 15.1875L10 17.075L8.15001 15.175L7.70001 15ZM8.41251 13.1H9.30001L14.0125 8.38755L13.125 7.50005L8.86251 11.775L7.13751 10.05L6.25001 10.9375L8.41251 13.1Z" fill="white"/>
</svg>
