<svg width="20" height="20" viewBox="0 0 20 20" fill="none" xmlns="http://www.w3.org/2000/svg">
<path d="M17.5 6.66675C16.2917 6.66675 15.6167 7.86675 15.8917 8.75841L12.9333 11.7251C12.6833 11.6501 12.3167 11.6501 12.0667 11.7251L9.94168 9.60008C10.225 8.70842 9.55001 7.50008 8.33334 7.50008C7.12501 7.50008 6.44168 8.70008 6.72501 9.60008L2.92501 13.3917C2.03334 13.1167 0.833344 13.7917 0.833344 15.0001C0.833344 15.9167 1.58334 16.6667 2.50001 16.6667C3.70834 16.6667 4.38334 15.4667 4.10834 14.5751L7.90001 10.7751C8.15001 10.8501 8.51668 10.8501 8.76668 10.7751L10.8917 12.9001C10.6083 13.7917 11.2833 15.0001 12.5 15.0001C13.7083 15.0001 14.3917 13.8001 14.1083 12.9001L17.075 9.94175C17.9667 10.2167 19.1667 9.54175 19.1667 8.33341C19.1667 7.41675 18.4167 6.66675 17.5 6.66675Z" fill="white"/>
<path d="M12.5 7.5L13.2833 5.775L15 5L13.2833 4.225L12.5 2.5L11.7333 4.225L10 5L11.7333 5.775L12.5 7.5ZM2.91668 9.16667L3.33334 7.5L5.00001 7.08333L3.33334 6.66667L2.91668 5L2.50001 6.66667L0.833344 7.08333L2.50001 7.5L2.91668 9.16667Z" fill="white"/>
</svg>
