<svg width="20" height="20" viewBox="0 0 20 20" fill="none" xmlns="http://www.w3.org/2000/svg">
<path d="M10.8333 2.50167C10.4417 2.50056 10.025 2.5 9.58332 2.5C5.85166 2.5 3.98499 2.5 2.82582 3.65917C1.66666 4.81833 1.66666 6.68417 1.66666 10.4167C1.66666 14.1483 1.66666 16.015 2.82582 17.1742C3.98499 18.3333 5.85082 18.3333 9.58332 18.3333C13.315 18.3333 15.1817 18.3333 16.3408 17.1742C17.5 16.015 17.5 14.1492 17.5 10.4167C17.5 9.975 17.4994 9.55833 17.4983 9.16667" stroke="white" stroke-width="1.25" stroke-linecap="round" stroke-linejoin="round"/>
<path d="M5.83331 14.5834C7.77665 12.5484 11.3691 12.4526 13.3333 14.5834M15.4166 1.66675L15.6316 2.24758C15.9133 3.00925 16.0541 3.39008 16.3316 3.66758C16.61 3.94591 16.9908 4.08675 17.7525 4.36841L18.3333 4.58341L17.7525 4.79841C16.9908 5.08008 16.61 5.22091 16.3325 5.49841C16.0541 5.77675 15.9133 6.15758 15.6316 6.91925L15.4166 7.50008L15.2016 6.91925C14.92 6.15758 14.7791 5.77675 14.5016 5.49925C14.2233 5.22091 13.8425 5.08008 13.0808 4.79841L12.5 4.58341L13.0808 4.36841C13.8425 4.08675 14.2233 3.94591 14.5008 3.66841C14.7791 3.39008 14.92 3.00925 15.2016 2.24758L15.4166 1.66675ZM11.6625 8.33341C11.6625 9.48341 10.7291 10.4167 9.57665 10.4167C9.30278 10.4172 9.03151 10.3636 8.77837 10.2591C8.52522 10.1546 8.29516 10.0012 8.10135 9.80773C7.90754 9.61423 7.75379 9.38442 7.64888 9.13144C7.54398 8.87846 7.48998 8.60728 7.48998 8.33341C7.48998 7.18341 8.42331 6.25008 9.57665 6.25008C9.85044 6.24975 10.1216 6.3034 10.3747 6.40795C10.6277 6.5125 10.8577 6.6659 11.0514 6.85939C11.2451 7.05288 11.3988 7.28265 11.5037 7.53558C11.6085 7.7885 11.6625 8.05962 11.6625 8.33341Z" stroke="white" stroke-width="1.25" stroke-linecap="round" stroke-linejoin="round"/>
</svg>
