<svg width="20" height="20" viewBox="0 0 20 20" fill="none" xmlns="http://www.w3.org/2000/svg">
<path d="M7.19 10.5617H6.80833C5.57167 10.5617 4.95417 10.5617 4.69 10.1533C4.42667 9.74583 4.6775 9.17833 5.18 8.0425L6.69 4.6275C7.14667 3.595 7.375 3.07833 7.8175 2.78917C8.26 2.5 8.82167 2.5 9.94583 2.5H11.6875C13.0525 2.5 13.7358 2.5 13.9933 2.94583C14.2508 3.3925 13.9117 3.9875 13.235 5.18L12.3408 6.75167C12.0042 7.34417 11.8358 7.64 11.8383 7.88333C11.8408 8.19833 12.0092 8.48833 12.28 8.6475C12.4883 8.77 12.8275 8.77 13.5058 8.77C14.3642 8.77 14.7933 8.77 15.0167 8.91833C15.3075 9.11167 15.4592 9.45667 15.4058 9.8025C15.365 10.0692 15.0767 10.3883 14.4992 11.0267L9.88667 16.1267C8.98083 17.1292 8.52833 17.63 8.22333 17.4708C7.91917 17.3125 8.065 16.6517 8.35667 15.33L8.93 12.7417C9.1525 11.735 9.26333 11.2317 8.99667 10.8967C8.72833 10.5617 8.21583 10.5617 7.19 10.5617Z" stroke="white" stroke-width="1.25" stroke-linecap="round" stroke-linejoin="round"/>
</svg>
