<svg width="216" height="241" viewBox="0 0 216 241" fill="none" xmlns="http://www.w3.org/2000/svg">
<path d="M182.431 188.635L153.487 -53H133.29L104.357 188.546C104.321 188.737 104.28 189.278 104.28 189.327C104.28 196.326 122 202 143.389 202C164.777 202 182.49 196.326 182.49 189.327C182.49 189.252 182.453 188.768 182.431 188.635Z" fill="#245FFF"/>
<path d="M143.385 186.257C153.283 186.257 161.308 184.914 161.308 183.257C161.308 181.6 153.283 180.257 143.385 180.257C133.486 180.257 125.461 181.6 125.461 183.257C125.461 184.914 133.486 186.257 143.385 186.257Z" fill="black"/>
<path d="M43.845 186.257C53.7437 186.257 61.7681 184.914 61.7681 183.257C61.7681 181.6 53.7437 180.257 43.845 180.257C33.9463 180.257 25.9219 181.6 25.9219 183.257C25.9219 184.914 33.9463 186.257 43.845 186.257Z" fill="black"/>
<path d="M139.636 171.041H148.199C148.199 171.041 151.034 166.067 151.034 159.566C151.034 151.194 159.237 148.091 159.237 136.391C159.237 124.254 151.733 115.261 143.4 115.241C143.395 115.241 143.391 115.241 143.386 115.241C143.381 115.241 143.377 115.241 143.372 115.241C135.038 115.261 127.535 124.254 127.535 136.391C127.535 148.091 135.738 151.194 135.738 159.566C135.738 166.067 139.636 171.041 139.636 171.041Z" fill="#231F20"/>
<path d="M132.149 171.447C135.588 172.424 138.38 164.301 139.332 163.346C140.579 162.097 140.79 159.804 139.802 158.226C138.816 156.647 137.402 155.962 136.156 157.211C135.696 157.672 128.71 170.47 132.149 171.447Z" fill="#231F20"/>
<path d="M150.46 156.906C149.178 155.715 147.665 156.502 146.724 158.124C145.784 159.746 146.06 162.026 147.34 163.218C148.643 164.437 151.398 171.42 154.753 170.983C157.754 170.592 150.933 157.345 150.46 156.906Z" fill="#231F20"/>
<path d="M140.471 182.331C137.388 182.331 136.298 164.109 136.298 164.109C136.122 162.108 137.261 160.306 138.842 160.083C140.422 159.86 141.846 161.303 142.022 163.303C142.022 163.303 143.555 182.331 140.471 182.331Z" fill="#231F20"/>
<path d="M146.457 182.177C142.858 182.177 145.11 162.871 145.11 162.871C145.271 160.868 146.684 159.408 148.265 159.612C149.847 159.815 151.001 161.604 150.84 163.607C150.84 163.607 149.769 182.177 146.457 182.177Z" fill="#231F20"/>
<path d="M143.516 158.278H143.533H144.205L144.869 156.285L144.058 155.163H143.533H143.516H142.992L142.18 156.285L142.844 158.278H143.516Z" fill="#231F20"/>
<path d="M143.533 168.512L145.337 166.197L144.18 158.786H143.533H143.524H143.516H142.868L141.712 166.197L143.516 168.512V168.533L143.524 168.522L143.533 168.533V168.512Z" fill="#231F20"/>
<path d="M154.808 128.25C154.388 128.397 153.962 128.513 153.537 128.62C153.111 128.724 152.682 128.804 152.253 128.865C151.933 128.913 151.607 128.946 151.289 128.965C151.213 128.424 151.136 127.884 151.053 127.345L151.046 127.308C150.986 127.031 150.76 126.869 150.541 126.945L150.514 126.954C150.061 127.112 149.606 127.254 149.148 127.38C148.69 127.502 148.232 127.63 147.771 127.731C147.311 127.835 146.848 127.925 146.385 127.997C146.274 128.013 146.161 128.028 146.048 128.044L146.474 127.083C146.557 126.896 146.573 126.661 146.502 126.448C146.38 126.082 146.045 125.911 145.756 126.066L145.747 126.071C144.651 126.659 143.477 127.085 142.278 127.379C141.081 127.698 139.857 127.894 138.628 128.055C138.012 128.136 137.394 128.195 136.774 128.245C136.155 128.302 135.534 128.343 134.911 128.37C133.666 128.443 132.417 128.463 131.16 128.475C132.393 128.8 133.645 128.975 134.901 129.108C135.529 129.164 136.159 129.204 136.79 129.229C137.421 129.245 138.053 129.24 138.687 129.218C139.953 129.174 141.22 129.018 142.483 128.753C143.242 128.575 144.002 128.361 144.75 128.072L144.554 128.53L144.547 128.546C144.498 128.659 144.474 128.792 144.481 128.93C144.504 129.315 144.768 129.604 145.071 129.576C145.585 129.529 146.056 129.452 146.54 129.348C147.021 129.247 147.498 129.128 147.972 128.994C148.445 128.858 148.918 128.718 149.383 128.541C149.708 128.42 150.03 128.289 150.351 128.153C150.449 128.614 150.546 129.074 150.65 129.534L150.661 129.583C150.705 129.776 150.853 129.906 151.015 129.883C151.481 129.815 151.912 129.711 152.352 129.589C152.788 129.461 153.218 129.306 153.642 129.132C154.066 128.96 154.481 128.752 154.886 128.524C155.294 128.299 155.683 128.03 156.062 127.746C155.65 127.944 155.228 128.1 154.808 128.25Z" fill="#245FFF"/>
<path d="M149.438 138.865C149.438 140.016 150.175 140.948 151.085 140.948C151.994 140.948 152.731 140.016 152.731 138.865C152.731 137.714 151.994 136.781 151.085 136.781C150.175 136.781 149.438 137.714 149.438 138.865Z" fill="#245FFF"/>
<path d="M137.582 138.865C137.582 140.016 136.845 140.948 135.935 140.948C135.026 140.948 134.289 140.016 134.289 138.865C134.289 137.714 135.026 136.781 135.935 136.781C136.845 136.781 137.582 137.714 137.582 138.865Z" fill="#245FFF"/>
<path d="M146.208 146.447H140.937C140.691 146.447 140.492 146.195 140.492 145.884C140.492 145.574 140.691 145.322 140.937 145.322H146.208C146.454 145.322 146.653 145.574 146.653 145.884C146.653 146.195 146.454 146.447 146.208 146.447Z" fill="#245FFF"/>
<path d="M155.337 131.735C155.337 131.735 156.616 135.283 155.337 135.283C154.06 135.283 155.337 131.735 155.337 131.735Z" fill="#245FFF"/>
<path d="M40.0961 173.386H48.6589C48.6589 173.386 51.4939 168.412 51.4939 161.912C51.4939 153.54 59.6966 150.437 59.6966 138.737C59.6966 126.6 52.194 117.606 43.8607 117.587C43.8561 117.587 43.8514 117.587 43.8469 117.587C43.8415 117.587 43.8368 117.587 43.8323 117.587C35.4991 117.606 27.9963 126.6 27.9963 138.737C27.9963 150.437 36.1991 153.54 36.1991 161.912C36.1989 168.412 40.0961 173.386 40.0961 173.386Z" fill="white"/>
<path d="M29.0231 156.876C31.9092 154.314 36.934 160.48 38.1022 160.903C39.6308 161.457 40.5162 163.475 40.0782 165.41C39.6407 167.346 38.5402 168.661 37.0116 168.107C36.4479 167.903 26.137 159.438 29.0231 156.876Z" fill="white"/>
<path d="M50.9358 167.824C49.4128 168.402 48.1948 167.02 47.7378 165.092C47.2808 163.165 48.1429 161.134 49.6646 160.553C51.2154 159.956 55.6574 154.544 58.7038 156.378C61.4277 158.017 51.4976 167.61 50.9358 167.824Z" fill="white"/>
<path d="M40.75 184.666C37.6665 184.666 36.5763 166.444 36.5763 166.444C36.4011 164.443 37.5399 162.641 39.1206 162.418C40.7014 162.195 42.1248 163.638 42.3 165.638C42.3 165.638 43.833 184.666 40.75 184.666Z" fill="white"/>
<path d="M46.7354 184.523C43.1367 184.523 45.3884 165.216 45.3884 165.216C45.5494 163.213 46.9623 161.754 48.5443 161.958C50.1263 162.16 51.2789 163.949 51.1183 165.952C51.1183 165.952 50.0473 184.523 46.7354 184.523Z" fill="white"/>
<path d="M42.7823 118.655C42.7823 118.655 40.9688 118.205 40.2642 116.718C39.5403 115.189 41.8866 115.348 42.666 116.553C43.0084 117.082 43.1433 117.528 43.1433 117.528C43.1433 117.528 43.487 115.571 44.2815 115.288C45.0753 115.004 45.4995 116.016 45.0725 116.7C44.6449 117.384 44.6449 117.384 44.6449 117.384C44.6449 117.384 45.3318 116.55 46.3414 116.4C47.1613 116.278 47.8499 116.442 47.4395 117.209C47.1636 117.725 45.2362 118.789 45.2362 118.789L42.7823 118.655Z" fill="white"/>
<path d="M43.8362 160.614H43.853H44.5247L45.1895 158.621L44.3771 157.499H43.853H43.8362H43.3114L42.5001 158.621L43.1645 160.614H43.8362Z" fill="#231F20"/>
<path d="M43.8533 170.848L45.6569 168.533L44.5007 161.122H43.8533H43.8452H43.8365H43.1891L42.0324 168.533L43.8365 170.848V170.869L43.8452 170.858L43.8533 170.869V170.848Z" fill="#231F20"/>
<path d="M40.5903 147.557C41.527 148.329 42.6443 149.288 43.8455 149.288C45.0473 149.288 46.1639 148.329 47.1007 147.557H40.5903Z" fill="#231F20"/>
<path d="M49.7574 141.207C49.7574 142.358 50.4945 143.29 51.4036 143.29C52.3125 143.29 53.0497 142.358 53.0497 141.207C53.0497 140.056 52.3127 139.123 51.4036 139.123C50.4947 139.123 49.7574 140.056 49.7574 141.207Z" fill="#231F20"/>
<path d="M53.0265 138.418C52.452 138.342 51.9711 138.273 51.5082 138.342C51.2785 138.375 51.0551 138.439 50.8272 138.544C50.5963 138.645 50.3678 138.793 50.1016 138.953C50.2635 138.24 50.8278 137.695 51.4434 137.618C51.7489 137.574 52.0556 137.633 52.3286 137.77C52.6001 137.91 52.8512 138.114 53.0265 138.418Z" fill="#231F20"/>
<path d="M37.9042 141.207C37.9042 142.358 37.1672 143.29 36.2575 143.29C35.3486 143.29 34.6113 142.358 34.6113 141.207C34.6113 140.056 35.3484 139.123 36.2575 139.123C37.1672 139.123 37.9042 140.056 37.9042 141.207Z" fill="#231F20"/>
<path d="M34.6331 138.418C34.8085 138.114 35.0595 137.91 35.3309 137.77C35.604 137.633 35.9107 137.574 36.2155 137.618C36.8317 137.695 37.396 138.24 37.5573 138.953C37.2911 138.793 37.0626 138.645 36.8323 138.544C36.6044 138.439 36.381 138.375 36.1513 138.342C35.6886 138.273 35.2076 138.342 34.6331 138.418Z" fill="#231F20"/>
<path d="M36.4689 147.835C33.5139 147.835 31.1098 144.791 31.1098 141.051C31.1098 137.311 33.5139 134.268 36.4689 134.268C39.4233 134.268 41.8275 137.311 41.8275 141.051C41.8275 144.791 39.4233 147.835 36.4689 147.835ZM36.4689 135.725C34.1487 135.725 32.2618 138.115 32.2618 141.051C32.2618 143.988 34.1487 146.377 36.4689 146.377C38.7886 146.377 40.6761 143.988 40.6761 141.051C40.6761 138.115 38.7886 135.725 36.4689 135.725Z" fill="#231F20"/>
<path d="M51.2198 147.835C48.2654 147.835 45.8613 144.791 45.8613 141.051C45.8613 137.311 48.2654 134.268 51.2198 134.268C54.1748 134.268 56.579 137.311 56.579 141.051C56.579 144.791 54.1748 147.835 51.2198 147.835ZM51.2198 135.725C48.9002 135.725 47.0133 138.115 47.0133 141.051C47.0133 143.988 48.9002 146.377 51.2198 146.377C53.5401 146.377 55.427 143.988 55.427 141.051C55.427 138.115 53.5401 135.725 51.2198 135.725Z" fill="#231F20"/>
<path d="M41.6567 140.563L40.9622 139.4C41.8285 138.572 42.8612 138.135 43.949 138.135C45.0294 138.135 46.0569 138.567 46.919 139.385L46.2288 140.552C45.5668 139.924 44.7787 139.592 43.949 139.592C43.1136 139.592 42.3208 139.928 41.6567 140.563Z" fill="#231F20"/>
<path d="M55.0432 130.602C54.6224 130.749 54.1962 130.865 53.7715 130.972C53.3449 131.076 52.9164 131.156 52.4874 131.217C52.1668 131.265 51.8416 131.298 51.5234 131.317C51.4478 130.776 51.3703 130.236 51.287 129.697L51.2801 129.66C51.2202 129.383 50.9943 129.221 50.7759 129.297L50.748 129.306C50.2955 129.464 49.8403 129.606 49.3825 129.732C48.9239 129.854 48.4667 129.982 48.0053 130.083C47.5448 130.187 47.0826 130.277 46.6197 130.349C46.5085 130.365 46.3951 130.38 46.2829 130.396L46.7091 129.435C46.7909 129.248 46.8083 129.013 46.737 128.8C46.6143 128.434 46.28 128.263 45.9902 128.418L45.9814 128.423C44.885 129.011 43.7121 129.437 42.5127 129.731C41.3152 130.05 40.0917 130.246 38.8617 130.407C38.2465 130.488 37.6285 130.547 37.0089 130.597C36.389 130.654 35.7684 130.695 35.1457 130.722C33.8997 130.795 32.6511 130.815 31.3944 130.827C32.6268 131.152 33.8797 131.327 35.1352 131.46C35.7637 131.516 36.3935 131.556 37.0249 131.581C37.6559 131.597 38.2877 131.592 38.9209 131.57C40.1869 131.526 41.4549 131.37 42.7175 131.105C43.4759 130.927 44.2368 130.713 44.9848 130.424L44.788 130.882L44.7811 130.898C44.7326 131.011 44.7079 131.144 44.716 131.282C44.7379 131.667 45.0021 131.956 45.3061 131.928C45.8188 131.881 46.29 131.804 46.7745 131.7C47.2548 131.599 47.732 131.48 48.206 131.346C48.6792 131.21 49.1518 131.07 49.6167 130.893C49.9418 130.772 50.2647 130.641 50.5857 130.505C50.6828 130.966 50.78 131.426 50.8839 131.886L50.8955 131.935C50.9388 132.128 51.0869 132.258 51.2489 132.235C51.7148 132.167 52.1457 132.063 52.5863 131.941C53.0218 131.813 53.4524 131.658 53.8758 131.484C54.3004 131.312 54.7148 131.104 55.1207 130.876C55.5273 130.651 55.9172 130.382 56.2964 130.098C55.8846 130.296 55.4625 130.452 55.0432 130.602Z" fill="#231F20"/>
<path d="M196.71 186.257C206.608 186.257 214.633 184.914 214.633 183.257C214.633 181.6 206.608 180.257 196.71 180.257C186.811 180.257 178.786 181.6 178.786 183.257C178.786 184.914 186.811 186.257 196.71 186.257Z" fill="black"/>
<path d="M192.96 173.386H201.523C201.523 173.386 204.358 168.412 204.358 161.912C204.358 153.54 212.56 150.437 212.56 138.737C212.56 126.6 205.058 117.606 196.724 117.587C196.72 117.587 196.715 117.587 196.711 117.587C196.705 117.587 196.701 117.587 196.696 117.587C188.363 117.606 180.86 126.6 180.86 138.737C180.86 150.437 189.063 153.54 189.063 161.912C189.063 168.412 192.96 173.386 192.96 173.386Z" fill="white"/>
<path d="M181.889 156.876C184.775 154.314 189.8 160.48 190.968 160.903C192.497 161.457 193.382 163.475 192.944 165.41C192.507 167.346 191.406 168.661 189.877 168.107C189.314 167.903 179.003 159.438 181.889 156.876Z" fill="white"/>
<path d="M203.802 167.824C202.279 168.402 201.061 167.02 200.604 165.092C200.147 163.165 201.009 161.134 202.53 160.553C204.081 159.956 208.523 154.544 211.57 156.378C214.294 158.017 204.363 167.61 203.802 167.824Z" fill="white"/>
<path d="M193.614 184.666C190.53 184.666 189.44 166.444 189.44 166.444C189.265 164.443 190.404 162.641 191.984 162.418C193.565 162.195 194.989 163.638 195.164 165.638C195.164 165.638 196.697 184.666 193.614 184.666Z" fill="white"/>
<path d="M199.601 184.523C196.003 184.523 198.254 165.216 198.254 165.216C198.415 163.213 199.828 161.754 201.41 161.958C202.992 162.16 204.145 163.949 203.984 165.952C203.984 165.952 202.913 184.523 199.601 184.523Z" fill="white"/>
<path d="M195.648 118.655C195.648 118.655 193.835 118.205 193.13 116.718C192.406 115.189 194.752 115.348 195.532 116.553C195.874 117.082 196.009 117.528 196.009 117.528C196.009 117.528 196.353 115.571 197.147 115.288C197.941 115.004 198.365 116.016 197.938 116.7C197.511 117.384 197.511 117.384 197.511 117.384C197.511 117.384 198.198 116.55 199.207 116.4C200.027 116.278 200.716 116.442 200.305 117.209C200.03 117.725 198.102 118.789 198.102 118.789L195.648 118.655Z" fill="white"/>
<path d="M196.703 160.614H196.719H197.391L198.056 158.621L197.244 157.499H196.719H196.703H196.178L195.366 158.621L196.031 160.614H196.703Z" fill="#231F20"/>
<path d="M196.72 170.848L198.523 168.533L197.367 161.122H196.72H196.712H196.703H196.056L194.899 168.533L196.703 170.848V170.869L196.712 170.858L196.72 170.869V170.848Z" fill="#231F20"/>
<path d="M193.454 147.557C194.391 148.329 195.508 149.288 196.71 149.288C197.911 149.288 199.028 148.329 199.965 147.557H193.454Z" fill="#231F20"/>
<path d="M202.624 141.207C202.624 142.358 203.361 143.29 204.27 143.29C205.179 143.29 205.916 142.358 205.916 141.207C205.916 140.056 205.179 139.123 204.27 139.123C203.361 139.123 202.624 140.056 202.624 141.207Z" fill="#231F20"/>
<path d="M205.893 138.418C205.319 138.342 204.838 138.273 204.375 138.342C204.145 138.375 203.922 138.439 203.694 138.544C203.463 138.645 203.234 138.793 202.968 138.953C203.13 138.24 203.694 137.695 204.31 137.618C204.615 137.574 204.922 137.633 205.195 137.77C205.467 137.91 205.718 138.114 205.893 138.418Z" fill="#231F20"/>
<path d="M190.769 141.207C190.769 142.358 190.031 143.29 189.122 143.29C188.213 143.29 187.476 142.358 187.476 141.207C187.476 140.056 188.213 139.123 189.122 139.123C190.031 139.123 190.769 140.056 190.769 141.207Z" fill="#231F20"/>
<path d="M187.498 138.418C187.673 138.114 187.924 137.91 188.195 137.77C188.469 137.633 188.775 137.574 189.08 137.618C189.696 137.695 190.261 138.24 190.422 138.953C190.156 138.793 189.927 138.645 189.697 138.544C189.469 138.439 189.246 138.375 189.016 138.342C188.553 138.273 188.072 138.342 187.498 138.418Z" fill="#231F20"/>
<path d="M189.335 147.835C186.38 147.835 183.976 144.791 183.976 141.051C183.976 137.311 186.38 134.268 189.335 134.268C192.29 134.268 194.694 137.311 194.694 141.051C194.694 144.791 192.29 147.835 189.335 147.835ZM189.335 135.725C187.015 135.725 185.128 138.115 185.128 141.051C185.128 143.988 187.015 146.377 189.335 146.377C191.655 146.377 193.543 143.988 193.543 141.051C193.543 138.115 191.655 135.725 189.335 135.725Z" fill="#231F20"/>
<path d="M204.084 147.835C201.13 147.835 198.726 144.791 198.726 141.051C198.726 137.311 201.13 134.268 204.084 134.268C207.039 134.268 209.443 137.311 209.443 141.051C209.443 144.791 207.039 147.835 204.084 147.835ZM204.084 135.725C201.764 135.725 199.878 138.115 199.878 141.051C199.878 143.988 201.764 146.377 204.084 146.377C206.404 146.377 208.291 143.988 208.291 141.051C208.291 138.115 206.404 135.725 204.084 135.725Z" fill="#231F20"/>
<path d="M194.523 140.563L193.829 139.4C194.695 138.572 195.728 138.135 196.815 138.135C197.896 138.135 198.923 138.567 199.785 139.385L199.095 140.552C198.433 139.924 197.645 139.592 196.815 139.592C195.98 139.592 195.187 139.928 194.523 140.563Z" fill="#231F20"/>
<path d="M207.907 130.602C207.487 130.749 207.06 130.865 206.636 130.972C206.209 131.076 205.781 131.156 205.352 131.217C205.031 131.265 204.706 131.298 204.388 131.317C204.312 130.776 204.234 130.236 204.151 129.697L204.144 129.66C204.084 129.383 203.858 129.221 203.64 129.297L203.612 129.306C203.16 129.464 202.704 129.606 202.247 129.732C201.788 129.854 201.331 129.982 200.869 130.083C200.409 130.187 199.947 130.277 199.484 130.349C199.373 130.365 199.259 130.38 199.147 130.396L199.573 129.435C199.655 129.248 199.672 129.013 199.601 128.8C199.478 128.434 199.144 128.263 198.854 128.418L198.846 128.423C197.749 129.011 196.576 129.437 195.377 129.731C194.179 130.05 192.956 130.246 191.726 130.407C191.111 130.488 190.493 130.547 189.873 130.597C189.253 130.654 188.633 130.695 188.01 130.722C186.764 130.795 185.515 130.815 184.259 130.827C185.491 131.152 186.744 131.327 187.999 131.46C188.628 131.516 189.258 131.556 189.889 131.581C190.52 131.597 191.152 131.592 191.785 131.57C193.051 131.526 194.319 131.37 195.582 131.105C196.34 130.927 197.101 130.713 197.849 130.424L197.652 130.882L197.645 130.898C197.597 131.011 197.572 131.144 197.58 131.282C197.602 131.667 197.866 131.956 198.17 131.928C198.683 131.881 199.154 131.804 199.639 131.7C200.119 131.599 200.596 131.48 201.07 131.346C201.543 131.21 202.016 131.07 202.481 130.893C202.806 130.772 203.129 130.641 203.45 130.505C203.547 130.966 203.644 131.426 203.748 131.886L203.76 131.935C203.803 132.128 203.951 132.258 204.113 132.235C204.579 132.167 205.01 132.063 205.45 131.941C205.886 131.813 206.317 131.658 206.74 131.484C207.165 131.312 207.579 131.104 207.985 130.876C208.391 130.651 208.781 130.382 209.161 130.098C208.749 130.296 208.327 130.452 207.907 130.602Z" fill="#231F20"/>
<path d="M90.0596 186.257C99.9582 186.257 107.983 184.914 107.983 183.257C107.983 181.6 99.9582 180.257 90.0596 180.257C80.1609 180.257 72.1364 181.6 72.1364 183.257C72.1364 184.914 80.1609 186.257 90.0596 186.257Z" fill="black"/>
<path d="M86.3099 173.386H94.8727C94.8727 173.386 97.7076 168.412 97.7076 161.912C97.7076 153.54 105.91 150.437 105.91 138.737C105.91 126.6 98.4078 117.606 90.0745 117.587C90.0699 117.587 90.0652 117.587 90.0606 117.587C90.0553 117.587 90.0506 117.587 90.046 117.587C81.7129 117.606 74.2101 126.6 74.2101 138.737C74.2101 150.437 82.4129 153.54 82.4129 161.912C82.4127 168.412 86.3099 173.386 86.3099 173.386Z" fill="white"/>
<path d="M75.2368 156.876C78.1229 154.314 83.1477 160.48 84.3159 160.903C85.8446 161.457 86.73 163.475 86.2919 165.41C85.8544 167.346 84.754 168.661 83.2253 168.107C82.6617 167.903 72.3508 159.438 75.2368 156.876Z" fill="white"/>
<path d="M97.1495 167.824C95.6266 168.402 94.4086 167.02 93.9516 165.092C93.4945 163.165 94.3566 161.134 95.8784 160.553C97.4291 159.956 101.871 154.544 104.918 156.378C107.641 158.017 97.7114 167.61 97.1495 167.824Z" fill="white"/>
<path d="M86.9638 184.666C83.8802 184.666 82.79 166.444 82.79 166.444C82.6148 164.443 83.7536 162.641 85.3344 162.418C86.9152 162.195 88.3386 163.638 88.5137 165.638C88.5137 165.638 90.0467 184.666 86.9638 184.666Z" fill="white"/>
<path d="M92.9491 184.523C89.3505 184.523 91.6022 165.216 91.6022 165.216C91.7631 163.213 93.176 161.754 94.758 161.958C96.34 162.16 97.4926 163.949 97.332 165.952C97.332 165.952 96.261 184.523 92.9491 184.523Z" fill="white"/>
<path d="M88.996 118.655C88.996 118.655 87.1826 118.205 86.4779 116.718C85.7541 115.189 88.1004 115.348 88.8797 116.553C89.2222 117.082 89.3571 117.528 89.3571 117.528C89.3571 117.528 89.7007 115.571 90.4952 115.288C91.289 115.004 91.7132 116.016 91.2862 116.7C90.8586 117.384 90.8587 117.384 90.8587 117.384C90.8587 117.384 91.5456 116.55 92.5552 116.4C93.375 116.278 94.0637 116.442 93.6533 117.209C93.3774 117.725 91.45 118.789 91.45 118.789L88.996 118.655Z" fill="white"/>
<path d="M90.052 160.614H90.0688H90.7405L91.4053 158.621L90.593 157.499H90.0688H90.052H89.5272L88.7159 158.621L89.3803 160.614H90.052Z" fill="#231F20"/>
<path d="M90.0669 170.848L91.8705 168.533L90.7143 161.122H90.0669H90.0588H90.0501H89.4027L88.246 168.533L90.0501 170.848V170.869L90.0588 170.858L90.0669 170.869V170.848Z" fill="#231F20"/>
<path d="M86.8044 147.557C87.7412 148.329 88.8584 149.288 90.0596 149.288C91.2614 149.288 92.3781 148.329 93.3148 147.557H86.8044Z" fill="#231F20"/>
<path d="M95.9717 141.207C95.9717 142.358 96.7088 143.29 97.6178 143.29C98.5267 143.29 99.264 142.358 99.264 141.207C99.264 140.056 98.5269 139.123 97.6178 139.123C96.709 139.123 95.9717 140.056 95.9717 141.207Z" fill="#231F20"/>
<path d="M99.2431 138.418C98.6685 138.342 98.1876 138.273 97.7247 138.342C97.495 138.375 97.2716 138.439 97.0437 138.544C96.8128 138.645 96.5843 138.793 96.3181 138.953C96.48 138.24 97.0443 137.695 97.6599 137.618C97.9654 137.574 98.2721 137.633 98.5451 137.77C98.8167 137.91 99.0677 138.114 99.2431 138.418Z" fill="#231F20"/>
<path d="M84.1185 141.207C84.1185 142.358 83.3814 143.29 82.4718 143.29C81.5629 143.29 80.8256 142.358 80.8256 141.207C80.8256 140.056 81.5627 139.123 82.4718 139.123C83.3814 139.123 84.1185 140.056 84.1185 141.207Z" fill="#231F20"/>
<path d="M80.8477 138.418C81.0231 138.114 81.2741 137.91 81.5455 137.77C81.8186 137.633 82.1253 137.574 82.4301 137.618C83.0463 137.695 83.6105 138.24 83.7719 138.953C83.5056 138.793 83.2771 138.645 83.0469 138.544C82.8189 138.439 82.5956 138.375 82.3659 138.342C81.9031 138.273 81.4222 138.342 80.8477 138.418Z" fill="#231F20"/>
<path d="M82.6853 147.835C79.7303 147.835 77.3262 144.791 77.3262 141.051C77.3262 137.311 79.7303 134.268 82.6853 134.268C85.6397 134.268 88.0439 137.311 88.0439 141.051C88.0439 144.791 85.6397 147.835 82.6853 147.835ZM82.6853 135.725C80.3651 135.725 78.4782 138.115 78.4782 141.051C78.4782 143.988 80.3651 146.377 82.6853 146.377C85.005 146.377 86.8925 143.988 86.8925 141.051C86.8925 138.115 85.005 135.725 82.6853 135.725Z" fill="#231F20"/>
<path d="M97.4341 147.835C94.4797 147.835 92.0755 144.791 92.0755 141.051C92.0755 137.311 94.4797 134.268 97.4341 134.268C100.389 134.268 102.793 137.311 102.793 141.051C102.793 144.791 100.389 147.835 97.4341 147.835ZM97.4341 135.725C95.1145 135.725 93.2276 138.115 93.2276 141.051C93.2276 143.988 95.1145 146.377 97.4341 146.377C99.7543 146.377 101.641 143.988 101.641 141.051C101.641 138.115 99.7543 135.725 97.4341 135.725Z" fill="#231F20"/>
<path d="M87.873 140.563L87.1786 139.4C88.0448 138.572 89.0776 138.135 90.1654 138.135C91.2457 138.135 92.2733 138.567 93.1354 139.385L92.4451 140.552C91.7831 139.924 90.9951 139.592 90.1654 139.592C89.33 139.592 88.5372 139.928 87.873 140.563Z" fill="#231F20"/>
<path d="M101.257 130.602C100.837 130.749 100.41 130.865 99.9857 130.972C99.5591 131.076 99.1305 131.156 98.7015 131.217C98.381 131.265 98.0557 131.298 97.7376 131.317C97.6619 130.776 97.5845 130.236 97.5011 129.697L97.4942 129.66C97.4344 129.383 97.2085 129.221 96.99 129.297L96.9622 129.306C96.5097 129.464 96.0545 129.606 95.5966 129.732C95.1381 129.854 94.6809 129.982 94.2195 130.083C93.7589 130.187 93.2968 130.277 92.8338 130.349C92.7226 130.365 92.6093 130.38 92.4971 130.396L92.9233 129.435C93.0051 129.248 93.0224 129.013 92.9511 128.8C92.8285 128.434 92.4941 128.263 92.2044 128.418L92.1955 128.423C91.0992 129.011 89.9262 129.437 88.7268 129.731C87.5294 130.05 86.3059 130.246 85.0758 130.407C84.4606 130.488 83.8426 130.547 83.2231 130.597C82.6031 130.654 81.9826 130.695 81.3599 130.722C80.1138 130.795 78.8652 130.815 77.6086 130.827C78.841 131.152 80.0939 131.327 81.3494 131.46C81.9778 131.516 82.6077 131.556 83.2391 131.581C83.8701 131.597 84.5019 131.592 85.1351 131.57C86.4011 131.526 87.669 131.37 88.9316 131.105C89.69 130.927 90.451 130.713 91.1989 130.424L91.0022 130.882L90.9953 130.898C90.9467 131.011 90.922 131.144 90.9301 131.282C90.952 131.667 91.2163 131.956 91.5203 131.928C92.033 131.881 92.5042 131.804 92.9887 131.7C93.469 131.599 93.9461 131.48 94.4201 131.346C94.8934 131.21 95.366 131.07 95.8309 130.893C96.156 130.772 96.4789 130.641 96.7998 130.505C96.897 130.966 96.9942 131.426 97.0981 131.886L97.1097 131.935C97.153 132.128 97.3011 132.258 97.463 132.235C97.9289 132.167 98.3599 132.063 98.8005 131.941C99.236 131.813 99.6665 131.658 100.09 131.484C100.515 131.312 100.929 131.104 101.335 130.876C101.741 130.651 102.131 130.382 102.511 130.098C102.099 130.296 101.677 130.452 101.257 130.602Z" fill="#231F20"/>
<g filter="url(#filter0_d_621_7516)">
<path d="M202.051 72.1479C202.702 69.7987 201.025 69.0534 200.374 71.4027C199.722 73.7514 200.033 76.0287 200.033 76.0287C200.033 76.0279 201.399 74.4972 202.051 72.1479Z" fill="white"/>
<path d="M206.744 76.0209C205.197 77.5572 204.491 79.6877 204.491 79.6877C204.491 79.6877 206.293 79.3279 207.841 77.7914C209.389 76.2557 208.292 74.4847 206.744 76.0209Z" fill="white"/>
<path d="M209.094 84.2486C207.519 84.5944 206.366 85.7756 206.366 85.7756C206.367 85.7756 207.766 86.3961 209.341 86.0509C210.916 85.7051 210.669 83.9034 209.094 84.2486Z" fill="white"/>
<path d="M194.324 76.0287C194.324 76.0287 194.634 73.7514 193.983 71.4027C193.331 69.0534 191.654 69.7987 192.305 72.1479C192.957 74.4972 194.323 76.0279 194.324 76.0287Z" fill="white"/>
<path d="M187.612 76.0209C186.064 74.4847 184.967 76.2557 186.515 77.7917C188.063 79.3282 189.865 79.6877 189.866 79.6879C189.866 79.6879 189.159 77.5569 187.612 76.0209Z" fill="white"/>
<path d="M185.015 86.0508C186.591 86.3963 187.99 85.7756 187.99 85.7756C187.99 85.7756 186.837 84.5943 185.262 84.2486C183.687 83.9036 183.44 85.7053 185.015 86.0508Z" fill="white"/>
<path d="M199.905 103.263H194.44C194.022 103.263 193.679 103.691 193.679 104.226C193.679 104.76 194.022 105.188 194.44 105.188H195.596C195.591 105.215 195.586 105.242 195.586 105.268C195.586 106.024 196.293 106.639 197.17 106.639C198.047 106.639 198.76 106.024 198.76 105.268C198.76 105.242 198.754 105.215 198.754 105.188H199.905C200.328 105.188 200.666 104.76 200.666 104.226C200.666 103.691 200.328 103.263 199.905 103.263Z" fill="white"/>
<path d="M197.173 79.6475C193.424 79.6475 190.375 83.7223 190.375 88.7313C190.375 90.8985 191.157 92.6655 191.848 94.2248C192.449 95.5815 193.017 96.863 193.017 98.2415C193.017 99.0698 193.547 99.7415 194.202 99.7415H200.258C200.912 99.7415 201.443 99.0698 201.443 98.2415C201.443 96.7845 201.997 95.4915 202.583 94.1223C203.238 92.5945 203.98 90.8625 203.98 88.731C203.98 83.7225 200.926 79.6475 197.173 79.6475ZM196.14 98.2418C196.016 96.7545 195.641 92.8735 194.942 90.533C195.559 90.805 196.343 91.0475 197.177 91.0475C198.012 91.0475 198.796 90.805 199.413 90.533C198.714 92.8735 198.339 96.7545 198.215 98.2418H196.14ZM200.258 98.2418H199.109C199.39 94.9653 200.049 90.4328 200.752 89.758C200.94 89.5775 200.984 89.243 200.852 88.9953C200.72 88.7475 200.458 88.6743 200.256 88.8268C200.241 88.8378 198.785 89.9225 197.177 89.9225C195.57 89.9225 194.114 88.8378 194.099 88.8268C193.897 88.6743 193.635 88.7475 193.503 88.9953C193.371 89.2428 193.415 89.5775 193.603 89.758C194.306 90.4325 194.965 94.9653 195.246 98.2418H194.201C194.201 94.699 191.559 92.281 191.559 88.7315C191.559 84.413 194.233 81.1478 197.173 81.1478C200.113 81.1478 202.795 84.413 202.795 88.7315C202.795 92.2618 200.258 94.5955 200.258 98.2418Z" fill="white"/>
<path d="M194.182 102.191H200.134C200.414 102.191 200.646 101.904 200.646 101.542C200.646 101.188 200.414 100.894 200.134 100.894H194.182C193.897 100.894 193.664 101.188 193.664 101.542C193.664 101.904 193.897 102.191 194.182 102.191Z" fill="white"/>
</g>
<g filter="url(#filter1_d_621_7516)">
<path d="M95.2613 72.1479C95.9122 69.7987 94.2355 69.0534 93.5839 71.4027C92.9324 73.7514 93.243 76.0287 93.243 76.0287C93.2436 76.0279 94.6097 74.4972 95.2613 72.1479Z" fill="white"/>
<path d="M99.9546 76.0209C98.4073 77.5572 97.7009 79.6877 97.7009 79.6877C97.7015 79.6877 99.5033 79.3279 101.052 77.7914C102.599 76.2557 101.502 74.4847 99.9546 76.0209Z" fill="white"/>
<path d="M102.305 84.2486C100.73 84.5944 99.5766 85.7756 99.5766 85.7756C99.5772 85.7756 100.976 86.3961 102.552 86.0509C104.127 85.7051 103.88 83.9034 102.305 84.2486Z" fill="white"/>
<path d="M87.534 76.0287C87.534 76.0287 87.8447 73.7514 87.1931 71.4027C86.5416 69.0534 84.8648 69.7987 85.5158 72.1479C86.1673 74.4972 87.5334 76.0279 87.534 76.0287Z" fill="white"/>
<path d="M80.8224 76.0209C79.2746 74.4847 78.1775 76.2557 79.7253 77.7917C81.2737 79.3282 83.0755 79.6877 83.0761 79.6879C83.0761 79.6879 82.3696 77.5569 80.8224 76.0209Z" fill="white"/>
<path d="M78.2275 86.0508C79.803 86.3963 81.202 85.7756 81.2026 85.7756C81.2026 85.7756 80.0494 84.5943 78.4746 84.2486C76.8995 83.9036 76.6524 85.7053 78.2275 86.0508Z" fill="white"/>
<path d="M93.1177 103.263H87.6523C87.2346 103.263 86.8915 103.691 86.8915 104.226C86.8915 104.76 87.2344 105.188 87.6523 105.188H88.8083C88.8035 105.215 88.798 105.242 88.798 105.268C88.798 106.024 89.5058 106.639 90.3821 106.639C91.259 106.639 91.972 106.024 91.972 105.268C91.972 105.242 91.9669 105.215 91.9669 105.188H93.1177C93.5404 105.188 93.8787 104.76 93.8787 104.226C93.8787 103.691 93.5404 103.263 93.1177 103.263Z" fill="white"/>
<path d="M90.3833 79.6475C86.6348 79.6475 83.585 83.7223 83.585 88.7313C83.585 90.8985 84.3677 92.6655 85.0583 94.2248C85.6591 95.5815 86.2269 96.863 86.2269 98.2415C86.2269 99.0698 86.7574 99.7415 87.4119 99.7415H93.4681C94.1226 99.7415 94.6531 99.0698 94.6531 98.2415C94.6531 96.7845 95.2072 95.4915 95.7938 94.1223C96.4487 92.5945 97.1907 90.8625 97.1907 88.731C97.1907 83.7225 94.1368 79.6475 90.3833 79.6475ZM89.3504 98.2418C89.2264 96.7545 88.8517 92.8735 88.1527 90.533C88.7693 90.805 89.5532 91.0475 90.3878 91.0475C91.2227 91.0475 92.0064 90.805 92.623 90.533C91.924 92.8735 91.5492 96.7545 91.4251 98.2418H89.3504ZM93.4681 98.2418H92.3194C92.6001 94.9653 93.2591 90.4328 93.9626 89.758C94.1504 89.5775 94.1945 89.243 94.0625 88.9953C93.9302 88.7475 93.6683 88.6743 93.4661 88.8268C93.4515 88.8378 91.9957 89.9225 90.3878 89.9225C88.78 89.9225 87.3242 88.8378 87.3096 88.8268C87.1078 88.6743 86.8451 88.7475 86.7132 88.9953C86.5812 89.2428 86.6253 89.5775 86.8131 89.758C87.5168 90.4325 88.1756 94.9653 88.4563 98.2418H87.4117C87.4117 94.699 84.7698 92.281 84.7698 88.7315C84.7698 84.413 87.4431 81.1478 90.3831 81.1478C93.3231 81.1478 96.0057 84.413 96.0057 88.7315C96.0057 92.2618 93.4681 94.5955 93.4681 98.2418Z" fill="white"/>
<path d="M87.3941 102.191H93.3464C93.626 102.191 93.8585 101.904 93.8585 101.542C93.8585 101.188 93.626 100.894 93.3464 100.894H87.3941C87.1093 100.894 86.8769 101.188 86.8769 101.542C86.8769 101.904 87.1093 102.191 87.3941 102.191Z" fill="white"/>
</g>
<g filter="url(#filter2_d_621_7516)">
<path d="M49.1032 72.1479C49.7541 69.7987 48.0774 69.0534 47.4258 71.4027C46.7743 73.7514 47.0849 76.0287 47.0849 76.0287C47.0855 76.0279 48.4516 74.4972 49.1032 72.1479Z" fill="white"/>
<path d="M53.7964 76.0209C52.2492 77.5572 51.5428 79.6877 51.5428 79.6877C51.5434 79.6877 53.3452 79.3279 54.8936 77.7914C56.4414 76.2557 55.3443 74.4847 53.7964 76.0209Z" fill="white"/>
<path d="M56.1465 84.2486C54.5715 84.5944 53.4185 85.7756 53.4185 85.7756C53.4191 85.7756 54.8181 86.3961 56.3936 86.0509C57.9687 85.7051 57.7216 83.9034 56.1465 84.2486Z" fill="white"/>
<path d="M41.3759 76.0287C41.3759 76.0287 41.6866 73.7514 41.035 71.4027C40.3835 69.0534 38.7067 69.7987 39.3577 72.1479C40.0092 74.4972 41.3753 76.0279 41.3759 76.0287Z" fill="white"/>
<path d="M34.6664 76.0209C33.1186 74.4847 32.0215 76.2557 33.5693 77.7917C35.1177 79.3282 36.9195 79.6877 36.9201 79.6879C36.9201 79.6879 36.2136 77.5569 34.6664 76.0209Z" fill="white"/>
<path d="M32.0697 86.0508C33.6451 86.3963 35.0442 85.7756 35.0448 85.7756C35.0448 85.7756 33.8916 84.5943 32.3167 84.2486C30.7417 83.9036 30.4946 85.7053 32.0697 86.0508Z" fill="white"/>
<path d="M46.9596 103.263H41.4942C41.0765 103.263 40.7334 103.691 40.7334 104.226C40.7334 104.76 41.0763 105.188 41.4942 105.188H42.6502C42.6454 105.215 42.6399 105.242 42.6399 105.268C42.6399 106.024 43.3477 106.639 44.224 106.639C45.1009 106.639 45.8139 106.024 45.8139 105.268C45.8139 105.242 45.8088 105.215 45.8088 105.188H46.9596C47.3823 105.188 47.7206 104.76 47.7206 104.226C47.7206 103.691 47.3823 103.263 46.9596 103.263Z" fill="white"/>
<path d="M44.2273 79.6475C40.4787 79.6475 37.4289 83.7223 37.4289 88.7313C37.4289 90.8985 38.2116 92.6655 38.9023 94.2248C39.5031 95.5815 40.0709 96.863 40.0709 98.2415C40.0709 99.0698 40.6014 99.7415 41.2559 99.7415H47.312C47.9666 99.7415 48.497 99.0698 48.497 98.2415C48.497 96.7845 49.0512 95.4915 49.6378 94.1223C50.2927 92.5945 51.0347 90.8625 51.0347 88.731C51.0347 83.7225 47.9808 79.6475 44.2273 79.6475ZM43.1944 98.2418C43.0703 96.7545 42.6957 92.8735 41.9967 90.533C42.6133 90.805 43.3972 91.0475 44.2318 91.0475C45.0667 91.0475 45.8503 90.805 46.4669 90.533C45.768 92.8735 45.3931 96.7545 45.2691 98.2418H43.1944ZM47.312 98.2418H46.1634C46.444 94.9653 47.1031 90.4328 47.8066 89.758C47.9944 89.5775 48.0384 89.243 47.9065 88.9953C47.7742 88.7475 47.5123 88.6743 47.3101 88.8268C47.2954 88.8378 45.8397 89.9225 44.2318 89.9225C42.624 89.9225 41.1682 88.8378 41.1536 88.8268C40.9517 88.6743 40.6891 88.7475 40.5571 88.9953C40.4252 89.2428 40.4693 89.5775 40.6571 89.758C41.3608 90.4325 42.0196 94.9653 42.3003 98.2418H41.2557C41.2557 94.699 38.6137 92.281 38.6137 88.7315C38.6137 84.413 41.2871 81.1478 44.2271 81.1478C47.1671 81.1478 49.8497 84.413 49.8497 88.7315C49.8497 92.2618 47.312 94.5955 47.312 98.2418Z" fill="white"/>
<path d="M41.236 102.191H47.1883C47.4679 102.191 47.7004 101.904 47.7004 101.542C47.7004 101.188 47.4679 100.894 47.1883 100.894H41.236C40.9512 100.894 40.7188 101.188 40.7188 101.542C40.7188 101.904 40.9512 102.191 41.236 102.191Z" fill="white"/>
</g>
<defs>
<filter id="filter0_d_621_7516" x="169.95" y="55.9698" width="54.456" height="64.6695" filterUnits="userSpaceOnUse" color-interpolation-filters="sRGB">
<feFlood flood-opacity="0" result="BackgroundImageFix"/>
<feColorMatrix in="SourceAlpha" type="matrix" values="0 0 0 0 0 0 0 0 0 0 0 0 0 0 0 0 0 0 127 0" result="hardAlpha"/>
<feOffset/>
<feGaussianBlur stdDeviation="7"/>
<feComposite in2="hardAlpha" operator="out"/>
<feColorMatrix type="matrix" values="0 0 0 0 0.141176 0 0 0 0 0.372549 0 0 0 0 1 0 0 0 1 0"/>
<feBlend mode="normal" in2="BackgroundImageFix" result="effect1_dropShadow_621_7516"/>
<feBlend mode="normal" in="SourceGraphic" in2="effect1_dropShadow_621_7516" result="shape"/>
</filter>
<filter id="filter1_d_621_7516" x="63.1625" y="55.9698" width="54.4542" height="64.6695" filterUnits="userSpaceOnUse" color-interpolation-filters="sRGB">
<feFlood flood-opacity="0" result="BackgroundImageFix"/>
<feColorMatrix in="SourceAlpha" type="matrix" values="0 0 0 0 0 0 0 0 0 0 0 0 0 0 0 0 0 0 127 0" result="hardAlpha"/>
<feOffset/>
<feGaussianBlur stdDeviation="7"/>
<feComposite in2="hardAlpha" operator="out"/>
<feColorMatrix type="matrix" values="0 0 0 0 0.141176 0 0 0 0 0.372549 0 0 0 0 1 0 0 0 1 0"/>
<feBlend mode="normal" in2="BackgroundImageFix" result="effect1_dropShadow_621_7516"/>
<feBlend mode="normal" in="SourceGraphic" in2="effect1_dropShadow_621_7516" result="shape"/>
</filter>
<filter id="filter2_d_621_7516" x="17.0047" y="55.9698" width="54.454" height="64.6695" filterUnits="userSpaceOnUse" color-interpolation-filters="sRGB">
<feFlood flood-opacity="0" result="BackgroundImageFix"/>
<feColorMatrix in="SourceAlpha" type="matrix" values="0 0 0 0 0 0 0 0 0 0 0 0 0 0 0 0 0 0 127 0" result="hardAlpha"/>
<feOffset/>
<feGaussianBlur stdDeviation="7"/>
<feComposite in2="hardAlpha" operator="out"/>
<feColorMatrix type="matrix" values="0 0 0 0 0.141176 0 0 0 0 0.372549 0 0 0 0 1 0 0 0 1 0"/>
<feBlend mode="normal" in2="BackgroundImageFix" result="effect1_dropShadow_621_7516"/>
<feBlend mode="normal" in="SourceGraphic" in2="effect1_dropShadow_621_7516" result="shape"/>
</filter>
</defs>
</svg>
