<svg width="117" height="208" viewBox="0 0 117 208" fill="none" xmlns="http://www.w3.org/2000/svg">
<path d="M72.2378 130.851V213.997H144.474L130.754 149.982C129.031 143.025 124.622 137.033 118.491 133.321L96.5746 120.047L72.2378 130.851Z" fill="#245FFF"/>
<path d="M-7.62939e-06 213.999L13.7222 149.982C15.4457 143.029 19.8546 137.036 25.9825 133.323L43.1882 122.904L47.8992 120.047L52.6057 122.136L65.1095 127.687V125.304H81.2861V128.377C84.7874 125.715 88.1495 121.852 89.8007 116.32C89.8007 116.32 94.2814 119.461 96.5602 122.48C96.5602 122.48 96.6731 136.761 81.191 148.02C81.191 148.02 82.8558 140.119 72.2386 134.844V213.999H-7.62939e-06Z" fill="#2054E1"/>
<path d="M52.8227 93.6094H91.6521V116.515C91.6521 116.515 86.4733 130.855 72.2374 130.855C58.0014 130.855 52.8227 116.515 52.8227 116.515V93.6094Z" fill="#FFD8B5"/>
<path opacity="0.3" d="M91.6521 103.076C85.0934 108.619 77.1119 114.17 72.1604 114.17C67.2474 114.17 59.3519 108.705 52.8222 103.205V93.6094H91.6516L91.6521 103.076Z" fill="#D49C79"/>
<path d="M104.417 62.1852C104.417 62.1852 106.874 53.2774 110.253 55.8372C113.632 58.397 107.335 72.4243 107.335 76.0076C107.335 79.5914 103.802 81.3317 102.574 78.8746L104.417 62.1852Z" fill="#F2C6A3"/>
<path d="M39.9048 62.1852C39.9048 62.1852 37.4472 53.2774 34.0684 55.8372C30.6897 58.397 36.9866 72.4243 36.9866 76.0076C36.9866 79.5914 40.5193 81.3317 41.7478 78.8746L39.9048 62.1852Z" fill="#F2C6A3"/>
<path d="M72.1589 9.58594C112.895 9.58594 105.75 59.439 105.75 59.439L102.756 85.0353C102.577 87.0038 101.739 88.8514 100.379 90.2859C94.6856 96.2923 79.8058 109.531 72.1584 109.531C64.511 109.531 49.6317 96.2923 43.9381 90.2859C42.5785 88.8514 41.7403 87.0038 41.5611 85.0353L38.567 59.439C38.568 59.439 31.4227 9.58594 72.1589 9.58594Z" fill="#FFD8B5"/>
<path d="M104.636 68.9677H100.628V48.5665C100.628 48.5665 92.4374 46.0067 90.0826 33.9251C90.0826 33.9251 78.615 50.819 43.4706 50.819V68.9677H39.6844L36.8406 51.4461C36.8406 51.4461 29.7743 8.33594 72.1607 8.33594C114.547 8.33594 107.662 50.3978 107.662 50.3978L104.636 68.9677Z" fill="#2B2B2B"/>
<path d="M99.6948 16.2921C106.233 17.7261 113.864 22.348 110.384 50.1917C110.384 50.1917 102.019 50.789 97.4377 44.814C92.8567 38.839 90.2671 30.6728 90.2671 30.6728C90.2671 30.6728 76.6573 50.1917 33.0708 51.1879C33.0708 51.1879 26.5309 6.89109e-08 69.9509 6.89109e-08C91.6515 -0.0010123 99.429 11.1528 99.6948 16.2921Z" fill="#2B2B2B"/>
<path d="M72.238 130.858C72.238 130.858 56.9695 127.805 52.8233 114.172C52.8233 114.172 48.4554 117.171 46.2378 120.053C46.2378 120.053 46.127 133.691 61.2067 144.447C61.2067 144.447 59.3526 135.822 72.238 130.858Z" fill="#E6E6E6"/>
<path d="M72.2378 130.858C72.2378 130.858 87.5064 127.805 91.6525 114.172C91.6525 114.172 96.0204 117.171 98.238 120.053C98.238 120.053 98.3488 133.691 83.2696 144.447C83.2696 144.447 85.1232 135.822 72.2378 130.858Z" fill="#F2F2F2"/>
<circle cx="0.225606" cy="0.225606" r="0.225606" transform="matrix(-1 0 0 1 113.312 25.8828)" fill="#2054E1"/>
<path d="M113.088 25.2195V7.01562" stroke="#2054E1" stroke-width="0.451213" stroke-linecap="round" stroke-linejoin="round"/>
<circle cx="0.225606" cy="0.225606" r="0.225606" transform="matrix(-1 0 0 1 113.312 6.34375)" fill="#2054E1"/>
<path d="M112.197 6.57031H93.9931" stroke="#2054E1" stroke-width="0.451213" stroke-linecap="round" stroke-linejoin="round"/>
<circle cx="0.225606" cy="0.225606" r="0.225606" transform="matrix(-1 0 0 1 93.7771 6.34375)" fill="#2054E1"/>
<path d="M110.747 4.49219H115.426V9.0681H110.747V4.49219Z" fill="#2054E1"/>
<circle cx="0.225606" cy="0.225606" r="0.225606" transform="matrix(-1 0 0 1 48.7068 6.47656)" fill="#2054E1"/>
<path d="M47.5935 6.70312H29.3891" stroke="#2054E1" stroke-width="0.451213" stroke-linecap="round" stroke-linejoin="round"/>
<circle cx="0.225606" cy="0.225606" r="0.225606" transform="matrix(-1 0 0 1 29.1696 6.47656)" fill="#2054E1"/>
<path d="M28.945 7.59375V25.7977" stroke="#2054E1" stroke-width="0.451213" stroke-linecap="round" stroke-linejoin="round"/>
<circle cx="0.225606" cy="0.225606" r="0.225606" transform="matrix(-1 0 0 1 29.1696 26.0156)" fill="#2054E1"/>
<path d="M26.8672 4.35938H31.4431V9.03804H26.8672V4.35938Z" fill="#2054E1"/>
<circle cx="0.225606" cy="0.225606" r="0.225606" transform="matrix(-1 0 0 1 29.4314 86.3984)" fill="#2054E1"/>
<path d="M29.2068 87.5156V105.72" stroke="#2054E1" stroke-width="0.451213" stroke-linecap="round" stroke-linejoin="round"/>
<circle cx="0.225606" cy="0.225606" r="0.225606" transform="matrix(-1 0 0 1 29.4314 105.938)" fill="#2054E1"/>
<path d="M30.0946 106.164H48.2986" stroke="#2054E1" stroke-width="0.451213" stroke-linecap="round" stroke-linejoin="round"/>
<circle cx="0.225606" cy="0.225606" r="0.225606" transform="matrix(-1 0 0 1 48.9685 105.938)" fill="#2054E1"/>
<path d="M26.8679 103.664H31.5466V108.24H26.8679V103.664Z" fill="#2054E1"/>
<circle cx="0.225606" cy="0.225606" r="0.225606" transform="matrix(-1 0 0 1 94.0368 105.805)" fill="#2054E1"/>
<path d="M94.6982 106.031H112.902" stroke="#2054E1" stroke-width="0.451213" stroke-linecap="round" stroke-linejoin="round"/>
<circle cx="0.225606" cy="0.225606" r="0.225606" transform="matrix(-1 0 0 1 113.572 105.805)" fill="#2054E1"/>
<path d="M113.347 105.141V86.9375" stroke="#2054E1" stroke-width="0.451213" stroke-linecap="round" stroke-linejoin="round"/>
<circle cx="0.225606" cy="0.225606" r="0.225606" transform="matrix(-1 0 0 1 113.572 86.2656)" fill="#2054E1"/>
<path d="M110.85 103.688H115.426V108.366H110.85V103.688Z" fill="#2054E1"/>
<path opacity="0.2" d="M63.7321 65.8854L57.5387 62.9766H51.7901L48.5577 64.9936L50.36 67.0982L58.3706 67.5289L63.7321 65.8854Z" fill="#00FFFF"/>
<path opacity="0.2" d="M78.9997 65.8854L85.1931 62.9766H90.9418L94.1742 64.9936L92.3718 67.0982L84.3613 67.5289L78.9997 65.8854Z" fill="#00FFFF"/>
<path opacity="0.2" d="M71.32 95.5969L63.2456 94.7276L60.6979 90.5171L67.4908 86.4922L71.32 90.5171V95.5969Z" fill="#00FFFF"/>
<path opacity="0.2" d="M71.9997 95.5969L80.0741 94.7276L82.6218 90.5171L75.8289 86.4922L71.9997 90.5171V95.5969Z" fill="#00FFFF"/>
<path d="M49.7833 64.6381L52.9186 62.3906H58.6668L64.863 65.6317L59.4878 67.463L51.5747 67.0134L49.7833 64.6381Z" stroke="#00FFFF" stroke-width="0.295156" stroke-miterlimit="10" stroke-linecap="round" stroke-linejoin="round"/>
<path d="M64.8639 65.63L67.5512 73.1756L68.3728 65.63L63.2208 58.9844L62.0272 61.2973L64.8639 65.63Z" stroke="#00FFFF" stroke-width="0.295156" stroke-miterlimit="10" stroke-linecap="round" stroke-linejoin="round"/>
<path d="M64.8635 65.626H68.3724L72.1794 64.9211L63.2205 58.9804L72.1794 58.5326L63.8932 51.7266L62.8626 55.5482L52.6204 56.6706L54.1881 52.8182L62.8626 55.5482L63.2205 58.9804L55.9552 59.6409L58.6673 62.3849L62.0269 61.2933" stroke="#00FFFF" stroke-width="0.295156" stroke-miterlimit="10" stroke-linecap="round" stroke-linejoin="round"/>
<path d="M47.3942 56.2898L37.4654 47.1726L49.7829 55.3269L49.335 41.5865L42.6164 34.5234" stroke="#00FFFF" stroke-width="0.295156" stroke-miterlimit="10" stroke-linecap="round" stroke-linejoin="round"/>
<path d="M49.3362 41.5837L54.1885 52.82L58.2946 35.6122L50.3065 24.0547L49.3362 41.5837Z" stroke="#00FFFF" stroke-width="0.295156" stroke-miterlimit="10" stroke-linecap="round" stroke-linejoin="round"/>
<path d="M58.2943 35.6119L72.1794 45.8853L63.8932 51.728L58.2943 35.6119ZM58.2943 35.6119L62.0269 19.9453L72.1794 33.1078V74.1364L67.5509 73.1731L68.3724 79.1445L72.1794 74.1364V81.7128L69.5665 80.6211H66.8042L64.3877 81.8437L50.6797 75.4205L41.2733 74.7784L45.4539 85.4368L48.9628 93.5911L55.98 101.103L64.8635 106.304L72.1794 107.267V95.5173L64.8635 106.304" stroke="#00FFFF" stroke-width="0.295156" stroke-miterlimit="10" stroke-linecap="round" stroke-linejoin="round"/>
<path d="M66.8039 80.6172L68.372 86.2032L69.5661 80.6172" stroke="#00FFFF" stroke-width="0.295156" stroke-miterlimit="10" stroke-linecap="round" stroke-linejoin="round"/>
<path d="M64.3884 81.8438L61.5796 90.3808L52.2481 85.1802L64.3884 81.8438Z" stroke="#00FFFF" stroke-width="0.295156" stroke-miterlimit="10" stroke-linecap="round" stroke-linejoin="round"/>
<path d="M50.6801 75.4219L52.2478 85.1816L45.4543 85.4382L50.6801 75.4219Z" stroke="#00FFFF" stroke-width="0.295156" stroke-miterlimit="10" stroke-linecap="round" stroke-linejoin="round"/>
<path d="M51.5748 67.0138L41.8702 63.5469L41.2729 74.7832L51.5748 67.0138ZM51.5748 67.0138L50.6794 75.4252L59.488 67.4634L64.8632 78.828L67.5505 73.1778L59.488 67.4634" stroke="#00FFFF" stroke-width="0.295156" stroke-miterlimit="10" stroke-linecap="round" stroke-linejoin="round"/>
<path d="M41.8697 63.5469L49.7829 64.6385" stroke="#00FFFF" stroke-width="0.295156" stroke-miterlimit="10" stroke-linecap="round" stroke-linejoin="round"/>
<path d="M52.9191 62.3854L55.9552 59.6414L52.6204 56.671L50.6797 60.6517L52.9191 62.3854ZM52.9191 62.3854L49.7838 64.6328L50.6797 60.6517L45.2301 59.3676L47.3951 56.2856L49.7838 55.3227L52.6204 56.671L45.2301 59.3676L41.8706 63.5412L37.4663 47.1684L42.6172 34.5193L50.3062 24.0534L62.0269 19.9444L72.1794 19.1094V33.1068L58.2943 35.6109L49.3358 41.5824L37.4663 47.1684" stroke="#00FFFF" stroke-width="0.295156" stroke-miterlimit="10" stroke-linecap="round" stroke-linejoin="round"/>
<path d="M64.8632 78.8203L66.894 80.9394L68.372 79.1416L69.5661 80.9394" stroke="#00FFFF" stroke-width="0.295156" stroke-miterlimit="10" stroke-linecap="round" stroke-linejoin="round"/>
<path d="M68.3724 86.2132L72.1794 81.7188V86.5344V90.3868L68.3724 86.2132ZM68.3724 86.2132L61.5789 90.3868H72.1794V95.5233L61.5789 90.3868L64.0794 94.7529L72.1794 95.5233L55.98 101.109L61.5789 90.3868L48.9628 93.5971L52.2474 85.1861" stroke="#00FFFF" stroke-width="0.295156" stroke-miterlimit="10" stroke-linecap="round" stroke-linejoin="round"/>
<path d="M64.0798 94.75L55.9803 101.106" stroke="#00FFFF" stroke-width="0.295156" stroke-miterlimit="10" stroke-linecap="round" stroke-linejoin="round"/>
<path d="M64.8454 78.8203L64.3119 81.8408" stroke="#00FFFF" stroke-width="0.295156" stroke-miterlimit="10" stroke-linecap="round" stroke-linejoin="round"/>
<path d="M73.2263 107.269C73.2263 107.766 72.7571 108.17 72.1785 108.17C71.5999 108.17 71.1307 107.766 71.1307 107.269C71.1307 106.771 71.5999 106.367 72.1785 106.367C72.7571 106.368 73.2263 106.771 73.2263 107.269Z" fill="white"/>
<path d="M73.2263 95.6513C73.2263 96.1493 72.7571 96.5527 72.1785 96.5527C71.5999 96.5527 71.1307 96.1493 71.1307 95.6513C71.1307 95.1534 71.5999 94.75 72.1785 94.75C72.7571 94.75 73.2263 95.1534 73.2263 95.6513Z" fill="white"/>
<path d="M73.2263 90.3857C73.2263 90.8836 72.7571 91.2871 72.1785 91.2871C71.5999 91.2871 71.1307 90.8836 71.1307 90.3857C71.1307 89.8878 71.5999 89.4844 72.1785 89.4844C72.7571 89.4844 73.2263 89.8878 73.2263 90.3857Z" fill="white"/>
<path d="M73.2263 81.7139C73.2263 82.2118 72.7571 82.6152 72.1785 82.6152C71.5999 82.6152 71.1307 82.2118 71.1307 81.7139C71.1307 81.2164 71.5999 80.8125 72.1785 80.8125C72.7571 80.8125 73.2263 81.2164 73.2263 81.7139Z" fill="white"/>
<path d="M73.2263 74.0732C73.2263 74.5711 72.7571 74.9746 72.1785 74.9746C71.5999 74.9746 71.1307 74.5711 71.1307 74.0732C71.1307 73.5753 71.5999 73.1719 72.1785 73.1719C72.7571 73.1719 73.2263 73.5753 73.2263 74.0732Z" fill="white"/>
<path d="M73.2263 64.9248C73.2263 65.4227 72.7571 65.8261 72.1785 65.8261C71.5999 65.8261 71.1307 65.4227 71.1307 64.9248C71.1307 64.4269 71.5999 64.0234 72.1785 64.0234C72.7571 64.0234 73.2263 64.4273 73.2263 64.9248Z" fill="white"/>
<path d="M73.2263 58.4404C73.2263 58.9379 72.7571 59.3418 72.1785 59.3418C71.5999 59.3418 71.1307 58.9383 71.1307 58.4404C71.1307 57.9425 71.5999 57.5391 72.1785 57.5391C72.7571 57.5391 73.2263 57.9425 73.2263 58.4404Z" fill="white"/>
<path d="M73.2263 45.9014C73.2263 46.3993 72.7571 46.8027 72.1785 46.8027C71.5999 46.8027 71.1307 46.3993 71.1307 45.9014C71.1307 45.4034 71.5999 45 72.1785 45C72.7571 45.0004 73.2263 45.4039 73.2263 45.9014Z" fill="white"/>
<path d="M73.2263 33.0967C73.2263 33.5946 72.7571 33.998 72.1785 33.998C71.5999 33.998 71.1307 33.5946 71.1307 33.0967C71.1307 32.5987 71.5999 32.1953 72.1785 32.1953C72.7571 32.1958 73.2263 32.5992 73.2263 33.0967Z" fill="white"/>
<path d="M73.2263 19.1123C73.2263 19.6102 72.7571 20.0136 72.1785 20.0136C71.5999 20.0136 71.1307 19.6102 71.1307 19.1123C71.1307 18.6144 71.5999 18.2109 72.1785 18.2109C72.7571 18.2114 73.2263 18.6148 73.2263 19.1123Z" fill="white"/>
<path d="M63.1286 20.0107C63.1286 20.5086 62.6594 20.9121 62.0808 20.9121C61.5023 20.9121 61.033 20.5086 61.033 20.0107C61.033 19.5128 61.5023 19.1094 62.0808 19.1094C62.6594 19.1094 63.1286 19.5132 63.1286 20.0107Z" fill="white"/>
<path d="M51.4314 24.0576C51.4314 24.5551 50.9621 24.9589 50.3836 24.9589C49.805 24.9589 49.3358 24.5555 49.3358 24.0576C49.3358 23.5597 49.805 23.1562 50.3836 23.1562C50.9621 23.1567 51.4314 23.5601 51.4314 24.0576Z" fill="white"/>
<path d="M50.3845 41.5498C50.3845 42.0477 49.9153 42.4511 49.3367 42.4511C48.7581 42.4511 48.2889 42.0477 48.2889 41.5498C48.2889 41.0519 48.7581 40.6484 49.3367 40.6484C49.9153 40.6489 50.3845 41.0523 50.3845 41.5498Z" fill="white"/>
<path d="M43.6267 34.5185C43.6267 35.0165 43.1574 35.4199 42.5789 35.4199C42.0003 35.4199 41.5311 35.0165 41.5311 34.5185C41.5311 34.0206 42.0003 33.6172 42.5789 33.6172C43.1574 33.6176 43.6267 34.0211 43.6267 34.5185Z" fill="white"/>
<path d="M38.5134 47.1982C38.5134 47.6961 38.0442 48.0996 37.4656 48.0996C36.887 48.0996 36.4178 47.6961 36.4178 47.1982C36.4178 46.7007 36.887 46.2969 37.4656 46.2969C38.0442 46.2969 38.5134 46.7003 38.5134 47.1982Z" fill="white"/>
<path d="M65.0388 51.7295C65.0388 52.2274 64.5696 52.6308 63.991 52.6308C63.4124 52.6308 62.9432 52.2274 62.9432 51.7295C62.9432 51.2316 63.4124 50.8281 63.991 50.8281C64.5696 50.8281 65.0388 51.2316 65.0388 51.7295Z" fill="white"/>
<path d="M55.2536 52.8232C55.2536 53.3211 54.7844 53.7246 54.2058 53.7246C53.6273 53.7246 53.158 53.3211 53.158 52.8232C53.158 52.3253 53.6273 51.9219 54.2058 51.9219C54.7849 51.9219 55.2536 52.3253 55.2536 52.8232Z" fill="white"/>
<path d="M50.8318 55.3857C50.8318 55.8836 50.3625 56.2871 49.784 56.2871C49.2054 56.2871 48.7362 55.8836 48.7362 55.3857C48.7362 54.8878 49.2054 54.4844 49.784 54.4844C50.3625 54.4844 50.8318 54.8878 50.8318 55.3857Z" fill="white"/>
<path d="M48.4196 56.2842C48.4196 56.7821 47.9504 57.1855 47.3718 57.1855C46.7933 57.1855 46.324 56.7821 46.324 56.2842C46.324 55.7862 46.7933 55.3828 47.3718 55.3828C47.9504 55.3833 48.4196 55.7867 48.4196 56.2842Z" fill="white"/>
<path d="M62.7488 56.4355C62.1701 56.4355 61.701 56.032 61.701 55.5342C61.701 55.0364 62.1701 54.6328 62.7488 54.6328C63.3275 54.6328 63.7966 55.0364 63.7966 55.5342C63.7966 56.032 63.3275 56.4355 62.7488 56.4355Z" fill="white"/>
<path d="M64.4958 58.9873C64.4958 59.4848 64.0266 59.8886 63.448 59.8886C62.8695 59.8886 62.4002 59.4852 62.4002 58.9873C62.4002 58.4894 62.8695 58.0859 63.448 58.0859C64.0266 58.0864 64.4958 58.4898 64.4958 58.9873Z" fill="white"/>
<path d="M52.6199 57.5371C52.0412 57.5371 51.5721 57.1335 51.5721 56.6357C51.5721 56.1379 52.0412 55.7344 52.6199 55.7344C53.1986 55.7344 53.6677 56.1379 53.6677 56.6357C53.6677 57.1335 53.1986 57.5371 52.6199 57.5371Z" fill="white"/>
<path d="M46.5759 59.3388C46.5759 59.8368 46.1067 60.2402 45.5281 60.2402C44.9495 60.2402 44.4803 59.8368 44.4803 59.3388C44.4803 58.8409 44.9495 58.4375 45.5281 58.4375C46.1067 58.4375 46.5759 58.8409 46.5759 59.3388Z" fill="white"/>
<path d="M42.9196 63.542C42.9196 64.0399 42.4504 64.4433 41.8718 64.4433C41.2933 64.4433 40.824 64.0399 40.824 63.542C40.824 63.0441 41.2933 62.6406 41.8718 62.6406C42.4504 62.6406 42.9196 63.0441 42.9196 63.542Z" fill="white"/>
<path d="M51.6911 60.6592C51.6911 61.1571 51.2219 61.5605 50.6433 61.5605C50.0648 61.5605 49.5955 61.1571 49.5955 60.6592C49.5955 60.1612 50.0648 59.7578 50.6433 59.7578C51.2219 59.7583 51.6911 60.1617 51.6911 60.6592Z" fill="white"/>
<path d="M50.8318 64.6357C50.8318 65.1332 50.3625 65.5371 49.784 65.5371C49.2054 65.5371 48.7362 65.1336 48.7362 64.6357C48.7362 64.1378 49.2054 63.7344 49.784 63.7344C50.3625 63.7344 50.8318 64.1378 50.8318 64.6357Z" fill="white"/>
<path d="M52.6208 66.9717C52.6208 67.4696 52.1516 67.873 51.573 67.873C50.9944 67.873 50.5252 67.4696 50.5252 66.9717C50.5252 66.4737 50.9944 66.0703 51.573 66.0703C52.1516 66.0703 52.6208 66.4742 52.6208 66.9717Z" fill="white"/>
<path d="M54.0388 62.3857C54.0388 62.8836 53.5696 63.2871 52.991 63.2871C52.4124 63.2871 51.9432 62.8836 51.9432 62.3857C51.9432 61.8882 52.4124 61.4844 52.991 61.4844C53.5696 61.4844 54.0388 61.8882 54.0388 62.3857Z" fill="white"/>
<path d="M57.0779 59.7607C57.0779 60.2586 56.6086 60.6621 56.0301 60.6621C55.4515 60.6621 54.9822 60.2586 54.9822 59.7607C54.9822 59.2628 55.4515 58.8594 56.0301 58.8594C56.6086 58.8594 57.0779 59.2628 57.0779 59.7607Z" fill="white"/>
<path d="M59.7458 62.3857C59.7458 62.8836 59.2766 63.2871 58.698 63.2871C58.1194 63.2871 57.6502 62.8836 57.6502 62.3857C57.6502 61.8882 58.1194 61.4844 58.698 61.4844C59.2766 61.4844 59.7458 61.8882 59.7458 62.3857Z" fill="white"/>
<path d="M63.0739 61.292C63.0739 61.7899 62.6047 62.1933 62.0261 62.1933C61.4476 62.1933 60.9783 61.7899 60.9783 61.292C60.9783 60.7941 61.4476 60.3906 62.0261 60.3906C62.6047 60.3906 63.0739 60.7941 63.0739 61.292Z" fill="white"/>
<path d="M65.8923 65.6279C65.8923 66.1258 65.4231 66.5292 64.8445 66.5292C64.2659 66.5292 63.7967 66.1258 63.7967 65.6279C63.7967 65.13 64.2659 64.7266 64.8445 64.7266C65.4236 64.727 65.8923 65.1304 65.8923 65.6279Z" fill="white"/>
<path d="M69.4196 65.6279C69.4196 66.1258 68.9504 66.5292 68.3718 66.5292C67.7933 66.5292 67.324 66.1258 67.324 65.6279C67.324 65.13 67.7933 64.7266 68.3718 64.7266C68.9504 64.727 69.4196 65.1304 69.4196 65.6279Z" fill="white"/>
<path d="M68.5993 73.0732C68.5993 73.5711 68.1301 73.9746 67.5515 73.9746C66.973 73.9746 66.5037 73.5711 66.5037 73.0732C66.5037 72.5757 66.973 72.1719 67.5515 72.1719C68.1301 72.1719 68.5993 72.5753 68.5993 73.0732Z" fill="white"/>
<path d="M60.572 67.4639C60.572 67.9618 60.1028 68.3652 59.5242 68.3652C58.9456 68.3652 58.4764 67.9618 58.4764 67.4639C58.4764 66.9659 58.9456 66.5625 59.5242 66.5625C60.1028 66.5625 60.572 66.9664 60.572 67.4639Z" fill="white"/>
<path d="M65.8923 78.8232C65.8923 79.3211 65.4231 79.7246 64.8445 79.7246C64.2659 79.7246 63.7967 79.3211 63.7967 78.8232C63.7967 78.3253 64.2659 77.9219 64.8445 77.9219C65.4236 77.9223 65.8923 78.3257 65.8923 78.8232Z" fill="white"/>
<path d="M69.4196 79.0889C69.4196 79.5868 68.9504 79.9902 68.3718 79.9902C67.7933 79.9902 67.324 79.5868 67.324 79.0889C67.324 78.5909 67.7933 78.1875 68.3718 78.1875C68.9504 78.1875 69.4196 78.5909 69.4196 79.0889Z" fill="white"/>
<path d="M70.615 80.9404C70.615 81.4383 70.1457 81.8417 69.5672 81.8417C68.9886 81.8417 68.5194 81.4383 68.5194 80.9404C68.5194 80.4425 68.9886 80.0391 69.5672 80.0391C70.1457 80.0391 70.615 80.4425 70.615 80.9404Z" fill="white"/>
<path d="M67.8532 80.9404C67.8532 81.4383 67.384 81.8417 66.8054 81.8417C66.2269 81.8417 65.7576 81.4383 65.7576 80.9404C65.7576 80.4425 66.2269 80.0391 66.8054 80.0391C67.3845 80.0391 67.8532 80.4425 67.8532 80.9404Z" fill="white"/>
<path d="M69.4196 86.2138C69.4196 86.7113 68.9504 87.1152 68.3718 87.1152C67.7933 87.1152 67.324 86.7118 67.324 86.2138C67.324 85.7159 67.7933 85.3125 68.3718 85.3125C68.9504 85.3129 69.4196 85.7164 69.4196 86.2138Z" fill="white"/>
<path d="M61.6199 91.2871C61.0412 91.2871 60.5721 90.8835 60.5721 90.3857C60.5721 89.8879 61.0412 89.4844 61.6199 89.4844C62.1986 89.4844 62.6677 89.8879 62.6677 90.3857C62.6677 90.8835 62.1986 91.2871 61.6199 91.2871Z" fill="white"/>
<path d="M64.1511 95.6464C63.5725 95.6464 63.1033 95.2429 63.1033 94.7451C63.1033 94.2473 63.5725 93.8438 64.1511 93.8438C64.7298 93.8438 65.1989 94.2473 65.1989 94.7451C65.1989 95.2429 64.7298 95.6464 64.1511 95.6464Z" fill="white"/>
<path d="M52.2488 86.0527C51.6701 86.0527 51.201 85.6491 51.201 85.1513C51.201 84.6535 51.6701 84.25 52.2488 84.25C52.8275 84.25 53.2966 84.6535 53.2966 85.1513C53.2966 85.6491 52.8275 86.0527 52.2488 86.0527Z" fill="white"/>
<path d="M65.3591 81.8388C65.3591 82.3368 64.8899 82.7402 64.3113 82.7402C63.7327 82.7402 63.2635 82.3368 63.2635 81.8388C63.2635 81.3409 63.7327 80.9375 64.3113 80.9375C64.8899 80.9375 65.3591 81.3409 65.3591 81.8388Z" fill="white"/>
<path d="M51.6911 75.4248C51.6911 75.9227 51.2219 76.3261 50.6433 76.3261C50.0648 76.3261 49.5955 75.9227 49.5955 75.4248C49.5955 74.9269 50.0648 74.5234 50.6433 74.5234C51.2219 74.5234 51.6911 74.9269 51.6911 75.4248Z" fill="white"/>
<path d="M42.322 74.7842C42.322 75.2821 41.8528 75.6855 41.2742 75.6855C40.6956 75.6855 40.2264 75.2821 40.2264 74.7842C40.2264 74.2862 40.6956 73.8828 41.2742 73.8828C41.8528 73.8828 42.322 74.2862 42.322 74.7842Z" fill="white"/>
<path d="M46.5017 85.4326C46.5017 85.9305 46.0324 86.3339 45.4539 86.3339C44.8753 86.3339 44.4061 85.9305 44.4061 85.4326C44.4061 84.9351 44.8753 84.5312 45.4539 84.5312C46.0324 84.5312 46.5017 84.9351 46.5017 85.4326Z" fill="white"/>
<path d="M59.3415 35.6513C59.3415 36.1493 58.8723 36.5527 58.2937 36.5527C57.7152 36.5527 57.2459 36.1493 57.2459 35.6513C57.2459 35.1539 57.7152 34.75 58.2937 34.75C58.8723 34.75 59.3415 35.1534 59.3415 35.6513Z" fill="white"/>
<path d="M66.2478 106.362C66.2478 106.86 65.7785 107.264 65.2 107.264C64.6214 107.264 64.1522 106.86 64.1522 106.362C64.1522 105.864 64.6214 105.461 65.2 105.461C65.7785 105.461 66.2478 105.864 66.2478 106.362Z" fill="white"/>
<path d="M57.0271 101.097C57.0271 101.595 56.5578 101.998 55.9793 101.998C55.4007 101.998 54.9315 101.595 54.9315 101.097C54.9315 100.599 55.4007 100.195 55.9793 100.195C56.5578 100.196 57.0271 100.599 57.0271 101.097Z" fill="white"/>
<path d="M50.0114 93.4951C50.0114 93.993 49.5422 94.3964 48.9636 94.3964C48.3851 94.3964 47.9158 93.993 47.9158 93.4951C47.9158 92.9972 48.3851 92.5938 48.9636 92.5938C49.5422 92.5937 50.0114 92.9972 50.0114 93.4951Z" fill="white"/>
<path d="M94.8724 64.6381L91.7371 62.3906H85.9889L79.7927 65.6317L85.1679 67.463L93.081 67.0134L94.8724 64.6381Z" stroke="#00FFFF" stroke-width="0.295156" stroke-miterlimit="10" stroke-linecap="round" stroke-linejoin="round"/>
<path d="M79.7918 65.63L77.1045 73.1756L76.2829 65.63L81.4349 58.9844L82.6285 61.2973L79.7918 65.63Z" stroke="#00FFFF" stroke-width="0.295156" stroke-miterlimit="10" stroke-linecap="round" stroke-linejoin="round"/>
<path d="M79.7922 65.626H76.2833L72.4763 64.9211L81.4352 58.9804L72.4763 58.5326L80.7625 51.7266L81.7931 55.5482L92.0353 56.6706L90.4676 52.8182L81.7931 55.5482L81.4352 58.9804L88.7005 59.6409L85.9884 62.3849L82.6288 61.2933" stroke="#00FFFF" stroke-width="0.295156" stroke-miterlimit="10" stroke-linecap="round" stroke-linejoin="round"/>
<path d="M97.2595 56.2898L107.188 47.1726L94.8708 55.3269L95.3188 41.5865L102.037 34.5234" stroke="#00FFFF" stroke-width="0.295156" stroke-miterlimit="10" stroke-linecap="round" stroke-linejoin="round"/>
<path d="M95.3195 41.5837L90.4672 52.82L86.3611 35.6122L94.3492 24.0547L95.3195 41.5837Z" stroke="#00FFFF" stroke-width="0.295156" stroke-miterlimit="10" stroke-linecap="round" stroke-linejoin="round"/>
<path d="M86.3614 35.6119L72.4763 45.8853L80.7625 51.728L86.3614 35.6119ZM86.3614 35.6119L82.6288 19.9453L72.4763 33.1078V74.1364L77.1048 73.1731L76.2833 79.1445L72.4763 74.1364V81.7128L75.0892 80.6211H77.8515L80.268 81.8437L93.976 75.4205L103.382 74.7784L99.2018 85.4368L95.6929 93.5911L88.6757 101.103L79.7922 106.304L72.4763 107.267V95.5173L79.7922 106.304" stroke="#00FFFF" stroke-width="0.295156" stroke-miterlimit="10" stroke-linecap="round" stroke-linejoin="round"/>
<path d="M77.8499 80.6172L76.2817 86.2032L75.0876 80.6172" stroke="#00FFFF" stroke-width="0.295156" stroke-miterlimit="10" stroke-linecap="round" stroke-linejoin="round"/>
<path d="M80.2673 81.8438L83.0761 90.3808L92.4076 85.1802L80.2673 81.8438Z" stroke="#00FFFF" stroke-width="0.295156" stroke-miterlimit="10" stroke-linecap="round" stroke-linejoin="round"/>
<path d="M93.9756 75.4219L92.4079 85.1816L99.2014 85.4382L93.9756 75.4219Z" stroke="#00FFFF" stroke-width="0.295156" stroke-miterlimit="10" stroke-linecap="round" stroke-linejoin="round"/>
<path d="M93.0789 67.0138L102.783 63.5469L103.381 74.7832L93.0789 67.0138ZM93.0789 67.0138L93.9744 75.4252L85.1658 67.4634L79.7906 78.828L77.1032 73.1778L85.1658 67.4634" stroke="#00FFFF" stroke-width="0.295156" stroke-miterlimit="10" stroke-linecap="round" stroke-linejoin="round"/>
<path d="M102.784 63.5469L94.8708 64.6385" stroke="#00FFFF" stroke-width="0.295156" stroke-miterlimit="10" stroke-linecap="round" stroke-linejoin="round"/>
<path d="M91.7366 62.3854L88.7005 59.6414L92.0353 56.671L93.976 60.6517L91.7366 62.3854ZM91.7366 62.3854L94.8719 64.6328L93.976 60.6517L99.4256 59.3676L97.2606 56.2856L94.8719 55.3227L92.0353 56.671L99.4256 59.3676L102.785 63.5412L107.189 47.1684L102.038 34.5193L94.3495 24.0534L82.6288 19.9444L72.4763 19.1094V33.1068L86.3614 35.6109L95.3199 41.5824L107.189 47.1684" stroke="#00FFFF" stroke-width="0.295156" stroke-miterlimit="10" stroke-linecap="round" stroke-linejoin="round"/>
<path d="M79.7906 78.8203L77.7598 80.9394L76.2817 79.1416L75.0876 80.9394" stroke="#00FFFF" stroke-width="0.295156" stroke-miterlimit="10" stroke-linecap="round" stroke-linejoin="round"/>
<path d="M76.2833 86.2132L72.4763 81.7188V86.5344V90.3868L76.2833 86.2132ZM76.2833 86.2132L83.0768 90.3868H72.4763V95.5233L83.0768 90.3868L80.5763 94.7529L72.4763 95.5233L88.6757 101.109L83.0768 90.3868L95.6929 93.5971L92.4083 85.1861" stroke="#00FFFF" stroke-width="0.295156" stroke-miterlimit="10" stroke-linecap="round" stroke-linejoin="round"/>
<path d="M80.5759 94.75L88.6754 101.106" stroke="#00FFFF" stroke-width="0.295156" stroke-miterlimit="10" stroke-linecap="round" stroke-linejoin="round"/>
<path d="M79.8103 78.8203L80.3438 81.8408" stroke="#00FFFF" stroke-width="0.295156" stroke-miterlimit="10" stroke-linecap="round" stroke-linejoin="round"/>
<path d="M71.4275 107.269C71.4275 107.766 71.8967 108.17 72.4753 108.17C73.0538 108.17 73.5231 107.766 73.5231 107.269C73.5231 106.771 73.0538 106.367 72.4753 106.367C71.8967 106.368 71.4275 106.771 71.4275 107.269Z" fill="white"/>
<path d="M71.4275 95.6513C71.4275 96.1493 71.8967 96.5527 72.4753 96.5527C73.0538 96.5527 73.5231 96.1493 73.5231 95.6513C73.5231 95.1534 73.0538 94.75 72.4753 94.75C71.8967 94.75 71.4275 95.1534 71.4275 95.6513Z" fill="white"/>
<path d="M71.4275 90.3857C71.4275 90.8836 71.8967 91.2871 72.4753 91.2871C73.0538 91.2871 73.5231 90.8836 73.5231 90.3857C73.5231 89.8878 73.0538 89.4844 72.4753 89.4844C71.8967 89.4844 71.4275 89.8878 71.4275 90.3857Z" fill="white"/>
<path d="M71.4275 81.7139C71.4275 82.2118 71.8967 82.6152 72.4753 82.6152C73.0538 82.6152 73.5231 82.2118 73.5231 81.7139C73.5231 81.2164 73.0538 80.8125 72.4753 80.8125C71.8967 80.8125 71.4275 81.2164 71.4275 81.7139Z" fill="white"/>
<path d="M71.4275 74.0732C71.4275 74.5711 71.8967 74.9746 72.4753 74.9746C73.0538 74.9746 73.5231 74.5711 73.5231 74.0732C73.5231 73.5753 73.0538 73.1719 72.4753 73.1719C71.8967 73.1719 71.4275 73.5753 71.4275 74.0732Z" fill="white"/>
<path d="M71.4275 64.9248C71.4275 65.4227 71.8967 65.8261 72.4753 65.8261C73.0538 65.8261 73.5231 65.4227 73.5231 64.9248C73.5231 64.4269 73.0538 64.0234 72.4753 64.0234C71.8967 64.0234 71.4275 64.4273 71.4275 64.9248Z" fill="white"/>
<path d="M71.4275 58.4404C71.4275 58.9379 71.8967 59.3418 72.4753 59.3418C73.0538 59.3418 73.5231 58.9383 73.5231 58.4404C73.5231 57.9425 73.0538 57.5391 72.4753 57.5391C71.8967 57.5391 71.4275 57.9425 71.4275 58.4404Z" fill="white"/>
<path d="M71.4275 45.9014C71.4275 46.3993 71.8967 46.8027 72.4753 46.8027C73.0538 46.8027 73.5231 46.3993 73.5231 45.9014C73.5231 45.4034 73.0538 45 72.4753 45C71.8967 45.0004 71.4275 45.4039 71.4275 45.9014Z" fill="white"/>
<path d="M71.4275 33.0967C71.4275 33.5946 71.8967 33.998 72.4753 33.998C73.0538 33.998 73.5231 33.5946 73.5231 33.0967C73.5231 32.5987 73.0538 32.1953 72.4753 32.1953C71.8967 32.1958 71.4275 32.5992 71.4275 33.0967Z" fill="white"/>
<path d="M71.4275 19.1123C71.4275 19.6102 71.8967 20.0136 72.4753 20.0136C73.0538 20.0136 73.5231 19.6102 73.5231 19.1123C73.5231 18.6144 73.0538 18.2109 72.4753 18.2109C71.8967 18.2114 71.4275 18.6148 71.4275 19.1123Z" fill="white"/>
<path d="M81.5271 20.0107C81.5271 20.5086 81.9963 20.9121 82.5749 20.9121C83.1534 20.9121 83.6227 20.5086 83.6227 20.0107C83.6227 19.5128 83.1534 19.1094 82.5749 19.1094C81.9963 19.1094 81.5271 19.5132 81.5271 20.0107Z" fill="white"/>
<path d="M93.2243 24.0576C93.2243 24.5551 93.6936 24.9589 94.2721 24.9589C94.8507 24.9589 95.3199 24.5555 95.3199 24.0576C95.3199 23.5597 94.8507 23.1562 94.2721 23.1562C93.6936 23.1567 93.2243 23.5601 93.2243 24.0576Z" fill="white"/>
<path d="M94.2712 41.5498C94.2712 42.0477 94.7404 42.4511 95.319 42.4511C95.8976 42.4511 96.3668 42.0477 96.3668 41.5498C96.3668 41.0519 95.8976 40.6484 95.319 40.6484C94.7404 40.6489 94.2712 41.0523 94.2712 41.5498Z" fill="white"/>
<path d="M101.029 34.5185C101.029 35.0165 101.498 35.4199 102.077 35.4199C102.655 35.4199 103.125 35.0165 103.125 34.5185C103.125 34.0206 102.655 33.6172 102.077 33.6172C101.498 33.6176 101.029 34.0211 101.029 34.5185Z" fill="white"/>
<path d="M106.14 47.1982C106.14 47.6961 106.61 48.0996 107.188 48.0996C107.767 48.0996 108.236 47.6961 108.236 47.1982C108.236 46.7007 107.767 46.2969 107.188 46.2969C106.61 46.2969 106.14 46.7003 106.14 47.1982Z" fill="white"/>
<path d="M79.6169 51.7295C79.6169 52.2274 80.0861 52.6308 80.6647 52.6308C81.2433 52.6308 81.7125 52.2274 81.7125 51.7295C81.7125 51.2316 81.2433 50.8281 80.6647 50.8281C80.0861 50.8281 79.6169 51.2316 79.6169 51.7295Z" fill="white"/>
<path d="M89.4021 52.8232C89.4021 53.3211 89.8713 53.7246 90.4499 53.7246C91.0284 53.7246 91.4977 53.3211 91.4977 52.8232C91.4977 52.3253 91.0284 51.9219 90.4499 51.9219C89.8708 51.9219 89.4021 52.3253 89.4021 52.8232Z" fill="white"/>
<path d="M93.8239 55.3857C93.8239 55.8836 94.2932 56.2871 94.8717 56.2871C95.4503 56.2871 95.9195 55.8836 95.9195 55.3857C95.9195 54.8878 95.4503 54.4844 94.8717 54.4844C94.2932 54.4844 93.8239 54.8878 93.8239 55.3857Z" fill="white"/>
<path d="M96.2341 56.2842C96.2341 56.7821 96.7033 57.1855 97.2819 57.1855C97.8605 57.1855 98.3297 56.7821 98.3297 56.2842C98.3297 55.7862 97.8605 55.3828 97.2819 55.3828C96.7033 55.3833 96.2341 55.7867 96.2341 56.2842Z" fill="white"/>
<path d="M81.9069 56.4355C82.4856 56.4355 82.9547 56.032 82.9547 55.5342C82.9547 55.0364 82.4856 54.6328 81.9069 54.6328C81.3282 54.6328 80.8591 55.0364 80.8591 55.5342C80.8591 56.032 81.3282 56.4355 81.9069 56.4355Z" fill="white"/>
<path d="M80.1599 58.9873C80.1599 59.4848 80.6291 59.8886 81.2077 59.8886C81.7862 59.8886 82.2555 59.4852 82.2555 58.9873C82.2555 58.4894 81.7862 58.0859 81.2077 58.0859C80.6291 58.0864 80.1599 58.4898 80.1599 58.9873Z" fill="white"/>
<path d="M92.0358 57.5371C92.6145 57.5371 93.0836 57.1335 93.0836 56.6357C93.0836 56.1379 92.6145 55.7344 92.0358 55.7344C91.4571 55.7344 90.988 56.1379 90.988 56.6357C90.988 57.1335 91.4571 57.5371 92.0358 57.5371Z" fill="white"/>
<path d="M98.0798 59.3388C98.0798 59.8368 98.549 60.2402 99.1276 60.2402C99.7062 60.2402 100.175 59.8368 100.175 59.3388C100.175 58.8409 99.7062 58.4375 99.1276 58.4375C98.549 58.4375 98.0798 58.8409 98.0798 59.3388Z" fill="white"/>
<path d="M101.736 63.542C101.736 64.0399 102.205 64.4433 102.784 64.4433C103.362 64.4433 103.832 64.0399 103.832 63.542C103.832 63.0441 103.362 62.6406 102.784 62.6406C102.205 62.6406 101.736 63.0441 101.736 63.542Z" fill="white"/>
<path d="M92.9646 60.6592C92.9646 61.1571 93.4338 61.5605 94.0124 61.5605C94.5909 61.5605 95.0602 61.1571 95.0602 60.6592C95.0602 60.1612 94.5909 59.7578 94.0124 59.7578C93.4338 59.7583 92.9646 60.1617 92.9646 60.6592Z" fill="white"/>
<path d="M93.8239 64.6357C93.8239 65.1332 94.2932 65.5371 94.8717 65.5371C95.4503 65.5371 95.9195 65.1336 95.9195 64.6357C95.9195 64.1378 95.4503 63.7344 94.8717 63.7344C94.2932 63.7344 93.8239 64.1378 93.8239 64.6357Z" fill="white"/>
<path d="M92.0349 66.9717C92.0349 67.4696 92.5041 67.873 93.0827 67.873C93.6613 67.873 94.1305 67.4696 94.1305 66.9717C94.1305 66.4737 93.6613 66.0703 93.0827 66.0703C92.5041 66.0703 92.0349 66.4742 92.0349 66.9717Z" fill="white"/>
<path d="M90.615 62.3857C90.615 62.8836 91.0842 63.2871 91.6628 63.2871C92.2413 63.2871 92.7106 62.8836 92.7106 62.3857C92.7106 61.8882 92.2413 61.4844 91.6628 61.4844C91.0842 61.4844 90.615 61.8882 90.615 62.3857Z" fill="white"/>
<path d="M87.5779 59.7607C87.5779 60.2586 88.0471 60.6621 88.6256 60.6621C89.2042 60.6621 89.6735 60.2586 89.6735 59.7607C89.6735 59.2628 89.2042 58.8594 88.6256 58.8594C88.0471 58.8594 87.5779 59.2628 87.5779 59.7607Z" fill="white"/>
<path d="M84.9099 62.3857C84.9099 62.8836 85.3791 63.2871 85.9577 63.2871C86.5363 63.2871 87.0055 62.8836 87.0055 62.3857C87.0055 61.8882 86.5363 61.4844 85.9577 61.4844C85.3791 61.4844 84.9099 61.8882 84.9099 62.3857Z" fill="white"/>
<path d="M81.5798 61.292C81.5798 61.7899 82.049 62.1933 82.6276 62.1933C83.2062 62.1933 83.6754 61.7899 83.6754 61.292C83.6754 60.7941 83.2062 60.3906 82.6276 60.3906C82.049 60.3906 81.5798 60.7941 81.5798 61.292Z" fill="white"/>
<path d="M78.7614 65.6279C78.7614 66.1258 79.2307 66.5292 79.8092 66.5292C80.3878 66.5292 80.857 66.1258 80.857 65.6279C80.857 65.13 80.3878 64.7266 79.8092 64.7266C79.2302 64.727 78.7614 65.1304 78.7614 65.6279Z" fill="white"/>
<path d="M75.2341 65.6279C75.2341 66.1258 75.7033 66.5292 76.2819 66.5292C76.8605 66.5292 77.3297 66.1258 77.3297 65.6279C77.3297 65.13 76.8605 64.7266 76.2819 64.7266C75.7033 64.727 75.2341 65.1304 75.2341 65.6279Z" fill="white"/>
<path d="M76.0564 73.0732C76.0564 73.5711 76.5256 73.9746 77.1042 73.9746C77.6827 73.9746 78.152 73.5711 78.152 73.0732C78.152 72.5757 77.6827 72.1719 77.1042 72.1719C76.5256 72.1719 76.0564 72.5753 76.0564 73.0732Z" fill="white"/>
<path d="M84.0837 67.4639C84.0837 67.9618 84.5529 68.3652 85.1315 68.3652C85.7101 68.3652 86.1793 67.9618 86.1793 67.4639C86.1793 66.9659 85.7101 66.5625 85.1315 66.5625C84.5529 66.5625 84.0837 66.9664 84.0837 67.4639Z" fill="white"/>
<path d="M78.7614 78.8232C78.7614 79.3211 79.2307 79.7246 79.8092 79.7246C80.3878 79.7246 80.857 79.3211 80.857 78.8232C80.857 78.3253 80.3878 77.9219 79.8092 77.9219C79.2302 77.9223 78.7614 78.3257 78.7614 78.8232Z" fill="white"/>
<path d="M75.2341 79.0889C75.2341 79.5868 75.7033 79.9902 76.2819 79.9902C76.8605 79.9902 77.3297 79.5868 77.3297 79.0889C77.3297 78.5909 76.8605 78.1875 76.2819 78.1875C75.7033 78.1875 75.2341 78.5909 75.2341 79.0889Z" fill="white"/>
<path d="M74.0406 80.9406C74.0406 81.4385 74.5099 81.8419 75.0884 81.8419C75.667 81.8419 76.1362 81.4385 76.1362 80.9406C76.1362 80.4427 75.667 80.0392 75.0884 80.0392C74.5099 80.0392 74.0406 80.4427 74.0406 80.9406Z" fill="white"/>
<path d="M76.8025 80.9404C76.8025 81.4383 77.2717 81.8417 77.8503 81.8417C78.4288 81.8417 78.8981 81.4383 78.8981 80.9404C78.8981 80.4425 78.4288 80.0391 77.8503 80.0391C77.2712 80.0391 76.8025 80.4425 76.8025 80.9404Z" fill="white"/>
<path d="M75.2341 86.2138C75.2341 86.7113 75.7033 87.1152 76.2819 87.1152C76.8605 87.1152 77.3297 86.7118 77.3297 86.2138C77.3297 85.7159 76.8605 85.3125 76.2819 85.3125C75.7033 85.3129 75.2341 85.7164 75.2341 86.2138Z" fill="white"/>
<path d="M83.0358 91.2871C83.6145 91.2871 84.0836 90.8835 84.0836 90.3857C84.0836 89.8879 83.6145 89.4844 83.0358 89.4844C82.4571 89.4844 81.988 89.8879 81.988 90.3857C81.988 90.8835 82.4571 91.2871 83.0358 91.2871Z" fill="white"/>
<path d="M80.5026 95.6464C81.0813 95.6464 81.5504 95.2429 81.5504 94.7451C81.5504 94.2473 81.0813 93.8438 80.5026 93.8438C79.9239 93.8438 79.4548 94.2473 79.4548 94.7451C79.4548 95.2429 79.9239 95.6464 80.5026 95.6464Z" fill="white"/>
<path d="M92.4069 86.0527C92.9856 86.0527 93.4547 85.6491 93.4547 85.1513C93.4547 84.6535 92.9856 84.25 92.4069 84.25C91.8282 84.25 91.3591 84.6535 91.3591 85.1513C91.3591 85.6491 91.8282 86.0527 92.4069 86.0527Z" fill="white"/>
<path d="M79.2946 81.8388C79.2946 82.3368 79.7639 82.7402 80.3424 82.7402C80.921 82.7402 81.3903 82.3368 81.3903 81.8388C81.3903 81.3409 80.921 80.9375 80.3424 80.9375C79.7639 80.9375 79.2946 81.3409 79.2946 81.8388Z" fill="white"/>
<path d="M92.9646 75.4248C92.9646 75.9227 93.4338 76.3261 94.0124 76.3261C94.5909 76.3261 95.0602 75.9227 95.0602 75.4248C95.0602 74.9269 94.5909 74.5234 94.0124 74.5234C93.4338 74.5234 92.9646 74.9269 92.9646 75.4248Z" fill="white"/>
<path d="M102.332 74.7842C102.332 75.2821 102.801 75.6855 103.38 75.6855C103.958 75.6855 104.427 75.2821 104.427 74.7842C104.427 74.2862 103.958 73.8828 103.38 73.8828C102.801 73.8828 102.332 74.2862 102.332 74.7842Z" fill="white"/>
<path d="M98.154 85.4326C98.154 85.9305 98.6233 86.3339 99.2018 86.3339C99.7804 86.3339 100.25 85.9305 100.25 85.4326C100.25 84.9351 99.7804 84.5312 99.2018 84.5312C98.6233 84.5312 98.154 84.9351 98.154 85.4326Z" fill="white"/>
<path d="M85.3142 35.6513C85.3142 36.1493 85.7834 36.5527 86.362 36.5527C86.9405 36.5527 87.4098 36.1493 87.4098 35.6513C87.4098 35.1539 86.9405 34.75 86.362 34.75C85.7834 34.75 85.3142 35.1534 85.3142 35.6513Z" fill="white"/>
<path d="M78.4079 106.362C78.4079 106.86 78.8772 107.264 79.4557 107.264C80.0343 107.264 80.5035 106.86 80.5035 106.362C80.5035 105.864 80.0343 105.461 79.4557 105.461C78.8772 105.461 78.4079 105.864 78.4079 106.362Z" fill="white"/>
<path d="M87.6286 101.097C87.6286 101.595 88.0979 101.998 88.6764 101.998C89.255 101.998 89.7242 101.595 89.7242 101.097C89.7242 100.599 89.255 100.195 88.6764 100.195C88.0979 100.196 87.6286 100.599 87.6286 101.097Z" fill="white"/>
<path d="M94.6423 93.4951C94.6423 93.993 95.1115 94.3964 95.6901 94.3964C96.2687 94.3964 96.7379 93.993 96.7379 93.4951C96.7379 92.9972 96.2687 92.5938 95.6901 92.5938C95.1115 92.5937 94.6423 92.9972 94.6423 93.4951Z" fill="white"/>
</svg>
