<svg width="229" height="162" viewBox="0 0 229 162" fill="none" xmlns="http://www.w3.org/2000/svg">
<path d="M250.749 126.742H231.999C231.567 111.108 227.48 95.7973 220.088 82.1328L236.342 72.7578C245.367 89.255 250.317 107.803 250.749 126.742Z" fill="#00AA4E"/>
<path d="M233.642 68.0856L217.388 77.4742C209.213 64.2009 198.004 52.9914 184.73 44.8169L194.105 28.5625C210.225 38.3826 223.822 51.9661 233.642 68.0856Z" fill="#95DF3D"/>
<path d="M189.441 25.8732L180.052 42.1276C166.388 34.722 151.078 30.6349 135.457 30.2031V11.4531C154.382 11.8848 172.93 16.8354 189.441 25.8732Z" fill="#FFD919"/>
<path d="M130.062 11.4531V30.2031C114.428 30.6347 99.1176 34.7219 85.453 42.114L76.0645 25.8595C92.5618 16.8354 111.123 11.8848 130.062 11.4531Z" fill="#FFAF19"/>
<path d="M80.7844 44.8092C67.4976 52.9836 56.2881 64.1931 48.1136 77.48L31.8594 68.0915C41.6927 51.9719 55.2765 38.3884 71.3959 28.5547L80.7844 44.8092Z" fill="#FF6619"/>
<path d="M45.4148 82.1385C38.0228 95.803 33.9221 111.113 33.5039 126.747H14.7539C15.1723 107.808 20.136 89.2472 29.1606 72.75L45.4148 82.1385Z" fill="#FF3333"/>
<path d="M132.73 180.009C128.003 180.009 123.243 179.433 118.533 178.269C103.306 174.504 90.4566 165.032 82.3522 151.597C65.6374 123.902 74.5785 87.7409 102.287 70.9919L102.305 70.9808C130.038 54.278 166.2 63.2314 182.917 90.9435C188.755 100.638 191.662 111.706 191.33 122.962C190.74 143.04 180.132 161.2 162.951 171.538C153.692 177.135 143.295 180.009 132.73 180.009ZM116.225 94.0911C101.254 103.155 96.4193 122.695 105.451 137.66C109.834 144.924 116.779 150.044 125.009 152.079C133.237 154.113 141.764 152.82 149.018 148.435C158.317 142.84 164.044 133.026 164.363 122.168C164.543 116.094 162.968 110.113 159.81 104.87C150.777 89.8968 131.221 85.0566 116.225 94.0911Z" fill="#F2F2F2"/>
<path d="M132.666 145.325C130.73 145.325 128.781 145.09 126.854 144.613C120.616 143.071 115.354 139.191 112.035 133.689C105.189 122.345 108.853 107.533 120.204 100.673L120.205 100.672C131.563 93.8295 146.377 97.4975 153.225 108.848C155.614 112.817 156.806 117.35 156.671 121.957C156.429 130.182 152.086 137.619 145.052 141.852C141.254 144.147 136.993 145.325 132.666 145.325ZM120.901 101.827C110.187 108.303 106.727 122.284 113.191 132.992C116.323 138.186 121.29 141.848 127.177 143.304C133.069 144.76 139.167 143.833 144.355 140.696C150.995 136.701 155.094 129.681 155.321 121.917C155.45 117.569 154.325 113.291 152.069 109.544C145.607 98.8324 131.626 95.3688 120.901 101.827Z" fill="#213A5C"/>
<path d="M128.177 116.193L197.652 63.0534C198.387 62.4833 199.41 63.5392 198.699 64.2447L137.082 126.325C130.04 132.776 120.857 122.389 128.177 116.193Z" fill="#245FFF"/>
<path d="M126.385 110.924C132.101 107.481 139.529 109.316 142.977 115.032C144.22 117.096 144.775 119.376 144.709 121.619C144.592 125.587 142.522 129.419 138.871 131.616C133.158 135.069 125.728 133.231 122.28 127.515C118.832 121.802 120.672 114.377 126.385 110.924Z" fill="#213A5C"/>
<path d="M210.672 22.3281L211.604 23.0148L209.541 27.1245L212.816 23.9077L213.787 24.6229L208.894 29.1614L207.787 28.3453L210.672 22.3281Z" fill="#95DF3D"/>
<path d="M214.94 25.5156L217.179 27.2897L216.606 28.0127L215.406 27.0627L214.326 28.427L215.253 29.1605L214.675 29.8902L213.748 29.1566L212.472 30.7682L213.684 31.7276L213.121 32.4382L210.869 30.6542L214.94 25.5156Z" fill="#95DF3D"/>
<path d="M218.375 28.2578L219.668 29.3622C220.205 29.8209 220.525 30.2646 220.628 30.6929C220.73 31.1212 220.575 31.5773 220.161 32.0616C219.884 32.3855 219.615 32.6083 219.355 32.7302C219.094 32.8522 218.807 32.8662 218.489 32.7726L217.102 35.792L216.062 34.9034L217.425 32.1614L217.056 31.846L215.127 34.1043L214.117 33.2423L218.375 28.2578ZM217.872 31.5004C218.11 31.7039 218.327 31.7882 218.524 31.7537C218.72 31.7192 218.925 31.5769 219.138 31.3265C219.349 31.0801 219.46 30.8633 219.472 30.6744C219.484 30.4859 219.377 30.2957 219.151 30.1027L218.801 29.8034L217.571 31.2431L217.872 31.5004Z" fill="#95DF3D"/>
<path d="M220.443 35.331L222.186 31.5547L223.108 32.4046L222.062 34.5779L224.102 33.321L225 34.1496L221.389 36.2034L219.628 38.1134L218.682 37.2408L220.443 35.331Z" fill="#95DF3D"/>
<path d="M223.835 41.5055C223.927 41.0377 224.236 40.551 224.76 40.0457L226.339 38.523C226.875 38.0063 227.382 37.7179 227.861 37.658C228.338 37.598 228.821 37.8205 229.308 38.3257C229.775 38.8108 229.99 39.2711 229.952 39.7053C229.913 40.1395 229.672 40.5723 229.224 41.0026L228.95 41.267L228.051 40.3345L228.384 40.0143C228.601 39.8049 228.738 39.6259 228.794 39.478C228.85 39.3301 228.796 39.1707 228.631 39.0003C228.462 38.8254 228.296 38.769 228.13 38.831C227.965 38.8925 227.772 39.0303 227.551 39.2438L225.453 41.2662C225.232 41.4797 225.092 41.6745 225.033 41.8509C224.974 42.0274 225.028 42.2008 225.192 42.3717C225.354 42.5387 225.53 42.5955 225.722 42.5416C225.913 42.488 226.122 42.3527 226.347 42.1354L226.849 41.6523L226.405 41.192L226.987 40.6304L228.268 41.9592L225.845 44.2959L225.238 43.6668L225.596 43.1981C225.13 43.369 224.718 43.2682 224.359 42.8953C223.917 42.436 223.742 41.9732 223.835 41.5055Z" fill="#95DF3D"/>
<path d="M227.432 45.3432C227.507 44.8795 227.809 44.4127 228.338 43.9435L230.165 42.32C230.693 41.8507 231.19 41.609 231.652 41.5944C232.116 41.5793 232.579 41.8322 233.042 42.3529C233.499 42.8692 233.694 43.3583 233.625 43.8207C233.555 44.283 233.258 44.7467 232.734 45.2124L230.901 46.8411C230.376 47.3073 229.878 47.5491 229.408 47.5672C228.936 47.5852 228.471 47.3358 228.012 46.8196C227.551 46.2987 227.357 45.8064 227.432 45.3432ZM229.203 46.3736C229.37 46.3301 229.554 46.2187 229.756 46.0393L232.073 43.9808C232.275 43.8014 232.405 43.6336 232.464 43.4767C232.523 43.3197 232.478 43.1564 232.327 42.9869C232.176 42.8176 232.02 42.7525 231.857 42.793C231.694 42.833 231.512 42.9425 231.311 43.1219L228.993 45.1802C228.787 45.3631 228.652 45.5326 228.59 45.6895C228.527 45.8464 228.572 46.0112 228.727 46.1846C228.877 46.3547 229.036 46.4171 229.203 46.3736Z" fill="#95DF3D"/>
<path d="M156.896 5.79078C156.706 5.35364 156.683 4.77792 156.827 4.06379L157.26 1.91349C157.408 1.18351 157.661 0.658287 158.02 0.336875C158.38 0.015463 158.902 -0.0758841 159.59 0.0625297C160.251 0.195972 160.689 0.451828 160.905 0.831184C161.12 1.21039 161.167 1.70423 161.044 2.31241L160.969 2.68509L159.7 2.42924L159.791 1.97702C159.851 1.68124 159.861 1.45646 159.823 1.30297C159.785 1.14949 159.65 1.04914 159.417 1.00207C159.179 0.954064 159.01 1.00253 158.909 1.14747C158.808 1.29241 158.727 1.51533 158.667 1.81717L158.092 4.67353C158.032 4.97475 158.027 5.21476 158.079 5.3931C158.131 5.57159 158.274 5.6839 158.507 5.73097C158.733 5.77696 158.911 5.72305 159.038 5.56957C159.165 5.41671 159.26 5.18679 159.322 4.87999L159.459 4.19739L158.832 4.0714L158.992 3.27789L160.801 3.64218L160.137 6.94283L159.279 6.76993L159.307 6.18132C159.023 6.58615 158.626 6.73746 158.118 6.63509C157.494 6.50942 157.086 6.22808 156.896 5.79078Z" fill="#FFD919"/>
<path d="M162.06 6.90512C161.858 6.48087 161.841 5.9252 162.01 5.23857L162.59 2.86487C162.759 2.17824 163.03 1.6976 163.403 1.42217C163.776 1.14674 164.3 1.09175 164.976 1.25719C165.647 1.4217 166.085 1.71391 166.29 2.13381C166.496 2.55356 166.515 3.10364 166.348 3.78545L165.765 6.16707C165.599 6.84811 165.326 7.33046 164.949 7.61273C164.571 7.89515 164.047 7.95449 163.376 7.79013C162.7 7.62422 162.261 7.32938 162.06 6.90512ZM164.102 6.74714C164.214 6.61618 164.303 6.41982 164.367 6.15791L165.105 3.14698C165.169 2.88522 165.181 2.67271 165.14 2.5099C165.099 2.34695 164.969 2.23898 164.749 2.18507C164.529 2.13117 164.363 2.16659 164.251 2.29258C164.14 2.41794 164.052 2.61181 163.988 2.87373L163.251 5.8845C163.186 6.15185 163.172 6.36778 163.209 6.53214C163.246 6.69712 163.378 6.8071 163.604 6.86256C163.824 6.916 163.99 6.87809 164.102 6.74714Z" fill="#FFD919"/>
<path d="M167.161 8.20022C166.977 7.76789 166.983 7.21221 167.18 6.5335L167.859 4.18528C168.056 3.50657 168.346 3.03743 168.73 2.77753C169.114 2.51826 169.64 2.48517 170.309 2.67858C170.973 2.87043 171.398 3.18081 171.586 3.60864C171.774 4.03693 171.77 4.58763 171.575 5.26121L170.894 7.61689C170.699 8.29047 170.407 8.76071 170.017 9.02713C169.628 9.29386 169.103 9.33083 168.439 9.13898C167.77 8.94588 167.345 8.63301 167.161 8.20022ZM169.208 8.1272C169.326 8.00122 169.422 7.8089 169.497 7.54993L170.359 4.57209C170.434 4.31329 170.455 4.1014 170.421 3.93688C170.387 3.77253 170.261 3.65912 170.043 3.59605C169.826 3.53314 169.659 3.56203 169.542 3.68258C169.425 3.8036 169.331 3.99343 169.256 4.2527L168.393 7.23008C168.317 7.49448 168.294 7.70979 168.324 7.8757C168.355 8.04207 168.482 8.15703 168.705 8.2215C168.922 8.28519 169.09 8.25365 169.208 8.1272Z" fill="#FFD919"/>
<path d="M173.828 3.82812L175.347 4.33735C175.869 4.51227 176.254 4.71717 176.502 4.95097C176.751 5.18539 176.891 5.46424 176.922 5.78751C176.953 6.11079 176.89 6.50568 176.734 6.97079L175.976 9.23465C175.817 9.71032 175.627 10.0726 175.407 10.3201C175.187 10.5685 174.908 10.7139 174.57 10.7564C174.231 10.7999 173.806 10.7355 173.294 10.564L171.744 10.0443L173.828 3.82812ZM173.574 9.67584C173.794 9.74978 173.968 9.76982 174.097 9.7358C174.225 9.70178 174.325 9.62333 174.398 9.49952C174.471 9.37602 174.549 9.18867 174.633 8.93825L175.495 6.36711C175.573 6.13222 175.616 5.94876 175.623 5.81749C175.63 5.68607 175.593 5.5736 175.51 5.4807C175.427 5.3878 175.276 5.30376 175.056 5.23044L174.787 5.14049L173.298 9.58356L173.574 9.67584Z" fill="#FFD919"/>
<path d="M89.8359 4.60136L92.4646 3.73438L92.7513 4.60291L91.383 5.0542L91.9367 6.72977L93.0971 6.34699L93.3879 7.23045L92.2286 7.61369L93.151 10.4112L91.8907 10.8269L89.8359 4.60136Z" fill="#FFAF19"/>
<path d="M94.5996 3.08039L96.0218 2.66406L99.0751 8.60125L97.8937 8.94659L97.2562 7.63236L96.2626 7.92316L96.4265 9.37627L95.2221 9.7286L94.5996 3.08039ZM96.9003 6.87628L95.7788 4.45552L96.1467 7.09703L96.9003 6.87628Z" fill="#FFAF19"/>
<path d="M98.668 1.94213L99.9522 1.60938L101.597 7.95544L100.312 8.28835L98.668 1.94213Z" fill="#FFAF19"/>
<path d="M101.705 1.16132L103.364 0.788641C104.054 0.634226 104.6 0.643701 105.005 0.818622C105.409 0.993076 105.681 1.39123 105.82 2.01246C105.914 2.42817 105.931 2.77692 105.873 3.05825C105.814 3.33958 105.652 3.57898 105.387 3.77689L106.972 6.69771L105.637 6.99707L104.26 4.26204L103.786 4.36845L104.437 7.2669L103.142 7.55771L101.705 1.16132ZM104 3.50798C104.305 3.43901 104.503 3.31613 104.593 3.13826C104.682 2.96023 104.691 2.7109 104.62 2.38964C104.549 2.07382 104.442 1.85494 104.298 1.73206C104.154 1.60965 103.937 1.58075 103.648 1.64569L103.197 1.74713L103.612 3.59466L104 3.50798Z" fill="#FFAF19"/>
<path d="M31.2676 44.4003L32.6388 42.8356C33.3854 41.9835 34.2319 41.9716 35.1775 42.8C35.6762 43.2373 35.9239 43.6691 35.9191 44.0958C35.9151 44.5225 35.7232 44.9528 35.3425 45.3872L34.9376 45.85L37.0744 47.7219L36.1989 48.7203L31.2676 44.4003ZM34.5459 44.8719C34.7338 44.6571 34.8096 44.4686 34.7717 44.3063C34.7348 44.1449 34.5878 43.9515 34.3319 43.7276C34.166 43.5817 34.024 43.4792 33.9082 43.4203C33.7913 43.3608 33.6713 43.3479 33.5493 43.3809C33.4274 43.4138 33.2966 43.5094 33.1586 43.6678L32.8489 44.0206L34.231 45.2314L34.5459 44.8719Z" fill="#FF6619"/>
<path d="M39.4621 44.373C38.9944 44.337 38.5036 44.0757 37.991 43.5888L36.2189 41.9053C35.7072 41.4186 35.4234 40.9448 35.3695 40.4845C35.3155 40.0243 35.5294 39.5416 36.0081 39.0369C36.4838 38.536 36.9547 38.3007 37.4213 38.3307C37.8881 38.3611 38.3759 38.6176 38.8835 39.1009L40.6615 40.79C41.1701 41.2731 41.453 41.7484 41.511 42.2162C41.5691 42.6844 41.3601 43.1686 40.8843 43.6695C40.4046 44.1742 39.9308 44.4084 39.4621 44.373ZM40.3395 42.5211C40.2816 42.3587 40.1556 42.1843 39.9597 41.9984L37.712 39.8636C37.5172 39.6778 37.3382 39.5623 37.1763 39.5167C37.0154 39.4712 36.8565 39.5307 36.7005 39.6948C36.5447 39.8591 36.4927 40.021 36.5466 40.1799C36.6006 40.3388 36.7255 40.5113 36.9205 40.6966L39.1682 42.8318C39.367 43.0212 39.548 43.1407 39.7099 43.1902C39.8708 43.2391 40.0316 43.1797 40.1916 43.0119C40.3476 42.8474 40.3965 42.6839 40.3395 42.5211Z" fill="#FF6619"/>
<path d="M43.1324 40.5883C42.6656 40.5333 42.187 40.252 41.6942 39.7443L39.9932 37.9899C39.5004 37.4822 39.2376 36.9973 39.2026 36.5352C39.1677 36.0729 39.4006 35.5997 39.9003 35.115C40.396 34.6344 40.8757 34.4184 41.3415 34.4678C41.8062 34.5168 42.2829 34.7931 42.7706 35.2968L44.4776 37.0573C44.9654 37.5611 45.2292 38.0478 45.2672 38.5176C45.3062 38.9878 45.0774 39.463 44.5817 39.9436C44.0819 40.4285 43.5991 40.6433 43.1324 40.5883ZM44.0849 38.7745C44.0339 38.6095 43.914 38.4301 43.7271 38.2362L41.5694 36.011C41.3814 35.817 41.2075 35.6948 41.0477 35.6423C40.8888 35.5902 40.7278 35.6433 40.5649 35.8007C40.4019 35.9587 40.344 36.1181 40.392 36.279C40.4389 36.44 40.5559 36.6174 40.7437 36.8112L42.9014 39.0364C43.0933 39.2343 43.2682 39.3608 43.4281 39.4167C43.587 39.4726 43.7499 39.4197 43.9168 39.2583C44.0799 39.1003 44.136 38.9393 44.0849 38.7745Z" fill="#FF6619"/>
<path d="M42.6074 32.6439L43.8758 31.512C44.4025 31.0412 44.8853 30.7839 45.323 30.74C45.7617 30.696 46.1925 30.9113 46.6163 31.3865C46.9003 31.7044 47.085 32.0006 47.171 32.2745C47.2569 32.5488 47.2321 32.8371 47.0962 33.139L49.9016 34.92L48.8811 35.8305L46.3474 34.111L45.9856 34.4344L47.9635 36.6501L46.9741 37.5342L42.6074 32.6439ZM45.7527 33.5788C45.9865 33.3704 46.0996 33.1665 46.0915 32.9672C46.0836 32.7682 45.9707 32.5459 45.7507 32.3C45.5348 32.0587 45.335 31.9192 45.15 31.8822C44.9651 31.8448 44.7612 31.9253 44.5393 32.1227L44.1955 32.43L45.4568 33.8427L45.7527 33.5788Z" fill="#FF6619"/>
<path d="M0 117.75L0.130955 116.6L4.72238 116.341L0.300903 115.105L0.437922 113.906L6.81039 115.886L6.65458 117.253L0 117.75Z" fill="#FF3333"/>
<path d="M0.644531 112.42L1.06723 109.594L1.97974 109.731L1.75386 111.243L3.47479 111.501L3.64878 110.332L4.57029 110.47L4.39444 111.639L6.42824 111.944L6.65707 110.414L7.55357 110.549L7.12777 113.39L0.644531 112.42Z" fill="#FF3333"/>
<path d="M1.31836 108.085L1.63325 106.415C1.76312 105.72 1.98899 105.222 2.30885 104.92C2.62964 104.618 3.10236 104.526 3.7281 104.643C4.14691 104.722 4.47361 104.844 4.70958 105.009C4.94446 105.174 5.10136 105.417 5.17732 105.739L8.48652 105.439L8.23377 106.783L5.17732 106.966L5.08753 107.444L8.00681 107.992L7.76183 109.297L1.31836 108.085ZM4.38164 106.907C4.43959 106.6 4.4037 106.369 4.27678 106.216C4.14878 106.063 3.9229 105.956 3.60009 105.895C3.28132 105.836 3.03836 105.848 2.86856 105.931C2.69861 106.015 2.58677 106.202 2.53177 106.494L2.4468 106.947L4.3077 107.297L4.38164 106.907Z" fill="#FF3333"/>
<path d="M6.40342 102.801L2.26172 103.17L2.53963 101.947L4.94533 101.772L2.83945 100.629L3.11022 99.4375L6.68925 101.546L9.2228 102.123L8.93696 103.378L6.40342 102.801Z" fill="#FF3333"/>
<path d="M4.16797 95.3882L4.74865 93.3909C5.06447 92.3026 5.82598 91.9336 7.03333 92.2846C7.67088 92.47 8.07773 92.7568 8.25467 93.145C8.43052 93.5332 8.43844 94.0046 8.27766 94.5593L8.10585 95.1499L10.8333 95.9425L10.4635 97.2168L4.16797 95.3882ZM7.33735 94.4293C7.41719 94.1549 7.40632 93.952 7.30333 93.8211C7.20142 93.6901 6.98642 93.5772 6.65972 93.4823C6.44783 93.4209 6.27602 93.3878 6.14491 93.3833C6.01395 93.3793 5.90117 93.4178 5.80408 93.4992C5.70714 93.5806 5.62916 93.7226 5.57028 93.9244L5.44041 94.3752L7.20437 94.888L7.33735 94.4293Z" fill="#FF3333"/>
<path d="M11.5783 91.8956C11.1385 92.0615 10.5837 92.0315 9.91326 91.8072L7.59658 91.0302C6.92688 90.8054 6.46923 90.4955 6.22627 90.1012C5.98346 89.7063 5.9715 89.1792 6.19334 88.519C6.41315 87.8644 6.74 87.4521 7.17575 87.2821C7.6115 87.1122 8.16127 87.1386 8.82599 87.3621L11.1517 88.1417C11.8163 88.3646 12.2741 88.6759 12.5239 89.0756C12.7738 89.4753 12.7898 90.0027 12.57 90.6572C12.3488 91.3174 12.0181 91.7303 11.5783 91.8956ZM11.5912 89.8467C11.4701 89.7239 11.2823 89.6195 11.0265 89.5334L8.08716 88.5479C7.83131 88.4625 7.62035 88.4329 7.45444 88.46C7.28961 88.4868 7.17062 88.6079 7.0987 88.8227C7.02662 89.0375 7.04867 89.2056 7.16456 89.327C7.28045 89.4484 7.4664 89.5517 7.72133 89.6378L10.6606 90.6233C10.9215 90.7108 11.1354 90.7428 11.3024 90.7193C11.4701 90.6957 11.5902 90.5739 11.6642 90.354C11.7361 90.1391 11.7122 89.9702 11.5912 89.8467Z" fill="#FF3333"/>
<path d="M13.3026 86.9099C12.8559 87.0567 12.3031 87.0042 11.6425 86.7521L9.35964 85.8791C8.70004 85.6268 8.25621 85.2979 8.0294 84.8935C7.8026 84.4893 7.81363 83.9621 8.06249 83.312C8.30934 82.667 8.65312 82.2687 9.09586 82.1172C9.53767 81.9653 10.0863 82.0148 10.741 82.2655L13.0317 83.1409C13.6874 83.3918 14.1311 83.7216 14.3651 84.1314C14.5979 84.5417 14.5909 85.0689 14.345 85.7141C14.0962 86.3642 13.7483 86.763 13.3026 86.9099ZM13.4005 84.8636C13.2846 84.7355 13.1007 84.6231 12.8487 84.5268L9.95337 83.4198C9.70155 83.3233 9.49152 83.2854 9.32577 83.3053C9.15893 83.3252 9.03589 83.4412 8.95402 83.6525C8.87402 83.8644 8.888 84.0334 8.99892 84.1594C9.10984 84.2858 9.29082 84.3967 9.54263 84.4931L12.4381 85.6001C12.696 85.6985 12.9078 85.7394 13.0757 85.7229C13.2436 85.706 13.3694 85.5895 13.4526 85.3726C13.5335 85.1614 13.5155 84.9916 13.4005 84.8636Z" fill="#FF3333"/>
<path d="M9.48828 79.9126L10.1609 78.352C10.4407 77.7029 10.7696 77.2661 11.1483 77.0413C11.5271 76.8168 12.0088 76.831 12.5935 77.0828C12.9853 77.2516 13.2781 77.4421 13.4711 77.6544C13.664 77.8673 13.763 78.1391 13.7679 78.47L17.0621 78.9027L16.5204 80.1591L13.4981 79.6668L13.3062 80.113L16.0337 81.2889L15.508 82.5078L9.48828 79.9126ZM12.7346 79.4347C12.8585 79.1475 12.8745 78.9151 12.7837 78.7377C12.6926 78.5603 12.4967 78.4063 12.194 78.2765C11.8971 78.148 11.6563 78.106 11.4733 78.1506C11.2894 78.1946 11.1384 78.3529 11.0216 78.6258L10.8387 79.0492L12.5778 79.7987L12.7346 79.4347Z" fill="#FF3333"/>
</svg>
