<svg width="1728" height="622" viewBox="0 0 1728 622" fill="none" xmlns="http://www.w3.org/2000/svg">
<path d="M232.787 497.357C282.097 382.84 333.092 264.42 412.489 259.865C464.708 256.894 523.727 302.873 592.87 400.499C672.965 513.577 741.205 567.035 801.383 563.94C885.873 559.59 939.075 443.217 986.01 340.542C1023.81 257.864 1056.45 186.457 1098.57 186.202C1098.65 186.202 1098.72 186.202 1098.8 186.202C1127.65 186.202 1158.49 220.818 1193.06 292.017C1232.07 372.376 1291.46 419.583 1369.56 432.335C1501.01 453.802 1666.99 375.61 1805 292.325V293.99C1768.41 316.067 1729.93 337.728 1690.51 357.333C1630.84 387.01 1575.31 408.664 1525.46 421.679C1467.12 436.913 1414.54 440.884 1369.17 433.471C1290.46 420.617 1230.67 373.152 1191.46 292.383C1157.15 221.715 1126.84 187.365 1098.8 187.365C1098.73 187.365 1098.66 187.365 1098.59 187.365C1057.7 187.615 1025.23 258.643 987.63 340.892C940.531 443.919 887.146 560.69 801.512 565.1C799.827 565.187 798.139 565.229 796.442 565.229C736.73 565.226 669.565 511.426 591.353 401.009C522.545 303.867 464.125 258.114 412.627 261.025C334.377 265.512 283.553 383.539 234.403 497.685C215.317 542.008 196.65 585.37 176.726 621.985H174.793C195.141 584.744 214.215 540.488 232.787 497.357Z" fill="url(#paint0_linear_789_5214)"/>
<path d="M213.621 490.283C265.592 377.052 319.328 259.968 400.581 255.595C453.596 252.768 512.76 297.577 581.454 392.66C661.007 502.769 729.438 554.904 790.538 551.943C877.101 547.799 933.102 432.646 982.511 331.051C1022.29 249.254 1056.64 178.613 1099.7 178.579C1099.71 178.579 1099.72 178.579 1099.73 178.579C1129.02 178.579 1159.82 212.401 1193.91 281.964C1231.75 359.217 1290.04 404.977 1367.13 417.979C1497.69 440.001 1664.16 366.08 1805 284.946V286.571C1770.19 306.615 1733.85 326.186 1696.75 344.037C1635.09 373.704 1577.84 395.271 1526.62 408.141C1466.65 423.205 1412.87 426.897 1366.73 419.118C1289.03 406.016 1230.34 360 1192.3 282.34C1158.48 213.308 1128.2 179.752 1099.73 179.752C1099.72 179.752 1099.71 179.752 1099.7 179.752C1057.86 179.786 1023.69 250.057 984.116 331.425C934.535 433.369 878.344 548.911 790.652 553.114C788.99 553.192 787.332 553.235 785.659 553.235C725.054 553.229 657.687 500.797 579.933 393.186C511.582 298.579 452.944 253.951 400.699 256.765C320.582 261.081 267.025 377.78 215.226 490.643C193.525 537.932 172.323 584.113 149.601 621.99H147.626C170.802 583.53 192.518 536.259 213.621 490.283Z" fill="url(#paint1_linear_789_5214)"/>
<path d="M194.188 483.476C248.858 371.478 305.391 255.668 388.551 251.481C442.279 248.788 501.683 292.456 569.934 385.035C648.962 492.214 717.579 542.954 779.586 540.227C868.277 536.298 927.128 422.315 979.05 321.754C1020.79 240.914 1056.84 171.091 1100.78 171.091C1100.84 171.091 1100.91 171.091 1100.97 171.091C1130.63 171.228 1161.36 204.263 1194.9 272.085C1231.6 346.316 1288.76 390.649 1364.79 403.859C1494.48 426.393 1661.43 356.457 1805 277.447V278.946C1680.02 347.621 1537.41 409.313 1416.82 409.302C1398.81 409.302 1381.28 407.927 1364.38 404.987C1287.76 391.678 1230.2 347.087 1193.3 272.459C1160.02 205.165 1129.82 172.385 1100.96 172.253C1100.9 172.253 1100.84 172.253 1100.78 172.253C1058.04 172.253 1022.17 241.727 980.643 322.143C928.542 423.043 869.493 537.407 779.689 541.392C716.851 544.163 647.787 493.201 568.421 385.563C500.509 293.455 441.753 250.019 388.669 252.646C306.63 256.772 250.276 372.212 195.781 483.846C171.244 534.104 147.321 583.105 121.557 621.984H119.54C145.77 582.606 170.352 532.303 194.188 483.476Z" fill="url(#paint2_linear_789_5214)"/>
<path d="M174.511 476.927C231.937 366.113 291.318 251.525 376.437 247.533C430.962 244.953 490.495 287.529 558.327 377.631C636.833 481.916 705.675 531.316 768.54 528.794C859.43 525.089 921.193 412.221 975.68 312.636C1019.39 232.748 1057.17 163.729 1101.97 163.729C1102.12 163.729 1102.27 163.729 1102.41 163.729C1132.42 164.032 1163.05 196.302 1196.04 262.383C1231.63 333.664 1287.65 376.593 1362.55 389.978C1491.37 413.005 1658.79 346.789 1805 269.873V271.34C1678.88 337.593 1537.05 395.787 1417.57 395.777C1398.47 395.774 1379.92 394.288 1362.12 391.106C1286.64 377.618 1230.22 334.44 1194.44 262.765C1161.71 197.204 1131.6 165.194 1102.39 164.9C1102.25 164.897 1102.11 164.897 1101.97 164.897C1058.34 164.897 1020.76 233.574 977.266 313.052C922.592 412.965 860.623 526.214 768.643 529.965C704.962 532.526 635.67 482.904 556.822 378.17C489.336 288.529 430.325 246.218 376.547 248.698C292.542 252.637 233.347 366.86 176.108 477.321C148.514 530.569 121.656 582.389 92.6021 622.002H90.7456C119.842 582.418 146.807 530.393 174.511 476.927Z" fill="url(#paint3_linear_789_5214)"/>
<path d="M154.579 470.609C214.806 360.923 277.088 247.503 364.216 243.721C419.518 241.338 479.208 282.768 546.617 370.419C624.619 471.85 693.671 520.015 757.398 517.624C850.54 514.155 915.273 402.342 972.379 303.688C1018.33 224.313 1058 155.807 1104.03 156.475C1134.37 156.948 1164.89 188.461 1197.34 252.817C1231.84 321.226 1286.69 362.772 1360.4 376.291C1488.36 399.786 1656.23 337.055 1805 262.185V263.621C1677.86 327.514 1536.83 382.461 1418.44 382.456C1398.23 382.456 1378.67 380.857 1359.96 377.425C1285.69 363.792 1230.44 321.999 1195.75 253.199C1163.56 189.361 1133.54 158.106 1103.98 157.643C1059.17 156.99 1019.67 225.149 973.953 304.122C916.657 403.099 851.714 515.284 757.497 518.792C692.97 521.166 623.476 472.839 545.127 370.966C478.057 283.757 418.863 242.551 364.323 244.886C278.285 248.62 216.205 361.68 156.165 471.022C125.27 527.294 95.2473 581.962 62.6331 621.995H60.731C93.3986 582.02 123.547 527.128 154.579 470.609Z" fill="url(#paint4_linear_789_5214)"/>
<path d="M134.38 464.537C197.47 355.927 262.702 243.625 351.9 240.061C408.01 237.81 467.811 278.169 534.808 363.411C610.595 459.833 678.366 506.79 741.826 506.79C743.271 506.79 744.712 506.761 746.149 506.719C841.602 503.498 909.357 392.692 969.139 294.921C1017.23 216.27 1058.77 148.366 1105.79 149.339C1136.47 149.986 1166.9 180.757 1198.81 243.412C1232.23 309.027 1285.92 349.208 1358.36 362.838C1485.44 386.751 1653.75 327.291 1805 254.428V255.843C1676.96 317.44 1536.73 369.371 1419.43 369.368C1398.09 369.368 1377.52 367.648 1357.92 363.961C1284.9 350.223 1230.84 309.793 1197.22 243.795C1165.56 181.654 1135.64 151.14 1105.75 150.504C1105.42 150.498 1105.1 150.493 1104.77 150.493C1059.29 150.493 1018.21 217.679 970.698 295.374C910.726 393.459 842.749 504.629 746.229 507.882C744.765 507.934 743.302 507.961 741.838 507.961C677.699 507.955 609.429 460.793 533.325 363.966C466.671 279.164 407.347 238.996 352.003 241.226C263.876 244.75 198.842 356.703 135.951 464.971C101.472 524.326 68.0422 581.881 31.5704 622.001H29.6034C66.1553 581.984 99.7416 524.176 134.38 464.537Z" fill="url(#paint5_linear_789_5214)"/>
<path d="M113.906 458.697C179.905 351.12 248.152 239.877 339.473 236.538C396.228 234.421 456.276 273.733 522.877 356.593C599.903 452.428 669.126 498.033 734.774 496.064C832.609 493.105 903.46 383.246 965.971 286.314C1016.25 208.354 1059.7 141.076 1107.74 142.312C1138.72 143.138 1169.04 173.175 1200.43 234.144C1232.81 297.038 1285.3 335.878 1356.44 349.582C1482.64 373.889 1651.35 317.498 1805 246.596V247.993C1676.16 307.368 1536.75 356.495 1420.5 356.48C1398.06 356.477 1376.45 354.647 1355.99 350.705C1284.28 336.896 1231.41 297.812 1198.83 234.536C1167.71 174.07 1137.89 144.285 1107.68 143.477C1060.78 142.294 1017.54 209.217 967.515 286.785C904.806 384.024 833.722 494.233 734.843 497.223C733.452 497.265 732.064 497.286 730.669 497.286C665.65 497.281 597.136 451.391 521.39 357.153C455.132 274.719 395.587 235.641 339.553 237.697C249.288 240.995 181.258 351.899 115.462 459.144C77.3163 521.323 40.3984 581.505 0.00415039 621.334V619.314C39.7161 579.628 76.2146 520.142 113.906 458.697Z" fill="url(#paint6_linear_789_5214)"/>
<path d="M93.1622 453.097C162.126 346.499 233.446 236.276 326.947 233.168C384.411 231.251 444.623 269.467 510.835 349.986C587.385 443.075 656.917 487.398 723.259 485.678C823.556 482.987 897.567 374.022 962.864 277.885C1015.38 200.58 1060.69 133.838 1109.88 135.4C1141.15 136.41 1171.35 165.727 1202.22 225.034C1233.58 285.293 1284.86 322.815 1354.65 336.55C1479.94 361.215 1649.03 307.701 1805 238.704V240.087C1675.46 297.319 1536.88 343.827 1421.68 343.819C1398.12 343.816 1375.51 341.87 1354.18 337.668C1283.85 323.822 1232.18 286.061 1200.63 225.426C1170.02 166.613 1140.3 137.546 1109.8 136.56C1061.73 134.998 1016.65 201.447 964.397 278.374C898.89 374.811 824.65 484.116 723.327 486.837C722.02 486.874 720.724 486.89 719.416 486.89C653.532 486.885 584.762 442.241 509.364 350.556C443.499 270.458 383.866 232.468 327.031 234.33C234.571 237.402 163.472 347.296 94.71 453.568C63.0981 502.424 32.2869 550.034 0.0118408 587.309V585.065C31.6846 548.112 62.0347 501.212 93.1622 453.097Z" fill="url(#paint7_linear_789_5214)"/>
<path d="M72.1208 447.728C144.123 342.063 218.573 232.797 314.307 229.936C372.51 228.211 432.841 265.362 498.668 343.562C574.764 433.945 644.445 477.168 711.621 475.535C814.438 473.113 891.682 365.002 959.834 269.614C1013.86 194 1060.62 128.555 1110.08 128.555C1110.79 128.555 1111.49 128.568 1112.2 128.597C1143.74 129.791 1173.82 158.401 1204.18 216.067C1234.54 273.762 1284.61 309.987 1353 323.728C1477.37 348.721 1646.8 297.922 1805 230.783V232.145C1646.71 299.226 1477.2 349.907 1352.52 324.848C1283.58 310.997 1233.14 274.527 1202.58 216.461C1172.48 159.287 1142.89 130.927 1112.09 129.76C1063.04 127.906 1015.88 193.808 961.351 270.127C892.989 365.81 815.502 474.257 711.678 476.7C710.47 476.726 709.265 476.742 708.061 476.742C641.292 476.742 572.275 433.324 497.208 344.143C431.728 266.351 372 229.376 314.38 231.099C219.674 233.934 145.442 342.87 73.657 448.225C48.9485 484.489 24.7089 520.06 0.015625 551.149V548.714C24.1561 518.109 47.9155 483.253 72.1208 447.728Z" fill="url(#paint8_linear_789_5214)"/>
<path d="M50.7897 442.588C125.883 337.806 203.535 229.456 301.564 226.837C360.553 225.301 420.929 261.4 486.382 337.32C560.809 423.651 629.609 465.669 696.591 465.669C697.666 465.669 698.752 465.659 699.835 465.635C805.24 463.497 885.792 356.178 956.865 261.495C1013.05 186.636 1061.69 121.832 1112.14 121.832C1112.99 121.832 1113.84 121.851 1114.69 121.887C1146.48 123.268 1176.44 151.183 1206.28 207.222C1235.68 262.437 1284.54 297.389 1351.49 311.106C1474.91 336.389 1644.64 288.143 1805 222.821V224.168C1674.35 277.319 1537.49 319.106 1424.36 319.103C1398.56 319.103 1373.99 316.934 1351.01 312.224C1283.51 298.396 1234.28 263.204 1204.68 207.624C1175.1 152.064 1145.63 124.399 1114.58 123.052C1064.28 120.865 1015.22 186.283 958.363 262.032C887.077 357.004 806.281 464.646 699.881 466.805C698.779 466.829 697.677 466.84 696.587 466.84C628.961 466.84 559.68 424.629 484.922 337.919C419.819 262.402 359.825 226.435 301.621 228.007C204.598 230.598 127.179 338.632 52.2992 443.111C34.7379 467.618 17.4016 491.81 0.00805664 514.486V511.991C16.887 489.884 33.7316 466.387 50.7897 442.588Z" fill="url(#paint9_linear_789_5214)"/>
<path d="M29.1306 437.692C107.384 333.749 188.31 226.262 288.695 223.893C289.835 223.864 290.983 223.85 292.126 223.85C350.596 223.85 410.115 259.032 473.955 331.285C549.144 416.38 619.058 457.218 687.888 455.995C795.955 454.141 879.884 347.572 953.941 253.546C1013.46 177.979 1064.83 112.739 1117.36 115.293C1149.38 116.863 1179.21 144.089 1208.55 198.536C1237.01 251.345 1284.64 285.046 1350.13 298.707C1472.57 324.237 1642.56 278.405 1805 214.849V216.182C1673.92 267.408 1537.94 307.068 1425.82 307.062C1398.93 307.057 1373.39 304.777 1349.64 299.822C1283.62 286.056 1235.61 252.113 1206.96 198.949C1177.88 144.975 1148.54 117.994 1117.24 116.46C1065.83 113.962 1014.67 178.897 955.435 254.109C881.161 348.413 796.972 455.298 687.93 457.168C686.943 457.186 685.975 457.194 684.988 457.194C616.515 457.189 546.968 416.172 472.507 331.898C407.763 258.619 347.558 223.674 288.741 225.063C189.347 227.409 108.661 334.586 30.6249 438.236C20.3634 451.872 10.1705 465.402 0.00805664 478.63V476.142C9.67883 463.535 19.3723 450.659 29.1306 437.692Z" fill="url(#paint10_linear_789_5214)"/>
<path d="M7.15112 433.026C88.641 329.869 172.902 223.197 275.704 221.083C335.973 219.807 396.662 253.971 461.395 325.425C535.246 406.949 604.576 446.611 673.258 446.611C674.097 446.611 674.932 446.606 675.77 446.59C786.562 445.031 873.968 339.161 951.082 245.756C1013.05 170.699 1066.57 105.872 1120.23 108.799C1152.45 110.555 1182.14 137.108 1210.98 189.97C1238.52 240.457 1284.93 272.937 1348.93 286.509C1470.37 312.258 1640.56 268.698 1804.98 206.853V208.189C1673.57 257.553 1538.48 295.219 1427.39 295.209C1399.41 295.209 1372.92 292.818 1348.44 287.624C1283.91 273.939 1237.13 241.222 1209.4 190.38C1180.81 137.984 1151.6 111.678 1120.09 109.961C1067.6 107.092 1014.24 171.617 952.553 246.332C875.218 340.007 787.557 446.182 675.812 447.758C674.962 447.771 674.116 447.776 673.262 447.776C603.943 447.773 534.144 407.927 459.962 326.043C395.58 254.978 335.329 221.015 275.754 222.248C173.924 224.344 89.8951 330.714 8.63782 433.583C5.7522 437.236 2.87415 440.881 0 444.513V442.08C2.37866 439.071 4.76489 436.05 7.15112 433.026Z" fill="url(#paint11_linear_789_5214)"/>
<path d="M262.611 218.434C323.501 217.329 384.327 250.507 448.702 319.781C522.282 398.95 591.879 437.464 661.404 437.464C662.109 437.464 662.81 437.458 663.515 437.451C777.109 436.183 868.056 330.963 948.299 238.126C1012.77 163.542 1068.4 99.1334 1123.29 102.418C1155.71 104.361 1185.24 130.246 1213.59 181.551C1240.23 229.787 1285.43 261.065 1347.91 274.525C1468.32 300.462 1638.65 259.061 1805 198.879V200.183C1673.32 247.766 1539.13 283.563 1429.05 283.558C1400 283.558 1372.61 281.065 1347.41 275.634C1284.41 262.067 1238.85 230.549 1212.01 181.966C1183.92 131.125 1154.85 105.484 1123.15 103.578C1069.34 100.346 1013.94 164.476 949.763 238.728C869.291 331.82 778.085 437.338 663.55 438.618C662.837 438.629 662.128 438.631 661.411 438.631C591.269 438.629 521.196 399.937 447.288 320.414C383.256 251.517 322.888 218.549 262.664 219.601C163.945 221.348 80.3544 316.002 0.0118408 412.707V410.351C80.1371 313.985 163.59 220.18 262.611 218.434Z" fill="url(#paint12_linear_789_5214)"/>
<path d="M249.395 215.889C250.249 215.876 251.087 215.87 251.941 215.87C312.519 215.87 372.72 248.088 435.867 314.277C509.768 391.743 580.177 429.112 651.085 428.515C767.545 427.537 862.125 322.926 945.574 230.631C1012.61 156.484 1070.52 92.4305 1126.54 96.1175C1159.12 98.2503 1188.5 123.475 1216.35 173.247C1242.13 219.307 1286.11 249.416 1347.07 262.728C1466.41 288.8 1636.84 249.434 1805 190.874V192.165C1673.13 238.032 1539.85 272.087 1430.78 272.087C1400.68 272.087 1372.43 269.494 1346.55 263.84C1285.08 250.413 1240.75 220.07 1214.77 173.662C1187.17 124.348 1158.25 99.3627 1126.38 97.2746C1071.4 93.6718 1013.75 157.428 947.003 231.244C863.322 323.792 768.483 428.689 651.096 429.677C650.532 429.683 649.972 429.685 649.408 429.685C578.446 429.68 508.106 392.124 434.449 314.916C370.761 248.159 310.187 216.136 249.429 217.054C157.182 218.424 76.8207 296.763 0.00415039 383.406V381.168C76.6301 294.901 156.889 217.264 249.395 215.889Z" fill="url(#paint13_linear_789_5214)"/>
<path d="M236.046 213.487C236.786 213.477 237.514 213.472 238.249 213.472C299.506 213.472 359.931 244.735 422.865 308.967C495.938 383.545 566.073 419.815 637.236 419.815C637.641 419.815 638.048 419.815 638.445 419.81C757.851 419.121 856.159 315.074 942.894 223.273C1012.57 149.531 1072.7 85.8426 1130 89.8951C1162.71 92.2119 1191.92 116.795 1219.3 165.047C1244.24 209.011 1287 237.971 1346.41 251.122C1464.66 277.294 1635.12 239.859 1805 182.874V184.152C1673.01 228.372 1540.67 260.795 1432.62 260.789C1401.51 260.789 1372.4 258.104 1345.9 252.237C1285.98 238.97 1242.86 209.782 1217.73 165.473C1190.6 117.666 1161.85 93.3243 1129.83 91.0574C1073.59 87.0812 1013.68 150.488 944.312 223.912C857.348 315.96 758.777 420.286 638.464 420.98C638.056 420.986 637.652 420.988 637.236 420.988C565.471 420.986 494.871 384.547 421.466 309.622C358.864 245.729 298.911 214.642 238.253 214.642C237.533 214.642 236.804 214.644 236.084 214.655C150.058 215.707 73.291 280.276 0.0118408 356.79V354.67C73.1156 278.538 149.799 214.542 236.046 213.487Z" fill="url(#paint14_linear_789_5214)"/>
<path d="M222.563 211.226C285.181 210.616 346.35 240.914 409.707 303.84C482.544 376.18 552.941 411.351 624.905 411.351C625.149 411.351 625.397 411.351 625.637 411.348C748.059 410.943 850.178 307.414 940.279 216.065C1012.65 142.697 1075.18 79.3399 1133.64 83.7816C1166.46 86.2773 1195.49 110.224 1222.39 156.979C1246.52 198.924 1288.09 226.766 1345.95 239.731C1446.94 262.35 1601.39 240.47 1805 174.712V176.006C1711.94 206.027 1628.51 227.121 1557 238.679C1471.72 252.462 1400.54 253.19 1345.43 240.838C1287.07 227.763 1245.14 199.695 1220.82 157.408C1194.18 111.089 1165.6 87.3818 1133.46 84.9361C1075.95 80.5575 1013.75 143.657 941.682 216.717C851.349 308.3 748.958 412.1 625.648 412.508C625.401 412.511 625.157 412.511 624.909 412.511C552.358 412.508 481.499 377.171 408.327 304.5C345.93 242.524 285.756 212.378 224.42 212.378C223.814 212.378 223.2 212.381 222.59 212.386C142.564 213.165 69.6813 266.129 0.00805664 332.802V330.811C69.5288 264.511 142.354 212.01 222.563 211.226Z" fill="url(#paint15_linear_789_5214)"/>
<path d="M208.944 209.11C209.443 209.107 209.927 209.104 210.427 209.104C272.998 209.104 333.854 238.492 396.396 298.904C469.008 369.035 539.653 403.125 612.395 403.125C612.471 403.125 612.555 403.125 612.635 403.125C738.144 402.994 844.167 299.943 937.718 209.015C1012.86 135.98 1077.75 72.9076 1137.5 77.7622C1170.4 80.4367 1199.25 103.752 1225.67 149.043C1249 189.036 1289.38 215.784 1345.7 228.539C1445.93 251.249 1600.43 230.437 1805 166.736V168.024C1713.27 196.563 1631.04 216.683 1560.43 227.847C1473.18 241.635 1400.76 242.245 1345.17 229.656C1288.36 216.789 1247.63 189.815 1224.1 149.484C1197.93 104.625 1169.54 81.5465 1137.3 78.9272C1078.55 74.1515 1013.93 136.961 939.097 209.696C845.314 300.85 739.021 404.164 612.638 404.295C612.558 404.295 612.482 404.295 612.398 404.295C539.077 404.295 467.967 370.042 395.023 299.585C332.818 239.494 272.426 210.275 210.427 210.275C209.946 210.275 209.451 210.275 208.97 210.277C134.75 210.827 65.9685 254.008 0.015625 311.356V309.478C65.8389 252.467 134.574 209.659 208.944 209.11Z" fill="url(#paint16_linear_789_5214)"/>
<path d="M195.19 207.092C195.56 207.086 195.926 207.086 196.296 207.086C259.504 207.086 320.562 235.559 382.917 294.101C455.216 361.978 526.041 395.011 599.442 395.09C599.533 395.09 599.609 395.09 599.705 395.09C728.248 395.09 838.205 292.544 935.217 202.074C1013.19 129.347 1080.55 66.5215 1141.56 71.81C1174.52 74.658 1203.16 97.3558 1229.12 141.197C1251.69 179.318 1290.89 204.998 1345.65 217.524C1445.08 240.272 1599.56 220.488 1805 158.761V160.032C1714.69 187.145 1633.73 206.347 1564.07 217.132C1474.82 230.949 1401.15 231.454 1345.12 218.634C1289.87 205.992 1250.31 180.089 1227.55 141.636C1201.85 98.2236 1173.65 75.7599 1141.35 72.9724C1081.3 67.7706 1014.24 130.339 936.574 202.771C839.322 293.47 729.114 396.263 599.705 396.26C599.617 396.26 599.526 396.26 599.438 396.26C525.465 396.179 454.195 362.988 381.56 294.792C319.186 236.232 258.246 207.854 195.206 208.259C126.627 208.617 62.1299 243.562 0.0118408 292.26V290.493C62.0193 242.092 126.485 207.449 195.19 207.092Z" fill="url(#paint17_linear_789_5214)"/>
<path d="M181.273 205.231C181.521 205.231 181.754 205.231 182.001 205.231C245.816 205.231 307.088 232.805 369.259 289.505C441.177 355.098 512.085 387.086 586.036 387.307C586.291 387.307 586.542 387.31 586.798 387.31C718.364 387.31 832.259 285.308 932.755 195.291C1013.64 122.84 1083.52 60.2851 1145.81 65.9601C1178.8 68.9739 1207.23 91.0562 1232.72 133.475C1254.55 169.792 1292.59 194.436 1345.81 206.72C1444.41 229.475 1598.8 210.654 1805 150.831V152.107C1716.2 177.852 1636.58 196.158 1567.94 206.583C1476.66 220.442 1401.74 220.86 1345.28 207.827C1291.58 195.433 1253.18 170.568 1231.16 133.922C1205.92 91.9267 1177.93 70.0731 1145.59 67.1199C1084.26 61.5105 1014.67 123.839 934.096 196.006C833.349 286.239 719.21 388.491 586.802 388.478C586.55 388.478 586.28 388.478 586.032 388.478C511.514 388.251 440.167 356.11 367.91 290.213C306.074 233.82 245.263 206.399 182.001 206.399C181.769 206.399 181.517 206.401 181.281 206.401C118.21 206.609 58.1351 234.627 0.00805664 275.407V273.748C58.0513 233.223 118.099 205.439 181.273 205.231Z" fill="url(#paint18_linear_789_5214)"/>
<path d="M167.211 203.486C167.326 203.486 167.444 203.486 167.562 203.486C231.979 203.486 293.433 230.175 355.437 285.07C426.986 348.413 497.97 379.374 572.439 379.729C572.862 379.732 573.281 379.732 573.704 379.732C708.366 379.732 826.282 278.222 930.353 188.627C1014.24 116.421 1086.68 54.0532 1150.29 60.1753C1183.29 63.3469 1211.5 84.8296 1236.54 125.852C1257.65 160.436 1294.55 184.067 1346.22 196.091C1443.92 218.823 1598.14 200.922 1805 142.924V144.184C1717.8 168.615 1639.58 186.084 1572 196.164C1478.68 210.079 1402.53 210.428 1345.68 197.198C1293.52 185.067 1256.28 161.212 1234.98 126.307C1210.19 85.7001 1182.41 64.4461 1150.05 61.3351C1087.4 55.3102 1015.23 117.428 931.672 189.361C827.364 279.161 709.174 380.905 573.697 380.905C573.277 380.905 572.847 380.902 572.427 380.902C497.406 380.547 425.987 349.434 354.103 285.788C292.442 231.193 231.426 204.653 167.562 204.653C167.452 204.653 167.326 204.653 167.219 204.653C109.538 204.74 54.0068 226.943 0.0118408 260.581V259.014C53.9382 225.597 109.447 203.573 167.211 203.486Z" fill="url(#paint19_linear_789_5214)"/>
<path d="M152.986 201.883C217.966 201.888 279.604 227.702 341.429 280.808C412.619 341.964 483.664 371.917 558.636 372.385C559.215 372.388 559.806 372.39 560.386 372.39C698.226 372.39 820.278 271.32 928.016 182.107C1014.96 110.114 1090.07 47.9453 1154.97 54.4882C1187.94 57.8149 1215.92 78.7007 1240.5 118.342C1260.92 151.264 1296.7 173.915 1346.85 185.665C1443.62 208.341 1597.61 191.295 1805 135.073V136.34C1719.5 159.514 1642.77 176.15 1576.31 185.896C1480.92 199.887 1403.53 200.181 1346.31 186.772C1295.68 174.909 1259.56 152.043 1238.95 118.805C1214.61 79.5659 1187.07 58.9089 1154.73 55.6453C1090.72 49.1945 1015.93 111.131 929.316 182.854C821.338 272.266 699.019 373.561 560.382 373.555C559.799 373.555 559.2 373.553 558.617 373.55C483.104 373.082 411.628 342.987 340.102 281.542C278.625 228.733 217.417 203.058 152.982 203.053C100.603 203.05 49.7262 220.404 0.00805664 247.667V246.184C49.6766 219.095 100.542 201.883 152.986 201.883Z" fill="url(#paint20_linear_789_5214)"/>
<path d="M138.222 200.385C138.333 200.385 138.462 200.385 138.577 200.385C203.969 200.474 265.676 225.436 327.21 276.696C398.054 335.706 469.168 364.668 544.608 365.233C545.355 365.236 546.083 365.238 546.827 365.238C687.911 365.238 814.217 264.565 925.706 175.696C1015.79 103.887 1093.6 41.8636 1159.84 48.8562C1192.76 52.3275 1220.5 72.6295 1244.64 110.925C1264.38 142.248 1299.06 163.941 1347.7 175.41C1443.52 197.989 1597.17 181.774 1805 127.245V128.489C1721.3 150.445 1646.11 166.313 1580.84 175.741C1483.35 189.823 1404.74 190.084 1347.16 176.509C1298.04 164.935 1263.03 143.024 1243.09 111.387C1219.2 73.4921 1191.89 53.4137 1159.59 50.0107C1094.27 43.1154 1016.75 104.913 926.991 176.456C815.254 265.525 688.7 366.411 546.831 366.406C546.091 366.406 545.333 366.403 544.593 366.398C468.623 365.827 397.093 336.731 325.911 277.443C264.711 226.467 203.432 201.644 138.573 201.555C138.455 201.555 138.337 201.555 138.222 201.555C91.2068 201.555 45.1938 214.854 0.00805664 236.444V235.019C45.1443 213.573 91.1534 200.385 138.222 200.385Z" fill="url(#paint21_linear_789_5214)"/>
<path d="M123.325 199.042C123.547 199.042 123.771 199.042 123.996 199.042C189.785 199.21 251.545 223.328 312.805 272.779C383.317 329.69 454.484 357.674 530.375 358.321C531.263 358.328 532.14 358.331 533.032 358.331C677.467 358.331 808.118 258.01 923.465 169.433C1016.77 97.7846 1097.33 35.903 1164.95 43.3216C1197.79 46.9271 1225.28 66.6505 1248.97 103.62C1268.07 133.408 1301.66 154.178 1348.81 165.347C1443.6 187.81 1596.88 172.344 1805 119.465V120.729C1723.19 141.515 1649.64 156.616 1585.61 165.738C1486.01 179.929 1406.15 180.168 1348.25 166.451C1300.64 155.172 1266.72 134.191 1247.43 104.093C1223.98 67.5157 1196.92 48.0132 1164.68 44.4761C1097.99 37.1443 1017.7 98.8155 924.719 170.214C809.136 258.972 678.222 359.499 533.032 359.499C532.136 359.499 531.244 359.493 530.348 359.488C453.947 358.836 382.364 330.721 311.521 273.531C250.6 224.359 189.252 200.373 123.989 200.21C123.756 200.204 123.554 200.204 123.325 200.204C81.6085 200.204 40.5244 210.169 0.00805664 226.834V225.471C40.49 208.922 81.5627 199.042 123.325 199.042Z" fill="url(#paint22_linear_789_5214)"/>
<path d="M108.269 197.805C108.581 197.805 108.898 197.805 109.222 197.805C175.388 198.034 237.205 221.326 298.21 269.012C368.405 323.88 439.626 350.895 515.936 351.608C516.957 351.619 517.971 351.621 518.993 351.621C666.858 351.621 801.974 251.6 921.273 163.281C1017.88 91.7586 1101.32 29.998 1170.27 37.8453C1203 41.5743 1230.22 60.7297 1253.48 96.4028C1271.96 124.726 1304.48 144.596 1350.17 155.463C1443.93 177.763 1596.69 163.052 1805 111.758V112.992C1725.2 132.644 1653.36 147.032 1590.65 155.857C1488.92 170.174 1407.82 170.413 1349.62 156.57C1303.47 145.59 1270.61 125.509 1251.94 96.8841C1228.92 61.5976 1202.12 42.6631 1169.99 39.0024C1101.96 31.2366 1018.79 92.8026 922.508 164.083C802.968 252.576 667.598 352.799 518.989 352.794C517.971 352.794 516.938 352.792 515.913 352.781C439.096 352.063 367.471 324.918 296.94 269.793C236.271 222.367 174.869 199.204 109.21 198.98C108.886 198.978 108.589 198.978 108.269 198.978C71.8121 198.978 35.7366 206.223 0.015625 218.672V217.363C35.7061 204.987 71.7816 197.805 108.269 197.805Z" fill="url(#paint23_linear_789_5214)"/>
<path d="M93.0593 196.687C93.4519 196.687 93.8597 196.687 94.2562 196.687C160.773 196.961 222.643 219.435 283.404 265.398C353.287 318.27 424.554 344.339 501.271 345.099C502.407 345.11 503.539 345.118 504.675 345.118C656.063 345.118 795.76 245.343 919.116 157.243C1019.11 85.823 1105.47 24.1308 1175.78 32.4304C1208.39 36.2751 1235.33 54.8678 1258.17 89.268C1276.04 116.184 1307.53 135.187 1351.76 145.745C1444.44 167.862 1596.66 153.806 1805 104.055V105.318C1727.29 123.881 1657.26 137.548 1595.93 146.082C1492.03 160.549 1409.69 160.804 1351.21 146.845C1306.51 136.178 1274.69 116.97 1256.63 89.7519C1234.04 55.7277 1207.5 37.3534 1175.49 33.5796C1106.06 25.3957 1019.99 86.8697 920.328 158.053C796.732 246.322 656.776 346.285 504.671 346.283C503.532 346.283 502.384 346.277 501.245 346.264C424.032 345.499 352.365 319.306 282.147 266.185C221.729 220.476 160.262 198.126 94.2373 197.857C93.8408 197.852 93.4558 197.852 93.0555 197.852C61.8403 197.852 30.8231 202.914 0.0118408 211.837V210.57C30.8041 201.71 61.8173 196.687 93.0593 196.687Z" fill="url(#paint24_linear_789_5214)"/>
<path d="M77.6785 195.698C78.1396 195.698 78.601 195.698 79.066 195.701C145.926 196.003 207.85 217.676 268.367 261.956C337.968 312.877 409.28 338.015 486.382 338.806C487.625 338.82 488.833 338.825 490.08 338.825C645.066 338.825 789.49 239.25 917.008 151.326C1020.48 79.9772 1109.86 18.3612 1181.51 27.0842C1213.96 31.0368 1240.62 49.0719 1263.03 82.2283C1280.32 107.8 1310.8 125.959 1353.62 136.202C1445.19 158.106 1596.73 144.72 1805 96.4502V97.6836C1729.51 115.185 1661.35 128.189 1601.49 136.439C1495.39 151.066 1411.81 151.358 1353.07 137.304C1309.79 126.953 1278.99 108.589 1261.5 82.7227C1239.34 49.9371 1213.07 32.115 1181.22 28.2334C1110.43 19.6156 1021.35 81.0317 918.205 152.149C790.443 240.242 645.779 339.995 490.083 339.992C488.848 339.992 487.602 339.984 486.359 339.969C408.773 339.174 337.068 313.921 267.143 262.755C206.954 218.722 145.434 197.169 79.0583 196.866C78.597 196.863 78.1436 196.863 77.6823 196.863C51.7007 196.863 25.8066 200.206 0.0118408 206.239V205.005C25.7914 199.017 51.6815 195.698 77.6785 195.698Z" fill="url(#paint25_linear_789_5214)"/>
<path d="M62.1414 194.82C62.6407 194.82 63.1628 194.822 63.6622 194.825C130.854 195.14 192.827 216.026 253.127 258.666C359.28 333.733 473.418 351.479 602.068 312.921C714.007 279.37 820.762 208.26 914.949 145.522C1021.99 74.2253 1114.4 12.6514 1187.46 21.8031C1219.72 25.8477 1246.1 43.3358 1268.1 75.2799C1284.82 99.5634 1314.31 116.912 1355.74 126.834C1446.16 148.491 1597 135.689 1805 88.8759V90.1356C1731.82 106.622 1665.65 118.942 1607.33 126.913C1499 141.722 1414.17 142.071 1355.19 127.941C1313.31 117.911 1283.5 100.365 1266.57 75.7848C1244.83 44.2063 1218.85 26.9259 1187.17 22.955C1114.97 13.9085 1022.84 75.2904 916.135 146.366C821.849 209.176 714.972 280.361 602.754 313.994C473.38 352.767 358.628 334.943 251.926 259.484C191.962 217.076 130.377 196.308 63.6622 195.992C63.1553 195.992 62.656 195.99 62.1566 195.99C41.4125 195.99 20.6949 198.023 0.015625 201.768V200.555C20.6759 196.834 41.3934 194.82 62.1414 194.82Z" fill="url(#paint26_linear_789_5214)"/>
<path d="M237.662 255.545C344.642 328.616 460.58 345.287 592.089 306.51C706.509 272.77 816.18 202.145 912.941 139.837C1023.63 68.5592 1119.22 7.0116 1193.64 16.5761C1225.7 20.6997 1251.78 37.6565 1273.36 68.4067C1302.76 110.291 1372.51 130.233 1480.67 127.737C1564.62 125.778 1673.6 110.205 1805 81.4215V82.6522C1673.68 111.398 1564.73 126.948 1480.73 128.905C1371.83 131.432 1301.56 111.256 1271.85 68.9169C1250.51 38.5191 1224.83 21.7752 1193.34 17.7227C1119.75 8.26338 1024.46 69.6269 914.103 140.692C817.24 203.068 707.451 273.764 592.76 307.583C546.648 321.179 502.464 327.998 459.886 327.996C380.374 327.993 306.504 304.207 236.477 256.376C157.571 202.481 78.6276 188.152 0.0118408 198.431V197.156C78.9554 186.879 158.292 201.329 237.662 255.545Z" fill="url(#paint27_linear_789_5214)"/>
<path d="M221.965 252.593C329.818 323.7 447.585 339.302 582.014 300.284C698.958 266.347 811.591 196.184 910.966 134.278C1025.4 62.9954 1124.24 1.42938 1200.02 11.4252C1231.84 15.6197 1257.62 32.0454 1278.8 61.6384C1308.13 102.608 1378.83 121.769 1488.97 118.547C1571.3 116.143 1677.43 101.169 1805 73.9984V75.2239C1677.51 102.358 1571.41 117.308 1489.04 119.709C1378.19 122.944 1306.94 103.576 1277.29 62.1512C1256.35 32.908 1230.97 16.6901 1199.7 12.5692C1124.74 2.6759 1026.2 64.0684 912.102 135.141C812.628 197.109 699.88 267.343 582.67 301.36C447.558 340.575 329.181 324.894 220.799 253.437C147.557 205.151 73.8094 189.833 0.00805664 196.005V194.75C74.1488 188.581 148.282 204.01 221.965 252.593Z" fill="url(#paint28_linear_789_5214)"/>
<path d="M206.031 249.776C314.803 318.947 434.461 333.482 571.859 294.219C691.384 260.066 807.02 190.329 909.052 128.805C1027.31 57.4986 1129.43 -4.07529 1206.61 6.30975C1238.19 10.5647 1263.64 26.4697 1284.43 54.9319C1313.7 95.0021 1385.4 113.35 1497.55 109.44C1578.18 106.636 1681.37 92.2539 1805 66.6292V67.8521C1681.46 93.4399 1578.29 107.801 1497.64 110.61C1384.76 114.531 1312.52 95.9803 1282.92 55.4605C1262.39 27.3428 1237.32 11.6403 1206.28 7.45897C1129.93 -2.83929 1028.09 58.5821 910.158 129.689C808.031 191.271 692.28 261.073 572.503 295.303C434.43 334.763 314.181 320.149 204.88 250.641C137.258 207.639 68.8044 191.805 0.00415039 194.479V193.233C69.1475 190.558 137.978 206.497 206.031 249.776Z" fill="url(#paint29_linear_789_5214)"/>
<path d="M189.842 247.112C299.582 314.368 421.177 327.846 561.602 288.318C683.745 253.931 802.45 184.601 907.177 123.433C1029.35 52.0705 1134.86 -9.56121 1213.42 1.23408C1244.73 5.53641 1269.87 20.9259 1290.26 48.2889C1319.48 87.4701 1392.19 105.013 1506.41 100.414C1585.26 97.2398 1685.43 83.4334 1805 59.2998V60.5122C1685.51 84.6116 1585.37 98.4022 1506.5 101.574C1494.6 102.055 1483.17 102.289 1472.17 102.289C1376.89 102.289 1315.25 84.346 1288.76 48.8149C1268.61 21.7938 1243.86 6.60147 1213.09 2.3754C1135.35 -8.30944 1030.11 53.154 908.26 124.316C803.433 185.543 684.625 254.935 562.234 289.393C421.161 329.108 298.983 315.565 188.714 247.979C126.676 209.953 63.6202 194.021 0.00415039 193.774V192.538C63.9595 192.801 127.393 208.832 189.842 247.112Z" fill="url(#paint30_linear_789_5214)"/>
<defs>
<linearGradient id="paint0_linear_789_5214" x1="1768.12" y1="247.552" x2="102.173" y2="389.438" gradientUnits="userSpaceOnUse">
<stop stop-color="#427DFF"/>
<stop offset="1" stop-color="#081225" stop-opacity="0.1"/>
</linearGradient>
<linearGradient id="paint1_linear_789_5214" x1="1767.51" y1="241.002" x2="73.7757" y2="385.136" gradientUnits="userSpaceOnUse">
<stop stop-color="#427DFF"/>
<stop offset="1" stop-color="#081225" stop-opacity="0.1"/>
</linearGradient>
<linearGradient id="paint2_linear_789_5214" x1="1766.87" y1="234.567" x2="44.4402" y2="381.154" gradientUnits="userSpaceOnUse">
<stop stop-color="#427DFF"/>
<stop offset="1" stop-color="#081225" stop-opacity="0.1"/>
</linearGradient>
<linearGradient id="paint3_linear_789_5214" x1="1766.22" y1="228.245" x2="14.3803" y2="377.439" gradientUnits="userSpaceOnUse">
<stop stop-color="#427DFF"/>
<stop offset="1" stop-color="#081225" stop-opacity="0.1"/>
</linearGradient>
<linearGradient id="paint4_linear_789_5214" x1="1765.54" y1="222.007" x2="-16.9289" y2="374.061" gradientUnits="userSpaceOnUse">
<stop stop-color="#427DFF"/>
<stop offset="1" stop-color="#081225" stop-opacity="0.1"/>
</linearGradient>
<linearGradient id="paint5_linear_789_5214" x1="1764.84" y1="215.871" x2="-49.3779" y2="371.013" gradientUnits="userSpaceOnUse">
<stop stop-color="#427DFF"/>
<stop offset="1" stop-color="#081225" stop-opacity="0.1"/>
</linearGradient>
<linearGradient id="paint6_linear_789_5214" x1="1764.17" y1="209.734" x2="-80.2091" y2="367.955" gradientUnits="userSpaceOnUse">
<stop stop-color="#427DFF"/>
<stop offset="1" stop-color="#081225" stop-opacity="0.1"/>
</linearGradient>
<linearGradient id="paint7_linear_789_5214" x1="1764.17" y1="198.997" x2="-78.5382" y2="366.553" gradientUnits="userSpaceOnUse">
<stop stop-color="#427DFF"/>
<stop offset="1" stop-color="#081225" stop-opacity="0.1"/>
</linearGradient>
<linearGradient id="paint8_linear_789_5214" x1="1764.17" y1="188.048" x2="-76.3657" y2="367.026" gradientUnits="userSpaceOnUse">
<stop stop-color="#427DFF"/>
<stop offset="1" stop-color="#081225" stop-opacity="0.1"/>
</linearGradient>
<linearGradient id="paint9_linear_789_5214" x1="1764.17" y1="177.11" x2="-73.6479" y2="369.452" gradientUnits="userSpaceOnUse">
<stop stop-color="#427DFF"/>
<stop offset="1" stop-color="#081225" stop-opacity="0.1"/>
</linearGradient>
<linearGradient id="paint10_linear_789_5214" x1="1764.17" y1="166.381" x2="-70.3202" y2="373.825" gradientUnits="userSpaceOnUse">
<stop stop-color="#427DFF"/>
<stop offset="1" stop-color="#081225" stop-opacity="0.1"/>
</linearGradient>
<linearGradient id="paint11_linear_789_5214" x1="1764.15" y1="156.438" x2="-66.8905" y2="378.353" gradientUnits="userSpaceOnUse">
<stop stop-color="#427DFF"/>
<stop offset="1" stop-color="#081225" stop-opacity="0.1"/>
</linearGradient>
<linearGradient id="paint12_linear_789_5214" x1="1764.17" y1="149.647" x2="-66.4453" y2="373.316" gradientUnits="userSpaceOnUse">
<stop stop-color="#427DFF"/>
<stop offset="1" stop-color="#081225" stop-opacity="0.1"/>
</linearGradient>
<linearGradient id="paint13_linear_789_5214" x1="1764.17" y1="142.947" x2="-66.0297" y2="368.319" gradientUnits="userSpaceOnUse">
<stop stop-color="#427DFF"/>
<stop offset="1" stop-color="#081225" stop-opacity="0.1"/>
</linearGradient>
<linearGradient id="paint14_linear_789_5214" x1="1764.17" y1="136.349" x2="-65.6173" y2="363.33" gradientUnits="userSpaceOnUse">
<stop stop-color="#427DFF"/>
<stop offset="1" stop-color="#081225" stop-opacity="0.1"/>
</linearGradient>
<linearGradient id="paint15_linear_789_5214" x1="1764.17" y1="129.871" x2="-65.2275" y2="358.41" gradientUnits="userSpaceOnUse">
<stop stop-color="#427DFF"/>
<stop offset="1" stop-color="#081225" stop-opacity="0.1"/>
</linearGradient>
<linearGradient id="paint16_linear_789_5214" x1="1764.17" y1="123.505" x2="-64.8483" y2="353.502" gradientUnits="userSpaceOnUse">
<stop stop-color="#427DFF"/>
<stop offset="1" stop-color="#081225" stop-opacity="0.1"/>
</linearGradient>
<linearGradient id="paint17_linear_789_5214" x1="1764.17" y1="117.218" x2="-64.4943" y2="348.611" gradientUnits="userSpaceOnUse">
<stop stop-color="#427DFF"/>
<stop offset="1" stop-color="#081225" stop-opacity="0.1"/>
</linearGradient>
<linearGradient id="paint18_linear_789_5214" x1="1764.17" y1="111.056" x2="-64.1605" y2="343.759" gradientUnits="userSpaceOnUse">
<stop stop-color="#427DFF"/>
<stop offset="1" stop-color="#081225" stop-opacity="0.1"/>
</linearGradient>
<linearGradient id="paint19_linear_789_5214" x1="1764.17" y1="104.97" x2="-63.8418" y2="338.886" gradientUnits="userSpaceOnUse">
<stop stop-color="#427DFF"/>
<stop offset="1" stop-color="#081225" stop-opacity="0.1"/>
</linearGradient>
<linearGradient id="paint20_linear_789_5214" x1="1764.17" y1="98.9993" x2="-63.5492" y2="334.052" gradientUnits="userSpaceOnUse">
<stop stop-color="#427DFF"/>
<stop offset="1" stop-color="#081225" stop-opacity="0.1"/>
</linearGradient>
<linearGradient id="paint21_linear_789_5214" x1="1764.17" y1="93.0974" x2="-63.2772" y2="329.188" gradientUnits="userSpaceOnUse">
<stop stop-color="#427DFF"/>
<stop offset="1" stop-color="#081225" stop-opacity="0.1"/>
</linearGradient>
<linearGradient id="paint22_linear_789_5214" x1="1764.17" y1="87.313" x2="-63.0292" y2="324.345" gradientUnits="userSpaceOnUse">
<stop stop-color="#427DFF"/>
<stop offset="1" stop-color="#081225" stop-opacity="0.1"/>
</linearGradient>
<linearGradient id="paint23_linear_789_5214" x1="1764.17" y1="81.604" x2="-62.7992" y2="319.475" gradientUnits="userSpaceOnUse">
<stop stop-color="#427DFF"/>
<stop offset="1" stop-color="#081225" stop-opacity="0.1"/>
</linearGradient>
<linearGradient id="paint24_linear_789_5214" x1="1764.17" y1="75.969" x2="-62.6052" y2="314.587" gradientUnits="userSpaceOnUse">
<stop stop-color="#427DFF"/>
<stop offset="1" stop-color="#081225" stop-opacity="0.1"/>
</linearGradient>
<linearGradient id="paint25_linear_789_5214" x1="1764.17" y1="70.4252" x2="-62.4352" y2="309.681" gradientUnits="userSpaceOnUse">
<stop stop-color="#427DFF"/>
<stop offset="1" stop-color="#081225" stop-opacity="0.1"/>
</linearGradient>
<linearGradient id="paint26_linear_789_5214" x1="1764.17" y1="64.9584" x2="-62.282" y2="304.774" gradientUnits="userSpaceOnUse">
<stop stop-color="#427DFF"/>
<stop offset="1" stop-color="#081225" stop-opacity="0.1"/>
</linearGradient>
<linearGradient id="paint27_linear_789_5214" x1="1764.17" y1="59.5719" x2="-62.1723" y2="299.813" gradientUnits="userSpaceOnUse">
<stop stop-color="#427DFF"/>
<stop offset="1" stop-color="#081225" stop-opacity="0.1"/>
</linearGradient>
<linearGradient id="paint28_linear_789_5214" x1="1764.17" y1="54.2755" x2="-62.0903" y2="294.837" gradientUnits="userSpaceOnUse">
<stop stop-color="#427DFF"/>
<stop offset="1" stop-color="#081225" stop-opacity="0.1"/>
</linearGradient>
<linearGradient id="paint29_linear_789_5214" x1="1764.17" y1="49.0419" x2="-62.0392" y2="289.81" gradientUnits="userSpaceOnUse">
<stop stop-color="#427DFF"/>
<stop offset="1" stop-color="#081225" stop-opacity="0.1"/>
</linearGradient>
<linearGradient id="paint30_linear_789_5214" x1="1764.17" y1="43.8619" x2="-62.0124" y2="284.73" gradientUnits="userSpaceOnUse">
<stop stop-color="#427DFF"/>
<stop offset="1" stop-color="#081225" stop-opacity="0.1"/>
</linearGradient>
</defs>
</svg>
