<svg width="297" height="371" viewBox="0 0 297 371" fill="none" xmlns="http://www.w3.org/2000/svg">
<g filter="url(#filter0_d_1245_18067)">
<path d="M50 378.512L269.705 379.649L320.039 379.907L297.715 335.259L274.693 315.028L243.3 305.261L228.768 285.497H162.723L136.848 307.061L98.1365 319.618L75.5194 340.84L74.9821 341.635L50.6838 377.507L50 378.512Z" fill="#1F3C88"/>
<path opacity="0.1" d="M50.687 377.507L67.4998 375.722L107.035 349.679L156.448 342.235L171.796 320.958L174.007 305.491L194.072 300.424L201.836 285.497H162.726L136.851 307.061L98.1397 319.618L75.5227 340.84L74.9853 341.635L50.687 377.507Z" fill="#DEE5F8"/>
<path d="M227.835 318.516L260.392 337.585L269.705 379.649L320.039 379.907L297.715 335.259L274.693 315.028L243.3 305.261L228.768 285.497L227.835 318.516Z" fill="#102048"/>
<path d="M175.529 278.104L175.468 272.676L183.332 273.232L183.559 277.718C181.053 278.238 178.202 278.37 175.529 278.104Z" fill="#F9B384"/>
<path d="M167.016 285.468C169.148 281.976 172.063 280.811 175.544 280.37L175.528 278.104C178.201 278.37 181.052 278.238 183.558 277.718L183.949 285.468H167.016Z" fill="#102048"/>
<path d="M214.565 278.631L215.284 280.275C218.764 280.716 221.88 282.591 224.739 285.466H208.238L206.483 278.651C209.3 279.13 211.987 279.096 214.565 278.631Z" fill="#102048"/>
<path d="M206.485 278.65L205.088 273.229L212.041 272.858L214.566 278.63C211.989 279.095 209.302 279.129 206.485 278.65Z" fill="#F9B384"/>
<path d="M171.9 193.783C167.759 220.728 168.933 247.55 174.681 274.619H184.569C183.388 257.05 182.486 236.165 185.249 222.335L204.113 274.851H214.913L197.114 200.087L190.996 188.097L176.658 186.367L171.9 193.783Z" fill="#000020"/>
<path d="M158.734 136.311L156.077 128.339L148.883 130.019C148.341 132.689 151.573 136.739 153.976 139.772L158.734 136.311Z" fill="#F9B384"/>
<path d="M182.995 164.768L191.279 164.864L192.102 154.014L192.198 152.717L183.877 152.642L183.581 156.758L182.995 164.768Z" fill="#F9B384"/>
<path d="M183.627 156.011C186.339 157.947 189.885 156.741 192.102 154.015L192.198 152.717L183.877 152.642L183.627 156.011Z" fill="#102048"/>
<path d="M185.56 155.102C189.764 156.062 194.457 153.366 196.309 149.785L196.56 143.357L194.207 140.02L184.197 140.882C184.244 140.893 184.238 141.033 184.197 141.272C184.081 141.895 183.696 143.223 183.341 144.824C182.468 148.72 181.769 154.234 185.56 155.102Z" fill="#F9B384"/>
<path d="M192.6 160.66C192.6 160.66 186.42 165.604 181.043 158.559L170.846 192.426C177.09 196.837 184.983 198.361 194.454 197.123L192.6 160.66Z" fill="white"/>
<g opacity="0.3">
<path d="M191.277 164.862C190.422 165.171 189.546 165.359 188.673 165.454C187.799 165.543 186.92 165.523 186.071 165.35C185.224 165.184 184.386 164.917 183.617 164.492C183.212 164.314 182.861 164.043 182.476 163.816C182.097 163.577 181.767 163.274 181.382 163.019C181.666 163.371 181.961 163.725 182.285 164.052C182.637 164.345 182.966 164.681 183.373 164.909C184.137 165.446 185.042 165.769 185.958 165.958C187.805 166.313 189.777 165.9 191.277 164.862Z" fill="#1F3C88"/>
</g>
<path d="M159.014 134.827C164.605 144.268 170.059 152.565 174.988 156.519C175.72 157.105 176.653 157.368 177.589 157.32C179.443 157.224 181.356 157.45 183.487 157.956C183.04 174.898 181.433 190.591 175.669 200.212C172.198 199.211 167.986 197.601 165.658 195.639C167.555 189.201 169.798 179.971 171.467 171.907L152.988 138.906L159.014 134.827Z" fill="#1F3C88"/>
<path d="M183.34 144.824C189.703 148.446 194.992 141.847 194.992 141.847L184.196 141.272C184.08 141.895 183.696 143.223 183.34 144.824Z" fill="#E28B6D"/>
<path d="M194.89 148.545C194.11 147.536 193.753 145.841 194.457 142.427C192.14 145.049 188.693 145.662 183.642 143.416C183.642 143.416 180.357 142.13 181.108 138.781C181.788 135.753 184.322 134.146 186.3 136.618C190.787 135.308 195.199 135.073 197.176 139.152C197.176 139.152 203.48 142.427 198.104 147.742L194.89 148.545Z" fill="#102048"/>
<path d="M204.08 218.524L205.166 218.282L204.033 213.206L211.522 211.384L212.515 216.016L213.603 215.783L212.37 210.033L202.71 212.383L204.08 218.524Z" fill="#1F3C88"/>
<path d="M208.484 202.519C208.67 202.777 209.349 208.004 209.349 208.004C209.349 208.004 212.377 210.843 210.338 212.585C208.299 214.327 205.826 214.263 204.652 212.972C204.243 211.711 204.212 210.235 204.714 208.456L203.54 202.648L208.484 202.519Z" fill="#F9B384"/>
<path d="M198.536 218.165L201.525 230.824L202.674 235.712L222.082 228.422L219.523 217.75L218.307 212.662L198.536 218.165Z" fill="#ACBFEE"/>
<path d="M144.154 133.992L154.459 140.24L154.921 136.617L147.152 131.907L144.154 133.992Z" fill="#6F3428"/>
<path d="M149.716 133.466L152.358 135.068L158.631 126.152L154.72 123.781L149.716 133.466Z" fill="#BB9132"/>
<path d="M154.19 123.468L159.154 126.478C160.265 127.151 161.702 126.908 162.531 125.907L170.837 115.862L158.198 108.2L153.134 120.21C152.629 121.408 153.078 122.795 154.19 123.468Z" fill="#FBC343"/>
<path d="M154.797 117.127L155.481 116.842C153.574 112.251 153.907 108.52 155.308 107.698C156.038 107.27 157.047 107.775 158.078 109.082L158.661 108.623C156.834 106.308 155.445 106.757 154.933 107.058C153.226 108.06 152.709 112.1 154.797 117.127Z" fill="#FBC343"/>
<path d="M164.687 123.133C170.11 122.659 173.453 120.332 173.552 118.355C173.581 117.762 173.338 116.323 170.44 115.774L170.302 116.503C171.939 116.813 172.853 117.474 172.811 118.318C172.73 119.942 169.576 121.961 164.623 122.394L164.687 123.133Z" fill="#FBC343"/>
<path opacity="0.6" d="M160.083 114.704C160.518 113.95 160.496 113.123 160.034 112.855C159.571 112.588 158.843 112.983 158.408 113.737C157.972 114.491 157.995 115.318 158.457 115.586C158.92 115.853 159.648 115.458 160.083 114.704Z" fill="white"/>
<path d="M148.889 129.829C148.708 131.114 149.52 132.261 151.234 132.261C152.304 132.261 153.804 130.793 154.12 129.049C154.38 127.611 153.828 126.668 152.812 126.249C151.77 125.82 149.229 127.405 148.889 129.829Z" fill="#F9B384"/>
<path d="M181.676 106.464L182.026 107.575L173.003 110.418L172.653 109.307L181.676 106.464Z" fill="#FBC343"/>
<path d="M162.357 94.6323L164.002 103.949L162.855 104.151L161.21 94.8348L162.357 94.6323Z" fill="#FBC343"/>
<path d="M173.718 97.1047L174.698 97.7323L169.598 105.7L168.618 105.072L173.718 97.1047Z" fill="#FBC343"/>
<path d="M197.792 181.798L199.276 204.17C190.994 203.799 185.432 201.08 185.432 201.08C184.713 187.727 186.428 172.786 191.713 159.349C205.136 164.337 208.921 180.864 210.913 205.424L203.05 206.336L197.792 181.798Z" fill="#1F3C88"/>
<path d="M194.766 150.775C197.291 151.676 198.906 151.472 199.04 149.059C199.117 147.674 197.69 146.57 196.432 147.155C195.887 147.409 195.377 147.89 194.89 148.551L194.766 150.775Z" fill="#F9B384"/>
<path opacity="0.15" d="M201.525 230.829L202.674 235.717L222.082 228.427L219.523 217.755C217.135 222.694 212.085 228.82 201.525 230.829Z" fill="#102048"/>
<path d="M173.15 164.273C172.816 165.335 172.526 166.407 172.245 167.48C171.956 168.552 171.702 169.632 171.448 170.712C171.2 171.794 170.962 172.877 170.751 173.967C170.541 175.057 170.335 176.148 170.184 177.252L170.466 177.316C170.809 176.257 171.097 175.184 171.382 174.111C171.666 173.038 171.922 171.959 172.168 170.877C172.409 169.794 172.649 168.711 172.855 167.62C173.069 166.531 173.272 165.439 173.433 164.338L173.15 164.273Z" fill="#102048"/>
<path d="M197.403 174.262C197.366 175.338 197.373 176.411 197.39 177.484C197.399 178.558 197.443 179.629 197.489 180.701C197.539 181.772 197.6 182.843 197.688 183.912C197.778 184.982 197.872 186.051 198.021 187.117L198.311 187.103C198.357 186.027 198.348 184.954 198.335 183.881C198.321 182.808 198.279 181.736 198.226 180.665C198.168 179.594 198.11 178.523 198.015 177.454C197.929 176.385 197.833 175.316 197.693 174.249L197.403 174.262Z" fill="#102048"/>
<path d="M196.278 149.435C196.407 149.253 196.528 149.067 196.656 148.894C196.787 148.725 196.908 148.551 197.057 148.432C197.201 148.302 197.332 148.242 197.469 148.278C197.622 148.298 197.775 148.462 197.946 148.599L198.089 148.508C197.994 148.292 197.883 148.051 197.595 147.921C197.296 147.786 196.951 147.937 196.774 148.109C196.405 148.477 196.206 148.909 196.12 149.374L196.278 149.435Z" fill="#102048"/>
<path d="M154.225 130.217C153.955 129.194 154.094 128.271 154.535 128.154C154.977 128.038 155.656 128.516 155.926 129.538C156.197 130.561 156.507 132.034 155.81 132.363C154.576 132.946 154.495 131.24 154.225 130.217Z" fill="#F9B384"/>
</g>
<defs>
<filter id="filter0_d_1245_18067" x="-44.6323" y="-2.28882e-05" width="459.304" height="474.54" filterUnits="userSpaceOnUse" color-interpolation-filters="sRGB">
<feFlood flood-opacity="0" result="BackgroundImageFix"/>
<feColorMatrix in="SourceAlpha" type="matrix" values="0 0 0 0 0 0 0 0 0 0 0 0 0 0 0 0 0 0 127 0" result="hardAlpha"/>
<feOffset/>
<feGaussianBlur stdDeviation="47.3162"/>
<feComposite in2="hardAlpha" operator="out"/>
<feColorMatrix type="matrix" values="0 0 0 0 0.141176 0 0 0 0 0.372549 0 0 0 0 1 0 0 0 0.68 0"/>
<feBlend mode="normal" in2="BackgroundImageFix" result="effect1_dropShadow_1245_18067"/>
<feBlend mode="normal" in="SourceGraphic" in2="effect1_dropShadow_1245_18067" result="shape"/>
</filter>
</defs>
</svg>
