<svg width="297" height="363" viewBox="0 0 297 363" fill="none" xmlns="http://www.w3.org/2000/svg">
<g filter="url(#filter0_d_1245_17913)">
<path d="M255.714 227.003L250.937 223.189C249.863 222.332 249.688 220.767 250.545 219.693L288.124 172.629C288.981 171.555 290.546 171.38 291.62 172.237L296.397 176.051C297.471 176.908 297.646 178.473 296.789 179.547L259.21 226.611C258.353 227.685 256.787 227.86 255.714 227.003Z" fill="white"/>
<path d="M330.762 203.509L295.453 175.316L254.768 226.27L290.077 254.463L330.762 203.509Z" fill="#93D7FF"/>
<path d="M258.397 239.433L258.028 233.994L252.642 234.837L257.658 228.555L263.414 233.151L258.397 239.433Z" fill="#D2428F"/>
<path d="M299.499 214.826C299.358 214.826 299.219 214.81 299.08 214.778C297.879 214.497 297.119 213.067 296.885 210.642C296.671 208.429 296.925 205.623 297.599 202.741C298.857 197.368 301.624 192.003 304.27 192.613C306.917 193.233 307.008 199.277 305.75 204.65C305.075 207.532 304.057 210.159 302.882 212.046C301.745 213.876 300.583 214.826 299.499 214.826ZM303.852 193.565C302.359 193.565 299.91 197.263 298.573 202.969C297.922 205.747 297.676 208.438 297.88 210.545C298.061 212.419 298.595 213.637 299.307 213.804C300.024 213.967 301.039 213.116 302.034 211.518C303.153 209.72 304.128 207.2 304.779 204.422C306.174 198.465 305.51 193.93 304.043 193.586C303.981 193.572 303.918 193.565 303.852 193.565Z" fill="#090929"/>
<path d="M295.037 209.28C292.783 209.28 291.383 208.698 290.979 207.589C290.049 205.034 295.058 201.65 300.243 199.762C305.427 197.874 311.44 197.247 312.37 199.801C312.792 200.96 312.011 202.378 310.11 203.902C308.375 205.293 305.888 206.616 303.107 207.628C300.326 208.641 297.57 209.226 295.347 209.276C295.242 209.279 295.139 209.28 295.037 209.28ZM300.586 200.702C294.837 202.795 291.404 205.831 291.919 207.248C292.169 207.935 293.447 208.322 295.325 208.278C297.441 208.23 300.084 207.666 302.765 206.69C305.447 205.714 307.833 204.447 309.485 203.123C310.954 201.945 311.682 200.832 311.431 200.144C310.916 198.728 306.334 198.61 300.586 200.702Z" fill="#090929"/>
<path d="M308.169 212.278C307.342 212.278 306.313 211.986 305.109 211.402C303.109 210.432 300.845 208.754 298.737 206.676C294.807 202.804 291.659 197.643 293.567 195.706C294.431 194.827 296.048 194.924 298.241 195.988C300.241 196.958 302.505 198.636 304.613 200.714C308.543 204.587 311.691 209.747 309.783 211.684C309.393 212.081 308.849 212.278 308.169 212.278ZM295.184 196.115C294.783 196.115 294.474 196.212 294.28 196.409C293.223 197.482 295.082 201.671 299.44 205.965C301.473 207.968 303.641 209.579 305.546 210.503C307.241 211.325 308.558 211.504 309.072 210.983C310.129 209.91 308.27 205.721 303.912 201.427C301.879 199.425 299.711 197.813 297.806 196.889C296.751 196.377 295.843 196.115 295.184 196.115Z" fill="#090929"/>
<path d="M291.652 203.767C291.434 204.696 292.011 205.625 292.94 205.843C293.869 206.061 294.798 205.484 295.016 204.555C295.233 203.626 294.657 202.697 293.728 202.479C292.799 202.261 291.87 202.838 291.652 203.767Z" fill="white"/>
<path d="M286.407 239.839L269.81 226.587C269.18 226.084 269.077 225.166 269.58 224.536L272.697 220.632C273.2 220.002 274.118 219.899 274.748 220.402L291.345 233.654C291.975 234.157 292.078 235.075 291.575 235.705L288.458 239.609C287.955 240.239 287.037 240.341 286.407 239.839Z" fill="white"/>
<path d="M293.015 232.4C292.906 232.4 292.796 232.364 292.703 232.291L275.236 218.344C275.02 218.172 274.985 217.857 275.157 217.641C275.329 217.425 275.644 217.39 275.86 217.562L293.327 231.509C293.543 231.681 293.578 231.996 293.406 232.212C293.307 232.336 293.162 232.4 293.015 232.4Z" fill="#090929"/>
<path d="M294.976 229.944C294.867 229.944 294.757 229.908 294.665 229.835L277.198 215.888C276.982 215.716 276.947 215.401 277.119 215.185C277.292 214.97 277.606 214.934 277.822 215.106L295.289 229.053C295.505 229.225 295.54 229.54 295.368 229.756C295.268 229.88 295.123 229.944 294.976 229.944Z" fill="#090929"/>
<path d="M72.4713 243.532C69.8913 239.65 64.6523 238.594 60.7703 241.175C56.8883 243.755 55.8322 248.994 58.4132 252.876L72.4713 243.532Z" fill="#999999"/>
<path d="M132.518 254.478C132.518 254.478 110.849 221.875 109.075 219.205C106.495 215.323 101.256 214.267 97.3735 216.848L60.7705 241.175C64.6525 238.595 69.8915 239.65 72.4715 243.532C76.9745 250.308 93.3055 274.879 95.9145 278.805C98.4945 282.687 103.734 283.743 107.616 281.162C113.822 277.037 144.219 256.835 144.219 256.835" fill="white"/>
<path d="M107.615 281.163C111.497 278.583 112.553 273.344 109.972 269.462L146.575 245.135C149.155 249.017 148.1 254.256 144.218 256.836L107.615 281.163Z" fill="#999999"/>
<path d="M89.4342 254.305C89.2722 254.305 89.1132 254.227 89.0172 254.081C88.8642 253.852 88.9272 253.541 89.1572 253.389L112.842 237.648C113.072 237.495 113.382 237.556 113.535 237.788C113.688 238.018 113.625 238.328 113.395 238.48L89.7102 254.221C89.6252 254.278 89.5292 254.305 89.4342 254.305Z" fill="#090929"/>
<path d="M94.4 261.778C94.238 261.778 94.079 261.7 93.983 261.554C93.83 261.325 93.893 261.014 94.123 260.862L117.808 245.121C118.038 244.968 118.347 245.029 118.501 245.261C118.654 245.49 118.591 245.801 118.361 245.953L94.676 261.694C94.591 261.751 94.495 261.778 94.4 261.778Z" fill="#090929"/>
<path d="M99.3658 269.251C99.2038 269.251 99.0448 269.173 98.9488 269.027C98.7958 268.798 98.8588 268.487 99.0888 268.335L122.774 252.594C123.003 252.441 123.314 252.502 123.467 252.734C123.62 252.963 123.557 253.274 123.327 253.426L99.6418 269.167C99.5568 269.223 99.4618 269.251 99.3658 269.251Z" fill="#090929"/>
<path d="M92.7838 240.262C92.7498 240.262 92.7158 240.259 92.6808 240.251C92.4098 240.194 92.2378 239.93 92.2938 239.659L94.7898 227.76C94.8458 227.49 95.1138 227.314 95.3818 227.373C95.6528 227.43 95.8248 227.694 95.7688 227.965L93.2728 239.864C93.2228 240.1 93.0148 240.262 92.7838 240.262Z" fill="#DA445A"/>
<path d="M99.9806 235.56C99.9466 235.56 99.9126 235.557 99.8776 235.549L87.9776 233.054C87.7066 232.997 87.5346 232.733 87.5906 232.462C87.6476 232.191 87.9146 232.016 88.1826 232.075L100.083 234.57C100.354 234.627 100.526 234.891 100.47 235.162C100.421 235.398 100.213 235.56 99.9806 235.56Z" fill="#DA445A"/>
<path d="M263.288 171.429C263.706 170.932 264.235 170.654 264.875 170.588C265.513 170.525 266.462 170.638 267.716 170.93C268.972 171.222 269.817 171.709 270.252 172.39C270.686 173.07 270.767 173.999 270.491 175.182L270.329 175.876C270.168 176.566 270.026 177.075 269.906 177.397C269.785 177.718 269.555 178.084 269.217 178.492C268.56 179.223 267.359 179.381 265.614 178.975C263.869 178.569 262.781 178.018 262.347 177.327C261.916 176.633 261.888 175.479 262.265 173.862C262.528 172.734 262.868 171.925 263.288 171.429ZM270.262 167.739C269.681 167.756 268.928 167.655 268.005 167.44C267.08 167.225 266.36 166.983 265.846 166.711C265.332 166.439 265.01 166.089 264.882 165.662C264.752 165.238 264.699 164.877 264.724 164.578C264.747 164.279 264.83 163.827 264.971 163.221L268.167 149.497C268.308 148.891 268.435 148.442 268.55 148.149C268.663 147.856 268.879 147.55 269.197 147.23C269.516 146.907 269.967 146.73 270.554 146.699C271.139 146.668 271.893 146.762 272.816 146.977C273.739 147.192 274.457 147.441 274.97 147.727C275.481 148.013 275.799 148.377 275.925 148.818C276.051 149.256 276.099 149.635 276.072 149.948C276.046 150.261 275.961 150.72 275.82 151.326L272.625 165.046C272.484 165.652 272.359 166.094 272.247 166.373C272.136 166.652 271.923 166.944 271.61 167.25C271.291 167.559 270.843 167.722 270.262 167.739Z" fill="#DA445A"/>
<path d="M123.366 221.381C123.278 220.738 123.426 220.159 123.805 219.64C124.186 219.124 124.906 218.496 125.963 217.761C127.022 217.025 127.949 216.724 128.746 216.857C129.542 216.991 130.285 217.553 130.979 218.551L131.386 219.136C131.791 219.718 132.073 220.165 132.231 220.469C132.388 220.774 132.506 221.19 132.581 221.714C132.683 222.691 131.996 223.689 130.525 224.712C129.054 225.735 127.916 226.174 127.113 226.032C126.309 225.886 125.433 225.134 124.486 223.771C123.824 222.82 123.452 222.025 123.366 221.381ZM125.3 213.732C124.923 214.175 124.344 214.666 123.566 215.207C122.787 215.749 122.125 216.121 121.578 216.32C121.032 216.519 120.557 216.524 120.153 216.333C119.752 216.145 119.448 215.943 119.243 215.724C119.037 215.506 118.757 215.142 118.401 214.631L110.357 203.062C110.002 202.551 109.753 202.156 109.613 201.875C109.471 201.595 109.389 201.229 109.364 200.779C109.338 200.326 109.509 199.872 109.879 199.416C110.248 198.961 110.823 198.464 111.601 197.924C112.379 197.383 113.045 197.017 113.601 196.828C114.156 196.641 114.639 196.648 115.051 196.851C115.461 197.051 115.774 197.269 115.988 197.499C116.203 197.729 116.487 198.099 116.842 198.61L124.884 210.176C125.239 210.687 125.484 211.076 125.616 211.345C125.748 211.614 125.822 211.968 125.84 212.405C125.857 212.847 125.677 213.289 125.3 213.732Z" fill="#DA445A"/>
<path d="M241.709 201.409C241.581 201.409 241.454 201.361 241.356 201.264C241.16 201.069 241.159 200.753 241.354 200.557L250.585 191.278L240.172 189.377C240.004 189.347 239.863 189.232 239.799 189.074C239.734 188.916 239.755 188.736 239.854 188.596L248.019 177.059L229.529 178.037C229.392 178.046 229.251 177.992 229.151 177.892C229.051 177.792 228.997 177.656 229.004 177.515L229.792 159.974L217.129 172.691C216.935 172.886 216.618 172.888 216.421 172.693C216.226 172.498 216.225 172.181 216.42 171.985L229.995 158.352C230.141 158.206 230.361 158.164 230.551 158.248C230.74 158.331 230.859 158.521 230.849 158.728L230.027 177.009L248.997 176.006C249.187 175.996 249.369 176.096 249.461 176.264C249.553 176.431 249.542 176.637 249.431 176.794L241.123 188.534L251.7 190.465C251.883 190.498 252.032 190.63 252.087 190.807C252.143 190.984 252.095 191.178 251.964 191.309L242.062 201.262C241.966 201.36 241.837 201.409 241.709 201.409Z" fill="white"/>
<path d="M153.3 214.089C153.218 214.089 153.135 214.069 153.059 214.026L142.354 208.116C142.185 208.023 142.085 207.842 142.097 207.65C142.108 207.458 142.228 207.289 142.406 207.216L155.755 201.716L143.884 192.637C143.737 192.525 143.664 192.34 143.695 192.157C143.726 191.974 143.855 191.824 144.031 191.765L156.318 187.694C156.578 187.609 156.863 187.749 156.95 188.011C157.037 188.273 156.895 188.556 156.633 188.643L145.243 192.417L157.054 201.449C157.196 201.557 157.269 201.734 157.246 201.911C157.223 202.088 157.106 202.24 156.941 202.308L143.751 207.742L153.544 213.149C153.786 213.282 153.874 213.587 153.74 213.828C153.647 213.996 153.476 214.089 153.3 214.089Z" fill="white"/>
<path d="M224.967 125.049C223.652 131.06 219.954 136.809 215.33 141.433C210.812 145.952 204.88 149.151 199.242 151.438C192.589 154.136 185.834 155.323 180.681 153.551C176.087 151.97 171.666 148.828 168.073 144.905C164.612 141.126 161.571 136.589 159.599 132.079C157.273 126.757 156.454 121.203 157.037 117.009C157.741 111.942 161.417 105.975 166.729 101.024C171.229 96.8292 177.087 93.4192 182.649 90.9382C189.292 87.9752 195.885 87.1012 200.821 88.9212C205.128 90.5092 209.425 93.5242 213.032 97.6082C216.401 101.423 219.208 105.959 221.271 110.329C223.927 115.954 225.749 121.475 224.967 125.049Z" fill="#245FFF" fill-opacity="0.88"/>
<path d="M198.411 168.225C201.849 168.225 204.637 165.438 204.637 161.999C204.637 158.561 201.849 155.773 198.411 155.773C194.972 155.773 192.185 158.561 192.185 161.999C192.185 165.438 194.972 168.225 198.411 168.225Z" fill="#245FFF" fill-opacity="0.88"/>
<path d="M195.562 176.56C195.562 179.18 193.438 181.304 190.818 181.304C188.198 181.304 186.074 179.18 186.074 176.56C186.074 173.94 188.198 171.816 190.818 171.816C193.438 171.816 195.562 173.94 195.562 176.56Z" fill="#245FFF" fill-opacity="0.88"/>
<path d="M212.297 125.256C214.685 122.566 215.513 119.048 214.492 115.583C213.41 111.912 210.751 108.548 207.75 106.23C204.927 104.05 201.105 102.725 197.803 104.701C197.494 104.886 197.211 105.102 196.932 105.324C196.891 105.318 196.849 105.308 196.809 105.303C195.407 105.128 193.961 105.222 192.621 105.599C191.962 105.632 191.305 105.675 190.653 105.74C188.313 105.972 185.914 106.415 183.582 107.102C182.19 107.192 180.854 107.611 179.605 108.245C179.924 107.863 180.255 107.488 180.611 107.131C181.066 106.674 180.359 105.967 179.904 106.424C178.906 107.427 178.046 108.529 177.309 109.703C177.248 109.749 177.187 109.794 177.127 109.842C174.412 111.421 172.021 113.485 170.252 116.145C166.34 122.027 165.881 130.033 169.818 136.017C171.657 138.812 174.3 141.108 177.373 142.448C180.824 143.953 184.61 144.12 188.255 143.249C188.307 143.237 188.358 143.22 188.41 143.207C190.966 143.244 193.438 142.422 195.46 140.701C195.851 140.368 196.224 140.007 196.584 139.629C197.401 139.108 198.191 138.552 198.947 137.966C199.312 137.683 199.669 137.387 200.015 137.079C202.003 136.586 204.012 136.052 205.91 135.276C209.193 133.935 212.544 131.214 212.424 127.314C212.404 126.68 212.267 126.079 212.058 125.504C212.135 125.419 212.22 125.343 212.297 125.256ZM212.661 113.679C214.191 116.715 214.472 120.207 212.625 123.17C212.327 123.648 211.98 124.088 211.613 124.511C211.206 123.751 210.687 123.041 210.136 122.378C209.135 121.175 208.019 120.071 206.848 119.032C206.867 119.011 206.887 118.991 206.906 118.97C207.799 117.972 208.566 116.818 209.104 115.582C210.059 114.934 210.9 114.12 211.214 113.037C211.633 111.593 210.653 110.462 209.556 109.601C209.537 109.54 209.523 109.479 209.502 109.418C209.45 109.267 209.39 109.12 209.329 108.974C210.673 110.387 211.817 112.004 212.661 113.679ZM199.559 136.15C199.403 136.188 199.248 136.23 199.093 136.266C200.061 134.625 200.808 132.851 201.328 131.107C202 130.949 202.665 130.772 203.316 130.567C203.128 131.195 202.881 131.802 202.579 132.371C201.813 133.815 200.76 135.056 199.559 136.15ZM195.177 139.295C193.02 140.56 190.682 141.605 188.244 142.216C186.676 142.152 185.112 141.75 183.705 141.091C182.336 140.449 181.163 139.595 180.147 138.599C181.842 138.802 183.553 138.681 185.219 138.298C187.898 138.65 190.63 138.62 193.311 138.316C194.491 138.182 195.664 137.998 196.83 137.777C196.556 138.137 196.267 138.484 195.964 138.816C195.702 138.978 195.44 139.141 195.177 139.295ZM168.764 122.937C168.865 121.315 169.657 119.866 170.81 118.75C169.824 121.53 169.449 124.517 169.814 127.425C169.119 126.035 168.667 124.497 168.764 122.937ZM170.679 125.102C170.694 122.532 171.284 119.96 172.343 117.598C173.024 117.19 173.743 116.863 174.499 116.627C173.737 119.917 173.599 123.38 173.966 126.679C174.239 129.136 174.81 131.601 175.791 133.881C174.082 132.77 172.544 131.398 171.307 129.782C170.869 128.257 170.67 126.653 170.679 125.102ZM184.774 108.093C185.911 108.204 187.031 108.548 188.108 108.983C187.974 109.215 187.826 109.432 187.715 109.687C187.53 110.114 187.398 110.558 187.311 111.009C187.039 111.027 186.767 111.038 186.497 111.072C183.872 111.4 181.438 112.655 180.27 114.966C178.804 114.936 177.336 115.013 175.894 115.273C176.407 113.578 177.115 111.954 178.031 110.448C179.833 109.447 181.776 108.667 183.771 108.074C184.102 108.06 184.436 108.06 184.774 108.093ZM192.652 106.598C193.14 106.575 193.629 106.56 194.119 106.556C193.94 106.646 193.756 106.731 193.582 106.825C192.49 107.418 191.464 108.134 190.522 108.949C190.228 108.794 189.931 108.648 189.631 108.508C190.452 107.561 191.501 106.949 192.652 106.598ZM200.879 123.667C201.268 125.891 201.089 128.14 200.516 130.297C199.463 130.525 198.397 130.692 197.328 130.783C197.571 130.5 197.813 130.217 198.038 129.924C199.566 127.929 200.623 125.472 200.532 122.999C200.598 122.987 200.663 122.968 200.729 122.953C200.781 123.191 200.838 123.428 200.879 123.667ZM197.661 136.592C194.43 137.271 191.084 137.651 187.789 137.503C188.165 137.356 188.539 137.202 188.906 137.032C191.621 135.773 194.256 133.979 196.394 131.799C197.671 131.749 198.949 131.59 200.206 131.349C199.925 132.201 199.587 133.036 199.197 133.844C198.751 134.768 198.237 135.698 197.661 136.592ZM177.357 134.802C175.707 131.671 174.943 127.974 174.801 124.485C174.69 121.778 174.925 118.995 175.596 116.343C176.991 116.043 178.449 115.951 179.876 115.961C179.83 116.109 179.767 116.243 179.731 116.398C179.359 117.993 179.447 119.627 179.852 121.189C178.78 122.711 177.952 124.401 177.521 126.14C177.081 127.917 177.162 129.87 178.218 131.423C179.101 132.722 180.472 133.612 181.962 134.068C185.487 135.146 189.034 133.546 191.899 131.517C192.896 131.689 193.911 131.786 194.935 131.81C194.199 132.47 193.428 133.084 192.652 133.643C190.439 135.236 187.953 136.609 185.29 137.279C182.544 136.917 179.867 136.136 177.357 134.802ZM187.199 112.006C187.194 112.247 187.209 112.488 187.236 112.728C186.993 113.106 186.762 113.491 186.55 113.886C186.283 114.382 186.041 114.909 185.816 115.446C184.46 115.243 183.095 115.096 181.726 115.021C181.603 115.014 181.479 115.013 181.356 115.007C181.388 114.954 181.413 114.898 181.446 114.845C182.167 113.721 183.317 112.954 184.566 112.524C185.423 112.229 186.307 112.073 187.199 112.006ZM190.623 110.207C190.698 110.249 190.773 110.293 190.847 110.336C190.607 110.572 190.385 110.829 190.16 111.083C190.037 111.069 189.913 111.062 189.79 111.05C190.057 110.76 190.335 110.479 190.623 110.207ZM203.572 105.682C204.71 105.693 205.832 106.082 206.823 107.012C207.319 107.477 207.702 108.008 208.016 108.567C207.264 108.116 206.475 107.731 205.657 107.409C205.132 106.658 204.406 106.08 203.572 105.682ZM205.822 114.812C205.902 114.253 205.932 113.689 205.895 113.127C206.066 112.718 206.209 112.295 206.316 111.864C206.552 112.868 206.304 113.881 205.822 114.812ZM194.711 130.859C194.127 130.841 193.545 130.786 192.965 130.713C195.438 128.788 197.665 126.515 199.497 123.966C199.452 124.604 199.341 125.249 199.129 125.891C198.506 127.778 197.328 129.423 195.925 130.859C195.52 130.869 195.115 130.872 194.711 130.859ZM185.143 127.507C183.22 125.926 181.678 123.813 180.951 121.424C181.03 121.317 181.109 121.208 181.187 121.106C182.274 119.681 183.612 118.418 185.132 117.459C184.694 119.152 184.606 120.916 185.122 122.575C185.066 123.145 185.105 123.718 185.562 124.129C185.704 124.257 185.868 124.352 186.046 124.425C186.512 125.021 187.11 125.502 187.855 125.776C189.67 126.442 191.823 125.683 193.605 125.224C195.294 124.789 197.03 124.244 198.652 123.491C197.842 124.584 196.954 125.613 196.057 126.566C194.754 127.951 193.283 129.335 191.677 130.505C189.302 130.027 187.037 129.066 185.143 127.507ZM190.591 131.246C189.527 131.924 188.413 132.499 187.245 132.895C184.379 133.868 180.581 133.497 178.9 130.633C177.398 128.074 178.682 124.875 180.249 122.444C180.736 123.728 181.426 124.94 182.267 126.004C184.473 128.795 187.395 130.454 190.591 131.246ZM187.633 114.254C187.674 114.349 187.725 114.438 187.771 114.53C187.629 114.787 187.492 115.042 187.362 115.3C187.196 115.356 187.028 115.405 186.864 115.468C187.077 114.995 187.313 114.533 187.57 114.086C187.593 114.141 187.609 114.198 187.633 114.254ZM190.602 112.162C191.405 112.285 192.2 112.454 192.974 112.657C192.923 112.933 192.868 113.21 192.832 113.483C192.784 113.846 192.758 114.216 192.744 114.587C192.698 114.676 192.65 114.763 192.606 114.852C191.441 114.65 190.276 114.649 189.141 114.837C189.065 114.738 188.993 114.637 188.925 114.533C189.387 113.766 189.899 113.03 190.459 112.332C190.504 112.276 190.555 112.219 190.602 112.162ZM191.798 110.882C192.125 111.09 192.432 111.326 192.748 111.551C192.303 111.443 191.856 111.349 191.406 111.268C191.533 111.137 191.663 111.009 191.798 110.882ZM196.829 106.759C196.87 106.716 196.915 106.677 196.958 106.635C197.378 106.663 197.798 106.697 198.217 106.74C197.869 107.024 197.535 107.328 197.215 107.65C196.857 107.602 196.492 107.584 196.121 107.607C196.344 107.31 196.576 107.023 196.829 106.759ZM205.542 110.334C205.536 110.59 205.51 110.848 205.465 111.107C205.416 110.973 205.369 110.838 205.311 110.706C205.108 110.242 204.849 109.817 204.562 109.415C204.931 109.675 205.26 109.986 205.542 110.334ZM197.647 108.695C197.665 108.699 197.682 108.707 197.7 108.712C197.652 108.741 197.599 108.762 197.551 108.792C197.583 108.759 197.615 108.728 197.647 108.695ZM198.852 109.189C201.092 110.475 202.036 112.964 201.973 115.426C200.258 114.386 198.458 113.487 196.58 112.767C196.171 112.611 195.757 112.46 195.339 112.316C195.329 112.307 195.32 112.298 195.31 112.29C196.267 111.031 197.468 109.885 198.852 109.189ZM197.736 121.824C197.716 121.817 197.697 121.809 197.678 121.801C197.846 121.697 198.018 121.598 198.183 121.49C198.474 121.298 198.757 121.093 199.04 120.888C199.071 120.969 199.1 121.05 199.128 121.132C198.67 121.382 198.207 121.615 197.736 121.824ZM194.484 118.732C195.637 119.164 196.778 119.627 197.886 120.163C197.977 120.207 198.066 120.257 198.156 120.302C197.663 120.645 197.156 120.966 196.638 121.269C195.725 120.658 194.987 119.765 194.484 118.732ZM194.249 113.885C194.385 113.65 194.533 113.414 194.687 113.179C194.73 113.193 194.773 113.205 194.816 113.219C195.612 113.944 196.374 114.705 197.055 115.54C197.666 116.289 198.216 117.088 198.709 117.922C198.6 117.929 198.492 117.94 198.382 117.945C197.136 116.595 195.481 115.618 193.717 115.108C193.83 114.798 193.95 114.491 194.079 114.187C194.136 114.087 194.192 113.983 194.249 113.885ZM201.41 117.582C201.198 117.622 200.987 117.67 200.774 117.704C200.457 117.754 200.131 117.793 199.805 117.83C199.048 116.48 198.136 115.22 197.1 114.068C198.752 114.751 200.355 115.566 201.88 116.514C201.844 116.759 201.808 117.005 201.752 117.244C201.641 117.358 201.525 117.469 201.41 117.582ZM193.761 116.21C193.76 116.195 193.76 116.179 193.759 116.165C194.906 116.537 195.987 117.11 196.906 117.891C196.93 117.911 196.948 117.935 196.971 117.955C196.262 117.934 195.555 117.862 194.858 117.748C194.569 117.641 194.281 117.533 193.99 117.432C193.881 117.031 193.803 116.622 193.761 116.21ZM197.917 118.949C197.96 119.002 197.998 119.056 198.039 119.11C197.933 119.058 197.827 119.007 197.72 118.956C197.786 118.955 197.851 118.95 197.917 118.949ZM199.439 119.337C199.347 119.184 199.243 119.04 199.142 118.893C199.175 118.89 199.207 118.886 199.24 118.883C199.314 119.028 199.393 119.17 199.464 119.316C199.456 119.323 199.448 119.33 199.439 119.337ZM200.68 119.601C200.822 119.48 200.96 119.356 201.099 119.232C201.005 119.461 200.919 119.693 200.814 119.919C200.77 119.813 200.725 119.707 200.68 119.601ZM192.982 121.717C192.449 120.73 192.577 119.441 192.82 118.276C192.974 118.324 193.127 118.378 193.283 118.42C193.744 119.755 194.511 120.95 195.634 121.82C195.324 121.979 195.012 122.135 194.694 122.278C194.461 122.383 194.221 122.473 193.983 122.567C193.578 122.433 193.228 122.172 192.982 121.717ZM202.464 118.377C202.681 118.327 202.899 118.285 203.114 118.228C202.835 118.495 202.547 118.752 202.251 119.001C202.326 118.794 202.398 118.586 202.464 118.377ZM202.303 111.693C201.765 110.488 200.937 109.472 199.935 108.751C200.693 108.523 201.496 108.439 202.336 108.546C203.698 109.63 204.697 111.097 204.885 112.939C204.383 114.049 203.666 115.089 202.966 115.921C203.092 114.501 202.918 113.069 202.303 111.693ZM199.963 107.737C199.575 107.837 199.211 107.975 198.853 108.124C198.707 108.058 198.56 107.995 198.41 107.941C198.781 107.608 199.178 107.295 199.598 107.016C200.028 107.18 200.452 107.368 200.86 107.585C200.556 107.616 200.256 107.662 199.963 107.737ZM191.711 116.72C191.604 116.69 191.498 116.657 191.391 116.628C191.275 116.568 191.152 116.52 191.038 116.455C190.668 116.243 190.317 115.995 189.992 115.721C190.708 115.658 191.431 115.68 192.145 115.782C192.005 116.069 191.858 116.385 191.711 116.72ZM188.826 115.999C188.759 115.984 188.691 115.969 188.624 115.955C188.667 115.945 188.708 115.93 188.75 115.92C188.775 115.947 188.8 115.973 188.826 115.999ZM186.716 116.601C186.729 116.603 186.741 116.604 186.754 116.607C186.392 117.446 186.076 118.304 185.821 119.18C185.904 118.371 186.085 117.567 186.346 116.781C186.469 116.72 186.59 116.657 186.716 116.601ZM186.195 122.052C186.476 120.248 187.002 118.48 187.744 116.809C188.915 117.043 190.074 117.33 191.222 117.66C191.253 117.675 191.285 117.687 191.316 117.701C190.594 119.674 190.28 121.898 192.39 122.633C192.398 122.636 192.404 122.633 192.412 122.636C192.523 122.773 192.645 122.89 192.775 122.996C191.817 123.295 190.835 123.518 189.842 123.618C189.058 123.697 188.267 123.712 187.481 123.657C187.25 123.641 186.943 123.643 186.677 123.587C186.441 123.237 186.258 122.856 186.124 122.451C186.148 122.306 186.177 122.169 186.195 122.052ZM194.084 123.592C194.635 123.69 195.225 123.66 195.796 123.55C194.29 124.052 192.737 124.432 191.209 124.77C190.072 125.021 188.874 125.143 187.879 124.674C190.007 124.758 192.104 124.341 194.084 123.592ZM204.219 116.84C204.198 116.847 204.178 116.854 204.157 116.861C204.013 116.758 203.868 116.656 203.723 116.555C204.093 116.114 204.437 115.654 204.758 115.177C204.641 115.749 204.452 116.302 204.219 116.84ZM196.359 108.576C195.581 109.492 194.903 110.485 194.332 111.464C194.305 111.442 194.28 111.42 194.253 111.399C194.528 110.464 194.9 109.56 195.375 108.73C195.699 108.646 196.027 108.594 196.359 108.576ZM193.434 110.779C193.159 110.577 192.879 110.382 192.593 110.19C193.042 109.836 193.518 109.523 194.012 109.265C193.793 109.76 193.596 110.264 193.434 110.779ZM205.003 108.224C205.09 108.37 205.167 108.518 205.232 108.669C204.541 108.192 203.738 107.86 202.899 107.686C202.811 107.618 202.713 107.562 202.623 107.496C203.429 107.695 204.226 107.932 205.003 108.224ZM195.233 107.124C195.06 107.363 194.898 107.611 194.744 107.865C194.603 107.909 194.463 107.95 194.322 108.005C193.361 108.379 192.486 108.938 191.679 109.603C191.604 109.558 191.527 109.516 191.451 109.471C192.599 108.521 193.871 107.722 195.233 107.124ZM189.396 112.02C189.043 112.484 188.711 112.961 188.403 113.453C188.377 113.374 188.346 113.299 188.325 113.218C188.302 113.132 188.292 113.045 188.275 112.958C188.5 112.63 188.732 112.311 188.972 112.006C188.977 111.999 188.983 111.993 188.988 111.987C189.124 111.995 189.26 112.008 189.396 112.02ZM181.152 115.993C182.451 116.047 183.744 116.184 185.032 116.357C184.512 116.658 184.004 116.981 183.525 117.348C182.49 118.14 181.511 119.088 180.645 120.142C180.628 120.043 180.601 119.946 180.587 119.846C180.411 118.575 180.456 117.208 180.891 115.986C180.978 115.99 181.066 115.989 181.152 115.993ZM201.892 121.521C201.885 121.515 201.878 121.511 201.872 121.505C202.424 121.056 202.95 120.574 203.415 120.022C203.844 119.513 204.23 118.957 204.567 118.371C204.855 118.594 205.127 118.833 205.407 119.065C205.296 119.172 205.191 119.285 205.077 119.389C204.138 120.237 203.067 121.011 201.892 121.521ZM206.101 118.359C205.775 118.087 205.428 117.841 205.092 117.582C205.821 117.308 206.538 117.006 207.232 116.653C207.323 116.607 207.419 116.556 207.513 116.507C207.105 117.169 206.625 117.784 206.101 118.359ZM206.274 116.016C207.04 114.851 207.588 113.537 207.399 112.114C207.286 111.268 206.969 110.528 206.511 109.902C206.487 109.525 206.425 109.151 206.316 108.783C206.606 108.921 206.897 109.059 207.178 109.216C207.585 109.444 208.128 109.75 208.647 110.118C209.059 111.694 208.907 113.406 208.281 114.969C207.626 115.385 206.915 115.722 206.274 116.016ZM209.888 111.275C210.277 111.816 210.44 112.423 210.133 113.076C210.022 113.312 209.872 113.529 209.707 113.736C209.886 112.929 209.955 112.104 209.888 111.275ZM203.292 106.629C202.604 106.447 201.906 106.297 201.204 106.162C201.305 106.122 201.407 106.087 201.508 106.051C202.138 106.149 202.74 106.337 203.292 106.629ZM189.71 109.702C189.295 110.109 188.902 110.536 188.529 110.981C188.462 110.98 188.395 110.979 188.328 110.979C188.466 110.412 188.702 109.867 189.004 109.366C189.242 109.475 189.478 109.586 189.71 109.702ZM175.965 112.227C175.49 113.284 175.099 114.38 174.785 115.502C174.21 115.657 173.639 115.86 173.084 116.103C173.872 114.691 174.842 113.383 175.965 112.227ZM176.595 135.524C176.851 135.99 177.127 136.446 177.426 136.888C176.055 136.347 174.795 135.544 173.779 134.417C173.253 133.833 172.808 133.188 172.427 132.506C173.678 133.689 175.086 134.695 176.595 135.524ZM178.287 136.368C179.174 136.764 180.084 137.11 181.009 137.396C181.381 137.511 181.756 137.607 182.132 137.704C181.098 137.724 180.061 137.636 179.057 137.406C178.786 137.071 178.528 136.726 178.287 136.368ZM201.608 130.042C202.177 127.619 202.216 125.125 201.693 122.714C201.796 122.818 201.911 122.91 202.009 123.02C203.574 124.787 203.984 127.175 203.587 129.437C202.936 129.66 202.277 129.867 201.608 130.042ZM203.748 123.768C203.45 123.219 203.066 122.734 202.65 122.278C203.966 121.641 205.18 120.709 206.192 119.714C207.49 120.868 208.689 122.125 209.753 123.484C210.193 124.046 210.584 124.649 210.88 125.285C209.331 126.777 207.397 127.901 205.449 128.73C205.185 128.842 204.915 128.944 204.647 129.048C204.652 129.009 204.663 128.973 204.668 128.934C204.87 127.173 204.598 125.336 203.748 123.768ZM202.217 104.764C202.212 104.765 202.206 104.765 202.201 104.766C201.856 104.832 201.522 104.929 201.193 105.04C200.667 104.98 200.138 104.96 199.606 104.989C200.042 104.85 200.493 104.754 200.962 104.723C201.384 104.695 201.803 104.712 202.217 104.764ZM188.699 108.112C187.961 107.817 187.21 107.575 186.45 107.394C187.663 107.136 188.878 106.943 190.079 106.806C189.565 107.172 189.105 107.61 188.699 108.112ZM173.096 114.202C172.517 115.062 172.006 115.969 171.564 116.911C171.169 117.163 170.793 117.441 170.44 117.743C170.84 117.038 171.286 116.359 171.778 115.716C172.188 115.181 172.634 114.683 173.096 114.202ZM169.692 133.798C168.44 131.292 167.94 128.514 168.088 125.759C168.535 127.396 169.397 128.95 170.438 130.314C170.485 130.465 170.522 130.618 170.574 130.767C171.79 134.294 174.336 137.051 177.944 138.155C178.118 138.208 178.295 138.239 178.471 138.284C180.259 140.383 182.597 141.957 185.26 142.721C185.065 142.738 184.872 142.765 184.676 142.775C178.374 143.099 172.491 139.403 169.692 133.798ZM211.356 128.321C211.076 129.973 210.062 131.445 208.787 132.499C207.439 133.614 205.792 134.313 204.147 134.862C203.24 135.164 202.322 135.439 201.398 135.691C202.828 134.108 203.939 132.275 204.439 130.188C206.905 129.304 209.313 128.067 211.253 126.303C211.422 126.946 211.474 127.62 211.356 128.321Z" fill="white"/>
<path d="M134.951 297.769C147.891 286.68 163.912 271.474 179.571 265.717C197.571 259.099 207.344 279.532 191.752 293.274C191.752 293.274 176.171 305.107 153.77 319.943C138.845 329.827 113.758 315.93 134.951 297.769Z" fill="#EFBFDA"/>
<path d="M159.984 272.834C164.086 269.732 171.006 265.758 174.114 263.998C193.28 253.144 209.527 255.819 209.527 255.819C209.072 274.131 211.254 311.046 192.816 296.354C192.816 296.354 185.7 303.161 174.707 312.988L159.984 272.834Z" fill="white"/>
<path d="M166.459 290.493L157.646 307.059L166.514 295.239L172.564 307.142L166.459 290.493Z" fill="#E9A3CA"/>
<path d="M188.179 273.57C188.179 273.57 175.896 292.962 174.708 312.988L183.032 305.459L188.179 273.57Z" fill="#CEB6FF"/>
<path d="M226.672 256.233C217.087 255.53 201.889 252.751 193.052 265.41C183.956 278.44 181.441 291.913 179.218 303.162C174.929 324.87 174.939 357.602 174.939 357.602L264.506 358.635L264.711 272.246C264.711 272.246 255.14 258.552 243.825 257.188C232.509 255.824 233.065 256.702 226.672 256.233Z" fill="white"/>
<path d="M225.077 288.295L218.323 304.68C217.73 306.118 218.866 307.674 220.416 307.547L235.002 306.358C236.482 306.237 237.363 304.65 236.683 303.33L228.85 288.134C228.038 286.559 225.753 286.656 225.077 288.295Z" fill="#CEB6FF"/>
<path d="M252.382 293.829L264.629 307.059L264.645 300.137L252.382 293.829Z" fill="#CEB6FF"/>
<path d="M334.635 238.851C320.11 254.604 300.537 277.552 300.537 277.552L276.981 266.926C265.355 261.408 246.256 288.434 246.256 288.434C246.256 288.434 288.445 311.109 301.355 311.109C313.566 311.109 326.68 293.648 353.08 260.798C362.222 249.422 374.254 241.895 373.738 237.494C373.222 233.093 364.11 240.034 364.11 240.034C364.11 240.034 378.986 225.932 375.532 223.36C372.078 220.788 359.825 232.627 359.825 232.627C359.825 232.627 370.584 217.784 367.378 215.546C365.216 214.037 358.268 220.737 353.971 226.915C353.971 226.915 362.393 210.649 358.955 209.925C355.517 209.201 345.205 228.82 345.205 228.82C345.205 228.82 348.815 214.515 344.861 214.006C340.91 213.5 334.635 238.851 334.635 238.851Z" fill="#EFBFDA"/>
<path d="M289.532 270.564L272.398 303.871C272.398 303.871 242.992 290.095 237.462 284.741C231.932 279.387 240.855 257.14 245.955 257.591C254.895 258.38 269.47 260.869 289.532 270.564Z" fill="white"/>
<path d="M211.804 257.182C211.804 257.182 204.253 270.41 220.711 270.544C237.169 270.678 241.994 256.976 241.994 256.976C241.994 256.976 226.263 255.851 219.521 255.647C212.778 255.443 211.804 257.182 211.804 257.182Z" fill="#CEB6FF"/>
<path d="M176.678 212.67C163.427 219.586 178.38 242.559 180.649 241.603C182.917 240.646 186.044 207.782 176.678 212.67Z" fill="#3449F3"/>
<path d="M213.362 260.519C212.872 258.81 210.354 254.076 210.354 254.076L227.314 233.498L237.411 256.588C237.411 256.588 232.454 263.895 225.387 264.54C221.503 264.893 214.59 264.8 213.362 260.519Z" fill="#EFBFDA"/>
<path d="M225.163 239.498C225.163 239.498 223.568 254.702 211.804 257.182L210.354 254.076L225.163 239.498Z" fill="#E9A3CA"/>
<path d="M178.023 238.755C183.214 252.311 198.412 259.092 211.968 253.9C225.524 248.709 232.305 233.511 227.113 219.955C221.921 206.399 206.724 199.618 193.168 204.81C179.612 210.002 172.831 225.199 178.023 238.755Z" fill="#EFBFDA"/>
<path d="M229.123 237.615C234.546 234.916 240.956 203.352 224.577 190.275C224.577 190.275 227.98 184.366 221.377 181.759C214.773 179.153 214.082 187.402 214.082 187.402C214.082 187.402 211.643 176.627 204.856 177.932C198.069 179.237 203.014 188.012 203.014 188.012C203.014 188.012 166.047 185.697 165.998 206.282C165.949 226.868 194.137 214.475 194.137 214.475C200.959 211.137 207.705 208.58 207.705 208.58C207.705 208.58 229.622 214.161 227.822 225.788C226.022 237.416 229.123 237.615 229.123 237.615Z" fill="#000020"/>
<path d="M220.711 218.021C220.711 218.021 222.749 207.844 229.692 207.414C236.634 206.984 243.508 220.346 232.213 224.673C226.157 226.993 223.805 224.619 223.805 224.619" fill="#EFBFDA"/>
<path d="M225.661 219.509C225.554 219.509 225.446 219.475 225.354 219.404C225.136 219.235 225.097 218.92 225.267 218.702L230.174 212.397C230.343 212.179 230.658 212.14 230.876 212.31C231.094 212.479 231.133 212.794 230.963 213.012L226.056 219.317C225.957 219.443 225.81 219.509 225.661 219.509Z" fill="#E692C0"/>
<path d="M203.197 224.422C203.607 225.493 204.808 226.029 205.879 225.619C206.95 225.209 207.486 224.007 207.076 222.937C206.666 221.866 205.465 221.33 204.394 221.74C203.322 222.149 202.786 223.35 203.197 224.422Z" fill="#090929"/>
<path d="M197.806 236.245C196.771 236.245 195.793 235.616 195.402 234.594C195.156 233.953 195.175 233.255 195.455 232.627C195.735 232.001 196.242 231.52 196.883 231.275C197.138 231.179 197.423 231.305 197.52 231.559C197.617 231.813 197.49 232.099 197.235 232.196C196.84 232.347 196.528 232.643 196.355 233.029C196.182 233.415 196.171 233.845 196.322 234.24C196.635 235.056 197.553 235.463 198.368 235.153C198.624 235.056 198.908 235.183 199.005 235.437C199.102 235.691 198.975 235.977 198.72 236.074C198.42 236.191 198.111 236.245 197.806 236.245Z" fill="#E692C0"/>
<path d="M184.434 231.607C184.844 232.678 186.045 233.214 187.116 232.804C188.187 232.394 188.723 231.193 188.313 230.122C187.903 229.051 186.702 228.515 185.631 228.925C184.559 229.335 184.024 230.536 184.434 231.607Z" fill="#090929"/>
<path d="M187.123 216.684C187.851 217.782 189.067 220.405 188.994 221.346C188.934 222.12 184.761 227.806 180.236 228.457C175.71 229.107 174.007 228.153 174.007 228.153C173.693 227.924 180.704 223.981 187.123 216.684Z" fill="#090929"/>
<path d="M193.567 214.287C194.052 215.42 195.64 217.811 196.628 218.366C197.439 218.821 206.466 219.938 210.82 217.646C215.174 215.355 215.63 213.731 215.63 213.731C215.661 213.399 206.024 215.085 193.567 214.287Z" fill="#090929"/>
<path d="M196.793 247.326C196.696 247.326 196.597 247.297 196.511 247.236C196.287 247.08 196.233 246.774 196.389 246.55C196.56 246.304 200.652 240.552 208.078 241.467C208.348 241.5 208.541 241.746 208.507 242.016C208.474 242.287 208.237 242.483 207.957 242.446C201.146 241.605 197.236 247.06 197.198 247.115C197.102 247.253 196.948 247.326 196.793 247.326Z" fill="#E675B3"/>
<path d="M162.843 242.335C155.19 226.785 157.293 214.995 162.173 210.985C164.594 208.996 167.668 210.401 165.47 213.555C163.585 216.259 162.759 221.97 163.013 222.365C163.746 219.323 165.013 215.248 166.844 213.405C169.956 210.273 174.153 208.835 176.446 210.813C177.352 211.595 176.526 212.781 176.526 212.781C176.526 212.781 180.009 211.369 180.963 213.672C182.252 216.784 178.127 218.921 178.127 218.921C178.127 218.921 181.255 216.691 182.434 219.593C183.27 221.652 180.32 223.723 177.803 226.256C174.691 229.388 178.18 238.275 179.607 239.518C181.033 240.762 186.134 246.606 184.362 253.141C180.991 265.573 154.098 313.448 154.098 313.448C141.606 327.906 117.042 321.474 130.916 295.086L162.843 242.335Z" fill="#EFBFDA"/>
<path d="M166.97 225.475C166.699 225.475 166.476 225.258 166.47 224.987C166.399 221.865 167.73 218.272 169.019 216.475C170.233 214.783 175.721 212.564 176.342 212.317C176.599 212.213 176.89 212.34 176.991 212.596C177.094 212.853 176.968 213.143 176.712 213.245C175.098 213.888 170.716 215.826 169.831 217.058C168.808 218.484 167.398 221.879 167.469 224.963C167.475 225.239 167.257 225.468 166.98 225.475C166.977 225.475 166.973 225.475 166.97 225.475Z" fill="#E692C0"/>
<path d="M171.531 230.304C171.26 230.304 171.037 230.087 171.031 229.816C170.96 226.694 172.291 223.1 173.58 221.304C174.821 219.574 177.833 218.495 177.961 218.45C178.22 218.358 178.506 218.494 178.599 218.754C178.691 219.014 178.555 219.3 178.295 219.392C178.267 219.402 175.45 220.413 174.393 221.888C173.37 223.313 171.96 226.708 172.031 229.792C172.037 230.068 171.819 230.297 171.542 230.304C171.538 230.304 171.534 230.304 171.531 230.304Z" fill="#E692C0"/>
<path d="M184.363 253.641C184.32 253.641 184.276 253.635 184.232 253.623C183.965 253.551 183.808 253.276 183.88 253.01C185.51 246.999 180.99 241.388 179.278 239.896C178.101 238.869 176.19 234.27 176.057 230.541C175.983 228.468 176.452 226.907 177.449 225.904C177.949 225.4 178.467 224.915 178.969 224.443C180.871 222.659 182.514 221.117 181.971 219.781C181.721 219.166 181.372 218.801 180.903 218.664C180.275 218.482 179.505 218.741 178.964 219.008C178.752 219.147 178.546 219.266 178.357 219.364C178.124 219.484 177.837 219.404 177.7 219.181C177.563 218.957 177.623 218.665 177.837 218.513C177.861 218.496 178.073 218.346 178.403 218.174C179.383 217.532 181.357 215.929 180.501 213.863C179.749 212.048 176.745 213.232 176.713 213.243C176.51 213.326 176.273 213.264 176.135 213.091C175.997 212.918 175.989 212.675 176.115 212.494C176.171 212.412 176.659 211.657 176.118 211.19C174.164 209.505 170.328 210.607 167.197 213.757C167.003 213.953 166.687 213.954 166.49 213.759C166.294 213.565 166.293 213.248 166.488 213.052C169.993 209.527 174.413 208.4 176.771 210.433C177.311 210.899 177.421 211.483 177.349 212.004C178.792 211.682 180.706 211.75 181.423 213.479C182.089 215.086 181.494 216.52 180.571 217.604C180.774 217.613 180.979 217.644 181.18 217.702C181.951 217.926 182.528 218.498 182.895 219.403C183.695 221.374 181.73 223.218 179.65 225.17C179.156 225.633 178.647 226.11 178.155 226.606C177.361 227.405 176.99 228.716 177.054 230.502C177.181 234.091 179.048 238.366 179.933 239.139C181.767 240.738 186.606 246.765 184.842 253.269C184.785 253.495 184.583 253.641 184.363 253.641Z" fill="#E692C0"/>
<path d="M75.1665 355.461H139.113C145.086 355.461 149.985 350.185 149.588 344.178L147.369 310.597C147.033 305.505 142.962 301.667 137.899 301.667H73.9525C67.9795 301.667 63.0815 306.943 63.4775 312.95L65.6965 346.531C66.0325 351.623 70.1035 355.461 75.1665 355.461Z" fill="#161FDE"/>
<path d="M71.8209 355.461H135.767C141.74 355.461 146.638 350.185 146.242 344.178L144.023 310.597C143.686 305.505 139.616 301.667 134.553 301.667H70.6069C64.6339 301.667 59.7349 306.943 60.1319 312.95L62.3509 346.531C62.6869 351.623 66.7579 355.461 71.8209 355.461Z" fill="#3449F3"/>
<path d="M108.776 333.2L104.137 324.913C103.135 323.123 100.444 323.499 99.7756 325.522L97.0386 333.809C96.5286 335.353 97.5976 336.889 99.1836 336.889H106.56C108.43 336.889 109.678 334.811 108.776 333.2Z" fill="white"/>
<path d="M66.8139 308.667C66.7629 309.696 67.5449 310.53 68.5619 310.53C69.5779 310.53 70.4439 309.696 70.4949 308.667C70.5459 307.638 69.7639 306.804 68.7469 306.804C67.7299 306.803 66.8649 307.638 66.8139 308.667Z" fill="#69B0DA"/>
<path d="M350.631 355.461H-39.173C-41.287 355.461 -43 357.175 -43 359.288C-43 361.402 -41.286 363.115 -39.173 363.115H350.631C352.745 363.115 354.458 361.402 354.458 359.288C354.458 357.174 352.745 355.461 350.631 355.461Z" fill="black"/>
</g>
<defs>
<filter id="filter0_d_1245_17913" x="-130.974" y="3.05176e-05" width="595" height="451.09" filterUnits="userSpaceOnUse" color-interpolation-filters="sRGB">
<feFlood flood-opacity="0" result="BackgroundImageFix"/>
<feColorMatrix in="SourceAlpha" type="matrix" values="0 0 0 0 0 0 0 0 0 0 0 0 0 0 0 0 0 0 127 0" result="hardAlpha"/>
<feOffset/>
<feGaussianBlur stdDeviation="43.9871"/>
<feComposite in2="hardAlpha" operator="out"/>
<feColorMatrix type="matrix" values="0 0 0 0 0.141176 0 0 0 0 0.372549 0 0 0 0 1 0 0 0 0.68 0"/>
<feBlend mode="normal" in2="BackgroundImageFix" result="effect1_dropShadow_1245_17913"/>
<feBlend mode="normal" in="SourceGraphic" in2="effect1_dropShadow_1245_17913" result="shape"/>
</filter>
</defs>
</svg>
