<svg width="290" height="318" viewBox="0 0 290 318" fill="none" xmlns="http://www.w3.org/2000/svg">
<g clip-path="url(#clip0_1384_32630)">
<g filter="url(#filter0_d_1384_32630)">
<path d="M267.723 87.9766H97.9746C92.4518 87.9766 87.9746 92.4538 87.9746 97.9767V335.323C87.9746 340.846 92.4518 345.323 97.9746 345.323H267.723C273.245 345.323 277.723 340.846 277.723 335.323V97.9766C277.723 92.4538 273.245 87.9766 267.723 87.9766Z" fill="white"/>
<path d="M146.704 107.391H116.203C110.68 107.391 106.203 111.868 106.203 117.391V156.865C106.203 162.388 110.68 166.865 116.203 166.865H146.704C152.227 166.865 156.704 162.388 156.704 156.865V117.391C156.704 111.868 152.227 107.391 146.704 107.391Z" fill="#FCC64C"/>
<path d="M125.406 135.098C120.366 135.161 116.019 139.08 117.267 143.963C118.609 149.214 122.146 154.882 131.162 154.882C140.102 154.882 143.69 149.203 145.092 143.891C146.41 138.893 141.909 134.889 136.74 134.954L125.406 135.098Z" fill="#AC2F03"/>
<path d="M143.712 133.596C143.751 133.041 143.84 132.539 144.272 132.188C144.58 131.938 144.994 131.822 145.43 132.343C145.826 132.815 146.01 133.935 145.842 135.03C145.513 137.159 143.559 135.744 143.712 133.596Z" fill="#FFDEC0"/>
<path d="M118.559 133.534C118.497 133.015 118.413 132.564 118.019 132.22C117.707 131.948 117.276 131.801 116.821 132.343C116.424 132.817 116.305 133.941 116.547 135.038C117.009 137.127 118.81 135.659 118.559 133.534Z" fill="#FFDEC0"/>
<path d="M137.189 159.28C138.343 157.143 139.641 156.521 140.135 154.748C140.588 153.121 139.063 151.751 137.611 150.888C136.955 150.498 136.291 149.967 135.765 149.251C134.788 147.923 132.915 146.807 131.267 146.87C129.642 146.932 127.555 147.691 126.829 149.146C126.473 149.857 125.997 150.561 125.362 151.132C124.286 152.099 123.109 153.207 123.185 154.652C123.379 158.335 124.987 161.763 127.167 163.681C129.101 165.384 135.701 162.038 137.189 159.28Z" fill="#FFDEC0"/>
<path d="M147.957 154.055C146.343 153.259 143.171 152.196 140.611 151.39C138.439 150.706 136.14 151.886 135.373 154.03C135.066 154.891 134.509 155.675 133.669 156.033C131.728 156.859 130.071 156.44 129.062 155.979C128.334 155.646 127.874 154.957 127.605 154.204C126.804 151.962 124.398 150.729 122.128 151.446C119.6 152.244 116.537 153.278 114.958 154.055C114.474 154.294 114.046 154.979 113.668 155.969C111.552 161.507 116.829 166.848 122.757 166.848H140.162C146.088 166.848 151.363 161.51 149.249 155.973C148.87 154.981 148.442 154.294 147.957 154.055Z" fill="#C8DBDA"/>
<path d="M144.076 131.315C144.66 113.277 131.225 114.583 131.222 114.583C131.216 114.583 117.784 113.277 118.368 131.315C118.368 131.315 118.35 138.845 120.374 141.663C123.031 145.366 127.9 147.301 131.221 147.301C134.542 147.301 139.456 145.61 142.07 141.663C144.135 138.547 144.076 131.315 144.076 131.315Z" fill="#FFDEC0"/>
<path d="M118.278 132.674C118.467 132.846 118.981 133.31 119.229 133.246C119.954 133.058 121.567 132.566 123.46 131.516C127.349 129.359 135.556 129.345 139.411 131.562C140.314 132.081 141.309 132.563 142.404 132.985C142.968 133.202 143.553 132.881 144.027 132.506C144.258 132.324 145.9 131.298 145.891 131.004C145.731 125.831 143.946 114.228 131.163 114.04C131.19 114.04 116.974 113.667 116.434 130.513C116.412 131.183 117.783 132.222 118.278 132.674Z" fill="#AC2F03"/>
<path d="M138.249 135.135C138.249 135.819 137.731 136.372 137.092 136.372C136.452 136.372 135.934 135.819 135.934 135.135C135.934 134.453 136.452 133.898 137.092 133.898C137.731 133.898 138.249 134.453 138.249 135.135Z" fill="#AC2F03"/>
<path d="M126.316 135.135C126.316 135.819 125.797 136.372 125.158 136.372C124.519 136.372 124 135.819 124 135.135C124 134.453 124.518 133.898 125.158 133.898C125.797 133.898 126.316 134.453 126.316 135.135Z" fill="#AC2F03"/>
<path d="M127.434 142.405C129.687 143.871 132.555 143.745 134.813 142.405C135.151 142.205 134.844 141.678 134.506 141.879C132.426 143.113 129.812 143.224 127.743 141.879C127.41 141.663 127.106 142.192 127.434 142.405Z" fill="#FA724C"/>
<path d="M132.537 139.319C132.537 139.732 131.907 140.066 131.128 140.066C130.35 140.066 129.717 139.731 129.717 139.319C129.717 138.905 130.35 138.57 131.128 138.57C131.906 138.569 132.537 138.905 132.537 139.319Z" fill="#F7A05E"/>
<path d="M135.253 131.77C135.048 132.05 135.517 132.229 135.86 132.173C136.097 132.135 136.396 132.099 136.731 132.086C137.46 132.059 137.815 131.407 137.087 131.363C136.029 131.3 135.449 131.502 135.253 131.77Z" fill="#AC2F03"/>
<path d="M127.245 131.769C127.45 132.05 126.981 132.228 126.638 132.173C126.401 132.135 126.102 132.099 125.767 132.086C125.038 132.058 124.683 131.407 125.411 131.363C126.469 131.299 127.049 131.502 127.245 131.769Z" fill="#AC2F03"/>
<path d="M122.278 194.353C123.987 194.353 125.373 195.739 125.373 197.448V198.717C125.373 203.973 122.04 206.977 115.612 206.977C109.182 206.977 105.85 203.973 105.85 198.717V181.635C105.85 176.379 109.183 173.375 115.612 173.375C122.04 173.375 125.373 176.378 125.373 181.635V181.731C125.373 183.44 123.988 184.826 122.278 184.826C120.569 184.826 119.183 183.44 119.183 181.731V181.306C119.183 178.96 117.874 178.069 115.789 178.069C113.706 178.069 112.397 178.96 112.397 181.306V199.046C112.397 201.393 113.706 202.237 115.789 202.237C117.873 202.237 119.183 201.393 119.183 199.046V197.448C119.183 195.739 120.569 194.353 122.278 194.353Z" fill="#FCC64C"/>
<path d="M143.642 200.489C143.648 200.523 143.678 200.547 143.712 200.547C143.746 200.547 143.776 200.523 143.782 200.489L148.269 176.154C148.526 174.761 149.74 173.75 151.157 173.75C153.005 173.75 154.394 175.437 154.039 177.25L149.233 201.81C148.688 204.593 146.249 206.601 143.414 206.601C140.578 206.601 138.139 204.593 137.595 201.81L132.856 177.597C132.466 175.604 133.993 173.75 136.024 173.75C137.581 173.75 138.916 174.861 139.198 176.392L143.642 200.489Z" fill="#FCC64C"/>
<path d="M253.558 107.391H172.296C167.778 107.391 164.115 111.054 164.115 115.572C164.115 120.09 167.778 123.753 172.296 123.753H253.558C258.076 123.753 261.739 120.09 261.739 115.572C261.739 111.054 258.076 107.391 253.558 107.391Z" fill="#DFEAEA"/>
<path d="M205.679 131.078H166.139C165.019 131.078 164.111 131.986 164.111 133.106C164.111 134.226 165.019 135.133 166.139 135.133H205.679C206.799 135.133 207.706 134.226 207.706 133.106C207.706 131.986 206.799 131.078 205.679 131.078Z" fill="#DFEAEA"/>
<path d="M205.679 142.258H166.139C165.019 142.258 164.111 143.166 164.111 144.286C164.111 145.406 165.019 146.314 166.139 146.314H205.679C206.799 146.314 207.706 145.406 207.706 144.286C207.706 143.166 206.799 142.258 205.679 142.258Z" fill="#DFEAEA"/>
<path d="M205.679 153.438H166.139C165.019 153.438 164.111 154.345 164.111 155.465C164.111 156.585 165.019 157.493 166.139 157.493H205.679C206.799 157.493 207.706 156.585 207.706 155.465C207.706 154.345 206.799 153.438 205.679 153.438Z" fill="#DFEAEA"/>
<path d="M259.712 131.078H220.172C219.052 131.078 218.145 131.986 218.145 133.106C218.145 134.226 219.052 135.133 220.172 135.133H259.712C260.832 135.133 261.74 134.226 261.74 133.106C261.74 131.986 260.832 131.078 259.712 131.078Z" fill="#DFEAEA"/>
<path d="M259.712 142.258H220.172C219.052 142.258 218.145 143.166 218.145 144.286C218.145 145.406 219.052 146.314 220.172 146.314H259.712C260.832 146.314 261.74 145.406 261.74 144.286C261.74 143.166 260.832 142.258 259.712 142.258Z" fill="#DFEAEA"/>
<path d="M259.712 153.438H220.172C219.052 153.438 218.145 154.345 218.145 155.465C218.145 156.585 219.052 157.493 220.172 157.493H259.712C260.832 157.493 261.74 156.585 261.74 155.465C261.74 154.345 260.832 153.438 259.712 153.438Z" fill="#DFEAEA"/>
<path d="M137.614 217.281H124.625C122.819 217.281 121.355 218.745 121.355 220.551C121.355 222.357 122.819 223.821 124.625 223.821H137.614C139.42 223.821 140.884 222.357 140.884 220.551C140.884 218.745 139.42 217.281 137.614 217.281Z" fill="#DFEAEA"/>
<path d="M112.935 231.18H105.515C104.653 231.18 103.953 231.88 103.953 232.742C103.953 233.605 104.653 234.305 105.515 234.305H112.935C113.798 234.305 114.498 233.605 114.498 232.742C114.498 231.88 113.798 231.18 112.935 231.18Z" fill="#DFEAEA"/>
<path d="M156.724 231.18H121.347C120.485 231.18 119.785 231.88 119.785 232.742C119.785 233.605 120.485 234.305 121.347 234.305H156.724C157.587 234.305 158.286 233.605 158.286 232.742C158.286 231.88 157.587 231.18 156.724 231.18Z" fill="#DFEAEA"/>
<path d="M112.935 238.531H105.515C104.653 238.531 103.953 239.231 103.953 240.093C103.953 240.956 104.653 241.656 105.515 241.656H112.935C113.798 241.656 114.498 240.956 114.498 240.093C114.498 239.231 113.798 238.531 112.935 238.531Z" fill="#DFEAEA"/>
<path d="M156.724 238.531H121.347C120.485 238.531 119.785 239.231 119.785 240.093C119.785 240.956 120.485 241.656 121.347 241.656H156.724C157.587 241.656 158.286 240.956 158.286 240.093C158.286 239.231 157.587 238.531 156.724 238.531Z" fill="#DFEAEA"/>
<path d="M112.935 245.891H105.515C104.653 245.891 103.953 246.59 103.953 247.453C103.953 248.316 104.653 249.015 105.515 249.015H112.935C113.798 249.015 114.498 248.316 114.498 247.453C114.498 246.59 113.798 245.891 112.935 245.891Z" fill="#DFEAEA"/>
<path d="M156.724 245.891H121.347C120.485 245.891 119.785 246.59 119.785 247.453C119.785 248.316 120.485 249.015 121.347 249.015H156.724C157.587 249.015 158.286 248.316 158.286 247.453C158.286 246.59 157.587 245.891 156.724 245.891Z" fill="#DFEAEA"/>
<path d="M137.614 262.648H124.625C122.819 262.648 121.355 264.112 121.355 265.918C121.355 267.724 122.819 269.187 124.625 269.187H137.614C139.42 269.187 140.884 267.724 140.884 265.918C140.884 264.112 139.42 262.648 137.614 262.648Z" fill="#DFEAEA"/>
<path d="M112.933 276.539H105.513C104.651 276.539 103.951 277.239 103.951 278.102C103.951 278.964 104.651 279.664 105.513 279.664H112.933C113.796 279.664 114.496 278.964 114.496 278.102C114.496 277.239 113.796 276.539 112.933 276.539Z" fill="#DFEAEA"/>
<path d="M156.724 276.539H121.347C120.485 276.539 119.785 277.239 119.785 278.102C119.785 278.964 120.485 279.664 121.347 279.664H156.724C157.587 279.664 158.286 278.964 158.286 278.102C158.286 277.239 157.587 276.539 156.724 276.539Z" fill="#DFEAEA"/>
<path d="M112.933 283.906H105.513C104.651 283.906 103.951 284.606 103.951 285.468C103.951 286.331 104.651 287.031 105.513 287.031H112.933C113.796 287.031 114.496 286.331 114.496 285.468C114.496 284.606 113.796 283.906 112.933 283.906Z" fill="#DFEAEA"/>
<path d="M156.724 283.906H121.347C120.485 283.906 119.785 284.606 119.785 285.468C119.785 286.331 120.485 287.031 121.347 287.031H156.724C157.587 287.031 158.286 286.331 158.286 285.468C158.286 284.606 157.587 283.906 156.724 283.906Z" fill="#DFEAEA"/>
<path d="M103.951 294.383L103.952 294.384H114.493L114.494 294.383C114.494 292.657 113.096 291.258 111.37 291.258H107.075C105.35 291.258 103.951 292.657 103.951 294.383Z" fill="#DFEAEA"/>
<path d="M119.785 294.383L119.786 294.384H158.285L158.286 294.383C158.286 292.657 156.887 291.258 155.162 291.258H122.909C121.184 291.258 119.785 292.657 119.785 294.383Z" fill="#DFEAEA"/>
<path d="M112.933 298.609H105.513C104.651 298.609 103.951 299.308 103.951 300.171C103.951 301.034 104.651 301.733 105.513 301.733H112.933C113.796 301.733 114.496 301.034 114.496 300.171C114.496 299.308 113.796 298.609 112.933 298.609Z" fill="#DFEAEA"/>
<path d="M156.724 298.609H121.347C120.485 298.609 119.785 299.308 119.785 300.171C119.785 301.034 120.485 301.733 121.347 301.733H156.724C157.587 301.733 158.286 301.034 158.286 300.171C158.286 299.308 157.587 298.609 156.724 298.609Z" fill="#DFEAEA"/>
<path d="M112.933 305.969H105.514C104.651 305.969 103.951 306.669 103.951 307.532C103.951 308.395 104.651 309.095 105.514 309.095H112.933C113.796 309.095 114.496 308.395 114.496 307.532C114.496 306.669 113.796 305.969 112.933 305.969Z" fill="#DFEAEA"/>
<path d="M156.724 305.969H121.348C120.485 305.969 119.785 306.669 119.785 307.532C119.785 308.395 120.485 309.095 121.348 309.095H156.724C157.587 309.095 158.286 308.395 158.286 307.532C158.286 306.669 157.587 305.969 156.724 305.969Z" fill="#DFEAEA"/>
<path d="M112.933 313.797H105.514C104.651 313.797 103.951 314.497 103.951 315.36C103.951 316.223 104.651 316.923 105.514 316.923H112.933C113.796 316.923 114.496 316.223 114.496 315.36C114.496 314.497 113.796 313.797 112.933 313.797Z" fill="#DFEAEA"/>
<path d="M156.724 313.797H121.348C120.485 313.797 119.785 314.497 119.785 315.36C119.785 316.223 120.485 316.923 121.348 316.923H156.724C157.587 316.923 158.286 316.223 158.286 315.36C158.286 314.497 157.587 313.797 156.724 313.797Z" fill="#DFEAEA"/>
<path d="M230.902 171.656H206.499C204.693 171.656 203.229 173.12 203.229 174.926C203.229 176.732 204.693 178.197 206.499 178.197H230.902C232.708 178.197 234.172 176.732 234.172 174.926C234.172 173.12 232.708 171.656 230.902 171.656Z" fill="#DFEAEA"/>
<path d="M190.791 185.555H177.208C176.345 185.555 175.646 186.254 175.646 187.117C175.646 187.98 176.345 188.679 177.208 188.679H190.791C191.654 188.679 192.354 187.98 192.354 187.117C192.354 186.254 191.654 185.555 190.791 185.555Z" fill="#DFEAEA"/>
<path d="M260.178 185.555H202.297C201.434 185.555 200.734 186.254 200.734 187.117C200.734 187.98 201.434 188.679 202.297 188.679H260.178C261.041 188.679 261.741 187.98 261.741 187.117C261.741 186.254 261.041 185.555 260.178 185.555Z" fill="#DFEAEA"/>
<path d="M190.791 192.906H177.208C176.345 192.906 175.646 193.605 175.646 194.468C175.646 195.331 176.345 196.03 177.208 196.03H190.791C191.654 196.03 192.354 195.331 192.354 194.468C192.354 193.605 191.654 192.906 190.791 192.906Z" fill="#DFEAEA"/>
<path d="M260.178 192.906H202.297C201.434 192.906 200.734 193.605 200.734 194.468C200.734 195.331 201.434 196.03 202.297 196.03H260.178C261.041 196.03 261.741 195.331 261.741 194.468C261.741 193.605 261.041 192.906 260.178 192.906Z" fill="#DFEAEA"/>
<path d="M190.791 200.266H177.208C176.345 200.266 175.646 200.965 175.646 201.828C175.646 202.691 176.345 203.39 177.208 203.39H190.791C191.654 203.39 192.354 202.691 192.354 201.828C192.354 200.965 191.654 200.266 190.791 200.266Z" fill="#DFEAEA"/>
<path d="M260.178 200.266H202.297C201.434 200.266 200.734 200.965 200.734 201.828C200.734 202.691 201.434 203.39 202.297 203.39H260.178C261.041 203.39 261.741 202.691 261.741 201.828C261.741 200.965 261.041 200.266 260.178 200.266Z" fill="#DFEAEA"/>
<path d="M230.9 217.484H206.497C204.691 217.484 203.227 218.948 203.227 220.754C203.227 222.56 204.691 224.024 206.497 224.024H230.9C232.706 224.024 234.17 222.56 234.17 220.754C234.17 218.948 232.706 217.484 230.9 217.484Z" fill="#DFEAEA"/>
<path d="M190.79 231.375H177.207C176.344 231.375 175.645 232.074 175.645 232.937C175.645 233.8 176.344 234.499 177.207 234.499H190.79C191.653 234.499 192.353 233.8 192.353 232.937C192.353 232.074 191.653 231.375 190.79 231.375Z" fill="#DFEAEA"/>
<path d="M260.178 231.375H202.297C201.434 231.375 200.734 232.074 200.734 232.937C200.734 233.8 201.434 234.499 202.297 234.499H260.178C261.041 234.499 261.741 233.8 261.741 232.937C261.741 232.074 261.041 231.375 260.178 231.375Z" fill="#DFEAEA"/>
<path d="M190.79 238.727H177.207C176.344 238.727 175.645 239.426 175.645 240.289C175.645 241.152 176.344 241.851 177.207 241.851H190.79C191.653 241.851 192.353 241.152 192.353 240.289C192.353 239.426 191.653 238.727 190.79 238.727Z" fill="#DFEAEA"/>
<path d="M260.178 238.727H202.297C201.434 238.727 200.734 239.426 200.734 240.289C200.734 241.152 201.434 241.851 202.297 241.851H260.178C261.041 241.851 261.741 241.152 261.741 240.289C261.741 239.426 261.041 238.727 260.178 238.727Z" fill="#DFEAEA"/>
<path d="M190.79 246.102H177.207C176.344 246.102 175.645 246.802 175.645 247.665C175.645 248.527 176.344 249.227 177.207 249.227H190.79C191.653 249.227 192.353 248.527 192.353 247.665C192.353 246.802 191.653 246.102 190.79 246.102Z" fill="#DFEAEA"/>
<path d="M260.178 246.102H202.297C201.434 246.102 200.734 246.802 200.734 247.665C200.734 248.527 201.434 249.227 202.297 249.227H260.178C261.041 249.227 261.741 248.527 261.741 247.665C261.741 246.802 261.041 246.102 260.178 246.102Z" fill="#DFEAEA"/>
<path d="M230.9 263.883H206.497C204.691 263.883 203.227 265.347 203.227 267.153C203.227 268.96 204.691 270.424 206.497 270.424H230.9C232.706 270.424 234.17 268.96 234.17 267.153C234.17 265.347 232.706 263.883 230.9 263.883Z" fill="#DFEAEA"/>
<path d="M190.792 277.781H177.209C176.346 277.781 175.646 278.481 175.646 279.343C175.646 280.206 176.346 280.906 177.209 280.906H190.792C191.655 280.906 192.355 280.206 192.355 279.343C192.355 278.481 191.655 277.781 190.792 277.781Z" fill="#DFEAEA"/>
<path d="M260.18 277.781H202.298C201.436 277.781 200.736 278.481 200.736 279.343C200.736 280.206 201.436 280.906 202.298 280.906H260.18C261.043 280.906 261.743 280.206 261.743 279.343C261.743 278.481 261.043 277.781 260.18 277.781Z" fill="#DFEAEA"/>
<path d="M190.792 285.133H177.209C176.346 285.133 175.646 285.833 175.646 286.696C175.646 287.558 176.346 288.258 177.209 288.258H190.792C191.655 288.258 192.355 287.558 192.355 286.696C192.355 285.833 191.655 285.133 190.792 285.133Z" fill="#DFEAEA"/>
<path d="M260.18 285.133H202.298C201.436 285.133 200.736 285.833 200.736 286.696C200.736 287.558 201.436 288.258 202.298 288.258H260.18C261.043 288.258 261.743 287.558 261.743 286.696C261.743 285.833 261.043 285.133 260.18 285.133Z" fill="#DFEAEA"/>
<path d="M190.792 292.492H177.209C176.346 292.492 175.646 293.192 175.646 294.055C175.646 294.917 176.346 295.617 177.209 295.617H190.792C191.655 295.617 192.355 294.917 192.355 294.055C192.355 293.192 191.655 292.492 190.792 292.492Z" fill="#DFEAEA"/>
<path d="M260.18 292.492H202.298C201.436 292.492 200.736 293.192 200.736 294.055C200.736 294.917 201.436 295.617 202.298 295.617H260.18C261.043 295.617 261.743 294.917 261.743 294.055C261.743 293.192 261.043 292.492 260.18 292.492Z" fill="#DFEAEA"/>
<path d="M190.792 299.844H177.209C176.346 299.844 175.646 300.543 175.646 301.406C175.646 302.268 176.346 302.968 177.209 302.968H190.792C191.655 302.968 192.355 302.268 192.355 301.406C192.355 300.543 191.655 299.844 190.792 299.844Z" fill="#DFEAEA"/>
<path d="M260.18 299.844H202.298C201.436 299.844 200.736 300.543 200.736 301.406C200.736 302.268 201.436 302.968 202.298 302.968H260.18C261.043 302.968 261.743 302.268 261.743 301.406C261.743 300.543 261.043 299.844 260.18 299.844Z" fill="#DFEAEA"/>
<path d="M190.792 307.203H177.209C176.346 307.203 175.646 307.902 175.646 308.765C175.646 309.628 176.346 310.327 177.209 310.327H190.792C191.655 310.327 192.355 309.628 192.355 308.765C192.355 307.902 191.655 307.203 190.792 307.203Z" fill="#DFEAEA"/>
<path d="M260.18 307.203H202.298C201.436 307.203 200.736 307.902 200.736 308.765C200.736 309.628 201.436 310.327 202.298 310.327H260.18C261.043 310.327 261.743 309.628 261.743 308.765C261.743 307.902 261.043 307.203 260.18 307.203Z" fill="#DFEAEA"/>
<path d="M190.792 314.562H177.209C176.346 314.562 175.646 315.262 175.646 316.125C175.646 316.988 176.346 317.687 177.209 317.687H190.792C191.655 317.687 192.355 316.988 192.355 316.125C192.355 315.262 191.655 314.562 190.792 314.562Z" fill="#DFEAEA"/>
<path d="M260.18 314.562H202.298C201.436 314.562 200.736 315.262 200.736 316.125C200.736 316.988 201.436 317.687 202.298 317.687H260.18C261.043 317.687 261.743 316.988 261.743 316.125C261.743 315.262 261.043 314.562 260.18 314.562Z" fill="#DFEAEA"/>
</g>
<g clip-path="url(#clip1_1384_32630)">
<g filter="url(#filter1_d_1384_32630)">
<path d="M139.506 79.5H64.5056C58.1512 79.5 53 84.6512 53 91.0056C53 97.36 58.1512 102.511 64.5056 102.511H139.506C145.86 102.511 151.011 97.36 151.011 91.0056C151.011 84.6512 145.86 79.5 139.506 79.5Z" fill="white"/>
<path d="M139.506 79.5H64.5056C58.1512 79.5 53 84.6512 53 91.0056C53 97.36 58.1512 102.511 64.5056 102.511H139.506C145.86 102.511 151.011 97.36 151.011 91.0056C151.011 84.6512 145.86 79.5 139.506 79.5Z" fill="#FA0C00" fill-opacity="0.2"/>
<path d="M63.3361 94.0046H62.1469L60.928 91.9037L60.1302 92.855V94.0046H59.0996V86.572H60.1302V91.2546L61.9735 89.0496H63.3213L61.6316 91.0663L63.3361 94.0046ZM66.0219 94.1334C65.5661 94.1334 65.1498 94.0162 64.7733 93.7816C64.4 93.5471 64.101 93.2333 63.8764 92.8402C63.6551 92.4438 63.5444 92.0061 63.5444 91.5271C63.5444 91.1637 63.6088 90.8251 63.7377 90.5113C63.8665 90.1942 64.0432 89.9167 64.2678 89.6789C64.4958 89.4377 64.76 89.2494 65.0607 89.114C65.3613 88.9785 65.6817 88.9108 66.0219 88.9108C66.4018 88.9108 66.7503 88.9901 67.0675 89.1487C67.3846 89.3039 67.6555 89.5203 67.8801 89.7978C68.1047 90.072 68.2699 90.3891 68.3756 90.7491C68.4813 91.1059 68.5127 91.4858 68.4697 91.8888H64.6494C64.6923 92.1167 64.7749 92.3232 64.8971 92.5082C65.0227 92.6899 65.1812 92.8336 65.3728 92.9393C65.5677 93.045 65.7841 93.0995 66.0219 93.1028C66.273 93.1028 66.5009 93.04 66.7057 92.9145C66.9138 92.789 67.084 92.6155 67.2161 92.3942L68.2616 92.637C68.0634 93.0764 67.7645 93.4364 67.3648 93.7172C66.965 93.9947 66.5174 94.1334 66.0219 94.1334ZM64.6147 91.101H67.4292C67.3961 90.8631 67.3119 90.6484 67.1765 90.4568C67.0443 90.2619 66.8775 90.1083 66.676 89.996C66.4778 89.8804 66.2598 89.8225 66.0219 89.8225C65.7874 89.8225 65.5694 89.8787 65.3679 89.991C65.1697 90.1033 65.0045 90.2569 64.8724 90.4518C64.7435 90.6434 64.6576 90.8598 64.6147 91.101ZM72.3845 89.0496H73.4846L70.7692 96.4821H69.6741L70.571 94.0046L68.7921 89.0496H69.9169L71.0863 92.5924L72.3845 89.0496ZM76.7402 94.0046H75.7145L74.0545 89.0496H75.0654L76.2348 92.528L77.3943 89.0496H78.4348L79.5943 92.528L80.7587 89.0496H81.7696L80.1146 94.0046H79.079L77.9096 90.5014L76.7402 94.0046ZM84.526 94.1334C84.0701 94.1334 83.6539 94.0162 83.2773 93.7816C82.904 93.5471 82.6051 93.2333 82.3804 92.8402C82.1591 92.4438 82.0484 92.0061 82.0484 91.5271C82.0484 91.1637 82.1129 90.8251 82.2417 90.5113C82.3705 90.1942 82.5473 89.9167 82.7719 89.6789C82.9998 89.4377 83.2641 89.2494 83.5647 89.114C83.8653 88.9785 84.1857 88.9108 84.526 88.9108C84.9818 88.9108 85.3964 89.0281 85.7697 89.2626C86.1463 89.4972 86.4452 89.8126 86.6666 90.209C86.8912 90.6054 87.0035 91.0448 87.0035 91.5271C87.0035 91.8872 86.9391 92.2241 86.8103 92.5379C86.6814 92.8517 86.503 93.1292 86.2751 93.3704C86.0505 93.6082 85.7879 93.7949 85.4873 93.9303C85.1899 94.0657 84.8695 94.1334 84.526 94.1334ZM84.526 93.1028C84.8002 93.1028 85.0463 93.0301 85.2643 92.8848C85.4823 92.7394 85.6541 92.5478 85.7796 92.31C85.9084 92.0688 85.9728 91.8079 85.9728 91.5271C85.9728 91.2397 85.9068 90.9754 85.7746 90.7343C85.6458 90.4931 85.4724 90.3015 85.2544 90.1595C85.0363 90.0141 84.7935 89.9415 84.526 89.9415C84.2551 89.9415 84.009 90.0141 83.7877 90.1595C83.5696 90.3048 83.3962 90.4981 83.2674 90.7392C83.1419 90.9804 83.0791 91.243 83.0791 91.5271C83.0791 91.8211 83.1452 92.087 83.2773 92.3249C83.4094 92.5627 83.5845 92.7526 83.8025 92.8947C84.0239 93.0334 84.265 93.1028 84.526 93.1028ZM87.8041 94.0046V89.0496H88.8347V89.5748C89.0065 89.37 89.2179 89.2081 89.469 89.0892C89.72 88.9703 89.9909 88.9108 90.2816 88.9108C90.4666 88.9108 90.6499 88.9356 90.8316 88.9851L90.4203 90.0257C90.2915 89.9762 90.1627 89.9514 90.0338 89.9514C89.8158 89.9514 89.616 90.0059 89.4343 90.1149C89.2526 90.2206 89.1072 90.3643 88.9982 90.546C88.8892 90.7277 88.8347 90.9292 88.8347 91.1505V94.0046H87.8041ZM95.0319 86.572H96.0626V94.0046H95.0319V93.2762C94.8701 93.5339 94.6587 93.742 94.3977 93.9006C94.1367 94.0558 93.8312 94.1334 93.481 94.1334C93.1209 94.1334 92.784 94.0657 92.4702 93.9303C92.1563 93.7949 91.8789 93.6082 91.6377 93.3704C91.3999 93.1292 91.2132 92.8517 91.0778 92.5379C90.9424 92.2241 90.8746 91.8872 90.8746 91.5271C90.8746 91.167 90.9424 90.8301 91.0778 90.5163C91.2132 90.1991 91.3999 89.9216 91.6377 89.6838C91.8789 89.4427 92.1563 89.2544 92.4702 89.1189C92.784 88.9835 93.1209 88.9158 93.481 88.9158C93.8312 88.9158 94.1367 88.9951 94.3977 89.1536C94.6587 89.3089 94.8701 89.5137 95.0319 89.768V86.572ZM93.4909 93.1375C93.7816 93.1375 94.036 93.0665 94.254 92.9244C94.472 92.7791 94.6405 92.5842 94.7594 92.3397C94.8816 92.0953 94.9427 91.8244 94.9427 91.5271C94.9427 91.2265 94.8816 90.954 94.7594 90.7095C94.6372 90.4651 94.4671 90.2718 94.249 90.1298C94.0343 89.9844 93.7816 89.9117 93.4909 89.9117C93.2035 89.9117 92.9409 89.9844 92.7031 90.1298C92.4685 90.2751 92.2802 90.47 92.1382 90.7145C91.9994 90.9589 91.9301 91.2298 91.9301 91.5271C91.9301 91.8277 92.0011 92.1002 92.1431 92.3447C92.2885 92.5858 92.4784 92.7791 92.713 92.9244C92.9508 93.0665 93.2101 93.1375 93.4909 93.1375ZM98.7361 94.0988C98.4752 94.0822 98.2208 94.0294 97.9731 93.9402C97.7253 93.851 97.5073 93.7304 97.319 93.5785C97.134 93.4232 96.9953 93.2415 96.9028 93.0334L97.7798 92.6568C97.8228 92.746 97.8971 92.8336 98.0028 92.9195C98.1118 93.0053 98.239 93.0764 98.3843 93.1325C98.5297 93.1854 98.6816 93.2118 98.8402 93.2118C98.9955 93.2118 99.1392 93.1903 99.2713 93.1474C99.4067 93.1011 99.5174 93.0318 99.6033 92.9393C99.6892 92.8468 99.7321 92.7361 99.7321 92.6073C99.7321 92.4619 99.6826 92.3496 99.5835 92.2703C99.4877 92.1878 99.3671 92.125 99.2217 92.0821C99.0764 92.0391 98.931 91.9978 98.7857 91.9582C98.462 91.8855 98.1647 91.7864 97.8938 91.6609C97.6262 91.532 97.4131 91.3685 97.2546 91.1703C97.096 90.9688 97.0167 90.7227 97.0167 90.432C97.0167 90.1149 97.1026 89.8407 97.2744 89.6095C97.4462 89.3749 97.6708 89.1949 97.9483 89.0694C98.2291 88.9439 98.528 88.8811 98.8452 88.8811C99.2416 88.8811 99.6049 88.9653 99.9353 89.1338C100.266 89.3023 100.518 89.5335 100.693 89.8275L99.8758 90.3131C99.8263 90.214 99.7519 90.1248 99.6528 90.0455C99.5537 89.9662 99.4414 89.9035 99.3159 89.8572C99.1904 89.8077 99.0599 89.7796 98.9244 89.773C98.756 89.7664 98.5991 89.7862 98.4537 89.8325C98.3117 89.8754 98.1977 89.9448 98.1118 90.0406C98.0259 90.1364 97.983 90.2586 97.983 90.4072C97.983 90.5526 98.0342 90.6616 98.1366 90.7343C98.239 90.8036 98.3678 90.8598 98.5231 90.9027C98.6816 90.9457 98.8435 90.9936 99.0087 91.0464C99.3027 91.1389 99.5785 91.2529 99.8362 91.3883C100.094 91.5205 100.302 91.684 100.461 91.8789C100.619 92.0738 100.695 92.3116 100.688 92.5924C100.688 92.9029 100.594 93.1755 100.406 93.41C100.221 93.6445 99.9799 93.8229 99.6826 93.9452C99.3853 94.0674 99.0698 94.1186 98.7361 94.0988ZM108.377 90.8978V94.0046H107.347V91.1505C107.347 90.9292 107.292 90.7277 107.183 90.546C107.077 90.3643 106.934 90.2206 106.752 90.1149C106.574 90.0059 106.372 89.9514 106.147 89.9514C105.929 89.9514 105.73 90.0059 105.548 90.1149C105.366 90.2206 105.221 90.3643 105.112 90.546C105.003 90.7277 104.948 90.9292 104.948 91.1505V94.0046H103.918V89.0496H104.948V89.5748C105.12 89.37 105.332 89.2081 105.583 89.0892C105.834 88.9703 106.105 88.9108 106.395 88.9108C106.762 88.9108 107.096 89 107.396 89.1784C107.697 89.3568 107.935 89.5963 108.11 89.8969C108.288 90.1975 108.377 90.5311 108.377 90.8978ZM111.45 94.1334C110.994 94.1334 110.578 94.0162 110.201 93.7816C109.828 93.5471 109.529 93.2333 109.304 92.8402C109.083 92.4438 108.972 92.0061 108.972 91.5271C108.972 91.1637 109.037 90.8251 109.166 90.5113C109.294 90.1942 109.471 89.9167 109.696 89.6789C109.924 89.4377 110.188 89.2494 110.489 89.114C110.789 88.9785 111.11 88.9108 111.45 88.9108C111.906 88.9108 112.32 89.0281 112.694 89.2626C113.07 89.4972 113.369 89.8126 113.59 90.209C113.815 90.6054 113.927 91.0448 113.927 91.5271C113.927 91.8872 113.863 92.2241 113.734 92.5379C113.605 92.8517 113.427 93.1292 113.199 93.3704C112.974 93.6082 112.712 93.7949 112.411 93.9303C112.114 94.0657 111.793 94.1334 111.45 94.1334ZM111.45 93.1028C111.724 93.1028 111.97 93.0301 112.188 92.8848C112.406 92.7394 112.578 92.5478 112.703 92.31C112.832 92.0688 112.897 91.8079 112.897 91.5271C112.897 91.2397 112.831 90.9754 112.698 90.7343C112.57 90.4931 112.396 90.3015 112.178 90.1595C111.96 90.0141 111.717 89.9415 111.45 89.9415C111.179 89.9415 110.933 90.0141 110.711 90.1595C110.493 90.3048 110.32 90.4981 110.191 90.7392C110.066 90.9804 110.003 91.243 110.003 91.5271C110.003 91.8211 110.069 92.087 110.201 92.3249C110.333 92.5627 110.508 92.7526 110.726 92.8947C110.948 93.0334 111.189 93.1028 111.45 93.1028ZM117.315 90.0802H116.275L116.27 94.0046H115.239L115.244 90.0802H114.456V89.0496H115.244L115.239 87.4937H116.27L116.275 89.0496H117.315V90.0802ZM121.856 87.9248V89.0496H123.254V90.0802H121.856V94.0046H120.826V90.0802H120.236V89.0496H120.826V87.9248C120.826 87.6539 120.892 87.4078 121.024 87.1865C121.156 86.9618 121.333 86.7834 121.554 86.6513C121.779 86.5192 122.028 86.4531 122.302 86.4531C122.501 86.4531 122.694 86.4927 122.882 86.572C123.07 86.6513 123.239 86.7735 123.388 86.9387L122.649 87.6671C122.613 87.6076 122.562 87.563 122.496 87.5333C122.433 87.5003 122.368 87.4838 122.302 87.4838C122.18 87.4838 122.074 87.5267 121.985 87.6126C121.899 87.6985 121.856 87.8025 121.856 87.9248ZM126.131 94.1334C125.675 94.1334 125.259 94.0162 124.882 93.7816C124.509 93.5471 124.21 93.2333 123.986 92.8402C123.764 92.4438 123.654 92.0061 123.654 91.5271C123.654 91.1637 123.718 90.8251 123.847 90.5113C123.976 90.1942 124.152 89.9167 124.377 89.6789C124.605 89.4377 124.869 89.2494 125.17 89.114C125.47 88.9785 125.791 88.9108 126.131 88.9108C126.587 88.9108 127.002 89.0281 127.375 89.2626C127.751 89.4972 128.05 89.8126 128.272 90.209C128.496 90.6054 128.609 91.0448 128.609 91.5271C128.609 91.8872 128.544 92.2241 128.415 92.5379C128.287 92.8517 128.108 93.1292 127.88 93.3704C127.656 93.6082 127.393 93.7949 127.092 93.9303C126.795 94.0657 126.475 94.1334 126.131 94.1334ZM126.131 93.1028C126.405 93.1028 126.651 93.0301 126.869 92.8848C127.087 92.7394 127.259 92.5478 127.385 92.31C127.514 92.0688 127.578 91.8079 127.578 91.5271C127.578 91.2397 127.512 90.9754 127.38 90.7343C127.251 90.4931 127.077 90.3015 126.859 90.1595C126.641 90.0141 126.399 89.9415 126.131 89.9415C125.86 89.9415 125.614 90.0141 125.393 90.1595C125.175 90.3048 125.001 90.4981 124.872 90.7392C124.747 90.9804 124.684 91.243 124.684 91.5271C124.684 91.8211 124.75 92.087 124.882 92.3249C125.015 92.5627 125.19 92.7526 125.408 92.8947C125.629 93.0334 125.87 93.1028 126.131 93.1028ZM129.114 92.1465V89.0496H130.145V91.8938C130.145 92.1151 130.199 92.3166 130.308 92.4983C130.417 92.68 130.563 92.8253 130.744 92.9343C130.926 93.04 131.126 93.0929 131.344 93.0929C131.565 93.0929 131.765 93.04 131.944 92.9343C132.125 92.8253 132.269 92.68 132.375 92.4983C132.484 92.3166 132.538 92.1151 132.538 91.8938V89.0496H133.569L133.574 94.0046H132.543L132.538 93.4695C132.37 93.6743 132.16 93.8361 131.909 93.9551C131.658 94.074 131.389 94.1334 131.101 94.1334C130.734 94.1334 130.401 94.0443 130.1 93.8659C129.8 93.6875 129.56 93.448 129.382 93.1474C129.203 92.8468 129.114 92.5131 129.114 92.1465ZM139.027 90.8978V94.0046H137.996V91.1505C137.996 90.9292 137.942 90.7277 137.833 90.546C137.727 90.3643 137.583 90.2206 137.402 90.1149C137.223 90.0059 137.022 89.9514 136.797 89.9514C136.579 89.9514 136.379 90.0059 136.198 90.1149C136.016 90.2206 135.871 90.3643 135.762 90.546C135.653 90.7277 135.598 90.9292 135.598 91.1505V94.0046H134.567V89.0496H135.598V89.5748C135.77 89.37 135.981 89.2081 136.232 89.0892C136.483 88.9703 136.754 88.9108 137.045 88.9108C137.412 88.9108 137.745 89 138.046 89.1784C138.346 89.3568 138.584 89.5963 138.759 89.8969C138.938 90.1975 139.027 90.5311 139.027 90.8978ZM143.779 86.572H144.81V94.0046H143.779V93.2762C143.617 93.5339 143.406 93.742 143.145 93.9006C142.884 94.0558 142.579 94.1334 142.228 94.1334C141.868 94.1334 141.531 94.0657 141.218 93.9303C140.904 93.7949 140.626 93.6082 140.385 93.3704C140.147 93.1292 139.961 92.8517 139.825 92.5379C139.69 92.2241 139.622 91.8872 139.622 91.5271C139.622 91.167 139.69 90.8301 139.825 90.5163C139.961 90.1991 140.147 89.9216 140.385 89.6838C140.626 89.4427 140.904 89.2544 141.218 89.1189C141.531 88.9835 141.868 88.9158 142.228 88.9158C142.579 88.9158 142.884 88.9951 143.145 89.1536C143.406 89.3089 143.617 89.5137 143.779 89.768V86.572ZM142.238 93.1375C142.529 93.1375 142.783 93.0665 143.001 92.9244C143.219 92.7791 143.388 92.5842 143.507 92.3397C143.629 92.0953 143.69 91.8244 143.69 91.5271C143.69 91.2265 143.629 90.954 143.507 90.7095C143.385 90.4651 143.214 90.2718 142.996 90.1298C142.782 89.9844 142.529 89.9117 142.238 89.9117C141.951 89.9117 141.688 89.9844 141.45 90.1298C141.216 90.2751 141.028 90.47 140.886 90.7145C140.747 90.9589 140.677 91.2298 140.677 91.5271C140.677 91.8277 140.748 92.1002 140.89 92.3447C141.036 92.5858 141.226 92.7791 141.46 92.9244C141.698 93.0665 141.957 93.1375 142.238 93.1375Z" fill="#FA0C00"/>
</g>
</g>
</g>
<defs>
<filter id="filter0_d_1384_32630" x="0.000411987" y="0.00236511" width="365.696" height="433.292" filterUnits="userSpaceOnUse" color-interpolation-filters="sRGB">
<feFlood flood-opacity="0" result="BackgroundImageFix"/>
<feColorMatrix in="SourceAlpha" type="matrix" values="0 0 0 0 0 0 0 0 0 0 0 0 0 0 0 0 0 0 127 0" result="hardAlpha"/>
<feOffset/>
<feGaussianBlur stdDeviation="43.9871"/>
<feComposite in2="hardAlpha" operator="out"/>
<feColorMatrix type="matrix" values="0 0 0 0 0.141176 0 0 0 0 0.372549 0 0 0 0 1 0 0 0 0.68 0"/>
<feBlend mode="normal" in2="BackgroundImageFix" result="effect1_dropShadow_1384_32630"/>
<feBlend mode="normal" in="SourceGraphic" in2="effect1_dropShadow_1384_32630" result="shape"/>
</filter>
<filter id="filter1_d_1384_32630" x="49" y="75.5" width="106.012" height="31.0078" filterUnits="userSpaceOnUse" color-interpolation-filters="sRGB">
<feFlood flood-opacity="0" result="BackgroundImageFix"/>
<feColorMatrix in="SourceAlpha" type="matrix" values="0 0 0 0 0 0 0 0 0 0 0 0 0 0 0 0 0 0 127 0" result="hardAlpha"/>
<feOffset/>
<feGaussianBlur stdDeviation="2"/>
<feComposite in2="hardAlpha" operator="out"/>
<feColorMatrix type="matrix" values="0 0 0 0 0.827451 0 0 0 0 0 0 0 0 0 0 0 0 0 1 0"/>
<feBlend mode="normal" in2="BackgroundImageFix" result="effect1_dropShadow_1384_32630"/>
<feBlend mode="normal" in="SourceGraphic" in2="effect1_dropShadow_1384_32630" result="shape"/>
</filter>
<clipPath id="clip0_1384_32630">
<rect width="290" height="318" fill="white"/>
</clipPath>
<clipPath id="clip1_1384_32630">
<rect width="107" height="32" fill="white" transform="translate(49 75.5)"/>
</clipPath>
</defs>
</svg>
