<svg width="270" height="237" viewBox="0 0 270 237" fill="none" xmlns="http://www.w3.org/2000/svg">
<g clip-path="url(#clip0_1384_32354)">
<path opacity="0.5" d="M169.724 39.6719H25.1113V240.996H169.724V39.6719Z" fill="#B3B3B3"/>
<path d="M167.793 37.1797H23.1797V238.504H167.793V37.1797Z" fill="#C1E6EA"/>
<path d="M116.695 108.336H89.9434V112.589H116.695V108.336Z" fill="#FBB03B"/>
<path d="M155.101 116.445H89.9434V117.705H155.101V116.445Z" fill="white"/>
<path d="M155.101 119.602H89.9434V120.862H155.101V119.602Z" fill="white"/>
<path d="M155.101 122.75H89.9434V124.011H155.101V122.75Z" fill="white"/>
<path d="M155.101 125.898H89.9434V127.158H155.101V125.898Z" fill="white"/>
<path d="M155.101 129.055H89.9434V130.315H155.101V129.055Z" fill="white"/>
<path d="M155.101 132.203H89.9434V133.463H155.101V132.203Z" fill="white"/>
<path d="M155.101 135.352H89.9434V136.612H155.101V135.352Z" fill="white"/>
<path d="M51.715 108.336H35.873V115.652H51.715V108.336Z" fill="#FBB03B"/>
<path d="M74.4585 122.289H35.873V124.456H74.4585V122.289Z" fill="white"/>
<path d="M74.4585 127.703H35.873V129.871H74.4585V127.703Z" fill="white"/>
<path d="M74.4585 133.125H35.873V135.293H74.4585V133.125Z" fill="white"/>
<path d="M74.4585 138.547H35.873V140.714H74.4585V138.547Z" fill="white"/>
<path d="M74.4585 143.969H35.873V146.137H74.4585V143.969Z" fill="white"/>
<path d="M74.4585 149.391H35.873V151.559H74.4585V149.391Z" fill="white"/>
<path d="M74.4585 154.805H35.873V156.973H74.4585V154.805Z" fill="white"/>
<path d="M51.715 176.195H35.873V183.511H51.715V176.195Z" fill="#FBB03B"/>
<path d="M74.4585 190.148H35.873V192.316H74.4585V190.148Z" fill="white"/>
<path d="M74.4585 195.57H35.873V197.738H74.4585V195.57Z" fill="white"/>
<path d="M74.4585 200.984H35.873V203.152H74.4585V200.984Z" fill="white"/>
<path d="M74.4585 206.406H35.873V208.574H74.4585V206.406Z" fill="white"/>
<path d="M74.4585 211.828H35.873V213.995H74.4585V211.828Z" fill="white"/>
<path d="M74.4585 217.25H35.873V219.418H74.4585V217.25Z" fill="white"/>
<path d="M74.4585 222.672H35.873V224.84H74.4585V222.672Z" fill="white"/>
<path d="M116.695 152.445H89.9434V156.698H116.695V152.445Z" fill="#FBB03B"/>
<path d="M155.101 160.562H89.9434V161.823H155.101V160.562Z" fill="white"/>
<path d="M155.101 163.711H89.9434V164.971H155.101V163.711Z" fill="white"/>
<path d="M155.101 166.859H89.9434V168.119H155.101V166.859Z" fill="white"/>
<path d="M155.101 170.016H89.9434V171.277H155.101V170.016Z" fill="white"/>
<path d="M155.101 173.164H89.9434V174.424H155.101V173.164Z" fill="white"/>
<path d="M155.101 176.312H89.9434V177.573H155.101V176.312Z" fill="white"/>
<path d="M155.101 179.469H89.9434V180.729H155.101V179.469Z" fill="white"/>
<path d="M116.695 196.562H89.9434V200.815H116.695V196.562Z" fill="#FBB03B"/>
<path d="M155.101 204.672H89.9434V205.932H155.101V204.672Z" fill="white"/>
<path d="M155.101 207.82H89.9434V209.08H155.101V207.82Z" fill="white"/>
<path d="M155.101 210.977H89.9434V212.237H155.101V210.977Z" fill="white"/>
<path d="M155.101 214.125H89.9434V215.386H155.101V214.125Z" fill="white"/>
<path d="M155.101 217.273H89.9434V218.533H155.101V217.273Z" fill="white"/>
<path d="M155.101 220.43H89.9434V221.69H155.101V220.43Z" fill="white"/>
<path d="M155.101 223.578H89.9434V224.838H155.101V223.578Z" fill="white"/>
<path d="M130.776 47.2266H60.1992V53.2131H130.776V47.2266Z" fill="#FBB03B"/>
<path d="M101.725 67.375H64.543V71.6286H101.725V67.375Z" fill="#FBB03B"/>
<path d="M155.104 75.4922H64.543V76.7525H155.104V75.4922Z" fill="white"/>
<path d="M155.104 78.6406H64.543V79.901H155.104V78.6406Z" fill="white"/>
<path d="M155.104 81.7891H64.543V83.0494H155.104V81.7891Z" fill="white"/>
<path d="M155.104 84.9375H64.543V86.1978H155.104V84.9375Z" fill="white"/>
<path d="M155.104 88.0938H64.543V89.354H155.104V88.0938Z" fill="white"/>
<path d="M155.104 91.2422H64.543V92.5025H155.104V91.2422Z" fill="white"/>
<path d="M155.104 94.3906H64.543V95.6509H155.104V94.3906Z" fill="white"/>
<path d="M60.328 63.4219H35.873V95.6548H60.328V63.4219Z" fill="#FBB03B"/>
<mask id="mask0_1384_32354" style="mask-type:luminance" maskUnits="userSpaceOnUse" x="35" y="63" width="26" height="33">
<path d="M60.328 63.4219H35.873V95.6549H60.328V63.4219Z" fill="white"/>
</mask>
<g mask="url(#mask0_1384_32354)">
<path d="M53.4357 68.5203C52.7779 67.9191 51.9586 67.621 51.4886 67.4887C51.2718 66.8541 50.3719 65.5081 46.6773 66.3607C43.5927 67.0728 42.5895 69.8909 42.3501 70.7598C42.3085 70.9104 42.2871 71.0642 42.2871 71.2205V74.8829L42.667 75.6158L43.3684 75.6719L43.3123 71.8298L45.3036 69.8108L51.0166 67.9664L53.885 74.5508C53.885 74.5508 54.4175 69.4176 53.4357 68.5203Z" fill="#371D1C"/>
<path d="M48.1607 80.4897H48.0359C44.8845 80.4897 42.3066 77.9111 42.3066 74.7603V72.2763C42.3066 69.1249 44.8845 66.5469 48.0359 66.5469H48.1607C51.3121 66.5469 53.8901 69.1249 53.8901 72.2763V74.7603C53.8901 77.9111 51.3121 80.4897 48.1607 80.4897Z" fill="#371D1C"/>
<path d="M43.5129 78.3068C43.2211 78.2634 42.9722 78.1682 42.7655 78.0359C41.5014 77.2287 41.7188 75.049 42.2891 74.8807C42.4586 74.8303 42.6193 74.8492 42.7655 74.9078C43.1915 75.0729 43.4864 75.5556 43.4864 75.5556L43.5129 78.3068Z" fill="#E4B69D"/>
<path d="M53.4388 78.0357C53.2321 78.168 52.9845 78.2632 52.6914 78.3067L52.7185 75.5554C52.7185 75.5554 53.0134 75.0715 53.4388 74.9076C53.585 74.8496 53.7438 74.8301 53.9139 74.8805C54.4855 75.0488 54.7029 77.2285 53.4388 78.0357Z" fill="#E4B69D"/>
<path opacity="0.5" d="M43.4859 75.554L43.513 78.3054C43.2212 78.2619 42.9723 78.1666 42.7656 78.0343V74.9062C43.191 75.0713 43.4859 75.554 43.4859 75.554Z" fill="#9C7761"/>
<path opacity="0.5" d="M53.4387 74.9062V78.0343C53.232 78.1666 52.9844 78.2619 52.6914 78.3054L52.7184 75.554C52.7184 75.554 53.0134 75.0702 53.4387 74.9062Z" fill="#9C7761"/>
<path d="M41.6423 85.9221C41.6423 85.9221 39.0366 85.8477 37.6969 88.7508C36.3572 91.6539 33.6772 95.748 33.7515 99.7684C33.8259 103.789 37.92 103.863 40.5257 100.96L41.6423 85.9221Z" fill="#724C2D"/>
<path d="M54.5508 85.9221C54.5508 85.9221 57.1565 85.8477 58.4962 88.7508C59.8359 91.6539 62.516 95.748 62.4416 99.7684C62.3672 103.789 58.2731 103.863 55.6675 100.96L54.5508 85.9221Z" fill="#724C2D"/>
<path d="M51.6052 84.1016H44.5928C44.0818 84.4179 43.8083 85.0512 43.9936 85.6745L48.0996 99.4931L52.2051 85.6745C52.3897 85.0512 52.1162 84.4179 51.6052 84.1016Z" fill="#CCCCCC"/>
<path d="M57.4033 88.0312V109.767H38.793V88.0312C38.793 87.2871 39.2291 86.6108 39.9065 86.3027L41.5171 85.5704L42.6023 85.0765L42.9281 84.9277L44.4839 84.2188L47.9485 97.2963L48.0972 97.8578L48.2459 97.2963L51.7105 84.2188L53.2664 84.9277L53.5921 85.0751L54.6773 85.5693L56.2898 86.3034C56.9685 86.6115 57.4033 87.2871 57.4033 88.0312Z" fill="#8C6239"/>
<path d="M51.0028 83.8953C50.3745 85.5508 49.3083 86.639 48.0984 86.639C46.8885 86.639 45.8216 85.5508 45.1934 83.8953L45.2696 83.8613L45.3396 83.1083L45.7164 79.0469L48.0984 79.345L50.4804 79.0469L50.8572 83.1083L50.9271 83.8613L51.0028 83.8953Z" fill="#E4B69D"/>
<path opacity="0.5" d="M50.8574 83.1083L49.8523 84.0107C49.6066 84.2312 49.328 84.402 49.0319 84.5167C48.7338 84.6314 48.4187 84.6925 48.0986 84.6925C47.4584 84.6925 46.8377 84.4511 46.3461 84.0107L45.3398 83.1083L45.7166 79.0469L48.0986 79.345L50.4806 79.0469L50.8574 83.1083Z" fill="#9C7761"/>
<path d="M46.0271 69.0625C44.4505 69.0625 43.1719 70.3411 43.1719 71.9178V78.4978C43.1719 79.3637 43.5298 80.1854 44.1499 80.7405L46.346 82.7104C46.8375 83.1515 47.4582 83.3929 48.0991 83.3929C48.7399 83.3929 49.3606 83.1515 49.8522 82.7104L52.0482 80.7405C52.6677 80.1847 53.0262 79.3637 53.0262 78.4978V71.9178C53.0262 70.3411 51.7477 69.0625 50.171 69.0625H46.0271Z" fill="#E4B69D"/>
<path d="M45.9692 75.8092C45.9692 76.1999 45.7656 76.5169 45.5148 76.5169C45.264 76.5169 45.0605 76.1999 45.0605 75.8092C45.0605 75.4185 45.264 75.1016 45.5148 75.1016C45.7656 75.1016 45.9692 75.4185 45.9692 75.8092Z" fill="#371D1C"/>
<path d="M44.8711 74.6494C45.0362 74.4843 45.2637 74.3828 45.5151 74.3828C45.7666 74.3828 45.9947 74.4849 46.1591 74.6494" stroke="#371D1C" stroke-width="0.507021" stroke-miterlimit="10" stroke-linecap="round"/>
<path d="M51.1411 75.8092C51.1411 76.1999 50.9376 76.5169 50.6868 76.5169C50.436 76.5169 50.2324 76.1999 50.2324 75.8092C50.2324 75.4185 50.436 75.1016 50.6868 75.1016C50.9382 75.1016 51.1411 75.4185 51.1411 75.8092Z" fill="#371D1C"/>
<path d="M50.043 74.6494C50.2081 74.4843 50.4356 74.3828 50.687 74.3828C50.9384 74.3828 51.1666 74.4849 51.3317 74.6494" stroke="#371D1C" stroke-width="0.507021" stroke-miterlimit="10" stroke-linecap="round"/>
<path d="M50.1554 79.1094C50.1554 80.0345 49.2221 80.7844 48.0708 80.7844C46.9195 80.7844 45.9863 80.0345 45.9863 79.1094H50.1554Z" fill="white"/>
<g opacity="0.5">
<path d="M48.0993 78.463C47.8164 78.463 47.5498 78.3527 47.3501 78.1523C47.2921 78.0944 47.2921 77.9998 47.3501 77.9419C47.408 77.8839 47.5026 77.8839 47.5605 77.9419C47.7042 78.0855 47.8958 78.1649 48.0993 78.1649C48.3029 78.1649 48.4944 78.0855 48.6381 77.9419C48.6961 77.8839 48.7906 77.8839 48.8486 77.9419C48.9065 77.9998 48.9065 78.0944 48.8486 78.1523C48.6488 78.3527 48.3829 78.463 48.0993 78.463Z" fill="#9C7761"/>
</g>
<path d="M48.0985 97.864L49.3109 93.2878L48.7734 88.3594H47.4243L46.8867 93.2878L48.0985 97.864Z" fill="#603813"/>
<path d="M48.7385 88.735L49.317 87.4507L48.5539 85.7266H47.642L46.8789 87.4507L47.4574 88.735H48.7385Z" fill="#72421A"/>
<path d="M51.7166 84.1992L50.9232 83.6875L48.0982 85.617L45.2732 83.6875L44.4805 84.1992L46.4409 87.7564L48.0982 85.808L49.7908 87.7564L51.7166 84.1992Z" fill="white"/>
<path d="M54.459 90.7574L50.3007 93.9642L52.1646 97.1099C52.2006 97.1692 52.1886 97.2454 52.1394 97.2933L48.2653 100.966C48.2608 100.972 48.2533 100.974 48.2476 100.978V109.771H47.9502V100.977C47.9439 100.973 47.9369 100.972 47.9325 100.965L44.0584 97.2927C44.0092 97.2448 43.9972 97.1692 44.0331 97.1093L45.8971 93.9636L41.7388 90.7567C41.6953 90.7227 41.6745 90.6691 41.6839 90.6137L42.604 85.0784L42.9297 84.9297L41.9914 90.5752L46.1826 93.8092C46.2418 93.8552 46.2582 93.939 46.2198 94.0026L44.3501 97.1591L47.9502 100.572V95.9738C47.9502 95.8918 48.017 95.825 48.0989 95.825C48.1808 95.825 48.2476 95.8918 48.2476 95.9738V100.572L51.8477 97.1591L49.978 94.0026C49.9389 93.9384 49.956 93.8552 50.0152 93.8092L54.2063 90.5752L53.268 84.9297L53.5938 85.0772L54.5139 90.6143C54.5227 90.6691 54.5019 90.7227 54.459 90.7574Z" fill="#603813"/>
<path d="M44.8906 71.1816C44.8906 71.1816 44.8263 72.9309 43.5326 73.5825V77.1C43.5326 77.1 42.9277 77.1744 42.9277 76.3369C42.9277 75.4994 42.9277 71.1816 42.9277 71.1816L43.3788 70.3359L44.8906 71.1816Z" fill="#371D1C"/>
<path d="M51.3047 71.1816C51.3047 71.1816 51.369 72.9309 52.6627 73.5825V77.1C52.6627 77.1 53.2676 77.1744 53.2676 76.3369C53.2676 75.4994 53.2676 71.1816 53.2676 71.1816L52.8164 70.3359L51.3047 71.1816Z" fill="#371D1C"/>
<path d="M42.9185 73.7061C42.9185 73.7061 49.3404 73.0047 51.2195 68.5457C51.2195 68.5457 49.2005 67.9849 46.9004 68.2092C44.601 68.4336 43.507 69.6958 43.507 69.6958L42.834 70.8174L42.9185 73.7061Z" fill="#371D1C"/>
<path d="M49.3965 69.3596C49.3965 69.3596 50.4905 73.6227 53.2386 73.6504L53.1264 69.4157C53.1264 69.4157 51.6122 68.2941 50.6587 68.434C49.7053 68.5739 49.3965 69.3596 49.3965 69.3596Z" fill="#371D1C"/>
</g>
<g filter="url(#filter0_d_1384_32354)">
<path d="M74.0618 30H22.0618C17.1564 30 13.1797 33.9767 13.1797 38.8821C13.1797 43.7876 17.1564 47.7643 22.0618 47.7643H74.0618C78.9673 47.7643 82.944 43.7876 82.944 38.8821C82.944 33.9767 78.9673 30 74.0618 30Z" fill="white"/>
<path d="M74.0618 30H22.0618C17.1564 30 13.1797 33.9767 13.1797 38.8821C13.1797 43.7876 17.1564 47.7643 22.0618 47.7643H74.0618C78.9673 47.7643 82.944 43.7876 82.944 38.8821C82.944 33.9767 78.9673 30 74.0618 30Z" fill="#FA0C00" fill-opacity="0.2"/>
<path d="M18.0352 41.3846V35.8631H20.0663C20.3661 35.8631 20.6356 35.9367 20.8748 36.084C21.1141 36.2312 21.3034 36.4298 21.4428 36.6796C21.5847 36.9267 21.6557 37.2027 21.6557 37.5077C21.6557 37.7654 21.6071 38.0007 21.5098 38.2137C21.4151 38.4266 21.2811 38.6081 21.1075 38.7579C20.9366 38.9078 20.7407 39.0156 20.5199 39.0813L21.8529 41.3846H20.9024L19.6088 39.1563H18.8555V41.3846H18.0352ZM18.8555 38.3359H19.9796C20.1373 38.3359 20.2806 38.2965 20.4094 38.2176C20.5409 38.1387 20.6448 38.0336 20.721 37.9021C20.7973 37.7706 20.8354 37.6221 20.8354 37.4564C20.8354 37.2908 20.7973 37.1422 20.721 37.0108C20.6448 36.8767 20.5409 36.7716 20.4094 36.6954C20.2806 36.6165 20.1373 36.577 19.9796 36.577H18.8555V38.3359ZM24.1535 41.4871C23.7907 41.4871 23.4594 41.3938 23.1597 41.2071C22.8626 41.0204 22.6246 40.7707 22.4458 40.4578C22.2696 40.1423 22.1816 39.7939 22.1816 39.4126C22.1816 39.1234 22.2328 38.8539 22.3354 38.6041C22.4379 38.3517 22.5786 38.1309 22.7574 37.9415C22.9388 37.7496 23.1491 37.5997 23.3884 37.4919C23.6277 37.3841 23.8827 37.3302 24.1535 37.3302C24.4559 37.3302 24.7333 37.3934 24.9857 37.5196C25.2381 37.6432 25.4537 37.8153 25.6325 38.0362C25.8113 38.2544 25.9428 38.5068 26.0269 38.7934C26.111 39.0774 26.136 39.3799 26.1018 39.7006H23.0611C23.0952 39.8821 23.161 40.0464 23.2583 40.1936C23.3582 40.3382 23.4844 40.4526 23.6369 40.5368C23.792 40.6209 23.9642 40.6642 24.1535 40.6668C24.3534 40.6668 24.5348 40.6168 24.6978 40.5169C24.8634 40.417 24.9989 40.279 25.104 40.1028L25.9362 40.2962C25.7784 40.6459 25.5405 40.9324 25.2223 41.1559C24.9042 41.3767 24.5479 41.4871 24.1535 41.4871ZM23.0335 39.0735H25.2736C25.2473 38.8841 25.1803 38.7132 25.0725 38.5607C24.9673 38.4056 24.8345 38.2834 24.6741 38.194C24.5164 38.1019 24.3428 38.056 24.1535 38.056C23.9669 38.056 23.7933 38.1006 23.6329 38.19C23.4752 38.2794 23.3437 38.4018 23.2385 38.5569C23.136 38.7094 23.0676 38.8815 23.0335 39.0735ZM27.9536 41.4595C27.7459 41.4464 27.5434 41.4043 27.3462 41.3333C27.149 41.2623 26.9755 41.1664 26.8256 41.0454C26.6784 40.9218 26.5679 40.7772 26.4943 40.6116L27.1924 40.312C27.2266 40.3829 27.2857 40.4526 27.3699 40.521C27.4566 40.5893 27.5579 40.6458 27.6736 40.6905C27.7892 40.7325 27.9102 40.7537 28.0364 40.7537C28.16 40.7537 28.2744 40.7366 28.3795 40.7024C28.4873 40.6656 28.5754 40.6104 28.6438 40.5368C28.7121 40.4631 28.7463 40.375 28.7463 40.2724C28.7463 40.1567 28.7069 40.0673 28.628 40.0042C28.5517 39.9385 28.4558 39.8886 28.3401 39.8545C28.2244 39.8203 28.1087 39.7873 27.993 39.7558C27.7353 39.6979 27.4987 39.619 27.2831 39.5191C27.0701 39.4166 26.9005 39.2864 26.7743 39.1287C26.6481 38.9683 26.585 38.7724 26.585 38.541C26.585 38.2886 26.6534 38.0704 26.7901 37.8863C26.9268 37.6997 27.1056 37.5564 27.3265 37.4564C27.55 37.3565 27.7879 37.3066 28.0403 37.3066C28.3559 37.3066 28.6451 37.3736 28.908 37.5077C29.1709 37.6418 29.3721 37.8259 29.5114 38.0599L28.8607 38.4464C28.8212 38.3675 28.7621 38.2965 28.6832 38.2334C28.6043 38.1703 28.5149 38.1203 28.415 38.0835C28.3151 38.0441 28.2112 38.0217 28.1034 38.0165C27.9694 38.0112 27.8445 38.0271 27.7288 38.0639C27.6157 38.0981 27.525 38.1532 27.4566 38.2295C27.3883 38.3057 27.3541 38.4031 27.3541 38.5214C27.3541 38.6371 27.3949 38.7239 27.4764 38.7817C27.5579 38.8369 27.6604 38.8815 27.784 38.9157C27.9102 38.9499 28.039 38.988 28.1705 39.0301C28.4045 39.1037 28.624 39.1944 28.8291 39.3022C29.0342 39.4074 29.1999 39.5375 29.3261 39.6927C29.4523 39.8478 29.5127 40.0372 29.5075 40.2607C29.5075 40.5078 29.4326 40.7248 29.2827 40.9114C29.1354 41.0981 28.9435 41.24 28.7069 41.3373C28.4702 41.4346 28.2191 41.4753 27.9536 41.4595ZM30.0251 39.9056V37.4408H30.8454V39.7045C30.8454 39.8806 30.8888 40.041 30.9756 40.1856C31.0623 40.3303 31.178 40.4459 31.3226 40.5327C31.4672 40.6168 31.6263 40.659 31.7998 40.659C31.976 40.659 32.1351 40.6168 32.2771 40.5327C32.4217 40.4459 32.536 40.3303 32.6202 40.1856C32.7069 40.041 32.7503 39.8806 32.7503 39.7045V37.4408H33.5707L33.5746 41.3846H32.7543L32.7503 40.9587C32.6162 41.1217 32.4493 41.2505 32.2495 41.3452C32.0496 41.4398 31.8353 41.4871 31.6066 41.4871C31.3147 41.4871 31.0492 41.4163 30.8099 41.2743C30.5706 41.1323 30.38 40.9417 30.238 40.7024C30.0961 40.4631 30.0251 40.1975 30.0251 39.9056ZM34.3656 41.3846V37.4408H35.1859V37.8587C35.3226 37.6957 35.4896 37.5669 35.6868 37.4722C35.8866 37.3776 36.1022 37.3302 36.3336 37.3302C36.6149 37.3302 36.8739 37.3987 37.1105 37.5354C37.3472 37.6695 37.5352 37.8483 37.6745 38.0718C37.8139 37.8483 37.9992 37.6695 38.2306 37.5354C38.4646 37.3987 38.7223 37.3302 39.0036 37.3302C39.2955 37.3302 39.561 37.4012 39.8003 37.5432C40.0396 37.6852 40.2302 37.8759 40.3722 38.1152C40.5142 38.3544 40.5851 38.6199 40.5851 38.9118V41.3846H39.7648V39.1208C39.7648 38.9472 39.7227 38.7883 39.6386 38.6437C39.5545 38.4991 39.4414 38.382 39.2994 38.2926C39.1574 38.2032 38.9997 38.1586 38.8261 38.1586C38.6526 38.1586 38.4949 38.2005 38.3529 38.2847C38.2109 38.3688 38.0978 38.4832 38.0137 38.6278C37.9296 38.7724 37.8875 38.9367 37.8875 39.1208V41.3846H37.0672V39.1208C37.0672 38.9367 37.0251 38.7724 36.9409 38.6278C36.8568 38.4832 36.7424 38.3688 36.5978 38.2847C36.4558 38.2005 36.2981 38.1586 36.1246 38.1586C35.9536 38.1586 35.7959 38.2032 35.6513 38.2926C35.5093 38.382 35.3962 38.4991 35.3121 38.6437C35.228 38.7883 35.1859 38.9472 35.1859 39.1208V41.3846H34.3656ZM43.0336 41.4871C42.6707 41.4871 42.3395 41.3938 42.0397 41.2071C41.7426 41.0204 41.5047 40.7707 41.3259 40.4578C41.1497 40.1423 41.0616 39.7939 41.0616 39.4126C41.0616 39.1234 41.1129 38.8539 41.2154 38.6041C41.318 38.3517 41.4586 38.1309 41.6374 37.9415C41.8189 37.7496 42.0292 37.5997 42.2685 37.4919C42.5077 37.3841 42.7628 37.3302 43.0336 37.3302C43.336 37.3302 43.6133 37.3934 43.8658 37.5196C44.1182 37.6432 44.3338 37.8153 44.5126 38.0362C44.6914 38.2544 44.8228 38.5068 44.907 38.7934C44.9911 39.0774 45.0161 39.3799 44.9819 39.7006H41.9411C41.9753 39.8821 42.041 40.0464 42.1383 40.1936C42.2382 40.3382 42.3644 40.4526 42.5169 40.5368C42.6721 40.6209 42.8443 40.6642 43.0336 40.6668C43.2334 40.6668 43.4148 40.6168 43.5779 40.5169C43.7435 40.417 43.8789 40.279 43.9841 40.1028L44.8162 40.2962C44.6585 40.6459 44.4205 40.9324 44.1024 41.1559C43.7843 41.3767 43.428 41.4871 43.0336 41.4871ZM41.9135 39.0735H44.1537C44.1274 38.8841 44.0603 38.7132 43.9525 38.5607C43.8474 38.4056 43.7146 38.2834 43.5542 38.194C43.3964 38.1019 43.2229 38.056 43.0336 38.056C42.8469 38.056 42.6734 38.1006 42.513 38.19C42.3552 38.2794 42.2238 38.4018 42.1186 38.5569C42.0161 38.7094 41.9477 38.8815 41.9135 39.0735ZM47.5993 41.3846V35.8631H49.6304C49.9302 35.8631 50.1997 35.9367 50.4389 36.084C50.6782 36.2312 50.8675 36.4298 51.0069 36.6796C51.1489 36.9267 51.2198 37.2027 51.2198 37.5077C51.2198 37.7654 51.1712 38.0007 51.0739 38.2137C50.9793 38.4266 50.8452 38.6081 50.6716 38.7579C50.5007 38.9078 50.3049 39.0156 50.084 39.0813L51.417 41.3846H50.4666L49.1729 39.1563H48.4197V41.3846H47.5993ZM48.4197 38.3359H49.5437C49.7014 38.3359 49.8447 38.2965 49.9736 38.2176C50.105 38.1387 50.2089 38.0336 50.2851 37.9021C50.3614 37.7706 50.3995 37.6221 50.3995 37.4564C50.3995 37.2908 50.3614 37.1422 50.2851 37.0108C50.2089 36.8767 50.105 36.7716 49.9736 36.6954C49.8447 36.6165 49.7014 36.577 49.5437 36.577H48.4197V38.3359ZM53.7176 41.4871C53.3548 41.4871 53.0235 41.3938 52.7238 41.2071C52.4267 41.0204 52.1887 40.7707 52.0099 40.4578C51.8338 40.1423 51.7457 39.7939 51.7457 39.4126C51.7457 39.1234 51.797 38.8539 51.8995 38.6041C52.002 38.3517 52.1427 38.1309 52.3215 37.9415C52.5029 37.7496 52.7133 37.5997 52.9525 37.4919C53.1918 37.3841 53.4468 37.3302 53.7176 37.3302C54.02 37.3302 54.2974 37.3934 54.5498 37.5196C54.8022 37.6432 55.0178 37.8153 55.1966 38.0362C55.3754 38.2544 55.5069 38.5068 55.591 38.7934C55.6752 39.0774 55.7001 39.3799 55.666 39.7006H52.6252C52.6594 39.8821 52.7251 40.0464 52.8224 40.1936C52.9223 40.3382 53.0485 40.4526 53.201 40.5368C53.3561 40.6209 53.5283 40.6642 53.7176 40.6668C53.9175 40.6668 54.0989 40.6168 54.2619 40.5169C54.4276 40.417 54.563 40.279 54.6681 40.1028L55.5003 40.2962C55.3426 40.6459 55.1046 40.9324 54.7865 41.1559C54.4683 41.3767 54.112 41.4871 53.7176 41.4871ZM52.5976 39.0735H54.8377C54.8114 38.8841 54.7444 38.7132 54.6366 38.5607C54.5314 38.4056 54.3986 38.2834 54.2382 38.194C54.0805 38.1019 53.907 38.056 53.7176 38.056C53.531 38.056 53.3574 38.1006 53.197 38.19C53.0393 38.2794 52.9078 38.4018 52.8027 38.5569C52.7001 38.7094 52.6318 38.8815 52.5976 39.0735ZM55.5534 43.3566V42.5362C55.7191 42.5362 55.8676 42.4981 55.9991 42.4219C56.1332 42.3482 56.2384 42.2458 56.3146 42.1143C56.3935 41.9829 56.4329 41.8368 56.4329 41.6765V37.4408H57.2533V41.6765C57.2533 41.9841 57.1783 42.2654 57.0285 42.5205C56.8786 42.7755 56.6748 42.978 56.4171 43.1278C56.1621 43.2803 55.8742 43.3566 55.5534 43.3566ZM56.851 36.8689C56.7248 36.8689 56.6196 36.828 56.5355 36.7465C56.4513 36.665 56.4093 36.5625 56.4093 36.4389C56.4093 36.318 56.4513 36.2168 56.5355 36.1353C56.6196 36.0512 56.7235 36.009 56.847 36.009C56.968 36.009 57.0705 36.0512 57.1547 36.1353C57.2388 36.2168 57.2809 36.318 57.2809 36.4389C57.2809 36.5625 57.2388 36.665 57.1547 36.7465C57.0732 36.828 56.9719 36.8689 56.851 36.8689ZM59.8646 41.4871C59.5018 41.4871 59.1705 41.3938 58.8708 41.2071C58.5737 41.0204 58.3357 40.7707 58.1569 40.4578C57.9808 40.1423 57.8927 39.7939 57.8927 39.4126C57.8927 39.1234 57.9439 38.8539 58.0465 38.6041C58.149 38.3517 58.2897 38.1309 58.4685 37.9415C58.6499 37.7496 58.8603 37.5997 59.0995 37.4919C59.3388 37.3841 59.5938 37.3302 59.8646 37.3302C60.167 37.3302 60.4444 37.3934 60.6968 37.5196C60.9492 37.6432 61.1648 37.8153 61.3436 38.0362C61.5224 38.2544 61.6539 38.5068 61.738 38.7934C61.8222 39.0774 61.8471 39.3799 61.8129 39.7006H58.7722C58.8064 39.8821 58.8721 40.0464 58.9694 40.1936C59.0693 40.3382 59.1955 40.4526 59.348 40.5368C59.5031 40.6209 59.6753 40.6642 59.8646 40.6668C60.0645 40.6668 60.2459 40.6168 60.4089 40.5169C60.5746 40.417 60.71 40.279 60.8151 40.1028L61.6473 40.2962C61.4895 40.6459 61.2516 40.9324 60.9335 41.1559C60.6153 41.3767 60.259 41.4871 59.8646 41.4871ZM58.7446 39.0735H60.9847C60.9584 38.8841 60.8914 38.7132 60.7836 38.5607C60.6784 38.4056 60.5456 38.2834 60.3852 38.194C60.2275 38.1019 60.054 38.056 59.8646 38.056C59.678 38.056 59.5044 38.1006 59.344 38.19C59.1863 38.2794 59.0548 38.4018 58.9497 38.5569C58.8471 38.7094 58.7787 38.8815 58.7446 39.0735ZM65.0338 40.2645L65.7674 40.6629C65.5886 40.9126 65.3611 41.1125 65.0851 41.2623C64.8116 41.4122 64.5145 41.4871 64.1937 41.4871C63.8309 41.4871 63.4996 41.3938 63.1999 41.2071C62.9027 41.0204 62.6648 40.7707 62.486 40.4578C62.3098 40.1423 62.2218 39.7939 62.2218 39.4126C62.2218 39.1234 62.273 38.8539 62.3756 38.6041C62.4781 38.3517 62.6188 38.1309 62.7976 37.9415C62.979 37.7496 63.1893 37.5997 63.4286 37.4919C63.6679 37.3841 63.9229 37.3302 64.1937 37.3302C64.5145 37.3302 64.8116 37.4052 65.0851 37.555C65.3611 37.7049 65.5886 37.9062 65.7674 38.1586L65.0338 38.5569C64.9234 38.4254 64.7945 38.3254 64.6473 38.2571C64.5 38.1861 64.3489 38.1507 64.1937 38.1507C63.9781 38.1507 63.7822 38.2097 63.6061 38.3281C63.4326 38.4437 63.2945 38.5977 63.192 38.7896C63.0921 38.9789 63.0421 39.1865 63.0421 39.4126C63.0421 39.6361 63.0934 39.8439 63.1959 40.0359C63.2985 40.2252 63.4365 40.3776 63.61 40.4933C63.7862 40.609 63.9808 40.6668 64.1937 40.6668C64.3567 40.6668 64.5119 40.63 64.6591 40.5564C64.8064 40.4828 64.9312 40.3855 65.0338 40.2645ZM68.5618 38.261H67.7335L67.7296 41.3846H66.9093L66.9132 38.261H66.2861V37.4408H66.9132L66.9093 36.2024H67.7296L67.7335 37.4408H68.5618V38.261ZM70.9107 41.4871C70.5479 41.4871 70.2166 41.3938 69.9169 41.2071C69.6198 41.0204 69.3818 40.7707 69.203 40.4578C69.0269 40.1423 68.9388 39.7939 68.9388 39.4126C68.9388 39.1234 68.99 38.8539 69.0926 38.6041C69.1951 38.3517 69.3358 38.1309 69.5146 37.9415C69.696 37.7496 69.9064 37.5997 70.1456 37.4919C70.3849 37.3841 70.6399 37.3302 70.9107 37.3302C71.2131 37.3302 71.4905 37.3934 71.7429 37.5196C71.9953 37.6432 72.2109 37.8153 72.3897 38.0362C72.5685 38.2544 72.7 38.5068 72.7841 38.7934C72.8683 39.0774 72.8932 39.3799 72.859 39.7006H69.8183C69.8525 39.8821 69.9182 40.0464 70.0155 40.1936C70.1154 40.3382 70.2416 40.4526 70.3941 40.5368C70.5492 40.6209 70.7214 40.6642 70.9107 40.6668C71.1106 40.6668 71.292 40.6168 71.455 40.5169C71.6207 40.417 71.7561 40.279 71.8612 40.1028L72.6934 40.2962C72.5356 40.6459 72.2977 40.9324 71.9796 41.1559C71.6614 41.3767 71.3051 41.4871 70.9107 41.4871ZM69.7907 39.0735H72.0308C72.0045 38.8841 71.9375 38.7132 71.8297 38.5607C71.7245 38.4056 71.5917 38.2834 71.4313 38.194C71.2736 38.1019 71.1001 38.056 70.9107 38.056C70.7241 38.056 70.5505 38.1006 70.3901 38.19C70.2324 38.2794 70.1009 38.4018 69.9958 38.5569C69.8932 38.7094 69.8248 38.8815 69.7907 39.0735ZM76.5768 35.4688H77.3972V41.3846H76.5768V40.8048C76.448 41.0099 76.2797 41.1756 76.072 41.3018C75.8643 41.4254 75.6211 41.4871 75.3424 41.4871C75.0558 41.4871 74.7876 41.4333 74.5378 41.3255C74.288 41.2177 74.0672 41.0691 73.8752 40.8798C73.6859 40.6878 73.5374 40.4671 73.4296 40.2173C73.3218 39.9675 73.2679 39.6992 73.2679 39.4126C73.2679 39.126 73.3218 38.858 73.4296 38.6082C73.5374 38.3558 73.6859 38.1348 73.8752 37.9455C74.0672 37.7536 74.288 37.6037 74.5378 37.4959C74.7876 37.3881 75.0558 37.3342 75.3424 37.3342C75.6211 37.3342 75.8643 37.3973 76.072 37.5235C76.2797 37.6471 76.448 37.8102 76.5768 38.0126V35.4688ZM75.3503 40.6945C75.5816 40.6945 75.7841 40.6379 75.9576 40.5248C76.1312 40.4091 76.2653 40.254 76.3599 40.0594C76.4572 39.8649 76.5058 39.6493 76.5058 39.4126C76.5058 39.1734 76.4572 38.9565 76.3599 38.7619C76.2626 38.5673 76.1272 38.4135 75.9537 38.3004C75.7828 38.1848 75.5816 38.1269 75.3503 38.1269C75.1215 38.1269 74.9125 38.1848 74.7232 38.3004C74.5365 38.4161 74.3866 38.5714 74.2736 38.7659C74.1631 38.9605 74.1079 39.176 74.1079 39.4126C74.1079 39.6519 74.1645 39.8688 74.2775 40.0634C74.3932 40.2553 74.5444 40.4091 74.7311 40.5248C74.9204 40.6379 75.1268 40.6945 75.3503 40.6945Z" fill="#FA0C00"/>
</g>
<path opacity="0.5" d="M210.939 2.45312H66.3262V203.777H210.939V2.45312Z" fill="#B3B3B3"/>
<path d="M209.082 0H64.4688V201.324H209.082V0Z" fill="#E6E6E6"/>
<path d="M101.615 26.2344H77.1602V58.4674H101.615V26.2344Z" fill="#00ADEE"/>
<mask id="mask1_1384_32354" style="mask-type:luminance" maskUnits="userSpaceOnUse" x="77" y="26" width="25" height="33">
<path d="M101.615 26.2344H77.1602V58.4674H101.615V26.2344Z" fill="white"/>
</mask>
<g mask="url(#mask1_1384_32354)">
<path d="M89.4498 42.5521H89.3251C86.1737 42.5521 83.5957 39.9742 83.5957 36.8228V34.3387C83.5957 31.1873 86.1737 28.6094 89.3251 28.6094H89.4498C92.6012 28.6094 95.1792 31.1873 95.1792 34.3387V36.8228C95.1792 39.9736 92.6012 42.5521 89.4498 42.5521Z" fill="#371D1C"/>
<path d="M84.8 40.3615C84.5082 40.3181 84.2593 40.2229 84.0526 40.0906C82.7885 39.2833 83.0059 37.1036 83.5762 36.9354C83.7457 36.885 83.907 36.9039 84.0526 36.9625C84.4786 37.1276 84.7729 37.6103 84.7729 37.6103L84.8 40.3615Z" fill="#9C7761"/>
<path d="M94.7259 40.0904C94.5192 40.2227 94.2715 40.3179 93.9785 40.3614L94.0056 37.6101C94.0056 37.6101 94.3005 37.1261 94.7259 36.9623C94.8721 36.9043 95.0308 36.8848 95.201 36.9352C95.7725 37.1035 95.9899 39.2832 94.7259 40.0904Z" fill="#9C7761"/>
<path opacity="0.5" d="M84.7717 37.6166L84.7981 40.3677C84.5064 40.3242 84.2575 40.2291 84.0508 40.0967V36.9688C84.4768 37.1345 84.7717 37.6166 84.7717 37.6166Z" fill="#9C7761"/>
<path opacity="0.5" d="M94.7259 36.9688V40.0967C94.5192 40.2291 94.2715 40.3242 93.9785 40.3677L94.0056 37.6166C94.0056 37.6166 94.3005 37.1326 94.7259 36.9688Z" fill="#9C7761"/>
<path d="M82.9353 47.9846C82.9353 47.9846 80.3296 47.9102 78.9899 50.8133C77.6502 53.7164 74.9701 57.8105 75.0445 61.8309C75.1188 65.8507 79.213 65.925 81.8186 63.0219L82.9353 47.9846Z" fill="black"/>
<path d="M95.8438 47.9846C95.8438 47.9846 98.4495 47.9102 99.7892 50.8133C101.129 53.7164 103.809 57.8105 103.735 61.8309C103.66 65.8507 99.5661 65.925 96.9604 63.0219L95.8438 47.9846Z" fill="black"/>
<path d="M92.8943 46.1562H85.882C85.3709 46.4726 85.0974 47.106 85.2827 47.7292L89.3888 61.5478L93.4942 47.7292C93.6789 47.106 93.4054 46.4726 92.8943 46.1562Z" fill="#CCCCCC"/>
<path d="M98.6923 50.0937V71.8302H80.082V50.0937C80.082 49.3495 80.5181 48.6734 81.1955 48.3652L82.8062 47.6329L83.8913 47.1389L84.2171 46.9902L85.7729 46.2812L89.2375 59.3589L89.3862 59.9202L89.5349 59.3589L92.9995 46.2812L94.5554 46.9902L94.8812 47.1376L95.9663 47.6317L97.5788 48.3657C98.2575 48.6733 98.6923 49.3495 98.6923 50.0937Z" fill="#1A1A1A"/>
<path d="M92.2912 45.9656C91.6629 47.621 90.5967 48.7093 89.3868 48.7093C88.1763 48.7093 87.1107 47.621 86.4824 45.9656L86.558 45.9316L86.628 45.1785L87.0048 41.1172L89.3868 41.4153L91.7688 41.1172L92.1456 45.1785L92.2156 45.9316L92.2912 45.9656Z" fill="#9C7761"/>
<path opacity="0.5" d="M92.1447 45.1785L91.1396 46.0809C90.8938 46.3015 90.6153 46.4722 90.3191 46.5869C90.0217 46.7016 89.706 46.7627 89.3858 46.7627C88.7456 46.7627 88.1249 46.5214 87.6334 46.0809L86.627 45.1785L87.0039 41.1172L89.3858 41.4153L91.7678 41.1172L92.1447 45.1785Z" fill="#9C7761"/>
<path d="M87.3161 31.125C85.7395 31.125 84.4609 32.4036 84.4609 33.9802V40.5603C84.4609 41.4261 84.8188 42.2472 85.4389 42.8036L87.635 44.7728C88.1265 45.214 88.7472 45.4553 89.3881 45.4553C90.0289 45.4553 90.6496 45.214 91.1412 44.7728L93.3373 42.8036C93.9567 42.2478 94.3153 41.4267 94.3153 40.5603V33.9802C94.3153 32.4036 93.0373 31.125 91.46 31.125H87.3161Z" fill="#9C7761"/>
<path d="M87.2564 37.8717C87.2564 38.2624 87.0529 38.5794 86.8021 38.5794C86.5513 38.5794 86.3477 38.2624 86.3477 37.8717C86.3477 37.481 86.5513 37.1641 86.8021 37.1641C87.0529 37.1641 87.2564 37.481 87.2564 37.8717Z" fill="#371D1C"/>
<path d="M86.1602 36.7125C86.3253 36.5474 86.5528 36.4453 86.8042 36.4453C87.0556 36.4453 87.2837 36.5474 87.4488 36.7125" stroke="#371D1C" stroke-width="0.507021" stroke-miterlimit="10" stroke-linecap="round"/>
<path d="M92.4282 37.8717C92.4282 38.2624 92.2246 38.5794 91.9738 38.5794C91.723 38.5794 91.5195 38.2624 91.5195 37.8717C91.5195 37.481 91.723 37.1641 91.9738 37.1641C92.2253 37.1641 92.4282 37.481 92.4282 37.8717Z" fill="#371D1C"/>
<path d="M91.332 36.7125C91.4971 36.5474 91.7245 36.4453 91.976 36.4453C92.2274 36.4453 92.4555 36.5474 92.6206 36.7125" stroke="#371D1C" stroke-width="0.507021" stroke-miterlimit="10" stroke-linecap="round"/>
<path d="M91.4445 41.1719C91.4445 42.0969 90.5112 42.8468 89.3599 42.8468C88.2086 42.8468 87.2754 42.0969 87.2754 41.1719H91.4445Z" fill="white"/>
<g opacity="0.5">
<path d="M89.3865 40.5178C89.1035 40.5178 88.837 40.4075 88.6372 40.2071C88.5793 40.1491 88.5793 40.0545 88.6372 39.9966C88.6952 39.9387 88.7898 39.9387 88.8478 39.9966C88.9915 40.1403 89.1829 40.2197 89.3865 40.2197C89.59 40.2197 89.7817 40.1403 89.9253 39.9966C89.9833 39.9387 90.0778 39.9387 90.1358 39.9966C90.1938 40.0545 90.1938 40.1491 90.1358 40.2071C89.936 40.4075 89.67 40.5178 89.3865 40.5178Z" fill="#9C7761"/>
</g>
<path d="M89.3894 59.9265L90.6019 55.3503L90.0643 50.4219H88.7152L88.1777 55.3503L89.3894 59.9265Z" fill="black"/>
<path d="M90.0276 50.7974L90.6061 49.5132L89.843 47.7891H88.9312L88.168 49.5132L88.7465 50.7974H90.0276Z" fill="#1A1A1A"/>
<path d="M93.0055 46.2616L92.2121 45.75L89.3872 47.6795L86.5622 45.75L85.7695 46.2616L87.7299 49.8189L89.3872 47.8704L91.0798 49.8189L93.0055 46.2616Z" fill="white"/>
<path d="M95.7454 52.8198L91.5871 56.0267L93.4511 59.1724C93.487 59.2316 93.475 59.3079 93.4258 59.3558L89.5523 63.0289C89.5479 63.0346 89.5403 63.0365 89.5346 63.0409V71.8341H89.2372V63.0403C89.2309 63.0359 89.224 63.034 89.2196 63.0283L85.3454 59.3551C85.2962 59.3072 85.2843 59.2316 85.3202 59.1718L87.1842 56.026L83.0258 52.8192C82.9823 52.7852 82.9615 52.7316 82.971 52.6761L83.891 47.1409L84.2168 46.9922L83.2791 52.6377L87.4703 55.8716C87.5295 55.9176 87.5459 56.0008 87.5074 56.0651L85.6378 59.2215L89.2379 62.6357V58.0369C89.2379 57.9549 89.3046 57.8881 89.3866 57.8881C89.4685 57.8881 89.5353 57.9549 89.5353 58.0369V62.6357L93.1353 59.2215L91.2657 56.0651C91.2272 56.0008 91.2436 55.9176 91.3029 55.8716L95.494 52.6377L94.5563 46.9922L94.8821 47.1396L95.8022 52.6768C95.8091 52.7316 95.7883 52.7852 95.7454 52.8198Z" fill="black"/>
<path d="M89.3866 34.9573C92.0239 34.9573 94.1619 33.9298 94.1619 32.6622C94.1619 31.3947 92.0239 30.3672 89.3866 30.3672C86.7493 30.3672 84.6113 31.3947 84.6113 32.6622C84.6113 33.9298 86.7493 34.9573 89.3866 34.9573Z" fill="#371D1C"/>
<path d="M86.1797 33.244C86.1797 33.244 86.1155 34.9933 84.8217 35.6449V39.1624C84.8217 39.1624 84.2168 39.2368 84.2168 38.3993C84.2168 37.5618 84.2168 33.244 84.2168 33.244L84.668 32.3984L86.1797 33.244Z" fill="#371D1C"/>
<path d="M92.5938 33.244C92.5938 33.244 92.6579 34.9933 93.9516 35.6449V39.1624C93.9516 39.1624 94.5566 39.2368 94.5566 38.3993C94.5566 37.5618 94.5566 33.244 94.5566 33.244L94.1054 32.3984L92.5938 33.244Z" fill="#371D1C"/>
</g>
<path d="M161.251 68.5391H112.299V75.1853H161.251V68.5391Z" fill="#00ADEE"/>
<path d="M196.39 79.2656H77.1602V80.5259H196.39V79.2656Z" fill="#B3B3B3"/>
<path d="M196.39 82.4141H77.1602V83.6744H196.39V82.4141Z" fill="#B3B3B3"/>
<path d="M196.39 85.5703H77.1602V86.8306H196.39V85.5703Z" fill="#B3B3B3"/>
<path d="M196.39 88.7188H77.1602V89.979H196.39V88.7188Z" fill="#B3B3B3"/>
<path d="M196.39 91.8672H77.1602V93.1275H196.39V91.8672Z" fill="#B3B3B3"/>
<path d="M196.39 95.0234H77.1602V96.2837H196.39V95.0234Z" fill="#B3B3B3"/>
<path d="M196.39 98.1719H77.1602V99.4322H196.39V98.1719Z" fill="#B3B3B3"/>
<path d="M161.251 107.93H112.299V114.577H161.251V107.93Z" fill="#00ADEE"/>
<path d="M196.39 118.656H77.1602V119.916H196.39V118.656Z" fill="#B3B3B3"/>
<path d="M196.39 121.805H77.1602V123.065H196.39V121.805Z" fill="#B3B3B3"/>
<path d="M196.39 124.953H77.1602V126.214H196.39V124.953Z" fill="#B3B3B3"/>
<path d="M196.39 128.109H77.1602V129.369H196.39V128.109Z" fill="#B3B3B3"/>
<path d="M196.39 131.258H77.1602V132.518H196.39V131.258Z" fill="#B3B3B3"/>
<path d="M196.39 134.406H77.1602V135.666H196.39V134.406Z" fill="#B3B3B3"/>
<path d="M196.39 137.562H77.1602V138.824H196.39V137.562Z" fill="#B3B3B3"/>
<path d="M93.0022 148.234H77.1602V154.163H93.0022V148.234Z" fill="#00ADEE"/>
<path d="M115.746 159.539H77.1602V161.296H115.746V159.539Z" fill="#B3B3B3"/>
<path d="M115.746 163.93H77.1602V165.687H115.746V163.93Z" fill="#B3B3B3"/>
<path d="M115.746 168.328H77.1602V170.085H115.746V168.328Z" fill="#B3B3B3"/>
<path d="M115.746 172.719H77.1602V174.476H115.746V172.719Z" fill="#B3B3B3"/>
<path d="M115.746 177.109H77.1602V178.866H115.746V177.109Z" fill="#B3B3B3"/>
<path d="M115.746 181.5H77.1602V183.257H115.746V181.5Z" fill="#B3B3B3"/>
<path d="M115.746 185.898H77.1602V187.655H115.746V185.898Z" fill="#B3B3B3"/>
<path d="M157.982 159.375H131.23V163.629H157.982V159.375Z" fill="#00ADEE"/>
<path d="M196.388 167.484H131.23V168.744H196.388V167.484Z" fill="#B3B3B3"/>
<path d="M196.388 170.641H131.23V171.902H196.388V170.641Z" fill="#B3B3B3"/>
<path d="M196.388 173.789H131.23V175.049H196.388V173.789Z" fill="#B3B3B3"/>
<path d="M196.388 176.938H131.23V178.197H196.388V176.938Z" fill="#B3B3B3"/>
<path d="M196.388 180.094H131.23V181.354H196.388V180.094Z" fill="#B3B3B3"/>
<path d="M196.388 183.242H131.23V184.503H196.388V183.242Z" fill="#B3B3B3"/>
<path d="M196.388 186.391H131.23V187.651H196.388V186.391Z" fill="#B3B3B3"/>
<path d="M172.065 10.0469H101.488V16.0333H172.065V10.0469Z" fill="#00ADEE"/>
<path d="M143.012 30.1875H105.83V34.441H143.012V30.1875Z" fill="#00ADEE"/>
<path d="M196.391 38.3047H105.83V39.565H196.391V38.3047Z" fill="#B3B3B3"/>
<path d="M196.391 41.4531H105.83V42.7134H196.391V41.4531Z" fill="#B3B3B3"/>
<path d="M196.391 44.6094H105.83V45.8697H196.391V44.6094Z" fill="#B3B3B3"/>
<path d="M196.391 47.7578H105.83V49.0181H196.391V47.7578Z" fill="#B3B3B3"/>
<path d="M196.391 50.9062H105.83V52.1665H196.391V50.9062Z" fill="#B3B3B3"/>
<path d="M196.391 54.0547H105.83V55.315H196.391V54.0547Z" fill="#B3B3B3"/>
<path d="M196.391 57.2109H105.83V58.4712H196.391V57.2109Z" fill="#B3B3B3"/>
<path opacity="0.5" d="M280.697 66.8281H136.084V268.152H280.697V66.8281Z" fill="#B3B3B3"/>
<path d="M278.589 64.9141H133.977V266.238H278.589V64.9141Z" fill="white"/>
<path d="M163.26 125.829C172.422 125.829 179.85 118.401 179.85 109.239C179.85 100.076 172.422 92.6484 163.26 92.6484C154.098 92.6484 146.67 100.076 146.67 109.239C146.67 118.401 154.098 125.829 163.26 125.829Z" fill="#EC1C24"/>
<mask id="mask2_1384_32354" style="mask-type:luminance" maskUnits="userSpaceOnUse" x="146" y="92" width="34" height="34">
<path d="M163.26 125.82C172.422 125.82 179.85 118.393 179.85 109.23C179.85 100.068 172.422 92.6406 163.26 92.6406C154.098 92.6406 146.67 100.068 146.67 109.23C146.67 118.393 154.098 125.82 163.26 125.82Z" fill="white"/>
</mask>
<g mask="url(#mask2_1384_32354)">
<path d="M163.262 111.292C166.962 111.292 169.961 107.862 169.961 103.63C169.961 99.3989 166.962 95.9688 163.262 95.9688C159.562 95.9688 156.562 99.3989 156.562 103.63C156.562 107.862 159.562 111.292 163.262 111.292Z" fill="#FDF361"/>
<path d="M156.714 115.68C156.714 115.68 154.185 115.956 152.683 119.48C151.181 123.003 149.521 135.51 156.24 128.185C162.958 120.862 156.714 115.68 156.714 115.68Z" fill="#00447A"/>
<path d="M169.806 115.68C169.806 115.68 172.335 115.956 173.837 119.48C175.339 123.003 176.999 135.51 170.28 128.185C163.562 120.862 169.806 115.68 169.806 115.68Z" fill="#00447A"/>
<path d="M165.697 113.173L165.653 112.632L165.609 112.09L165.557 111.453L165.505 110.816L165.409 109.638L165.312 108.461L164.799 108.533L164.286 108.606L163.773 108.679L163.26 108.752L162.747 108.679L162.234 108.606L161.721 108.533L161.209 108.461L161.112 109.638L161.016 110.816L160.965 111.453L160.912 112.09L160.868 112.632L160.824 113.173L163.26 114.854L165.697 113.173Z" fill="#E4B69D"/>
<path d="M172.036 122.816C171.901 123.7 171.661 124.63 171.276 125.581L170.62 128.817L169.964 132.054L170.283 133.621L170.6 135.188L170.64 135.386L170.68 135.584L170.979 137.056L171.276 138.527H155.246L155.545 137.056L155.842 135.584L155.882 135.386L155.922 135.188L156.24 133.621L156.557 132.054L155.902 128.817L155.246 125.581C154.862 124.63 154.623 123.7 154.488 122.816C154.353 121.93 154.322 121.091 154.353 120.323C154.386 119.554 154.481 118.859 154.598 118.265C154.713 117.669 154.852 117.173 154.97 116.801C155.007 116.684 155.057 116.573 155.116 116.468C155.174 116.363 155.243 116.264 155.321 116.172C155.399 116.081 155.486 115.997 155.581 115.922C155.675 115.847 155.777 115.779 155.886 115.724L157.121 115.084L158.075 114.592L158.355 114.446L158.462 114.392L158.819 114.208L158.888 114.172L159.283 113.968L159.384 113.915L159.471 113.87L159.659 113.774L160.098 113.547L160.536 113.32L160.575 113.301L160.613 113.281L163.264 114.852L165.915 113.281L165.951 113.3L165.987 113.319L166.427 113.546L166.865 113.774L167.053 113.872L167.14 113.917L167.241 113.968L167.635 114.172L167.705 114.208L168.061 114.392L168.169 114.447L168.45 114.593L169.404 115.085L170.638 115.724C170.748 115.78 170.85 115.847 170.944 115.922C171.039 115.997 171.125 116.082 171.203 116.173C171.281 116.264 171.35 116.364 171.408 116.469C171.467 116.574 171.515 116.685 171.552 116.802C171.671 117.173 171.809 117.67 171.926 118.266C172.043 118.86 172.138 119.555 172.169 120.324C172.202 121.091 172.17 121.93 172.036 122.816Z" fill="#005DA2"/>
<path opacity="0.8" d="M165.609 112.091L164.91 112.719C164.679 112.926 164.418 113.087 164.139 113.194C163.859 113.303 163.562 113.36 163.262 113.36C162.658 113.36 162.076 113.133 161.614 112.719L160.914 112.091L161.017 110.816L161.21 108.461L162.235 108.606L163.261 108.752L164.287 108.606L165.312 108.461L165.505 110.816L165.609 112.091Z" fill="#F0BEB4"/>
<path d="M158.942 107.6C158.667 107.56 158.433 107.47 158.239 107.345C157.051 106.587 157.255 104.537 157.791 104.379C157.951 104.331 158.102 104.35 158.239 104.404C158.639 104.56 158.917 105.013 158.917 105.013L158.942 107.6Z" fill="#E4B69D"/>
<path d="M168.275 107.345C168.08 107.47 167.848 107.559 167.572 107.6L167.597 105.013C167.597 105.013 167.875 104.558 168.275 104.404C168.412 104.349 168.562 104.332 168.722 104.379C169.259 104.537 169.463 106.586 168.275 107.345Z" fill="#E4B69D"/>
<path opacity="0.8" d="M158.918 105.014L158.943 107.601C158.668 107.561 158.434 107.471 158.24 107.347V104.406C158.64 104.561 158.918 105.014 158.918 105.014Z" fill="#F0BEB4"/>
<path opacity="0.8" d="M168.277 104.406V107.347C168.082 107.471 167.85 107.561 167.574 107.601L167.599 105.014C167.599 105.014 167.877 104.559 168.277 104.406Z" fill="#F0BEB4"/>
<path d="M158.503 107.928C158.738 107.928 158.929 107.738 158.929 107.503C158.929 107.268 158.738 107.078 158.503 107.078C158.269 107.078 158.078 107.268 158.078 107.503C158.078 107.738 158.269 107.928 158.503 107.928Z" fill="white"/>
<path d="M168.439 107.503C168.439 107.738 168.248 107.928 168.013 107.928C167.778 107.928 167.588 107.738 167.588 107.503C167.588 107.268 167.778 107.078 168.013 107.078C168.248 107.078 168.439 107.268 168.439 107.503Z" fill="white"/>
<path d="M161.313 98.9062C159.831 98.9062 158.629 100.108 158.629 101.591V107.778C158.629 108.592 158.965 109.364 159.548 109.887L161.613 111.739C162.075 112.154 162.659 112.38 163.262 112.38C163.864 112.38 164.448 112.154 164.91 111.739L166.975 109.887C167.558 109.364 167.895 108.592 167.895 107.778V101.591C167.895 100.108 166.693 98.9062 165.21 98.9062H161.313Z" fill="#E4B69D"/>
<path d="M161.255 105.431C161.255 105.799 161.064 106.097 160.828 106.097C160.592 106.097 160.4 105.799 160.4 105.431C160.4 105.064 160.591 104.766 160.828 104.766C161.063 104.766 161.255 105.064 161.255 105.431Z" fill="#371D1C"/>
<path d="M160.221 104.337C160.376 104.182 160.59 104.086 160.826 104.086C161.063 104.086 161.277 104.182 161.432 104.337" stroke="#371D1C" stroke-width="0.476711" stroke-miterlimit="10" stroke-linecap="round"/>
<path d="M166.116 105.431C166.116 105.799 165.925 106.097 165.689 106.097C165.453 106.097 165.262 105.799 165.262 105.431C165.262 105.064 165.453 104.766 165.689 104.766C165.925 104.766 166.116 105.064 166.116 105.431Z" fill="#371D1C"/>
<path d="M165.086 104.337C165.241 104.182 165.455 104.086 165.692 104.086C165.928 104.086 166.142 104.182 166.297 104.337" stroke="#371D1C" stroke-width="0.476711" stroke-miterlimit="10" stroke-linecap="round"/>
<path d="M165.193 108.359C165.193 109.228 164.316 109.934 163.233 109.934C162.151 109.934 161.273 109.228 161.273 108.359H165.193Z" fill="white"/>
<path d="M159.744 100.575C159.744 100.575 159.857 102.264 158.947 103.747V107.598C158.947 107.598 158.244 106.261 158.244 104.872C158.244 103.483 158.244 99.2984 158.244 99.2984C158.244 99.2984 159.985 98.6841 159.744 100.575Z" fill="#FDF361"/>
<path d="M166.779 100.575C166.779 100.575 166.666 102.264 167.576 103.747V107.598C167.576 107.598 168.278 106.261 168.278 104.872C168.278 103.483 168.278 99.2984 168.278 99.2984C168.278 99.2984 166.539 98.6841 166.779 100.575Z" fill="#FDF361"/>
<g opacity="0.8">
<path d="M163.261 108.039C163.022 108.039 162.798 107.946 162.629 107.777C162.58 107.728 162.58 107.649 162.629 107.6C162.678 107.55 162.757 107.55 162.806 107.6C162.928 107.721 163.089 107.787 163.261 107.787C163.432 107.787 163.593 107.721 163.715 107.6C163.764 107.55 163.844 107.55 163.893 107.6C163.942 107.649 163.942 107.728 163.893 107.777C163.724 107.946 163.499 108.039 163.261 108.039Z" fill="#F0BEB4"/>
</g>
<path d="M158.241 103.629C158.241 103.629 164.474 103.149 167.515 100.334V98.7577C167.515 98.7577 163.014 97.1439 160.911 97.9694C158.809 98.7949 158.219 101.961 158.241 103.629Z" fill="#FDF361"/>
<path d="M166.643 121.33L167.719 123.725L163.409 126.884L163.365 126.915L163.259 126.77L163.151 126.915L163.108 126.884L158.796 123.725L159.873 121.33L156.408 119.004L158.459 114.393L158.816 114.208L158.885 114.172L156.785 118.895L160.252 121.223L159.17 123.627L163.108 126.511L163.259 126.621L163.409 126.511L167.346 123.627L166.266 121.223L169.732 118.895L167.631 114.172L167.701 114.208L168.057 114.392L170.108 119.004L166.643 121.33Z" fill="#00447A"/>
<path d="M163.409 124.492H163.109V138.529H163.409V124.492Z" fill="#00447A"/>
<path d="M167.138 113.917C166.756 115.747 166.267 117.803 165.671 119.815C165.56 120.191 165.407 120.623 165.231 121.078C165.087 121.447 164.929 121.832 164.767 122.213C164.056 123.875 163.26 125.468 163.26 125.468C163.26 125.468 162.439 123.824 161.721 122.135C161.557 121.751 161.399 121.365 161.258 120.996C161.094 120.571 160.951 120.168 160.848 119.815C160.254 117.801 159.764 115.745 159.383 113.915L159.426 113.893L159.47 113.87L159.564 113.822L159.658 113.774L159.877 113.66L160.096 113.547L160.315 113.433L160.535 113.32L160.554 113.312L160.574 113.301L160.592 113.292L160.612 113.281L163.263 114.852L164.589 114.066L165.914 113.281L165.969 113.308L165.987 113.319L166.206 113.433L166.427 113.546L166.646 113.66L166.865 113.774L166.96 113.822L167.053 113.872L167.097 113.894L167.138 113.917Z" fill="#E6E6E6"/>
<path d="M164.767 122.216C164.055 123.878 163.26 125.471 163.26 125.471C163.26 125.471 162.438 123.827 161.721 122.138L162.329 117H164.144L164.767 122.216Z" fill="#00447A"/>
<path d="M164.063 114.852H163.403H163.117H162.458L161.512 115.834L162.153 117.71H163.117H163.403H164.367L165.008 115.834L164.063 114.852Z" fill="#005DA2"/>
<path d="M166.437 113.293L165.787 112.859L163.26 114.711L160.732 112.859L160.082 113.293L160.833 117.713L163.26 114.855L165.687 117.713L166.437 113.293Z" fill="white"/>
</g>
<path d="M220.215 95.1094H188.393V99.363H220.215V95.1094Z" fill="#005DA2"/>
<path d="M265.901 103.219H188.393V104.479H265.901V103.219Z" fill="#CCCCCC"/>
<path d="M265.901 106.367H188.393V107.628H265.901V106.367Z" fill="#CCCCCC"/>
<path d="M265.901 109.523H188.393V110.784H265.901V109.523Z" fill="#CCCCCC"/>
<path d="M265.901 112.672H188.393V113.932H265.901V112.672Z" fill="#CCCCCC"/>
<path d="M265.901 115.82H188.393V117.08H265.901V115.82Z" fill="#CCCCCC"/>
<path d="M265.901 118.977H188.393V120.237H265.901V118.977Z" fill="#CCCCCC"/>
<path d="M265.901 122.125H188.393V123.386H265.901V122.125Z" fill="#CCCCCC"/>
<path d="M173.421 136.07H146.67V140.324H173.421V136.07Z" fill="#005DA2"/>
<path d="M211.827 144.18H146.67V145.441H211.827V144.18Z" fill="#CCCCCC"/>
<path d="M211.827 147.336H146.67V148.597H211.827V147.336Z" fill="#CCCCCC"/>
<path d="M211.827 150.484H146.67V151.744H211.827V150.484Z" fill="#CCCCCC"/>
<path d="M211.827 153.633H146.67V154.893H211.827V153.633Z" fill="#CCCCCC"/>
<path d="M211.827 156.789H146.67V158.049H211.827V156.789Z" fill="#CCCCCC"/>
<path d="M211.827 159.938H146.67V161.199H211.827V159.938Z" fill="#CCCCCC"/>
<path d="M211.827 163.086H146.67V164.346H211.827V163.086Z" fill="#CCCCCC"/>
<path d="M243.156 136.07H227.312V143.387H243.156V136.07Z" fill="#005DA2"/>
<path d="M265.898 150.023H227.312V152.191H265.898V150.023Z" fill="#E6E6E6"/>
<path d="M265.898 155.445H227.312V157.612H265.898V155.445Z" fill="#E6E6E6"/>
<path d="M265.898 160.859H227.312V163.027H265.898V160.859Z" fill="#E6E6E6"/>
<path d="M265.898 166.281H227.312V168.449H265.898V166.281Z" fill="#E6E6E6"/>
<path d="M265.898 171.703H227.312V173.871H265.898V171.703Z" fill="#E6E6E6"/>
<path d="M265.898 177.125H227.312V179.293H265.898V177.125Z" fill="#E6E6E6"/>
<path d="M265.898 182.547H227.312V184.715H265.898V182.547Z" fill="#E6E6E6"/>
<path d="M243.156 203.93H227.312V211.247H243.156V203.93Z" fill="#005DA2"/>
<path d="M265.898 217.891H227.312V220.059H265.898V217.891Z" fill="#E6E6E6"/>
<path d="M265.898 223.305H227.312V225.473H265.898V223.305Z" fill="#E6E6E6"/>
<path d="M265.898 228.727H227.312V230.895H265.898V228.727Z" fill="#E6E6E6"/>
<path d="M265.898 234.141H227.312V236.309H265.898V234.141Z" fill="#E6E6E6"/>
<path d="M173.421 180.18H146.67V184.434H173.421V180.18Z" fill="#005DA2"/>
<path d="M211.827 188.297H146.67V189.557H211.827V188.297Z" fill="#CCCCCC"/>
<path d="M211.827 191.445H146.67V192.706H211.827V191.445Z" fill="#CCCCCC"/>
<path d="M211.827 194.594H146.67V195.854H211.827V194.594Z" fill="#CCCCCC"/>
<path d="M211.827 197.75H146.67V199.01H211.827V197.75Z" fill="#CCCCCC"/>
<path d="M211.827 200.898H146.67V202.158H211.827V200.898Z" fill="#CCCCCC"/>
<path d="M211.827 204.047H146.67V205.308H211.827V204.047Z" fill="#CCCCCC"/>
<path d="M211.827 207.203H146.67V208.464H211.827V207.203Z" fill="#CCCCCC"/>
<path d="M173.421 224.289H146.67V228.542H173.421V224.289Z" fill="#005DA2"/>
<path d="M211.827 232.398H146.67V233.658H211.827V232.398Z" fill="#CCCCCC"/>
<path d="M211.827 235.555H146.67V236.815H211.827V235.555Z" fill="#CCCCCC"/>
<path d="M241.571 74.9609H170.994V80.9474H241.571V74.9609Z" fill="#005DA2"/>
<path d="M305.835 206.544L304.158 207.955L301.475 204.926L297.004 199.881L294.601 201.845L294.015 202.324C293.712 202.021 293.405 201.716 293.102 201.415C281.131 189.498 270.177 178.477 265.738 173.677C262.451 170.125 259.436 167.55 256.794 165.678C255.408 164.072 253.808 162.263 252.063 160.392C246.391 154.306 239.19 147.566 232.88 145.05C226.25 142.407 216.6 141.773 208.075 142.572C207.284 142.646 206.509 142.736 205.74 142.833C201.608 140.361 199.078 139.783 197.804 143.462L191.997 137.447C192.596 136.419 192.593 135.126 191.948 134.107C194.156 131.109 196.476 125.476 196.476 120.857C189.44 131.008 178.496 141.182 165.562 141.182C147.475 141.182 132.285 128.263 128.02 110.797C127.403 120.209 130.512 129.844 137.449 137.287C149.262 149.962 168.186 152.029 182.311 143.088C183.282 143.802 184.572 143.897 185.64 143.372L190.159 148.394C189.745 148.81 189.349 149.234 188.998 149.676C184.876 154.813 185.12 161.541 192.97 166.63C193.215 166.789 193.473 166.922 193.741 167.03C193.384 167.885 193.173 168.649 193.089 169.344C192.713 172.37 194.727 174.132 197.68 176.61C198.161 177.013 198.628 177.398 199.083 177.766C199.336 177.971 199.576 178.158 199.821 178.352C200.022 178.51 200.227 178.676 200.423 178.827C200.673 179.02 200.915 179.198 201.158 179.38C201.341 179.516 201.527 179.658 201.706 179.788C201.942 179.959 202.172 180.118 202.404 180.278C202.537 180.37 202.675 180.472 202.807 180.561C202.464 181.382 202.13 182.37 201.94 183.431C201.273 187.134 202.372 191.729 210.958 193.218C210.581 194.123 210.267 195.187 210.231 196.275C210.163 198.432 211.186 200.682 214.963 201.959C218.843 203.279 223.238 203.602 227.23 202.579C227.775 202.438 228.336 202.259 228.897 202.048C230.801 202.484 232.909 202.767 234.906 202.618C234.906 202.618 241.478 211.641 256.008 214.939C256.365 215.259 256.71 215.575 257.075 215.898L262.406 222.178L265.405 225.712L263.304 227.429L269.966 235.948L270.33 236.41L264.635 241.2L271.744 249.341C271.711 249.406 271.675 249.47 271.646 249.538C270.745 251.599 271.687 254.001 273.748 254.901C274.721 255.326 275.769 255.336 276.7 255.016L280.507 259.376C280.208 259.702 279.954 260.078 279.766 260.506C278.866 262.567 279.807 264.968 281.869 265.869C283.216 266.457 284.706 266.255 285.83 265.472L338.098 325.328L384.735 280.832L305.835 206.544ZM200.462 160.083C200.072 160.308 199.686 160.542 199.307 160.787C199.259 160.818 199.208 160.851 199.159 160.883C199.156 160.842 199.155 160.807 199.151 160.766C199.078 159.997 198.948 159.144 198.746 158.196C198.746 158.196 198.813 158.177 198.935 158.145L200.605 160.002C200.557 160.029 200.509 160.055 200.462 160.083Z" fill="#B3B3B3"/>
<path d="M277.752 203.054C277.752 203.054 275.077 214.166 258.678 211.45C242.276 208.734 234.905 198.602 234.905 198.602C229.123 199.036 222.413 195.836 222.413 195.836L208.577 184.354L207.235 178.889C204.422 177.888 201.468 175.769 197.679 172.594C194.726 170.117 192.712 168.354 193.088 165.329C193.22 164.227 193.673 162.953 194.517 161.418C195.469 159.679 197.2 158.157 199.146 156.875C199.198 156.841 199.254 156.805 199.306 156.771C200.026 156.306 200.77 155.878 201.516 155.483C204.251 154.027 206.989 153.031 208.369 152.566C208.953 152.37 209.295 152.273 209.295 152.273L214.104 155.952L218.347 153.112L245.695 172.12L277.752 203.054Z" fill="#FAB29A"/>
<path opacity="0.5" d="M229.545 193.961C229.545 193.961 234.868 198.394 241 197.947C241 197.947 249.279 211.015 261.883 211.849C274.487 212.682 252.029 183.062 252.029 183.062L229.545 193.961Z" fill="#CC8A79"/>
<path opacity="0.5" d="M226.534 163.591L208.369 152.57C206.81 153.094 203.521 154.297 200.456 156.074C200.408 156.101 200.361 156.13 200.313 156.158C199.974 156.357 199.636 156.562 199.306 156.775C199.254 156.808 199.198 156.845 199.146 156.878C197.2 158.16 195.469 159.683 194.517 161.421C193.674 162.957 193.22 164.231 193.088 165.333C195.501 165.74 200.657 165.877 201.739 160.041C204.675 163.581 207.989 167.43 209.939 169.197C214.025 172.903 220.629 170.236 220.629 170.236L225.057 176.923L231.016 173.106L226.534 163.591Z" fill="#CC8A79"/>
<path d="M262.075 167.809L259.026 170.027L246.401 179.208C246.401 179.208 229.548 163.675 220.394 157.147C214.991 153.294 208.426 152.959 203.953 153.329C200.844 153.587 198.744 154.188 198.744 154.188C198.946 155.136 199.076 155.989 199.149 156.758C199.587 161.433 197.791 162.866 196.185 163.235C195.081 163.491 193.92 163.24 192.969 162.623C185.118 157.534 184.875 150.805 188.996 145.669C189.545 144.979 190.173 144.318 190.873 143.694C191.525 143.117 192.362 142.575 193.358 142.08C195.285 141.116 197.8 140.305 200.669 139.682C202.953 139.187 205.46 138.808 208.073 138.564C216.598 137.766 226.248 138.399 232.878 141.043C239.187 143.558 246.389 150.298 252.061 156.384C257.659 162.386 261.77 167.758 262.075 167.809Z" fill="#FAB29A"/>
<path opacity="0.5" d="M198.743 154.186C198.946 155.135 199.076 155.987 199.149 156.756L188.996 145.667C189.545 144.977 190.173 144.316 190.873 143.693C191.524 143.115 192.362 142.573 193.358 142.078L203.952 153.328C200.844 153.586 198.743 154.186 198.743 154.186Z" fill="#CC8A79"/>
<path opacity="0.5" d="M262.077 167.808L259.028 170.026L205.988 147.867L200.672 139.679C202.956 139.185 205.462 138.807 208.076 138.562C212.352 141.348 221.18 146.535 232.846 150.505C242.638 153.836 247.998 155.15 252.063 156.382C257.661 162.385 261.772 167.757 262.077 167.808Z" fill="#CC8A79"/>
<path opacity="0.3" d="M195.163 114.364C193.195 126.249 184.954 135.528 174.39 139.381C173.105 139.849 171.788 140.237 170.443 140.54C169.683 140.716 168.907 140.859 168.128 140.972C165.716 141.333 163.229 141.423 160.708 141.205C159.847 141.133 158.983 141.028 158.117 140.885C140.564 137.978 128.694 121.391 131.6 103.838C133.805 90.5215 143.883 80.4725 156.286 77.6721C158.673 77.1314 161.145 76.8597 163.665 76.8843C164.445 76.8925 165.229 76.9259 166.019 76.9945C166.889 77.0676 167.765 77.1749 168.643 77.3204C169.131 77.4011 169.613 77.4936 170.09 77.5932C186.84 81.1485 197.99 97.2987 195.163 114.364Z" fill="white"/>
<g opacity="0.7">
<path d="M189.058 116.048C188.99 116.048 188.92 116.042 188.851 116.031C188.164 115.918 187.7 115.269 187.814 114.582C190.08 100.901 181.235 87.9293 167.677 85.0521C167.297 84.9727 166.908 84.8977 166.515 84.8328C165.826 84.7187 165.116 84.6305 164.405 84.5712C163.796 84.5189 163.178 84.49 162.515 84.483C160.526 84.4648 158.53 84.6765 156.592 85.1151C155.912 85.2688 155.239 84.8428 155.084 84.1642C154.93 83.4855 155.356 82.8106 156.035 82.6562C158.164 82.1741 160.357 81.9448 162.54 81.9618C163.269 81.9694 163.948 82.0015 164.619 82.0588C165.394 82.1244 166.171 82.2208 166.927 82.3455C167.355 82.4168 167.779 82.4974 168.197 82.585C183.08 85.744 192.787 99.9791 190.301 114.994C190.198 115.611 189.664 116.048 189.058 116.048Z" fill="white"/>
</g>
<path opacity="0.7" d="M147.318 102.503C146.587 106.919 143.961 110.163 141.453 109.748C138.946 109.333 137.506 105.416 138.237 100.999C138.969 96.5833 141.594 93.3393 144.102 93.7546C146.61 94.1699 148.05 98.0869 147.318 102.503Z" fill="white"/>
<path d="M242.681 194.017L242.504 194.183C240.25 196.283 236.765 196.179 234.793 193.987L184.346 137.929C183.208 136.663 183.659 134.361 185.336 132.799L185.468 132.676C187.145 131.113 189.473 130.824 190.655 132.049L243.028 186.311C245.075 188.433 244.934 191.917 242.681 194.017Z" fill="black"/>
<path d="M191.425 134.172L186.411 138.846C185.115 140.053 183.068 139.981 181.86 138.686C180.653 137.39 180.725 135.343 182.02 134.135L187.035 129.462C188.33 128.255 190.378 128.327 191.585 129.622C192.792 130.917 192.72 132.965 191.425 134.172Z" fill="#231F20"/>
<path d="M139.213 83.1713C124.89 96.5199 124.1 118.955 137.446 133.274C150.795 147.597 173.23 148.387 187.552 135.037C201.872 121.691 202.662 99.2573 189.313 84.9345C175.966 70.6149 153.532 69.8253 139.213 83.1713ZM183.773 130.984C171.688 142.248 152.764 141.582 141.5 129.496C130.239 117.413 130.902 98.4866 142.988 87.2226C155.071 75.9611 174 76.6272 185.261 88.7104C196.526 100.796 195.857 119.722 183.773 130.984Z" fill="black"/>
<path d="M141.362 85.4761C128.313 97.6381 127.593 118.077 139.755 131.126C151.917 144.175 172.355 144.895 185.404 132.732C198.454 120.57 199.173 100.132 187.011 87.0824C174.849 74.0332 154.411 73.3135 141.362 85.4761ZM183.775 130.985C171.69 142.249 152.766 141.583 141.502 129.497C130.241 117.415 130.904 98.4875 142.99 87.2235C155.073 75.9621 174.002 76.6281 185.263 88.7113C196.528 100.797 195.859 119.723 183.775 130.985Z" fill="#231F20"/>
<path d="M230.813 197.172C229.657 197.795 228.405 198.265 227.231 198.567C223.239 199.59 218.843 199.268 214.964 197.948C211.186 196.671 210.163 194.421 210.232 192.264C210.325 189.38 212.376 186.658 212.376 186.658C215.752 185.872 219.177 185.24 222.609 184.747C227.35 184.066 233.665 183.553 235.118 189.584C235.957 193.074 233.669 195.615 230.813 197.172Z" fill="#FAB29A"/>
<path opacity="0.5" d="M230.81 197.172C233.235 192.87 231.282 191.042 231.282 191.042C225.121 194.116 215.466 193.131 210.229 192.264C210.323 189.38 212.373 186.658 212.373 186.658C215.75 185.872 219.175 185.24 222.607 184.747C227.348 184.066 233.662 183.553 235.115 189.584C235.954 193.073 233.666 195.614 230.81 197.172Z" fill="#CC8A79"/>
<path d="M236.336 185.759C236.336 185.759 234.642 186.861 231.466 187.923C227.237 189.344 220.376 190.694 211.385 189.285C202.403 187.876 201.262 183.188 201.939 179.424C202.446 176.588 203.983 174.273 203.983 174.273C203.983 174.273 214.304 175.845 215.662 176.07C217.016 176.294 222.032 178.796 222.032 178.796C222.032 178.796 234.472 175.145 236.939 179.593C239.408 184.037 236.336 185.759 236.336 185.759Z" fill="#FAB29A"/>
<path opacity="0.5" d="M236.336 185.759C236.336 185.759 234.642 186.862 231.467 187.923C228.693 185.2 227.569 181.312 227.569 181.312C227.569 181.312 217.559 182.474 210.513 182.143C206.521 181.954 203.665 180.583 201.939 179.424C202.447 176.588 203.983 174.273 203.983 174.273C203.983 174.273 214.304 175.845 215.662 176.07C217.017 176.294 222.033 178.796 222.033 178.796C222.033 178.796 234.472 175.145 236.939 179.593C239.408 184.037 236.336 185.759 236.336 185.759Z" fill="#CC8A79"/>
<path d="M227.169 173.615C226.579 174.428 225.579 175.169 224.329 175.827C219.281 178.492 210.169 179.803 207.78 179.073C204.798 178.161 201.713 175.98 197.678 172.596L206.277 165.368L206.282 165.369L207.748 164.133L210.935 166.332C210.935 166.332 212.612 166.297 218.998 166.205C222.477 166.155 225.473 167.14 227 168.713C228.277 170.027 228.523 171.747 227.169 173.615Z" fill="#FAB29A"/>
<path opacity="0.5" d="M227.17 173.615C226.58 174.428 225.58 175.169 224.33 175.827L220.627 170.235C220.627 170.235 214.024 172.901 209.938 169.195C208.979 168.326 207.693 166.956 206.281 165.369L207.748 164.133L210.934 166.332C210.934 166.332 212.611 166.297 218.997 166.205C222.477 166.155 225.472 167.14 226.999 168.713C228.278 170.027 228.524 171.747 227.17 173.615Z" fill="#CC8A79"/>
<path d="M336.004 239.789L307.409 271.189L282.339 241.655L262.404 218.167L257.073 211.887C229.743 187.727 225.83 170.995 225.83 170.995C225.83 170.995 194.647 156.223 197.308 141.416C199.969 126.609 213.105 151.969 245.531 156.713C245.531 156.713 253.865 156.84 265.736 169.667C270.175 174.467 281.129 185.488 293.1 197.405C299.728 204.005 306.672 210.882 312.99 217.125C325.769 229.747 336.004 239.789 336.004 239.789Z" fill="#FAB29A"/>
<path opacity="0.5" d="M312.991 217.126C303.884 224.466 291.089 234.624 282.339 241.656L262.404 218.168L293.101 197.406C299.728 204.005 306.673 210.883 312.991 217.126Z" fill="#CC8A79"/>
<path d="M306.641 206.743L305.695 213.828L294.264 223.139L279.305 235.318L275.215 238.649L270.326 232.396L269.963 231.934L263.301 223.415L266.758 220.587L281.83 208.269L294.598 197.831L297.001 195.867L301.472 200.913L304.155 203.941L306.641 206.743Z" fill="white"/>
<path d="M306.641 206.744L305.695 213.83L294.264 223.141L279.305 235.319L275.215 238.65L270.327 232.397L269.963 231.935L273.478 228.478L287.326 214.84L299.181 203.166L301.472 200.914L304.155 203.943L306.641 206.744Z" fill="#CCCCCC"/>
<path d="M384.734 276.81L338.096 321.306L264.633 237.178L270.328 232.388L274.107 229.206L288.926 216.745L301.657 206.035L304.156 203.934L305.832 202.523L384.734 276.81Z" fill="black"/>
<g clip-path="url(#clip1_1384_32354)">
<g filter="url(#filter1_d_1384_32354)">
<path d="M105.062 1.67969H53.0618C48.1564 1.67969 44.1797 5.65636 44.1797 10.5618C44.1797 15.4673 48.1564 19.444 53.0618 19.444H105.062C109.967 19.444 113.944 15.4673 113.944 10.5618C113.944 5.65636 109.967 1.67969 105.062 1.67969Z" fill="white"/>
<path d="M105.062 1.67969H53.0618C48.1564 1.67969 44.1797 5.65636 44.1797 10.5618C44.1797 15.4673 48.1564 19.444 53.0618 19.444H105.062C109.967 19.444 113.944 15.4673 113.944 10.5618C113.944 5.65636 109.967 1.67969 105.062 1.67969Z" fill="#FA0C00" fill-opacity="0.2"/>
<path d="M49.0352 13.0643V7.54274H51.0663C51.3661 7.54274 51.6356 7.61644 51.8748 7.76364C52.1141 7.91084 52.3034 8.10944 52.4428 8.35914C52.5847 8.60634 52.6557 8.88244 52.6557 9.18744C52.6557 9.44504 52.6071 9.68044 52.5098 9.89334C52.4151 10.1063 52.2811 10.2877 52.1075 10.4376C51.9366 10.5875 51.7407 10.6953 51.5199 10.761L52.8529 13.0643H51.9024L50.6088 10.8359H49.8555V13.0643H49.0352ZM49.8555 10.0156H50.9796C51.1373 10.0156 51.2806 9.97624 51.4094 9.89734C51.5409 9.81844 51.6448 9.71324 51.721 9.58184C51.7973 9.45034 51.8354 9.30174 51.8354 9.13614C51.8354 8.97054 51.7973 8.82194 51.721 8.69044C51.6448 8.55634 51.5409 8.45124 51.4094 8.37494C51.2806 8.29604 51.1373 8.25664 50.9796 8.25664H49.8555V10.0156ZM55.1535 13.1668C54.7907 13.1668 54.4594 13.0735 54.1597 12.8868C53.8626 12.7001 53.6246 12.4503 53.4458 12.1374C53.2696 11.8219 53.1816 11.4735 53.1816 11.0923C53.1816 10.8031 53.2328 10.5336 53.3354 10.2838C53.4379 10.0314 53.5786 9.81054 53.7574 9.62124C53.9388 9.42934 54.1491 9.27944 54.3884 9.17164C54.6277 9.06384 54.8827 9.00994 55.1535 9.00994C55.4559 9.00994 55.7333 9.07304 55.9857 9.19924C56.2381 9.32284 56.4537 9.49504 56.6325 9.71594C56.8113 9.93414 56.9428 10.1865 57.0269 10.4731C57.111 10.7571 57.136 11.0594 57.1018 11.3802H54.0611C54.0952 11.5616 54.161 11.7259 54.2583 11.8732C54.3582 12.0178 54.4844 12.1322 54.6369 12.2163C54.792 12.3004 54.9642 12.3438 55.1535 12.3465C55.3534 12.3465 55.5348 12.2965 55.6978 12.1966C55.8634 12.0967 55.9989 11.9586 56.104 11.7825L56.9362 11.9757C56.7784 12.3254 56.5405 12.612 56.2223 12.8355C55.9042 13.0564 55.5479 13.1668 55.1535 13.1668ZM54.0335 10.7531H56.2736C56.2473 10.5638 56.1803 10.3929 56.0725 10.2404C55.9673 10.0853 55.8345 9.96304 55.6741 9.87364C55.5164 9.78164 55.3428 9.73564 55.1535 9.73564C54.9669 9.73564 54.7933 9.78034 54.6329 9.86974C54.4752 9.95914 54.3437 10.0813 54.2385 10.2365C54.136 10.389 54.0676 10.5612 54.0335 10.7531ZM58.9536 13.1392C58.7459 13.126 58.5434 13.084 58.3462 13.013C58.149 12.942 57.9755 12.846 57.8256 12.7251C57.6784 12.6015 57.5679 12.4569 57.4943 12.2912L58.1924 11.9915C58.2266 12.0625 58.2857 12.1322 58.3699 12.2005C58.4566 12.2689 58.5579 12.3254 58.6736 12.3701C58.7892 12.4122 58.9102 12.4332 59.0364 12.4332C59.16 12.4332 59.2744 12.4161 59.3795 12.382C59.4873 12.3451 59.5754 12.2899 59.6438 12.2163C59.7121 12.1427 59.7463 12.0546 59.7463 11.9521C59.7463 11.8364 59.7069 11.747 59.628 11.6839C59.5517 11.6181 59.4558 11.5682 59.3401 11.534C59.2244 11.4998 59.1087 11.467 58.993 11.4354C58.7353 11.3776 58.4987 11.2987 58.2831 11.1988C58.0701 11.0962 57.9005 10.9661 57.7743 10.8083C57.6481 10.6479 57.585 10.4521 57.585 10.2207C57.585 9.96834 57.6534 9.75004 57.7901 9.56604C57.9268 9.37934 58.1056 9.23604 58.3265 9.13614C58.55 9.03624 58.7879 8.98624 59.0403 8.98624C59.3559 8.98624 59.6451 9.05334 59.908 9.18744C60.1709 9.32154 60.3721 9.50554 60.5114 9.73954L59.8607 10.126C59.8212 10.0471 59.7621 9.97624 59.6832 9.91314C59.6043 9.84994 59.5149 9.80004 59.415 9.76324C59.3151 9.72374 59.2112 9.70144 59.1034 9.69614C58.9694 9.69094 58.8445 9.70674 58.7288 9.74354C58.6157 9.77764 58.525 9.83294 58.4566 9.90914C58.3883 9.98544 58.3541 10.0826 58.3541 10.201C58.3541 10.3166 58.3949 10.4034 58.4764 10.4613C58.5579 10.5165 58.6604 10.5612 58.784 10.5954C58.9102 10.6295 59.039 10.6677 59.1705 10.7097C59.4045 10.7833 59.624 10.8741 59.8291 10.9819C60.0342 11.087 60.1999 11.2172 60.3261 11.3723C60.4523 11.5274 60.5127 11.7167 60.5075 11.9402C60.5075 12.1874 60.4326 12.4043 60.2827 12.591C60.1354 12.7777 59.9435 12.9196 59.7069 13.0169C59.4702 13.1142 59.2191 13.155 58.9536 13.1392ZM61.0251 11.5853V9.12034H61.8454V11.3841C61.8454 11.5603 61.8888 11.7207 61.9756 11.8653C62.0623 12.0099 62.178 12.1256 62.3226 12.2124C62.4672 12.2965 62.6263 12.3386 62.7998 12.3386C62.976 12.3386 63.1351 12.2965 63.2771 12.2124C63.4217 12.1256 63.536 12.0099 63.6202 11.8653C63.7069 11.7207 63.7503 11.5603 63.7503 11.3841V9.12034H64.5707L64.5746 13.0643H63.7543L63.7503 12.6383C63.6162 12.8013 63.4493 12.9302 63.2495 13.0248C63.0496 13.1195 62.8353 13.1668 62.6066 13.1668C62.3147 13.1668 62.0492 13.0958 61.8099 12.9538C61.5706 12.8118 61.38 12.6212 61.238 12.382C61.0961 12.1427 61.0251 11.8771 61.0251 11.5853ZM65.3656 13.0643V9.12034H66.1859V9.53844C66.3226 9.37544 66.4896 9.24654 66.6868 9.15194C66.8866 9.05724 67.1022 9.00994 67.3336 9.00994C67.6149 9.00994 67.8739 9.07834 68.1105 9.21504C68.3472 9.34914 68.5352 9.52794 68.6745 9.75134C68.8139 9.52794 68.9992 9.34914 69.2306 9.21504C69.4646 9.07834 69.7223 9.00994 70.0036 9.00994C70.2955 9.00994 70.561 9.08094 70.8003 9.22294C71.0396 9.36484 71.2302 9.55554 71.3722 9.79474C71.5142 10.034 71.5851 10.2996 71.5851 10.5914V13.0643H70.7648V10.8004C70.7648 10.6269 70.7227 10.4678 70.6386 10.3232C70.5545 10.1786 70.4414 10.0616 70.2994 9.97224C70.1574 9.88284 69.9997 9.83814 69.8261 9.83814C69.6526 9.83814 69.4949 9.88024 69.3529 9.96434C69.2109 10.0485 69.0978 10.1628 69.0137 10.3074C68.9296 10.4521 68.8875 10.6164 68.8875 10.8004V13.0643H68.0672V10.8004C68.0672 10.6164 68.0251 10.4521 67.9409 10.3074C67.8568 10.1628 67.7424 10.0485 67.5978 9.96434C67.4558 9.88024 67.2981 9.83814 67.1246 9.83814C66.9536 9.83814 66.7959 9.88284 66.6513 9.97224C66.5093 10.0616 66.3962 10.1786 66.3121 10.3232C66.228 10.4678 66.1859 10.6269 66.1859 10.8004V13.0643H65.3656ZM74.0336 13.1668C73.6707 13.1668 73.3395 13.0735 73.0397 12.8868C72.7426 12.7001 72.5047 12.4503 72.3259 12.1374C72.1497 11.8219 72.0616 11.4735 72.0616 11.0923C72.0616 10.8031 72.1129 10.5336 72.2154 10.2838C72.318 10.0314 72.4586 9.81054 72.6374 9.62124C72.8189 9.42934 73.0292 9.27944 73.2685 9.17164C73.5077 9.06384 73.7628 9.00994 74.0336 9.00994C74.336 9.00994 74.6133 9.07304 74.8658 9.19924C75.1182 9.32284 75.3338 9.49504 75.5126 9.71594C75.6914 9.93414 75.8228 10.1865 75.907 10.4731C75.9911 10.7571 76.0161 11.0594 75.9819 11.3802H72.9411C72.9753 11.5616 73.041 11.7259 73.1383 11.8732C73.2382 12.0178 73.3644 12.1322 73.5169 12.2163C73.6721 12.3004 73.8443 12.3438 74.0336 12.3465C74.2334 12.3465 74.4148 12.2965 74.5779 12.1966C74.7435 12.0967 74.8789 11.9586 74.9841 11.7825L75.8162 11.9757C75.6585 12.3254 75.4205 12.612 75.1024 12.8355C74.7843 13.0564 74.428 13.1668 74.0336 13.1668ZM72.9135 10.7531H75.1537C75.1274 10.5638 75.0603 10.3929 74.9525 10.2404C74.8474 10.0853 74.7146 9.96304 74.5542 9.87364C74.3964 9.78164 74.2229 9.73564 74.0336 9.73564C73.8469 9.73564 73.6734 9.78034 73.513 9.86974C73.3552 9.95914 73.2238 10.0813 73.1186 10.2365C73.0161 10.389 72.9477 10.5612 72.9135 10.7531ZM78.5993 13.0643V7.54274H80.6304C80.9302 7.54274 81.1997 7.61644 81.4389 7.76364C81.6782 7.91084 81.8675 8.10944 82.0069 8.35914C82.1489 8.60634 82.2198 8.88244 82.2198 9.18744C82.2198 9.44504 82.1712 9.68044 82.0739 9.89334C81.9793 10.1063 81.8452 10.2877 81.6716 10.4376C81.5007 10.5875 81.3049 10.6953 81.084 10.761L82.417 13.0643H81.4666L80.1729 10.8359H79.4197V13.0643H78.5993ZM79.4197 10.0156H80.5437C80.7014 10.0156 80.8447 9.97624 80.9736 9.89734C81.105 9.81844 81.2089 9.71324 81.2851 9.58184C81.3614 9.45034 81.3995 9.30174 81.3995 9.13614C81.3995 8.97054 81.3614 8.82194 81.2851 8.69044C81.2089 8.55634 81.105 8.45124 80.9736 8.37494C80.8447 8.29604 80.7014 8.25664 80.5437 8.25664H79.4197V10.0156ZM84.7176 13.1668C84.3548 13.1668 84.0235 13.0735 83.7238 12.8868C83.4267 12.7001 83.1887 12.4503 83.0099 12.1374C82.8338 11.8219 82.7457 11.4735 82.7457 11.0923C82.7457 10.8031 82.797 10.5336 82.8995 10.2838C83.002 10.0314 83.1427 9.81054 83.3215 9.62124C83.5029 9.42934 83.7133 9.27944 83.9525 9.17164C84.1918 9.06384 84.4468 9.00994 84.7176 9.00994C85.02 9.00994 85.2974 9.07304 85.5498 9.19924C85.8022 9.32284 86.0178 9.49504 86.1966 9.71594C86.3754 9.93414 86.5069 10.1865 86.591 10.4731C86.6752 10.7571 86.7001 11.0594 86.666 11.3802H83.6252C83.6594 11.5616 83.7251 11.7259 83.8224 11.8732C83.9223 12.0178 84.0485 12.1322 84.201 12.2163C84.3561 12.3004 84.5283 12.3438 84.7176 12.3465C84.9175 12.3465 85.0989 12.2965 85.2619 12.1966C85.4276 12.0967 85.563 11.9586 85.6681 11.7825L86.5003 11.9757C86.3426 12.3254 86.1046 12.612 85.7865 12.8355C85.4683 13.0564 85.112 13.1668 84.7176 13.1668ZM83.5976 10.7531H85.8377C85.8114 10.5638 85.7444 10.3929 85.6366 10.2404C85.5314 10.0853 85.3986 9.96304 85.2382 9.87364C85.0805 9.78164 84.907 9.73564 84.7176 9.73564C84.531 9.73564 84.3574 9.78034 84.197 9.86974C84.0393 9.95914 83.9078 10.0813 83.8027 10.2365C83.7001 10.389 83.6318 10.5612 83.5976 10.7531ZM86.5534 15.0362V14.2159C86.7191 14.2159 86.8676 14.1778 86.9991 14.1015C87.1332 14.0279 87.2384 13.9253 87.3146 13.7939C87.3935 13.6624 87.4329 13.5165 87.4329 13.3561V9.12034H88.2533V13.3561C88.2533 13.6637 88.1783 13.9451 88.0285 14.2001C87.8786 14.4552 87.6748 14.6576 87.4171 14.8075C87.1621 14.96 86.8742 15.0362 86.5534 15.0362ZM87.851 8.54844C87.7248 8.54844 87.6196 8.50774 87.5355 8.42624C87.4513 8.34474 87.4093 8.24214 87.4093 8.11864C87.4093 7.99764 87.4513 7.89644 87.5355 7.81494C87.6196 7.73074 87.7235 7.68874 87.847 7.68874C87.968 7.68874 88.0705 7.73074 88.1547 7.81494C88.2388 7.89644 88.2809 7.99764 88.2809 8.11864C88.2809 8.24214 88.2388 8.34474 88.1547 8.42624C88.0732 8.50774 87.9719 8.54844 87.851 8.54844ZM90.8646 13.1668C90.5018 13.1668 90.1705 13.0735 89.8708 12.8868C89.5737 12.7001 89.3357 12.4503 89.1569 12.1374C88.9808 11.8219 88.8927 11.4735 88.8927 11.0923C88.8927 10.8031 88.9439 10.5336 89.0465 10.2838C89.149 10.0314 89.2897 9.81054 89.4685 9.62124C89.6499 9.42934 89.8603 9.27944 90.0995 9.17164C90.3388 9.06384 90.5938 9.00994 90.8646 9.00994C91.167 9.00994 91.4444 9.07304 91.6968 9.19924C91.9492 9.32284 92.1648 9.49504 92.3436 9.71594C92.5224 9.93414 92.6539 10.1865 92.738 10.4731C92.8222 10.7571 92.8471 11.0594 92.8129 11.3802H89.7722C89.8064 11.5616 89.8721 11.7259 89.9694 11.8732C90.0693 12.0178 90.1955 12.1322 90.348 12.2163C90.5031 12.3004 90.6753 12.3438 90.8646 12.3465C91.0645 12.3465 91.2459 12.2965 91.4089 12.1966C91.5746 12.0967 91.71 11.9586 91.8151 11.7825L92.6473 11.9757C92.4895 12.3254 92.2516 12.612 91.9335 12.8355C91.6153 13.0564 91.259 13.1668 90.8646 13.1668ZM89.7446 10.7531H91.9847C91.9584 10.5638 91.8914 10.3929 91.7836 10.2404C91.6784 10.0853 91.5456 9.96304 91.3852 9.87364C91.2275 9.78164 91.054 9.73564 90.8646 9.73564C90.678 9.73564 90.5044 9.78034 90.344 9.86974C90.1863 9.95914 90.0548 10.0813 89.9497 10.2365C89.8471 10.389 89.7787 10.5612 89.7446 10.7531ZM96.0338 11.9442L96.7674 12.3425C96.5886 12.5923 96.3611 12.7921 96.0851 12.942C95.8116 13.0919 95.5145 13.1668 95.1937 13.1668C94.8309 13.1668 94.4996 13.0735 94.1999 12.8868C93.9027 12.7001 93.6648 12.4503 93.486 12.1374C93.3098 11.8219 93.2218 11.4735 93.2218 11.0923C93.2218 10.8031 93.273 10.5336 93.3756 10.2838C93.4781 10.0314 93.6188 9.81054 93.7976 9.62124C93.979 9.42934 94.1893 9.27944 94.4286 9.17164C94.6679 9.06384 94.9229 9.00994 95.1937 9.00994C95.5145 9.00994 95.8116 9.08484 96.0851 9.23474C96.3611 9.38464 96.5886 9.58574 96.7674 9.83814L96.0338 10.2365C95.9234 10.105 95.7945 10.0051 95.6473 9.93674C95.5 9.86574 95.3489 9.83024 95.1937 9.83024C94.9781 9.83024 94.7822 9.88944 94.6061 10.0077C94.4326 10.1234 94.2945 10.2772 94.192 10.4691C94.0921 10.6585 94.0421 10.8662 94.0421 11.0923C94.0421 11.3158 94.0934 11.5235 94.1959 11.7154C94.2985 11.9047 94.4365 12.0572 94.61 12.1729C94.7862 12.2886 94.9808 12.3465 95.1937 12.3465C95.3567 12.3465 95.5119 12.3096 95.6591 12.236C95.8064 12.1624 95.9312 12.0651 96.0338 11.9442ZM99.5618 9.94074H98.7335L98.7296 13.0643H97.9093L97.9132 9.94074H97.2861V9.12034H97.9132L97.9093 7.88194H98.7296L98.7335 9.12034H99.5618V9.94074ZM101.911 13.1668C101.548 13.1668 101.217 13.0735 100.917 12.8868C100.62 12.7001 100.382 12.4503 100.203 12.1374C100.027 11.8219 99.9388 11.4735 99.9388 11.0923C99.9388 10.8031 99.99 10.5336 100.093 10.2838C100.195 10.0314 100.336 9.81054 100.515 9.62124C100.696 9.42934 100.906 9.27944 101.146 9.17164C101.385 9.06384 101.64 9.00994 101.911 9.00994C102.213 9.00994 102.49 9.07304 102.743 9.19924C102.995 9.32284 103.211 9.49504 103.39 9.71594C103.568 9.93414 103.7 10.1865 103.784 10.4731C103.868 10.7571 103.893 11.0594 103.859 11.3802H100.818C100.852 11.5616 100.918 11.7259 101.015 11.8732C101.115 12.0178 101.242 12.1322 101.394 12.2163C101.549 12.3004 101.721 12.3438 101.911 12.3465C102.111 12.3465 102.292 12.2965 102.455 12.1966C102.621 12.0967 102.756 11.9586 102.861 11.7825L103.693 11.9757C103.536 12.3254 103.298 12.612 102.98 12.8355C102.661 13.0564 102.305 13.1668 101.911 13.1668ZM100.791 10.7531H103.031C103.004 10.5638 102.937 10.3929 102.83 10.2404C102.724 10.0853 102.592 9.96304 102.431 9.87364C102.274 9.78164 102.1 9.73564 101.911 9.73564C101.724 9.73564 101.55 9.78034 101.39 9.86974C101.232 9.95914 101.101 10.0813 100.996 10.2365C100.893 10.389 100.825 10.5612 100.791 10.7531ZM107.577 7.14844H108.397V13.0643H107.577V12.4845C107.448 12.6896 107.28 12.8552 107.072 12.9814C106.864 13.105 106.621 13.1668 106.342 13.1668C106.056 13.1668 105.788 13.1129 105.538 13.0051C105.288 12.8973 105.067 12.7487 104.875 12.5594C104.686 12.3675 104.537 12.1466 104.43 11.8969C104.322 11.6471 104.268 11.3789 104.268 11.0923C104.268 10.8057 104.322 10.5375 104.43 10.2877C104.537 10.0353 104.686 9.81454 104.875 9.62514C105.067 9.43324 105.288 9.28334 105.538 9.17554C105.788 9.06774 106.056 9.01384 106.342 9.01384C106.621 9.01384 106.864 9.07694 107.072 9.20314C107.28 9.32674 107.448 9.48974 107.577 9.69224V7.14844ZM106.35 12.3741C106.582 12.3741 106.784 12.3175 106.958 12.2045C107.131 12.0888 107.265 11.9337 107.36 11.7391C107.457 11.5445 107.506 11.3289 107.506 11.0923C107.506 10.853 107.457 10.6361 107.36 10.4415C107.263 10.247 107.127 10.0932 106.954 9.98014C106.783 9.86444 106.582 9.80664 106.35 9.80664C106.121 9.80664 105.912 9.86444 105.723 9.98014C105.536 10.0958 105.387 10.2509 105.274 10.4455C105.163 10.64 105.108 10.8557 105.108 11.0923C105.108 11.3316 105.164 11.5485 105.277 11.743C105.393 11.935 105.544 12.0888 105.731 12.2045C105.92 12.3175 106.127 12.3741 106.35 12.3741Z" fill="#FA0C00"/>
</g>
</g>
</g>
<defs>
<filter id="filter0_d_1384_32354" x="-0.000312805" y="16.82" width="96.1237" height="44.1256" filterUnits="userSpaceOnUse" color-interpolation-filters="sRGB">
<feFlood flood-opacity="0" result="BackgroundImageFix"/>
<feColorMatrix in="SourceAlpha" type="matrix" values="0 0 0 0 0 0 0 0 0 0 0 0 0 0 0 0 0 0 127 0" result="hardAlpha"/>
<feOffset/>
<feGaussianBlur stdDeviation="6.59"/>
<feComposite in2="hardAlpha" operator="out"/>
<feColorMatrix type="matrix" values="0 0 0 0 0.827451 0 0 0 0 0 0 0 0 0 0 0 0 0 1 0"/>
<feBlend mode="normal" in2="BackgroundImageFix" result="effect1_dropShadow_1384_32354"/>
<feBlend mode="normal" in="SourceGraphic" in2="effect1_dropShadow_1384_32354" result="shape"/>
</filter>
<filter id="filter1_d_1384_32354" x="30.9997" y="-11.5003" width="96.1237" height="44.1256" filterUnits="userSpaceOnUse" color-interpolation-filters="sRGB">
<feFlood flood-opacity="0" result="BackgroundImageFix"/>
<feColorMatrix in="SourceAlpha" type="matrix" values="0 0 0 0 0 0 0 0 0 0 0 0 0 0 0 0 0 0 127 0" result="hardAlpha"/>
<feOffset/>
<feGaussianBlur stdDeviation="6.59"/>
<feComposite in2="hardAlpha" operator="out"/>
<feColorMatrix type="matrix" values="0 0 0 0 0.827451 0 0 0 0 0 0 0 0 0 0 0 0 0 1 0"/>
<feBlend mode="normal" in2="BackgroundImageFix" result="effect1_dropShadow_1384_32354"/>
<feBlend mode="normal" in="SourceGraphic" in2="effect1_dropShadow_1384_32354" result="shape"/>
</filter>
<clipPath id="clip0_1384_32354">
<rect width="270" height="237" fill="white"/>
</clipPath>
<clipPath id="clip1_1384_32354">
<rect width="97" height="45" fill="white" transform="translate(31 -11.5)"/>
</clipPath>
</defs>
</svg>
