<svg width="753" height="501" viewBox="0 0 753 501" fill="none" xmlns="http://www.w3.org/2000/svg">
<g style="mix-blend-mode:luminosity">
<path d="M113.93 0V501M136.798 0V501M159.665 0V501M182.533 0V501M205.401 0V501M228.268 0V501M251.136 0V501M274.004 0V501M296.871 0V501M319.739 0V501M342.607 0V501M365.475 0V501M388.342 0V501M411.21 0V501M434.078 0V501M456.945 0V501M479.813 0V501M502.681 0V501M525.548 0V501M548.416 0V501M571.284 0V501M594.151 0V501M617.019 0V501M639.887 0V501M0 429.215H753M0 408.278H753M0 387.34H753M0 366.403H753M0 345.466H753M0 324.528H753M0 303.591H753M0 282.654H753M0 261.716H753M0 240.779H753M0 219.842H753M0 198.904H753M0 177.967H753M0 157.03H753M0 136.093H753M0 115.155H753M0 94.2179H753M0 73.2806H753" stroke="url(#paint0_radial_789_5210)" stroke-width="1.49552"/>
</g>
<defs>
<radialGradient id="paint0_radial_789_5210" cx="0" cy="0" r="1" gradientUnits="userSpaceOnUse" gradientTransform="translate(376.5 250.5) rotate(90) scale(250.5 307.776)">
<stop stop-color="#1E448B" stop-opacity="0"/>
<stop offset="0.75382" stop-color="#09152C" stop-opacity="0.935093"/>
<stop offset="1" stop-color="#081225"/>
</radialGradient>
</defs>
</svg>
