<svg width="29" height="29" viewBox="0 0 29 29" fill="none" xmlns="http://www.w3.org/2000/svg">
<g clip-path="url(#clip0_789_8593)">
<path d="M27.4922 14.5027C27.4922 17.0718 26.7304 19.5832 25.3031 21.7193C23.8758 23.8554 21.8471 25.5204 19.4736 26.5035C17.1 27.4867 14.4882 27.7439 11.9685 27.2427C9.44878 26.7415 7.13425 25.5043 5.31763 23.6877C3.501 21.8711 2.26386 19.5566 1.76266 17.0368C1.26145 14.5171 1.51869 11.9053 2.50184 9.53179C3.48499 7.15826 5.1499 5.12956 7.28602 3.70225C9.42215 2.27493 11.9336 1.51311 14.5027 1.51311M23.8757 5.12965L13.7106 18.9663L7.15115 13.475" stroke="#245FFF" stroke-width="1.8125" stroke-linecap="round" stroke-linejoin="round"/>
</g>
<defs>
<clipPath id="clip0_789_8593">
<rect width="29" height="29" fill="white"/>
</clipPath>
</defs>
</svg>
