<svg width="29" height="29" viewBox="0 0 29 29" fill="none" xmlns="http://www.w3.org/2000/svg">
<rect width="28.5371" height="28.5371" rx="14.2686" fill="white"/>
<g clip-path="url(#clip0_534_28182)">
<path d="M11.2364 16.4808C11.1203 16.4808 11.009 16.4347 10.927 16.3527C10.8449 16.2706 10.7988 16.1593 10.7988 16.0433C10.7988 15.9272 10.8449 15.8159 10.927 15.7339C11.009 15.6518 11.1203 15.6057 11.2364 15.6057H17.3623C17.4784 15.6057 17.5897 15.6518 17.6717 15.7339C17.7538 15.8159 17.7999 15.9272 17.7999 16.0433C17.7999 16.1593 17.7538 16.2706 17.6717 16.3527C17.5897 16.4347 17.4784 16.4808 17.3623 16.4808H11.2364ZM11.2364 18.6687C11.1203 18.6687 11.009 18.6226 10.927 18.5405C10.8449 18.4585 10.7988 18.3472 10.7988 18.2311C10.7988 18.1151 10.8449 18.0038 10.927 17.9217C11.009 17.8396 11.1203 17.7935 11.2364 17.7935H17.3623C17.4784 17.7935 17.5897 17.8396 17.6717 17.9217C17.7538 18.0038 17.7999 18.1151 17.7999 18.2311C17.7999 18.3472 17.7538 18.4585 17.6717 18.5405C17.5897 18.6226 17.4784 18.6687 17.3623 18.6687H11.2364Z" fill="white"/>
<path d="M11.2364 16.4808C11.1203 16.4808 11.009 16.4347 10.927 16.3527C10.8449 16.2706 10.7988 16.1593 10.7988 16.0433C10.7988 15.9272 10.8449 15.8159 10.927 15.7339C11.009 15.6518 11.1203 15.6057 11.2364 15.6057H17.3623C17.4784 15.6057 17.5897 15.6518 17.6717 15.7339C17.7538 15.8159 17.7999 15.9272 17.7999 16.0433C17.7999 16.1593 17.7538 16.2706 17.6717 16.3527C17.5897 16.4347 17.4784 16.4808 17.3623 16.4808H11.2364ZM11.2364 18.6687C11.1203 18.6687 11.009 18.6226 10.927 18.5405C10.8449 18.4585 10.7988 18.3472 10.7988 18.2311C10.7988 18.1151 10.8449 18.0038 10.927 17.9217C11.009 17.8396 11.1203 17.7935 11.2364 17.7935H17.3623C17.4784 17.7935 17.5897 17.8396 17.6717 17.9217C17.7538 18.0038 17.7999 18.1151 17.7999 18.2311C17.7999 18.3472 17.7538 18.4585 17.6717 18.5405C17.5897 18.6226 17.4784 18.6687 17.3623 18.6687H11.2364Z" fill="url(#paint0_linear_534_28182)"/>
<path fill-rule="evenodd" clip-rule="evenodd" d="M15.3368 6.41553H9.48653C9.13838 6.41553 8.80449 6.55383 8.55831 6.80001C8.31213 7.04619 8.17383 7.38008 8.17383 7.72823V20.8552C8.17383 21.2034 8.31213 21.5372 8.55831 21.7834C8.80449 22.0296 9.13838 22.1679 9.48653 22.1679H19.113C19.4611 22.1679 19.795 22.0296 20.0412 21.7834C20.2874 21.5372 20.4257 21.2034 20.4257 20.8552V11.8431C20.4256 11.5145 20.3022 11.1978 20.08 10.9557L16.3047 6.84084C16.1816 6.70672 16.0321 6.59966 15.8654 6.52644C15.6988 6.45322 15.5188 6.41545 15.3368 6.41553ZM9.04896 7.72823C9.04896 7.61218 9.09506 7.50088 9.17712 7.41882C9.25918 7.33676 9.37048 7.29066 9.48653 7.29066H15.3368C15.3975 7.29059 15.4576 7.30316 15.5132 7.32757C15.5688 7.35198 15.6187 7.38769 15.6597 7.43243L19.435 11.5473C19.5092 11.628 19.5504 11.7335 19.5505 11.8431V20.8552C19.5505 20.9713 19.5044 21.0826 19.4224 21.1646C19.3403 21.2467 19.229 21.2928 19.113 21.2928H9.48653C9.37048 21.2928 9.25918 21.2467 9.17712 21.1646C9.09506 21.0826 9.04896 20.9713 9.04896 20.8552V7.72823Z" fill="white"/>
<path fill-rule="evenodd" clip-rule="evenodd" d="M15.3368 6.41553H9.48653C9.13838 6.41553 8.80449 6.55383 8.55831 6.80001C8.31213 7.04619 8.17383 7.38008 8.17383 7.72823V20.8552C8.17383 21.2034 8.31213 21.5372 8.55831 21.7834C8.80449 22.0296 9.13838 22.1679 9.48653 22.1679H19.113C19.4611 22.1679 19.795 22.0296 20.0412 21.7834C20.2874 21.5372 20.4257 21.2034 20.4257 20.8552V11.8431C20.4256 11.5145 20.3022 11.1978 20.08 10.9557L16.3047 6.84084C16.1816 6.70672 16.0321 6.59966 15.8654 6.52644C15.6988 6.45322 15.5188 6.41545 15.3368 6.41553ZM9.04896 7.72823C9.04896 7.61218 9.09506 7.50088 9.17712 7.41882C9.25918 7.33676 9.37048 7.29066 9.48653 7.29066H15.3368C15.3975 7.29059 15.4576 7.30316 15.5132 7.32757C15.5688 7.35198 15.6187 7.38769 15.6597 7.43243L19.435 11.5473C19.5092 11.628 19.5504 11.7335 19.5505 11.8431V20.8552C19.5505 20.9713 19.5044 21.0826 19.4224 21.1646C19.3403 21.2467 19.229 21.2928 19.113 21.2928H9.48653C9.37048 21.2928 9.25918 21.2467 9.17712 21.1646C9.09506 21.0826 9.04896 20.9713 9.04896 20.8552V7.72823Z" fill="url(#paint1_linear_534_28182)"/>
<path d="M15.6123 7.37549V11.4886H19.7254" fill="white"/>
<path d="M15.6123 7.37549V11.4886H19.7254" fill="url(#paint2_linear_534_28182)"/>
<path d="M15.6123 7.37549V11.4886H19.7254" stroke="white" stroke-width="0.875132" stroke-linecap="round" stroke-linejoin="round"/>
<path d="M12.6669 10.9084C12.7919 10.9122 12.9163 10.8909 13.0329 10.8457C13.1495 10.8005 13.2558 10.7324 13.3456 10.6453C13.4353 10.5583 13.5067 10.4541 13.5554 10.339C13.6041 10.2238 13.6293 10.1001 13.6293 9.97503C13.6293 9.85 13.6041 9.72624 13.5554 9.6111C13.5067 9.49595 13.4353 9.39177 13.3456 9.30472C13.2558 9.21768 13.1495 9.14954 13.0329 9.10436C12.9163 9.05918 12.7919 9.03787 12.6669 9.0417C12.4243 9.04913 12.1942 9.15072 12.0252 9.32494C11.8562 9.49916 11.7617 9.73233 11.7617 9.97503C11.7617 10.2177 11.8562 10.4509 12.0252 10.6251C12.1942 10.7993 12.4243 10.9009 12.6669 10.9084Z" fill="white"/>
<path d="M12.6669 10.9084C12.7919 10.9122 12.9163 10.8909 13.0329 10.8457C13.1495 10.8005 13.2558 10.7324 13.3456 10.6453C13.4353 10.5583 13.5067 10.4541 13.5554 10.339C13.6041 10.2238 13.6293 10.1001 13.6293 9.97503C13.6293 9.85 13.6041 9.72624 13.5554 9.6111C13.5067 9.49595 13.4353 9.39177 13.3456 9.30472C13.2558 9.21768 13.1495 9.14954 13.0329 9.10436C12.9163 9.05918 12.7919 9.03787 12.6669 9.0417C12.4243 9.04913 12.1942 9.15072 12.0252 9.32494C11.8562 9.49916 11.7617 9.73233 11.7617 9.97503C11.7617 10.2177 11.8562 10.4509 12.0252 10.6251C12.1942 10.7993 12.4243 10.9009 12.6669 10.9084Z" fill="url(#paint3_linear_534_28182)"/>
<path fill-rule="evenodd" clip-rule="evenodd" d="M14.5321 12.9321C14.5321 11.9397 13.6964 11.2212 12.6655 11.2212C11.6346 11.2212 10.7988 11.9388 10.7988 12.9321V13.3994C10.7991 13.4819 10.832 13.5609 10.8904 13.6191C10.9488 13.6774 11.0279 13.7101 11.1104 13.7101H14.2215C14.3038 13.7098 14.3827 13.677 14.4409 13.6188C14.4991 13.5606 14.5319 13.4817 14.5321 13.3994V12.9321Z" fill="white"/>
<path fill-rule="evenodd" clip-rule="evenodd" d="M14.5321 12.9321C14.5321 11.9397 13.6964 11.2212 12.6655 11.2212C11.6346 11.2212 10.7988 11.9388 10.7988 12.9321V13.3994C10.7991 13.4819 10.832 13.5609 10.8904 13.6191C10.9488 13.6774 11.0279 13.7101 11.1104 13.7101H14.2215C14.3038 13.7098 14.3827 13.677 14.4409 13.6188C14.4991 13.5606 14.5319 13.4817 14.5321 13.3994V12.9321Z" fill="url(#paint4_linear_534_28182)"/>
</g>
<defs>
<linearGradient id="paint0_linear_534_28182" x1="14.2994" y1="15.6057" x2="14.2994" y2="18.6687" gradientUnits="userSpaceOnUse">
<stop stop-color="#245FFF"/>
<stop offset="1" stop-color="#245FFF" stop-opacity="0.88"/>
</linearGradient>
<linearGradient id="paint1_linear_534_28182" x1="14.2998" y1="6.41553" x2="14.2998" y2="22.1679" gradientUnits="userSpaceOnUse">
<stop stop-color="#245FFF"/>
<stop offset="1" stop-color="#245FFF" stop-opacity="0.88"/>
</linearGradient>
<linearGradient id="paint2_linear_534_28182" x1="17.6689" y1="7.37549" x2="17.6689" y2="11.4886" gradientUnits="userSpaceOnUse">
<stop stop-color="#245FFF"/>
<stop offset="1" stop-color="#245FFF" stop-opacity="0.88"/>
</linearGradient>
<linearGradient id="paint3_linear_534_28182" x1="12.6955" y1="9.04126" x2="12.6955" y2="10.9088" gradientUnits="userSpaceOnUse">
<stop stop-color="#245FFF"/>
<stop offset="1" stop-color="#245FFF" stop-opacity="0.88"/>
</linearGradient>
<linearGradient id="paint4_linear_534_28182" x1="12.6655" y1="11.2212" x2="12.6655" y2="13.7101" gradientUnits="userSpaceOnUse">
<stop stop-color="#245FFF"/>
<stop offset="1" stop-color="#245FFF" stop-opacity="0.88"/>
</linearGradient>
<clipPath id="clip0_534_28182">
<rect width="17.5026" height="17.5026" fill="white" transform="translate(5.54883 5.5459)"/>
</clipPath>
</defs>
</svg>
