<svg width="29" height="29" viewBox="0 0 29 29" fill="none" xmlns="http://www.w3.org/2000/svg">
<rect width="28.5371" height="28.5371" rx="14.2686" fill="white"/>
<g clip-path="url(#clip0_534_28203)">
<path d="M14.3017 5.54492C13.8881 5.54492 13.4914 5.70923 13.199 6.00171C12.9065 6.29418 12.7422 6.69086 12.7422 7.10448C12.7422 7.5181 12.9065 7.91478 13.199 8.20725C13.4914 8.49973 13.8881 8.66404 14.3017 8.66404C14.7154 8.66404 15.112 8.49973 15.4045 8.20725C15.697 7.91478 15.8613 7.5181 15.8613 7.10448C15.8613 6.69086 15.697 6.29418 15.4045 6.00171C15.112 5.70923 14.7154 5.54492 14.3017 5.54492ZM20.5298 9.14099C20.1161 9.14099 19.7195 9.3053 19.427 9.59777C19.1345 9.89024 18.9702 10.2869 18.9702 10.7005C18.9702 11.1142 19.1345 11.5108 19.427 11.8033C19.7195 12.0958 20.1161 12.2601 20.5298 12.2601C20.9434 12.2601 21.3401 12.0958 21.6325 11.8033C21.925 11.5108 22.0893 11.1142 22.0893 10.7005C22.0893 10.2869 21.925 9.89024 21.6325 9.59777C21.3401 9.3053 20.9434 9.14099 20.5298 9.14099ZM20.5298 16.3331C20.1161 16.3331 19.7195 16.4974 19.427 16.7899C19.1345 17.0824 18.9702 17.4791 18.9702 17.8927C18.9702 18.3063 19.1345 18.703 19.427 18.9954C19.7195 19.2879 20.1161 19.4522 20.5298 19.4522C20.9434 19.4522 21.3401 19.2879 21.6325 18.9954C21.925 18.703 22.0893 18.3063 22.0893 17.8927C22.0893 17.4791 21.925 17.0824 21.6325 16.7899C21.3401 16.4974 20.9434 16.3331 20.5298 16.3331ZM14.3017 19.9292C13.8882 19.9292 13.4916 20.0935 13.1992 20.3859C12.9068 20.6783 12.7425 21.0748 12.7425 21.4884C12.7425 21.9019 12.9068 22.2985 13.1992 22.5909C13.4916 22.8833 13.8882 23.0476 14.3017 23.0476C14.7153 23.0476 15.1118 22.8833 15.4043 22.5909C15.6967 22.2985 15.8609 21.9019 15.8609 21.4884C15.8609 21.0748 15.6967 20.6783 15.4043 20.3859C15.1118 20.0935 14.7153 19.9292 14.3017 19.9292ZM8.07225 16.3338C7.8675 16.3338 7.66475 16.3742 7.47558 16.4525C7.28641 16.5309 7.11452 16.6457 6.96974 16.7905C6.82495 16.9353 6.7101 17.1072 6.63175 17.2964C6.55339 17.4855 6.51306 17.6883 6.51306 17.893C6.51306 18.0978 6.55339 18.3005 6.63175 18.4897C6.7101 18.6789 6.82495 18.8508 6.96974 18.9956C7.11452 19.1403 7.28641 19.2552 7.47558 19.3335C7.66475 19.4119 7.8675 19.4522 8.07225 19.4522C8.48587 19.4522 8.88255 19.2879 9.17503 18.9954C9.4675 18.703 9.63181 18.3063 9.63181 17.8927C9.63181 17.4791 9.4675 17.0824 9.17503 16.7899C8.88255 16.4974 8.48587 16.3338 8.07225 16.3338ZM8.07225 9.14099C7.65863 9.14099 7.26195 9.3053 6.96948 9.59777C6.67701 9.89024 6.5127 10.2869 6.5127 10.7005C6.5127 11.1142 6.67701 11.5108 6.96948 11.8033C7.26195 12.0958 7.65863 12.2601 8.07225 12.2601C8.48587 12.2601 8.88255 12.0958 9.17503 11.8033C9.4675 11.5108 9.63181 11.1142 9.63181 10.7005C9.63181 10.2869 9.4675 9.89024 9.17503 9.59777C8.88255 9.3053 8.48587 9.14099 8.07225 9.14099ZM14.3017 6.67749L7.70251 10.4872V18.1067L14.3017 21.9165L20.8995 18.1067V10.4872L14.3017 6.67749ZM14.3017 7.84506L19.888 17.5226H8.71402L14.3017 7.84506ZM13.2902 8.11562L8.44419 16.5111V10.9146L13.2902 8.11562ZM15.3132 8.11562L20.16 10.9146V16.5111L15.3132 8.11562ZM9.45423 18.2635H19.1485L14.3017 21.061L9.45423 18.2635Z" fill="white"/>
<path d="M14.3017 5.54492C13.8881 5.54492 13.4914 5.70923 13.199 6.00171C12.9065 6.29418 12.7422 6.69086 12.7422 7.10448C12.7422 7.5181 12.9065 7.91478 13.199 8.20725C13.4914 8.49973 13.8881 8.66404 14.3017 8.66404C14.7154 8.66404 15.112 8.49973 15.4045 8.20725C15.697 7.91478 15.8613 7.5181 15.8613 7.10448C15.8613 6.69086 15.697 6.29418 15.4045 6.00171C15.112 5.70923 14.7154 5.54492 14.3017 5.54492ZM20.5298 9.14099C20.1161 9.14099 19.7195 9.3053 19.427 9.59777C19.1345 9.89024 18.9702 10.2869 18.9702 10.7005C18.9702 11.1142 19.1345 11.5108 19.427 11.8033C19.7195 12.0958 20.1161 12.2601 20.5298 12.2601C20.9434 12.2601 21.3401 12.0958 21.6325 11.8033C21.925 11.5108 22.0893 11.1142 22.0893 10.7005C22.0893 10.2869 21.925 9.89024 21.6325 9.59777C21.3401 9.3053 20.9434 9.14099 20.5298 9.14099ZM20.5298 16.3331C20.1161 16.3331 19.7195 16.4974 19.427 16.7899C19.1345 17.0824 18.9702 17.4791 18.9702 17.8927C18.9702 18.3063 19.1345 18.703 19.427 18.9954C19.7195 19.2879 20.1161 19.4522 20.5298 19.4522C20.9434 19.4522 21.3401 19.2879 21.6325 18.9954C21.925 18.703 22.0893 18.3063 22.0893 17.8927C22.0893 17.4791 21.925 17.0824 21.6325 16.7899C21.3401 16.4974 20.9434 16.3331 20.5298 16.3331ZM14.3017 19.9292C13.8882 19.9292 13.4916 20.0935 13.1992 20.3859C12.9068 20.6783 12.7425 21.0748 12.7425 21.4884C12.7425 21.9019 12.9068 22.2985 13.1992 22.5909C13.4916 22.8833 13.8882 23.0476 14.3017 23.0476C14.7153 23.0476 15.1118 22.8833 15.4043 22.5909C15.6967 22.2985 15.8609 21.9019 15.8609 21.4884C15.8609 21.0748 15.6967 20.6783 15.4043 20.3859C15.1118 20.0935 14.7153 19.9292 14.3017 19.9292ZM8.07225 16.3338C7.8675 16.3338 7.66475 16.3742 7.47558 16.4525C7.28641 16.5309 7.11452 16.6457 6.96974 16.7905C6.82495 16.9353 6.7101 17.1072 6.63175 17.2964C6.55339 17.4855 6.51306 17.6883 6.51306 17.893C6.51306 18.0978 6.55339 18.3005 6.63175 18.4897C6.7101 18.6789 6.82495 18.8508 6.96974 18.9956C7.11452 19.1403 7.28641 19.2552 7.47558 19.3335C7.66475 19.4119 7.8675 19.4522 8.07225 19.4522C8.48587 19.4522 8.88255 19.2879 9.17503 18.9954C9.4675 18.703 9.63181 18.3063 9.63181 17.8927C9.63181 17.4791 9.4675 17.0824 9.17503 16.7899C8.88255 16.4974 8.48587 16.3338 8.07225 16.3338ZM8.07225 9.14099C7.65863 9.14099 7.26195 9.3053 6.96948 9.59777C6.67701 9.89024 6.5127 10.2869 6.5127 10.7005C6.5127 11.1142 6.67701 11.5108 6.96948 11.8033C7.26195 12.0958 7.65863 12.2601 8.07225 12.2601C8.48587 12.2601 8.88255 12.0958 9.17503 11.8033C9.4675 11.5108 9.63181 11.1142 9.63181 10.7005C9.63181 10.2869 9.4675 9.89024 9.17503 9.59777C8.88255 9.3053 8.48587 9.14099 8.07225 9.14099ZM14.3017 6.67749L7.70251 10.4872V18.1067L14.3017 21.9165L20.8995 18.1067V10.4872L14.3017 6.67749ZM14.3017 7.84506L19.888 17.5226H8.71402L14.3017 7.84506ZM13.2902 8.11562L8.44419 16.5111V10.9146L13.2902 8.11562ZM15.3132 8.11562L20.16 10.9146V16.5111L15.3132 8.11562ZM9.45423 18.2635H19.1485L14.3017 21.061L9.45423 18.2635Z" fill="url(#paint0_linear_534_28203)"/>
</g>
<defs>
<linearGradient id="paint0_linear_534_28203" x1="14.301" y1="5.54492" x2="14.301" y2="23.0476" gradientUnits="userSpaceOnUse">
<stop stop-color="#245FFF"/>
<stop offset="1" stop-color="#245FFF" stop-opacity="0.88"/>
</linearGradient>
<clipPath id="clip0_534_28203">
<rect width="17.5026" height="17.5026" fill="white" transform="translate(5.54883 5.5459)"/>
</clipPath>
</defs>
</svg>
