<svg width="58" height="59" viewBox="0 0 58 59" fill="none" xmlns="http://www.w3.org/2000/svg">
<g clip-path="url(#clip0_534_28174)">
<path d="M29.6826 3.29515C44.5426 3.55465 56.3784 15.8119 56.119 30.6718C55.8595 45.5317 43.6032 57.3675 28.7433 57.1082C13.8834 56.8489 2.04668 44.5925 2.30594 29.7325C2.56532 14.8725 14.8226 3.03577 29.6826 3.29515Z" fill="url(#paint0_linear_534_28174)"/>
<path d="M29.6826 3.29515C44.5426 3.55465 56.3784 15.8119 56.119 30.6718C55.8595 45.5317 43.6032 57.3675 28.7433 57.1082C13.8834 56.8489 2.04668 44.5925 2.30594 29.7325C2.56532 14.8725 14.8226 3.03577 29.6826 3.29515Z" fill="url(#paint1_linear_534_28174)"/>
<path d="M29.6826 3.29515C44.5426 3.55465 56.3784 15.8119 56.119 30.6718C55.8595 45.5317 43.6032 57.3675 28.7433 57.1082C13.8834 56.8489 2.04668 44.5925 2.30594 29.7325C2.56532 14.8725 14.8226 3.03577 29.6826 3.29515Z" stroke="url(#paint2_radial_534_28174)" stroke-width="3.08268"/>
<path d="M33.7422 21.029C34.4287 21.9958 34.9259 23.3058 34.9259 24.5803C34.9259 25.5182 34.7031 26.4426 34.2757 27.2774C33.8483 28.1123 33.2287 28.8336 32.4679 29.3819C31.7071 29.9303 30.8268 30.29 29.8997 30.4315C28.9726 30.5729 28.0251 30.492 27.1354 30.1954C26.2457 29.8989 25.4392 29.3951 24.7823 28.7257C24.1255 28.0563 23.6371 27.2403 23.3575 26.3451C23.0779 25.45 23.0149 24.5011 23.174 23.5769C23.333 22.6526 23.7093 21.7793 24.272 21.029M24.272 21.029L29.0071 22.6074L40.8448 18.6615L29.0071 12.7427L17.1694 18.6615M24.272 21.029L17.1694 18.6615M17.1694 18.6615V26.5533M17.1694 43.4967V39.2549C17.1694 35.9344 19.681 32.7284 22.9916 32.0556L29.0091 37.8462L34.9279 32.0359C38.2859 32.6672 40.8467 35.9028 40.8467 39.2549V43.4967C40.8467 44.7416 39.7853 45.7518 38.4792 45.7518H19.5389C18.2309 45.7518 17.1694 44.7416 17.1694 43.4967Z" stroke="white" stroke-width="2.49029" stroke-linecap="round" stroke-linejoin="round"/>
</g>
<defs>
<linearGradient id="paint0_linear_534_28174" x1="29.7622" y1="0.231682" x2="28.7168" y2="60.1213" gradientUnits="userSpaceOnUse">
<stop stop-color="#10834B"/>
<stop offset="1" stop-color="#09F785"/>
</linearGradient>
<linearGradient id="paint1_linear_534_28174" x1="29.7093" y1="1.75437" x2="28.7162" y2="58.6495" gradientUnits="userSpaceOnUse">
<stop stop-color="#245FFF"/>
<stop offset="1" stop-color="#245FFF" stop-opacity="0.88"/>
</linearGradient>
<radialGradient id="paint2_radial_534_28174" cx="0" cy="0" r="1" gradientUnits="userSpaceOnUse" gradientTransform="translate(27.2191 0.18729) rotate(88.5684) scale(59.9527 65.6889)">
<stop stop-color="white" stop-opacity="0.48"/>
<stop offset="1" stop-color="white" stop-opacity="0.04"/>
</radialGradient>
<clipPath id="clip0_534_28174">
<rect width="58" height="59" fill="white"/>
</clipPath>
</defs>
</svg>
