<svg width="58" height="59" viewBox="0 0 58 59" fill="none" xmlns="http://www.w3.org/2000/svg">
<g clip-path="url(#clip0_534_28335)">
<path d="M29.6826 3.29515C44.5426 3.55465 56.3784 15.8119 56.119 30.6718C55.8595 45.5317 43.6032 57.3675 28.7433 57.1082C13.8834 56.8489 2.04668 44.5925 2.30594 29.7325C2.56532 14.8725 14.8226 3.03577 29.6826 3.29515Z" fill="url(#paint0_linear_534_28335)"/>
<path d="M29.6826 3.29515C44.5426 3.55465 56.3784 15.8119 56.119 30.6718C55.8595 45.5317 43.6032 57.3675 28.7433 57.1082C13.8834 56.8489 2.04668 44.5925 2.30594 29.7325C2.56532 14.8725 14.8226 3.03577 29.6826 3.29515Z" fill="url(#paint1_linear_534_28335)"/>
<path d="M29.6826 3.29515C44.5426 3.55465 56.3784 15.8119 56.119 30.6718C55.8595 45.5317 43.6032 57.3675 28.7433 57.1082C13.8834 56.8489 2.04668 44.5925 2.30594 29.7325C2.56532 14.8725 14.8226 3.03577 29.6826 3.29515Z" stroke="url(#paint2_radial_534_28335)" stroke-width="3.08268"/>
<path d="M34.3076 32.9825C36.6783 33.1762 38.3756 34.0177 39.5107 35.1593C40.817 36.4731 41.495 38.3022 41.4951 40.3478V43.0265C41.4949 44.0445 40.6685 44.8711 39.6504 44.8712H16.9902C15.9721 44.8711 15.1457 44.0446 15.1455 43.0265V40.3478C15.1456 38.303 15.8225 36.4775 17.1436 35.1652C18.2956 34.0208 20.0304 33.1748 22.4756 32.9825L23.9961 44.2228L26.4424 44.3409L28.3203 36.3575L30.1982 44.3409L32.6416 44.2384L34.3076 32.9825ZM29.2646 32.9415L28.3203 34.5939L27.376 32.9415H29.2646ZM28.3203 14.4015C32.184 14.4015 35.3154 17.533 35.3154 21.3966C35.3153 25.2601 32.1839 28.3907 28.3203 28.3907C24.4567 28.3907 21.3254 25.2601 21.3252 21.3966C21.3252 17.5329 24.4566 14.4015 28.3203 14.4015Z" stroke="white" stroke-width="2.49"/>
</g>
<defs>
<linearGradient id="paint0_linear_534_28335" x1="29.7622" y1="0.231682" x2="28.7168" y2="60.1213" gradientUnits="userSpaceOnUse">
<stop stop-color="#10834B"/>
<stop offset="1" stop-color="#09F785"/>
</linearGradient>
<linearGradient id="paint1_linear_534_28335" x1="29.7093" y1="1.75437" x2="28.7162" y2="58.6495" gradientUnits="userSpaceOnUse">
<stop stop-color="#A000C6"/>
<stop offset="1" stop-color="#A000C6" stop-opacity="0.88"/>
</linearGradient>
<radialGradient id="paint2_radial_534_28335" cx="0" cy="0" r="1" gradientUnits="userSpaceOnUse" gradientTransform="translate(27.2191 0.18729) rotate(88.5684) scale(59.9527 65.6889)">
<stop stop-color="white" stop-opacity="0.48"/>
<stop offset="1" stop-color="white" stop-opacity="0.04"/>
</radialGradient>
<clipPath id="clip0_534_28335">
<rect width="58" height="59" fill="white"/>
</clipPath>
</defs>
</svg>
