<svg width="29" height="29" viewBox="0 0 29 29" fill="none" xmlns="http://www.w3.org/2000/svg">
<rect width="28.5371" height="28.5371" rx="14.2686" fill="white"/>
<g clip-path="url(#clip0_534_28208)">
<path d="M7.16512 15.7734C7.49973 16.5703 7.98844 17.2933 8.6032 17.9008C9.21797 18.5084 9.94667 18.9885 10.7475 19.3137C11.5483 19.6389 12.4054 19.8027 13.2697 19.7957C14.134 19.7887 14.9884 19.6111 15.7839 19.2731C16.5794 18.935 17.3002 18.4432 17.9051 17.8258C18.51 17.2085 18.987 16.4777 19.3087 15.6755C19.6304 14.8733 19.7905 14.0154 19.7798 13.1512C19.7691 12.2869 19.5878 11.4333 19.2463 10.6393C18.5605 9.04468 17.271 7.78667 15.6599 7.14056C14.0487 6.49445 12.2473 6.51287 10.6497 7.19178C9.05217 7.87069 7.7886 9.15481 7.13554 10.7631C6.48248 12.3714 6.49312 14.1729 7.16512 15.7734ZM17.8461 17.8482L21.957 21.9577L17.8461 17.8482Z" fill="white"/>
<path d="M17.8461 17.8482L21.957 21.9577M7.16512 15.7734C7.49973 16.5703 7.98844 17.2933 8.6032 17.9008C9.21797 18.5084 9.94667 18.9885 10.7475 19.3137C11.5483 19.6389 12.4054 19.8027 13.2697 19.7957C14.134 19.7887 14.9884 19.6111 15.7839 19.2731C16.5794 18.935 17.3002 18.4432 17.9051 17.8258C18.51 17.2085 18.987 16.4777 19.3087 15.6755C19.6304 14.8733 19.7905 14.0154 19.7798 13.1512C19.7691 12.2869 19.5878 11.4333 19.2463 10.6393C18.5605 9.04468 17.271 7.78667 15.6599 7.14056C14.0487 6.49445 12.2473 6.51287 10.6497 7.19178C9.05217 7.87069 7.7886 9.15481 7.13554 10.7631C6.48248 12.3714 6.49312 14.1729 7.16512 15.7734Z" stroke="white" stroke-width="1.09392" stroke-linecap="round" stroke-linejoin="round"/>
<path d="M17.8461 17.8482L21.957 21.9577M7.16512 15.7734C7.49973 16.5703 7.98844 17.2933 8.6032 17.9008C9.21797 18.5084 9.94667 18.9885 10.7475 19.3137C11.5483 19.6389 12.4054 19.8027 13.2697 19.7957C14.134 19.7887 14.9884 19.6111 15.7839 19.2731C16.5794 18.935 17.3002 18.4432 17.9051 17.8258C18.51 17.2085 18.987 16.4777 19.3087 15.6755C19.6304 14.8733 19.7905 14.0154 19.7798 13.1512C19.7691 12.2869 19.5878 11.4333 19.2463 10.6393C18.5605 9.04468 17.271 7.78667 15.6599 7.14056C14.0487 6.49445 12.2473 6.51287 10.6497 7.19178C9.05217 7.87069 7.7886 9.15481 7.13554 10.7631C6.48248 12.3714 6.49312 14.1729 7.16512 15.7734Z" stroke="url(#paint0_linear_534_28208)" stroke-width="1.09392" stroke-linecap="round" stroke-linejoin="round"/>
<path d="M11.0179 11.0179C11.0179 11.5982 11.2484 12.1546 11.6587 12.5649C12.069 12.9752 12.6255 13.2057 13.2057 13.2057C13.786 13.2057 14.3424 12.9752 14.7527 12.5649C15.163 12.1546 15.3935 11.5982 15.3935 11.0179C15.3935 10.4377 15.163 9.88118 14.7527 9.47088C14.3424 9.06058 13.786 8.83008 13.2057 8.83008C12.6255 8.83008 12.069 9.06058 11.6587 9.47088C11.2484 9.88118 11.0179 10.4377 11.0179 11.0179ZM13.2057 14.2997V17.5814V14.2997ZM16.2862 16.4875C16.0636 15.8478 15.6473 15.2933 15.0953 14.9008C14.5432 14.5084 13.8827 14.2976 13.2053 14.2976C12.528 14.2976 11.8675 14.5084 11.3154 14.9008C10.7634 15.2933 10.3471 15.8478 10.1245 16.4875" fill="white"/>
<path d="M13.2057 14.2997V17.5814M16.2862 16.4875C16.0636 15.8478 15.6473 15.2933 15.0953 14.9008C14.5432 14.5084 13.8827 14.2976 13.2053 14.2976C12.528 14.2976 11.8675 14.5084 11.3154 14.9008C10.7634 15.2933 10.3471 15.8478 10.1245 16.4875M11.0179 11.0179C11.0179 11.5982 11.2484 12.1546 11.6587 12.5649C12.069 12.9752 12.6255 13.2057 13.2057 13.2057C13.786 13.2057 14.3424 12.9752 14.7527 12.5649C15.163 12.1546 15.3935 11.5982 15.3935 11.0179C15.3935 10.4377 15.163 9.88118 14.7527 9.47088C14.3424 9.06058 13.786 8.83008 13.2057 8.83008C12.6255 8.83008 12.069 9.06058 11.6587 9.47088C11.2484 9.88118 11.0179 10.4377 11.0179 11.0179Z" stroke="white" stroke-width="1.09392" stroke-linecap="round" stroke-linejoin="round"/>
<path d="M13.2057 14.2997V17.5814M16.2862 16.4875C16.0636 15.8478 15.6473 15.2933 15.0953 14.9008C14.5432 14.5084 13.8827 14.2976 13.2053 14.2976C12.528 14.2976 11.8675 14.5084 11.3154 14.9008C10.7634 15.2933 10.3471 15.8478 10.1245 16.4875M11.0179 11.0179C11.0179 11.5982 11.2484 12.1546 11.6587 12.5649C12.069 12.9752 12.6255 13.2057 13.2057 13.2057C13.786 13.2057 14.3424 12.9752 14.7527 12.5649C15.163 12.1546 15.3935 11.5982 15.3935 11.0179C15.3935 10.4377 15.163 9.88118 14.7527 9.47088C14.3424 9.06058 13.786 8.83008 13.2057 8.83008C12.6255 8.83008 12.069 9.06058 11.6587 9.47088C11.2484 9.88118 11.0179 10.4377 11.0179 11.0179Z" stroke="url(#paint1_linear_534_28208)" stroke-width="1.09392" stroke-linecap="round" stroke-linejoin="round"/>
</g>
<defs>
<linearGradient id="paint0_linear_534_28208" x1="14.3052" y1="6.66895" x2="14.3052" y2="21.9577" gradientUnits="userSpaceOnUse">
<stop stop-color="#245FFF"/>
<stop offset="1" stop-color="#245FFF" stop-opacity="0.88"/>
</linearGradient>
<linearGradient id="paint1_linear_534_28208" x1="13.2053" y1="8.83008" x2="13.2053" y2="17.5814" gradientUnits="userSpaceOnUse">
<stop stop-color="#245FFF"/>
<stop offset="1" stop-color="#245FFF" stop-opacity="0.88"/>
</linearGradient>
<clipPath id="clip0_534_28208">
<rect width="17.5026" height="17.5026" fill="white" transform="translate(5.54883 5.5459)"/>
</clipPath>
</defs>
</svg>
