<svg width="347" height="313" viewBox="0 0 347 313" fill="none" xmlns="http://www.w3.org/2000/svg">
<path d="M-44 312.269V-78H346.269M-8.57299 -78V312.269M26.854 -78V312.269M62.281 -78V312.269M97.7081 -78V312.269M133.135 -78V312.269M168.562 -78V312.269M203.989 -78V312.269M239.416 -78V312.269M274.843 -78V312.269M310.27 -78V312.269M345.697 -78V312.269M346.269 -42.573H-44M346.269 -7.14597H-44M346.269 28.281H-44M346.269 63.7081H-44M346.269 99.1351H-44M346.269 134.562H-44M346.269 169.989H-44M346.269 205.416H-44M346.269 240.843H-44M346.269 276.27H-44M346.269 311.697H-44" stroke="url(#paint0_radial_4006_4571)" stroke-opacity="0.4" stroke-width="0.571403"/>
<defs>
<radialGradient id="paint0_radial_4006_4571" cx="0" cy="0" r="1" gradientUnits="userSpaceOnUse" gradientTransform="translate(151.134 117.134) rotate(90) scale(195.134 215.114)">
<stop stop-color="#AB93EA"/>
<stop offset="0.850962" stop-color="#AB93EA" stop-opacity="0"/>
</radialGradient>
</defs>
</svg>
