<svg width="216" height="236" viewBox="0 0 216 236" fill="none" xmlns="http://www.w3.org/2000/svg">
<g filter="url(#filter0_d_2143_3854)">
<mask id="path-1-inside-1_2143_3854" fill="white">
<path d="M67.2724 50.2936C68.3876 50.1908 68.464 51.943 67.327 52.0144C67.0039 52.0349 66.3232 51.7428 66.0739 51.9007C65.5598 52.2333 65.3587 52.8007 64.7126 52.9422C63.9031 53.1205 63.9072 53.4399 63.4067 54.0373C62.9217 54.6152 62.8994 54.6225 63.3762 55.2704C63.6369 55.6357 63.753 56.4165 63.7739 56.8619C63.8039 57.544 62.8207 57.6404 63.1956 58.499C63.4777 59.1479 63.3134 58.8821 62.7402 59.1815C62.1801 59.4745 62.1591 60.2517 61.8552 60.7312C61.2473 61.6876 59.8618 62.1408 59.5734 63.3052C59.461 63.7611 59.9378 64.6023 59.486 64.9422C59.0447 65.2748 58.556 65.5993 58.0209 65.7603C57.5186 65.9114 56.8552 65.8759 56.4694 66.2858C55.8756 66.9183 55.9757 67.9475 55.6986 68.7183C55.4475 69.4294 55.1149 69.7061 54.6717 70.2898C54.1971 70.915 53.9287 71.6716 53.4091 72.2645C53.1561 72.5525 52.6288 73.4034 52.2998 73.5544C51.7388 73.8129 50.9116 73.0894 50.4598 73.7956C50.0858 74.3802 49.9092 74.7592 49.3828 75.2538C48.8623 75.7416 48.9524 76.4887 48.5629 77.0447C48.1966 77.567 47.5592 77.678 47.0796 78.0493C46.5341 78.4697 46.7611 79.0312 46.4918 79.5599C46.1132 80.3038 44.1044 79.7469 43.3978 79.8734C42.7986 79.9808 41.8722 79.9348 41.3439 80.2438C41.0277 80.429 40.206 81.151 39.988 80.7365C39.6882 80.1591 39.7214 79.771 39.822 79.155C39.8975 78.6872 40.0941 78.255 39.4607 78.2914C37.6612 78.396 36.5087 78.9589 35.404 80.3953C34.7874 81.1965 34.5968 81.8863 33.6686 82.4259C32.9206 82.8609 32.0848 83.2167 31.5542 83.9333C30.8267 84.9143 31.1101 88.0046 32.6125 88.2039C33.4102 88.3095 33.9097 88.9237 34.7824 88.8669C35.7566 88.8032 35.1878 89.796 34.8707 90.3542C34.4516 91.0927 34.0913 91.752 34.3902 92.6083C34.681 93.4423 35.1555 94.3177 35.7766 94.9524C36.2098 95.3942 36.7385 95.3101 37.3095 95.2241C38.4925 95.0457 37.5779 95.8756 37.7877 96.6432C38.2845 98.4623 40.4999 101.319 39.3533 103.216C39.1145 103.61 38.8856 103.444 38.7828 104.007C38.7109 104.405 38.3874 103.995 38.1066 104.076C38.1603 104.061 38.0552 102.474 37.471 102.504C36.6243 102.547 35.9408 103.137 35.1087 103.24C34.8056 103.278 34.2947 103.062 34.0781 103.352C33.8747 103.624 33.8397 104.087 33.892 104.412C33.3601 104.331 32.7709 104.352 32.2649 104.151C31.6907 103.922 31.4892 103.202 30.9081 102.978C30.2975 102.741 29.9495 103.318 29.4267 103.477C28.8138 103.664 27.75 103.105 27.1371 102.961C26.6798 102.854 26.1188 102.509 25.6388 102.689C25.1815 102.861 24.9572 103.67 25.0896 104.092C25.2248 104.517 25.0341 105.232 24.4608 105.017C24.1933 104.918 23.9376 105.023 23.6641 104.98C23.2969 104.921 23.1245 104.559 22.7696 104.481C21.456 104.19 21.6985 106.252 21.507 106.822C21.3537 107.278 20.5292 107.54 21.1735 108.082C21.3423 108.224 21.598 108.566 21.8159 108.616C22.0298 108.664 22.2004 108.395 22.3806 108.615C22.927 109.281 23.7747 109.747 23.9858 110.608C24.2224 111.577 25.3663 112.459 26.2062 112.928C27.2368 113.501 28.3001 114.139 29.4221 114.498C30.0127 114.685 30.631 114.555 31.2325 114.582C32.0734 114.621 31.3217 113.483 32.2681 113.835C32.7945 114.03 33.5835 114.049 34.0258 113.644C34.3438 113.353 34.6823 113.103 35.1401 113.427C35.3234 113.556 34.2292 114.472 34.1468 114.541C33.5512 115.046 32.9474 114.731 32.3223 115.096C31.8286 115.385 31.1361 115.432 30.7098 115.76C30.1469 116.193 29.7051 115.525 29.1719 115.841C28.9348 115.981 28.1936 116.48 27.9962 116.108C27.7154 115.578 27.72 115.174 27.0106 115.157C25.9655 115.135 25.3344 116.052 25.4268 117.028C25.556 118.331 26.936 119.428 27.7623 120.315C28.675 121.295 29.59 122.185 30.4317 123.229C31.3185 124.329 31.9082 125.617 32.9474 126.624C33.4461 127.107 34.1604 127.216 34.4489 127.882C34.772 128.627 35.5382 128.518 36.187 128.791C36.748 129.027 37.1593 129.767 37.8523 129.31C38.0566 129.176 38.3528 128.824 38.6335 128.861C39.0699 128.917 39.2951 129 39.7428 128.841C40.2683 128.656 41.181 128.663 41.596 128.301C42.1943 127.782 42.5492 127.635 43.2977 127.527C43.9229 127.436 44.1453 127.304 44.4848 126.847C44.8538 126.351 45.8388 126.674 46.2051 126C46.3653 125.707 46.3948 125.375 46.5723 125.082C46.8198 124.674 47.2348 124.472 47.4955 124.099C47.9296 123.479 47.4878 122.91 47.1984 122.373C47.0851 122.162 47.3412 122.079 47.4618 121.986C47.7885 121.735 47.5674 121.369 47.4504 121.064C47.1784 120.359 47.2653 119.512 48.0237 119.109C47.854 119.2 47.92 120.177 47.925 120.343C47.9473 121.248 48.3286 120.779 48.9019 120.904C49.0839 120.943 48.0419 121.733 48.0397 121.921C48.026 122.853 48.6803 122.858 49.295 122.952C49.0302 122.909 48.8709 123.524 48.875 123.725C48.8864 124.155 48.8791 124.088 48.5816 124.307C48.1575 124.62 48.1002 125.03 48.1712 125.523C48.2663 126.17 48.6871 126.168 48.946 126.645C49.1216 126.967 48.6707 127.17 49.0593 127.585C49.5648 128.126 49.3346 128.533 49.5962 129.154C49.7418 129.504 49.8665 129.755 49.856 130.146C49.8396 130.771 48.9183 131.026 48.8282 131.686C48.7149 132.498 48.7718 133.438 48.2558 134.145C47.485 135.205 48.9861 135.717 48.6057 136.63C48.3441 137.257 48.7276 137.342 48.8673 137.879C48.9842 138.329 48.7426 138.916 48.7563 139.391C48.7754 140.002 49.1016 140.525 49.1389 141.083C49.1885 141.841 48.6662 141.909 49.2358 142.6C49.5348 142.962 49.0766 143.289 48.9961 143.628C48.9032 144.018 49.4542 144.475 49.7518 144.64C50.2014 144.891 49.6331 145.432 49.8765 145.847C50.1154 146.257 50.533 146.238 50.5967 146.741C50.7005 147.565 51.2333 148.175 51.2738 149.099C51.2815 149.273 50.983 150.114 51.0954 150.203C51.7042 150.686 51.4107 150.688 51.5814 151.417C51.6774 151.488 51.7656 151.569 51.8453 151.659C51.8958 151.931 51.7042 152.347 51.7169 152.639C51.7429 153.268 51.8744 153.886 51.9272 154.513C52.0509 155.98 52.1032 156.972 52.7785 158.29C53.0314 158.782 53.0505 159.358 53.3031 159.862C53.4123 160.079 53.769 161.14 53.9683 161.194C54.3009 161.284 54.345 161.92 54.4278 162.221C54.4874 162.438 54.4774 162.834 54.7286 162.952C54.9033 163.035 55.2791 162.936 55.4115 163.083C55.2868 162.943 54.1689 163.537 55.2013 164.153C55.8879 164.564 55.7496 165.558 56.2337 166.148C56.4703 166.438 56.8206 166.235 56.8716 166.651C56.8898 166.801 56.7883 167.43 56.9576 167.504C57.1906 167.608 57.8799 167.574 57.8908 167.939C57.9013 168.3 57.6588 168.507 57.9295 168.859C58.4172 169.489 58.8536 169.99 58.9919 170.871C58.9159 171.01 58.8517 171.153 58.7981 171.303C58.7971 171.613 59.0183 171.909 59.1775 172.153C59.4951 172.645 59.5361 173.105 59.7718 173.618C59.9883 174.093 60.2418 174.358 60.2227 174.912C60.2017 175.516 60.2372 176.074 60.3077 176.678C60.3824 177.324 60.3414 178.043 60.4811 178.673C60.5566 179.014 60.9893 179.113 61.109 179.43C61.2751 179.88 60.927 180.363 61.4175 180.625C61.6304 180.739 61.7692 181.297 61.8279 181.494C62.0809 182.332 62.3352 183.197 62.6946 183.995C62.8566 184.353 63.0368 184.698 63.3266 184.972C63.6201 185.249 64.1725 185.147 64.3699 185.452C64.8272 186.148 65.3555 186.714 65.9115 187.315C66.179 187.605 66.1226 188.164 66.3141 188.512C66.568 188.974 66.6631 189.243 67.0094 189.66C67.3506 190.073 67.1368 190.597 67.4785 190.98C67.8352 191.378 67.8648 191.82 67.913 192.333C67.953 192.74 68.2838 192.902 68.3416 193.282C68.3998 193.656 68.242 194.231 68.4481 194.567C68.6342 194.865 68.7821 195.486 69.1288 195.654C69.4837 195.824 69.2293 196.53 69.4441 196.612C69.5742 196.661 69.6657 196.403 69.7871 196.401C69.9423 196.399 70.0624 196.801 70.1411 196.898C70.1056 196.854 71.2331 198.169 70.8486 198.099C70.4018 198.018 70.279 197.283 69.7871 197.273C69.3353 197.265 69.7507 198.345 69.8722 198.592C70.41 199.677 70.4783 200.711 70.719 201.908C70.8264 202.436 71.2263 202.694 71.3391 203.143C71.4829 203.718 71.0498 204.258 71.6171 204.702C72.0717 205.057 72.0803 205.573 72.2787 206.065C72.5462 206.731 73.3657 206.924 73.807 207.466C74.1446 207.882 74.53 208.614 75.1666 208.491C75.7803 208.373 75.5292 208.917 75.8031 209.348C76.5193 210.482 77.5498 209.971 78.3447 210.865C79.4549 212.13 80.0428 211.071 80.8895 210.325C81.6698 209.637 82.6827 209.213 83.6805 208.961C84.3843 208.785 84.4389 207.062 84.3575 206.485C84.307 206.126 84.2865 205.531 84.418 205.191C84.5463 204.859 85.4518 204.14 85.8171 204.246C86.657 204.486 86.9073 204.154 87.6389 203.956C88.1567 203.821 88.6813 203.908 89.1987 203.778C89.4785 203.709 90.3548 203.733 90.4808 203.466C90.5586 203.304 90.9399 203.168 90.732 202.962C90.4827 202.711 90.3371 202.462 90.04 202.226C88.8183 201.255 89.8279 200.29 90.5605 199.408C90.9304 198.961 91.3326 198.452 91.8158 198.125C92.0169 197.988 91.2184 197.522 91.6338 197.01C91.9801 196.582 92.3491 196.281 92.9032 196.494C93.6285 196.773 94.0062 196.795 94.7819 196.685C95.1664 196.627 96.1674 196.517 96.3735 196.122C96.4964 195.884 96.242 195.812 96.1101 195.694C95.883 195.492 95.944 195.031 95.9385 194.766C95.9281 194.293 96.091 193.604 95.9144 193.176C95.7065 192.684 95.5732 192.03 95.7033 191.503C95.8594 190.874 95.8712 190.313 95.5663 189.725C95.3411 189.291 94.9084 188.672 95.3984 188.294C96.0946 187.763 95.175 187.497 95.2774 186.975C95.3866 186.453 95.6014 185.948 95.7624 185.442C95.9877 184.737 96.0031 184.589 96.5974 184.106C96.7566 183.978 97.8632 183.007 97.8613 182.775C97.8577 182.371 96.9991 182.03 97.006 181.68C97.0096 181.486 98.1716 181.137 98.3791 180.934C98.7427 180.581 98.8746 179.862 99.1758 179.431C99.6035 178.828 99.4029 178.135 99.3542 177.418C99.3073 176.736 99.0475 176.192 98.4328 175.846C98.2058 175.718 97.5096 175.466 97.6257 175.099C97.9114 174.204 99.4425 176.414 98.916 174.77C98.6667 173.989 98.3859 173.193 98.0311 172.453C97.8163 172.006 97.2275 171.314 97.6552 170.808C98.0829 170.302 98.4901 170.248 98.3687 169.575C98.1675 168.475 97.5843 167.536 97.3554 166.426C97.101 165.203 97.39 164.455 98.133 163.551C98.3823 163.252 98.7563 162.418 98.7945 162.034C98.8187 161.786 99.4679 161.476 99.6413 161.367C100.026 161.132 100.367 161.087 100.795 161.009C101.636 160.856 101.548 161.591 102.099 161.932C102.829 162.386 103.688 160.669 103.98 160.231C104.203 159.895 104.304 159.412 104.738 159.288C104.844 159.258 105.136 157.734 105.209 157.492C105.377 156.929 106.333 157.202 106.633 157.486C107.161 157.989 107.639 158.02 108.385 157.746C108.979 157.529 109.578 157.173 110.186 156.927C110.971 156.611 111.376 156.372 112.025 155.85C112.384 155.56 112.167 154.334 112.109 153.927C112.06 153.602 111.726 153.387 111.675 153.044C111.584 152.409 112.145 152.559 112.524 152.313C112.848 152.104 113.191 151.925 113.515 151.712C113.864 151.482 114.071 151.063 114.429 150.874C115.122 150.516 115.896 150.571 116.59 150.144C117.273 149.723 118.395 148.997 118.445 148.107C118.507 147.038 118.656 146.443 119.65 145.904C120.54 145.422 121.633 145.221 122.456 144.641C123.351 144.011 123.767 142.824 124.449 142C124.775 141.607 125.045 141.165 125.476 140.874C125.831 140.635 126.25 140.391 126.202 139.894C126.103 138.871 127.173 138.885 127.469 137.951C127.669 137.322 128.531 137.106 129.011 136.661C129.142 136.538 129.439 136.498 129.513 136.42C129.576 136.354 130 135.353 129.915 135.329C130.197 135.412 130.353 135.686 130.688 135.679C130.989 135.673 131.223 135.424 131.508 135.355C132.009 135.234 132.322 134.738 132.8 134.537C133.976 134.043 135.562 133.763 136.416 132.739C137.259 131.728 138.825 130.942 138.453 129.371C138.375 129.04 139.061 128.636 139.25 128.413C139.681 127.905 139.762 127.128 139.688 126.487C139.601 125.754 138.94 125.609 138.595 125.024C138.304 124.528 139.023 123.827 139.35 123.503C139.856 123.002 140.798 123.282 141.233 122.764C141.576 122.355 142.521 122.481 143.037 122.386C143.465 122.307 143.988 122.362 144.092 121.862C144.215 121.271 144.223 121.271 144.822 121.069C145.186 120.945 144.85 119.812 145.243 119.812C145.605 119.812 145.469 120.961 145.602 121.201C145.671 121.322 146.824 120.95 147.017 120.95C147.703 120.95 147.904 120.687 148.247 120.112C148.557 119.595 150.341 120.959 150.787 119.861C151.221 118.796 151.132 117.896 150.491 116.953C150.322 116.705 150.133 115.98 150.114 115.673C150.079 115.152 150.001 115.031 149.698 114.48C149.423 113.979 149.795 113.436 149.714 112.905C149.592 112.093 149.409 112.007 149.877 111.283C150.223 110.745 149.674 110.104 149.166 109.95C148.574 109.768 148.498 110.02 148.555 109.189C148.603 108.473 148.402 108.057 147.807 107.653C147.166 107.219 147.119 106.728 147.622 106.166C148.113 105.614 148.042 105.295 148.002 104.622C147.973 104.116 148.203 103.458 148.027 102.961C147.68 101.989 145.907 102.909 145.275 102.378C144.741 101.929 143.591 100.224 144.845 100.063C145.571 99.9688 145.739 99.3768 145.805 98.7344C145.881 98.0023 146.111 98.177 146.591 97.8571C147.221 97.4376 149.437 97.9909 149.128 96.5413C148.969 95.7728 149.042 95.5995 148.26 95.3847C147.644 95.215 148.033 94.4151 147.457 94.184C147.045 94.0183 146.284 94.6904 146.011 94.2395C145.708 93.7449 145.24 93.5693 144.935 93.1225C144.75 92.8513 144.411 92.8404 144.121 92.7357C143.558 92.5328 144.137 91.6956 144.156 91.4217C144.208 90.62 144.928 90.5572 145.332 89.9789C145.639 89.5403 146.06 90.7515 146.21 90.9612C146.492 91.358 147.126 91.8971 147.596 91.5159C147.923 91.251 147.62 90.5531 147.933 90.3929C148.46 90.1249 149.279 91.0604 149.585 91.3598C149.97 91.7365 150.264 91.7379 150.685 91.9836C151.31 92.3503 151.863 91.9809 152.393 91.565C153.115 90.9917 152.857 92.1601 152.678 92.4641C152.318 93.0906 152.614 93.4819 153.108 93.8186C153.193 93.8764 152.678 95.3119 152.633 95.6222C152.533 96.2901 153.039 96.5063 153.602 96.6823C154.066 96.8279 154.783 97.0345 155.254 97.0641C155.91 97.1055 156.307 97.1264 156.958 97.3539C157.972 97.7079 158.392 96.6428 159.297 96.8985C160.179 97.1464 160.432 96.8825 161.254 96.7278C161.926 96.6014 162.591 96.9913 163.303 96.8916C164.107 96.7783 164.574 97.1819 165.378 96.8066C166.036 96.4985 166.879 96.4039 167.439 96.9954C167.277 97.1469 167.132 97.3134 167.005 97.495C166.893 97.8198 167.213 97.9823 167.211 98.2844C167.21 98.551 167.056 98.652 166.957 98.8795C166.836 99.1616 166.943 99.5288 166.854 99.8305C166.775 100.095 166.411 100.195 166.163 100.229C165.498 100.32 165.8 101.127 165.758 101.583C164.589 101.11 163.919 102.484 163.002 102.847C161.892 103.287 161.569 104.715 161.471 105.805C161.341 107.251 162.742 108.254 162.528 109.58C162.493 109.795 162.373 111.409 162.931 111.138C163.498 110.868 163.548 111.277 163.963 110.646C163.52 111.318 165.033 111.911 165.522 111.623C165.796 111.461 166.348 111.202 166.523 110.947C166.707 110.68 166.535 110.133 166.537 109.816C166.539 109.339 166.44 108.758 166.674 108.32C166.846 108.001 167.135 107.765 167.178 107.384C167.214 107.067 167.143 106.789 167.311 106.496C167.807 105.628 167.673 106.524 168.018 106.725C168.781 107.167 168.494 107.403 168.516 108.205C168.534 108.773 169.105 108.963 169.355 109.423C169.559 109.8 169.221 110.658 169.055 111.012C168.745 111.679 169.332 111.944 169.708 112.397C170.295 113.102 170.007 113.357 170.032 114.124C170.044 114.442 170.331 114.579 170.331 114.905C170.331 115.22 170.198 115.526 170.226 115.84C170.266 116.323 170.704 116.829 170.754 117.397C170.816 118.1 170.557 118.45 171.113 118.966C171.741 119.548 171.866 118.8 172.077 118.423C172.083 118.415 173.179 118.983 173.352 119.013C174.055 119.133 173.987 118.124 174.129 117.74C174.287 117.309 174.687 116.939 174.879 116.515C175.22 115.763 174.64 115.435 174.709 114.822C174.844 113.636 174.417 112.657 174.218 111.511C174.131 111.007 174.005 110.369 174.746 110.296C175.591 110.212 175.608 109.795 175.82 109.017C176.013 108.304 175.368 108.014 175.414 107.384C175.466 106.721 176.02 106.53 175.863 105.736C175.736 105.103 175.369 104.331 175.702 103.696C176.135 102.871 176.746 103.967 177.238 103.935C177.487 103.92 177.53 103.644 177.747 103.606C178.036 103.555 178.331 103.748 178.613 103.773C179.11 103.817 179.792 103.699 180.03 103.193C180.236 102.758 179.901 102.377 179.976 101.936C180.049 101.495 180.18 100.507 180.393 100.126C180.551 99.8441 180.916 99.8277 181.093 99.5657C181.29 99.2726 181.169 98.9146 181.245 98.5942C181.4 97.9536 181.999 97.5855 182.101 96.9035C182.195 96.2788 182.184 95.6399 182.264 95.0143C182.309 94.654 181.325 94.4447 181.271 93.9715C181.219 93.5046 182.222 92.7562 182.528 92.4718C182.988 92.0459 183.067 91.3885 183.413 90.8784C183.792 90.3178 183.647 89.5125 183.852 88.8855C184.125 88.0456 183.884 87.3681 183.625 86.5332C183.469 86.0286 182.998 85.1987 183.62 84.791C184.037 84.5166 184.577 84.6986 185.005 84.351C185.45 83.9902 185.722 83.4483 185.966 82.9442C186.295 82.2708 186.604 81.9127 187.168 81.4277C187.655 81.0091 187.769 80.3284 188.251 79.9071C188.668 79.5449 189.097 79.6004 189.517 79.2473C189.877 78.9438 190.173 79.2564 190.601 79.0362C191.37 78.6376 191.557 78.462 192.063 79.1481C192.456 79.6828 192.846 79.9025 193.513 79.9567C194.256 80.0167 194.278 79.9917 194.306 79.2587C194.34 78.3178 192.837 77.9774 192.584 76.9441C192.373 76.0806 192.823 76.1511 193.379 75.7912C193.833 75.4972 194.164 74.8762 194.555 74.4903C195.05 74.0008 195.212 73.7887 194.823 73.1959C194.711 73.0248 194.408 72.9333 194.354 72.7331C194.276 72.4451 194.761 72.1071 194.619 71.8468C194.548 71.7135 193.73 71.6425 193.524 71.5529C193.055 71.3468 192.603 71.2449 192.145 71.5424C191.619 71.8855 191.07 71.0419 190.595 70.8945C190.107 70.7434 189.348 71.3081 188.888 71.4446C188.162 71.6598 188.647 70.9127 188.865 70.6898C189.253 70.293 189.684 69.8799 189.963 69.3957C190.159 69.055 190.32 68.5399 189.754 68.4653C189.213 68.3947 189.316 67.6981 189.262 67.2577C189.213 66.8528 188.207 66.8864 188.19 67.361C188.181 67.6499 188.328 67.7145 188.033 67.877C187.863 67.973 187.437 67.9939 187.472 67.6722C187.551 67.0202 187.686 67.0075 188.216 66.4833C188.693 66.0119 188.524 65.3686 187.891 65.2958C187.291 65.2275 187.52 65.2889 187.182 64.8626C186.553 64.0641 186.197 64.2993 185.577 64.8044C185.043 65.2393 184.508 65.6898 184.037 66.1935C183.746 66.5061 183.673 67.4802 183.214 67.5398C182.424 67.6454 182.225 67.4069 181.563 67.0925C181.087 66.866 180.693 67.169 180.168 66.8687C179.823 66.6717 179.066 66.5247 179.031 66.0779C178.971 65.2575 178.302 66.4414 178.178 66.6048C177.809 67.0803 177.267 67.2313 176.813 67.5921C176.482 67.8538 176.59 68.5244 176.318 68.872C175.885 69.4226 175.487 69.8262 175.19 70.4545C175.017 70.8222 174.051 70.7876 173.722 70.8554C173.419 70.9182 173.37 71.3067 173.116 71.2708C172.641 71.2025 172.125 70.9523 171.671 71.2712C171.367 71.4865 171.185 72.2181 170.987 72.5452C170.823 72.8182 171.281 73.3788 170.956 73.6099C170.611 73.8492 170.002 73.7633 169.607 73.9571C169.31 74.1031 168.896 74.5208 168.715 74.7879C168.493 75.1164 167.959 75.2092 167.908 75.6005C167.861 75.9663 168.42 76.445 168.126 76.7394C167.833 77.0315 167.463 77.3131 167.104 77.5188C166.831 77.678 166.539 77.274 166.228 77.3049C165.519 77.3741 164.323 77.729 163.77 78.2391C163.313 78.6586 162.492 76.9045 161.916 77.6362C161.687 77.9247 162.044 78.5889 161.935 79.0057C161.836 79.4038 162.233 79.7606 162.212 80.1769C162.197 80.4931 164.203 80.631 164.566 80.7247C164.961 80.8271 165.499 81.1538 165.236 81.6452C164.912 82.2503 165.066 82.5888 165.028 83.2408C164.969 84.2937 163.66 83.2208 163.17 84.1249C163.004 84.4329 162.221 84.1595 161.932 84.3574C161.341 84.761 160.938 84.6013 160.259 84.6172C158.993 84.6468 158.108 85.7388 156.842 84.8256C155.955 84.1859 155.475 84.2823 154.556 84.9366C154.355 85.0799 154.104 85.3657 153.837 85.3193C153.595 85.2769 153.079 85.0972 152.902 85.3711C152.7 85.6878 153.062 86.2461 152.37 85.9631C152.072 85.8416 151.894 85.4858 151.898 85.4885C151.645 85.2997 151.2 85.5058 150.94 85.2951C150.81 85.1891 150.924 85.0381 150.71 84.8829C150.133 84.4702 149.449 85.5795 149.327 85.5276C148.948 85.3679 148.477 84.7232 148.072 84.4889C147.646 84.2414 147.408 83.8082 147.159 83.396C146.944 83.0406 147.76 82.5451 147.548 82.046C147.443 81.7962 147.214 81.6979 146.996 81.5783C146.773 81.4554 146.904 81.1501 146.7 80.9977C146.554 80.889 147.264 79.8179 147.243 79.5226C147.193 78.8032 147.237 78.6554 146.842 78.0288C146.194 77.0078 145.458 76.9664 144.713 77.8323C144.26 78.356 144.223 78.2295 143.567 78.2664C143.383 78.2768 142.592 78.326 142.495 78.4916C142.233 78.9352 142.292 79.2678 142.578 79.6072C143.132 80.2551 142.63 80.3753 142.329 80.9258C142.019 81.4818 141.984 81.9555 141.903 82.5806C141.835 83.1048 141.505 83.4861 141.452 84.0166C141.394 84.6281 142.055 85.3429 142.363 85.8188C142.706 86.3535 142.781 87.4118 142.651 88.0256C142.637 88.0897 142.635 89.1549 142.305 88.8346C141.991 88.5338 141.525 88.6353 141.172 88.7545C140.317 89.0425 139.388 89.1289 138.491 89.098C137.727 89.0712 137.265 88.3259 136.519 88.2171C136.031 88.1457 135.757 88.6248 135.346 88.7941C134.818 89.0093 134.063 88.8628 133.589 88.5779C133.204 88.3473 133.036 87.6616 132.496 87.733C132.199 87.7721 132.106 88.0615 131.793 88.021C131.462 87.9783 131.247 87.6784 130.939 87.5801C130.406 87.4104 130.12 88.006 129.637 87.4869C129.282 87.106 129.277 86.5819 128.679 86.4545C128.108 86.3325 127.96 86.9504 127.477 86.9936C126.831 87.0569 126.696 86.8476 126.208 86.4176C125.771 86.0336 123.736 85.8734 123.658 85.3566C123.547 84.6308 123.605 84.2227 123.173 83.5643C122.737 82.9005 122.306 83.2913 121.589 83.2194C121.152 83.1758 121.159 82.6371 120.861 82.4328C120.622 82.269 119.81 82.1839 119.514 82.258C118.895 82.4114 118.353 82.7504 117.822 83.0975C117.927 83.0252 116.878 82.6871 116.784 82.6921C116.488 82.7076 116.083 82.7822 115.918 83.0688C115.856 83.1789 115.847 83.4906 115.736 83.5648C115.794 83.5261 114.83 83.1189 114.666 83.1048C114.256 83.0693 113.444 83.1585 113.083 83.0192C112.738 82.8864 113.054 82.2335 112.953 81.9755C112.719 81.3794 111.832 81.4286 111.327 81.5719C110.986 81.6679 110.549 82.1998 110.241 81.6857C109.99 81.2666 109.278 80.899 108.828 80.7347C108.301 80.5413 107.972 80.3225 107.409 80.6223C106.528 81.0919 106.67 80.2237 106.045 79.9799C105.504 79.7697 104.911 79.832 104.774 79.134C104.727 78.8979 104.725 78.5858 104.526 78.4115C104.2 78.1271 104.088 78.4911 104.166 78.7455C103.073 78.3524 103.017 76.9892 101.752 76.8627C100.655 76.7521 99.9866 76.6866 99.4256 75.6874C98.7936 74.5677 98.8332 75.6315 98.3241 75.8203C97.9969 75.9409 96.4986 74.8625 96.2634 74.6396C95.8826 74.2779 95.9413 73.8925 96.4195 73.7496C96.9928 73.5794 96.7762 73.2232 96.8299 72.7791C96.8799 72.3523 97.2994 72.1908 97.3476 71.7221C97.405 71.1825 97.0273 70.7466 97.3267 70.2161C97.6038 69.7283 97.8741 69.666 97.9346 69.0499C97.9605 68.7888 98.0247 68.5117 98.2376 68.3447C98.5839 68.0726 98.7727 67.8101 98.9925 67.4461C99.2645 67.0015 99.8879 67.128 100.137 66.6203C100.406 66.0724 101.562 65.0678 100.762 64.667C100.229 64.3994 100.226 63.8976 99.8929 63.4749C99.4338 62.8975 99.2227 63.3056 98.608 63.2451C98.052 63.1909 98.2081 62.5885 97.6434 62.8816C97.2016 63.1095 97.1497 62.4197 97.096 62.1235C96.9746 61.4574 96.2734 60.3504 95.4317 60.5015C94.9626 60.5861 94.8015 60.0419 94.3752 59.9309C94.0303 59.8408 93.6667 59.8344 93.3137 59.8049C92.6448 59.7494 91.799 59.6197 91.7175 58.8002C91.6352 57.9826 91.3608 56.9652 90.4176 56.7259C89.6659 56.5353 89.1318 58.0499 89.2132 58.0768C88.851 57.958 88.7509 57.6368 88.6954 57.3024C88.6495 57.0257 88.3369 56.9261 88.3146 56.6663C88.2668 56.1135 89.494 55.8482 88.7873 55.1885C88.1058 54.5515 88.6991 53.8262 88.5985 53.0991C88.5621 52.8279 88.0944 52.5914 87.9524 52.3447C87.6803 51.8752 87.8573 51.9471 88.0166 51.634C88.1012 51.4702 87.1125 51.3629 87.0952 51.2141C87.0415 50.7477 87.1193 50.2413 87.097 49.764C87.077 49.3163 87.209 48.5105 87.8278 48.8431C88.5467 49.2312 88.3005 49.506 88.5917 50.2631C88.7614 50.7049 89.3684 51.3633 89.9016 51.1563C90.7279 50.8419 90.2907 50.7918 90.3735 50.1485C90.4253 49.7463 91.1743 49.9314 91.3017 49.526C91.414 49.1725 92.3409 49.3636 92.6389 49.2012C93.4661 48.7494 93.7764 48.2389 93.2845 47.3275C92.8027 46.433 91.3694 46.1673 92.1125 44.9351C92.7617 43.8577 91.0846 43.4441 90.2256 43.481C89.4348 43.5178 89.3625 43.3495 89.4507 42.4731C89.4821 42.1624 89.4871 41.8134 89.6264 41.5249C89.8038 41.16 90.2506 41.0435 90.424 40.7118C90.4777 40.6104 90.1487 40.0685 90.12 39.9597C89.9944 39.4902 89.6436 39.9725 89.3511 39.6795C89.0694 39.3983 89.0713 39.2154 89.3379 38.8759C89.8643 38.2094 90.4308 38.7362 91.1374 39.0152C91.3895 39.1143 92.3436 39.5511 92.3704 38.9501C92.3914 38.4642 92.9037 38.4032 93.0675 37.9464C93.2513 37.4313 93.3036 36.8985 93.4229 36.3744C93.487 36.0891 94.346 35.9617 94.5435 35.9098C95.2619 35.7219 94.4657 35.0612 94.928 34.7259C95.3211 34.4388 95.8061 34.7355 96.1524 34.442C96.6911 33.987 96.5127 33.7513 96.4813 33.1503C96.4536 32.6197 96.8362 32.0783 96.9072 31.5437C96.9764 31.0291 97.5688 30.7811 97.7576 30.3366C97.9118 29.9689 97.8909 29.0184 97.7626 28.6349C97.5861 28.103 96.7184 27.8181 96.3376 27.4906C95.6378 26.8909 95.676 26.5847 94.6541 26.5382C94.1517 26.5159 93.3519 26.243 92.9956 25.8762C92.7513 25.6246 92.6516 25.0331 92.1953 25.2583C91.5979 25.5527 91.1365 26.0305 90.4667 26.1993C90.1428 26.2812 88.8742 25.7998 88.8092 26.0355C88.5093 27.127 86.7153 26.3239 85.8995 26.8026C85.4286 27.0811 85.4786 27.7626 84.9849 28.0338C84.5345 28.2809 83.4921 28.5812 83.003 28.5835C82.7577 28.5853 82.5935 28.7172 82.4442 28.8842C82.3137 29.0316 81.9369 28.9106 81.7808 28.9042C81.1953 28.8787 81.3322 28.2918 81.173 27.8436C80.748 26.6415 79.9449 26.5451 78.7952 26.6898C77.4288 26.8613 77.3146 25.9245 76.9957 24.7606C76.8501 24.2287 76.6803 24.114 76.1598 23.9006C75.5751 23.6608 75.5319 22.8264 74.94 22.7176C74.3043 22.6012 73.8202 22.5138 73.2324 22.2199C72.6054 21.9064 72.8183 21.3617 72.3665 20.9932C71.608 20.379 71.1644 20.0268 70.6985 19.1582C70.4196 18.6299 70.4059 18.8165 69.9332 18.5612C69.5583 18.3592 69.9209 17.7382 69.5009 17.6007C68.7984 17.3719 68.9763 17.6977 68.3675 17.912C68.0145 18.0357 67.5499 17.4797 67.4152 17.9338C67.2637 18.4484 66.5476 18.0671 66.3951 17.815C66.1754 17.452 65.8773 17.1471 65.5238 17.5293C65.3091 17.7623 65.0752 18.1872 64.6953 18.1213C64.0883 18.0152 64.1716 17.4824 63.52 17.9415C63.2083 18.1618 62.4326 18.3397 62.2697 18.6231C61.9703 19.1423 61.3128 18.5239 60.9224 18.4862C60.1926 18.4152 60.8801 19.4385 60.138 19.6546C59.6876 19.7861 59.4046 19.5035 59.0124 19.357C58.3126 19.0959 57.6997 19.7465 57.0145 19.5304C56.044 19.2246 56.6346 21.0687 55.76 21.0055C55.4129 20.9805 55.0584 21.324 55.1554 21.688C55.3683 22.5024 54.6235 22.0452 54.1839 22.4856C53.7276 22.9429 53.6065 22.8287 53.0574 23.0489C52.6738 23.2022 52.9336 24.306 53.1051 24.554C53.5556 25.2197 52.8126 26.4095 54.2017 26.2493C54.7654 26.1843 55.5298 26.1096 56.0895 26.243C56.2696 26.2862 56.4626 26.4996 56.5595 26.6383C56.8616 27.0688 57.2897 27.3104 57.5787 27.7085C57.752 27.9465 57.8922 28.2822 58.0801 28.4934C58.6679 29.1554 58.8358 28.3368 59.2726 28.1953C59.3577 28.168 59.5533 29.8438 59.7663 29.9798C60.0675 30.1714 60.3196 30.5331 60.5766 30.7902C60.8433 31.0564 61.3984 30.873 61.7041 31.0627C61.983 31.2361 61.8565 31.702 61.6209 31.8226C61.1895 32.0446 61.2241 32.208 60.9748 32.5624C60.5452 33.1735 59.4906 32.7207 59.1375 33.5006C58.9919 33.8218 57.4335 34.7223 57.4376 34.7564C57.4818 35.0662 57.7366 35.2419 57.6833 35.6509C57.6374 36.0145 57.464 36.4549 57.7065 36.788C58.0296 37.2307 58.3212 37.0482 58.1238 37.7066C57.9731 38.2121 57.4604 38.0679 57.6078 38.6912C57.7447 39.2736 58.2452 39.2545 58.283 39.7846C58.329 40.4166 58.2589 41.0581 58.7175 41.5677C58.3745 41.1859 58.2603 42.9031 58.2552 43.0614C58.2257 43.8618 57.5514 44.5748 58.2953 45.2982C59.3172 46.2919 60.6244 45.9598 61.6818 46.7151C62.0395 46.9708 62.3607 47.8066 62.843 47.762C63.0336 47.7443 64.1679 47.6228 64.3081 47.8166C64.3827 47.9194 64.0628 48.6966 64.1661 48.9646C64.2972 49.304 64.743 49.6675 65.0866 49.7403C65.5247 49.835 66.078 49.895 66.5266 49.8946C66.9225 49.8955 66.8151 50.3236 67.2724 50.2936Z"/>
</mask>
<path d="M67.2724 50.2936C68.3876 50.1908 68.464 51.943 67.327 52.0144C67.0039 52.0349 66.3232 51.7428 66.0739 51.9007C65.5598 52.2333 65.3587 52.8007 64.7126 52.9422C63.9031 53.1205 63.9072 53.4399 63.4067 54.0373C62.9217 54.6152 62.8994 54.6225 63.3762 55.2704C63.6369 55.6357 63.753 56.4165 63.7739 56.8619C63.8039 57.544 62.8207 57.6404 63.1956 58.499C63.4777 59.1479 63.3134 58.8821 62.7402 59.1815C62.1801 59.4745 62.1591 60.2517 61.8552 60.7312C61.2473 61.6876 59.8618 62.1408 59.5734 63.3052C59.461 63.7611 59.9378 64.6023 59.486 64.9422C59.0447 65.2748 58.556 65.5993 58.0209 65.7603C57.5186 65.9114 56.8552 65.8759 56.4694 66.2858C55.8756 66.9183 55.9757 67.9475 55.6986 68.7183C55.4475 69.4294 55.1149 69.7061 54.6717 70.2898C54.1971 70.915 53.9287 71.6716 53.4091 72.2645C53.1561 72.5525 52.6288 73.4034 52.2998 73.5544C51.7388 73.8129 50.9116 73.0894 50.4598 73.7956C50.0858 74.3802 49.9092 74.7592 49.3828 75.2538C48.8623 75.7416 48.9524 76.4887 48.5629 77.0447C48.1966 77.567 47.5592 77.678 47.0796 78.0493C46.5341 78.4697 46.7611 79.0312 46.4918 79.5599C46.1132 80.3038 44.1044 79.7469 43.3978 79.8734C42.7986 79.9808 41.8722 79.9348 41.3439 80.2438C41.0277 80.429 40.206 81.151 39.988 80.7365C39.6882 80.1591 39.7214 79.771 39.822 79.155C39.8975 78.6872 40.0941 78.255 39.4607 78.2914C37.6612 78.396 36.5087 78.9589 35.404 80.3953C34.7874 81.1965 34.5968 81.8863 33.6686 82.4259C32.9206 82.8609 32.0848 83.2167 31.5542 83.9333C30.8267 84.9143 31.1101 88.0046 32.6125 88.2039C33.4102 88.3095 33.9097 88.9237 34.7824 88.8669C35.7566 88.8032 35.1878 89.796 34.8707 90.3542C34.4516 91.0927 34.0913 91.752 34.3902 92.6083C34.681 93.4423 35.1555 94.3177 35.7766 94.9524C36.2098 95.3942 36.7385 95.3101 37.3095 95.2241C38.4925 95.0457 37.5779 95.8756 37.7877 96.6432C38.2845 98.4623 40.4999 101.319 39.3533 103.216C39.1145 103.61 38.8856 103.444 38.7828 104.007C38.7109 104.405 38.3874 103.995 38.1066 104.076C38.1603 104.061 38.0552 102.474 37.471 102.504C36.6243 102.547 35.9408 103.137 35.1087 103.24C34.8056 103.278 34.2947 103.062 34.0781 103.352C33.8747 103.624 33.8397 104.087 33.892 104.412C33.3601 104.331 32.7709 104.352 32.2649 104.151C31.6907 103.922 31.4892 103.202 30.9081 102.978C30.2975 102.741 29.9495 103.318 29.4267 103.477C28.8138 103.664 27.75 103.105 27.1371 102.961C26.6798 102.854 26.1188 102.509 25.6388 102.689C25.1815 102.861 24.9572 103.67 25.0896 104.092C25.2248 104.517 25.0341 105.232 24.4608 105.017C24.1933 104.918 23.9376 105.023 23.6641 104.98C23.2969 104.921 23.1245 104.559 22.7696 104.481C21.456 104.19 21.6985 106.252 21.507 106.822C21.3537 107.278 20.5292 107.54 21.1735 108.082C21.3423 108.224 21.598 108.566 21.8159 108.616C22.0298 108.664 22.2004 108.395 22.3806 108.615C22.927 109.281 23.7747 109.747 23.9858 110.608C24.2224 111.577 25.3663 112.459 26.2062 112.928C27.2368 113.501 28.3001 114.139 29.4221 114.498C30.0127 114.685 30.631 114.555 31.2325 114.582C32.0734 114.621 31.3217 113.483 32.2681 113.835C32.7945 114.03 33.5835 114.049 34.0258 113.644C34.3438 113.353 34.6823 113.103 35.1401 113.427C35.3234 113.556 34.2292 114.472 34.1468 114.541C33.5512 115.046 32.9474 114.731 32.3223 115.096C31.8286 115.385 31.1361 115.432 30.7098 115.76C30.1469 116.193 29.7051 115.525 29.1719 115.841C28.9348 115.981 28.1936 116.48 27.9962 116.108C27.7154 115.578 27.72 115.174 27.0106 115.157C25.9655 115.135 25.3344 116.052 25.4268 117.028C25.556 118.331 26.936 119.428 27.7623 120.315C28.675 121.295 29.59 122.185 30.4317 123.229C31.3185 124.329 31.9082 125.617 32.9474 126.624C33.4461 127.107 34.1604 127.216 34.4489 127.882C34.772 128.627 35.5382 128.518 36.187 128.791C36.748 129.027 37.1593 129.767 37.8523 129.31C38.0566 129.176 38.3528 128.824 38.6335 128.861C39.0699 128.917 39.2951 129 39.7428 128.841C40.2683 128.656 41.181 128.663 41.596 128.301C42.1943 127.782 42.5492 127.635 43.2977 127.527C43.9229 127.436 44.1453 127.304 44.4848 126.847C44.8538 126.351 45.8388 126.674 46.2051 126C46.3653 125.707 46.3948 125.375 46.5723 125.082C46.8198 124.674 47.2348 124.472 47.4955 124.099C47.9296 123.479 47.4878 122.91 47.1984 122.373C47.0851 122.162 47.3412 122.079 47.4618 121.986C47.7885 121.735 47.5674 121.369 47.4504 121.064C47.1784 120.359 47.2653 119.512 48.0237 119.109C47.854 119.2 47.92 120.177 47.925 120.343C47.9473 121.248 48.3286 120.779 48.9019 120.904C49.0839 120.943 48.0419 121.733 48.0397 121.921C48.026 122.853 48.6803 122.858 49.295 122.952C49.0302 122.909 48.8709 123.524 48.875 123.725C48.8864 124.155 48.8791 124.088 48.5816 124.307C48.1575 124.62 48.1002 125.03 48.1712 125.523C48.2663 126.17 48.6871 126.168 48.946 126.645C49.1216 126.967 48.6707 127.17 49.0593 127.585C49.5648 128.126 49.3346 128.533 49.5962 129.154C49.7418 129.504 49.8665 129.755 49.856 130.146C49.8396 130.771 48.9183 131.026 48.8282 131.686C48.7149 132.498 48.7718 133.438 48.2558 134.145C47.485 135.205 48.9861 135.717 48.6057 136.63C48.3441 137.257 48.7276 137.342 48.8673 137.879C48.9842 138.329 48.7426 138.916 48.7563 139.391C48.7754 140.002 49.1016 140.525 49.1389 141.083C49.1885 141.841 48.6662 141.909 49.2358 142.6C49.5348 142.962 49.0766 143.289 48.9961 143.628C48.9032 144.018 49.4542 144.475 49.7518 144.64C50.2014 144.891 49.6331 145.432 49.8765 145.847C50.1154 146.257 50.533 146.238 50.5967 146.741C50.7005 147.565 51.2333 148.175 51.2738 149.099C51.2815 149.273 50.983 150.114 51.0954 150.203C51.7042 150.686 51.4107 150.688 51.5814 151.417C51.6774 151.488 51.7656 151.569 51.8453 151.659C51.8958 151.931 51.7042 152.347 51.7169 152.639C51.7429 153.268 51.8744 153.886 51.9272 154.513C52.0509 155.98 52.1032 156.972 52.7785 158.29C53.0314 158.782 53.0505 159.358 53.3031 159.862C53.4123 160.079 53.769 161.14 53.9683 161.194C54.3009 161.284 54.345 161.92 54.4278 162.221C54.4874 162.438 54.4774 162.834 54.7286 162.952C54.9033 163.035 55.2791 162.936 55.4115 163.083C55.2868 162.943 54.1689 163.537 55.2013 164.153C55.8879 164.564 55.7496 165.558 56.2337 166.148C56.4703 166.438 56.8206 166.235 56.8716 166.651C56.8898 166.801 56.7883 167.43 56.9576 167.504C57.1906 167.608 57.8799 167.574 57.8908 167.939C57.9013 168.3 57.6588 168.507 57.9295 168.859C58.4172 169.489 58.8536 169.99 58.9919 170.871C58.9159 171.01 58.8517 171.153 58.7981 171.303C58.7971 171.613 59.0183 171.909 59.1775 172.153C59.4951 172.645 59.5361 173.105 59.7718 173.618C59.9883 174.093 60.2418 174.358 60.2227 174.912C60.2017 175.516 60.2372 176.074 60.3077 176.678C60.3824 177.324 60.3414 178.043 60.4811 178.673C60.5566 179.014 60.9893 179.113 61.109 179.43C61.2751 179.88 60.927 180.363 61.4175 180.625C61.6304 180.739 61.7692 181.297 61.8279 181.494C62.0809 182.332 62.3352 183.197 62.6946 183.995C62.8566 184.353 63.0368 184.698 63.3266 184.972C63.6201 185.249 64.1725 185.147 64.3699 185.452C64.8272 186.148 65.3555 186.714 65.9115 187.315C66.179 187.605 66.1226 188.164 66.3141 188.512C66.568 188.974 66.6631 189.243 67.0094 189.66C67.3506 190.073 67.1368 190.597 67.4785 190.98C67.8352 191.378 67.8648 191.82 67.913 192.333C67.953 192.74 68.2838 192.902 68.3416 193.282C68.3998 193.656 68.242 194.231 68.4481 194.567C68.6342 194.865 68.7821 195.486 69.1288 195.654C69.4837 195.824 69.2293 196.53 69.4441 196.612C69.5742 196.661 69.6657 196.403 69.7871 196.401C69.9423 196.399 70.0624 196.801 70.1411 196.898C70.1056 196.854 71.2331 198.169 70.8486 198.099C70.4018 198.018 70.279 197.283 69.7871 197.273C69.3353 197.265 69.7507 198.345 69.8722 198.592C70.41 199.677 70.4783 200.711 70.719 201.908C70.8264 202.436 71.2263 202.694 71.3391 203.143C71.4829 203.718 71.0498 204.258 71.6171 204.702C72.0717 205.057 72.0803 205.573 72.2787 206.065C72.5462 206.731 73.3657 206.924 73.807 207.466C74.1446 207.882 74.53 208.614 75.1666 208.491C75.7803 208.373 75.5292 208.917 75.8031 209.348C76.5193 210.482 77.5498 209.971 78.3447 210.865C79.4549 212.13 80.0428 211.071 80.8895 210.325C81.6698 209.637 82.6827 209.213 83.6805 208.961C84.3843 208.785 84.4389 207.062 84.3575 206.485C84.307 206.126 84.2865 205.531 84.418 205.191C84.5463 204.859 85.4518 204.14 85.8171 204.246C86.657 204.486 86.9073 204.154 87.6389 203.956C88.1567 203.821 88.6813 203.908 89.1987 203.778C89.4785 203.709 90.3548 203.733 90.4808 203.466C90.5586 203.304 90.9399 203.168 90.732 202.962C90.4827 202.711 90.3371 202.462 90.04 202.226C88.8183 201.255 89.8279 200.29 90.5605 199.408C90.9304 198.961 91.3326 198.452 91.8158 198.125C92.0169 197.988 91.2184 197.522 91.6338 197.01C91.9801 196.582 92.3491 196.281 92.9032 196.494C93.6285 196.773 94.0062 196.795 94.7819 196.685C95.1664 196.627 96.1674 196.517 96.3735 196.122C96.4964 195.884 96.242 195.812 96.1101 195.694C95.883 195.492 95.944 195.031 95.9385 194.766C95.9281 194.293 96.091 193.604 95.9144 193.176C95.7065 192.684 95.5732 192.03 95.7033 191.503C95.8594 190.874 95.8712 190.313 95.5663 189.725C95.3411 189.291 94.9084 188.672 95.3984 188.294C96.0946 187.763 95.175 187.497 95.2774 186.975C95.3866 186.453 95.6014 185.948 95.7624 185.442C95.9877 184.737 96.0031 184.589 96.5974 184.106C96.7566 183.978 97.8632 183.007 97.8613 182.775C97.8577 182.371 96.9991 182.03 97.006 181.68C97.0096 181.486 98.1716 181.137 98.3791 180.934C98.7427 180.581 98.8746 179.862 99.1758 179.431C99.6035 178.828 99.4029 178.135 99.3542 177.418C99.3073 176.736 99.0475 176.192 98.4328 175.846C98.2058 175.718 97.5096 175.466 97.6257 175.099C97.9114 174.204 99.4425 176.414 98.916 174.77C98.6667 173.989 98.3859 173.193 98.0311 172.453C97.8163 172.006 97.2275 171.314 97.6552 170.808C98.0829 170.302 98.4901 170.248 98.3687 169.575C98.1675 168.475 97.5843 167.536 97.3554 166.426C97.101 165.203 97.39 164.455 98.133 163.551C98.3823 163.252 98.7563 162.418 98.7945 162.034C98.8187 161.786 99.4679 161.476 99.6413 161.367C100.026 161.132 100.367 161.087 100.795 161.009C101.636 160.856 101.548 161.591 102.099 161.932C102.829 162.386 103.688 160.669 103.98 160.231C104.203 159.895 104.304 159.412 104.738 159.288C104.844 159.258 105.136 157.734 105.209 157.492C105.377 156.929 106.333 157.202 106.633 157.486C107.161 157.989 107.639 158.02 108.385 157.746C108.979 157.529 109.578 157.173 110.186 156.927C110.971 156.611 111.376 156.372 112.025 155.85C112.384 155.56 112.167 154.334 112.109 153.927C112.06 153.602 111.726 153.387 111.675 153.044C111.584 152.409 112.145 152.559 112.524 152.313C112.848 152.104 113.191 151.925 113.515 151.712C113.864 151.482 114.071 151.063 114.429 150.874C115.122 150.516 115.896 150.571 116.59 150.144C117.273 149.723 118.395 148.997 118.445 148.107C118.507 147.038 118.656 146.443 119.65 145.904C120.54 145.422 121.633 145.221 122.456 144.641C123.351 144.011 123.767 142.824 124.449 142C124.775 141.607 125.045 141.165 125.476 140.874C125.831 140.635 126.25 140.391 126.202 139.894C126.103 138.871 127.173 138.885 127.469 137.951C127.669 137.322 128.531 137.106 129.011 136.661C129.142 136.538 129.439 136.498 129.513 136.42C129.576 136.354 130 135.353 129.915 135.329C130.197 135.412 130.353 135.686 130.688 135.679C130.989 135.673 131.223 135.424 131.508 135.355C132.009 135.234 132.322 134.738 132.8 134.537C133.976 134.043 135.562 133.763 136.416 132.739C137.259 131.728 138.825 130.942 138.453 129.371C138.375 129.04 139.061 128.636 139.25 128.413C139.681 127.905 139.762 127.128 139.688 126.487C139.601 125.754 138.94 125.609 138.595 125.024C138.304 124.528 139.023 123.827 139.35 123.503C139.856 123.002 140.798 123.282 141.233 122.764C141.576 122.355 142.521 122.481 143.037 122.386C143.465 122.307 143.988 122.362 144.092 121.862C144.215 121.271 144.223 121.271 144.822 121.069C145.186 120.945 144.85 119.812 145.243 119.812C145.605 119.812 145.469 120.961 145.602 121.201C145.671 121.322 146.824 120.95 147.017 120.95C147.703 120.95 147.904 120.687 148.247 120.112C148.557 119.595 150.341 120.959 150.787 119.861C151.221 118.796 151.132 117.896 150.491 116.953C150.322 116.705 150.133 115.98 150.114 115.673C150.079 115.152 150.001 115.031 149.698 114.48C149.423 113.979 149.795 113.436 149.714 112.905C149.592 112.093 149.409 112.007 149.877 111.283C150.223 110.745 149.674 110.104 149.166 109.95C148.574 109.768 148.498 110.02 148.555 109.189C148.603 108.473 148.402 108.057 147.807 107.653C147.166 107.219 147.119 106.728 147.622 106.166C148.113 105.614 148.042 105.295 148.002 104.622C147.973 104.116 148.203 103.458 148.027 102.961C147.68 101.989 145.907 102.909 145.275 102.378C144.741 101.929 143.591 100.224 144.845 100.063C145.571 99.9688 145.739 99.3768 145.805 98.7344C145.881 98.0023 146.111 98.177 146.591 97.8571C147.221 97.4376 149.437 97.9909 149.128 96.5413C148.969 95.7728 149.042 95.5995 148.26 95.3847C147.644 95.215 148.033 94.4151 147.457 94.184C147.045 94.0183 146.284 94.6904 146.011 94.2395C145.708 93.7449 145.24 93.5693 144.935 93.1225C144.75 92.8513 144.411 92.8404 144.121 92.7357C143.558 92.5328 144.137 91.6956 144.156 91.4217C144.208 90.62 144.928 90.5572 145.332 89.9789C145.639 89.5403 146.06 90.7515 146.21 90.9612C146.492 91.358 147.126 91.8971 147.596 91.5159C147.923 91.251 147.62 90.5531 147.933 90.3929C148.46 90.1249 149.279 91.0604 149.585 91.3598C149.97 91.7365 150.264 91.7379 150.685 91.9836C151.31 92.3503 151.863 91.9809 152.393 91.565C153.115 90.9917 152.857 92.1601 152.678 92.4641C152.318 93.0906 152.614 93.4819 153.108 93.8186C153.193 93.8764 152.678 95.3119 152.633 95.6222C152.533 96.2901 153.039 96.5063 153.602 96.6823C154.066 96.8279 154.783 97.0345 155.254 97.0641C155.91 97.1055 156.307 97.1264 156.958 97.3539C157.972 97.7079 158.392 96.6428 159.297 96.8985C160.179 97.1464 160.432 96.8825 161.254 96.7278C161.926 96.6014 162.591 96.9913 163.303 96.8916C164.107 96.7783 164.574 97.1819 165.378 96.8066C166.036 96.4985 166.879 96.4039 167.439 96.9954C167.277 97.1469 167.132 97.3134 167.005 97.495C166.893 97.8198 167.213 97.9823 167.211 98.2844C167.21 98.551 167.056 98.652 166.957 98.8795C166.836 99.1616 166.943 99.5288 166.854 99.8305C166.775 100.095 166.411 100.195 166.163 100.229C165.498 100.32 165.8 101.127 165.758 101.583C164.589 101.11 163.919 102.484 163.002 102.847C161.892 103.287 161.569 104.715 161.471 105.805C161.341 107.251 162.742 108.254 162.528 109.58C162.493 109.795 162.373 111.409 162.931 111.138C163.498 110.868 163.548 111.277 163.963 110.646C163.52 111.318 165.033 111.911 165.522 111.623C165.796 111.461 166.348 111.202 166.523 110.947C166.707 110.68 166.535 110.133 166.537 109.816C166.539 109.339 166.44 108.758 166.674 108.32C166.846 108.001 167.135 107.765 167.178 107.384C167.214 107.067 167.143 106.789 167.311 106.496C167.807 105.628 167.673 106.524 168.018 106.725C168.781 107.167 168.494 107.403 168.516 108.205C168.534 108.773 169.105 108.963 169.355 109.423C169.559 109.8 169.221 110.658 169.055 111.012C168.745 111.679 169.332 111.944 169.708 112.397C170.295 113.102 170.007 113.357 170.032 114.124C170.044 114.442 170.331 114.579 170.331 114.905C170.331 115.22 170.198 115.526 170.226 115.84C170.266 116.323 170.704 116.829 170.754 117.397C170.816 118.1 170.557 118.45 171.113 118.966C171.741 119.548 171.866 118.8 172.077 118.423C172.083 118.415 173.179 118.983 173.352 119.013C174.055 119.133 173.987 118.124 174.129 117.74C174.287 117.309 174.687 116.939 174.879 116.515C175.22 115.763 174.64 115.435 174.709 114.822C174.844 113.636 174.417 112.657 174.218 111.511C174.131 111.007 174.005 110.369 174.746 110.296C175.591 110.212 175.608 109.795 175.82 109.017C176.013 108.304 175.368 108.014 175.414 107.384C175.466 106.721 176.02 106.53 175.863 105.736C175.736 105.103 175.369 104.331 175.702 103.696C176.135 102.871 176.746 103.967 177.238 103.935C177.487 103.92 177.53 103.644 177.747 103.606C178.036 103.555 178.331 103.748 178.613 103.773C179.11 103.817 179.792 103.699 180.03 103.193C180.236 102.758 179.901 102.377 179.976 101.936C180.049 101.495 180.18 100.507 180.393 100.126C180.551 99.8441 180.916 99.8277 181.093 99.5657C181.29 99.2726 181.169 98.9146 181.245 98.5942C181.4 97.9536 181.999 97.5855 182.101 96.9035C182.195 96.2788 182.184 95.6399 182.264 95.0143C182.309 94.654 181.325 94.4447 181.271 93.9715C181.219 93.5046 182.222 92.7562 182.528 92.4718C182.988 92.0459 183.067 91.3885 183.413 90.8784C183.792 90.3178 183.647 89.5125 183.852 88.8855C184.125 88.0456 183.884 87.3681 183.625 86.5332C183.469 86.0286 182.998 85.1987 183.62 84.791C184.037 84.5166 184.577 84.6986 185.005 84.351C185.45 83.9902 185.722 83.4483 185.966 82.9442C186.295 82.2708 186.604 81.9127 187.168 81.4277C187.655 81.0091 187.769 80.3284 188.251 79.9071C188.668 79.5449 189.097 79.6004 189.517 79.2473C189.877 78.9438 190.173 79.2564 190.601 79.0362C191.37 78.6376 191.557 78.462 192.063 79.1481C192.456 79.6828 192.846 79.9025 193.513 79.9567C194.256 80.0167 194.278 79.9917 194.306 79.2587C194.34 78.3178 192.837 77.9774 192.584 76.9441C192.373 76.0806 192.823 76.1511 193.379 75.7912C193.833 75.4972 194.164 74.8762 194.555 74.4903C195.05 74.0008 195.212 73.7887 194.823 73.1959C194.711 73.0248 194.408 72.9333 194.354 72.7331C194.276 72.4451 194.761 72.1071 194.619 71.8468C194.548 71.7135 193.73 71.6425 193.524 71.5529C193.055 71.3468 192.603 71.2449 192.145 71.5424C191.619 71.8855 191.07 71.0419 190.595 70.8945C190.107 70.7434 189.348 71.3081 188.888 71.4446C188.162 71.6598 188.647 70.9127 188.865 70.6898C189.253 70.293 189.684 69.8799 189.963 69.3957C190.159 69.055 190.32 68.5399 189.754 68.4653C189.213 68.3947 189.316 67.6981 189.262 67.2577C189.213 66.8528 188.207 66.8864 188.19 67.361C188.181 67.6499 188.328 67.7145 188.033 67.877C187.863 67.973 187.437 67.9939 187.472 67.6722C187.551 67.0202 187.686 67.0075 188.216 66.4833C188.693 66.0119 188.524 65.3686 187.891 65.2958C187.291 65.2275 187.52 65.2889 187.182 64.8626C186.553 64.0641 186.197 64.2993 185.577 64.8044C185.043 65.2393 184.508 65.6898 184.037 66.1935C183.746 66.5061 183.673 67.4802 183.214 67.5398C182.424 67.6454 182.225 67.4069 181.563 67.0925C181.087 66.866 180.693 67.169 180.168 66.8687C179.823 66.6717 179.066 66.5247 179.031 66.0779C178.971 65.2575 178.302 66.4414 178.178 66.6048C177.809 67.0803 177.267 67.2313 176.813 67.5921C176.482 67.8538 176.59 68.5244 176.318 68.872C175.885 69.4226 175.487 69.8262 175.19 70.4545C175.017 70.8222 174.051 70.7876 173.722 70.8554C173.419 70.9182 173.37 71.3067 173.116 71.2708C172.641 71.2025 172.125 70.9523 171.671 71.2712C171.367 71.4865 171.185 72.2181 170.987 72.5452C170.823 72.8182 171.281 73.3788 170.956 73.6099C170.611 73.8492 170.002 73.7633 169.607 73.9571C169.31 74.1031 168.896 74.5208 168.715 74.7879C168.493 75.1164 167.959 75.2092 167.908 75.6005C167.861 75.9663 168.42 76.445 168.126 76.7394C167.833 77.0315 167.463 77.3131 167.104 77.5188C166.831 77.678 166.539 77.274 166.228 77.3049C165.519 77.3741 164.323 77.729 163.77 78.2391C163.313 78.6586 162.492 76.9045 161.916 77.6362C161.687 77.9247 162.044 78.5889 161.935 79.0057C161.836 79.4038 162.233 79.7606 162.212 80.1769C162.197 80.4931 164.203 80.631 164.566 80.7247C164.961 80.8271 165.499 81.1538 165.236 81.6452C164.912 82.2503 165.066 82.5888 165.028 83.2408C164.969 84.2937 163.66 83.2208 163.17 84.1249C163.004 84.4329 162.221 84.1595 161.932 84.3574C161.341 84.761 160.938 84.6013 160.259 84.6172C158.993 84.6468 158.108 85.7388 156.842 84.8256C155.955 84.1859 155.475 84.2823 154.556 84.9366C154.355 85.0799 154.104 85.3657 153.837 85.3193C153.595 85.2769 153.079 85.0972 152.902 85.3711C152.7 85.6878 153.062 86.2461 152.37 85.9631C152.072 85.8416 151.894 85.4858 151.898 85.4885C151.645 85.2997 151.2 85.5058 150.94 85.2951C150.81 85.1891 150.924 85.0381 150.71 84.8829C150.133 84.4702 149.449 85.5795 149.327 85.5276C148.948 85.3679 148.477 84.7232 148.072 84.4889C147.646 84.2414 147.408 83.8082 147.159 83.396C146.944 83.0406 147.76 82.5451 147.548 82.046C147.443 81.7962 147.214 81.6979 146.996 81.5783C146.773 81.4554 146.904 81.1501 146.7 80.9977C146.554 80.889 147.264 79.8179 147.243 79.5226C147.193 78.8032 147.237 78.6554 146.842 78.0288C146.194 77.0078 145.458 76.9664 144.713 77.8323C144.26 78.356 144.223 78.2295 143.567 78.2664C143.383 78.2768 142.592 78.326 142.495 78.4916C142.233 78.9352 142.292 79.2678 142.578 79.6072C143.132 80.2551 142.63 80.3753 142.329 80.9258C142.019 81.4818 141.984 81.9555 141.903 82.5806C141.835 83.1048 141.505 83.4861 141.452 84.0166C141.394 84.6281 142.055 85.3429 142.363 85.8188C142.706 86.3535 142.781 87.4118 142.651 88.0256C142.637 88.0897 142.635 89.1549 142.305 88.8346C141.991 88.5338 141.525 88.6353 141.172 88.7545C140.317 89.0425 139.388 89.1289 138.491 89.098C137.727 89.0712 137.265 88.3259 136.519 88.2171C136.031 88.1457 135.757 88.6248 135.346 88.7941C134.818 89.0093 134.063 88.8628 133.589 88.5779C133.204 88.3473 133.036 87.6616 132.496 87.733C132.199 87.7721 132.106 88.0615 131.793 88.021C131.462 87.9783 131.247 87.6784 130.939 87.5801C130.406 87.4104 130.12 88.006 129.637 87.4869C129.282 87.106 129.277 86.5819 128.679 86.4545C128.108 86.3325 127.96 86.9504 127.477 86.9936C126.831 87.0569 126.696 86.8476 126.208 86.4176C125.771 86.0336 123.736 85.8734 123.658 85.3566C123.547 84.6308 123.605 84.2227 123.173 83.5643C122.737 82.9005 122.306 83.2913 121.589 83.2194C121.152 83.1758 121.159 82.6371 120.861 82.4328C120.622 82.269 119.81 82.1839 119.514 82.258C118.895 82.4114 118.353 82.7504 117.822 83.0975C117.927 83.0252 116.878 82.6871 116.784 82.6921C116.488 82.7076 116.083 82.7822 115.918 83.0688C115.856 83.1789 115.847 83.4906 115.736 83.5648C115.794 83.5261 114.83 83.1189 114.666 83.1048C114.256 83.0693 113.444 83.1585 113.083 83.0192C112.738 82.8864 113.054 82.2335 112.953 81.9755C112.719 81.3794 111.832 81.4286 111.327 81.5719C110.986 81.6679 110.549 82.1998 110.241 81.6857C109.99 81.2666 109.278 80.899 108.828 80.7347C108.301 80.5413 107.972 80.3225 107.409 80.6223C106.528 81.0919 106.67 80.2237 106.045 79.9799C105.504 79.7697 104.911 79.832 104.774 79.134C104.727 78.8979 104.725 78.5858 104.526 78.4115C104.2 78.1271 104.088 78.4911 104.166 78.7455C103.073 78.3524 103.017 76.9892 101.752 76.8627C100.655 76.7521 99.9866 76.6866 99.4256 75.6874C98.7936 74.5677 98.8332 75.6315 98.3241 75.8203C97.9969 75.9409 96.4986 74.8625 96.2634 74.6396C95.8826 74.2779 95.9413 73.8925 96.4195 73.7496C96.9928 73.5794 96.7762 73.2232 96.8299 72.7791C96.8799 72.3523 97.2994 72.1908 97.3476 71.7221C97.405 71.1825 97.0273 70.7466 97.3267 70.2161C97.6038 69.7283 97.8741 69.666 97.9346 69.0499C97.9605 68.7888 98.0247 68.5117 98.2376 68.3447C98.5839 68.0726 98.7727 67.8101 98.9925 67.4461C99.2645 67.0015 99.8879 67.128 100.137 66.6203C100.406 66.0724 101.562 65.0678 100.762 64.667C100.229 64.3994 100.226 63.8976 99.8929 63.4749C99.4338 62.8975 99.2227 63.3056 98.608 63.2451C98.052 63.1909 98.2081 62.5885 97.6434 62.8816C97.2016 63.1095 97.1497 62.4197 97.096 62.1235C96.9746 61.4574 96.2734 60.3504 95.4317 60.5015C94.9626 60.5861 94.8015 60.0419 94.3752 59.9309C94.0303 59.8408 93.6667 59.8344 93.3137 59.8049C92.6448 59.7494 91.799 59.6197 91.7175 58.8002C91.6352 57.9826 91.3608 56.9652 90.4176 56.7259C89.6659 56.5353 89.1318 58.0499 89.2132 58.0768C88.851 57.958 88.7509 57.6368 88.6954 57.3024C88.6495 57.0257 88.3369 56.9261 88.3146 56.6663C88.2668 56.1135 89.494 55.8482 88.7873 55.1885C88.1058 54.5515 88.6991 53.8262 88.5985 53.0991C88.5621 52.8279 88.0944 52.5914 87.9524 52.3447C87.6803 51.8752 87.8573 51.9471 88.0166 51.634C88.1012 51.4702 87.1125 51.3629 87.0952 51.2141C87.0415 50.7477 87.1193 50.2413 87.097 49.764C87.077 49.3163 87.209 48.5105 87.8278 48.8431C88.5467 49.2312 88.3005 49.506 88.5917 50.2631C88.7614 50.7049 89.3684 51.3633 89.9016 51.1563C90.7279 50.8419 90.2907 50.7918 90.3735 50.1485C90.4253 49.7463 91.1743 49.9314 91.3017 49.526C91.414 49.1725 92.3409 49.3636 92.6389 49.2012C93.4661 48.7494 93.7764 48.2389 93.2845 47.3275C92.8027 46.433 91.3694 46.1673 92.1125 44.9351C92.7617 43.8577 91.0846 43.4441 90.2256 43.481C89.4348 43.5178 89.3625 43.3495 89.4507 42.4731C89.4821 42.1624 89.4871 41.8134 89.6264 41.5249C89.8038 41.16 90.2506 41.0435 90.424 40.7118C90.4777 40.6104 90.1487 40.0685 90.12 39.9597C89.9944 39.4902 89.6436 39.9725 89.3511 39.6795C89.0694 39.3983 89.0713 39.2154 89.3379 38.8759C89.8643 38.2094 90.4308 38.7362 91.1374 39.0152C91.3895 39.1143 92.3436 39.5511 92.3704 38.9501C92.3914 38.4642 92.9037 38.4032 93.0675 37.9464C93.2513 37.4313 93.3036 36.8985 93.4229 36.3744C93.487 36.0891 94.346 35.9617 94.5435 35.9098C95.2619 35.7219 94.4657 35.0612 94.928 34.7259C95.3211 34.4388 95.8061 34.7355 96.1524 34.442C96.6911 33.987 96.5127 33.7513 96.4813 33.1503C96.4536 32.6197 96.8362 32.0783 96.9072 31.5437C96.9764 31.0291 97.5688 30.7811 97.7576 30.3366C97.9118 29.9689 97.8909 29.0184 97.7626 28.6349C97.5861 28.103 96.7184 27.8181 96.3376 27.4906C95.6378 26.8909 95.676 26.5847 94.6541 26.5382C94.1517 26.5159 93.3519 26.243 92.9956 25.8762C92.7513 25.6246 92.6516 25.0331 92.1953 25.2583C91.5979 25.5527 91.1365 26.0305 90.4667 26.1993C90.1428 26.2812 88.8742 25.7998 88.8092 26.0355C88.5093 27.127 86.7153 26.3239 85.8995 26.8026C85.4286 27.0811 85.4786 27.7626 84.9849 28.0338C84.5345 28.2809 83.4921 28.5812 83.003 28.5835C82.7577 28.5853 82.5935 28.7172 82.4442 28.8842C82.3137 29.0316 81.9369 28.9106 81.7808 28.9042C81.1953 28.8787 81.3322 28.2918 81.173 27.8436C80.748 26.6415 79.9449 26.5451 78.7952 26.6898C77.4288 26.8613 77.3146 25.9245 76.9957 24.7606C76.8501 24.2287 76.6803 24.114 76.1598 23.9006C75.5751 23.6608 75.5319 22.8264 74.94 22.7176C74.3043 22.6012 73.8202 22.5138 73.2324 22.2199C72.6054 21.9064 72.8183 21.3617 72.3665 20.9932C71.608 20.379 71.1644 20.0268 70.6985 19.1582C70.4196 18.6299 70.4059 18.8165 69.9332 18.5612C69.5583 18.3592 69.9209 17.7382 69.5009 17.6007C68.7984 17.3719 68.9763 17.6977 68.3675 17.912C68.0145 18.0357 67.5499 17.4797 67.4152 17.9338C67.2637 18.4484 66.5476 18.0671 66.3951 17.815C66.1754 17.452 65.8773 17.1471 65.5238 17.5293C65.3091 17.7623 65.0752 18.1872 64.6953 18.1213C64.0883 18.0152 64.1716 17.4824 63.52 17.9415C63.2083 18.1618 62.4326 18.3397 62.2697 18.6231C61.9703 19.1423 61.3128 18.5239 60.9224 18.4862C60.1926 18.4152 60.8801 19.4385 60.138 19.6546C59.6876 19.7861 59.4046 19.5035 59.0124 19.357C58.3126 19.0959 57.6997 19.7465 57.0145 19.5304C56.044 19.2246 56.6346 21.0687 55.76 21.0055C55.4129 20.9805 55.0584 21.324 55.1554 21.688C55.3683 22.5024 54.6235 22.0452 54.1839 22.4856C53.7276 22.9429 53.6065 22.8287 53.0574 23.0489C52.6738 23.2022 52.9336 24.306 53.1051 24.554C53.5556 25.2197 52.8126 26.4095 54.2017 26.2493C54.7654 26.1843 55.5298 26.1096 56.0895 26.243C56.2696 26.2862 56.4626 26.4996 56.5595 26.6383C56.8616 27.0688 57.2897 27.3104 57.5787 27.7085C57.752 27.9465 57.8922 28.2822 58.0801 28.4934C58.6679 29.1554 58.8358 28.3368 59.2726 28.1953C59.3577 28.168 59.5533 29.8438 59.7663 29.9798C60.0675 30.1714 60.3196 30.5331 60.5766 30.7902C60.8433 31.0564 61.3984 30.873 61.7041 31.0627C61.983 31.2361 61.8565 31.702 61.6209 31.8226C61.1895 32.0446 61.2241 32.208 60.9748 32.5624C60.5452 33.1735 59.4906 32.7207 59.1375 33.5006C58.9919 33.8218 57.4335 34.7223 57.4376 34.7564C57.4818 35.0662 57.7366 35.2419 57.6833 35.6509C57.6374 36.0145 57.464 36.4549 57.7065 36.788C58.0296 37.2307 58.3212 37.0482 58.1238 37.7066C57.9731 38.2121 57.4604 38.0679 57.6078 38.6912C57.7447 39.2736 58.2452 39.2545 58.283 39.7846C58.329 40.4166 58.2589 41.0581 58.7175 41.5677C58.3745 41.1859 58.2603 42.9031 58.2552 43.0614C58.2257 43.8618 57.5514 44.5748 58.2953 45.2982C59.3172 46.2919 60.6244 45.9598 61.6818 46.7151C62.0395 46.9708 62.3607 47.8066 62.843 47.762C63.0336 47.7443 64.1679 47.6228 64.3081 47.8166C64.3827 47.9194 64.0628 48.6966 64.1661 48.9646C64.2972 49.304 64.743 49.6675 65.0866 49.7403C65.5247 49.835 66.078 49.895 66.5266 49.8946C66.9225 49.8955 66.8151 50.3236 67.2724 50.2936Z" fill="white" fill-opacity="0.7" shape-rendering="crispEdges"/>
<path d="M67.2724 50.2936C68.3876 50.1908 68.464 51.943 67.327 52.0144C67.0039 52.0349 66.3232 51.7428 66.0739 51.9007C65.5598 52.2333 65.3587 52.8007 64.7126 52.9422C63.9031 53.1205 63.9072 53.4399 63.4067 54.0373C62.9217 54.6152 62.8994 54.6225 63.3762 55.2704C63.6369 55.6357 63.753 56.4165 63.7739 56.8619C63.8039 57.544 62.8207 57.6404 63.1956 58.499C63.4777 59.1479 63.3134 58.8821 62.7402 59.1815C62.1801 59.4745 62.1591 60.2517 61.8552 60.7312C61.2473 61.6876 59.8618 62.1408 59.5734 63.3052C59.461 63.7611 59.9378 64.6023 59.486 64.9422C59.0447 65.2748 58.556 65.5993 58.0209 65.7603C57.5186 65.9114 56.8552 65.8759 56.4694 66.2858C55.8756 66.9183 55.9757 67.9475 55.6986 68.7183C55.4475 69.4294 55.1149 69.7061 54.6717 70.2898C54.1971 70.915 53.9287 71.6716 53.4091 72.2645C53.1561 72.5525 52.6288 73.4034 52.2998 73.5544C51.7388 73.8129 50.9116 73.0894 50.4598 73.7956C50.0858 74.3802 49.9092 74.7592 49.3828 75.2538C48.8623 75.7416 48.9524 76.4887 48.5629 77.0447C48.1966 77.567 47.5592 77.678 47.0796 78.0493C46.5341 78.4697 46.7611 79.0312 46.4918 79.5599C46.1132 80.3038 44.1044 79.7469 43.3978 79.8734C42.7986 79.9808 41.8722 79.9348 41.3439 80.2438C41.0277 80.429 40.206 81.151 39.988 80.7365C39.6882 80.1591 39.7214 79.771 39.822 79.155C39.8975 78.6872 40.0941 78.255 39.4607 78.2914C37.6612 78.396 36.5087 78.9589 35.404 80.3953C34.7874 81.1965 34.5968 81.8863 33.6686 82.4259C32.9206 82.8609 32.0848 83.2167 31.5542 83.9333C30.8267 84.9143 31.1101 88.0046 32.6125 88.2039C33.4102 88.3095 33.9097 88.9237 34.7824 88.8669C35.7566 88.8032 35.1878 89.796 34.8707 90.3542C34.4516 91.0927 34.0913 91.752 34.3902 92.6083C34.681 93.4423 35.1555 94.3177 35.7766 94.9524C36.2098 95.3942 36.7385 95.3101 37.3095 95.2241C38.4925 95.0457 37.5779 95.8756 37.7877 96.6432C38.2845 98.4623 40.4999 101.319 39.3533 103.216C39.1145 103.61 38.8856 103.444 38.7828 104.007C38.7109 104.405 38.3874 103.995 38.1066 104.076C38.1603 104.061 38.0552 102.474 37.471 102.504C36.6243 102.547 35.9408 103.137 35.1087 103.24C34.8056 103.278 34.2947 103.062 34.0781 103.352C33.8747 103.624 33.8397 104.087 33.892 104.412C33.3601 104.331 32.7709 104.352 32.2649 104.151C31.6907 103.922 31.4892 103.202 30.9081 102.978C30.2975 102.741 29.9495 103.318 29.4267 103.477C28.8138 103.664 27.75 103.105 27.1371 102.961C26.6798 102.854 26.1188 102.509 25.6388 102.689C25.1815 102.861 24.9572 103.67 25.0896 104.092C25.2248 104.517 25.0341 105.232 24.4608 105.017C24.1933 104.918 23.9376 105.023 23.6641 104.98C23.2969 104.921 23.1245 104.559 22.7696 104.481C21.456 104.19 21.6985 106.252 21.507 106.822C21.3537 107.278 20.5292 107.54 21.1735 108.082C21.3423 108.224 21.598 108.566 21.8159 108.616C22.0298 108.664 22.2004 108.395 22.3806 108.615C22.927 109.281 23.7747 109.747 23.9858 110.608C24.2224 111.577 25.3663 112.459 26.2062 112.928C27.2368 113.501 28.3001 114.139 29.4221 114.498C30.0127 114.685 30.631 114.555 31.2325 114.582C32.0734 114.621 31.3217 113.483 32.2681 113.835C32.7945 114.03 33.5835 114.049 34.0258 113.644C34.3438 113.353 34.6823 113.103 35.1401 113.427C35.3234 113.556 34.2292 114.472 34.1468 114.541C33.5512 115.046 32.9474 114.731 32.3223 115.096C31.8286 115.385 31.1361 115.432 30.7098 115.76C30.1469 116.193 29.7051 115.525 29.1719 115.841C28.9348 115.981 28.1936 116.48 27.9962 116.108C27.7154 115.578 27.72 115.174 27.0106 115.157C25.9655 115.135 25.3344 116.052 25.4268 117.028C25.556 118.331 26.936 119.428 27.7623 120.315C28.675 121.295 29.59 122.185 30.4317 123.229C31.3185 124.329 31.9082 125.617 32.9474 126.624C33.4461 127.107 34.1604 127.216 34.4489 127.882C34.772 128.627 35.5382 128.518 36.187 128.791C36.748 129.027 37.1593 129.767 37.8523 129.31C38.0566 129.176 38.3528 128.824 38.6335 128.861C39.0699 128.917 39.2951 129 39.7428 128.841C40.2683 128.656 41.181 128.663 41.596 128.301C42.1943 127.782 42.5492 127.635 43.2977 127.527C43.9229 127.436 44.1453 127.304 44.4848 126.847C44.8538 126.351 45.8388 126.674 46.2051 126C46.3653 125.707 46.3948 125.375 46.5723 125.082C46.8198 124.674 47.2348 124.472 47.4955 124.099C47.9296 123.479 47.4878 122.91 47.1984 122.373C47.0851 122.162 47.3412 122.079 47.4618 121.986C47.7885 121.735 47.5674 121.369 47.4504 121.064C47.1784 120.359 47.2653 119.512 48.0237 119.109C47.854 119.2 47.92 120.177 47.925 120.343C47.9473 121.248 48.3286 120.779 48.9019 120.904C49.0839 120.943 48.0419 121.733 48.0397 121.921C48.026 122.853 48.6803 122.858 49.295 122.952C49.0302 122.909 48.8709 123.524 48.875 123.725C48.8864 124.155 48.8791 124.088 48.5816 124.307C48.1575 124.62 48.1002 125.03 48.1712 125.523C48.2663 126.17 48.6871 126.168 48.946 126.645C49.1216 126.967 48.6707 127.17 49.0593 127.585C49.5648 128.126 49.3346 128.533 49.5962 129.154C49.7418 129.504 49.8665 129.755 49.856 130.146C49.8396 130.771 48.9183 131.026 48.8282 131.686C48.7149 132.498 48.7718 133.438 48.2558 134.145C47.485 135.205 48.9861 135.717 48.6057 136.63C48.3441 137.257 48.7276 137.342 48.8673 137.879C48.9842 138.329 48.7426 138.916 48.7563 139.391C48.7754 140.002 49.1016 140.525 49.1389 141.083C49.1885 141.841 48.6662 141.909 49.2358 142.6C49.5348 142.962 49.0766 143.289 48.9961 143.628C48.9032 144.018 49.4542 144.475 49.7518 144.64C50.2014 144.891 49.6331 145.432 49.8765 145.847C50.1154 146.257 50.533 146.238 50.5967 146.741C50.7005 147.565 51.2333 148.175 51.2738 149.099C51.2815 149.273 50.983 150.114 51.0954 150.203C51.7042 150.686 51.4107 150.688 51.5814 151.417C51.6774 151.488 51.7656 151.569 51.8453 151.659C51.8958 151.931 51.7042 152.347 51.7169 152.639C51.7429 153.268 51.8744 153.886 51.9272 154.513C52.0509 155.98 52.1032 156.972 52.7785 158.29C53.0314 158.782 53.0505 159.358 53.3031 159.862C53.4123 160.079 53.769 161.14 53.9683 161.194C54.3009 161.284 54.345 161.92 54.4278 162.221C54.4874 162.438 54.4774 162.834 54.7286 162.952C54.9033 163.035 55.2791 162.936 55.4115 163.083C55.2868 162.943 54.1689 163.537 55.2013 164.153C55.8879 164.564 55.7496 165.558 56.2337 166.148C56.4703 166.438 56.8206 166.235 56.8716 166.651C56.8898 166.801 56.7883 167.43 56.9576 167.504C57.1906 167.608 57.8799 167.574 57.8908 167.939C57.9013 168.3 57.6588 168.507 57.9295 168.859C58.4172 169.489 58.8536 169.99 58.9919 170.871C58.9159 171.01 58.8517 171.153 58.7981 171.303C58.7971 171.613 59.0183 171.909 59.1775 172.153C59.4951 172.645 59.5361 173.105 59.7718 173.618C59.9883 174.093 60.2418 174.358 60.2227 174.912C60.2017 175.516 60.2372 176.074 60.3077 176.678C60.3824 177.324 60.3414 178.043 60.4811 178.673C60.5566 179.014 60.9893 179.113 61.109 179.43C61.2751 179.88 60.927 180.363 61.4175 180.625C61.6304 180.739 61.7692 181.297 61.8279 181.494C62.0809 182.332 62.3352 183.197 62.6946 183.995C62.8566 184.353 63.0368 184.698 63.3266 184.972C63.6201 185.249 64.1725 185.147 64.3699 185.452C64.8272 186.148 65.3555 186.714 65.9115 187.315C66.179 187.605 66.1226 188.164 66.3141 188.512C66.568 188.974 66.6631 189.243 67.0094 189.66C67.3506 190.073 67.1368 190.597 67.4785 190.98C67.8352 191.378 67.8648 191.82 67.913 192.333C67.953 192.74 68.2838 192.902 68.3416 193.282C68.3998 193.656 68.242 194.231 68.4481 194.567C68.6342 194.865 68.7821 195.486 69.1288 195.654C69.4837 195.824 69.2293 196.53 69.4441 196.612C69.5742 196.661 69.6657 196.403 69.7871 196.401C69.9423 196.399 70.0624 196.801 70.1411 196.898C70.1056 196.854 71.2331 198.169 70.8486 198.099C70.4018 198.018 70.279 197.283 69.7871 197.273C69.3353 197.265 69.7507 198.345 69.8722 198.592C70.41 199.677 70.4783 200.711 70.719 201.908C70.8264 202.436 71.2263 202.694 71.3391 203.143C71.4829 203.718 71.0498 204.258 71.6171 204.702C72.0717 205.057 72.0803 205.573 72.2787 206.065C72.5462 206.731 73.3657 206.924 73.807 207.466C74.1446 207.882 74.53 208.614 75.1666 208.491C75.7803 208.373 75.5292 208.917 75.8031 209.348C76.5193 210.482 77.5498 209.971 78.3447 210.865C79.4549 212.13 80.0428 211.071 80.8895 210.325C81.6698 209.637 82.6827 209.213 83.6805 208.961C84.3843 208.785 84.4389 207.062 84.3575 206.485C84.307 206.126 84.2865 205.531 84.418 205.191C84.5463 204.859 85.4518 204.14 85.8171 204.246C86.657 204.486 86.9073 204.154 87.6389 203.956C88.1567 203.821 88.6813 203.908 89.1987 203.778C89.4785 203.709 90.3548 203.733 90.4808 203.466C90.5586 203.304 90.9399 203.168 90.732 202.962C90.4827 202.711 90.3371 202.462 90.04 202.226C88.8183 201.255 89.8279 200.29 90.5605 199.408C90.9304 198.961 91.3326 198.452 91.8158 198.125C92.0169 197.988 91.2184 197.522 91.6338 197.01C91.9801 196.582 92.3491 196.281 92.9032 196.494C93.6285 196.773 94.0062 196.795 94.7819 196.685C95.1664 196.627 96.1674 196.517 96.3735 196.122C96.4964 195.884 96.242 195.812 96.1101 195.694C95.883 195.492 95.944 195.031 95.9385 194.766C95.9281 194.293 96.091 193.604 95.9144 193.176C95.7065 192.684 95.5732 192.03 95.7033 191.503C95.8594 190.874 95.8712 190.313 95.5663 189.725C95.3411 189.291 94.9084 188.672 95.3984 188.294C96.0946 187.763 95.175 187.497 95.2774 186.975C95.3866 186.453 95.6014 185.948 95.7624 185.442C95.9877 184.737 96.0031 184.589 96.5974 184.106C96.7566 183.978 97.8632 183.007 97.8613 182.775C97.8577 182.371 96.9991 182.03 97.006 181.68C97.0096 181.486 98.1716 181.137 98.3791 180.934C98.7427 180.581 98.8746 179.862 99.1758 179.431C99.6035 178.828 99.4029 178.135 99.3542 177.418C99.3073 176.736 99.0475 176.192 98.4328 175.846C98.2058 175.718 97.5096 175.466 97.6257 175.099C97.9114 174.204 99.4425 176.414 98.916 174.77C98.6667 173.989 98.3859 173.193 98.0311 172.453C97.8163 172.006 97.2275 171.314 97.6552 170.808C98.0829 170.302 98.4901 170.248 98.3687 169.575C98.1675 168.475 97.5843 167.536 97.3554 166.426C97.101 165.203 97.39 164.455 98.133 163.551C98.3823 163.252 98.7563 162.418 98.7945 162.034C98.8187 161.786 99.4679 161.476 99.6413 161.367C100.026 161.132 100.367 161.087 100.795 161.009C101.636 160.856 101.548 161.591 102.099 161.932C102.829 162.386 103.688 160.669 103.98 160.231C104.203 159.895 104.304 159.412 104.738 159.288C104.844 159.258 105.136 157.734 105.209 157.492C105.377 156.929 106.333 157.202 106.633 157.486C107.161 157.989 107.639 158.02 108.385 157.746C108.979 157.529 109.578 157.173 110.186 156.927C110.971 156.611 111.376 156.372 112.025 155.85C112.384 155.56 112.167 154.334 112.109 153.927C112.06 153.602 111.726 153.387 111.675 153.044C111.584 152.409 112.145 152.559 112.524 152.313C112.848 152.104 113.191 151.925 113.515 151.712C113.864 151.482 114.071 151.063 114.429 150.874C115.122 150.516 115.896 150.571 116.59 150.144C117.273 149.723 118.395 148.997 118.445 148.107C118.507 147.038 118.656 146.443 119.65 145.904C120.54 145.422 121.633 145.221 122.456 144.641C123.351 144.011 123.767 142.824 124.449 142C124.775 141.607 125.045 141.165 125.476 140.874C125.831 140.635 126.25 140.391 126.202 139.894C126.103 138.871 127.173 138.885 127.469 137.951C127.669 137.322 128.531 137.106 129.011 136.661C129.142 136.538 129.439 136.498 129.513 136.42C129.576 136.354 130 135.353 129.915 135.329C130.197 135.412 130.353 135.686 130.688 135.679C130.989 135.673 131.223 135.424 131.508 135.355C132.009 135.234 132.322 134.738 132.8 134.537C133.976 134.043 135.562 133.763 136.416 132.739C137.259 131.728 138.825 130.942 138.453 129.371C138.375 129.04 139.061 128.636 139.25 128.413C139.681 127.905 139.762 127.128 139.688 126.487C139.601 125.754 138.94 125.609 138.595 125.024C138.304 124.528 139.023 123.827 139.35 123.503C139.856 123.002 140.798 123.282 141.233 122.764C141.576 122.355 142.521 122.481 143.037 122.386C143.465 122.307 143.988 122.362 144.092 121.862C144.215 121.271 144.223 121.271 144.822 121.069C145.186 120.945 144.85 119.812 145.243 119.812C145.605 119.812 145.469 120.961 145.602 121.201C145.671 121.322 146.824 120.95 147.017 120.95C147.703 120.95 147.904 120.687 148.247 120.112C148.557 119.595 150.341 120.959 150.787 119.861C151.221 118.796 151.132 117.896 150.491 116.953C150.322 116.705 150.133 115.98 150.114 115.673C150.079 115.152 150.001 115.031 149.698 114.48C149.423 113.979 149.795 113.436 149.714 112.905C149.592 112.093 149.409 112.007 149.877 111.283C150.223 110.745 149.674 110.104 149.166 109.95C148.574 109.768 148.498 110.02 148.555 109.189C148.603 108.473 148.402 108.057 147.807 107.653C147.166 107.219 147.119 106.728 147.622 106.166C148.113 105.614 148.042 105.295 148.002 104.622C147.973 104.116 148.203 103.458 148.027 102.961C147.68 101.989 145.907 102.909 145.275 102.378C144.741 101.929 143.591 100.224 144.845 100.063C145.571 99.9688 145.739 99.3768 145.805 98.7344C145.881 98.0023 146.111 98.177 146.591 97.8571C147.221 97.4376 149.437 97.9909 149.128 96.5413C148.969 95.7728 149.042 95.5995 148.26 95.3847C147.644 95.215 148.033 94.4151 147.457 94.184C147.045 94.0183 146.284 94.6904 146.011 94.2395C145.708 93.7449 145.24 93.5693 144.935 93.1225C144.75 92.8513 144.411 92.8404 144.121 92.7357C143.558 92.5328 144.137 91.6956 144.156 91.4217C144.208 90.62 144.928 90.5572 145.332 89.9789C145.639 89.5403 146.06 90.7515 146.21 90.9612C146.492 91.358 147.126 91.8971 147.596 91.5159C147.923 91.251 147.62 90.5531 147.933 90.3929C148.46 90.1249 149.279 91.0604 149.585 91.3598C149.97 91.7365 150.264 91.7379 150.685 91.9836C151.31 92.3503 151.863 91.9809 152.393 91.565C153.115 90.9917 152.857 92.1601 152.678 92.4641C152.318 93.0906 152.614 93.4819 153.108 93.8186C153.193 93.8764 152.678 95.3119 152.633 95.6222C152.533 96.2901 153.039 96.5063 153.602 96.6823C154.066 96.8279 154.783 97.0345 155.254 97.0641C155.91 97.1055 156.307 97.1264 156.958 97.3539C157.972 97.7079 158.392 96.6428 159.297 96.8985C160.179 97.1464 160.432 96.8825 161.254 96.7278C161.926 96.6014 162.591 96.9913 163.303 96.8916C164.107 96.7783 164.574 97.1819 165.378 96.8066C166.036 96.4985 166.879 96.4039 167.439 96.9954C167.277 97.1469 167.132 97.3134 167.005 97.495C166.893 97.8198 167.213 97.9823 167.211 98.2844C167.21 98.551 167.056 98.652 166.957 98.8795C166.836 99.1616 166.943 99.5288 166.854 99.8305C166.775 100.095 166.411 100.195 166.163 100.229C165.498 100.32 165.8 101.127 165.758 101.583C164.589 101.11 163.919 102.484 163.002 102.847C161.892 103.287 161.569 104.715 161.471 105.805C161.341 107.251 162.742 108.254 162.528 109.58C162.493 109.795 162.373 111.409 162.931 111.138C163.498 110.868 163.548 111.277 163.963 110.646C163.52 111.318 165.033 111.911 165.522 111.623C165.796 111.461 166.348 111.202 166.523 110.947C166.707 110.68 166.535 110.133 166.537 109.816C166.539 109.339 166.44 108.758 166.674 108.32C166.846 108.001 167.135 107.765 167.178 107.384C167.214 107.067 167.143 106.789 167.311 106.496C167.807 105.628 167.673 106.524 168.018 106.725C168.781 107.167 168.494 107.403 168.516 108.205C168.534 108.773 169.105 108.963 169.355 109.423C169.559 109.8 169.221 110.658 169.055 111.012C168.745 111.679 169.332 111.944 169.708 112.397C170.295 113.102 170.007 113.357 170.032 114.124C170.044 114.442 170.331 114.579 170.331 114.905C170.331 115.22 170.198 115.526 170.226 115.84C170.266 116.323 170.704 116.829 170.754 117.397C170.816 118.1 170.557 118.45 171.113 118.966C171.741 119.548 171.866 118.8 172.077 118.423C172.083 118.415 173.179 118.983 173.352 119.013C174.055 119.133 173.987 118.124 174.129 117.74C174.287 117.309 174.687 116.939 174.879 116.515C175.22 115.763 174.64 115.435 174.709 114.822C174.844 113.636 174.417 112.657 174.218 111.511C174.131 111.007 174.005 110.369 174.746 110.296C175.591 110.212 175.608 109.795 175.82 109.017C176.013 108.304 175.368 108.014 175.414 107.384C175.466 106.721 176.02 106.53 175.863 105.736C175.736 105.103 175.369 104.331 175.702 103.696C176.135 102.871 176.746 103.967 177.238 103.935C177.487 103.92 177.53 103.644 177.747 103.606C178.036 103.555 178.331 103.748 178.613 103.773C179.11 103.817 179.792 103.699 180.03 103.193C180.236 102.758 179.901 102.377 179.976 101.936C180.049 101.495 180.18 100.507 180.393 100.126C180.551 99.8441 180.916 99.8277 181.093 99.5657C181.29 99.2726 181.169 98.9146 181.245 98.5942C181.4 97.9536 181.999 97.5855 182.101 96.9035C182.195 96.2788 182.184 95.6399 182.264 95.0143C182.309 94.654 181.325 94.4447 181.271 93.9715C181.219 93.5046 182.222 92.7562 182.528 92.4718C182.988 92.0459 183.067 91.3885 183.413 90.8784C183.792 90.3178 183.647 89.5125 183.852 88.8855C184.125 88.0456 183.884 87.3681 183.625 86.5332C183.469 86.0286 182.998 85.1987 183.62 84.791C184.037 84.5166 184.577 84.6986 185.005 84.351C185.45 83.9902 185.722 83.4483 185.966 82.9442C186.295 82.2708 186.604 81.9127 187.168 81.4277C187.655 81.0091 187.769 80.3284 188.251 79.9071C188.668 79.5449 189.097 79.6004 189.517 79.2473C189.877 78.9438 190.173 79.2564 190.601 79.0362C191.37 78.6376 191.557 78.462 192.063 79.1481C192.456 79.6828 192.846 79.9025 193.513 79.9567C194.256 80.0167 194.278 79.9917 194.306 79.2587C194.34 78.3178 192.837 77.9774 192.584 76.9441C192.373 76.0806 192.823 76.1511 193.379 75.7912C193.833 75.4972 194.164 74.8762 194.555 74.4903C195.05 74.0008 195.212 73.7887 194.823 73.1959C194.711 73.0248 194.408 72.9333 194.354 72.7331C194.276 72.4451 194.761 72.1071 194.619 71.8468C194.548 71.7135 193.73 71.6425 193.524 71.5529C193.055 71.3468 192.603 71.2449 192.145 71.5424C191.619 71.8855 191.07 71.0419 190.595 70.8945C190.107 70.7434 189.348 71.3081 188.888 71.4446C188.162 71.6598 188.647 70.9127 188.865 70.6898C189.253 70.293 189.684 69.8799 189.963 69.3957C190.159 69.055 190.32 68.5399 189.754 68.4653C189.213 68.3947 189.316 67.6981 189.262 67.2577C189.213 66.8528 188.207 66.8864 188.19 67.361C188.181 67.6499 188.328 67.7145 188.033 67.877C187.863 67.973 187.437 67.9939 187.472 67.6722C187.551 67.0202 187.686 67.0075 188.216 66.4833C188.693 66.0119 188.524 65.3686 187.891 65.2958C187.291 65.2275 187.52 65.2889 187.182 64.8626C186.553 64.0641 186.197 64.2993 185.577 64.8044C185.043 65.2393 184.508 65.6898 184.037 66.1935C183.746 66.5061 183.673 67.4802 183.214 67.5398C182.424 67.6454 182.225 67.4069 181.563 67.0925C181.087 66.866 180.693 67.169 180.168 66.8687C179.823 66.6717 179.066 66.5247 179.031 66.0779C178.971 65.2575 178.302 66.4414 178.178 66.6048C177.809 67.0803 177.267 67.2313 176.813 67.5921C176.482 67.8538 176.59 68.5244 176.318 68.872C175.885 69.4226 175.487 69.8262 175.19 70.4545C175.017 70.8222 174.051 70.7876 173.722 70.8554C173.419 70.9182 173.37 71.3067 173.116 71.2708C172.641 71.2025 172.125 70.9523 171.671 71.2712C171.367 71.4865 171.185 72.2181 170.987 72.5452C170.823 72.8182 171.281 73.3788 170.956 73.6099C170.611 73.8492 170.002 73.7633 169.607 73.9571C169.31 74.1031 168.896 74.5208 168.715 74.7879C168.493 75.1164 167.959 75.2092 167.908 75.6005C167.861 75.9663 168.42 76.445 168.126 76.7394C167.833 77.0315 167.463 77.3131 167.104 77.5188C166.831 77.678 166.539 77.274 166.228 77.3049C165.519 77.3741 164.323 77.729 163.77 78.2391C163.313 78.6586 162.492 76.9045 161.916 77.6362C161.687 77.9247 162.044 78.5889 161.935 79.0057C161.836 79.4038 162.233 79.7606 162.212 80.1769C162.197 80.4931 164.203 80.631 164.566 80.7247C164.961 80.8271 165.499 81.1538 165.236 81.6452C164.912 82.2503 165.066 82.5888 165.028 83.2408C164.969 84.2937 163.66 83.2208 163.17 84.1249C163.004 84.4329 162.221 84.1595 161.932 84.3574C161.341 84.761 160.938 84.6013 160.259 84.6172C158.993 84.6468 158.108 85.7388 156.842 84.8256C155.955 84.1859 155.475 84.2823 154.556 84.9366C154.355 85.0799 154.104 85.3657 153.837 85.3193C153.595 85.2769 153.079 85.0972 152.902 85.3711C152.7 85.6878 153.062 86.2461 152.37 85.9631C152.072 85.8416 151.894 85.4858 151.898 85.4885C151.645 85.2997 151.2 85.5058 150.94 85.2951C150.81 85.1891 150.924 85.0381 150.71 84.8829C150.133 84.4702 149.449 85.5795 149.327 85.5276C148.948 85.3679 148.477 84.7232 148.072 84.4889C147.646 84.2414 147.408 83.8082 147.159 83.396C146.944 83.0406 147.76 82.5451 147.548 82.046C147.443 81.7962 147.214 81.6979 146.996 81.5783C146.773 81.4554 146.904 81.1501 146.7 80.9977C146.554 80.889 147.264 79.8179 147.243 79.5226C147.193 78.8032 147.237 78.6554 146.842 78.0288C146.194 77.0078 145.458 76.9664 144.713 77.8323C144.26 78.356 144.223 78.2295 143.567 78.2664C143.383 78.2768 142.592 78.326 142.495 78.4916C142.233 78.9352 142.292 79.2678 142.578 79.6072C143.132 80.2551 142.63 80.3753 142.329 80.9258C142.019 81.4818 141.984 81.9555 141.903 82.5806C141.835 83.1048 141.505 83.4861 141.452 84.0166C141.394 84.6281 142.055 85.3429 142.363 85.8188C142.706 86.3535 142.781 87.4118 142.651 88.0256C142.637 88.0897 142.635 89.1549 142.305 88.8346C141.991 88.5338 141.525 88.6353 141.172 88.7545C140.317 89.0425 139.388 89.1289 138.491 89.098C137.727 89.0712 137.265 88.3259 136.519 88.2171C136.031 88.1457 135.757 88.6248 135.346 88.7941C134.818 89.0093 134.063 88.8628 133.589 88.5779C133.204 88.3473 133.036 87.6616 132.496 87.733C132.199 87.7721 132.106 88.0615 131.793 88.021C131.462 87.9783 131.247 87.6784 130.939 87.5801C130.406 87.4104 130.12 88.006 129.637 87.4869C129.282 87.106 129.277 86.5819 128.679 86.4545C128.108 86.3325 127.96 86.9504 127.477 86.9936C126.831 87.0569 126.696 86.8476 126.208 86.4176C125.771 86.0336 123.736 85.8734 123.658 85.3566C123.547 84.6308 123.605 84.2227 123.173 83.5643C122.737 82.9005 122.306 83.2913 121.589 83.2194C121.152 83.1758 121.159 82.6371 120.861 82.4328C120.622 82.269 119.81 82.1839 119.514 82.258C118.895 82.4114 118.353 82.7504 117.822 83.0975C117.927 83.0252 116.878 82.6871 116.784 82.6921C116.488 82.7076 116.083 82.7822 115.918 83.0688C115.856 83.1789 115.847 83.4906 115.736 83.5648C115.794 83.5261 114.83 83.1189 114.666 83.1048C114.256 83.0693 113.444 83.1585 113.083 83.0192C112.738 82.8864 113.054 82.2335 112.953 81.9755C112.719 81.3794 111.832 81.4286 111.327 81.5719C110.986 81.6679 110.549 82.1998 110.241 81.6857C109.99 81.2666 109.278 80.899 108.828 80.7347C108.301 80.5413 107.972 80.3225 107.409 80.6223C106.528 81.0919 106.67 80.2237 106.045 79.9799C105.504 79.7697 104.911 79.832 104.774 79.134C104.727 78.8979 104.725 78.5858 104.526 78.4115C104.2 78.1271 104.088 78.4911 104.166 78.7455C103.073 78.3524 103.017 76.9892 101.752 76.8627C100.655 76.7521 99.9866 76.6866 99.4256 75.6874C98.7936 74.5677 98.8332 75.6315 98.3241 75.8203C97.9969 75.9409 96.4986 74.8625 96.2634 74.6396C95.8826 74.2779 95.9413 73.8925 96.4195 73.7496C96.9928 73.5794 96.7762 73.2232 96.8299 72.7791C96.8799 72.3523 97.2994 72.1908 97.3476 71.7221C97.405 71.1825 97.0273 70.7466 97.3267 70.2161C97.6038 69.7283 97.8741 69.666 97.9346 69.0499C97.9605 68.7888 98.0247 68.5117 98.2376 68.3447C98.5839 68.0726 98.7727 67.8101 98.9925 67.4461C99.2645 67.0015 99.8879 67.128 100.137 66.6203C100.406 66.0724 101.562 65.0678 100.762 64.667C100.229 64.3994 100.226 63.8976 99.8929 63.4749C99.4338 62.8975 99.2227 63.3056 98.608 63.2451C98.052 63.1909 98.2081 62.5885 97.6434 62.8816C97.2016 63.1095 97.1497 62.4197 97.096 62.1235C96.9746 61.4574 96.2734 60.3504 95.4317 60.5015C94.9626 60.5861 94.8015 60.0419 94.3752 59.9309C94.0303 59.8408 93.6667 59.8344 93.3137 59.8049C92.6448 59.7494 91.799 59.6197 91.7175 58.8002C91.6352 57.9826 91.3608 56.9652 90.4176 56.7259C89.6659 56.5353 89.1318 58.0499 89.2132 58.0768C88.851 57.958 88.7509 57.6368 88.6954 57.3024C88.6495 57.0257 88.3369 56.9261 88.3146 56.6663C88.2668 56.1135 89.494 55.8482 88.7873 55.1885C88.1058 54.5515 88.6991 53.8262 88.5985 53.0991C88.5621 52.8279 88.0944 52.5914 87.9524 52.3447C87.6803 51.8752 87.8573 51.9471 88.0166 51.634C88.1012 51.4702 87.1125 51.3629 87.0952 51.2141C87.0415 50.7477 87.1193 50.2413 87.097 49.764C87.077 49.3163 87.209 48.5105 87.8278 48.8431C88.5467 49.2312 88.3005 49.506 88.5917 50.2631C88.7614 50.7049 89.3684 51.3633 89.9016 51.1563C90.7279 50.8419 90.2907 50.7918 90.3735 50.1485C90.4253 49.7463 91.1743 49.9314 91.3017 49.526C91.414 49.1725 92.3409 49.3636 92.6389 49.2012C93.4661 48.7494 93.7764 48.2389 93.2845 47.3275C92.8027 46.433 91.3694 46.1673 92.1125 44.9351C92.7617 43.8577 91.0846 43.4441 90.2256 43.481C89.4348 43.5178 89.3625 43.3495 89.4507 42.4731C89.4821 42.1624 89.4871 41.8134 89.6264 41.5249C89.8038 41.16 90.2506 41.0435 90.424 40.7118C90.4777 40.6104 90.1487 40.0685 90.12 39.9597C89.9944 39.4902 89.6436 39.9725 89.3511 39.6795C89.0694 39.3983 89.0713 39.2154 89.3379 38.8759C89.8643 38.2094 90.4308 38.7362 91.1374 39.0152C91.3895 39.1143 92.3436 39.5511 92.3704 38.9501C92.3914 38.4642 92.9037 38.4032 93.0675 37.9464C93.2513 37.4313 93.3036 36.8985 93.4229 36.3744C93.487 36.0891 94.346 35.9617 94.5435 35.9098C95.2619 35.7219 94.4657 35.0612 94.928 34.7259C95.3211 34.4388 95.8061 34.7355 96.1524 34.442C96.6911 33.987 96.5127 33.7513 96.4813 33.1503C96.4536 32.6197 96.8362 32.0783 96.9072 31.5437C96.9764 31.0291 97.5688 30.7811 97.7576 30.3366C97.9118 29.9689 97.8909 29.0184 97.7626 28.6349C97.5861 28.103 96.7184 27.8181 96.3376 27.4906C95.6378 26.8909 95.676 26.5847 94.6541 26.5382C94.1517 26.5159 93.3519 26.243 92.9956 25.8762C92.7513 25.6246 92.6516 25.0331 92.1953 25.2583C91.5979 25.5527 91.1365 26.0305 90.4667 26.1993C90.1428 26.2812 88.8742 25.7998 88.8092 26.0355C88.5093 27.127 86.7153 26.3239 85.8995 26.8026C85.4286 27.0811 85.4786 27.7626 84.9849 28.0338C84.5345 28.2809 83.4921 28.5812 83.003 28.5835C82.7577 28.5853 82.5935 28.7172 82.4442 28.8842C82.3137 29.0316 81.9369 28.9106 81.7808 28.9042C81.1953 28.8787 81.3322 28.2918 81.173 27.8436C80.748 26.6415 79.9449 26.5451 78.7952 26.6898C77.4288 26.8613 77.3146 25.9245 76.9957 24.7606C76.8501 24.2287 76.6803 24.114 76.1598 23.9006C75.5751 23.6608 75.5319 22.8264 74.94 22.7176C74.3043 22.6012 73.8202 22.5138 73.2324 22.2199C72.6054 21.9064 72.8183 21.3617 72.3665 20.9932C71.608 20.379 71.1644 20.0268 70.6985 19.1582C70.4196 18.6299 70.4059 18.8165 69.9332 18.5612C69.5583 18.3592 69.9209 17.7382 69.5009 17.6007C68.7984 17.3719 68.9763 17.6977 68.3675 17.912C68.0145 18.0357 67.5499 17.4797 67.4152 17.9338C67.2637 18.4484 66.5476 18.0671 66.3951 17.815C66.1754 17.452 65.8773 17.1471 65.5238 17.5293C65.3091 17.7623 65.0752 18.1872 64.6953 18.1213C64.0883 18.0152 64.1716 17.4824 63.52 17.9415C63.2083 18.1618 62.4326 18.3397 62.2697 18.6231C61.9703 19.1423 61.3128 18.5239 60.9224 18.4862C60.1926 18.4152 60.8801 19.4385 60.138 19.6546C59.6876 19.7861 59.4046 19.5035 59.0124 19.357C58.3126 19.0959 57.6997 19.7465 57.0145 19.5304C56.044 19.2246 56.6346 21.0687 55.76 21.0055C55.4129 20.9805 55.0584 21.324 55.1554 21.688C55.3683 22.5024 54.6235 22.0452 54.1839 22.4856C53.7276 22.9429 53.6065 22.8287 53.0574 23.0489C52.6738 23.2022 52.9336 24.306 53.1051 24.554C53.5556 25.2197 52.8126 26.4095 54.2017 26.2493C54.7654 26.1843 55.5298 26.1096 56.0895 26.243C56.2696 26.2862 56.4626 26.4996 56.5595 26.6383C56.8616 27.0688 57.2897 27.3104 57.5787 27.7085C57.752 27.9465 57.8922 28.2822 58.0801 28.4934C58.6679 29.1554 58.8358 28.3368 59.2726 28.1953C59.3577 28.168 59.5533 29.8438 59.7663 29.9798C60.0675 30.1714 60.3196 30.5331 60.5766 30.7902C60.8433 31.0564 61.3984 30.873 61.7041 31.0627C61.983 31.2361 61.8565 31.702 61.6209 31.8226C61.1895 32.0446 61.2241 32.208 60.9748 32.5624C60.5452 33.1735 59.4906 32.7207 59.1375 33.5006C58.9919 33.8218 57.4335 34.7223 57.4376 34.7564C57.4818 35.0662 57.7366 35.2419 57.6833 35.6509C57.6374 36.0145 57.464 36.4549 57.7065 36.788C58.0296 37.2307 58.3212 37.0482 58.1238 37.7066C57.9731 38.2121 57.4604 38.0679 57.6078 38.6912C57.7447 39.2736 58.2452 39.2545 58.283 39.7846C58.329 40.4166 58.2589 41.0581 58.7175 41.5677C58.3745 41.1859 58.2603 42.9031 58.2552 43.0614C58.2257 43.8618 57.5514 44.5748 58.2953 45.2982C59.3172 46.2919 60.6244 45.9598 61.6818 46.7151C62.0395 46.9708 62.3607 47.8066 62.843 47.762C63.0336 47.7443 64.1679 47.6228 64.3081 47.8166C64.3827 47.9194 64.0628 48.6966 64.1661 48.9646C64.2972 49.304 64.743 49.6675 65.0866 49.7403C65.5247 49.835 66.078 49.895 66.5266 49.8946C66.9225 49.8955 66.8151 50.3236 67.2724 50.2936Z" stroke="url(#paint0_linear_2143_3854)" stroke-opacity="0.3" stroke-width="0.6" shape-rendering="crispEdges" mask="url(#path-1-inside-1_2143_3854)"/>
</g>
<defs>
<filter id="filter0_d_2143_3854" x="5.53131e-05" y="5.67436e-05" width="215.97" height="235.961" filterUnits="userSpaceOnUse" color-interpolation-filters="sRGB">
<feFlood flood-opacity="0" result="BackgroundImageFix"/>
<feColorMatrix in="SourceAlpha" type="matrix" values="0 0 0 0 0 0 0 0 0 0 0 0 0 0 0 0 0 0 127 0" result="hardAlpha"/>
<feOffset dy="3.57788"/>
<feGaussianBlur stdDeviation="10.4653"/>
<feComposite in2="hardAlpha" operator="out"/>
<feColorMatrix type="matrix" values="0 0 0 0 0.141176 0 0 0 0 0.372549 0 0 0 0 1 0 0 0 0.18 0"/>
<feBlend mode="normal" in2="BackgroundImageFix" result="effect1_dropShadow_2143_3854"/>
<feBlend mode="normal" in="SourceGraphic" in2="effect1_dropShadow_2143_3854" result="shape"/>
</filter>
<linearGradient id="paint0_linear_2143_3854" x1="107.985" y1="250.992" x2="93.4304" y2="38.0567" gradientUnits="userSpaceOnUse">
<stop stop-color="#124CEA" stop-opacity="0"/>
<stop offset="1" stop-color="#124CEA"/>
</linearGradient>
</defs>
</svg>
