<svg width="29" height="29" viewBox="0 0 29 29" fill="none" xmlns="http://www.w3.org/2000/svg">
<rect width="28.5371" height="28.5371" rx="14.2686" fill="white"/>
<path d="M7.51771 17.8537C6.97075 16.7598 6.64258 15.5565 6.64258 14.2985C6.64258 10.0869 10.0884 6.64111 14.3 6.64111V7.73503C10.6901 7.73503 7.73649 10.6886 7.73649 14.2985C7.73649 15.3924 8.00997 16.377 8.50223 17.3068L7.51771 17.8537ZM20.8635 14.2985C20.8635 17.9084 17.9099 20.862 14.3 20.862C12.7138 20.862 11.237 20.3151 10.0884 19.3305L13.2061 16.2129L12.4403 15.3924L8.8851 18.9477C8.66632 19.1664 8.66632 19.4946 8.8851 19.7134C10.3072 21.1355 12.2762 21.9559 14.3 21.9559C18.5116 21.9559 21.9574 18.5101 21.9574 14.2985H20.8635Z" fill="white"/>
<path d="M7.51771 17.8537C6.97075 16.7598 6.64258 15.5565 6.64258 14.2985C6.64258 10.0869 10.0884 6.64111 14.3 6.64111V7.73503C10.6901 7.73503 7.73649 10.6886 7.73649 14.2985C7.73649 15.3924 8.00997 16.377 8.50223 17.3068L7.51771 17.8537ZM20.8635 14.2985C20.8635 17.9084 17.9099 20.862 14.3 20.862C12.7138 20.862 11.237 20.3151 10.0884 19.3305L13.2061 16.2129L12.4403 15.3924L8.8851 18.9477C8.66632 19.1664 8.66632 19.4946 8.8851 19.7134C10.3072 21.1355 12.2762 21.9559 14.3 21.9559C18.5116 21.9559 21.9574 18.5101 21.9574 14.2985H20.8635Z" fill="url(#paint0_linear_534_28192)"/>
<path d="M15.3938 19.2173C15.3391 19.2173 15.2297 19.2173 15.175 19.1626C15.0109 19.1079 14.8468 18.9438 14.8468 18.725L14.4639 15.9903L15.5579 15.8262L15.7766 17.6311L16.9799 16.7013V13.7477C16.9799 13.5836 17.0346 13.4743 17.144 13.3649L18.8943 11.6146C19.3866 11.1223 19.7147 10.4113 19.7147 9.70025V8.82512H18.8943C18.1833 8.82512 17.4722 9.0986 16.9799 9.64555L15.2297 11.3958C15.1203 11.5052 15.0109 11.5599 14.8468 11.5599H11.8385L10.9087 12.7632L12.7137 12.982L12.5496 14.0759L9.8148 13.693C9.59602 13.693 9.43193 13.529 9.37724 13.3649C9.32254 13.2008 9.32254 12.982 9.43193 12.8179L11.0728 10.6301C11.2369 10.5207 11.401 10.466 11.5651 10.466H14.628L16.2689 8.82512C16.9799 8.11407 17.9645 7.7312 18.949 7.7312H19.7694C20.3711 7.7312 20.8633 8.22346 20.8633 8.82512V9.64555C20.8633 10.6848 20.4805 11.6146 19.7694 12.3256L18.1286 13.9665V17.0295C18.1286 17.1936 18.0739 17.3577 17.9098 17.467L15.7219 19.1079C15.6126 19.1626 15.5032 19.2173 15.3938 19.2173Z" fill="white"/>
<path d="M15.3938 19.2173C15.3391 19.2173 15.2297 19.2173 15.175 19.1626C15.0109 19.1079 14.8468 18.9438 14.8468 18.725L14.4639 15.9903L15.5579 15.8262L15.7766 17.6311L16.9799 16.7013V13.7477C16.9799 13.5836 17.0346 13.4743 17.144 13.3649L18.8943 11.6146C19.3866 11.1223 19.7147 10.4113 19.7147 9.70025V8.82512H18.8943C18.1833 8.82512 17.4722 9.0986 16.9799 9.64555L15.2297 11.3958C15.1203 11.5052 15.0109 11.5599 14.8468 11.5599H11.8385L10.9087 12.7632L12.7137 12.982L12.5496 14.0759L9.8148 13.693C9.59602 13.693 9.43193 13.529 9.37724 13.3649C9.32254 13.2008 9.32254 12.982 9.43193 12.8179L11.0728 10.6301C11.2369 10.5207 11.401 10.466 11.5651 10.466H14.628L16.2689 8.82512C16.9799 8.11407 17.9645 7.7312 18.949 7.7312H19.7694C20.3711 7.7312 20.8633 8.22346 20.8633 8.82512V9.64555C20.8633 10.6848 20.4805 11.6146 19.7694 12.3256L18.1286 13.9665V17.0295C18.1286 17.1936 18.0739 17.3577 17.9098 17.467L15.7219 19.1079C15.6126 19.1626 15.5032 19.2173 15.3938 19.2173Z" fill="url(#paint1_linear_534_28192)"/>
<defs>
<linearGradient id="paint0_linear_534_28192" x1="14.3" y1="6.64111" x2="14.3" y2="21.9559" gradientUnits="userSpaceOnUse">
<stop stop-color="#245FFF"/>
<stop offset="1" stop-color="#245FFF" stop-opacity="0.88"/>
</linearGradient>
<linearGradient id="paint1_linear_534_28192" x1="15.1023" y1="7.7312" x2="15.1023" y2="19.2173" gradientUnits="userSpaceOnUse">
<stop stop-color="#245FFF"/>
<stop offset="1" stop-color="#245FFF" stop-opacity="0.88"/>
</linearGradient>
</defs>
</svg>
