<svg width="302" height="313" viewBox="0 0 302 313" fill="none" xmlns="http://www.w3.org/2000/svg">
<path d="M0.285645 312.269V-78H390.554M35.7127 -78V312.269M71.1397 -78V312.269M106.567 -78V312.269M141.994 -78V312.269M177.421 -78V312.269M212.848 -78V312.269M248.275 -78V312.269M283.702 -78V312.269M319.129 -78V312.269M354.556 -78V312.269M389.983 -78V312.269M390.554 -42.573H0.285645M390.554 -7.14597H0.285645M390.554 28.281H0.285645M390.554 63.7081H0.285645M390.554 99.1351H0.285645M390.554 134.562H0.285645M390.554 169.989H0.285645M390.554 205.416H0.285645M390.554 240.843H0.285645M390.554 276.27H0.285645M390.554 311.697H0.285645" stroke="url(#paint0_radial_4006_4453)" stroke-opacity="0.4" stroke-width="0.571403"/>
<defs>
<radialGradient id="paint0_radial_4006_4453" cx="0" cy="0" r="1" gradientUnits="userSpaceOnUse" gradientTransform="translate(195.42 117.134) rotate(90) scale(195.134 215.114)">
<stop stop-color="#AB93EA"/>
<stop offset="0.850962" stop-color="#AB93EA" stop-opacity="0"/>
</radialGradient>
</defs>
</svg>
