<svg width="29" height="29" viewBox="0 0 29 29" fill="none" xmlns="http://www.w3.org/2000/svg">
<rect width="28.5371" height="28.5371" rx="14.2686" fill="white"/>
<path fill-rule="evenodd" clip-rule="evenodd" d="M14.3006 17.9449C11.9888 17.9449 10.1073 16.0634 10.1073 13.7516V10.8345C10.1073 8.52265 11.9888 6.64111 14.3006 6.64111C14.5996 6.64111 14.8476 6.88907 14.8476 7.18807C14.8476 7.48707 14.5996 7.73503 14.3006 7.73503C13.4792 7.73695 12.6919 8.06412 12.1111 8.64496C11.5303 9.2258 11.2031 10.013 11.2012 10.8345V13.7516C11.2031 14.573 11.5303 15.3602 12.1111 15.9411C12.6919 16.5219 13.4792 16.8491 14.3006 16.851C15.122 16.8491 15.9093 16.5219 16.4901 15.9411C17.0709 15.3602 17.3981 14.573 17.4 13.7516C17.4 13.4526 17.648 13.2046 17.947 13.2046C18.246 13.2046 18.4939 13.4526 18.4939 13.7516C18.4939 16.0634 16.6124 17.9449 14.3006 17.9449ZM14.3006 22.3206C14.0016 22.3206 13.7536 22.0726 13.7536 21.7736V20.1109C10.4865 19.8337 7.91943 17.0844 7.91943 13.7516C7.91943 13.4526 8.16739 13.2046 8.46639 13.2046C8.76539 13.2046 9.01335 13.4526 9.01335 13.7516C9.01335 16.6687 11.3835 19.0388 14.3006 19.0388C17.2177 19.0388 19.5879 16.6687 19.5879 13.7516C19.5879 13.4526 19.8358 13.2046 20.1348 13.2046C20.4338 13.2046 20.6818 13.4526 20.6818 13.7516C20.6818 17.0844 18.1147 19.8337 14.8476 20.1109V21.7736C14.8476 22.0726 14.5996 22.3206 14.3006 22.3206ZM17.1448 11.3887C17.1958 11.7971 17.5386 12.1107 17.947 12.1107C18.3554 12.1107 18.6981 11.8044 18.7492 11.3887C18.8294 10.7542 19.3253 10.2583 19.9598 10.1781C20.3682 10.1271 20.6818 9.7843 20.6818 9.3759C20.6818 8.96751 20.3682 8.62475 19.9598 8.5737C19.652 8.53547 19.3658 8.39563 19.1465 8.17634C18.9273 7.95705 18.7874 7.67085 18.7492 7.3631C18.7261 7.16578 18.632 6.98363 18.4843 6.85074C18.3367 6.71784 18.1456 6.64332 17.947 6.64111C17.5386 6.64111 17.1958 6.94741 17.1448 7.3631C17.1066 7.67085 16.9667 7.95705 16.7474 8.17634C16.5281 8.39563 16.2419 8.53547 15.9342 8.5737C15.5258 8.62475 15.2122 8.96751 15.2122 9.3759C15.2122 9.7843 15.5258 10.1271 15.9342 10.1781C16.5687 10.2583 17.0646 10.7542 17.1448 11.3887ZM17.947 10.3677C17.7209 9.95203 17.3709 9.60198 16.9552 9.3759C17.3709 9.14983 17.7209 8.79977 17.947 8.38409C18.1731 8.79977 18.5231 9.14983 18.9388 9.3759C18.5231 9.60198 18.1731 9.95203 17.947 10.3677Z" fill="white"/>
<path fill-rule="evenodd" clip-rule="evenodd" d="M14.3006 17.9449C11.9888 17.9449 10.1073 16.0634 10.1073 13.7516V10.8345C10.1073 8.52265 11.9888 6.64111 14.3006 6.64111C14.5996 6.64111 14.8476 6.88907 14.8476 7.18807C14.8476 7.48707 14.5996 7.73503 14.3006 7.73503C13.4792 7.73695 12.6919 8.06412 12.1111 8.64496C11.5303 9.2258 11.2031 10.013 11.2012 10.8345V13.7516C11.2031 14.573 11.5303 15.3602 12.1111 15.9411C12.6919 16.5219 13.4792 16.8491 14.3006 16.851C15.122 16.8491 15.9093 16.5219 16.4901 15.9411C17.0709 15.3602 17.3981 14.573 17.4 13.7516C17.4 13.4526 17.648 13.2046 17.947 13.2046C18.246 13.2046 18.4939 13.4526 18.4939 13.7516C18.4939 16.0634 16.6124 17.9449 14.3006 17.9449ZM14.3006 22.3206C14.0016 22.3206 13.7536 22.0726 13.7536 21.7736V20.1109C10.4865 19.8337 7.91943 17.0844 7.91943 13.7516C7.91943 13.4526 8.16739 13.2046 8.46639 13.2046C8.76539 13.2046 9.01335 13.4526 9.01335 13.7516C9.01335 16.6687 11.3835 19.0388 14.3006 19.0388C17.2177 19.0388 19.5879 16.6687 19.5879 13.7516C19.5879 13.4526 19.8358 13.2046 20.1348 13.2046C20.4338 13.2046 20.6818 13.4526 20.6818 13.7516C20.6818 17.0844 18.1147 19.8337 14.8476 20.1109V21.7736C14.8476 22.0726 14.5996 22.3206 14.3006 22.3206ZM17.1448 11.3887C17.1958 11.7971 17.5386 12.1107 17.947 12.1107C18.3554 12.1107 18.6981 11.8044 18.7492 11.3887C18.8294 10.7542 19.3253 10.2583 19.9598 10.1781C20.3682 10.1271 20.6818 9.7843 20.6818 9.3759C20.6818 8.96751 20.3682 8.62475 19.9598 8.5737C19.652 8.53547 19.3658 8.39563 19.1465 8.17634C18.9273 7.95705 18.7874 7.67085 18.7492 7.3631C18.7261 7.16578 18.632 6.98363 18.4843 6.85074C18.3367 6.71784 18.1456 6.64332 17.947 6.64111C17.5386 6.64111 17.1958 6.94741 17.1448 7.3631C17.1066 7.67085 16.9667 7.95705 16.7474 8.17634C16.5281 8.39563 16.2419 8.53547 15.9342 8.5737C15.5258 8.62475 15.2122 8.96751 15.2122 9.3759C15.2122 9.7843 15.5258 10.1271 15.9342 10.1781C16.5687 10.2583 17.0646 10.7542 17.1448 11.3887ZM17.947 10.3677C17.7209 9.95203 17.3709 9.60198 16.9552 9.3759C17.3709 9.14983 17.7209 8.79977 17.947 8.38409C18.1731 8.79977 18.5231 9.14983 18.9388 9.3759C18.5231 9.60198 18.1731 9.95203 17.947 10.3677Z" fill="url(#paint0_linear_534_28198)"/>
<defs>
<linearGradient id="paint0_linear_534_28198" x1="14.3006" y1="6.64111" x2="14.3006" y2="22.3206" gradientUnits="userSpaceOnUse">
<stop stop-color="#245FFF"/>
<stop offset="1" stop-color="#245FFF" stop-opacity="0.88"/>
</linearGradient>
</defs>
</svg>
