<svg width="625" height="507" viewBox="0 0 625 507" fill="none" xmlns="http://www.w3.org/2000/svg">
<path opacity="0.3" d="M-22.3255 0V506.799M0.806805 0V506.799M23.9392 0V506.799M47.0715 0V506.799M70.2039 0V506.799M93.3362 0V506.799M116.469 0V506.799M139.601 0V506.799M162.733 0V506.799M185.866 0V506.799M208.998 0V506.799M232.13 0V506.799M255.263 0V506.799M278.395 0V506.799M301.527 0V506.799M324.66 0V506.799M347.792 0V506.799M370.924 0V506.799M394.057 0V506.799M417.189 0V506.799M440.321 0V506.799M463.454 0V506.799M486.586 0V506.799M509.719 0V506.799M-137.574 434.183H624.141M-137.574 413.003H624.141M-137.574 391.823H624.141M-137.574 370.644H624.141M-137.574 349.464H624.141M-137.574 328.284H624.141M-137.574 307.105H624.141M-137.574 285.925H624.141M-137.574 264.746H624.141M-137.574 243.566H624.141M-137.574 222.386H624.141M-137.574 201.207H624.141M-137.574 180.027H624.141M-137.574 158.847H624.141M-137.574 137.668H624.141M-137.574 116.488H624.141M-137.574 95.3084H624.141M-137.574 74.1288H624.141" stroke="url(#paint0_radial_826_11024)" stroke-width="1.51283"/>
<defs>
<radialGradient id="paint0_radial_826_11024" cx="0" cy="0" r="1" gradientUnits="userSpaceOnUse" gradientTransform="translate(243.283 253.399) rotate(0.162318) scale(178.544 268.35)">
<stop stop-color="#245FFF" stop-opacity="0.88"/>
<stop offset="1" stop-color="#245FFF" stop-opacity="0"/>
</radialGradient>
</defs>
</svg>
