<svg width="38" height="38" viewBox="0 0 38 38" fill="none" xmlns="http://www.w3.org/2000/svg">
<path d="M18.8104 7.05405C18.8104 4.88969 17.0559 3.13513 14.8915 3.13513C12.7272 3.13513 10.9726 4.88969 10.9726 7.05405C8.37538 7.05405 6.2699 9.15953 6.2699 11.7568C6.2699 12.6482 6.51792 13.4817 6.94872 14.192C4.77643 14.6075 3.13477 16.5175 3.13477 18.8108C3.13477 21.1042 4.77643 23.0141 6.94872 23.4297C6.51792 24.1399 6.2699 24.9734 6.2699 25.8649C6.2699 28.4622 8.37538 30.5676 10.9726 30.5676C10.9726 32.7319 12.7272 34.4865 14.8915 34.4865C17.0559 34.4865 18.8104 32.7319 18.8104 30.5676" stroke="#245FFF" stroke-width="2.35135" stroke-linecap="round" stroke-linejoin="round"/>
<path d="M18.8105 30.5676C18.8105 32.7319 20.5651 34.4865 22.7295 34.4865C24.8938 34.4865 26.6484 32.7319 26.6484 30.5676C29.2457 30.5676 31.3511 28.4622 31.3511 25.8649C31.3511 24.9734 31.1031 24.1399 30.6723 23.4297C32.8445 23.0141 34.4862 21.1042 34.4862 18.8108C34.4862 16.5175 32.8445 14.6075 30.6723 14.192C31.1031 13.4817 31.3511 12.6482 31.3511 11.7568C31.3511 9.15953 29.2457 7.05405 26.6484 7.05405C26.6484 4.88969 24.8938 3.13513 22.7295 3.13513C20.5651 3.13513 18.8105 4.88969 18.8105 7.05405" stroke="#245FFF" stroke-width="2.35135" stroke-linecap="round" stroke-linejoin="round"/>
<path d="M16.4388 10.973V14.0753M10.9727 16.4601H14.1893M23.5494 16.4601H26.7659M23.5494 21.1209H26.7659M10.9727 21.1209H14.1893M16.4388 23.5437V26.646M21.1814 23.5437V26.646M21.1645 10.973V14.0753M15.7569 23.4627H21.9818C22.8474 23.4627 23.5494 22.7609 23.5494 21.8951V15.6428C23.5494 14.7771 22.8474 14.0753 21.9818 14.0753H15.7569C14.8911 14.0753 14.1893 14.7771 14.1893 15.6428V21.8951C14.1893 22.7609 14.8911 23.4627 15.7569 23.4627Z" stroke="#245FFF" stroke-width="2.35135" stroke-linecap="round"/>
</svg>
