<svg width="38" height="38" viewBox="0 0 38 38" fill="none" xmlns="http://www.w3.org/2000/svg">
<path d="M21.8299 20.0296L18.4623 16.662C18.0033 16.203 17.7738 15.9735 17.5262 15.8508C17.0551 15.6173 16.5021 15.6173 16.0309 15.8508C15.7833 15.9735 15.5538 16.203 15.0948 16.662C14.6357 17.1211 14.4062 17.3506 14.2835 17.5981C14.05 18.0693 14.05 18.6224 14.2835 19.0934C14.4062 19.3411 14.6357 19.5706 15.0948 20.0296L18.4623 23.3972M21.8299 20.0296L31.9329 30.1325C32.3919 30.5915 32.6214 30.821 32.7441 31.0687C32.9775 31.5398 32.9775 32.0928 32.7441 32.564C32.6214 32.8115 32.3919 33.041 31.9329 33.5002C31.4738 33.9591 31.2443 34.1886 30.9967 34.3114C30.5255 34.5448 29.9725 34.5448 29.5014 34.3114C29.2538 34.1886 29.0243 33.9591 28.5653 33.5002L18.4623 23.3972M21.8299 20.0296L18.4623 23.3972" stroke="#245FFF" stroke-width="2.35135" stroke-linecap="round" stroke-linejoin="round"/>
<path d="M26.6482 3.13513L27.1103 4.38386C27.7162 6.02129 28.0192 6.84 28.6164 7.43724C29.2137 8.03449 30.0323 8.33743 31.6697 8.94333L32.9185 9.4054L31.6697 9.86747C30.0323 10.4734 29.2137 10.7763 28.6164 11.3736C28.0192 11.9708 27.7162 12.7895 27.1103 14.4269L26.6482 15.6757L26.1861 14.4269C25.5802 12.7895 25.2772 11.9708 24.68 11.3736C24.0827 10.7763 23.2641 10.4734 21.6267 9.86747L20.3779 9.4054L21.6267 8.94333C23.2641 8.33743 24.0827 8.03449 24.68 7.43724C25.2772 6.84 25.5802 6.02129 26.1861 4.38386L26.6482 3.13513Z" stroke="#245FFF" stroke-width="2.35135" stroke-linejoin="round"/>
<path d="M9.40583 6.27026L9.75238 7.20681C10.2068 8.43487 10.434 9.04892 10.882 9.49685C11.3299 9.94477 11.9439 10.172 13.172 10.6264L14.1085 10.973L13.172 11.3195C11.9439 11.7739 11.3299 12.0012 10.8819 12.4491C10.434 12.897 10.2068 13.5111 9.75238 14.7391L9.40583 15.6757L9.05927 14.7391C8.60485 13.5111 8.37763 12.897 7.9297 12.4491C7.48178 12.0012 6.86773 11.7739 5.63967 11.3195L4.70312 10.973L5.63967 10.6264C6.86773 10.172 7.48178 9.94477 7.9297 9.49683C8.37763 9.04892 8.60485 8.43487 9.05927 7.20681L9.40583 6.27026Z" stroke="#245FFF" stroke-width="2.35135" stroke-linejoin="round"/>
</svg>
