<svg width="38" height="38" viewBox="0 0 38 38" fill="none" xmlns="http://www.w3.org/2000/svg">
<path d="M6.27051 18.8137V22.8019C6.27051 27.8887 6.27051 30.4321 7.65948 32.1548C7.94009 32.5028 8.2571 32.8198 8.60513 33.1004C10.3279 34.4894 12.8713 34.4894 17.958 34.4894C19.0641 34.4894 19.6169 34.4894 20.1234 34.3107C20.2288 34.2736 20.3319 34.2308 20.4327 34.1826C20.9172 33.9508 21.3082 33.5598 22.0902 32.7778L29.515 25.353C30.4212 24.4468 30.8743 23.9938 31.113 23.4175C31.3516 22.8414 31.3516 22.2006 31.3516 20.9191V15.6786C31.3516 9.76693 31.3516 6.81111 29.515 4.97458C27.6786 3.13806 24.7227 3.13806 18.811 3.13806M20.3786 33.7056V32.9218C20.3786 28.4881 20.3786 26.2713 21.756 24.8939C23.1335 23.5164 25.3503 23.5164 29.784 23.5164H30.5678" stroke="#245FFF" stroke-width="2.35135" stroke-linecap="round" stroke-linejoin="round"/>
<path d="M15.6759 7.84076C14.7513 6.8895 12.2904 3.13806 10.9732 3.13806C9.65603 3.13806 7.19512 6.8895 6.27051 7.84076M10.9732 4.70563V15.6786" stroke="#245FFF" stroke-width="2.35135" stroke-linecap="round" stroke-linejoin="round"/>
</svg>
