<svg width="20" height="20" viewBox="0 0 20 20" fill="none" xmlns="http://www.w3.org/2000/svg">
<path d="M8.33398 6.2526C8.33398 6.1421 8.37788 6.03612 8.45602 5.95798C8.53416 5.87984 8.64014 5.83594 8.75065 5.83594H12.084C12.1945 5.83594 12.3005 5.87984 12.3786 5.95798C12.4568 6.03612 12.5007 6.1421 12.5007 6.2526C12.5007 6.36311 12.4568 6.46909 12.3786 6.54723C12.3005 6.62537 12.1945 6.66927 12.084 6.66927H8.75065C8.64014 6.66927 8.53416 6.62537 8.45602 6.54723C8.37788 6.46909 8.33398 6.36311 8.33398 6.2526ZM8.75065 7.5026C8.64014 7.5026 8.53416 7.5465 8.45602 7.62464C8.37788 7.70278 8.33398 7.80876 8.33398 7.91927C8.33398 8.02978 8.37788 8.13576 8.45602 8.2139C8.53416 8.29204 8.64014 8.33594 8.75065 8.33594H12.084C12.1945 8.33594 12.3005 8.29204 12.3786 8.2139C12.4568 8.13576 12.5007 8.02978 12.5007 7.91927C12.5007 7.80876 12.4568 7.70278 12.3786 7.62464C12.3005 7.5465 12.1945 7.5026 12.084 7.5026H8.75065ZM8.33398 11.6693C8.33398 11.5588 8.37788 11.4528 8.45602 11.3746C8.53416 11.2965 8.64014 11.2526 8.75065 11.2526H12.084C12.1945 11.2526 12.3005 11.2965 12.3786 11.3746C12.4568 11.4528 12.5007 11.5588 12.5007 11.6693C12.5007 11.7798 12.4568 11.8858 12.3786 11.9639C12.3005 12.042 12.1945 12.0859 12.084 12.0859H8.75065C8.64014 12.0859 8.53416 12.042 8.45602 11.9639C8.37788 11.8858 8.33398 11.7798 8.33398 11.6693ZM8.75065 12.9193C8.64014 12.9193 8.53416 12.9632 8.45602 13.0413C8.37788 13.1194 8.33398 13.2254 8.33398 13.3359C8.33398 13.4464 8.37788 13.5524 8.45602 13.6306C8.53416 13.7087 8.64014 13.7526 8.75065 13.7526H12.084C12.1945 13.7526 12.3005 13.7087 12.3786 13.6306C12.4568 13.5524 12.5007 13.4464 12.5007 13.3359C12.5007 13.2254 12.4568 13.1194 12.3786 13.0413C12.3005 12.9632 12.1945 12.9193 12.084 12.9193H8.75065Z" fill="white"/>
<path fill-rule="evenodd" clip-rule="evenodd" d="M4.16602 11.2526C4.16602 11.1421 4.20991 11.0361 4.28805 10.958C4.36619 10.8798 4.47218 10.8359 4.58268 10.8359H6.66602C6.77652 10.8359 6.8825 10.8798 6.96064 10.958C7.03878 11.0361 7.08268 11.1421 7.08268 11.2526V13.3359C7.08268 13.4464 7.03878 13.5524 6.96064 13.6306C6.8825 13.7087 6.77652 13.7526 6.66602 13.7526H4.58268C4.47218 13.7526 4.36619 13.7087 4.28805 13.6306C4.20991 13.5524 4.16602 13.4464 4.16602 13.3359V11.2526ZM4.99935 11.6693V12.9193H6.24935V11.6693H4.99935Z" fill="white"/>
<path d="M7.37801 6.54207C7.4539 6.46348 7.4959 6.35823 7.49495 6.24898C7.494 6.13973 7.45018 6.03523 7.37293 5.95798C7.29568 5.88072 7.19117 5.8369 7.08192 5.83595C6.97267 5.835 6.86742 5.877 6.78884 5.9529L5.41675 7.32498L4.878 6.78623C4.79942 6.71033 4.69417 6.66834 4.58492 6.66929C4.47567 6.67024 4.37117 6.71406 4.29391 6.79131C4.21666 6.86856 4.17284 6.97307 4.17189 7.08232C4.17094 7.19157 4.21294 7.29682 4.28884 7.3754L5.41675 8.50332L7.37801 6.54207Z" fill="white"/>
<path fill-rule="evenodd" clip-rule="evenodd" d="M4.16667 2.5C3.72464 2.5 3.30072 2.67559 2.98816 2.98816C2.67559 3.30072 2.5 3.72464 2.5 4.16667V15.8333C2.5 16.2754 2.67559 16.6993 2.98816 17.0118C3.30072 17.3244 3.72464 17.5 4.16667 17.5H12.5C12.942 17.5 13.3659 17.3244 13.6785 17.0118C13.9911 16.6993 14.1667 16.2754 14.1667 15.8333V4.16667C14.1667 3.72464 13.9911 3.30072 13.6785 2.98816C13.3659 2.67559 12.942 2.5 12.5 2.5H4.16667ZM3.33333 4.16667C3.33333 3.94565 3.42113 3.73369 3.57741 3.57741C3.73369 3.42113 3.94565 3.33333 4.16667 3.33333H12.5C12.721 3.33333 12.933 3.42113 13.0893 3.57741C13.2455 3.73369 13.3333 3.94565 13.3333 4.16667V15.8333C13.3333 16.0543 13.2455 16.2663 13.0893 16.4226C12.933 16.5789 12.721 16.6667 12.5 16.6667H4.16667C3.94565 16.6667 3.73369 16.5789 3.57741 16.4226C3.42113 16.2663 3.33333 16.0543 3.33333 15.8333V4.16667ZM15 6.66667C15 6.33515 15.1317 6.0172 15.3661 5.78278C15.6005 5.54836 15.9185 5.41667 16.25 5.41667C16.5815 5.41667 16.8995 5.54836 17.1339 5.78278C17.3683 6.0172 17.5 6.33515 17.5 6.66667V15.1263L16.25 17.0013L15 15.1263V6.66667ZM16.25 6.25C16.1395 6.25 16.0335 6.2939 15.9554 6.37204C15.8772 6.45018 15.8333 6.55616 15.8333 6.66667V7.5H16.6667V6.66667C16.6667 6.55616 16.6228 6.45018 16.5446 6.37204C16.4665 6.2939 16.3605 6.25 16.25 6.25ZM16.25 15.4987L15.8333 14.8737V8.33333H16.6667V14.8737L16.25 15.4987Z" fill="white"/>
</svg>
