<svg width="20" height="20" viewBox="0 0 20 20" fill="none" xmlns="http://www.w3.org/2000/svg">
<g clip-path="url(#clip0_4028_6214)">
<path d="M10.002 1C14.631 1.27018 17.4106 4.99898 17.4106 9.99807" stroke="#EEEEEE" stroke-width="0.959794" stroke-linecap="round" stroke-linejoin="round"/>
<path d="M14.8691 8.27759L17.4083 9.99706L18.9982 7.25781" stroke="#EEEEEE" stroke-width="0.959794" stroke-linecap="round" stroke-linejoin="round"/>
<path d="M13.0008 18.9961C11.4509 18.6266 9.9808 17.9795 8.66154 17.0861L10.4813 14.4774C10.7805 14.0691 11.2234 13.7895 11.7206 13.6949C12.2178 13.6004 12.7324 13.6978 13.1606 13.9677C13.4907 14.1774 13.8305 14.3675 14.1607 14.5575C14.409 14.679 14.6295 14.8506 14.8082 15.0615C14.9868 15.2725 15.1198 15.5182 15.1987 15.7831C15.2776 16.048 15.3008 16.3265 15.2667 16.6008C15.2325 16.8751 15.1419 17.1394 15.0005 17.3769L14.3805 18.3271C14.2695 18.586 14.0689 18.7962 13.8155 18.9191C13.5621 19.0421 13.2728 19.0691 13.0008 18.9961ZM1.67329 5.66936L2.67291 5.04885C2.90478 4.89837 3.16533 4.7976 3.43811 4.75289C3.71088 4.70818 3.98997 4.72051 4.25774 4.7891C4.52551 4.85769 4.77616 4.98105 4.99385 5.15139C5.21155 5.32173 5.39156 5.53535 5.52254 5.77877C5.71258 6.1387 5.90214 6.47894 6.11233 6.77888C6.38217 7.20711 6.47957 7.72174 6.3849 8.21897C6.29023 8.7162 6.01052 9.15903 5.6022 9.45814L2.94309 11.3077C2.04253 9.99973 1.38542 8.54001 1.00335 6.99867C0.943557 6.73378 0.977687 6.45635 1.0999 6.21386C1.22211 5.97136 1.4248 5.77888 1.67329 5.66936Z" stroke="#EEEEEE" stroke-width="0.959794" stroke-linecap="round" stroke-linejoin="round"/>
<path d="M2.94336 11.3125C3.67838 12.4645 4.54392 13.5278 5.52281 14.4813C6.47643 15.4602 7.53989 16.3257 8.69204 17.0607" stroke="#EEEEEE" stroke-width="0.959794" stroke-linecap="round" stroke-linejoin="round"/>
</g>
<defs>
<clipPath id="clip0_4028_6214">
<rect width="20" height="20" fill="white"/>
</clipPath>
</defs>
</svg>
