<svg width="391" height="519" viewBox="0 0 391 519" fill="none" xmlns="http://www.w3.org/2000/svg">
<g opacity="0.2" filter="url(#filter0_d_2143_5001)">
<path fill-rule="evenodd" clip-rule="evenodd" d="M37.2856 198.385C37.2856 198.385 70.5107 144.255 91.1626 144.255C120.791 144.255 124.379 183.547 161.197 183.547C198.015 183.547 205.516 143.075 252.227 95.2351C298.939 47.3954 347.286 60.4453 347.286 60.4453V298.648C347.286 303.067 343.704 306.648 339.286 306.648H45.2856C40.8674 306.648 37.2856 303.067 37.2856 298.648V198.385Z" fill="url(#paint0_linear_2143_5001)" shape-rendering="crispEdges"/>
</g>
<g filter="url(#filter1_d_2143_5001)">
<path d="M319.286 26.6484C323.704 26.6484 327.286 30.2302 327.286 34.6484V41.6484C327.286 46.0667 323.704 49.6484 319.286 49.6484H314.943L311.286 53.3057L307.628 49.6484H303.286C298.867 49.6484 295.286 46.0667 295.286 41.6484V34.6484C295.286 30.2302 298.867 26.6484 303.286 26.6484H319.286Z" fill="white"/>
</g>
<path d="M301.718 42.6484L303.416 39.7084C303.012 39.7844 302.618 39.7684 302.234 39.6604C301.854 39.5484 301.512 39.3664 301.208 39.1144C300.904 38.8584 300.662 38.5484 300.482 38.1844C300.302 37.8204 300.212 37.4204 300.212 36.9844C300.212 36.5884 300.286 36.2164 300.434 35.8684C300.586 35.5164 300.794 35.2084 301.058 34.9444C301.322 34.6764 301.628 34.4684 301.976 34.3204C302.328 34.1684 302.704 34.0924 303.104 34.0924C303.628 34.0924 304.108 34.2224 304.544 34.4824C304.98 34.7424 305.328 35.0924 305.588 35.5324C305.848 35.9684 305.978 36.4524 305.978 36.9844C305.978 37.2604 305.944 37.5124 305.876 37.7404C305.812 37.9684 305.71 38.2084 305.57 38.4604L303.164 42.6484H301.718ZM303.092 38.6224C303.412 38.6224 303.696 38.5464 303.944 38.3944C304.192 38.2384 304.386 38.0364 304.526 37.7884C304.67 37.5364 304.742 37.2664 304.742 36.9784C304.742 36.6664 304.666 36.3864 304.514 36.1384C304.362 35.8904 304.16 35.6944 303.908 35.5504C303.66 35.4064 303.392 35.3344 303.104 35.3344C302.784 35.3344 302.5 35.4124 302.252 35.5684C302.004 35.7244 301.808 35.9284 301.664 36.1804C301.52 36.4284 301.448 36.6944 301.448 36.9784C301.448 37.2784 301.52 37.5544 301.664 37.8064C301.812 38.0544 302.01 38.2524 302.258 38.4004C302.506 38.5484 302.784 38.6224 303.092 38.6224ZM310.09 42.8044C309.558 42.8044 309.076 42.6764 308.644 42.4204C308.216 42.1604 307.876 41.8164 307.624 41.3884C307.376 40.9564 307.252 40.4844 307.252 39.9724H308.5C308.5 40.2644 308.572 40.5304 308.716 40.7704C308.86 41.0104 309.052 41.2024 309.292 41.3464C309.532 41.4864 309.798 41.5564 310.09 41.5564C310.378 41.5564 310.642 41.4864 310.882 41.3464C311.122 41.2024 311.314 41.0104 311.458 40.7704C311.602 40.5304 311.674 40.2644 311.674 39.9724C311.674 39.6804 311.608 39.4144 311.476 39.1744C311.344 38.9304 311.146 38.7364 310.882 38.5924C310.618 38.4444 310.282 38.3704 309.874 38.3704H307.756L308.608 34.2484H312.67V35.4964H309.622L309.292 37.1224L310.018 37.1344C310.59 37.1464 311.092 37.2784 311.524 37.5304C311.96 37.7784 312.302 38.1144 312.55 38.5384C312.798 38.9584 312.922 39.4364 312.922 39.9724C312.922 40.3604 312.848 40.7264 312.7 41.0704C312.552 41.4104 312.348 41.7104 312.088 41.9704C311.832 42.2304 311.532 42.4344 311.188 42.5824C310.848 42.7304 310.482 42.8044 310.09 42.8044ZM315.281 42.6484L320.129 34.2484H321.569L316.721 42.6484H315.281ZM316.295 37.7704C315.991 37.7704 315.711 37.6964 315.455 37.5484C315.203 37.3964 315.001 37.1944 314.849 36.9424C314.697 36.6864 314.621 36.4044 314.621 36.0964C314.621 35.7764 314.697 35.4904 314.849 35.2384C315.005 34.9864 315.209 34.7884 315.461 34.6444C315.717 34.4964 315.995 34.4224 316.295 34.4224C316.603 34.4224 316.883 34.4984 317.135 34.6504C317.387 34.7984 317.589 34.9984 317.741 35.2504C317.893 35.5024 317.969 35.7844 317.969 36.0964C317.969 36.4124 317.891 36.6964 317.735 36.9484C317.583 37.2004 317.379 37.4004 317.123 37.5484C316.871 37.6964 316.595 37.7704 316.295 37.7704ZM316.295 36.8884C316.519 36.8884 316.707 36.8124 316.859 36.6604C317.011 36.5044 317.087 36.3164 317.087 36.0964C317.087 35.8724 317.011 35.6844 316.859 35.5324C316.707 35.3764 316.519 35.2984 316.295 35.2984C316.075 35.2984 315.887 35.3764 315.731 35.5324C315.579 35.6844 315.503 35.8724 315.503 36.0964C315.503 36.3164 315.579 36.5044 315.731 36.6604C315.887 36.8124 316.075 36.8884 316.295 36.8884ZM320.567 42.4864C320.255 42.4864 319.971 42.4084 319.715 42.2524C319.463 42.0924 319.261 41.8864 319.109 41.6344C318.961 41.3784 318.887 41.1024 318.887 40.8064C318.887 40.4944 318.965 40.2124 319.121 39.9604C319.277 39.7044 319.481 39.5024 319.733 39.3544C319.989 39.2024 320.267 39.1264 320.567 39.1264C320.883 39.1264 321.167 39.2044 321.419 39.3604C321.671 39.5164 321.871 39.7224 322.019 39.9784C322.167 40.2344 322.241 40.5104 322.241 40.8064C322.241 41.1144 322.165 41.3964 322.013 41.6524C321.865 41.9044 321.663 42.1064 321.407 42.2584C321.155 42.4104 320.875 42.4864 320.567 42.4864ZM320.567 41.6044C320.783 41.6044 320.969 41.5264 321.125 41.3704C321.281 41.2144 321.359 41.0264 321.359 40.8064C321.359 40.5864 321.281 40.3984 321.125 40.2424C320.969 40.0864 320.783 40.0084 320.567 40.0084C320.347 40.0084 320.157 40.0864 319.997 40.2424C319.841 40.3984 319.763 40.5864 319.763 40.8064C319.763 41.0264 319.841 41.2144 319.997 41.3704C320.157 41.5264 320.347 41.6044 320.567 41.6044Z" fill="#414D55"/>
<g filter="url(#filter2_d_2143_5001)">
<path d="M277.432 14.1172L279.413 18.1895L281.393 14.1172H283.022L280.151 19.5078V22.6484H278.668V19.5078L275.797 14.1172H277.432ZM283.657 19.5488V19.4141C283.657 18.957 283.723 18.5332 283.856 18.1426C283.989 17.748 284.18 17.4062 284.43 17.1172C284.684 16.8242 284.993 16.5977 285.356 16.4375C285.723 16.2734 286.137 16.1914 286.598 16.1914C287.063 16.1914 287.477 16.2734 287.84 16.4375C288.208 16.5977 288.518 16.8242 288.772 17.1172C289.026 17.4062 289.219 17.748 289.352 18.1426C289.485 18.5332 289.551 18.957 289.551 19.4141V19.5488C289.551 20.0059 289.485 20.4297 289.352 20.8203C289.219 21.2109 289.026 21.5527 288.772 21.8457C288.518 22.1348 288.209 22.3613 287.846 22.5254C287.483 22.6855 287.071 22.7656 286.61 22.7656C286.145 22.7656 285.729 22.6855 285.362 22.5254C284.999 22.3613 284.69 22.1348 284.436 21.8457C284.182 21.5527 283.989 21.2109 283.856 20.8203C283.723 20.4297 283.657 20.0059 283.657 19.5488ZM285.069 19.4141V19.5488C285.069 19.834 285.098 20.1035 285.157 20.3574C285.215 20.6113 285.307 20.834 285.432 21.0254C285.557 21.2168 285.717 21.3672 285.913 21.4766C286.108 21.5859 286.34 21.6406 286.61 21.6406C286.872 21.6406 287.098 21.5859 287.29 21.4766C287.485 21.3672 287.645 21.2168 287.77 21.0254C287.895 20.834 287.987 20.6113 288.045 20.3574C288.108 20.1035 288.139 19.834 288.139 19.5488V19.4141C288.139 19.1328 288.108 18.8672 288.045 18.6172C287.987 18.3633 287.893 18.1387 287.764 17.9434C287.639 17.748 287.479 17.5957 287.284 17.4863C287.092 17.373 286.864 17.3164 286.598 17.3164C286.333 17.3164 286.102 17.373 285.907 17.4863C285.715 17.5957 285.557 17.748 285.432 17.9434C285.307 18.1387 285.215 18.3633 285.157 18.6172C285.098 18.8672 285.069 19.1328 285.069 19.4141ZM295.049 21.1543V16.3086H296.467V22.6484H295.131L295.049 21.1543ZM295.249 19.8359L295.723 19.8242C295.723 20.25 295.676 20.6426 295.583 21.002C295.489 21.3574 295.344 21.668 295.149 21.9336C294.954 22.1953 294.704 22.4004 294.399 22.5488C294.094 22.6934 293.729 22.7656 293.303 22.7656C292.995 22.7656 292.711 22.7207 292.454 22.6309C292.196 22.541 291.973 22.4023 291.786 22.2148C291.602 22.0273 291.459 21.7832 291.358 21.4824C291.256 21.1816 291.206 20.8223 291.206 20.4043V16.3086H292.618V20.416C292.618 20.6465 292.645 20.8398 292.7 20.9961C292.754 21.1484 292.829 21.2715 292.922 21.3652C293.016 21.459 293.125 21.5254 293.25 21.5645C293.375 21.6035 293.508 21.623 293.649 21.623C294.051 21.623 294.368 21.5449 294.598 21.3887C294.833 21.2285 294.999 21.0137 295.096 20.7441C295.198 20.4746 295.249 20.1719 295.249 19.8359ZM299.833 17.5156V22.6484H298.42V16.3086H299.768L299.833 17.5156ZM301.772 16.2676L301.76 17.5801C301.674 17.5645 301.581 17.5527 301.479 17.5449C301.381 17.5371 301.284 17.5332 301.186 17.5332C300.944 17.5332 300.731 17.5684 300.547 17.6387C300.364 17.7051 300.209 17.8027 300.084 17.9316C299.963 18.0566 299.87 18.209 299.803 18.3887C299.737 18.5684 299.698 18.7695 299.686 18.9922L299.364 19.0156C299.364 18.6172 299.403 18.248 299.481 17.9082C299.559 17.5684 299.676 17.2695 299.833 17.0117C299.993 16.7539 300.192 16.5527 300.43 16.4082C300.672 16.2637 300.952 16.1914 301.268 16.1914C301.354 16.1914 301.446 16.1992 301.543 16.2148C301.645 16.2305 301.721 16.248 301.772 16.2676ZM311.274 20.4512C311.274 20.2754 311.247 20.1191 311.192 19.9824C311.141 19.8457 311.049 19.7207 310.917 19.6074C310.784 19.4941 310.596 19.3848 310.354 19.2793C310.116 19.1699 309.811 19.0586 309.44 18.9453C309.034 18.8203 308.659 18.6816 308.315 18.5293C307.975 18.373 307.678 18.1934 307.424 17.9902C307.17 17.7832 306.973 17.5469 306.833 17.2812C306.692 17.0117 306.622 16.7012 306.622 16.3496C306.622 16.002 306.694 15.6855 306.838 15.4004C306.987 15.1152 307.196 14.8691 307.465 14.6621C307.739 14.4512 308.061 14.2891 308.432 14.1758C308.803 14.0586 309.213 14 309.663 14C310.295 14 310.84 14.1172 311.297 14.3516C311.758 14.5859 312.112 14.9004 312.358 15.2949C312.608 15.6895 312.733 16.125 312.733 16.6016H311.274C311.274 16.3203 311.213 16.0723 311.092 15.8574C310.975 15.6387 310.795 15.4668 310.553 15.3418C310.315 15.2168 310.012 15.1543 309.645 15.1543C309.297 15.1543 309.008 15.207 308.778 15.3125C308.547 15.418 308.375 15.5605 308.262 15.7402C308.149 15.9199 308.092 16.123 308.092 16.3496C308.092 16.5098 308.129 16.6562 308.204 16.7891C308.278 16.918 308.391 17.0391 308.543 17.1523C308.696 17.2617 308.887 17.3652 309.118 17.4629C309.348 17.5605 309.62 17.6543 309.932 17.7441C310.405 17.8848 310.817 18.041 311.168 18.2129C311.52 18.3809 311.813 18.5723 312.047 18.7871C312.282 19.002 312.458 19.2461 312.575 19.5195C312.692 19.7891 312.75 20.0957 312.75 20.4395C312.75 20.7988 312.678 21.123 312.534 21.4121C312.389 21.6973 312.182 21.9414 311.913 22.1445C311.647 22.3438 311.327 22.498 310.952 22.6074C310.581 22.7129 310.167 22.7656 309.709 22.7656C309.299 22.7656 308.895 22.7109 308.497 22.6016C308.102 22.4922 307.743 22.3262 307.418 22.1035C307.094 21.877 306.836 21.5957 306.645 21.2598C306.454 20.9199 306.358 20.5234 306.358 20.0703H307.829C307.829 20.3477 307.875 20.584 307.969 20.7793C308.067 20.9746 308.202 21.1348 308.374 21.2598C308.545 21.3809 308.745 21.4707 308.971 21.5293C309.202 21.5879 309.448 21.6172 309.709 21.6172C310.053 21.6172 310.34 21.5684 310.571 21.4707C310.805 21.373 310.981 21.2363 311.098 21.0605C311.215 20.8848 311.274 20.6816 311.274 20.4512ZM317 21.6406C317.231 21.6406 317.438 21.5957 317.622 21.5059C317.809 21.4121 317.959 21.2832 318.073 21.1191C318.19 20.9551 318.254 20.7656 318.266 20.5508H319.596C319.588 20.9609 319.467 21.334 319.233 21.6699C318.999 22.0059 318.688 22.2734 318.301 22.4727C317.915 22.668 317.487 22.7656 317.018 22.7656C316.534 22.7656 316.112 22.6836 315.752 22.5195C315.393 22.3516 315.094 22.1211 314.856 21.8281C314.618 21.5352 314.438 21.1973 314.317 20.8145C314.2 20.4316 314.141 20.0215 314.141 19.584V19.3789C314.141 18.9414 314.2 18.5312 314.317 18.1484C314.438 17.7617 314.618 17.4219 314.856 17.1289C315.094 16.8359 315.393 16.6074 315.752 16.4434C316.112 16.2754 316.532 16.1914 317.012 16.1914C317.52 16.1914 317.965 16.293 318.348 16.4961C318.731 16.6953 319.032 16.9746 319.25 17.334C319.473 17.6895 319.588 18.1035 319.596 18.5762H318.266C318.254 18.3418 318.196 18.1309 318.09 17.9434C317.989 17.752 317.844 17.5996 317.657 17.4863C317.473 17.373 317.252 17.3164 316.995 17.3164C316.709 17.3164 316.473 17.375 316.286 17.4922C316.098 17.6055 315.952 17.7617 315.846 17.9609C315.741 18.1562 315.665 18.377 315.618 18.623C315.575 18.8652 315.553 19.1172 315.553 19.3789V19.584C315.553 19.8457 315.575 20.0996 315.618 20.3457C315.661 20.5918 315.735 20.8125 315.84 21.0078C315.95 21.1992 316.098 21.3535 316.286 21.4707C316.473 21.584 316.711 21.6406 317 21.6406ZM320.911 19.5488V19.4141C320.911 18.957 320.977 18.5332 321.11 18.1426C321.243 17.748 321.434 17.4062 321.684 17.1172C321.938 16.8242 322.247 16.5977 322.61 16.4375C322.977 16.2734 323.391 16.1914 323.852 16.1914C324.317 16.1914 324.731 16.2734 325.094 16.4375C325.461 16.5977 325.772 16.8242 326.026 17.1172C326.28 17.4062 326.473 17.748 326.606 18.1426C326.739 18.5332 326.805 18.957 326.805 19.4141V19.5488C326.805 20.0059 326.739 20.4297 326.606 20.8203C326.473 21.2109 326.28 21.5527 326.026 21.8457C325.772 22.1348 325.463 22.3613 325.1 22.5254C324.737 22.6855 324.325 22.7656 323.864 22.7656C323.399 22.7656 322.983 22.6855 322.616 22.5254C322.252 22.3613 321.944 22.1348 321.69 21.8457C321.436 21.5527 321.243 21.2109 321.11 20.8203C320.977 20.4297 320.911 20.0059 320.911 19.5488ZM322.323 19.4141V19.5488C322.323 19.834 322.352 20.1035 322.411 20.3574C322.469 20.6113 322.561 20.834 322.686 21.0254C322.811 21.2168 322.971 21.3672 323.167 21.4766C323.362 21.5859 323.594 21.6406 323.864 21.6406C324.125 21.6406 324.352 21.5859 324.543 21.4766C324.739 21.3672 324.899 21.2168 325.024 21.0254C325.149 20.834 325.241 20.6113 325.299 20.3574C325.362 20.1035 325.393 19.834 325.393 19.5488V19.4141C325.393 19.1328 325.362 18.8672 325.299 18.6172C325.241 18.3633 325.147 18.1387 325.018 17.9434C324.893 17.748 324.733 17.5957 324.538 17.4863C324.346 17.373 324.118 17.3164 323.852 17.3164C323.586 17.3164 323.356 17.373 323.161 17.4863C322.969 17.5957 322.811 17.748 322.686 17.9434C322.561 18.1387 322.469 18.3633 322.411 18.6172C322.352 18.8672 322.323 19.1328 322.323 19.4141ZM329.907 17.5156V22.6484H328.495V16.3086H329.842L329.907 17.5156ZM331.846 16.2676L331.834 17.5801C331.749 17.5645 331.655 17.5527 331.553 17.5449C331.456 17.5371 331.358 17.5332 331.26 17.5332C331.018 17.5332 330.805 17.5684 330.622 17.6387C330.438 17.7051 330.284 17.8027 330.159 17.9316C330.038 18.0566 329.944 18.209 329.877 18.3887C329.811 18.5684 329.772 18.7695 329.76 18.9922L329.438 19.0156C329.438 18.6172 329.477 18.248 329.555 17.9082C329.633 17.5684 329.75 17.2695 329.907 17.0117C330.067 16.7539 330.266 16.5527 330.504 16.4082C330.747 16.2637 331.026 16.1914 331.342 16.1914C331.428 16.1914 331.52 16.1992 331.618 16.2148C331.719 16.2305 331.795 16.248 331.846 16.2676ZM335.909 22.7656C335.44 22.7656 335.016 22.6895 334.637 22.5371C334.262 22.3809 333.942 22.1641 333.676 21.8867C333.415 21.6094 333.213 21.2832 333.073 20.9082C332.932 20.5332 332.862 20.1289 332.862 19.6953V19.4609C332.862 18.9648 332.934 18.5156 333.079 18.1133C333.223 17.7109 333.424 17.3672 333.682 17.082C333.94 16.793 334.245 16.5723 334.596 16.4199C334.948 16.2676 335.329 16.1914 335.739 16.1914C336.192 16.1914 336.588 16.2676 336.928 16.4199C337.268 16.5723 337.549 16.7871 337.772 17.0645C337.999 17.3379 338.167 17.6641 338.276 18.043C338.389 18.4219 338.446 18.8398 338.446 19.2969V19.9004H333.547V18.8867H337.051V18.7754C337.043 18.5215 336.993 18.2832 336.899 18.0605C336.809 17.8379 336.67 17.6582 336.483 17.5215C336.295 17.3848 336.045 17.3164 335.733 17.3164C335.499 17.3164 335.29 17.3672 335.106 17.4688C334.926 17.5664 334.776 17.709 334.655 17.8965C334.534 18.084 334.44 18.3105 334.374 18.5762C334.311 18.8379 334.28 19.1328 334.28 19.4609V19.6953C334.28 19.9727 334.317 20.2305 334.391 20.4688C334.469 20.7031 334.583 20.9082 334.731 21.084C334.879 21.2598 335.059 21.3984 335.27 21.5C335.481 21.5977 335.721 21.6465 335.991 21.6465C336.331 21.6465 336.633 21.5781 336.899 21.4414C337.165 21.3047 337.395 21.1113 337.59 20.8613L338.334 21.582C338.198 21.7812 338.02 21.9727 337.801 22.1562C337.583 22.3359 337.315 22.4824 336.999 22.5957C336.686 22.709 336.323 22.7656 335.909 22.7656Z" fill="white"/>
</g>
<path d="M0.285645 518.917V128.648H390.554M35.7127 128.648V518.917M71.1397 128.648V518.917M106.567 128.648V518.917M141.994 128.648V518.917M177.421 128.648V518.917M212.848 128.648V518.917M248.275 128.648V518.917M283.702 128.648V518.917M319.129 128.648V518.917M354.556 128.648V518.917M389.983 128.648V518.917M390.554 164.075H0.285645M390.554 199.502H0.285645M390.554 234.929H0.285645M390.554 270.356H0.285645M390.554 305.784H0.285645M390.554 341.211H0.285645M390.554 376.638H0.285645M390.554 412.065H0.285645M390.554 447.492H0.285645M390.554 482.919H0.285645M390.554 518.346H0.285645" stroke="url(#paint1_radial_2143_5001)" stroke-opacity="0.4" stroke-width="0.571403"/>
<defs>
<filter id="filter0_d_2143_5001" x="1.18565" y="1.71928" width="382.2" height="320.029" filterUnits="userSpaceOnUse" color-interpolation-filters="sRGB">
<feFlood flood-opacity="0" result="BackgroundImageFix"/>
<feColorMatrix in="SourceAlpha" type="matrix" values="0 0 0 0 0 0 0 0 0 0 0 0 0 0 0 0 0 0 127 0" result="hardAlpha"/>
<feOffset dy="-21"/>
<feGaussianBlur stdDeviation="18.05"/>
<feComposite in2="hardAlpha" operator="out"/>
<feColorMatrix type="matrix" values="0 0 0 0 0.203922 0 0 0 0 0.294118 0 0 0 0 0.992157 0 0 0 0.75 0"/>
<feBlend mode="normal" in2="BackgroundImageFix" result="effect1_dropShadow_2143_5001"/>
<feBlend mode="normal" in="SourceGraphic" in2="effect1_dropShadow_2143_5001" result="shape"/>
</filter>
<filter id="filter1_d_2143_5001" x="269.186" y="0.548437" width="84.2" height="78.8572" filterUnits="userSpaceOnUse" color-interpolation-filters="sRGB">
<feFlood flood-opacity="0" result="BackgroundImageFix"/>
<feColorMatrix in="SourceAlpha" type="matrix" values="0 0 0 0 0 0 0 0 0 0 0 0 0 0 0 0 0 0 127 0" result="hardAlpha"/>
<feOffset/>
<feGaussianBlur stdDeviation="13.05"/>
<feComposite in2="hardAlpha" operator="out"/>
<feColorMatrix type="matrix" values="0 0 0 0 0.203922 0 0 0 0 0.294118 0 0 0 0 0.992157 0 0 0 0.75 0"/>
<feBlend mode="normal" in2="BackgroundImageFix" result="effect1_dropShadow_2143_5001"/>
<feBlend mode="normal" in="SourceGraphic" in2="effect1_dropShadow_2143_5001" result="shape"/>
</filter>
<filter id="filter2_d_2143_5001" x="261.797" y="0" width="90.6484" height="36.7656" filterUnits="userSpaceOnUse" color-interpolation-filters="sRGB">
<feFlood flood-opacity="0" result="BackgroundImageFix"/>
<feColorMatrix in="SourceAlpha" type="matrix" values="0 0 0 0 0 0 0 0 0 0 0 0 0 0 0 0 0 0 127 0" result="hardAlpha"/>
<feOffset/>
<feGaussianBlur stdDeviation="7"/>
<feComposite in2="hardAlpha" operator="out"/>
<feColorMatrix type="matrix" values="0 0 0 0 0.511606 0 0 0 0 0.643183 0 0 0 0 1 0 0 0 0.88 0"/>
<feBlend mode="normal" in2="BackgroundImageFix" result="effect1_dropShadow_2143_5001"/>
<feBlend mode="normal" in="SourceGraphic" in2="effect1_dropShadow_2143_5001" result="shape"/>
</filter>
<linearGradient id="paint0_linear_2143_5001" x1="37.2856" y1="57.6474" x2="37.2856" y2="306.647" gradientUnits="userSpaceOnUse">
<stop stop-color="#245FFF" stop-opacity="0.88"/>
<stop offset="1" stop-color="#245FFF" stop-opacity="0.01"/>
</linearGradient>
<radialGradient id="paint1_radial_2143_5001" cx="0" cy="0" r="1" gradientUnits="userSpaceOnUse" gradientTransform="translate(195.42 323.783) rotate(90) scale(195.134 215.114)">
<stop stop-color="#AB93EA"/>
<stop offset="0.850962" stop-color="#AB93EA" stop-opacity="0"/>
</radialGradient>
</defs>
</svg>
