<svg width="20" height="20" viewBox="0 0 20 20" fill="none" xmlns="http://www.w3.org/2000/svg">
<path d="M5.20898 9.9974C5.04322 9.9974 4.88425 10.0632 4.76704 10.1805C4.64983 10.2977 4.58398 10.4566 4.58398 10.6224C4.58398 10.7882 4.64983 10.9471 4.76704 11.0643C4.88425 11.1815 5.04322 11.2474 5.20898 11.2474H5.62565C5.79141 11.2474 5.95038 11.1815 6.06759 11.0643C6.1848 10.9471 6.25065 10.7882 6.25065 10.6224C6.25065 10.4566 6.1848 10.2977 6.06759 10.1805C5.95038 10.0632 5.79141 9.9974 5.62565 9.9974H5.20898ZM4.58398 7.70573C4.58398 7.53997 4.64983 7.381 4.76704 7.26379C4.88425 7.14658 5.04322 7.08073 5.20898 7.08073H5.62565C5.79141 7.08073 5.95038 7.14658 6.06759 7.26379C6.1848 7.381 6.25065 7.53997 6.25065 7.70573C6.25065 7.87149 6.1848 8.03046 6.06759 8.14767C5.95038 8.26488 5.79141 8.33073 5.62565 8.33073H5.20898C5.04322 8.33073 4.88425 8.26488 4.76704 8.14767C4.64983 8.03046 4.58398 7.87149 4.58398 7.70573ZM5.20898 4.16406C5.04322 4.16406 4.88425 4.22991 4.76704 4.34712C4.64983 4.46433 4.58398 4.6233 4.58398 4.78906C4.58398 4.95482 4.64983 5.11379 4.76704 5.231C4.88425 5.34821 5.04322 5.41406 5.20898 5.41406H5.62565C5.79141 5.41406 5.95038 5.34821 6.06759 5.231C6.1848 5.11379 6.25065 4.95482 6.25065 4.78906C6.25065 4.6233 6.1848 4.46433 6.06759 4.34712C5.95038 4.22991 5.79141 4.16406 5.62565 4.16406H5.20898ZM7.50065 10.6224C7.50065 10.4566 7.5665 10.2977 7.68371 10.1805C7.80092 10.0632 7.95989 9.9974 8.12565 9.9974H8.54232C8.70808 9.9974 8.86705 10.0632 8.98426 10.1805C9.10147 10.2977 9.16732 10.4566 9.16732 10.6224C9.16732 10.7882 9.10147 10.9471 8.98426 11.0643C8.86705 11.1815 8.70808 11.2474 8.54232 11.2474H8.12565C7.95989 11.2474 7.80092 11.1815 7.68371 11.0643C7.5665 10.9471 7.50065 10.7882 7.50065 10.6224ZM8.12565 7.08073C7.95989 7.08073 7.80092 7.14658 7.68371 7.26379C7.5665 7.381 7.50065 7.53997 7.50065 7.70573C7.50065 7.87149 7.5665 8.03046 7.68371 8.14767C7.80092 8.26488 7.95989 8.33073 8.12565 8.33073H8.54232C8.70808 8.33073 8.86705 8.26488 8.98426 8.14767C9.10147 8.03046 9.16732 7.87149 9.16732 7.70573C9.16732 7.53997 9.10147 7.381 8.98426 7.26379C8.86705 7.14658 8.70808 7.08073 8.54232 7.08073H8.12565ZM7.50065 4.78906C7.50065 4.6233 7.5665 4.46433 7.68371 4.34712C7.80092 4.22991 7.95989 4.16406 8.12565 4.16406H8.54232C8.70808 4.16406 8.86705 4.22991 8.98426 4.34712C9.10147 4.46433 9.16732 4.6233 9.16732 4.78906C9.16732 4.95482 9.10147 5.11379 8.98426 5.231C8.86705 5.34821 8.70808 5.41406 8.54232 5.41406H8.12565C7.95989 5.41406 7.80092 5.34821 7.68371 5.231C7.5665 5.11379 7.50065 4.95482 7.50065 4.78906ZM11.0423 9.9974C10.8766 9.9974 10.7176 10.0632 10.6004 10.1805C10.4832 10.2977 10.4173 10.4566 10.4173 10.6224C10.4173 10.7882 10.4832 10.9471 10.6004 11.0643C10.7176 11.1815 10.8766 11.2474 11.0423 11.2474H11.459C11.6247 11.2474 11.7837 11.1815 11.9009 11.0643C12.0181 10.9471 12.084 10.7882 12.084 10.6224C12.084 10.4566 12.0181 10.2977 11.9009 10.1805C11.7837 10.0632 11.6247 9.9974 11.459 9.9974H11.0423ZM10.4173 7.70573C10.4173 7.53997 10.4832 7.381 10.6004 7.26379C10.7176 7.14658 10.8766 7.08073 11.0423 7.08073H11.459C11.6247 7.08073 11.7837 7.14658 11.9009 7.26379C12.0181 7.381 12.084 7.53997 12.084 7.70573C12.084 7.87149 12.0181 8.03046 11.9009 8.14767C11.7837 8.26488 11.6247 8.33073 11.459 8.33073H11.0423C10.8766 8.33073 10.7176 8.26488 10.6004 8.14767C10.4832 8.03046 10.4173 7.87149 10.4173 7.70573ZM11.0423 4.16406C10.8766 4.16406 10.7176 4.22991 10.6004 4.34712C10.4832 4.46433 10.4173 4.6233 10.4173 4.78906C10.4173 4.95482 10.4832 5.11379 10.6004 5.231C10.7176 5.34821 10.8766 5.41406 11.0423 5.41406H11.459C11.6247 5.41406 11.7837 5.34821 11.9009 5.231C12.0181 5.11379 12.084 4.95482 12.084 4.78906C12.084 4.6233 12.0181 4.46433 11.9009 4.34712C11.7837 4.22991 11.6247 4.16406 11.459 4.16406H11.0423Z" fill="white"/>
<path d="M1.66602 16.6693V2.5026C1.66602 2.06058 1.84161 1.63665 2.15417 1.32409C2.46673 1.01153 2.89065 0.835938 3.33268 0.835938H13.3327C13.7747 0.835938 14.1986 1.01153 14.5112 1.32409C14.8238 1.63665 14.9993 2.06058 14.9993 2.5026V16.6693C14.9993 16.8137 14.9818 16.9526 14.9468 17.0859H16.666C16.7765 17.0859 16.8825 17.042 16.9606 16.9639C17.0388 16.8858 17.0827 16.7798 17.0827 16.6693V10.0026C17.0827 9.93792 17.0676 9.87412 17.0387 9.81627C17.0098 9.75841 16.9678 9.70808 16.916 9.66927L16.4993 9.35677C16.3667 9.25731 16.2791 9.10925 16.2556 8.94516C16.2322 8.78106 16.2749 8.61438 16.3743 8.48177C16.4738 8.34916 16.6219 8.26149 16.786 8.23805C16.9501 8.21461 17.1167 8.25731 17.2493 8.35677L17.666 8.66927C18.086 8.98427 18.3327 9.4776 18.3327 10.0026V16.6693C18.3327 17.1113 18.1571 17.5352 17.8445 17.8478C17.532 18.1603 17.108 18.3359 16.666 18.3359H13.6977C13.6512 18.3348 13.605 18.3298 13.5593 18.3209C13.4849 18.3309 13.4093 18.3359 13.3327 18.3359H10.2077C10.0419 18.3359 9.88295 18.2701 9.76574 18.1529C9.64853 18.0357 9.58268 17.8767 9.58268 17.7109V15.8359H7.08268V17.7109C7.08268 17.8767 7.01683 18.0357 6.89962 18.1529C6.78241 18.2701 6.62344 18.3359 6.45768 18.3359H3.33268C2.89065 18.3359 2.46673 18.1603 2.15417 17.8478C1.84161 17.5352 1.66602 17.1113 1.66602 16.6693ZM3.33268 17.0859H5.83268V15.2109C5.83268 15.0452 5.89853 14.8862 6.01574 14.769C6.13295 14.6518 6.29192 14.5859 6.45768 14.5859H10.2077C10.3734 14.5859 10.5324 14.6518 10.6496 14.769C10.7668 14.8862 10.8327 15.0452 10.8327 15.2109V17.0859H13.3327C13.4432 17.0859 13.5492 17.042 13.6273 16.9639C13.7055 16.8858 13.7493 16.7798 13.7493 16.6693V2.5026C13.7493 2.3921 13.7055 2.28612 13.6273 2.20798C13.5492 2.12984 13.4432 2.08594 13.3327 2.08594H3.33268C3.22218 2.08594 3.11619 2.12984 3.03805 2.20798C2.95991 2.28612 2.91602 2.3921 2.91602 2.5026V16.6693C2.91602 16.7798 2.95991 16.8858 3.03805 16.9639C3.11619 17.042 3.22218 17.0859 3.33268 17.0859Z" fill="white"/>
</svg>
