<svg width="32" height="24" viewBox="0 0 32 24" fill="none" xmlns="http://www.w3.org/2000/svg">
<rect x="0.5" y="0.5" width="31" height="23" rx="7.5" fill="url(#paint0_linear_4843_5506)"/>
<rect x="0.5" y="0.5" width="31" height="23" rx="7.5" stroke="url(#paint1_linear_4843_5506)"/>
<path fill-rule="evenodd" clip-rule="evenodd" d="M22.3643 7.40732C22.5518 7.59484 22.6571 7.84915 22.6571 8.11432C22.6571 8.37948 22.5518 8.63379 22.3643 8.82132L14.869 16.3167C14.77 16.4157 14.6524 16.4943 14.5229 16.5479C14.3935 16.6016 14.2548 16.6292 14.1147 16.6292C13.9746 16.6292 13.8359 16.6016 13.7064 16.5479C13.577 16.4943 13.4594 16.4157 13.3603 16.3167L9.63634 12.5933C9.54083 12.5011 9.46465 12.3907 9.41224 12.2687C9.35983 12.1467 9.33225 12.0155 9.33109 11.8827C9.32994 11.7499 9.35524 11.6183 9.40552 11.4954C9.4558 11.3725 9.53006 11.2608 9.62395 11.1669C9.71784 11.073 9.82949 10.9988 9.95239 10.9485C10.0753 10.8982 10.207 10.8729 10.3397 10.8741C10.4725 10.8752 10.6037 10.9028 10.7257 10.9552C10.8478 11.0076 10.9581 11.0838 11.0503 11.1793L14.1143 14.2433L20.9497 7.40732C21.0425 7.31439 21.1528 7.24067 21.2742 7.19038C21.3955 7.14008 21.5256 7.1142 21.657 7.1142C21.7884 7.1142 21.9185 7.14008 22.0398 7.19038C22.1612 7.24067 22.2715 7.31439 22.3643 7.40732Z" fill="white"/>
<defs>
<linearGradient id="paint0_linear_4843_5506" x1="16" y1="0" x2="16" y2="24" gradientUnits="userSpaceOnUse">
<stop stop-color="#0CA93D"/>
<stop offset="1" stop-color="#3EDB6F"/>
</linearGradient>
<linearGradient id="paint1_linear_4843_5506" x1="16" y1="0" x2="16" y2="24" gradientUnits="userSpaceOnUse">
<stop stop-color="#00BC25"/>
<stop offset="1" stop-color="#28FF6B"/>
</linearGradient>
</defs>
</svg>
