<svg width="193" height="121" viewBox="0 0 193 121" fill="none" xmlns="http://www.w3.org/2000/svg">
<path d="M191.005 0H30.5177L12.7617 25.6101H208.762L191.005 0Z" fill="#245FFF"/>
<path d="M205.062 73.5H16.4609V151.467H205.062V73.5Z" fill="#EEEEEE"/>
<path d="M205.062 73.5H16.4609V78.7359H205.062V73.5Z" fill="#8FB6FF"/>
<path opacity="0.15" d="M205.062 78.7344H16.4609V80.3565H205.062V78.7344Z" fill="#8FB6FF"/>
<path d="M193.927 25.6172H24.2188V73.5071H193.927V25.6172Z" fill="#EEEEEE"/>
<path d="M198.125 25.6172H23.4102V28.6618H198.125V25.6172Z" fill="#8FB6FF"/>
<path d="M137.305 87.3828H84.2141L74.0273 104.305H147.492L137.305 87.3828Z" fill="#245FFF"/>
<path d="M141.723 104.305H79.7969V149.074H141.723V104.305Z" fill="#EEEEEE"/>
<path d="M39.7082 107.307H27.6719V97.372C27.6719 95.5574 29.1433 94.0859 30.958 94.0859H36.4213C38.2368 94.0859 39.7074 95.5574 39.7074 97.372V107.307H39.7082Z" fill="#CDCDCD"/>
<path d="M63.0949 107.307H51.0586V97.372C51.0586 95.5574 52.53 94.0859 54.3447 94.0859H59.8081C61.6235 94.0859 63.0942 95.5574 63.0942 97.372V107.307H63.0949Z" fill="#CDCDCD"/>
<path d="M39.7082 129.151H27.6719V119.216C27.6719 117.401 29.1433 115.93 30.958 115.93H36.4213C38.2368 115.93 39.7074 117.401 39.7074 119.216V129.151H39.7082Z" fill="#CDCDCD"/>
<path d="M63.0949 129.151H51.0586V119.216C51.0586 117.401 52.53 115.93 54.3447 115.93H59.8081C61.6235 115.93 63.0942 117.401 63.0942 119.216V129.151H63.0949Z" fill="#CDCDCD"/>
<path d="M40.5892 107.289H27.1016V109.034H40.5892V107.289Z" fill="#8FB6FF"/>
<path opacity="0.15" d="M33.6279 107.289H27.1016V109.034H33.6279V107.289Z" fill="#8FB6FF"/>
<path d="M63.8235 107.289H50.3359V109.034H63.8235V107.289Z" fill="#8FB6FF"/>
<path opacity="0.15" d="M57.0797 107.289H50.3359V109.034H57.0797V107.289Z" fill="#8FB6FF"/>
<path d="M45.9465 45.3853H33.9102V35.4502C33.9102 33.6347 35.3816 32.1641 37.1962 32.1641H42.6596C44.4751 32.1641 45.9457 33.6355 45.9457 35.4502V45.3853H45.9465Z" fill="#CDCDCD"/>
<path d="M69.3332 45.3853H57.2969V35.4502C57.2969 33.6347 58.7683 32.1641 60.5838 32.1641H66.0471C67.8625 32.1641 69.334 33.6355 69.334 35.4502V45.3853H69.3332Z" fill="#CDCDCD"/>
<path d="M45.9465 67.2447H33.9102V57.3095C33.9102 55.4941 35.3816 54.0234 37.1962 54.0234H42.6596C44.4751 54.0234 45.9457 55.4949 45.9457 57.3095V67.2447H45.9465Z" fill="#CDCDCD"/>
<path d="M69.3332 67.2447H57.2969V57.3095C57.2969 55.4941 58.7683 54.0234 60.5838 54.0234H66.0471C67.8625 54.0234 69.334 55.4949 69.334 57.3095V67.2447H69.3332Z" fill="#CDCDCD"/>
<path d="M46.8274 45.3828H33.3398V47.1276H46.8274V45.3828Z" fill="#8FB6FF"/>
<path opacity="0.15" d="M40.0836 45.3828H33.3398V47.1276H40.0836V45.3828Z" fill="#8FB6FF"/>
<path d="M46.8274 67.2422H33.3398V68.987H46.8274V67.2422Z" fill="#8FB6FF"/>
<path opacity="0.15" d="M40.0836 67.2422H33.3398V68.987H40.0836V67.2422Z" fill="#8FB6FF"/>
<path d="M70.0657 45.3828H56.5781V47.1276H70.0657V45.3828Z" fill="#8FB6FF"/>
<path opacity="0.15" d="M63.3219 45.3828H56.5781V47.1276H63.3219V45.3828Z" fill="#8FB6FF"/>
<path d="M70.0657 67.2422H56.5781V68.987H70.0657V67.2422Z" fill="#8FB6FF"/>
<path opacity="0.15" d="M63.3219 67.2422H56.5781V68.987H63.3219V67.2422Z" fill="#8FB6FF"/>
<path d="M103.314 45.3853H91.2773V35.4502C91.2773 33.6347 92.7488 32.1641 94.5634 32.1641H100.027C101.842 32.1641 103.313 33.6355 103.313 35.4502L103.314 45.3853Z" fill="#CDCDCD"/>
<path d="M126.7 45.3853H114.664V35.4502C114.664 33.6347 116.136 32.1641 117.951 32.1641H123.414C125.23 32.1641 126.701 33.6355 126.701 35.4502V45.3853H126.7Z" fill="#CDCDCD"/>
<path d="M103.314 67.2447H91.2773V57.3095C91.2773 55.4941 92.7488 54.0234 94.5634 54.0234H100.027C101.842 54.0234 103.313 55.4949 103.313 57.3095L103.314 67.2447Z" fill="#CDCDCD"/>
<path d="M126.7 67.2447H114.664V57.3095C114.664 55.4941 116.136 54.0234 117.951 54.0234H123.414C125.23 54.0234 126.701 55.4949 126.701 57.3095V67.2447H126.7Z" fill="#CDCDCD"/>
<path d="M104.195 45.3828H90.707V47.1276H104.195V45.3828Z" fill="#8FB6FF"/>
<path d="M104.195 67.2422H90.707V68.987H104.195V67.2422Z" fill="#8FB6FF"/>
<path d="M127.429 45.3828H113.941V47.1276H127.429V45.3828Z" fill="#8FB6FF"/>
<path d="M127.429 67.2422H113.941V68.987H127.429V67.2422Z" fill="#8FB6FF"/>
<path opacity="0.15" d="M120.685 45.3828H113.941V47.1276H120.685V45.3828Z" fill="#8FB6FF"/>
<path opacity="0.15" d="M97.4508 45.3828H90.707V47.1276H97.4508V45.3828Z" fill="#8FB6FF"/>
<path opacity="0.15" d="M97.4508 67.2422H90.707V68.987H97.4508V67.2422Z" fill="#8FB6FF"/>
<path opacity="0.15" d="M120.685 67.2422H113.941V68.987H120.685V67.2422Z" fill="#8FB6FF"/>
<path d="M160.681 45.3853H148.645V35.4502C148.645 33.6347 150.116 32.1641 151.931 32.1641H157.395C159.209 32.1641 160.681 33.6355 160.681 35.4502V45.3853Z" fill="#CDCDCD"/>
<path d="M184.068 45.3853H172.031V35.4502C172.031 33.6347 173.503 32.1641 175.318 32.1641H180.782C182.597 32.1641 184.068 33.6355 184.068 35.4502V45.3853H184.068Z" fill="#CDCDCD"/>
<path d="M160.681 67.2447H148.645V57.3095C148.645 55.4941 150.116 54.0234 151.931 54.0234H157.395C159.209 54.0234 160.681 55.4949 160.681 57.3095V67.2447Z" fill="#CDCDCD"/>
<path d="M184.068 67.2447H172.031V57.3095C172.031 55.4941 173.503 54.0234 175.318 54.0234H180.782C182.597 54.0234 184.068 55.4949 184.068 57.3095V67.2447H184.068Z" fill="#CDCDCD"/>
<path d="M161.562 45.3828H148.074V47.1276H161.562V45.3828Z" fill="#8FB6FF"/>
<path d="M161.562 67.2422H148.074V68.987H161.562V67.2422Z" fill="#8FB6FF"/>
<path opacity="0.15" d="M155.388 45.3828H148.074V47.1276H155.388V45.3828Z" fill="#8FB6FF"/>
<path opacity="0.15" d="M155.388 67.2422H148.074V68.987H155.388V67.2422Z" fill="#8FB6FF"/>
<path d="M184.796 45.3828H171.309V47.1276H184.796V45.3828Z" fill="#8FB6FF"/>
<path d="M184.796 67.2422H171.309V68.987H184.796V67.2422Z" fill="#8FB6FF"/>
<path opacity="0.15" d="M178.052 45.3828H171.309V47.1276H178.052V45.3828Z" fill="#8FB6FF"/>
<path opacity="0.15" d="M178.052 67.2422H171.309V68.987H178.052V67.2422Z" fill="#8FB6FF"/>
<path d="M170.372 107.307H158.336V97.372C158.336 95.5574 159.807 94.0859 161.623 94.0859H167.086C168.901 94.0859 170.372 95.5574 170.372 97.372V107.307Z" fill="#CDCDCD"/>
<path d="M193.767 107.307H181.73V97.372C181.73 95.5574 183.202 94.0859 185.017 94.0859H190.48C192.295 94.0859 193.767 95.5574 193.767 97.372V107.307Z" fill="#CDCDCD"/>
<path d="M170.372 129.151H158.336V119.216C158.336 117.401 159.807 115.93 161.623 115.93H167.086C168.901 115.93 170.372 117.401 170.372 119.216V129.151Z" fill="#CDCDCD"/>
<path d="M193.767 129.151H181.73V119.216C181.73 117.401 183.202 115.93 185.017 115.93H190.48C192.295 115.93 193.767 117.401 193.767 119.216V129.151Z" fill="#CDCDCD"/>
<path d="M171.257 107.289H157.77V109.034H171.257V107.289Z" fill="#8FB6FF"/>
<path opacity="0.15" d="M164.809 107.289H157.77V109.034H164.809V107.289Z" fill="#8FB6FF"/>
<path d="M194.495 107.289H181.008V109.034H194.495V107.289Z" fill="#8FB6FF"/>
<path opacity="0.15" d="M187.752 107.289H181.008V109.034H187.752V107.289Z" fill="#8FB6FF"/>
<path d="M122.881 117.898H98.6445V149.085H122.881V117.898Z" fill="#CDCDCD"/>
<path d="M111.372 117.898H110.16V149.085H111.372V117.898Z" fill="#8FB6FF"/>
<path d="M85.365 104.32H79.7891V149.09H85.365V104.32Z" fill="#CDCDCD"/>
<path d="M141.717 104.32H136.141V149.09H141.717V104.32Z" fill="#CDCDCD"/>
<path d="M86.7387 104.305H78.3945V106.628H86.7387V104.305Z" fill="#8FB6FF"/>
<path d="M143.106 104.305H134.762V106.628H143.106V104.305Z" fill="#8FB6FF"/>
</svg>
