<svg width="162" height="177" viewBox="0 0 162 177" fill="none" xmlns="http://www.w3.org/2000/svg">
<path d="M74.5664 63.0574C68.6668 61.0853 61.6319 62.8756 59.5899 68.5329C58.5223 71.4915 58.4961 76.4506 56.7834 79.1186C55.4162 81.249 53.1672 82.8269 51.3403 84.6154C49.1711 86.739 49.901 90.0138 51.4048 91.8853C56.4324 98.1434 44.3339 106.165 47.1715 114.699C59.8737 110.834 94.8622 113.412 109.82 113.545C113.192 106.268 98.8727 95.2151 101.354 89.4017C102.257 87.2884 103.508 85.0804 102.634 82.9635C101.56 80.3627 98.6472 78.8638 97.2394 76.4136C95.6534 73.6535 97.0152 71.5632 96.1406 68.5257C95.0955 64.8964 91.3484 58.1552 87.4841 57.4348C83.6193 56.714 76.9746 60.0717 74.5664 63.0574Z" fill="#332737"/>
<path d="M132.348 42.8047C132.348 42.8047 165.417 46.6419 167.772 64.8746C167.772 64.8746 135.393 70.9776 132.348 42.8047Z" fill="#393041"/>
<path d="M155.062 64.8629C146.794 68.6519 134.07 57.0098 134.07 57.0098L132.356 42.8147L129.906 22.5391L139.758 22.9225C141.273 27.9745 146.961 43.3244 150.958 53.9786C153.299 60.2259 155.062 64.8629 155.062 64.8629Z" fill="#DE6E3E"/>
<path d="M155.062 64.8608C146.794 68.6498 134.07 57.0077 134.07 57.0077L132.355 42.8125C132.64 43.0606 139.938 49.3214 150.958 53.9765C153.299 60.2238 155.062 64.8608 155.062 64.8608Z" fill="#9C2527"/>
<path d="M129.906 22.532C129.906 22.532 127.025 21.7152 125.616 19.8134C123.824 17.3935 120.64 15.7439 117.817 15.5197C116.126 15.3853 116.607 12.562 119.879 12.2003C122.78 11.8796 126.287 12.9653 126.287 12.9653C126.287 12.9653 122.313 4.93671 120.469 3.7973C118.624 2.6579 122.129 1.22034 124.36 3.68905C126.484 6.04002 128.789 9.64903 128.789 9.64903C128.789 9.64903 129.328 2.52619 128.783 0.700258C128.238 -1.12567 133.101 0.30918 132.311 8.71893C132.311 8.71893 135.411 2.15406 135.801 0.656505C136.189 -0.841047 139.37 2.22668 135.832 8.88718C135.832 8.88718 138.087 6.43065 139.596 4.85416C141.106 3.27767 140.655 9.37027 139.404 11.4592C138.153 13.5481 141.757 16.8788 139.759 22.9182L129.906 22.532Z" fill="#DE6E3E"/>
<path d="M139.893 127.141C127.858 132.437 116.523 131.142 116.523 131.142C116.405 134.764 116.568 139.374 116.915 144.489C118.453 167.111 123.568 199.556 123.568 199.556H33.4852L39.0469 184.256C6.37591 207.932 -1.05772 180.151 0.115059 169.781C0.976603 162.171 18.0316 139.122 28.2663 126.32C32.1951 121.413 35.1136 118.012 35.7406 117.565C37.0261 116.645 45.9438 112.617 53.3684 109.324C55.2989 108.467 57.1303 107.66 58.7 106.969C61.6726 105.666 63.7024 104.782 63.7024 104.782L90.9831 103.943C97.6499 104.349 103.302 104.019 108.083 103.108V103.104C139.942 97.0504 133.262 65.4213 130.74 57.0089C127.84 47.3334 132.351 42.8047 132.351 42.8047C134.281 63.369 167.773 64.8755 167.773 64.8755C170.083 104.651 154.476 120.732 139.893 127.141Z" fill="#524861"/>
<path opacity="0.2" d="M123.564 199.551H33.4805L39.0422 184.251C65.2674 186.763 104.452 170.985 116.91 144.484C118.448 167.106 123.564 199.551 123.564 199.551Z" fill="#2F0D26"/>
<path d="M104.886 176.219C104.886 176.219 58.9095 198.955 49.4655 193.152C40.0214 187.348 80.8229 181.074 80.8229 181.074" stroke="#5A5166" stroke-width="0.45107" stroke-miterlimit="10" stroke-linecap="round" stroke-linejoin="round"/>
<path d="M20.4062 148.43C20.4062 148.43 23.4902 172.767 47.6035 170.685" stroke="#5A5166" stroke-width="0.45107" stroke-miterlimit="10" stroke-linecap="round" stroke-linejoin="round"/>
<path d="M108.082 103.102C108.082 103.102 102.547 136.819 80.1833 137.018C64.1117 137.157 56.2631 121.171 53.3672 109.317C54.0528 109.015 54.7249 108.713 55.379 108.429C55.9699 108.167 56.5427 107.914 57.093 107.666C57.6523 107.423 58.1891 107.188 58.6988 106.963C61.6714 105.659 63.7012 104.775 63.7012 104.775L90.9819 103.936C95.858 104.234 100.193 104.135 104.04 103.706C104.586 103.647 105.127 103.58 105.655 103.503C106.49 103.386 107.297 103.25 108.082 103.102Z" fill="#EBA231"/>
<path d="M105.655 103.508C103.287 110.766 94.8565 133.044 80.1336 134.627C64.8965 136.264 57.1832 114.37 55.3789 108.433C55.9698 108.172 56.5427 107.919 57.093 107.671C59.4025 113.837 65.3931 133.845 80.1336 132.448C92.5872 131.269 101.384 111.059 104.04 103.711C104.586 103.652 105.127 103.584 105.655 103.508Z" fill="white"/>
<path opacity="0.2" d="M58.6993 106.961V107.457C58.5685 123.66 54.4187 139.433 50.986 155.176C44.7658 152.406 40.0205 146.633 36.0827 140.584C33.8318 137.133 31.7704 133.529 29.9075 129.803C29.3347 128.653 28.7934 127.485 28.2656 126.312C32.1944 121.404 35.1129 118.003 35.7399 117.557C37.3592 116.397 51.1033 110.299 58.6993 106.961Z" fill="#2F0D26"/>
<path d="M24.4258 141.219C24.4258 141.219 56.4224 144.932 58.7008 162.573C58.7008 162.573 27.3726 168.478 24.4258 141.219Z" fill="#393041"/>
<path d="M77.798 59.4456C77.798 59.4456 45.3259 52.8 43.8365 52.2411C42.3466 51.6827 73.7726 35.1095 77.4258 33.9922C81.079 32.8749 113.294 49.2298 114.225 50.3629C115.156 51.4964 80.7466 59.8678 77.798 59.4456Z" fill="#393041"/>
<path d="M91.283 103.928L84.0207 101.851L83.4772 85.2656H71.0209L70.9054 101.93L64 104.766C64 104.766 66.7759 116.633 67.7538 118.119C68.7313 119.605 87.3835 119.38 88.6844 118.855C89.9857 118.33 91.283 103.928 91.283 103.928Z" fill="#DE6E3E"/>
<path d="M71.0204 85.2656L70.9297 98.3372C70.9297 98.3372 76.1508 97.5704 78.3078 94.6867L77.9623 85.2656H71.0204Z" fill="#9C2527"/>
<path d="M88.3381 77.6653C79.963 80.5408 75.5674 68.5234 75.5674 68.5234C72.0783 72.6408 67.2632 73.4793 67.2632 73.4793C67.2632 73.4793 67.3331 78.4321 67.2632 83.2473C67.1933 88.0624 69.6358 94.6927 77.3121 94.6927C84.9884 94.6927 87.3195 87.5013 87.5703 84.9225C87.8933 81.6081 88.3381 77.6653 88.3381 77.6653Z" fill="#DE6E3E"/>
<path d="M96.1406 68.5308C85.3194 65.8244 60.082 67.4347 60.082 67.4347L60.7316 61.6114L61.6518 53.3613C75.9281 47.2177 92.4373 52.4321 92.4373 52.4321L93.2131 55.7971L96.1406 68.5308Z" fill="#5A5166"/>
<path opacity="0.2" d="M93.212 55.7971C76.8607 53.3072 60.7305 61.6114 60.7305 61.6114L61.6507 53.3613C75.927 47.2177 92.4362 52.4321 92.4362 52.4321L93.212 55.7971Z" fill="#2F0D26"/>
<path d="M64.0003 104.781C64.0003 104.781 51.8173 106.745 50.8511 114.989C49.5981 125.678 50.207 144.294 49.8849 160.718C49.5629 177.141 31.207 190.989 31.207 190.989C31.207 190.989 37.0037 197.17 44.0887 199.554C44.0887 199.554 63.9461 180.362 64.0007 166.836C64.0553 153.311 58.2009 119.216 64.0003 104.781Z" fill="#F6B654"/>
<path d="M91.2812 103.938C91.2812 103.938 95.6124 107.576 98.8331 117.237C102.053 126.898 90.9592 147.186 95.0572 161.034C99.1551 174.881 112.358 189.695 121.376 192.916C121.376 192.916 125.884 182.932 131.037 176.814C131.037 176.814 113.357 168.763 109.477 159.746C105.596 150.729 109.814 124.509 109.477 119.263C109.138 114.017 103.052 104.808 91.2812 103.938Z" fill="#F6B654"/>
<path d="M19.9766 100.992C19.9766 100.992 22.5671 97.5716 27.3308 96.0542C32.0946 94.5368 36.1149 96.2617 36.1149 96.2617C36.1149 96.2617 41.2788 107.883 45.3186 113.024C49.3584 118.166 73.4924 136.344 77.1037 138.978C77.1037 138.978 68.3547 142.994 67.8617 146.896C67.8617 146.896 46.5162 130.937 40.6126 125.168C34.7099 119.398 27.1138 107.755 19.9766 100.992Z" fill="#D6D3CA"/>
<path d="M38.6602 123.126C38.6602 123.126 43.7969 117.008 47.1141 114.953L50.6902 118.227C50.6902 118.227 44.7095 123.232 42.7599 127.137C42.7599 127.137 39.8226 124.444 38.6602 123.126Z" fill="#E2493B"/>
<path d="M48.2485 117.122C47.3902 112.777 47.8065 108.189 49.4322 104.07C51.7033 107.097 51.8603 111.55 49.8079 114.729C53.3077 112.833 57.2091 111.114 61.1577 110.614C60.3882 111.934 59.6047 113.598 58.2686 114.339C57.7269 114.639 57.1279 114.818 56.5343 114.994C53.6889 115.84 51.0939 116.276 48.2485 117.122Z" fill="#E2493B"/>
<path d="M77.1013 138.977C77.1013 138.977 78.1695 147.451 67.8594 146.894C67.8594 146.894 68.5549 141.232 77.1013 138.977Z" fill="#989792"/>
<path d="M45.1104 132.446C45.1104 132.446 44.3147 126.012 44.5231 123.799C44.7319 121.586 48.9386 115.815 49.7596 115.484C50.5805 115.153 52.669 115.963 53.9662 116.357C55.2635 116.752 54.8688 118.049 54.8688 118.049C54.8688 118.049 56.7714 117.942 57.3474 118.187C57.9235 118.432 57.7399 120.525 57.7399 120.525C57.7399 120.525 58.5062 121.06 59.6786 122.056C60.8509 123.051 60.7287 126.436 60.7287 126.436L59.6754 125.6C59.6754 125.6 57.9392 126.208 58.0299 126.979C58.1206 127.749 59.3475 134.523 53.5964 137.467L45.1104 132.446Z" fill="#DE6E3E"/>
<path d="M53.5956 137.466C52.6754 141.909 51.6109 149.085 50.8305 154.719C50.172 159.464 49.7119 163.109 49.7119 163.109C40.4153 163.109 33.7305 158.283 33.7305 158.283L37.8578 148.909L45.111 132.445L53.5956 137.466Z" fill="#DE6E3E"/>
<path d="M50.1314 157.446C49.4728 162.192 49.7119 163.106 49.7119 163.106C40.4153 163.106 33.7305 158.279 33.7305 158.279L37.8578 148.906C40.4794 153.273 45.6162 155.985 50.1314 157.446Z" fill="#9C2527"/>
<path opacity="0.2" d="M139.892 127.137C127.857 132.433 116.522 131.138 116.522 131.138C116.522 131.138 116.13 117.931 116.522 114.016C116.522 114.016 126.68 125.193 139.892 127.137Z" fill="#2F0D26"/>
<path d="M143.327 84.0246C143.567 85.3796 146.27 86.0698 147.509 85.4707C149.686 84.0246 145.264 76.5747 141.656 73.9644C134.817 69.0162 130.74 56.8021 130.25 55.1016" stroke="#5A5166" stroke-width="0.45107" stroke-miterlimit="10" stroke-linecap="round" stroke-linejoin="round"/>
<path d="M151.542 115.105C150.485 116.269 149.09 116.725 148.427 116.123C147.765 115.521 148.084 114.089 149.142 112.924C150.2 111.76 151.595 111.304 152.257 111.906C152.92 112.509 152.6 113.94 151.542 115.105Z" fill="#5A5166"/>
<path d="M132.207 61.1797C134.374 66.9868 135.575 73.1529 135.747 79.3483C135.784 80.7101 135.773 82.0805 136.005 83.4224" stroke="#5A5166" stroke-width="0.45107" stroke-miterlimit="10" stroke-linecap="round" stroke-linejoin="round"/>
<path d="M130.086 55.2344C134.546 60.847 140.727 64.8963 147.285 67.7931C153.842 70.6894 160.815 72.5086 167.753 74.3151" stroke="#5A5166" stroke-width="0.45107" stroke-miterlimit="10" stroke-linecap="round" stroke-linejoin="round"/>
<path d="M2.77344 167.404C3.2209 165.821 6.86599 164.361 7.93819 163.113C14.1066 155.931 20.4991 150.292 24.4243 141.219" stroke="#5A5166" stroke-width="0.45107" stroke-miterlimit="10" stroke-linecap="round" stroke-linejoin="round"/>
<path d="M92.9772 79.5208C93.4585 81.1879 92.4972 82.9295 90.8305 83.4108C89.1634 83.8921 87.4218 82.9309 86.9405 81.2642C86.4592 79.597 87.4204 77.8554 89.0871 77.3741C90.7543 76.8928 92.4959 77.8536 92.9772 79.5208Z" fill="#DE6E3E"/>
<path d="M90.7529 78.8516C90.7529 78.8516 88.3974 79.5426 89.6229 81.8543" stroke="#9C2527" stroke-width="0.45107" stroke-miterlimit="10" stroke-linecap="round" stroke-linejoin="round"/>
<path d="M89.2852 80.3828L90.4137 80.63" stroke="#9C2527" stroke-width="0.45107" stroke-miterlimit="10" stroke-linecap="round" stroke-linejoin="round"/>
<path d="M62.2452 79.5208C61.7639 81.1879 62.7251 82.9295 64.3918 83.4108C66.059 83.8921 67.8006 82.9309 68.2819 81.2642C68.7631 79.597 67.8019 77.8554 66.1352 77.3741C64.4681 76.8928 62.7265 77.8536 62.2452 79.5208Z" fill="#DE6E3E"/>
<path d="M64.4688 78.8516C64.4688 78.8516 66.8242 79.5426 65.5987 81.8543" stroke="#9C2527" stroke-width="0.45107" stroke-miterlimit="10" stroke-linecap="round" stroke-linejoin="round"/>
<path d="M65.9333 80.3828L64.8047 80.63" stroke="#9C2527" stroke-width="0.45107" stroke-miterlimit="10" stroke-linecap="round" stroke-linejoin="round"/>
<path d="M78.2584 79.2109L78.3473 83.746C78.3473 83.746 80.1488 83.9778 79.9026 84.9828C79.6567 85.9878 77.6797 85.9125 77.6797 85.9125" stroke="#9C2527" stroke-width="0.45107" stroke-miterlimit="10" stroke-linecap="round" stroke-linejoin="round"/>
<path d="M82.5601 79.3543C82.58 80.0133 82.1952 80.56 81.7008 80.5744C81.2065 80.5893 80.7901 80.0669 80.7703 79.4079C80.7504 78.7489 81.1352 78.2027 81.6296 78.1878C82.1235 78.1734 82.5403 78.6957 82.5601 79.3543Z" fill="#332737"/>
<path d="M74.5449 79.9558C74.5648 80.6149 74.18 81.1611 73.6857 81.176C73.1913 81.1909 72.7745 80.6685 72.7546 80.0095C72.7348 79.3505 73.1196 78.8038 73.6139 78.7894C74.1083 78.7745 74.5251 79.2968 74.5449 79.9558Z" fill="#332737"/>
<path d="M80.5352 76.6478C82.5036 73.6914 84.4685 77.558 83.8636 76.7114" stroke="#393041" stroke-width="0.45107" stroke-miterlimit="10" stroke-linecap="round" stroke-linejoin="round"/>
<path d="M72.25 76.4681C74.2185 73.5118 76.1833 77.3783 75.5784 76.5317" stroke="#393041" stroke-width="0.45107" stroke-miterlimit="10" stroke-linecap="round" stroke-linejoin="round"/>
<path d="M72.4727 87.67L83.7255 87.2031C83.7255 87.2031 82.5103 91.772 77.6275 91.6123C72.7451 91.4522 72.4727 87.67 72.4727 87.67Z" fill="white"/>
<path d="M77.9453 114.211C78.1086 116.099 78.6377 117.216 78.801 119.104" stroke="#9C2527" stroke-width="0.45107" stroke-miterlimit="10" stroke-linecap="round" stroke-linejoin="round"/>
<path d="M62.4035 41.7063C60.2613 39.4581 57.0326 37.0336 54.392 38.6679C52.8223 39.639 52.3099 41.6499 52.0004 43.4695C50.9522 49.6307 50.6869 55.91 49.5078 62.0473C48.3283 68.1845 46.1207 74.334 41.8117 78.8604C37.5026 83.3869 30.7591 85.9652 24.8086 84.0559" stroke="#F6B654" stroke-width="0.45107" stroke-miterlimit="10" stroke-linecap="round" stroke-linejoin="round"/>
<path d="M11.6621 78.3213C14.0884 79.7295 16.2382 80.5595 16.2382 80.5595C15.2468 79.9181 13.6901 78.7106 12.2535 77.5554L13.4786 75.9699C16.0384 78.0628 18.646 79.4557 18.646 79.4557C17.5251 78.5189 15.655 76.619 14.1728 75.0713L15.0546 73.9297C15.0546 73.9297 23.3633 81.6588 28.1104 84.6715C28.1104 84.6715 21.6375 87.7933 10.3008 80.0827L11.6621 78.3213Z" fill="#F6B654"/>
<path d="M127.551 10.5948C130.591 8.88614 134.357 8.52708 137.665 9.63085" stroke="#9C2527" stroke-width="0.45107" stroke-miterlimit="10" stroke-linecap="round" stroke-linejoin="round"/>
<path d="M126.359 12.9822C127.09 13.1202 127.839 13.2582 128.571 13.1306C129.214 13.0183 129.805 12.707 130.44 12.5564C130.983 12.4274 131.554 12.4193 132.101 12.532C132.72 12.6601 133.314 12.9506 133.752 13.4071C134.274 13.9511 134.545 14.6972 134.644 15.4446C134.742 16.192 134.682 16.9502 134.622 17.7017" stroke="#9C2527" stroke-width="0.45107" stroke-miterlimit="10" stroke-linecap="round" stroke-linejoin="round"/>
</svg>
