<svg width="100" height="22" viewBox="0 0 100 22" fill="none" xmlns="http://www.w3.org/2000/svg">
<path d="M39.8109 11.1691L38.083 6.5699C38.0671 6.52846 38.0389 6.49282 38.0023 6.46769C37.9657 6.44256 37.9223 6.4291 37.8779 6.4291C37.8334 6.4291 37.7901 6.44256 37.7534 6.46769C37.7168 6.49282 37.6887 6.52846 37.6727 6.5699L35.9448 11.1699C35.9328 11.2025 35.929 11.2376 35.9336 11.272C35.9383 11.3065 35.9513 11.3393 35.9715 11.3675C35.9918 11.3958 36.0186 11.4187 36.0497 11.4343C36.0808 11.4498 36.1152 11.4575 36.1499 11.4566H39.6205C39.6722 11.4572 39.7221 11.4382 39.7604 11.4034C39.7985 11.3686 39.8221 11.3206 39.8264 11.2691C39.8296 11.2353 39.8243 11.2012 39.8109 11.1699V11.1691ZM40.6161 13.75H35.1396C35.095 13.7503 35.0514 13.7642 35.0148 13.7898C34.9782 13.8154 34.9501 13.8516 34.9345 13.8934L33.8507 16.7625C33.8351 16.8043 33.8072 16.8403 33.7707 16.8659C33.7343 16.8916 33.6909 16.9055 33.6462 16.9059H31.272C31.2357 16.9064 31.1999 16.8979 31.1678 16.8811C31.1357 16.8643 31.1082 16.8398 31.0879 16.8097C31.0676 16.7797 31.0551 16.745 31.0516 16.7089C31.0481 16.6728 31.0535 16.6364 31.0676 16.603L36.5293 3.19637C36.5457 3.1558 36.5743 3.12139 36.6112 3.09803C36.6482 3.07467 36.6916 3.06354 36.7352 3.06622H39.0043C39.0474 3.06648 39.0896 3.07882 39.1259 3.10183C39.1623 3.12484 39.1915 3.15759 39.2102 3.19637L44.6712 16.603C44.6853 16.6365 44.6908 16.673 44.6872 16.7092C44.6836 16.7454 44.671 16.7801 44.6507 16.8102C44.6304 16.8403 44.6029 16.865 44.5706 16.8818C44.5384 16.8986 44.5025 16.9072 44.4661 16.9066H42.0955C42.0507 16.9063 42.0071 16.8923 41.9705 16.8666C41.9339 16.8408 41.9059 16.8046 41.8904 16.7625L40.8065 13.8934C40.7962 13.8511 40.7717 13.8137 40.737 13.7875C40.7023 13.7612 40.6596 13.7477 40.6161 13.7493V13.75ZM45.7999 7.76621H47.8359C47.8934 7.76731 47.9483 7.79047 47.9892 7.83084C48.0301 7.87113 48.054 7.92569 48.0558 7.98312V16.6912C48.054 16.7486 48.0301 16.8029 47.9891 16.843C47.9482 16.8831 47.8933 16.9059 47.8359 16.9066H45.8007C45.7432 16.9061 45.6882 16.8834 45.6471 16.8433C45.606 16.8031 45.582 16.7486 45.5801 16.6912V7.98312C45.5798 7.95422 45.5853 7.92562 45.5963 7.89893C45.6073 7.87223 45.6237 7.84804 45.6443 7.82775C45.6648 7.80753 45.6893 7.79165 45.7162 7.78106C45.7431 7.77047 45.7718 7.7654 45.8007 7.76621H45.7999ZM55.4661 9.88532C55.4644 9.9429 55.4407 9.9976 55.3997 10.0381C55.3588 10.0786 55.3039 10.1019 55.2462 10.103H55.1874C54.1771 10.103 53.4448 10.3324 52.9764 10.8089C52.508 11.2853 52.2735 12.0633 52.2735 13.1574V16.6758C52.2716 16.7331 52.2479 16.7875 52.2071 16.8279C52.1664 16.8682 52.1117 16.8914 52.0543 16.8927H50.047C49.9897 16.8914 49.935 16.8682 49.8943 16.8279C49.8535 16.7875 49.8298 16.7331 49.8279 16.6758V7.98312C49.8298 7.92569 49.8536 7.87113 49.8946 7.83084C49.9354 7.79047 49.9903 7.76731 50.0477 7.76621H52.0389C52.0965 7.76716 52.1515 7.79018 52.1926 7.83054C52.2337 7.87091 52.2576 7.92554 52.2595 7.98312V9.69856H52.3029C52.5062 9.04694 52.9048 8.47356 53.4448 8.05591C54.0092 7.65782 54.6884 7.45532 55.3786 7.47944H55.4808V9.88606H55.4661V9.88532ZM61.0161 9.80003C60.959 9.80098 60.9045 9.82371 60.8637 9.86371C60.8229 9.90363 60.799 9.95768 60.797 10.0147V13.6339C60.7698 13.9169 60.8477 14.1993 61.0161 14.428C61.1632 14.5853 61.4117 14.6574 61.7779 14.6574H61.983C62.0404 14.6587 62.095 14.6819 62.1358 14.7222C62.1765 14.7626 62.2003 14.817 62.2021 14.8743V16.6905C62.2003 16.7477 62.1765 16.8019 62.1357 16.842C62.0949 16.8822 62.0402 16.905 61.983 16.9059H61.1198C60.2257 16.9059 59.5382 16.675 59.0551 16.228C58.5712 15.7677 58.3374 15.1037 58.3374 14.1964V10.0147C58.3354 9.95746 58.3113 9.90319 58.2702 9.86319C58.2291 9.82319 58.1742 9.80054 58.1168 9.80003H56.8433C56.7859 9.79878 56.7311 9.77547 56.6904 9.73495C56.6495 9.69444 56.6259 9.63981 56.6242 9.58238V7.98312C56.6259 7.92576 56.6496 7.87121 56.6904 7.83084C56.7312 7.79047 56.7859 7.76731 56.8433 7.76621H58.1176C58.1749 7.76547 58.2298 7.74268 58.2707 7.7026C58.3117 7.66246 58.3356 7.60812 58.3374 7.55076V4.32063C58.3393 4.26334 58.3632 4.20897 58.4042 4.16884C58.4451 4.12871 58.5 4.10592 58.5573 4.10519H60.5926C60.6499 4.10592 60.7048 4.12871 60.7457 4.16884C60.7867 4.20897 60.8106 4.26334 60.8124 4.32063V7.55076C60.8143 7.60812 60.8382 7.66246 60.8792 7.7026C60.9201 7.74268 60.975 7.76547 61.0323 7.76621H62.4962C62.5537 7.76731 62.6086 7.79047 62.6495 7.83084C62.6904 7.87113 62.7143 7.92569 62.7161 7.98312V9.58238C62.7144 9.63995 62.6907 9.69466 62.6497 9.73518C62.6088 9.77569 62.5539 9.79893 62.4962 9.80003H61.0161ZM70.3154 14.1824C70.5495 13.9347 70.7312 13.6422 70.8495 13.3225C70.9677 13.0028 71.0201 12.6625 71.0036 12.3221C71.0167 11.982 70.9626 11.6427 70.8446 11.3235C70.7265 11.0043 70.5467 10.7115 70.3154 10.4618C69.8196 10.0079 69.1718 9.75613 68.4995 9.75613C67.8273 9.75613 67.1796 10.0079 66.6837 10.4618C66.4496 10.7095 66.2679 11.002 66.1497 11.3216C66.0315 11.6414 65.979 11.9816 65.9955 12.3221C65.9825 12.6622 66.0365 13.0015 66.1546 13.3207C66.2727 13.6399 66.4525 13.9327 66.6837 14.1824C66.9214 14.419 67.2054 14.6039 67.518 14.7253C67.8306 14.8468 68.1649 14.9023 68.4999 14.8883C68.8355 14.9069 69.1712 14.8536 69.4844 14.7319C69.7977 14.6102 70.0812 14.4228 70.3161 14.1824H70.3154ZM65.6286 16.6191C64.9409 16.2293 64.3815 15.6478 64.0183 14.9456C63.6326 14.1247 63.4325 13.2288 63.4325 12.3217C63.4325 11.4147 63.6326 10.5188 64.0183 9.69782C64.3859 8.999 64.9443 8.41893 65.6286 8.02503C66.3163 7.63804 67.094 7.43922 67.883 7.44856C68.5282 7.43275 69.1673 7.57672 69.7433 7.86768C70.2525 8.13731 70.678 8.54143 70.9734 9.03606H71.0176V7.96694C71.0196 7.90981 71.0435 7.85569 71.0843 7.81562C71.125 7.77554 71.1795 7.7526 71.2367 7.7515H73.2433C73.3006 7.75245 73.3554 7.77525 73.3962 7.8154C73.4371 7.85547 73.4611 7.90973 73.4632 7.96694V16.6743C73.4615 16.732 73.4376 16.7868 73.3965 16.8274C73.3554 16.8679 73.3003 16.8911 73.2426 16.8919H71.2382C71.1806 16.8908 71.1257 16.8676 71.0847 16.8271C71.0438 16.7866 71.02 16.7319 71.0183 16.6743V15.6081H70.9742C70.6787 16.1033 70.253 16.5077 69.7433 16.7772C69.1669 17.0671 68.5281 17.2108 67.883 17.1956C67.094 17.205 66.3163 17.0062 65.6286 16.6191ZM81.8257 14.1824C82.0595 13.9347 82.2412 13.6422 82.3596 13.3225C82.4779 13.0028 82.5301 12.6625 82.514 12.3221C82.5272 11.982 82.4728 11.6427 82.3551 11.3235C82.2368 11.0043 82.0566 10.7115 81.8257 10.4618C81.3301 10.0077 80.6816 9.75576 80.0096 9.75576C79.3375 9.75576 78.689 10.0077 78.1934 10.4618C77.9596 10.7097 77.7779 11.0022 77.6595 11.3218C77.5419 11.6415 77.489 11.9817 77.5059 12.3221C77.4926 12.6622 77.5471 13.0015 77.6647 13.3207C77.7831 13.6399 77.9625 13.9327 78.1941 14.1824C78.4316 14.419 78.7154 14.6039 79.0287 14.7253C79.3412 14.8468 79.675 14.9023 80.0103 14.8883C80.3456 14.9069 80.6816 14.8535 80.9948 14.7318C81.3081 14.61 81.5912 14.4227 81.8265 14.1824H81.8257ZM78.7801 16.7765C78.2706 16.5068 77.8448 16.1024 77.5493 15.6074H77.5051V16.675C77.5029 16.7324 77.4794 16.7868 77.439 16.8272C77.3978 16.8675 77.3434 16.8907 77.286 16.8919H75.25C75.1926 16.8907 75.1382 16.8675 75.0971 16.8272C75.0566 16.7868 75.0323 16.7324 75.0309 16.675V3.26769C75.0323 3.21045 75.0566 3.15611 75.0971 3.11588C75.1382 3.07565 75.1926 3.05262 75.25 3.05151H77.286C77.3434 3.05242 77.3978 3.07528 77.439 3.11537C77.4801 3.15545 77.5037 3.20972 77.5059 3.26695V9.04929H77.55C77.8456 8.55488 78.2713 8.15062 78.7801 7.88018C79.3566 7.59047 79.9948 7.44679 80.6397 7.46179C81.4287 7.45231 82.2066 7.65194 82.8941 8.04047C83.5816 8.42959 84.1412 9.01032 84.5044 9.71179C84.9162 10.5235 85.1176 11.4255 85.0912 12.3353C85.1096 13.2445 84.9088 14.1447 84.5051 14.9596C84.1375 15.6589 83.5787 16.239 82.8948 16.6324C82.2066 17.0194 81.4287 17.2183 80.6397 17.2089C79.9941 17.2141 79.3559 17.0655 78.7794 16.775L78.7801 16.7765ZM88.5184 16.8934H86.4838C86.4265 16.8925 86.3713 16.8694 86.3301 16.8288C86.289 16.7882 86.2654 16.7334 86.264 16.6758V3.26843C86.2662 3.21093 86.2897 3.15638 86.3309 3.11612C86.3721 3.07585 86.4272 3.05298 86.4846 3.05225H88.5191C88.5765 3.05352 88.6309 3.07651 88.6713 3.11654C88.7118 3.15658 88.736 3.21064 88.7382 3.26769V16.675C88.739 16.7173 88.7272 16.7588 88.7044 16.7943C88.6816 16.8298 88.6485 16.8577 88.6096 16.8743C88.5809 16.8867 88.55 16.8927 88.5191 16.8919V16.8934H88.5184ZM93.3073 9.87209C92.9529 10.155 92.7095 10.5531 92.6191 10.9971C92.6125 11.0291 92.614 11.0622 92.6221 11.0939C92.6301 11.1255 92.6456 11.1549 92.6669 11.1798C92.6875 11.2047 92.714 11.2246 92.7441 11.2379C92.7735 11.2512 92.8066 11.2576 92.839 11.2566H96.7051C96.736 11.2568 96.7669 11.2502 96.7956 11.2376C96.8243 11.225 96.8493 11.2064 96.8698 11.1832C96.8912 11.16 96.9066 11.1327 96.9162 11.103C96.9257 11.0733 96.9287 11.042 96.925 11.0111C96.8662 10.5801 96.6522 10.1853 96.3235 9.90076C95.9 9.564 95.3706 9.38973 94.8301 9.40959C94.286 9.39488 93.7515 9.55665 93.3073 9.87135L93.3066 9.87209H93.3073ZM98.2573 8.74782C99.0478 9.59709 99.4434 10.7978 99.4426 12.3508V12.6118C99.4404 12.6691 99.4169 12.7233 99.3757 12.7634C99.3345 12.8035 99.2801 12.8264 99.2228 12.8272H92.7662C92.7338 12.8279 92.7022 12.8353 92.6735 12.8491C92.6441 12.8628 92.6184 12.8826 92.5978 12.907C92.5765 12.9315 92.561 12.9601 92.5522 12.991C92.5434 13.0219 92.5412 13.0542 92.5456 13.0861C92.6294 13.6261 92.9051 14.1177 93.3228 14.4706C93.8353 14.8716 94.4743 15.0758 95.1243 15.0464C96.0948 15.0328 97.0235 14.6457 97.7162 13.9655C97.739 13.9446 97.7662 13.929 97.7956 13.9198C97.8257 13.9106 97.8566 13.908 97.8875 13.9122C97.9184 13.9164 97.9478 13.9273 97.9735 13.9441C98 13.961 98.022 13.9833 98.0382 14.0096L99.0191 15.4074C99.0471 15.452 99.0595 15.5046 99.0537 15.5569C99.0485 15.6092 99.0257 15.6583 98.9897 15.6964C98.5029 16.1114 97.9669 16.465 97.3941 16.7493C96.6801 17.0676 95.9051 17.225 95.1235 17.2103C94.2081 17.2311 93.3015 17.0226 92.4875 16.6037C91.7537 16.2182 91.1478 15.6272 90.7448 14.903C90.3184 14.1264 90.1015 13.2521 90.1154 12.3662C90.0993 11.4789 90.3059 10.6016 90.7162 9.81473C91.1007 9.0929 91.6853 8.49738 92.4 8.10003C93.1765 7.67657 94.0493 7.46268 94.9338 7.47944C96.3684 7.46253 97.4669 7.89562 98.2573 8.74709V8.74782ZM48.319 4.53901C48.3232 4.83445 48.2398 5.12449 48.0791 5.37248C47.9185 5.62046 47.6879 5.81525 47.4166 5.93222C47.1453 6.04919 46.8454 6.08309 46.5548 6.02964C46.2642 5.97618 45.9959 5.83777 45.784 5.6319C45.5721 5.42603 45.426 5.16194 45.3641 4.87303C45.3022 4.58412 45.3274 4.28334 45.4365 4.00874C45.5455 3.73413 45.7335 3.49803 45.9768 3.33026C46.22 3.1625 46.5075 3.07062 46.8029 3.06622H46.8102C47.2044 3.0644 47.5834 3.21755 47.8657 3.49265C48.1479 3.76775 48.3108 4.14276 48.319 4.53681V4.53828V4.53901Z" fill="white"/>
<path d="M11.639 0.261562L2.40083 4.08413C1.88724 4.29688 1.89242 5.02658 2.40951 5.23149L11.6862 8.91022C12.5012 9.23346 13.409 9.23346 14.224 8.91022L23.5008 5.23149C24.0176 5.02658 24.0231 4.29688 23.5093 4.08427L14.2713 0.261562C13.4285 -0.0871873 12.4818 -0.0871873 11.639 0.261562Z" fill="white"/>
<path d="M13.7782 10.9189V20.1091C13.7782 20.546 14.2189 20.8455 14.6252 20.6843L24.9623 16.672C25.0776 16.6263 25.1765 16.5471 25.2461 16.4444C25.3158 16.3419 25.353 16.2207 25.353 16.0967V6.9067C25.353 6.46958 24.9123 6.17028 24.506 6.33134L14.1689 10.3437C14.0536 10.3894 13.9548 10.4687 13.8851 10.5713C13.8154 10.6739 13.7782 10.795 13.7782 10.9191" fill="white"/>
<path d="M11.3643 11.393L8.29653 12.8743L7.98506 13.0248L1.50908 16.1278C1.09871 16.3258 0.574615 16.0267 0.574615 15.5707V6.94509C0.574615 6.7801 0.65921 6.63766 0.772657 6.53052C0.819193 6.48418 0.871995 6.44457 0.929517 6.41287C1.08414 6.32001 1.30487 6.29523 1.49255 6.36945L11.3128 10.2605C11.812 10.4585 11.8512 11.158 11.3643 11.3932" fill="white"/>
<path d="M11.3643 11.393L8.29648 12.8743L0.772644 6.53038C0.819196 6.48409 0.871997 6.44453 0.929512 6.41287C1.08413 6.32001 1.30486 6.29523 1.49254 6.36945L11.3128 10.2605C11.8119 10.4585 11.8511 11.158 11.3643 11.3932" fill="white" fill-opacity="0.25"/>
</svg>
