<svg width="122" height="27" viewBox="0 0 122 27" fill="none" xmlns="http://www.w3.org/2000/svg">
<g clip-path="url(#clip0_621_7859)">
<path d="M11.191 5.94859C11.166 5.90655 11.1313 5.87116 11.0897 5.84541C11.048 5.81966 11.0009 5.80428 10.9521 5.80066C10.8861 5.80385 10.8223 5.82599 10.7685 5.86451C10.0927 6.41632 9.16737 8.75765 8.4091 11.8423L9.0801 11.8509C10.4061 11.8658 11.7748 11.8823 13.1285 11.9041C12.7709 10.4908 12.4367 9.27966 12.1249 8.30269C11.9023 7.48562 11.5891 6.696 11.191 5.94859Z" fill="#081222"/>
<path d="M12.6969 0C5.68464 0 0 5.91504 0 13.2115C0 20.5079 5.68464 26.4219 12.6969 26.4219C19.7092 26.4219 25.3938 20.5074 25.3938 13.2115C25.3938 5.91558 19.7087 0 12.6969 0ZM21.8244 13.4504L21.8212 13.4536C21.8079 13.4642 21.794 13.4759 21.7791 13.486L21.7653 13.4967L21.7355 13.5148C21.7264 13.5207 21.717 13.5263 21.7073 13.5313C21.6118 13.584 21.5045 13.6116 21.3955 13.6116H15.3783C15.4272 13.8186 15.4799 14.0544 15.5379 14.3108C15.8673 15.7928 16.7426 19.7294 17.6728 19.7294H17.7207C18.4481 19.7294 18.8184 18.6364 19.631 16.2419L19.6411 16.2121C19.772 15.8274 19.9188 15.3937 20.079 14.935L20.1195 14.8174C20.1424 14.7539 20.187 14.7005 20.2454 14.6664C20.3037 14.6324 20.3721 14.6199 20.4387 14.6312C20.5061 14.6451 20.5667 14.6818 20.6101 14.7351C20.6537 14.7884 20.6775 14.855 20.6777 14.9238C20.6777 14.9532 20.6736 14.9824 20.6654 15.0106L20.6314 15.1282C20.5467 15.4134 20.4568 15.8018 20.3525 16.2509C19.8683 18.34 19.1361 21.4955 17.2588 21.4955H17.2449C16.0322 21.4854 15.308 19.4676 14.9962 18.6056C14.4162 16.9948 13.9761 15.2772 13.5547 13.6148H8.02064L6.87127 17.4397L6.85371 17.4259C6.78873 17.5354 6.68917 17.6203 6.57067 17.667C6.45217 17.7137 6.32148 17.7197 6.1992 17.6839C6.07591 17.6447 5.96842 17.5671 5.89232 17.4625C5.81618 17.3579 5.77552 17.2317 5.77616 17.1023V17.0816L5.84587 16.649C6.00551 15.6661 6.19441 14.6445 6.41205 13.6127H4.0787L4.07019 13.6036C3.8617 13.5636 3.67335 13.4531 3.53678 13.2905C3.40022 13.128 3.32376 12.9234 3.32026 12.7112C3.31677 12.4989 3.38645 12.2919 3.51758 12.1249C3.64873 11.958 3.83333 11.8413 4.04039 11.7944C4.13101 11.7843 4.22221 11.7804 4.31336 11.7827H4.42724C5.16848 11.796 5.95708 11.8077 6.81646 11.8189C8.03501 6.66055 9.45045 4.03879 11.0191 4.03347C12.7012 4.03347 13.949 8.01958 14.9473 11.9184L14.9515 11.9344C17.0044 11.9775 19.192 12.0408 21.3183 12.2004L21.4077 12.209C21.4418 12.2099 21.4757 12.2129 21.5094 12.218H21.5381C21.6658 12.2463 21.7828 12.3104 21.8752 12.4029C21.9677 12.4953 22.0318 12.6123 22.0601 12.74C22.0901 12.8686 22.084 13.0031 22.0424 13.1285C22.0008 13.2538 21.9254 13.3653 21.8244 13.4504Z" fill="#081222"/>
<path d="M32.4392 16.5165L31.433 19.1047H28.509L34.0723 5.58887H36.6547L42.1999 19.1047H39.2929L38.2862 16.5165H32.4392ZM35.343 9.00827L33.4444 13.9288H37.2799L35.343 9.00827Z" fill="#081222"/>
<path d="M58.681 13.9091V19.1047H56.0412V14.1454C56.0412 12.6437 55.3393 11.8338 54.1037 11.8338C53.7536 11.8496 53.413 11.954 53.1144 12.1371C52.8156 12.3203 52.5681 12.5762 52.3951 12.881C52.4398 13.2218 52.4646 13.5649 52.4696 13.9086V19.1042H49.8324V14.1448C49.8324 12.6432 49.1289 11.8333 47.8763 11.8333C47.5416 11.8683 47.2202 11.9832 46.9392 12.1684C46.6582 12.3536 46.4259 12.6037 46.2619 12.8975V19.1021H43.6225V9.64096H46.2619V10.2146C46.5511 9.91644 46.9012 9.68417 47.2884 9.53363C47.6755 9.38315 48.0906 9.31791 48.5053 9.34244C49.0594 9.3343 49.6082 9.45084 50.1112 9.68337C50.6142 9.91596 51.0585 10.2586 51.4112 10.686C51.8338 10.2388 52.3475 9.88744 52.9176 9.65565C53.4875 9.42391 54.101 9.31706 54.7156 9.34244C56.934 9.34244 58.681 11.1426 58.681 13.9091Z" fill="#081222"/>
<path d="M70.2823 14.3827C70.2823 17.1289 68.2693 19.3021 65.763 19.3021C64.8461 19.3203 63.9453 19.0585 63.1806 18.5518V23.6692H60.5413V9.6404H63.1806V10.1938C63.9453 9.68701 64.8461 9.42532 65.763 9.44352C68.2714 9.44352 70.2823 11.597 70.2823 14.3827ZM67.6818 14.3827C67.7207 13.8407 67.5786 13.3011 67.2779 12.8486C66.9773 12.3961 66.5346 12.0562 66.02 11.8821C65.5054 11.7081 64.9472 11.7099 64.4337 11.8871C63.9197 12.0643 63.4797 12.4069 63.1817 12.8613V15.8854C63.4211 16.2304 63.7425 16.5104 64.1171 16.7002C64.4917 16.89 64.9073 16.9835 65.3272 16.9725C65.6523 16.9581 65.971 16.8796 66.2658 16.7414C66.5601 16.6032 66.8246 16.4082 67.0433 16.1675C67.262 15.9268 67.4312 15.6451 67.5408 15.3388C67.6499 15.0325 67.6983 14.7075 67.6818 14.3827Z" fill="#081222"/>
<path d="M74.4043 19.1047H71.765V5.07697H74.4043V19.1047Z" fill="#081222"/>
<path d="M76.7784 6.3019C76.7731 6.09022 76.8098 5.87955 76.8869 5.68235C76.9641 5.4852 77.0801 5.30545 77.228 5.15378C77.3759 5.00212 77.5526 4.88158 77.7474 4.79927C77.9427 4.71697 78.1523 4.67456 78.3641 4.67456C78.5759 4.67456 78.7855 4.71697 78.9808 4.79927C79.1756 4.88158 79.3522 5.00212 79.5002 5.15378C79.6481 5.30545 79.7641 5.4852 79.8413 5.68235C79.9184 5.87955 79.9551 6.09022 79.9498 6.3019C79.9498 6.72243 79.7827 7.12578 79.4853 7.42318C79.1878 7.72053 78.7845 7.88761 78.3641 7.88761C77.9437 7.88761 77.5404 7.72053 77.2429 7.42318C76.9455 7.12578 76.7784 6.72243 76.7784 6.3019ZM79.7024 9.64042V19.1047H77.0631V9.64042H79.7024Z" fill="#081222"/>
<path d="M89.2898 18.9669C88.5081 19.2627 87.678 19.41 86.842 19.4011C84.6396 19.4011 83.1965 17.7813 83.1965 15.3314V11.9525H81.2808V9.64041H83.1965V6.26251H85.8166V9.64041H89.1014V11.9519H85.8166V15.3112C85.7943 15.5248 85.8203 15.7407 85.8927 15.9428C85.9656 16.1448 86.0832 16.3278 86.237 16.4779C86.3908 16.6281 86.5759 16.7414 86.7797 16.8096C86.9835 16.8777 87.2001 16.8988 87.413 16.8714C87.9344 16.852 88.4511 16.7658 88.9503 16.6149L89.2898 18.9669Z" fill="#081222"/>
<path d="M99.8849 19.1047H97.2456V18.4326C96.5245 19.0594 95.6002 19.4026 94.6451 19.3984C92.2505 19.3984 90.6574 17.6004 90.6574 14.8547V9.63989H93.2967V14.5993C93.2967 16.1009 94.0188 16.9118 95.2528 16.9118C95.6524 16.875 96.0387 16.7495 96.3835 16.5444C96.7289 16.3393 97.0237 16.0598 97.2466 15.7263V9.64043H99.8859L99.8849 19.1047Z" fill="#081222"/>
<path d="M111.089 19.1052H108.449V18.5524C107.685 19.0589 106.784 19.3206 105.867 19.3027C103.361 19.3027 101.33 17.1492 101.33 14.3635C101.33 11.6173 103.361 9.44407 105.867 9.44407C106.784 9.42598 107.685 9.68773 108.45 10.1944V5.07697H111.089L111.089 19.1052ZM108.449 15.8854V12.8608C108.21 12.5156 107.888 12.2355 107.514 12.0457C107.139 11.8559 106.723 11.7624 106.303 11.7737C105.978 11.7863 105.658 11.8635 105.363 12.001C105.068 12.1384 104.803 12.3333 104.583 12.5742C104.364 12.8152 104.196 13.0973 104.086 13.4043C103.977 13.7112 103.931 14.0367 103.949 14.3619C103.949 15.7651 104.918 16.9906 106.303 16.9906C106.725 17.0024 107.144 16.9072 107.519 16.7138C107.894 16.5205 108.214 16.2358 108.449 15.8854Z" fill="#081222"/>
<path d="M121.798 15.0749H115.093C115.156 15.6443 115.436 16.1676 115.875 16.5357C116.314 16.9038 116.878 17.0883 117.449 17.0507C117.746 17.0828 118.046 17.0336 118.316 16.9082C118.587 16.7829 118.819 16.5862 118.986 16.3393H121.74C121.246 18.157 119.538 19.4016 117.392 19.4016C114.468 19.4016 112.493 17.2093 112.493 14.3837C112.493 11.4571 114.449 9.34241 117.317 9.34241C119.917 9.34241 121.854 11.258 121.854 14.1847C121.859 14.483 121.84 14.7812 121.798 15.0765L121.798 15.0749ZM115.114 13.4541H119.235C119.082 12.2691 118.398 11.6172 117.335 11.6172C116.803 11.5947 116.282 11.7699 115.872 12.1091C115.462 12.4483 115.191 12.9275 115.114 13.4541Z" fill="#081222"/>
</g>
<defs>
<clipPath id="clip0_621_7859">
<rect width="121.855" height="26.606" fill="white"/>
</clipPath>
</defs>
</svg>
