<svg width="61" height="57" viewBox="0 0 61 57" fill="none" xmlns="http://www.w3.org/2000/svg">
<g clip-path="url(#clip0_621_7855)">
<path fill-rule="evenodd" clip-rule="evenodd" d="M47.6103 29.7725C40.3026 29.7725 34.3781 35.6967 34.3781 43.0052C34.3781 50.3132 40.3026 56.2374 47.6103 56.2374C54.9183 56.2374 60.8426 50.3132 60.8426 43.0052C60.8426 35.6967 54.9183 29.7725 47.6103 29.7725ZM13.2322 29.7738C5.92431 29.7738 0 35.6967 0 43.0052C0 50.3132 5.92431 56.2374 13.2322 56.2374C20.5403 56.2374 26.465 50.3132 26.465 43.0052C26.465 35.6967 20.5403 29.7738 13.2322 29.7738ZM43.6532 13.2319C43.6532 20.5403 37.7293 26.4652 30.4213 26.4652C23.1132 26.4652 17.1892 20.5403 17.1892 13.2319C17.1892 5.92489 23.1132 0 30.4213 0C37.7293 0 43.6532 5.92489 43.6532 13.2319Z" fill="#081222"/>
</g>
<defs>
<clipPath id="clip0_621_7855">
<rect width="60.9277" height="56.4383" fill="white"/>
</clipPath>
</defs>
</svg>
