<svg width="140" height="22" viewBox="0 0 140 22" fill="none" xmlns="http://www.w3.org/2000/svg">
<g clip-path="url(#clip0_621_7849)">
<path d="M1.16933 2.37133C1.07779 2.37015 0.987094 2.38903 0.903622 2.42662C0.82015 2.46422 0.745919 2.51964 0.686142 2.58898C0.626366 2.65832 0.582492 2.73991 0.557602 2.82801C0.532711 2.91611 0.527408 3.00859 0.542064 3.09896L3.20481 19.2636C3.23799 19.4614 3.3398 19.6412 3.49237 19.7714C3.64494 19.9016 3.83851 19.9739 4.03908 19.9756H16.8134C16.9637 19.9775 17.1098 19.9253 17.2249 19.8287C17.34 19.732 17.4166 19.5971 17.4407 19.4486L20.1096 3.10524C20.1243 3.01486 20.119 2.92238 20.0941 2.83428C20.0692 2.74618 20.0254 2.6646 19.9656 2.59525C19.9058 2.52591 19.8316 2.4705 19.7481 2.43289C19.6646 2.3953 19.5739 2.37643 19.4824 2.37761L1.16933 2.37133ZM12.3817 14.0541H8.30449L7.2005 8.2896H13.3696L12.3817 14.0541Z" fill="#2684FF"/>
<path d="M19.2565 8.28955H13.3697L12.3817 14.0542H8.30447L3.4902 19.7717C3.6428 19.9036 3.83734 19.977 4.03906 19.9786H16.8165C16.9669 19.9806 17.1128 19.9284 17.228 19.8318C17.3431 19.7351 17.4197 19.6002 17.4437 19.4517L19.2565 8.28955Z" fill="url(#paint0_linear_621_7849)"/>
<path d="M37.1964 1.8446C40.8942 1.8446 42.6882 3.66682 42.6882 6.59302C42.6882 8.78845 41.6939 10.1245 39.6522 10.6232C42.3306 11.0654 43.6542 12.527 43.6542 15.0956C43.6542 17.9936 41.6939 19.982 37.6387 19.982H30.1586V1.8446H37.1964ZM32.6425 4.21881V9.62581H36.864C39.21 9.62581 40.176 8.55009 40.176 6.80315C40.176 5.05621 39.1284 4.2094 36.864 4.2094L32.6425 4.21881ZM32.6425 11.8369V17.4824H37.7202C40.0944 17.4824 41.1702 16.6262 41.1702 14.804C41.1702 12.872 40.1478 11.8244 37.6669 11.8244L32.6425 11.8369Z" fill="#253858"/>
<path d="M47.7126 0.878647C47.9342 0.862794 48.1566 0.894755 48.3646 0.972371C48.5728 1.04999 48.7617 1.17144 48.9188 1.32849C49.0759 1.48555 49.1973 1.67453 49.2749 1.88263C49.3526 2.09073 49.3845 2.31309 49.3687 2.53463C49.3687 2.97382 49.1942 3.39503 48.8836 3.70559C48.5731 4.01615 48.1518 4.19061 47.7126 4.19061C47.2734 4.19061 46.8523 4.01615 46.5417 3.70559C46.2312 3.39503 46.0567 2.97382 46.0567 2.53463C46.0408 2.31309 46.0728 2.09073 46.1504 1.88263C46.228 1.67453 46.3494 1.48555 46.5065 1.32849C46.6636 1.17144 46.8525 1.04999 47.0607 0.972371C47.2688 0.894755 47.4911 0.862794 47.7126 0.878647ZM46.4989 6.17592H48.8731V19.9758H46.4989V6.17592Z" fill="#253858"/>
<path d="M57.9372 17.661C58.439 17.646 58.9381 17.5809 59.4269 17.4666V19.7561C58.9068 19.9047 58.3683 19.9786 57.8274 19.9757C54.873 19.9757 53.4365 18.2381 53.4365 15.6695V8.38373H51.2003V6.18829H53.4365V3.25269H55.7418V6.17889H59.4112V8.37432H55.7418V15.6161C55.7418 16.8299 56.46 17.661 57.9372 17.661Z" fill="#253858"/>
<path d="M69.212 20.2517C67.1985 20.2517 65.6523 19.3421 64.8212 17.5482V19.9757H62.447V0.411255H64.8368V8.65981C65.7213 6.8376 67.3773 5.89984 69.5006 5.89984C73.1701 5.89984 75.0205 9.01734 75.0205 13.0758C75.008 16.9679 73.076 20.2517 69.212 20.2517ZM68.8513 8.10782C66.7186 8.10782 64.8368 9.4627 64.8368 12.5238V13.6277C64.8368 16.692 66.5743 18.0437 68.6004 18.0437C71.2788 18.0437 72.6589 16.278 72.6589 13.0758C72.6338 9.76383 71.3102 8.10782 68.8513 8.10782Z" fill="#253858"/>
<path d="M77.492 6.17578H79.8662V14.5247C79.8662 17.0087 80.8604 18.1127 83.1217 18.1127C85.3171 18.1127 86.8477 16.6511 86.8477 13.8629V6.17578H89.2223V19.9756H86.8477V17.7143C86.425 18.4978 85.7944 19.1495 85.0253 19.5977C84.2561 20.0459 83.3782 20.2732 82.4882 20.2547C79.3142 20.2547 77.492 18.0594 77.492 14.2644V6.17578Z" fill="#253858"/>
<path d="M102.551 19.6182C101.724 20.0604 100.453 20.2455 99.1834 20.2455C94.272 20.2455 91.9694 17.266 91.9694 13.0319C91.9694 8.86378 94.2587 5.88422 99.1834 5.88422C100.317 5.85202 101.445 6.08507 102.473 6.56481V8.76024C101.493 8.30175 100.419 8.07837 99.3366 8.10788C95.7486 8.10788 94.2869 10.3723 94.2869 13.0476C94.2869 15.7229 95.7899 17.9748 99.4062 17.9748C100.472 18.003 101.536 17.835 102.543 17.4792L102.551 19.6182Z" fill="#253858"/>
<path d="M105.258 19.9757V0.411255H107.632V12.643L113.566 6.18524H116.659L110.169 12.9566L116.932 19.9757H113.701L107.629 13.518V19.9757H105.258Z" fill="#253858"/>
<path d="M124.797 20.2516C119.635 20.2516 117.374 17.2721 117.374 13.038C117.374 8.86985 119.691 5.89032 123.888 5.89032C128.137 5.89032 129.847 8.84476 129.847 13.038V14.1138H119.773C120.105 16.4598 121.623 17.9778 124.879 17.9778C126.311 17.9765 127.731 17.7238 129.075 17.2313V19.4267C127.943 20.0321 126.205 20.2516 124.797 20.2516ZM119.748 12.0972H127.448C127.309 9.53164 126.149 8.06693 123.778 8.06693C121.263 8.05438 119.996 9.68212 119.748 12.0846V12.0972Z" fill="#253858"/>
<path d="M138.127 17.661C138.629 17.646 139.128 17.5809 139.617 17.4666V19.7561C139.097 19.9047 138.558 19.9786 138.017 19.9757C135.063 19.9757 133.626 18.2381 133.626 15.6695V8.38373H131.39V6.18829H133.626V3.25269H135.944V6.17889H139.613V8.37432H135.944V15.6161C135.947 16.8299 136.659 17.661 138.127 17.661Z" fill="#253858"/>
</g>
<defs>
<linearGradient id="paint0_linear_621_7849" x1="20.6177" y1="9.90162" x2="10.8888" y2="17.4978" gradientUnits="userSpaceOnUse">
<stop offset="0.18" stop-color="#0052CC"/>
<stop offset="1" stop-color="#2684FF"/>
</linearGradient>
<clipPath id="clip0_621_7849">
<rect width="140" height="21.1321" fill="white"/>
</clipPath>
</defs>
</svg>
