<svg width="534" height="678" viewBox="0 0 534 678" fill="none" xmlns="http://www.w3.org/2000/svg">
<g filter="url(#filter0_d_621_4117)">
<path d="M92.05 263.33L21.5303 333.85C18.7834 336.597 18.7834 341.05 21.5303 343.797L92.05 414.317L-77.2808 583.648L-152.277 508.651C-152.409 508.52 -152.483 508.34 -152.482 508.153C-152.482 507.966 -152.406 507.786 -152.273 507.653L11.5821 343.797C14.3289 341.05 14.3289 336.597 11.5821 333.85L-152.273 169.995C-152.406 169.862 -152.481 169.682 -152.481 169.495C-152.482 169.308 -152.409 169.128 -152.277 168.997L-77.2801 94L92.05 263.33Z" fill="white" fill-opacity="0.08"/>
<path d="M172.52 333.834L238.065 268.288C240.812 265.541 240.812 261.088 238.065 258.341L124.499 144.775C121.752 142.028 117.299 142.028 114.552 144.775L44.5293 214.798C44.3974 214.93 44.3093 215.095 44.2846 215.257C44.2599 215.419 44.3005 215.564 44.3974 215.661L162.571 333.835C165.318 336.582 165.318 341.035 162.571 343.782L-1.28385 507.637C-1.41674 507.77 -1.49195 507.95 -1.49267 508.137C-1.49337 508.325 -1.4196 508.504 -1.28775 508.636L68.7351 578.659C71.482 581.406 75.9356 581.406 78.6825 578.659L238.068 419.273C240.814 416.527 245.266 416.526 248.013 419.271L361.581 532.75C364.328 535.495 368.78 535.494 371.526 532.748L437.026 467.248C439.773 464.501 439.773 460.047 437.026 457.3L323.461 343.735C320.714 340.988 316.26 340.988 313.513 343.735L247.967 409.281C245.22 412.028 240.766 412.028 238.019 409.281L172.52 343.781C169.773 341.034 169.773 336.581 172.52 333.834Z" fill="white" fill-opacity="0.08"/>
</g>
<defs>
<filter id="filter0_d_621_4117" x="-278" y="0" width="811.086" height="677.648" filterUnits="userSpaceOnUse" color-interpolation-filters="sRGB">
<feFlood flood-opacity="0" result="BackgroundImageFix"/>
<feColorMatrix in="SourceAlpha" type="matrix" values="0 0 0 0 0 0 0 0 0 0 0 0 0 0 0 0 0 0 127 0" result="hardAlpha"/>
<feOffset/>
<feGaussianBlur stdDeviation="47"/>
<feComposite in2="hardAlpha" operator="out"/>
<feColorMatrix type="matrix" values="0 0 0 0 0.141176 0 0 0 0 0.372549 0 0 0 0 1 0 0 0 0.08 0"/>
<feBlend mode="normal" in2="BackgroundImageFix" result="effect1_dropShadow_621_4117"/>
<feBlend mode="normal" in="SourceGraphic" in2="effect1_dropShadow_621_4117" result="shape"/>
</filter>
</defs>
</svg>
