<svg width="24" height="24" viewBox="0 0 24 24" fill="none" xmlns="http://www.w3.org/2000/svg">
<path d="M13.152 9.18799V3.71C13.179 3.575 13.128 3.254 12.708 3.057C12.342 2.885 11.943 3.14 11.823 3.304C9.99799 6.221 6.58999 12.355 6.45699 12.664C6.28799 13.053 6.40299 13.295 6.56299 13.474C6.68199 13.608 6.96599 13.688 7.11799 13.688H10.823L10.033 20.388C10.043 20.543 10.173 20.878 10.597 20.98C11.022 21.081 11.314 20.775 11.407 20.61L17.464 10.36C17.552 10.225 17.734 9.866 17.54 9.55C17.466 9.43294 17.3621 9.33771 17.2391 9.27409C17.116 9.21047 16.9783 9.18075 16.84 9.18799H13.152Z" fill="url(#paint0_linear_621_4209)"/>
<defs>
<linearGradient id="paint0_linear_621_4209" x1="12" y1="3" x2="12" y2="21" gradientUnits="userSpaceOnUse">
<stop stop-color="#245FFF"/>
<stop offset="1" stop-color="#245FFF" stop-opacity="0.48"/>
</linearGradient>
</defs>
</svg>
