<svg width="167" height="114" viewBox="0 0 167 114" fill="none" xmlns="http://www.w3.org/2000/svg">
<path d="M83.3955 167.002C129.454 167.002 166.791 129.665 166.791 83.6064C166.791 37.5484 129.454 0.210938 83.3955 0.210938C37.3374 0.210938 0 37.5484 0 83.6064C0 129.665 37.3374 167.002 83.3955 167.002Z" fill="#245FFF"/>
<path d="M83.419 154.889C122.728 154.889 154.594 123.023 154.594 83.714C154.594 44.4051 122.728 12.5391 83.419 12.5391C44.1102 12.5391 12.2441 44.4051 12.2441 83.714C12.2441 123.023 44.1102 154.889 83.419 154.889Z" fill="#245FFF"/>
<path d="M83.3865 156.761C63.8787 156.761 45.5385 149.164 31.7443 135.37C17.9503 121.576 10.3535 103.236 10.3535 83.7282C10.3535 64.2203 17.9503 45.8802 31.7443 32.0861C45.5385 18.2921 63.8787 10.6953 83.3865 10.6953C102.894 10.6953 121.235 18.2921 135.029 32.0861C148.823 45.8803 156.419 64.2203 156.419 83.7282C156.419 103.236 148.823 121.576 135.029 135.37C121.235 149.164 102.894 156.761 83.3865 156.761ZM83.3865 14.4112C45.1649 14.4112 14.0695 45.5067 14.0695 83.7281C14.0695 121.949 45.1649 153.045 83.3865 153.045C121.608 153.045 152.703 121.949 152.703 83.7281C152.703 45.5067 121.608 14.4112 83.3865 14.4112Z" fill="url(#paint0_linear_621_4688)"/>
<path d="M83.4209 126.979C107.385 126.979 126.813 107.552 126.813 83.587C126.813 59.6224 107.385 40.1953 83.4209 40.1953C59.4564 40.1953 40.0293 59.6224 40.0293 83.587C40.0293 107.552 59.4564 126.979 83.4209 126.979Z" fill="#245FFF"/>
<path d="M83.3824 128.851C58.4316 128.851 38.1328 108.552 38.1328 83.6013C38.1328 58.6505 58.4316 38.3516 83.3824 38.3516C108.333 38.3516 128.632 58.6505 128.632 83.6013C128.632 108.552 108.333 128.851 83.3824 128.851ZM83.3824 42.0676C60.4806 42.0676 41.8488 60.6996 41.8488 83.6014C41.8488 106.503 60.4806 125.135 83.3824 125.135C106.284 125.135 124.916 106.503 124.916 83.6014C124.916 60.6996 106.284 42.0676 83.3824 42.0676Z" fill="url(#paint1_linear_621_4688)"/>
<path d="M83.3912 100.466C92.6757 100.466 100.202 92.9394 100.202 83.6549C100.202 74.3703 92.6757 66.8438 83.3912 66.8438C74.1067 66.8438 66.5801 74.3703 66.5801 83.6549C66.5801 92.9394 74.1067 100.466 83.3912 100.466Z" fill="#245FFF"/>
<path d="M83.4035 102.331C73.1092 102.331 64.7344 93.9557 64.7344 83.6615C64.7344 73.3672 73.1092 64.9922 83.4035 64.9922C93.6977 64.9922 102.073 73.3672 102.073 83.6615C102.073 93.9557 93.6977 102.331 83.4035 102.331ZM83.4035 68.7081C75.1582 68.7081 68.4503 75.4161 68.4503 83.6614C68.4503 91.9067 75.1582 98.6145 83.4035 98.6145C91.6487 98.6145 98.3566 91.9067 98.3566 83.6614C98.3566 75.4163 91.6487 68.7081 83.4035 68.7081Z" fill="url(#paint2_linear_621_4688)"/>
<path d="M152.865 8.39062L154.555 9.96139L95.0728 73.9567L93.3828 72.3859L152.865 8.39062Z" fill="url(#paint3_linear_621_4688)"/>
<path d="M94.3936 68.4085C95.2948 67.4389 99.8656 71.6874 98.9643 72.6569L83.0794 86.1122C82.4925 86.6093 81.681 85.8549 82.1338 85.2333L94.3936 68.4085Z" fill="url(#paint4_linear_621_4688)"/>
<path d="M154.535 9.82031L162.871 10.3422L151.886 22.1612C148.286 26.0336 143.14 28.0873 137.863 27.7569L154.535 9.82031Z" fill="#91B3FA"/>
<path d="M152.849 8.2757L151.72 0L140.735 11.819C137.136 15.6913 135.463 20.974 136.178 26.2123L152.849 8.2757Z" fill="#91B3FA"/>
<defs>
<linearGradient id="paint0_linear_621_4688" x1="10.3535" y1="83.7281" x2="156.419" y2="83.7281" gradientUnits="userSpaceOnUse">
<stop stop-color="#DAE3FE"/>
<stop offset="1" stop-color="#E9EFFD"/>
</linearGradient>
<linearGradient id="paint1_linear_621_4688" x1="38.1328" y1="83.6012" x2="128.632" y2="83.6012" gradientUnits="userSpaceOnUse">
<stop stop-color="#DAE3FE"/>
<stop offset="1" stop-color="#E9EFFD"/>
</linearGradient>
<linearGradient id="paint2_linear_621_4688" x1="64.7343" y1="83.6614" x2="102.073" y2="83.6614" gradientUnits="userSpaceOnUse">
<stop stop-color="#DAE3FE"/>
<stop offset="1" stop-color="#E9EFFD"/>
</linearGradient>
<linearGradient id="paint3_linear_621_4688" x1="64.6593" y1="80.083" x2="129.229" y2="37.7227" gradientUnits="userSpaceOnUse">
<stop stop-color="#09005D"/>
<stop offset="1" stop-color="#1A0F91"/>
</linearGradient>
<linearGradient id="paint4_linear_621_4688" x1="120.183" y1="-59.6205" x2="63.6002" y2="204.944" gradientUnits="userSpaceOnUse">
<stop stop-color="#E1473D"/>
<stop offset="1" stop-color="#E9605A"/>
</linearGradient>
</defs>
</svg>
