<svg width="182" height="139" viewBox="0 0 182 139" fill="none" xmlns="http://www.w3.org/2000/svg">
<path d="M52.4973 136.125H12.3853C12.3853 136.125 -3.17129 121.006 0.585238 98.8931C5.3653 70.7548 26.0087 69.7251 26.0087 69.7251C26.0087 69.7251 25.8949 25.0952 75.372 27.6869C75.372 27.6869 119.298 4.17858 147.337 36.7894C147.337 36.7894 167.08 15.4935 203.826 30.3498C245.495 47.1954 248.349 116.627 218.721 136.125H52.4973Z" fill="#245FFF" fill-opacity="0.1"/>
<path d="M84.4136 97.7394L92.8525 136.126H36.5124C36.5124 136.126 39.1815 103.446 42.9859 92.8477C45.4711 85.9237 61.4725 84.6948 72.3064 86.3726C78.3021 87.3009 83.111 91.8134 84.4136 97.7394Z" fill="#37474F"/>
<path d="M122.126 101.621L23.5934 131.82V136.116H215.276V132.045L129.976 101.576C127.411 100.822 124.682 100.838 122.126 101.621Z" fill="#9FC1F7"/>
<path d="M23.5934 131.815L215.276 132.041V136.111H23.5934V131.815Z" fill="#82A5D8"/>
<path d="M76.33 24.7768C76.33 24.7768 71.3821 24.3077 64.2594 31.6205C57.4101 38.6529 59.096 51.7626 59.096 51.7626L81.2192 44.8048L84.8496 32.2042L76.33 24.7768Z" fill="#091328"/>
<path d="M74.5812 37.9081C74.5812 37.9081 53.4456 42.7871 48.3952 54.095C43.3451 65.403 43.3451 83.0631 43.3451 83.0631L38.8536 105.622C38.61 106.846 39.0783 108.097 40.0589 108.869C43.5467 111.614 52.763 117.315 67.1292 115.157C81.2488 113.035 85.655 106.637 86.9646 103.642C87.3525 102.756 87.3822 101.755 87.0701 100.839L85.1929 95.3303L89.8505 67.5502L116.293 108.265C116.68 108.86 117.506 108.975 118.036 108.503C119.582 107.128 122.792 104.418 126.714 101.918C126.714 101.918 100.58 58.2959 92.3502 45.7637C84.1203 33.232 74.5812 37.9081 74.5812 37.9081Z" fill="#294F87"/>
<path d="M76.4263 86.1549C76.4263 86.1549 77.2157 89.1349 77.4185 90.3286C77.6213 91.5228 76.9605 91.752 76.9605 91.752L69.8374 96.1009C69.8374 96.1009 55.4824 104.021 52.4547 105.328C49.4269 106.635 48.546 105.102 48.546 105.102C44.9338 100.759 43.5553 84.1693 43.3686 81.7051C43.3459 82.5629 43.3451 83.0547 43.3451 83.0547L38.8536 105.614C38.61 106.838 39.0783 108.088 40.0589 108.86C40.1142 108.904 40.1748 108.95 40.2329 108.995C43.6118 110.104 47.8399 111.331 49.6215 111.182C52.8042 110.917 76.9708 95.5333 78.2672 94.3914C79.5641 93.2492 79.4462 90.5826 79.4462 90.5826L86.6006 86.9241L87.5454 81.2892L76.4263 86.1549Z" fill="#214775"/>
<path d="M43.3436 83.0604C43.76 85.7279 44.1957 88.3863 44.7361 91.0207C45.1376 93.6746 45.6285 96.3177 46.3112 98.8998C46.6578 100.187 47.0515 101.465 47.5738 102.67C47.836 103.27 48.1328 103.854 48.4934 104.371C48.85 104.879 49.2973 105.342 49.787 105.476C49.9082 105.509 50.0298 105.523 50.153 105.516C50.2878 105.508 50.4449 105.485 50.5953 105.457C50.9016 105.398 51.2145 105.309 51.5249 105.211C52.1473 105.015 52.7661 104.769 53.3794 104.513C54.6062 103.994 55.8144 103.411 57.0123 102.808C61.7977 100.373 66.4492 97.6488 71.0652 94.8807L74.5142 92.7805L76.2306 91.7178L76.6581 91.4499C76.7397 91.3971 76.7752 91.3748 76.8152 91.3386C76.8543 91.3035 76.891 91.2652 76.9211 91.2219C77.0427 91.0496 77.1033 90.8385 77.067 90.6139C76.579 87.9736 76.0542 85.3132 75.5909 82.6573C76.3737 85.2452 77.0967 87.8281 77.8539 90.4321C77.9834 90.862 77.8902 91.3748 77.6021 91.738C77.5324 91.8303 77.45 91.9132 77.3614 91.987C77.2744 92.0616 77.1643 92.1263 77.1037 92.1634L76.6738 92.4305L74.9532 93.4957L71.4972 95.6001C66.87 98.3747 62.2124 101.103 57.3895 103.558C56.1804 104.166 54.9599 104.755 53.7047 105.286C53.0748 105.549 52.44 105.802 51.7772 106.011C51.4453 106.116 51.1094 106.212 50.7536 106.281C50.5731 106.314 50.3971 106.343 50.1951 106.355C49.982 106.366 49.7647 106.342 49.5615 106.285C49.1513 106.171 48.8092 105.941 48.5281 105.688C48.2465 105.432 48.0124 105.148 47.8063 104.854C47.3957 104.265 47.0816 103.639 46.8042 103.006C46.2547 101.737 45.854 100.431 45.4999 99.1175C44.8012 96.4884 44.3202 93.8213 43.8972 91.1502C43.7521 89.8043 43.6425 88.4559 43.5452 87.108C43.4467 85.76 43.375 84.4104 43.3436 83.0604Z" fill="#103254"/>
<path d="M75.1479 80.1934C71.618 82.3728 67.9963 84.3799 64.3519 86.3445C60.698 88.2922 57.0215 90.1967 53.2513 91.9272C56.7803 89.7465 60.4021 87.7394 64.0473 85.7761C67.7016 83.8296 71.3785 81.9256 75.1479 80.1934Z" fill="#103254"/>
<path d="M58.1939 89.2428C57.9256 88.0968 57.7248 86.9414 57.5031 85.788L57.184 82.2924C56.9816 79.9609 56.8167 77.6261 56.6852 75.2884C56.5496 72.9512 56.4701 70.6089 56.4589 68.2638C56.4462 67.0915 56.482 65.9171 56.5208 64.7427L56.7928 62.9937C56.9025 62.4133 57.0377 61.8382 57.1696 61.2681L57.1288 63.0238L57.1655 64.7728C57.1271 65.9344 57.0917 67.0965 57.1045 68.2618C57.1156 70.5908 57.1947 72.9231 57.3299 75.2526C57.4614 77.5824 57.6255 79.911 57.8275 82.2372C57.9293 83.4 58.0319 84.5629 58.1507 85.7241C58.1593 86.896 58.1952 88.0663 58.1939 89.2428Z" fill="#103254"/>
<path d="M50.6934 50.4807C51.6337 50.2433 52.637 50.2388 53.6094 50.4428C54.5814 50.6432 55.5316 51.1139 56.2517 51.8501C56.9727 52.5863 57.4088 53.56 57.5721 54.5374C57.7473 55.5176 57.6966 56.5098 57.4834 57.4526C57.4294 56.488 57.3334 55.5399 57.0811 54.6495C56.9579 54.2043 56.7934 53.776 56.5766 53.3807C56.3705 52.9796 56.1046 52.6148 55.7892 52.2999C55.173 51.6535 54.3584 51.2108 53.4808 50.928C52.5991 50.6497 51.6576 50.5096 50.6934 50.4807Z" fill="#103254"/>
<path d="M75.6136 59.507C75.6136 59.507 79.1397 68.4579 81.6765 68.1483C84.2133 67.8391 87.767 59.9493 87.767 59.9493L75.6136 59.507Z" fill="#245FFF"/>
<path d="M87.5466 81.2938C87.9704 76.9016 88.587 72.5391 89.2511 68.1841C89.9346 63.8319 90.6663 59.4875 91.5929 55.1729C91.1708 59.5655 90.5537 63.9279 89.8884 68.2826C89.2037 72.6348 88.4716 76.9791 87.5466 81.2938Z" fill="#103254"/>
<path d="M80.3621 95.2509C79.2813 96.3408 78.0409 97.2753 76.7231 98.0754C75.4048 98.8797 73.9926 99.531 72.5308 100.042C72.1611 100.157 71.7992 100.299 71.4224 100.39L70.2954 100.675C69.9178 100.762 69.5311 100.808 69.1503 100.875L68.5773 100.968C68.3848 100.988 68.1906 100.997 67.9973 101.011C66.456 101.191 64.8978 101.015 63.3957 100.749C63.7811 100.746 64.1633 100.748 64.5437 100.758L65.1134 100.768C65.303 100.763 65.4935 100.742 65.6827 100.729L66.8159 100.662L67.9392 100.511C69.4293 100.285 70.9026 99.944 72.3206 99.4325C73.7469 98.9473 75.1327 98.3388 76.4753 97.6393C77.1411 97.2795 77.8068 96.9142 78.4523 96.5131C79.111 96.1281 79.7372 95.6949 80.3621 95.2509Z" fill="#103254"/>
<path d="M71.0495 32.6185C71.0495 32.6185 65.9747 26.5593 67.3701 14.6772C68.7658 2.79503 77.7736 -0.123044 87.1618 0.0039182C96.55 0.130881 101.752 6.22055 103.021 17.0045C104.289 27.7885 99.9755 32.4767 99.9755 32.4767L71.0495 32.6185Z" fill="#091328"/>
<path d="M80.9853 7.5965C82.043 8.08662 83.0179 8.69917 83.9726 9.34017C84.919 9.99394 85.8453 10.677 86.6879 11.4837C85.6293 10.9944 84.6548 10.3818 83.7005 9.74002C82.7545 9.08542 81.8282 8.40197 80.9853 7.5965Z" fill="#282828"/>
<path d="M90.2033 13.0242C90.3715 12.9801 90.5327 12.9005 90.6328 12.7814C90.7388 12.666 90.7664 12.5176 90.747 12.3696C90.7054 12.0666 90.5323 11.7813 90.3397 11.5097C89.9424 10.9652 89.4848 10.4454 89.0285 9.92884C88.1163 8.89088 87.1719 7.87436 86.3013 6.77292C86.8726 7.18307 87.4039 7.63857 87.9176 8.11303C88.4324 8.58584 88.9209 9.0871 89.39 9.60896C89.8517 10.1374 90.3018 10.6795 90.6666 11.3011C90.8443 11.6111 91.0137 11.966 90.9964 12.3671C90.9878 12.5654 90.8929 12.7773 90.7272 12.8877C90.5673 13.0032 90.3777 13.0337 90.2033 13.0242Z" fill="#282828"/>
<path d="M92.6521 13.294C93.0041 13.2181 93.237 12.9415 93.3525 12.6423C93.4782 12.3385 93.5124 12.0079 93.4996 11.6806C93.465 11.0181 93.2832 10.3499 93.0734 9.69739C92.8669 9.04073 92.615 8.39438 92.3627 7.74514L91.5853 5.79041C92.0157 6.35349 92.3792 6.96151 92.7049 7.58932C93.0322 8.21671 93.31 8.87131 93.5334 9.54982C93.7428 10.2304 93.9184 10.9402 93.8801 11.6847C93.8607 12.0561 93.7671 12.4345 93.5668 12.7548C93.3743 13.0726 93.0186 13.3368 92.6521 13.294Z" fill="#282828"/>
<path d="M93.6917 12.3093C94.2078 12.6576 94.8273 12.5838 95.3711 12.4371C95.9288 12.2796 96.4416 12.0133 96.9099 11.6675C97.3851 11.3319 97.8118 10.9226 98.2199 10.4918C98.6218 10.0536 98.9953 9.5866 99.3543 9.0874C99.1754 9.67728 98.8757 10.2284 98.5117 10.7313C98.1448 11.2334 97.7046 11.6877 97.1926 12.0599C96.6823 12.4264 96.0821 12.712 95.4506 12.8048C95.1357 12.8567 94.8071 12.86 94.4914 12.792C94.181 12.7178 93.8685 12.5694 93.6917 12.3093Z" fill="#282828"/>
<path d="M73.0909 34.0454L72.7289 40.1C71.6757 41.2538 70.7861 43.7984 72.1728 49.4116C72.5867 51.0872 73.0397 52.3593 73.5068 53.3276L75.6153 59.5175C75.6153 59.5175 81.3434 62.0254 87.7686 59.9598C87.7686 59.9598 89.3837 57.8933 89.8429 49.4116C90.3017 40.9294 73.0909 34.0454 73.0909 34.0454Z" fill="#FFBE9D"/>
<path d="M83.0055 51.4831C86.4433 52.3981 88.1895 51.1799 89.6866 49.7219C89.6866 48.2219 89.8105 46.9854 89.38 45.2258C89.1072 44.11 88.5459 43.114 87.7957 42.2196L74.1866 41.2219C74.1866 41.2219 78.0847 50.1735 83.0055 51.4831Z" fill="#EB996E"/>
<path d="M100.836 38.2629C100.923 37.9347 100.998 37.6026 101.058 37.2647C101.643 34.3948 102.603 28.8193 101.989 17.4209C101.958 16.851 101.663 16.3237 101.18 15.9795C100.233 15.3044 98.6233 13.8371 97.7239 11.2219C97.7239 11.2219 95.2871 13.2062 93.7363 11.953C93.7363 11.953 93.404 14.0417 90.9672 12.1619C90.9672 12.1619 90.9672 13.8328 86.758 11.2219H80.3332C80.3332 11.2219 79.6138 15.0016 75.6996 16.9593C75.4383 17.09 75.2989 17.3653 75.3736 17.6352C75.8125 19.2276 77.028 24.5476 74.5119 27.173C73.452 26.3528 72.0356 25.9276 70.5144 26.1368C68.2712 26.4459 66.4803 28.1951 66.2214 30.3182C65.8667 33.2264 68.2688 35.6922 71.2819 35.6922C72.0207 35.6922 72.721 35.5409 73.3549 35.2741V36.2872C73.3549 43.5551 79.6039 48.2219 87.3119 48.2219C93.599 48.2219 98.9125 44.301 100.659 38.9118H100.661C100.661 38.913 100.729 38.6966 100.836 38.2629Z" fill="#FFBE9D"/>
<path d="M92.5786 28.3889L93.5988 31.7249C93.9484 32.828 94.2864 33.9332 94.7007 35.0016C94.8013 35.27 94.9027 35.5371 95.0164 35.798L95.0993 35.9951C95.1261 36.0619 95.1644 36.1542 95.1892 36.235C95.2394 36.4044 95.2654 36.5812 95.2625 36.7581C95.2551 37.4642 94.7555 38.1481 94.0716 38.313C93.448 38.4696 92.8144 38.4234 92.234 38.2363C91.656 38.0413 91.1486 37.7066 90.7257 37.3034C91.2339 37.5924 91.762 37.8336 92.3135 37.93C92.8573 38.0339 93.4282 37.9972 93.9228 37.8327C94.3709 37.6724 94.671 37.2194 94.6516 36.7564C94.6446 36.6427 94.6298 36.5293 94.5947 36.4205C94.575 36.3632 94.5568 36.3211 94.5288 36.2539L94.4393 36.0503C94.3161 35.7799 94.2056 35.5062 94.0984 35.2312C93.6842 34.1261 93.368 32.9958 93.1145 31.8535C92.8638 30.7105 92.668 29.5567 92.5786 28.3889Z" fill="#263238"/>
<path d="M86.9147 29.7735C86.9147 30.5394 86.2939 31.1602 85.528 31.1602C84.7621 31.1602 84.1413 30.5394 84.1413 29.7735C84.1413 29.0076 84.7621 28.3868 85.528 28.3868C86.2939 28.3868 86.9147 29.0076 86.9147 29.7735Z" fill="#263238"/>
<path d="M98.1121 29.5882C98.1121 30.3541 97.615 30.9749 97.0016 30.9749C96.3882 30.9749 95.8907 30.3541 95.8907 29.5882C95.8907 28.8223 96.3878 28.2015 97.0016 28.2015C97.615 28.2015 98.1121 28.8223 98.1121 29.5882Z" fill="#263238"/>
<path d="M82.2276 26.324C82.273 25.6776 82.6019 25.0395 83.1296 24.5844C83.6522 24.1133 84.3864 23.8911 85.074 23.8965C85.4194 23.8965 85.762 23.9476 86.0987 24.0477C86.4298 24.1656 86.7558 24.3177 87.0262 24.5473C87.5675 25.0016 87.8944 25.6735 87.8663 26.3244C87.5522 25.7638 87.1256 25.3483 86.6532 25.0853C86.1701 24.8347 85.6309 24.7341 85.0723 24.7353C84.5241 24.7382 83.9903 24.8334 83.5121 25.1133C83.0306 25.3846 82.599 25.8017 82.2276 26.324Z" fill="#263238"/>
<path d="M94.9569 26.3249C94.9157 25.7837 95.055 25.2305 95.3811 24.742C95.5493 24.5021 95.7723 24.2803 96.0522 24.1237C96.3345 23.9773 96.6594 23.8887 96.9743 23.8969C97.5914 23.8805 98.2464 24.2176 98.5745 24.7197C98.9096 25.2156 99.0271 25.7882 98.9426 26.3245C98.6846 25.8541 98.4084 25.4378 98.0761 25.1517C97.9129 25.0066 97.7373 24.9019 97.5522 24.8376C97.3725 24.7647 97.1689 24.7366 96.9698 24.7354C96.7694 24.7255 96.5872 24.7733 96.4034 24.8356C96.2228 24.9093 96.0497 25.026 95.8803 25.1703C95.5402 25.4662 95.2508 25.876 94.9569 26.3249Z" fill="#263238"/>
<path d="M80.7234 21.3044C81.6929 21.1127 84.0005 20.7821 87.1041 21.1585C87.3642 21.1902 87.5443 20.8984 87.3968 20.682C86.9458 20.0204 85.8167 19.0236 83.1584 19.2141C81.3463 19.3439 80.6451 20.2731 80.3788 20.8827C80.2794 21.1099 80.4802 21.3522 80.7234 21.3044Z" fill="#263238"/>
<path d="M94.5682 21.3472C95.2957 21.1304 97.0242 20.7392 99.3268 21.0327C99.5197 21.0574 99.6619 20.7615 99.5576 20.55C99.239 19.9024 98.4245 18.9378 96.438 19.1987C95.0843 19.3764 94.5373 20.3212 94.3225 20.9362C94.2425 21.165 94.386 21.4016 94.5682 21.3472Z" fill="#263238"/>
<path d="M70.9581 35.729C70.1102 35.6577 69.2589 35.2702 68.641 34.6C67.9951 33.9396 67.7288 32.9705 67.7412 32.0764C67.749 31.1852 68.087 30.2111 68.801 29.6072C69.498 28.9942 70.4206 28.7613 71.2644 28.8413C70.447 29.0544 69.6926 29.4304 69.188 30.0025C68.9469 30.2931 68.7334 30.6043 68.634 30.9704C68.5586 31.1406 68.5438 31.3369 68.493 31.517C68.4774 31.7083 68.4522 31.8995 68.4498 32.0916C68.4477 32.4766 68.4679 32.8645 68.5825 33.2248C68.6167 33.4136 68.7057 33.581 68.7725 33.759C68.8678 33.9223 68.9494 34.0962 69.0673 34.25C69.5162 34.879 70.1893 35.3749 70.9581 35.729Z" fill="#EB996E"/>
<path d="M87.1845 39.9934C87.8017 40.5428 88.4647 41.0023 89.1727 41.3503C89.8816 41.6904 90.6279 41.9424 91.4006 42.0125C91.5902 42.0566 91.7866 42.0366 91.9797 42.0526L92.2708 42.0644L92.5617 42.0419C92.7558 42.0262 92.9523 42.022 93.1467 41.9979C93.3389 41.9574 93.5327 41.9225 93.7284 41.89C93.8258 41.8715 93.925 41.8602 94.0214 41.8354L94.3078 41.7503L94.889 41.5885C95.2716 41.4606 95.6455 41.3013 96.0466 41.1793C95.7171 41.425 95.3744 41.6651 95.0152 41.8788L94.4478 42.1491C94.259 42.2442 94.0634 42.3225 93.8581 42.3763C93.0588 42.6689 92.181 42.7269 91.326 42.6534C90.4668 42.5617 89.6377 42.2487 88.9243 41.7865C88.2107 41.3271 87.5964 40.715 87.1845 39.9934Z" fill="#263238"/>
<path d="M75.0324 80.2623C75.0324 80.2623 87.3812 66.2762 88.2678 65.9353C89.1549 65.594 93.0434 64.7754 95.2269 65.1847C97.41 65.594 96.4528 67.2388 94.8514 67.2388C93.5533 67.2388 89.8866 68.1259 89.6822 68.1939C89.4773 68.2623 87.1718 71.3041 87.1718 71.3041C87.1718 71.3041 89.0185 69.142 93.2487 67.8456C97.4784 66.5491 98.5019 66.8904 98.5704 68.05C98.5704 68.05 99.4711 68.0401 99.7064 68.8031C99.9929 69.7302 98.9113 70.5744 97.8197 71.1202C96.7282 71.666 94.771 72.6182 93.9523 73.0494C93.1336 73.4805 90.2185 75.021 90.2185 75.021C90.2185 75.021 93.2886 74.016 94.3056 73.6619C96.1214 73.0296 97.9083 72.8837 98.3836 73.6619C98.7616 74.2807 97.7241 74.9262 94.4004 76.0404L91.0111 78.5747C90.805 78.761 90.8702 78.8645 90.723 79.0999C90.1937 79.9478 88.8239 82.4772 86.5971 84.1067C83.7998 86.1533 80.8789 86.4703 80.8789 86.4703L77.2909 88.8059C77.2901 88.8063 76.3499 86.1294 75.0324 80.2623Z" fill="#FFBE9D"/>
<path d="M85.2817 72.3943C85.5056 72.0101 85.7508 71.6395 86.0551 71.3011C86.1334 71.2174 86.2138 71.135 86.3242 71.0661C86.3667 71.0319 86.4726 70.9998 86.52 70.9969L86.6907 70.9775C86.9182 70.9623 87.1412 70.961 87.3692 70.968L87.2608 71.0068C88.0399 70.2471 88.8882 69.5681 89.8334 69.0125C90.3005 68.7359 90.8219 68.5046 91.3224 68.3208C91.8261 68.127 92.3376 67.956 92.8504 67.7894C93.8781 67.4634 94.9222 67.181 95.9936 67.0099C96.5286 66.9333 97.0728 66.8455 97.6293 66.9184C97.9005 66.9563 98.1981 67.0359 98.3952 67.2601C98.5934 67.491 98.5835 67.7919 98.5724 68.052C98.546 67.789 98.5003 67.5054 98.3156 67.3348C98.1313 67.167 97.8671 67.1237 97.6128 67.1171C97.0975 67.1159 96.5723 67.2115 96.0567 67.3302C95.0253 67.5788 94.0071 67.8974 92.9968 68.2346C92.491 68.402 91.9914 68.5867 91.4918 68.7701C90.9839 68.9498 90.5218 69.1535 90.0589 69.4119C89.5972 69.6613 89.1541 69.9499 88.7196 70.2516C88.2843 70.5509 87.8569 70.8736 87.4574 71.2154L87.4055 71.2599L87.3486 71.2541C87.1347 71.2327 86.9145 71.2191 86.6998 71.2187H86.5394C86.4768 71.222 86.473 71.2224 86.4215 71.2454C86.3387 71.2838 86.2521 71.351 86.1717 71.4206C85.8485 71.7084 85.5641 72.0534 85.2817 72.3943Z" fill="#E28A64"/>
<path d="M86.7141 73.6629C86.9017 73.2491 87.1144 72.8414 87.4479 72.5013C87.5336 72.4201 87.6395 72.3418 87.7644 72.301C87.8757 72.2647 87.9879 72.2346 88.1008 72.2086C88.3275 72.1555 88.5538 72.12 88.7888 72.1002L88.7344 72.1151C90.3247 71.2325 91.9348 70.3883 93.5928 69.6356C94.4193 69.2539 95.2556 68.8932 96.1114 68.5692C96.5372 68.4026 96.9713 68.2551 97.4157 68.1269C97.637 68.0617 97.8588 67.997 98.0937 67.957C98.3163 67.8964 98.5723 67.8907 98.8225 67.8861L98.8085 67.8857C99.0489 67.8989 99.2574 67.9607 99.4619 68.084C99.6602 68.2097 99.8205 68.4232 99.8675 68.6528C99.9186 68.8866 99.8914 69.0956 99.8576 69.2996C99.8201 69.5065 99.7463 69.7131 99.633 69.8932C99.3984 70.2531 99.0546 70.488 98.7154 70.6913C98.372 70.8932 98.0121 71.0565 97.6481 71.2078C97.9878 71.0083 98.3258 70.8059 98.6436 70.5812C98.9561 70.3532 99.255 70.094 99.4231 69.7708C99.5101 69.6121 99.5612 69.4385 99.5835 69.2572C99.6041 69.0741 99.6115 68.8816 99.5658 68.7316C99.4862 68.4191 99.1371 68.2641 98.811 68.2662L98.7966 68.2658C98.5934 68.286 98.3955 68.3 98.1783 68.3627C97.9664 68.4051 97.7541 68.4735 97.5422 68.5428C97.1185 68.6768 96.6988 68.8412 96.28 69.0049C95.4416 69.3318 94.6163 69.7028 93.7886 70.0672L91.3194 71.1983C90.4966 71.5767 89.6718 71.9551 88.856 72.3484L88.8271 72.3624L88.8012 72.3632C88.5835 72.3706 88.3584 72.39 88.1387 72.4176C88.0287 72.432 87.919 72.4506 87.8114 72.4749C87.717 72.4968 87.6309 72.5462 87.5447 72.613C87.2129 72.8946 86.9544 73.2812 86.7141 73.6629Z" fill="#E28A64"/>
<path d="M87.9791 76.0007C88.28 75.6684 88.578 75.3337 88.9127 75.0295C89.0005 74.959 89.0747 74.8679 89.2141 74.83C89.3385 74.8069 89.4531 74.8147 89.5681 74.823C89.7969 74.8428 90.0187 74.8815 90.2425 74.9285L90.1922 74.9302C91.2632 74.5385 92.3444 74.1787 93.4232 73.8102L95.0457 73.2677C95.5865 73.0921 96.1356 72.9115 96.725 72.8167C97.0194 72.7726 97.3294 72.7479 97.6538 72.818C97.9794 72.8761 98.2981 73.1012 98.4757 73.3761C98.524 73.4482 98.5586 73.5035 98.6027 73.5942C98.6472 73.6861 98.6695 73.7994 98.6629 73.9066C98.6497 74.1272 98.5396 74.2941 98.4333 74.4215C98.2111 74.6771 97.953 74.839 97.6937 74.9887C97.4378 75.133 97.1537 75.262 96.8866 75.358L96.0865 75.6585L94.4826 76.2497L94.5391 76.2187L91.1329 78.7304L91.191 78.6619C90.5583 79.7889 89.8522 80.8591 89.0533 81.8669C88.6518 82.3682 88.2165 82.8435 87.7466 83.2817C87.2783 83.7194 86.7618 84.116 86.1843 84.3917C86.7329 84.064 87.2111 83.6399 87.6485 83.1823C88.0866 82.7239 88.477 82.2231 88.8525 81.7132C89.6003 80.6921 90.2619 79.5989 90.8353 78.4785L90.8559 78.4385L90.8934 78.4101L94.2658 75.8531L94.2905 75.8342L94.3222 75.8218L95.9175 75.2105L96.7172 74.91C96.9872 74.8164 97.2242 74.7104 97.4666 74.5789C97.7012 74.4499 97.932 74.2995 98.0854 74.1243C98.162 74.0381 98.2094 73.9466 98.2119 73.8794C98.2144 73.8452 98.2107 73.8135 98.1929 73.7772C98.1756 73.7397 98.1373 73.6717 98.1064 73.6259C97.8578 73.2075 97.3265 73.1527 96.7869 73.2364C96.2477 73.3114 95.7106 73.4915 95.1619 73.6436L93.5238 74.1247L90.2487 75.1016L90.2215 75.1099L90.198 75.1033C89.9865 75.0452 89.7689 74.9936 89.5525 74.9619C89.4453 74.947 89.334 74.9355 89.2367 74.9475C89.1547 74.9603 89.0636 75.0402 88.9774 75.1049C88.6345 75.3873 88.3043 75.6932 87.9791 76.0007Z" fill="#E28A64"/>
<path d="M139.22 130.675C139.103 129.607 138.031 126.013 137.463 124.825C137.433 124.761 137.393 124.691 137.35 124.617C137.41 123.881 138.089 122.997 137.791 122.33C137.296 121.223 135.385 119.29 135.385 119.29C135.385 119.29 135.764 118.084 135.477 117.683C135.19 117.281 132.836 112.069 132.219 110.93C131.602 109.79 131.157 108.907 129.731 107.185C128.72 105.966 126.232 102.171 126.232 102.171C126.232 102.171 122.535 104.567 119.356 107.356C119.356 107.356 123.632 111.273 123.559 112.559C123.485 113.844 122.367 116.162 121.935 118.072C121.503 119.983 121.068 122.153 120.06 123.522C119.051 124.891 118.118 126.605 120.356 126.339C122.593 126.073 122.959 124.668 123.324 123.262C123.69 121.857 124.117 120.467 125.249 120.631C126.381 120.796 129.6 125.222 130.203 126.162C130.777 127.055 131.122 132.376 133.714 132.145C134.049 132.115 134.339 131.916 134.297 131.583C134.136 130.321 134.35 127.186 131.445 122.475C131.445 122.475 133.793 124.194 134.595 125.121C135.375 126.02 136.306 131.223 138.918 131.024C139.1 131.012 139.24 130.857 139.22 130.675Z" fill="#FFBE9D"/>
<path d="M137.349 124.612L136.54 123.427C136.405 123.233 136.268 123.042 136.122 122.865C136.05 122.776 135.977 122.691 135.901 122.614C135.863 122.576 135.824 122.546 135.787 122.511L135.643 122.404C134.887 121.822 134.153 121.216 133.447 120.572L133.408 120.537L133.397 120.512C133.176 119.986 132.965 119.455 132.794 118.905C133.132 119.372 133.43 119.859 133.718 120.351L133.669 120.291C134.453 120.844 135.209 121.437 135.944 122.052L136.08 122.17C136.127 122.219 136.178 122.268 136.221 122.318C136.307 122.418 136.382 122.52 136.453 122.623C136.589 122.832 136.707 123.046 136.817 123.263C137.031 123.698 137.213 124.146 137.349 124.612Z" fill="#E28A64"/>
<path d="M131.443 122.48C131.339 122.213 131.275 121.949 131.214 121.693C131.178 121.567 131.157 121.439 131.117 121.329C131.071 121.196 131.087 121.218 130.976 121.127C130.793 120.97 130.57 120.814 130.37 120.638C130.164 120.466 129.963 120.282 129.782 120.059C130.065 120.108 130.324 120.204 130.573 120.32C130.823 120.437 131.056 120.571 131.288 120.757C131.342 120.807 131.407 120.861 131.472 120.962C131.533 121.072 131.546 121.143 131.562 121.223C131.584 121.375 131.596 121.514 131.588 121.655C131.581 121.935 131.54 122.209 131.443 122.48Z" fill="#E28A64"/>
<path d="M135.386 119.295C135.067 119.108 134.823 118.858 134.598 118.593C134.381 118.322 134.182 118.035 134.059 117.686C134.379 117.873 134.622 118.123 134.847 118.388C135.064 118.66 135.263 118.947 135.386 119.295Z" fill="#E28A64"/>
<path d="M88.1277 138.07L75.0217 120.134C74.6751 119.66 74.5061 119.079 74.544 118.492L74.6268 117.21L101.445 114.182L88.1277 138.07Z" fill="#455A64"/>
<path d="M96.9253 117.669L80.024 119.616L92.2524 135.583L96.9253 117.669Z" fill="#304349"/>
<path d="M162.784 84.5298L161.631 83.7334C160.878 83.1942 159.958 82.9391 159.034 83.0133L92.8683 88.3267C91.9902 88.3972 91.2882 89.086 91.2017 89.9628L86.8759 133.646L74.6244 117.217L74.5345 118.606C74.5011 119.124 74.6504 119.637 74.9562 120.055L87.0952 136.667L88.1253 138.077L162.784 84.5298Z" fill="#263238"/>
<path d="M156.181 128.417L88.1261 138.068L93.2986 91.4233C93.3947 90.5585 94.0884 89.8824 94.9557 89.8091L161.57 84.1811C162.748 84.0817 163.701 85.1222 163.499 86.2863L156.181 128.417Z" fill="#455A64"/>
<path d="M124.366 110.499C123.736 112.706 123.942 115.241 126.008 115.831C128.074 116.421 130.259 115.111 130.89 112.904C131.52 110.697 131.314 108.162 129.248 107.572C127.182 106.982 124.996 108.292 124.366 110.499Z" fill="#F5F5F5"/>
<path d="M85.5003 119.882C85.5003 115.788 82.1815 112.469 78.0878 112.469C76.8742 112.469 75.7324 112.766 74.7212 113.283C73.351 110.519 70.5088 108.614 67.2144 108.614C62.5848 108.614 58.8315 112.367 58.8315 116.997C58.8315 117.052 58.8385 117.105 58.8398 117.159C58.4354 117.057 58.0141 116.997 57.578 116.997C54.7349 116.997 52.4298 119.302 52.4298 122.145C52.4298 124.989 54.7349 127.293 57.578 127.293H79.1142L79.0614 127.222C82.6939 126.745 85.5003 123.644 85.5003 119.882Z" fill="white"/>
<path d="M128.82 33.9703L124.467 32.0217V30.8106L128.82 28.8711V30.237L126.024 31.4116L128.82 32.5953V33.9703ZM130.323 32.6044V32.4314C130.323 32.1886 130.371 31.9853 130.468 31.8214C130.571 31.6574 130.708 31.4966 130.878 31.3388C131.036 31.187 131.191 31.0565 131.342 30.9472C131.494 30.8379 131.619 30.7226 131.716 30.6012C131.813 30.4798 131.861 30.3371 131.861 30.1732C131.861 29.9365 131.776 29.7696 131.606 29.6724C131.443 29.5692 131.166 29.5176 130.778 29.5176C130.523 29.5176 130.271 29.551 130.022 29.6178C129.773 29.6785 129.561 29.7574 129.385 29.8545V28.6253C129.609 28.516 129.873 28.428 130.177 28.3612C130.486 28.2944 130.823 28.2611 131.188 28.2611C131.892 28.2611 132.429 28.4159 132.799 28.7254C133.17 29.029 133.355 29.4478 133.355 29.982C133.355 30.322 133.285 30.5982 133.145 30.8106C133.006 31.017 132.802 31.2295 132.535 31.448C132.311 31.6362 132.122 31.8001 131.971 31.9397C131.819 32.0733 131.743 32.2554 131.743 32.4861V32.6044H130.323ZM130.259 34.2161V33.1599H131.798V34.2161H130.259ZM134.102 36.1829V29.9001H135.377L135.449 30.2734C135.625 30.1277 135.823 30.0154 136.041 29.9365C136.26 29.8515 136.515 29.809 136.806 29.809C137.419 29.809 137.905 29.9759 138.263 30.3098C138.621 30.6376 138.8 31.19 138.8 31.967C138.8 32.738 138.615 33.3207 138.245 33.7153C137.881 34.1099 137.377 34.3072 136.733 34.3072C136.278 34.3072 135.89 34.2131 135.568 34.0249V36.1829H134.102ZM136.36 33.2327C136.991 33.2327 137.307 32.8017 137.307 31.9397C137.307 31.5269 137.234 31.2477 137.088 31.102C136.943 30.9563 136.709 30.8835 136.387 30.8835C136.078 30.8835 135.805 30.9927 135.568 31.2113V32.9596C135.683 33.0445 135.798 33.1113 135.914 33.1599C136.035 33.2084 136.184 33.2327 136.36 33.2327ZM139.544 34.2161V28.0789H141.01V30.2188C141.174 30.0974 141.377 30.0002 141.62 29.9274C141.863 29.8485 142.124 29.809 142.403 29.809C142.98 29.809 143.402 29.9456 143.669 30.2188C143.942 30.4919 144.078 30.9108 144.078 31.4753V34.2161H142.612V31.5755C142.612 31.3266 142.561 31.1506 142.458 31.0474C142.354 30.9442 142.169 30.8926 141.902 30.8926C141.744 30.8926 141.583 30.929 141.42 31.0018C141.256 31.0747 141.119 31.1657 141.01 31.275V34.2161H139.544ZM144.959 36.1829V29.9001H146.234L146.307 30.2734C146.483 30.1277 146.68 30.0154 146.899 29.9365C147.117 29.8515 147.372 29.809 147.664 29.809C148.277 29.809 148.762 29.9759 149.12 30.3098C149.479 30.6376 149.658 31.19 149.658 31.967C149.658 32.738 149.473 33.3207 149.102 33.7153C148.738 34.1099 148.234 34.3072 147.591 34.3072C147.135 34.3072 146.747 34.2131 146.425 34.0249V36.1829H144.959ZM147.217 33.2327C147.849 33.2327 148.164 32.8017 148.164 31.9397C148.164 31.5269 148.092 31.2477 147.946 31.102C147.8 30.9563 147.566 30.8835 147.245 30.8835C146.935 30.8835 146.662 30.9927 146.425 31.2113V32.9596C146.541 33.0445 146.656 33.1113 146.771 33.1599C146.893 33.2084 147.041 33.2327 147.217 33.2327Z" fill="#9FC1F7"/>
<path d="M126.962 45.2335C126.21 45.2335 125.606 45.0484 125.15 44.6781C124.695 44.3017 124.467 43.7372 124.467 42.9845C124.467 42.2985 124.655 41.7522 125.032 41.3454C125.408 40.9387 125.973 40.7354 126.725 40.7354C127.411 40.7354 127.943 40.9114 128.319 41.2635C128.695 41.6156 128.884 42.0891 128.884 42.684V43.4579H125.824C125.891 43.7433 126.046 43.9436 126.288 44.0589C126.537 44.1682 126.874 44.2228 127.299 44.2228C127.536 44.2228 127.776 44.2016 128.018 44.1591C128.267 44.1166 128.474 44.062 128.638 43.9952V44.9513C128.431 45.0484 128.185 45.1182 127.9 45.1607C127.615 45.2093 127.302 45.2335 126.962 45.2335ZM125.824 42.6111H127.609V42.4199C127.609 42.2074 127.545 42.0405 127.418 41.9191C127.29 41.7916 127.075 41.7279 126.771 41.7279C126.419 41.7279 126.173 41.8007 126.033 41.9464C125.894 42.086 125.824 42.3076 125.824 42.6111ZM131.905 45.2335C131.135 45.2335 130.53 45.0454 130.093 44.669C129.662 44.2926 129.447 43.7311 129.447 42.9845C129.447 42.2257 129.672 41.6611 130.121 41.2908C130.576 40.9205 131.18 40.7354 131.933 40.7354C132.248 40.7354 132.522 40.7597 132.752 40.8082C132.989 40.8507 133.217 40.9236 133.435 41.0268V42.0648C133.095 41.9009 132.698 41.8189 132.242 41.8189C131.817 41.8189 131.493 41.9039 131.268 42.0739C131.05 42.2439 130.94 42.5474 130.94 42.9845C130.94 43.3912 131.043 43.6886 131.25 43.8768C131.456 44.0589 131.784 44.15 132.233 44.15C132.676 44.15 133.08 44.0589 133.444 43.8768V44.9604C133.226 45.0575 132.989 45.1273 132.734 45.1698C132.485 45.2123 132.209 45.2335 131.905 45.2335ZM134.191 45.1425V39.0053H135.657V41.1451C135.821 41.0237 136.024 40.9266 136.267 40.8537C136.51 40.7748 136.771 40.7354 137.05 40.7354C137.627 40.7354 138.048 40.872 138.316 41.1451C138.589 41.4183 138.725 41.8372 138.725 42.4017V45.1425H137.259V42.5019C137.259 42.253 137.208 42.0769 137.105 41.9737C137.001 41.8705 136.816 41.8189 136.549 41.8189C136.391 41.8189 136.23 41.8554 136.066 41.9282C135.903 42.0011 135.766 42.0921 135.657 42.2014V45.1425H134.191ZM141.802 45.2335C140.97 45.2335 140.357 45.0423 139.962 44.6599C139.568 44.2714 139.371 43.7129 139.371 42.9845C139.371 42.2621 139.568 41.7066 139.962 41.3181C140.363 40.9296 140.976 40.7354 141.802 40.7354C142.633 40.7354 143.247 40.9296 143.641 41.3181C144.042 41.7066 144.242 42.2621 144.242 42.9845C144.242 43.7129 144.045 44.2714 143.65 44.6599C143.256 45.0423 142.64 45.2335 141.802 45.2335ZM141.802 44.0862C142.142 44.0862 142.385 44.0013 142.53 43.8313C142.676 43.6613 142.749 43.379 142.749 42.9845C142.749 42.5899 142.676 42.3076 142.53 42.1376C142.385 41.9677 142.142 41.8827 141.802 41.8827C141.468 41.8827 141.228 41.9677 141.082 42.1376C140.937 42.3076 140.864 42.5899 140.864 42.9845C140.864 43.379 140.937 43.6613 141.082 43.8313C141.228 44.0013 141.468 44.0862 141.802 44.0862ZM146.76 41.1724L147.434 39.1874H148.426L147.889 41.1724H146.76ZM148.281 41.1724L148.954 39.1874H149.938L149.41 41.1724H148.281ZM150.695 45.1425V39.2785H152.161V41.6004H154.455V39.2785H155.921V45.1425H154.455V42.8206H152.161V45.1425H150.695ZM159.161 45.2335C158.408 45.2335 157.804 45.0484 157.349 44.6781C156.894 44.3017 156.666 43.7372 156.666 42.9845C156.666 42.2985 156.854 41.7522 157.23 41.3454C157.607 40.9387 158.171 40.7354 158.924 40.7354C159.61 40.7354 160.141 40.9114 160.518 41.2635C160.894 41.6156 161.082 42.0891 161.082 42.684V43.4579H158.023C158.089 43.7433 158.244 43.9436 158.487 44.0589C158.736 44.1682 159.073 44.2228 159.498 44.2228C159.735 44.2228 159.974 44.2016 160.217 44.1591C160.466 44.1166 160.672 44.062 160.836 43.9952V44.9513C160.63 45.0484 160.384 45.1182 160.099 45.1607C159.813 45.2093 159.501 45.2335 159.161 45.2335ZM158.023 42.6111H159.807V42.4199C159.807 42.2074 159.744 42.0405 159.616 41.9191C159.489 41.7916 159.273 41.7279 158.97 41.7279C158.618 41.7279 158.372 41.8007 158.232 41.9464C158.092 42.086 158.023 42.3076 158.023 42.6111ZM163.157 45.2335C162.684 45.2335 162.344 45.1303 162.137 44.924C161.931 44.7176 161.828 44.3867 161.828 43.9314V39.0053H163.294V43.7858C163.294 43.9254 163.321 44.0225 163.376 44.0771C163.436 44.1257 163.524 44.15 163.64 44.15C163.804 44.15 163.949 44.1287 164.077 44.0862V45.0787C163.937 45.1334 163.798 45.1728 163.658 45.1971C163.524 45.2214 163.357 45.2335 163.157 45.2335ZM165.727 45.2335C165.253 45.2335 164.914 45.1303 164.707 44.924C164.501 44.7176 164.398 44.3867 164.398 43.9314V39.0053H165.864V43.7858C165.864 43.9254 165.891 44.0225 165.945 44.0771C166.006 44.1257 166.094 44.15 166.21 44.15C166.373 44.15 166.519 44.1287 166.647 44.0862V45.0787C166.507 45.1334 166.367 45.1728 166.228 45.1971C166.094 45.2214 165.927 45.2335 165.727 45.2335ZM169.448 45.2335C168.616 45.2335 168.003 45.0423 167.608 44.6599C167.214 44.2714 167.016 43.7129 167.016 42.9845C167.016 42.2621 167.214 41.7066 167.608 41.3181C168.009 40.9296 168.622 40.7354 169.448 40.7354C170.279 40.7354 170.892 40.9296 171.287 41.3181C171.688 41.7066 171.888 42.2621 171.888 42.9845C171.888 43.7129 171.691 44.2714 171.296 44.6599C170.902 45.0423 170.285 45.2335 169.448 45.2335ZM169.448 44.0862C169.788 44.0862 170.03 44.0013 170.176 43.8313C170.322 43.6613 170.395 43.379 170.395 42.9845C170.395 42.5899 170.322 42.3076 170.176 42.1376C170.03 41.9677 169.788 41.8827 169.448 41.8827C169.114 41.8827 168.874 41.9677 168.728 42.1376C168.583 42.3076 168.51 42.5899 168.51 42.9845C168.51 43.379 168.583 43.6613 168.728 43.8313C168.874 44.0013 169.114 44.0862 169.448 44.0862Z" fill="#9FC1F7"/>
<path d="M125.833 56.0689L124.467 50.2049H125.906L126.68 53.7378L127.481 51.0335V50.2049H128.683L129.694 53.7469L130.504 50.2049H131.943L130.586 56.0689H129.23L128.246 52.6816L127.19 56.0689H125.833ZM134.341 56.1599C133.51 56.1599 132.897 55.9687 132.502 55.5863C132.107 55.1978 131.91 54.6393 131.91 53.9108C131.91 53.1885 132.107 52.633 132.502 52.2445C132.903 51.856 133.516 51.6618 134.341 51.6618C135.173 51.6618 135.786 51.856 136.181 52.2445C136.581 52.633 136.782 53.1885 136.782 53.9108C136.782 54.6393 136.584 55.1978 136.19 55.5863C135.795 55.9687 135.179 56.1599 134.341 56.1599ZM134.341 55.0126C134.681 55.0126 134.924 54.9276 135.07 54.7577C135.215 54.5877 135.288 54.3054 135.288 53.9108C135.288 53.5163 135.215 53.234 135.07 53.064C134.924 52.8941 134.681 52.8091 134.341 52.8091C134.007 52.8091 133.768 52.8941 133.622 53.064C133.476 53.234 133.403 53.5163 133.403 53.9108C133.403 54.3054 133.476 54.5877 133.622 54.7577C133.768 54.9276 134.007 55.0126 134.341 55.0126ZM137.525 56.0689V51.7528H138.918L138.964 52.1535C139.152 52.0381 139.386 51.9349 139.665 51.8439C139.944 51.7467 140.224 51.686 140.503 51.6618V52.7635C140.345 52.7818 140.169 52.8121 139.975 52.8546C139.787 52.891 139.604 52.9365 139.428 52.9912C139.258 53.0458 139.113 53.1035 138.991 53.1642V56.0689H137.525ZM142.385 56.1599C141.911 56.1599 141.571 56.0567 141.365 55.8503C141.159 55.6439 141.056 55.3131 141.056 54.8578V49.9317H142.522V54.7121C142.522 54.8518 142.549 54.9489 142.603 55.0035C142.664 55.0521 142.752 55.0764 142.868 55.0764C143.031 55.0764 143.177 55.0551 143.305 55.0126V56.0051C143.165 56.0598 143.025 56.0992 142.886 56.1235C142.752 56.1478 142.585 56.1599 142.385 56.1599ZM145.669 56.1599C145.25 56.1599 144.892 56.0932 144.594 55.9596C144.297 55.8261 144.069 55.6075 143.911 55.304C143.753 54.9944 143.674 54.5816 143.674 54.0656C143.674 53.5436 143.765 53.1065 143.948 52.7544C144.13 52.3963 144.379 52.1262 144.694 51.944C145.016 51.7559 145.383 51.6618 145.796 51.6618C146.021 51.6618 146.221 51.686 146.397 51.7346C146.579 51.7832 146.749 51.856 146.907 51.9531V49.9317H148.373V56.0689H147.107L147.025 55.7047C146.849 55.8564 146.652 55.9718 146.433 56.0507C146.215 56.1235 145.96 56.1599 145.669 56.1599ZM146.087 55.0946C146.409 55.0946 146.682 54.9853 146.907 54.7668V53.0185C146.701 52.8303 146.436 52.7362 146.115 52.7362C145.805 52.7362 145.568 52.8546 145.405 53.0913C145.247 53.322 145.168 53.6498 145.168 54.0748C145.168 54.4875 145.244 54.7607 145.395 54.8943C145.553 55.0278 145.784 55.0946 146.087 55.0946ZM149.208 54.4663L149.153 51.7437V50.2049H150.619V51.7437L150.564 54.4663H149.208ZM149.116 56.0689V55.0126H150.655V56.0689H149.116ZM151.224 52.0988L151.761 50.1138H152.89L152.216 52.0988H151.224ZM152.745 52.0988L153.273 50.1138H154.402L153.728 52.0988H152.745ZM155.313 53.1551V52.0624H156.488V53.1551H155.313ZM154.976 57.1616L155.268 55.2221H156.515L156.024 57.1616H154.976Z" fill="#9FC1F7"/>
<path d="M125.405 65.3835V65.2105C125.405 64.9677 125.454 64.7644 125.551 64.6005C125.654 64.4366 125.791 64.2757 125.961 64.1179C126.118 63.9661 126.273 63.8356 126.425 63.7263C126.577 63.6171 126.701 63.5017 126.798 63.3803C126.895 63.2589 126.944 63.1163 126.944 62.9523C126.944 62.7156 126.859 62.5487 126.689 62.4515C126.525 62.3483 126.249 62.2967 125.86 62.2967C125.606 62.2967 125.354 62.3301 125.105 62.3969C124.856 62.4576 124.643 62.5365 124.467 62.6337V61.4044C124.692 61.2951 124.956 61.2071 125.259 61.1403C125.569 61.0736 125.906 61.0402 126.27 61.0402C126.974 61.0402 127.512 61.195 127.882 61.5046C128.252 61.8081 128.437 62.2269 128.437 62.7611C128.437 63.1011 128.368 63.3773 128.228 63.5897C128.088 63.7961 127.885 64.0086 127.618 64.2271C127.393 64.4153 127.205 64.5792 127.053 64.7188C126.902 64.8524 126.826 65.0345 126.826 65.2652V65.3835H125.405ZM125.341 66.9952V65.939H126.88V66.9952H125.341ZM129.002 66.7494V65.3744L131.789 64.1907L129.002 63.0161V61.6502L133.355 63.5897V64.8008L129.002 66.7494Z" fill="#9FC1F7"/>
<path d="M17.4519 81.2219H42.6429C44.1829 81.2219 45.4315 79.9733 45.4315 78.4332V67.9073C45.4315 66.3673 44.1829 65.1187 42.6429 65.1187H17.4519C15.9119 65.1187 14.6633 66.3673 14.6633 67.9073V78.4332C14.6633 79.9737 15.9119 81.2219 17.4519 81.2219Z" fill="#245FFF"/>
<path d="M21.8195 77.1677V71.4453H24.7696C25.2375 71.4453 25.6226 71.5401 25.9247 71.7297C26.2327 71.9133 26.4608 72.1651 26.6089 72.4849C26.757 72.8048 26.831 73.1602 26.831 73.5512C26.831 73.954 26.7451 74.3124 26.5733 74.6264C26.4016 74.9403 26.1587 75.1862 25.8447 75.3639C25.5308 75.5416 25.1605 75.6305 24.734 75.6305H23.49V77.1677H21.8195ZM23.49 74.3509H24.3519C24.6126 74.3509 24.8051 74.2769 24.9295 74.1288C25.0598 73.9807 25.125 73.7882 25.125 73.5512C25.125 73.2965 25.0657 73.0951 24.9473 72.947C24.8288 72.7989 24.6452 72.7248 24.3964 72.7248H23.49V74.3509ZM27.2776 77.1677V71.4453H28.9481V73.5779H30.9207V71.4453H32.5912V77.1677H30.9207V75.0351H28.9481V77.1677H27.2776ZM33.3952 77.1677V71.4453H36.3452C36.8132 71.4453 37.1983 71.5401 37.5004 71.7297C37.8084 71.9133 38.0365 72.1651 38.1846 72.4849C38.3327 72.8048 38.4067 73.1602 38.4067 73.5512C38.4067 73.954 38.3208 74.3124 38.149 74.6264C37.9773 74.9403 37.7344 75.1862 37.4204 75.3639C37.1065 75.5416 36.7362 75.6305 36.3097 75.6305H35.0657V77.1677H33.3952ZM35.0657 74.3509H35.9276C36.1883 74.3509 36.3808 74.2769 36.5052 74.1288C36.6355 73.9807 36.7007 73.7882 36.7007 73.5512C36.7007 73.2965 36.6414 73.0951 36.523 72.947C36.4045 72.7989 36.2208 72.7248 35.972 72.7248H35.0657V74.3509Z" fill="white"/>
<path d="M33.8235 100.767L32.4417 99.8364C32.6152 99.1715 32.7171 98.4778 32.7171 97.7589C32.7171 96.96 32.5971 96.19 32.3844 95.4591L33.814 94.4904C34.471 94.0452 34.6429 93.1515 34.1973 92.494L32.8531 90.5105C32.4079 89.8534 31.5142 89.6815 30.8567 90.1271L29.367 91.1366C28.6835 90.6292 27.9218 90.2244 27.1002 89.9461V88.1344C27.1002 87.3405 26.4567 86.6971 25.6628 86.6971H23.2666C22.4727 86.6971 21.8292 87.3405 21.8292 88.1344V89.9461C20.9994 90.2269 20.231 90.637 19.543 91.151L18.0504 90.1457C17.3921 89.7021 16.4988 89.8765 16.0553 90.5352L14.7168 92.5229C14.2733 93.1812 14.4476 94.0745 15.1064 94.518L16.5392 95.483C16.3311 96.2069 16.2128 96.9691 16.2128 97.7593C16.2128 98.4864 16.3166 99.1884 16.4943 99.8608L15.1158 100.795C14.4588 101.24 14.2869 102.134 14.7325 102.791L16.0767 104.775C16.5219 105.432 17.4156 105.604 18.0731 105.158L19.3996 104.26C20.1234 104.825 20.9425 105.272 21.83 105.572V107.151C21.83 107.945 22.4735 108.588 23.2674 108.588H25.6636C26.4576 108.588 27.101 107.945 27.101 107.151V105.572C27.9968 105.269 28.8224 104.818 29.5512 104.245L30.8798 105.14C31.5385 105.583 32.4314 105.409 32.8749 104.75L34.2134 102.762C34.6565 102.103 34.4822 101.21 33.8235 100.767ZM24.4649 101.938C22.1602 101.938 20.2854 100.064 20.2854 97.7589C20.2854 95.4542 22.1602 93.5794 24.4649 93.5794C26.7696 93.5794 28.6452 95.4546 28.6452 97.7589C28.6448 100.064 26.7696 101.938 24.4649 101.938Z" fill="#A6A6A6"/>
<path d="M138.896 73.7946C137.529 73.7946 136.486 73.4586 135.767 72.7865C135.048 72.1144 134.688 71.165 134.688 69.9381C134.688 68.6721 135.04 67.7031 135.743 67.031C136.447 66.3512 137.494 66.0112 138.885 66.0112C139.354 66.0112 139.772 66.0464 140.139 66.1167C140.506 66.187 140.858 66.2847 141.194 66.4098V68.3322C140.522 68.0352 139.803 67.8867 139.037 67.8867C138.326 67.8867 137.798 68.0508 137.455 68.3791C137.111 68.6994 136.939 69.2191 136.939 69.9381C136.939 70.6414 137.119 71.1493 137.478 71.4619C137.845 71.7667 138.373 71.9191 139.061 71.9191C139.436 71.9191 139.799 71.8839 140.151 71.8136C140.51 71.7432 140.866 71.6338 141.217 71.4854V73.4195C140.881 73.5367 140.526 73.6266 140.151 73.6891C139.783 73.7594 139.365 73.7946 138.896 73.7946ZM144.516 73.7946C144.008 73.7946 143.528 73.7555 143.074 73.6774C142.621 73.5914 142.234 73.4742 141.914 73.3257V71.5088C142.266 71.6729 142.656 71.8058 143.086 71.9074C143.516 72.0089 143.918 72.0597 144.293 72.0597C144.684 72.0597 144.977 72.0285 145.173 71.966C145.376 71.8956 145.477 71.7432 145.477 71.5088C145.477 71.3447 145.419 71.2158 145.302 71.122C145.192 71.0282 145.016 70.9422 144.774 70.8641C144.54 70.786 144.231 70.6883 143.848 70.5711C143.34 70.4069 142.938 70.2272 142.641 70.0318C142.344 69.8365 142.129 69.5981 141.996 69.3168C141.871 69.0355 141.808 68.6916 141.808 68.2853C141.808 67.5429 142.07 66.9802 142.594 66.5973C143.125 66.2066 143.911 66.0112 144.95 66.0112C145.364 66.0112 145.79 66.0464 146.228 66.1167C146.673 66.187 147.032 66.2652 147.306 66.3512V68.1798C146.939 68.0313 146.587 67.9258 146.251 67.8633C145.915 67.8008 145.598 67.7695 145.302 67.7695C144.958 67.7695 144.665 67.7969 144.422 67.8516C144.18 67.9063 144.059 68.0469 144.059 68.2736C144.059 68.4689 144.161 68.6135 144.364 68.7073C144.575 68.7932 144.946 68.9065 145.477 69.0472C146.095 69.2113 146.564 69.4106 146.884 69.645C147.212 69.8795 147.435 70.153 147.552 70.4656C147.669 70.7703 147.728 71.1181 147.728 71.5088C147.728 72.1965 147.462 72.7513 146.931 73.1733C146.399 73.5875 145.595 73.7946 144.516 73.7946ZM150.904 73.7946C150.396 73.7946 149.915 73.7555 149.462 73.6774C149.009 73.5914 148.622 73.4742 148.301 73.3257V71.5088C148.653 71.6729 149.044 71.8058 149.474 71.9074C149.903 72.0089 150.306 72.0597 150.681 72.0597C151.072 72.0597 151.365 72.0285 151.56 71.966C151.763 71.8956 151.865 71.7432 151.865 71.5088C151.865 71.3447 151.806 71.2158 151.689 71.122C151.58 71.0282 151.404 70.9422 151.162 70.8641C150.927 70.786 150.618 70.6883 150.236 70.5711C149.728 70.4069 149.325 70.2272 149.028 70.0318C148.731 69.8365 148.516 69.5981 148.383 69.3168C148.258 69.0355 148.196 68.6916 148.196 68.2853C148.196 67.5429 148.458 66.9802 148.981 66.5973C149.513 66.2066 150.298 66.0112 151.337 66.0112C151.752 66.0112 152.177 66.0464 152.615 66.1167C153.061 66.187 153.42 66.2652 153.694 66.3512V68.1798C153.326 68.0313 152.975 67.9258 152.639 67.8633C152.303 67.8008 151.986 67.7695 151.689 67.7695C151.345 67.7695 151.052 67.7969 150.81 67.8516C150.568 67.9063 150.447 68.0469 150.447 68.2736C150.447 68.4689 150.548 68.6135 150.751 68.7073C150.962 68.7932 151.334 68.9065 151.865 69.0472C152.482 69.2113 152.951 69.4106 153.272 69.645C153.6 69.8795 153.822 70.153 153.94 70.4656C154.057 70.7703 154.116 71.1181 154.116 71.5088C154.116 72.1965 153.85 72.7513 153.318 73.1733C152.787 73.5875 151.982 73.7946 150.904 73.7946Z" fill="#245FFF"/>
<path d="M152.35 112.975H177.541C179.081 112.975 180.329 111.726 180.329 110.186V99.6601C180.329 98.1201 179.081 96.8715 177.541 96.8715H152.35C150.81 96.8715 149.562 98.1201 149.562 99.6601V110.186C149.561 111.727 150.81 112.975 152.35 112.975Z" fill="#245FFF"/>
<path d="M162.385 108.545L157.762 106.498V105.03L162.385 102.984V104.641L159.656 105.759L162.385 106.887V108.545ZM162.859 108.715L165.076 102.444H166.904L164.688 108.715H162.859ZM167.374 108.545V106.887L170.102 105.759L167.374 104.641V102.984L171.997 105.03V106.498L167.374 108.545Z" fill="white"/>
</svg>
