<svg width="232" height="210" viewBox="0 0 232 210" fill="none" xmlns="http://www.w3.org/2000/svg">
<g filter="url(#filter0_d_4001_4976)">
<path d="M94.6238 -5H132.376L160 210H67L94.6238 -5Z" fill="#AFBFEA" fill-opacity="0.38" shape-rendering="crispEdges"/>
</g>
<g filter="url(#filter1_d_4001_4976)">
<path d="M107.792 81.1478C107.792 81.1478 107.607 86.8831 106.875 89.4525L101.076 93.5055L122.904 96.7784L117.698 89.5718C117.698 89.5718 116.127 81.882 116.951 79.0372C117.775 76.1924 107.792 81.1478 107.792 81.1478Z" fill="#FFC691"/>
<path d="M107.76 81.9375C107.76 81.9357 109.486 86.1008 112.737 86.0091C115.988 85.9173 116.728 82.2336 116.728 82.2336L107.76 81.9375Z" fill="#EB9E69"/>
<path d="M105.819 78.5695C105.819 78.5695 104.769 73.3176 104.036 71.7271C103.304 70.1364 102.693 63.0401 110.814 62.6729C110.814 62.6729 113.928 63.04 115.637 62C115.637 62 115.637 63.0401 115.21 63.4071C115.21 63.4071 118.018 62.7342 120.216 65.1812C122.415 67.6283 118.751 76.1931 118.934 78.2118L105.819 78.5695Z" fill="black"/>
<path d="M112.366 84.4067C110.01 84.3651 105.674 81.222 105.674 77.3298V71.2561C105.674 69.8348 106.663 68.6719 107.872 68.6719H116.86C118.069 68.6719 119.058 69.8348 119.058 71.2561V76.9861C119.058 81.0674 115.068 84.4545 112.366 84.4067Z" fill="#FFC691"/>
<path d="M105.673 74.492C105.673 74.492 105.685 70.8426 108.57 70.2813C111.455 69.7201 117.912 72.0602 118.828 69.3989C119.744 66.7378 106.347 66.7836 105.673 68.4813C104.998 70.179 105.673 74.492 105.673 74.492Z" fill="black"/>
<path d="M96.147 136.516C96.147 136.516 97.0658 164.624 95.692 180.663C94.3183 196.701 95.702 219.021 95.702 219.021C95.702 219.021 100.095 221.448 104.858 219.021C104.858 219.021 110.081 188.037 110.048 180.663C110.013 172.81 115.733 137.741 115.733 137.741L96.147 136.516Z" fill="#2B478B"/>
<path d="M128.639 219.021C128.639 219.021 124.247 221.449 119.484 219.021C119.484 219.021 114.262 188.037 114.295 180.663C114.31 177.346 113.298 169.174 112.124 160.842C110.518 149.442 108.609 137.742 108.609 137.742L128.954 136.469C128.954 136.469 127.276 164.626 128.65 180.663C130.024 196.702 128.639 219.021 128.639 219.021Z" fill="#2B478B"/>
<path d="M128.71 141.192C128.71 141.192 120.037 142.875 112.124 142.875C108.673 142.875 104.924 142.495 101.938 142.095C98.6374 141.657 96.2707 141.192 96.2707 141.192C96.2707 141.192 94.5122 141.346 95.5509 132.66C96.3403 126.049 96.0931 120.081 95.9172 113.94C95.8971 113.257 95.9117 112.449 95.9538 111.55C96.2908 104.391 98.4522 91.5014 100.099 90.8095C100.099 90.8095 102.548 89.8973 106.874 89.4531C106.874 89.5375 109.386 93.2155 112.366 93.6284C114.218 92.8943 115.672 92.2684 117.698 89.5724C120.264 89.8716 123.063 90.3817 126.056 91.1875C126.056 91.1875 126.368 92.553 127.544 116.243C128.011 125.627 131.207 141.223 128.71 141.192Z" fill="white"/>
<path d="M114.294 180.659C114.308 177.343 113.297 169.17 112.123 160.838C113.341 155.86 116.309 151.07 116.309 151.07C120.064 161.623 114.294 180.659 114.294 180.659Z" fill="#233862"/>
<path d="M87.9012 119.005C87.6943 119.178 88.416 120.969 89.4784 123.303C91.6655 128.099 95.2978 135.181 95.2978 135.181C94.7721 137.18 94.1952 138.415 94.1952 138.415C88.0845 133.605 84.1446 129.512 81.6297 126.374C78.0945 121.96 77.3691 119.429 77.3691 119.429C90.9752 91.6793 100.55 90.6562 100.55 90.6562L99.4192 108.995C99.4192 108.995 88.5314 118.48 87.9012 119.005Z" fill="white"/>
<path d="M94.5729 135.531C94.5729 135.531 97.87 132.472 99.2134 134.185C100.557 135.898 100.801 138.59 99.7629 138.406C98.7248 138.223 96.5879 137.244 96.2826 137.734C95.9773 138.223 94.6095 139.159 94.1944 138.415C93.7793 137.672 94.5729 135.531 94.5729 135.531Z" fill="#FFC691"/>
<path d="M95.297 135.183C94.7713 137.181 94.1944 138.416 94.1944 138.416C88.0838 133.606 84.1438 129.513 81.6289 126.375C83.5248 126.234 86.2925 125.555 89.4778 123.305C91.6647 128.1 95.297 135.183 95.297 135.183Z" fill="#FFC691"/>
<path d="M147.849 119.43C147.849 119.43 147.123 121.961 143.588 126.375C141.073 129.513 137.133 133.606 131.023 138.416C131.023 138.416 130.446 137.181 129.92 135.182C129.92 135.182 133.552 128.1 135.74 123.304C136.802 120.97 137.524 119.179 137.316 119.006C136.828 118.599 130.176 112.808 127.209 110.226C126.348 109.475 125.799 108.996 125.799 108.996L125.119 90.9297C125.119 90.9297 134.243 91.6803 147.849 119.43Z" fill="white"/>
<path d="M130.643 135.531C130.643 135.531 127.346 132.472 126.003 134.185C124.66 135.898 124.415 138.59 125.454 138.406C126.492 138.223 128.628 137.244 128.934 137.734C129.239 138.223 130.607 139.159 131.022 138.415C131.437 137.672 130.643 135.531 130.643 135.531Z" fill="#FFC691"/>
<path d="M129.918 135.183C130.444 137.181 131.021 138.416 131.021 138.416C137.131 133.606 141.071 129.513 143.586 126.375C141.69 126.234 138.923 125.555 135.737 123.305C133.55 128.1 129.918 135.183 129.918 135.183Z" fill="#FFC691"/>
<path d="M107.178 88.0547C107.178 88.0547 106.208 88.4594 105.934 89.5604C105.934 89.5604 109.821 93.5672 112.365 93.6285L107.178 88.0547Z" fill="#245FFF"/>
<path d="M112.365 93.6279L117.383 87.8516C117.383 87.8516 118.419 88.5347 118.404 89.6589C118.404 89.6589 114.523 93.7808 112.365 93.6279Z" fill="#245FFF"/>
<path d="M111.46 93.2006C111.46 93.2006 107.63 126.328 108.964 130.366C109.65 132.445 110.569 134.243 111.299 135.498C111.825 136.401 113.128 136.399 113.649 135.493C114.666 133.724 115.995 131.164 115.995 129.864C115.995 127.759 113.089 93.1719 113.089 93.1719L111.46 93.2006Z" fill="#245FFF"/>
<path d="M110.458 91.5811C110.458 91.5811 112.773 91.3487 114.182 91.4919C114.461 91.5203 114.617 91.8267 114.481 92.0729C114.086 92.7852 113.28 94.0202 112.437 94.0202C111.253 94.0202 109.408 91.663 110.458 91.5811Z" fill="#245FFF"/>
<path d="M110.488 80.4937C110.488 80.4937 111.222 81.4883 112.504 81.4527C113.785 81.4172 114.388 80.4937 114.388 80.4937C114.388 80.4937 112.225 80.1387 110.488 80.4937Z" fill="white"/>
</g>
<defs>
<filter id="filter0_d_4001_4976" x="33" y="-35" width="161" height="283" filterUnits="userSpaceOnUse" color-interpolation-filters="sRGB">
<feFlood flood-opacity="0" result="BackgroundImageFix"/>
<feColorMatrix in="SourceAlpha" type="matrix" values="0 0 0 0 0 0 0 0 0 0 0 0 0 0 0 0 0 0 127 0" result="hardAlpha"/>
<feOffset dy="4"/>
<feGaussianBlur stdDeviation="17"/>
<feComposite in2="hardAlpha" operator="out"/>
<feColorMatrix type="matrix" values="0 0 0 0 0.141176 0 0 0 0 0.372549 0 0 0 0 1 0 0 0 0.4 0"/>
<feBlend mode="normal" in2="BackgroundImageFix" result="effect1_dropShadow_4001_4976"/>
<feBlend mode="normal" in="SourceGraphic" in2="effect1_dropShadow_4001_4976" result="shape"/>
</filter>
<filter id="filter1_d_4001_4976" x="-6.63086" y="-18" width="238.48" height="331.713" filterUnits="userSpaceOnUse" color-interpolation-filters="sRGB">
<feFlood flood-opacity="0" result="BackgroundImageFix"/>
<feColorMatrix in="SourceAlpha" type="matrix" values="0 0 0 0 0 0 0 0 0 0 0 0 0 0 0 0 0 0 127 0" result="hardAlpha"/>
<feOffset dy="4"/>
<feGaussianBlur stdDeviation="42"/>
<feComposite in2="hardAlpha" operator="out"/>
<feColorMatrix type="matrix" values="0 0 0 0 0.141176 0 0 0 0 0.372549 0 0 0 0 1 0 0 0 1 0"/>
<feBlend mode="normal" in2="BackgroundImageFix" result="effect1_dropShadow_4001_4976"/>
<feBlend mode="normal" in="SourceGraphic" in2="effect1_dropShadow_4001_4976" result="shape"/>
</filter>
</defs>
</svg>
