<svg width="190" height="155" viewBox="0 0 190 155" fill="none" xmlns="http://www.w3.org/2000/svg">
<g filter="url(#filter0_d_621_4811)">
<path d="M144 34C144 31.7909 145.791 30 148 30H170C172.209 30 174 31.7909 174 34V154H144V34Z" fill="#245FFF"/>
</g>
<path d="M96 66C96 63.7909 97.7909 62 100 62H122C124.209 62 126 63.7909 126 66V154H96V66Z" fill="white"/>
<path d="M96 66C96 63.7909 97.7909 62 100 62H122C124.209 62 126 63.7909 126 66V154H96V66Z" fill="#245FFF" fill-opacity="0.18"/>
<path d="M48 101C48 98.7909 49.7909 97 52 97H74C76.2091 97 78 98.7909 78 101V154H48V101Z" fill="white"/>
<path d="M48 101C48 98.7909 49.7909 97 52 97H74C76.2091 97 78 98.7909 78 101V154H48V101Z" fill="#245FFF" fill-opacity="0.18"/>
<path d="M0 125C0 122.791 1.79086 121 4 121H26C28.2091 121 30 122.791 30 125V154H0V125Z" fill="white"/>
<path d="M0 125C0 122.791 1.79086 121 4 121H26C28.2091 121 30 122.791 30 125V154H0V125Z" fill="#245FFF" fill-opacity="0.18"/>
<defs>
<filter id="filter0_d_621_4811" x="110" y="0" width="98" height="192" filterUnits="userSpaceOnUse" color-interpolation-filters="sRGB">
<feFlood flood-opacity="0" result="BackgroundImageFix"/>
<feColorMatrix in="SourceAlpha" type="matrix" values="0 0 0 0 0 0 0 0 0 0 0 0 0 0 0 0 0 0 127 0" result="hardAlpha"/>
<feOffset dy="4"/>
<feGaussianBlur stdDeviation="17"/>
<feComposite in2="hardAlpha" operator="out"/>
<feColorMatrix type="matrix" values="0 0 0 0 0.141176 0 0 0 0 0.372549 0 0 0 0 1 0 0 0 0.4 0"/>
<feBlend mode="normal" in2="BackgroundImageFix" result="effect1_dropShadow_621_4811"/>
<feBlend mode="normal" in="SourceGraphic" in2="effect1_dropShadow_621_4811" result="shape"/>
</filter>
</defs>
</svg>
