<svg width="271" height="245" viewBox="0 0 271 245" fill="none" xmlns="http://www.w3.org/2000/svg">
<g filter="url(#filter0_d_4006_4727)">
<path fill-rule="evenodd" clip-rule="evenodd" d="M185.598 73.8409L276.679 126.426V231.597L185.598 284.182L94.5179 231.597V126.426L185.598 73.8409Z" fill="white" fill-opacity="0.2" stroke="#E4EAF0" stroke-width="0.939024" stroke-dasharray="4.7 4.7"/>
<path fill-rule="evenodd" clip-rule="evenodd" d="M185.598 92.6214L260.414 135.816V222.207L185.598 265.402L110.782 222.207V135.816L185.598 92.6214Z" stroke="#E4EAF0" stroke-width="0.939024" stroke-dasharray="5.63"/>
<path fill-rule="evenodd" clip-rule="evenodd" d="M185.598 121.731L235.205 150.371V207.652L185.598 236.292L135.992 207.652V150.371L185.598 121.731Z" stroke="#EFF5FB" stroke-width="0.469512" stroke-dasharray="5.63"/>
<path fill-rule="evenodd" clip-rule="evenodd" d="M185.598 140.512L218.94 159.762V198.262L185.598 217.512L152.256 198.262V159.762L185.598 140.512Z" stroke="#EFF5FB" stroke-width="0.469512" stroke-dasharray="5.63"/>
<path d="M185.598 286.999V70.0848" stroke="#E4EAF0" stroke-width="0.469512" stroke-linecap="square" stroke-dasharray="3.76 3.76"/>
<path d="M90.2874 124.079L280.909 233.945" stroke="#E4EAF0" stroke-width="0.469512" stroke-linecap="square" stroke-dasharray="3.76 3.76"/>
<path d="M89.8179 234.414L281.379 123.609" stroke="#E4EAF0" stroke-width="0.469512" stroke-linecap="square" stroke-dasharray="3.76 3.76"/>
<g style="mix-blend-mode:lighten">
<path fill-rule="evenodd" clip-rule="evenodd" d="M246.165 143.799L185.484 108.585L142.872 155.067L124.561 214.695L185.484 229.72L246.165 214.695V143.799Z" fill="white" fill-opacity="0.5"/>
<path fill-rule="evenodd" clip-rule="evenodd" d="M246.165 143.799L185.484 108.585L142.872 155.067L124.561 214.695L185.484 229.72L246.165 214.695V143.799Z" fill="#245FFF" fill-opacity="0.48"/>
<path fill-rule="evenodd" clip-rule="evenodd" d="M246.165 143.799L185.484 108.585L142.872 155.067L124.561 214.695L185.484 229.72L246.165 214.695V143.799Z" stroke="#245FFF" stroke-width="1.87805" stroke-linejoin="round"/>
</g>
</g>
<path d="M146.396 58H147.611L150.156 65H149.056L148.571 63.67H145.436L144.956 65H143.851L146.396 58ZM145.821 62.63H148.186L147.001 59.38L145.821 62.63ZM155.475 61.865V65H154.435V62.12C154.435 61.8967 154.38 61.6933 154.27 61.51C154.163 61.3267 154.018 61.1817 153.835 61.075C153.655 60.965 153.452 60.91 153.225 60.91C153.005 60.91 152.803 60.965 152.62 61.075C152.437 61.1817 152.29 61.3267 152.18 61.51C152.07 61.6933 152.015 61.8967 152.015 62.12V65H150.975V60H152.015V60.53C152.188 60.3233 152.402 60.16 152.655 60.04C152.908 59.92 153.182 59.86 153.475 59.86C153.845 59.86 154.182 59.95 154.485 60.13C154.788 60.31 155.028 60.5517 155.205 60.855C155.385 61.1583 155.475 61.495 155.475 61.865ZM160.265 60H161.305V65H160.26L160.22 64.275C160.074 64.5317 159.875 64.7383 159.625 64.895C159.375 65.0517 159.08 65.13 158.74 65.13C158.374 65.13 158.029 65.0617 157.705 64.925C157.382 64.785 157.097 64.5917 156.85 64.345C156.607 64.0983 156.417 63.815 156.28 63.495C156.144 63.1717 156.075 62.825 156.075 62.455C156.075 62.0983 156.142 61.7633 156.275 61.45C156.409 61.1333 156.594 60.8567 156.83 60.62C157.067 60.3833 157.34 60.1983 157.65 60.065C157.964 59.9283 158.299 59.86 158.655 59.86C159.019 59.86 159.339 59.9433 159.615 60.11C159.895 60.2733 160.127 60.4833 160.31 60.74L160.265 60ZM158.715 64.125C159.009 64.125 159.265 64.0533 159.485 63.91C159.705 63.7633 159.875 63.5667 159.995 63.32C160.119 63.0733 160.18 62.8 160.18 62.5C160.18 62.1967 160.119 61.9217 159.995 61.675C159.872 61.4283 159.7 61.2333 159.48 61.09C159.264 60.9433 159.009 60.87 158.715 60.87C158.425 60.87 158.16 60.9433 157.92 61.09C157.68 61.2367 157.49 61.4333 157.35 61.68C157.21 61.9267 157.14 62.2 157.14 62.5C157.14 62.8033 157.212 63.0783 157.355 63.325C157.502 63.5683 157.694 63.7633 157.93 63.91C158.17 64.0533 158.432 64.125 158.715 64.125ZM162.342 65V57.5H163.382V65H162.342ZM167.73 60H168.84L166.1 67.5H164.995L165.9 65L164.105 60H165.24L166.42 63.575L167.73 60ZM172.355 61.04H171.305L171.3 65H170.26L170.265 61.04H169.47V60H170.265L170.26 58.43H171.3L171.305 60H172.355V61.04ZM173.182 60H174.222V65H173.182V60ZM173.712 59.275C173.552 59.275 173.419 59.2233 173.312 59.12C173.205 59.0167 173.152 58.8867 173.152 58.73C173.152 58.5767 173.205 58.4483 173.312 58.345C173.419 58.2383 173.55 58.185 173.707 58.185C173.86 58.185 173.99 58.2383 174.097 58.345C174.204 58.4483 174.257 58.5767 174.257 58.73C174.257 58.8867 174.204 59.0167 174.097 59.12C173.994 59.2233 173.865 59.275 173.712 59.275ZM178.595 63.58L179.525 64.085C179.299 64.4017 179.01 64.655 178.66 64.845C178.314 65.035 177.937 65.13 177.53 65.13C177.07 65.13 176.65 65.0117 176.27 64.775C175.894 64.5383 175.592 64.2217 175.365 63.825C175.142 63.425 175.03 62.9833 175.03 62.5C175.03 62.1333 175.095 61.7917 175.225 61.475C175.355 61.155 175.534 60.875 175.76 60.635C175.99 60.3917 176.257 60.2017 176.56 60.065C176.864 59.9283 177.187 59.86 177.53 59.86C177.937 59.86 178.314 59.955 178.66 60.145C179.01 60.335 179.299 60.59 179.525 60.91L178.595 61.415C178.455 61.2483 178.292 61.1217 178.105 61.035C177.919 60.945 177.727 60.9 177.53 60.9C177.257 60.9 177.009 60.975 176.785 61.125C176.565 61.2717 176.39 61.4667 176.26 61.71C176.134 61.95 176.07 62.2133 176.07 62.5C176.07 62.7833 176.135 63.0467 176.265 63.29C176.395 63.53 176.57 63.7233 176.79 63.87C177.014 64.0167 177.26 64.09 177.53 64.09C177.737 64.09 177.934 64.0433 178.12 63.95C178.307 63.8567 178.465 63.7333 178.595 63.58ZM184.191 60H185.231V65H184.186L184.146 64.275C184 64.5317 183.801 64.7383 183.551 64.895C183.301 65.0517 183.006 65.13 182.666 65.13C182.3 65.13 181.955 65.0617 181.631 64.925C181.308 64.785 181.023 64.5917 180.776 64.345C180.533 64.0983 180.343 63.815 180.206 63.495C180.07 63.1717 180.001 62.825 180.001 62.455C180.001 62.0983 180.068 61.7633 180.201 61.45C180.335 61.1333 180.52 60.8567 180.756 60.62C180.993 60.3833 181.266 60.1983 181.576 60.065C181.89 59.9283 182.225 59.86 182.581 59.86C182.945 59.86 183.265 59.9433 183.541 60.11C183.821 60.2733 184.053 60.4833 184.236 60.74L184.191 60ZM182.641 64.125C182.935 64.125 183.191 64.0533 183.411 63.91C183.631 63.7633 183.801 63.5667 183.921 63.32C184.045 63.0733 184.106 62.8 184.106 62.5C184.106 62.1967 184.045 61.9217 183.921 61.675C183.798 61.4283 183.626 61.2333 183.406 61.09C183.19 60.9433 182.935 60.87 182.641 60.87C182.351 60.87 182.086 60.9433 181.846 61.09C181.606 61.2367 181.416 61.4333 181.276 61.68C181.136 61.9267 181.066 62.2 181.066 62.5C181.066 62.8033 181.138 63.0783 181.281 63.325C181.428 63.5683 181.62 63.7633 181.856 63.91C182.096 64.0533 182.358 64.125 182.641 64.125ZM186.268 65V57.5H187.308V65H186.268ZM196.202 58V59.04H193.972V65H192.932V59.04H190.707V58H196.202ZM201.705 61.865V65H200.665V62.12C200.665 61.8967 200.61 61.6933 200.5 61.51C200.394 61.3267 200.249 61.1817 200.065 61.075C199.885 60.965 199.682 60.91 199.455 60.91C199.235 60.91 199.034 60.965 198.85 61.075C198.667 61.1817 198.52 61.3267 198.41 61.51C198.3 61.6933 198.245 61.8967 198.245 62.12V65H197.205V57.5H198.245V60.53C198.419 60.3233 198.632 60.16 198.885 60.04C199.139 59.92 199.412 59.86 199.705 59.86C200.075 59.86 200.412 59.95 200.715 60.13C201.019 60.31 201.259 60.5517 201.435 60.855C201.615 61.1583 201.705 61.495 201.705 61.865ZM202.704 60H203.744V65H202.704V60ZM203.234 59.275C203.074 59.275 202.94 59.2233 202.834 59.12C202.727 59.0167 202.674 58.8867 202.674 58.73C202.674 58.5767 202.727 58.4483 202.834 58.345C202.94 58.2383 203.072 58.185 203.229 58.185C203.382 58.185 203.512 58.2383 203.619 58.345C203.725 58.4483 203.779 58.5767 203.779 58.73C203.779 58.8867 203.725 59.0167 203.619 59.12C203.515 59.2233 203.387 59.275 203.234 59.275ZM209.401 61.865V65H208.361V62.12C208.361 61.8967 208.306 61.6933 208.196 61.51C208.089 61.3267 207.944 61.1817 207.761 61.075C207.581 60.965 207.377 60.91 207.151 60.91C206.931 60.91 206.729 60.965 206.546 61.075C206.362 61.1817 206.216 61.3267 206.106 61.51C205.996 61.6933 205.941 61.8967 205.941 62.12V65H204.901V60H205.941V60.53C206.114 60.3233 206.327 60.16 206.581 60.04C206.834 59.92 207.107 59.86 207.401 59.86C207.771 59.86 208.107 59.95 208.411 60.13C208.714 60.31 208.954 60.5517 209.131 60.855C209.311 61.1583 209.401 61.495 209.401 61.865ZM214.713 65H213.513L212.283 62.88L211.478 63.84V65H210.438V57.5H211.478V62.225L213.338 60H214.698L212.993 62.035L214.713 65ZM215.506 60H216.546V65H215.506V60ZM216.036 59.275C215.876 59.275 215.743 59.2233 215.636 59.12C215.53 59.0167 215.476 58.8867 215.476 58.73C215.476 58.5767 215.53 58.4483 215.636 58.345C215.743 58.2383 215.875 58.185 216.031 58.185C216.185 58.185 216.315 58.2383 216.421 58.345C216.528 58.4483 216.581 58.5767 216.581 58.73C216.581 58.8867 216.528 59.0167 216.421 59.12C216.318 59.2233 216.19 59.275 216.036 59.275ZM222.204 61.865V65H221.164V62.12C221.164 61.8967 221.109 61.6933 220.999 61.51C220.892 61.3267 220.747 61.1817 220.564 61.075C220.384 60.965 220.18 60.91 219.954 60.91C219.734 60.91 219.532 60.965 219.349 61.075C219.165 61.1817 219.019 61.3267 218.909 61.51C218.799 61.6933 218.744 61.8967 218.744 62.12V65H217.704V60H218.744V60.53C218.917 60.3233 219.13 60.16 219.384 60.04C219.637 59.92 219.91 59.86 220.204 59.86C220.574 59.86 220.91 59.95 221.214 60.13C221.517 60.31 221.757 60.5517 221.934 60.855C222.114 61.1583 222.204 61.495 222.204 61.865ZM226.909 60H227.949V65.13C227.949 65.4733 227.876 65.79 227.729 66.08C227.586 66.37 227.391 66.62 227.144 66.83C226.897 67.0433 226.614 67.2083 226.294 67.325C225.977 67.4417 225.646 67.5 225.299 67.5C224.949 67.5 224.612 67.425 224.289 67.275C223.966 67.1283 223.681 66.9283 223.434 66.675C223.191 66.4217 223.009 66.135 222.889 65.815L223.844 65.385C223.911 65.5917 224.017 65.775 224.164 65.935C224.314 66.095 224.487 66.2217 224.684 66.315C224.884 66.4083 225.089 66.455 225.299 66.455C225.506 66.455 225.704 66.4217 225.894 66.355C226.087 66.2917 226.259 66.2017 226.409 66.085C226.562 65.9683 226.684 65.8283 226.774 65.665C226.864 65.5017 226.909 65.3233 226.909 65.13V64.285C226.746 64.5383 226.536 64.7433 226.279 64.9C226.022 65.0533 225.724 65.13 225.384 65.13C225.031 65.13 224.697 65.0617 224.384 64.925C224.071 64.7883 223.796 64.6 223.559 64.36C223.322 64.1167 223.137 63.8367 223.004 63.52C222.871 63.2033 222.804 62.8633 222.804 62.5C222.804 62.1367 222.871 61.7967 223.004 61.48C223.137 61.16 223.322 60.88 223.559 60.64C223.796 60.3967 224.071 60.2067 224.384 60.07C224.697 59.9333 225.031 59.865 225.384 59.865C225.724 59.865 226.022 59.9433 226.279 60.1C226.536 60.2533 226.746 60.4583 226.909 60.715V60ZM225.394 64.125C225.684 64.125 225.937 64.0517 226.154 63.905C226.371 63.755 226.539 63.5567 226.659 63.31C226.779 63.0633 226.839 62.7933 226.839 62.5C226.839 62.2 226.777 61.9283 226.654 61.685C226.534 61.4383 226.366 61.2417 226.149 61.095C225.932 60.945 225.681 60.87 225.394 60.87C225.114 60.87 224.857 60.9433 224.624 61.09C224.394 61.2367 224.211 61.4333 224.074 61.68C223.937 61.9267 223.869 62.2 223.869 62.5C223.869 62.8 223.937 63.0733 224.074 63.32C224.214 63.5667 224.399 63.7633 224.629 63.91C224.862 64.0533 225.117 64.125 225.394 64.125Z" fill="white"/>
<path d="M36.0961 119V112H38.6711C39.0511 112 39.3928 112.093 39.6961 112.28C39.9994 112.467 40.2394 112.718 40.4161 113.035C40.5961 113.348 40.6861 113.698 40.6861 114.085C40.6861 114.412 40.6244 114.71 40.5011 114.98C40.3811 115.25 40.2111 115.48 39.9911 115.67C39.7744 115.86 39.5261 115.997 39.2461 116.08L40.9361 119H39.7311L38.0911 116.175H37.1361V119H36.0961ZM37.1361 115.135H38.5611C38.7611 115.135 38.9428 115.085 39.1061 114.985C39.2728 114.885 39.4044 114.752 39.5011 114.585C39.5978 114.418 39.6461 114.23 39.6461 114.02C39.6461 113.81 39.5978 113.622 39.5011 113.455C39.4044 113.285 39.2728 113.152 39.1061 113.055C38.9428 112.955 38.7611 112.905 38.5611 112.905H37.1361V115.135ZM43.8527 119.13C43.3927 119.13 42.9727 119.012 42.5927 118.775C42.2161 118.538 41.9144 118.222 41.6877 117.825C41.4644 117.425 41.3527 116.983 41.3527 116.5C41.3527 116.133 41.4177 115.792 41.5477 115.475C41.6777 115.155 41.8561 114.875 42.0827 114.635C42.3127 114.392 42.5794 114.202 42.8827 114.065C43.1861 113.928 43.5094 113.86 43.8527 113.86C44.2361 113.86 44.5877 113.94 44.9077 114.1C45.2277 114.257 45.5011 114.475 45.7277 114.755C45.9544 115.032 46.1211 115.352 46.2277 115.715C46.3344 116.075 46.3661 116.458 46.3227 116.865H42.4677C42.5111 117.095 42.5944 117.303 42.7177 117.49C42.8444 117.673 43.0044 117.818 43.1977 117.925C43.3944 118.032 43.6127 118.087 43.8527 118.09C44.1061 118.09 44.3361 118.027 44.5427 117.9C44.7527 117.773 44.9244 117.598 45.0577 117.375L46.1127 117.62C45.9127 118.063 45.6111 118.427 45.2077 118.71C44.8044 118.99 44.3527 119.13 43.8527 119.13ZM42.4327 116.07H45.2727C45.2394 115.83 45.1544 115.613 45.0177 115.42C44.8844 115.223 44.7161 115.068 44.5127 114.955C44.3127 114.838 44.0927 114.78 43.8527 114.78C43.6161 114.78 43.3961 114.837 43.1927 114.95C42.9927 115.063 42.8261 115.218 42.6927 115.415C42.5627 115.608 42.4761 115.827 42.4327 116.07ZM48.6703 119.095C48.407 119.078 48.1503 119.025 47.9003 118.935C47.6503 118.845 47.4303 118.723 47.2403 118.57C47.0536 118.413 46.9136 118.23 46.8203 118.02L47.7053 117.64C47.7486 117.73 47.8236 117.818 47.9303 117.905C48.0403 117.992 48.1686 118.063 48.3153 118.12C48.462 118.173 48.6153 118.2 48.7753 118.2C48.932 118.2 49.077 118.178 49.2103 118.135C49.347 118.088 49.4586 118.018 49.5453 117.925C49.632 117.832 49.6753 117.72 49.6753 117.59C49.6753 117.443 49.6253 117.33 49.5253 117.25C49.4286 117.167 49.307 117.103 49.1603 117.06C49.0136 117.017 48.867 116.975 48.7203 116.935C48.3936 116.862 48.0936 116.762 47.8203 116.635C47.5503 116.505 47.3353 116.34 47.1753 116.14C47.0153 115.937 46.9353 115.688 46.9353 115.395C46.9353 115.075 47.022 114.798 47.1953 114.565C47.3686 114.328 47.5953 114.147 47.8753 114.02C48.1586 113.893 48.4603 113.83 48.7803 113.83C49.1803 113.83 49.547 113.915 49.8803 114.085C50.2136 114.255 50.4686 114.488 50.6453 114.785L49.8203 115.275C49.7703 115.175 49.6953 115.085 49.5953 115.005C49.4953 114.925 49.382 114.862 49.2553 114.815C49.1286 114.765 48.997 114.737 48.8603 114.73C48.6903 114.723 48.532 114.743 48.3853 114.79C48.242 114.833 48.127 114.903 48.0403 115C47.9536 115.097 47.9103 115.22 47.9103 115.37C47.9103 115.517 47.962 115.627 48.0653 115.7C48.1686 115.77 48.2986 115.827 48.4553 115.87C48.6153 115.913 48.7786 115.962 48.9453 116.015C49.242 116.108 49.5203 116.223 49.7803 116.36C50.0403 116.493 50.2503 116.658 50.4103 116.855C50.5703 117.052 50.647 117.292 50.6403 117.575C50.6403 117.888 50.5453 118.163 50.3553 118.4C50.1686 118.637 49.9253 118.817 49.6253 118.94C49.3253 119.063 49.007 119.115 48.6703 119.095ZM51.2965 117.125V114H52.3365V116.87C52.3365 117.093 52.3915 117.297 52.5015 117.48C52.6115 117.663 52.7582 117.81 52.9415 117.92C53.1248 118.027 53.3265 118.08 53.5465 118.08C53.7698 118.08 53.9715 118.027 54.1515 117.92C54.3348 117.81 54.4798 117.663 54.5865 117.48C54.6965 117.297 54.7515 117.093 54.7515 116.87V114H55.7915L55.7965 119H54.7565L54.7515 118.46C54.5815 118.667 54.3698 118.83 54.1165 118.95C53.8632 119.07 53.5915 119.13 53.3015 119.13C52.9315 119.13 52.5948 119.04 52.2915 118.86C51.9882 118.68 51.7465 118.438 51.5665 118.135C51.3865 117.832 51.2965 117.495 51.2965 117.125ZM56.7992 119V114H57.8392V114.53C58.0126 114.323 58.2242 114.16 58.4742 114.04C58.7276 113.92 59.0009 113.86 59.2942 113.86C59.6509 113.86 59.9792 113.947 60.2792 114.12C60.5792 114.29 60.8176 114.517 60.9942 114.8C61.1709 114.517 61.4059 114.29 61.6992 114.12C61.9959 113.947 62.3226 113.86 62.6792 113.86C63.0492 113.86 63.3859 113.95 63.6892 114.13C63.9926 114.31 64.2342 114.552 64.4142 114.855C64.5942 115.158 64.6842 115.495 64.6842 115.865V119H63.6442V116.13C63.6442 115.91 63.5909 115.708 63.4842 115.525C63.3776 115.342 63.2342 115.193 63.0542 115.08C62.8742 114.967 62.6742 114.91 62.4542 114.91C62.2342 114.91 62.0342 114.963 61.8542 115.07C61.6742 115.177 61.5309 115.322 61.4242 115.505C61.3176 115.688 61.2642 115.897 61.2642 116.13V119H60.2242V116.13C60.2242 115.897 60.1709 115.688 60.0642 115.505C59.9576 115.322 59.8126 115.177 59.6292 115.07C59.4492 114.963 59.2492 114.91 59.0292 114.91C58.8126 114.91 58.6126 114.967 58.4292 115.08C58.2492 115.193 58.1059 115.342 57.9992 115.525C57.8926 115.708 57.8392 115.91 57.8392 116.13V119H56.7992ZM67.7883 119.13C67.3283 119.13 66.9083 119.012 66.5283 118.775C66.1516 118.538 65.8499 118.222 65.6233 117.825C65.3999 117.425 65.2883 116.983 65.2883 116.5C65.2883 116.133 65.3533 115.792 65.4833 115.475C65.6133 115.155 65.7916 114.875 66.0183 114.635C66.2483 114.392 66.5149 114.202 66.8183 114.065C67.1216 113.928 67.4449 113.86 67.7883 113.86C68.1716 113.86 68.5233 113.94 68.8433 114.1C69.1633 114.257 69.4366 114.475 69.6633 114.755C69.8899 115.032 70.0566 115.352 70.1633 115.715C70.2699 116.075 70.3016 116.458 70.2583 116.865H66.4033C66.4466 117.095 66.5299 117.303 66.6533 117.49C66.7799 117.673 66.9399 117.818 67.1333 117.925C67.3299 118.032 67.5483 118.087 67.7883 118.09C68.0416 118.09 68.2716 118.027 68.4783 117.9C68.6883 117.773 68.8599 117.598 68.9933 117.375L70.0483 117.62C69.8483 118.063 69.5466 118.427 69.1433 118.71C68.7399 118.99 68.2883 119.13 67.7883 119.13ZM66.3683 116.07H69.2083C69.1749 115.83 69.0899 115.613 68.9533 115.42C68.8199 115.223 68.6516 115.068 68.4483 114.955C68.2483 114.838 68.0283 114.78 67.7883 114.78C67.5516 114.78 67.3316 114.837 67.1283 114.95C66.9283 115.063 66.7616 115.218 66.6283 115.415C66.4983 115.608 66.4116 115.827 66.3683 116.07ZM76.0716 119.13C75.6882 119.13 75.3199 119.07 74.9666 118.95C74.6132 118.83 74.3049 118.658 74.0416 118.435C73.7782 118.208 73.5899 117.94 73.4766 117.63L74.4516 117.265C74.5082 117.425 74.6166 117.568 74.7766 117.695C74.9399 117.818 75.1332 117.915 75.3566 117.985C75.5832 118.055 75.8216 118.09 76.0716 118.09C76.3382 118.09 76.5882 118.047 76.8216 117.96C77.0582 117.873 77.2482 117.753 77.3916 117.6C77.5382 117.447 77.6116 117.267 77.6116 117.06C77.6116 116.847 77.5349 116.672 77.3816 116.535C77.2316 116.398 77.0382 116.29 76.8016 116.21C76.5682 116.13 76.3249 116.07 76.0716 116.03C75.5816 115.95 75.1416 115.833 74.7516 115.68C74.3649 115.527 74.0582 115.312 73.8316 115.035C73.6082 114.758 73.4966 114.398 73.4966 113.955C73.4966 113.538 73.6149 113.175 73.8516 112.865C74.0916 112.555 74.4066 112.315 74.7966 112.145C75.1899 111.972 75.6149 111.885 76.0716 111.885C76.4482 111.885 76.8116 111.945 77.1616 112.065C77.5149 112.182 77.8249 112.353 78.0916 112.58C78.3616 112.803 78.5549 113.075 78.6716 113.395L77.6866 113.75C77.6299 113.587 77.5216 113.445 77.3616 113.325C77.2016 113.202 77.0082 113.105 76.7816 113.035C76.5582 112.965 76.3216 112.93 76.0716 112.93C75.8049 112.927 75.5549 112.97 75.3216 113.06C75.0916 113.147 74.9032 113.267 74.7566 113.42C74.6099 113.573 74.5366 113.752 74.5366 113.955C74.5366 114.205 74.6049 114.395 74.7416 114.525C74.8782 114.655 75.0616 114.752 75.2916 114.815C75.5249 114.875 75.7849 114.93 76.0716 114.98C76.5316 115.053 76.9566 115.175 77.3466 115.345C77.7399 115.515 78.0549 115.742 78.2916 116.025C78.5316 116.305 78.6516 116.65 78.6516 117.06C78.6516 117.473 78.5316 117.837 78.2916 118.15C78.0549 118.46 77.7399 118.702 77.3466 118.875C76.9566 119.045 76.5316 119.13 76.0716 119.13ZM82.906 117.58L83.836 118.085C83.6093 118.402 83.321 118.655 82.971 118.845C82.6243 119.035 82.2477 119.13 81.841 119.13C81.381 119.13 80.961 119.012 80.581 118.775C80.2043 118.538 79.9027 118.222 79.676 117.825C79.4527 117.425 79.341 116.983 79.341 116.5C79.341 116.133 79.406 115.792 79.536 115.475C79.666 115.155 79.8443 114.875 80.071 114.635C80.301 114.392 80.5677 114.202 80.871 114.065C81.1743 113.928 81.4977 113.86 81.841 113.86C82.2477 113.86 82.6243 113.955 82.971 114.145C83.321 114.335 83.6093 114.59 83.836 114.91L82.906 115.415C82.766 115.248 82.6027 115.122 82.416 115.035C82.2293 114.945 82.0377 114.9 81.841 114.9C81.5677 114.9 81.3193 114.975 81.096 115.125C80.876 115.272 80.701 115.467 80.571 115.71C80.4443 115.95 80.381 116.213 80.381 116.5C80.381 116.783 80.446 117.047 80.576 117.29C80.706 117.53 80.881 117.723 81.101 117.87C81.3243 118.017 81.571 118.09 81.841 118.09C82.0477 118.09 82.2443 118.043 82.431 117.95C82.6177 117.857 82.776 117.733 82.906 117.58ZM86.8117 119.13C86.3517 119.13 85.9317 119.012 85.5517 118.775C85.1751 118.538 84.8734 118.222 84.6467 117.825C84.4234 117.425 84.3117 116.983 84.3117 116.5C84.3117 116.133 84.3767 115.792 84.5067 115.475C84.6367 115.155 84.8151 114.875 85.0417 114.635C85.2717 114.392 85.5384 114.202 85.8417 114.065C86.1451 113.928 86.4684 113.86 86.8117 113.86C87.2717 113.86 87.6901 113.978 88.0667 114.215C88.4467 114.452 88.7484 114.77 88.9717 115.17C89.1984 115.57 89.3117 116.013 89.3117 116.5C89.3117 116.863 89.2467 117.203 89.1167 117.52C88.9867 117.837 88.8067 118.117 88.5767 118.36C88.3501 118.6 88.0851 118.788 87.7817 118.925C87.4817 119.062 87.1584 119.13 86.8117 119.13ZM86.8117 118.09C87.0884 118.09 87.3367 118.017 87.5567 117.87C87.7767 117.723 87.9501 117.53 88.0767 117.29C88.2067 117.047 88.2717 116.783 88.2717 116.5C88.2717 116.21 88.2051 115.943 88.0717 115.7C87.9417 115.457 87.7667 115.263 87.5467 115.12C87.3267 114.973 87.0817 114.9 86.8117 114.9C86.5384 114.9 86.2901 114.973 86.0667 115.12C85.8467 115.267 85.6717 115.462 85.5417 115.705C85.4151 115.948 85.3517 116.213 85.3517 116.5C85.3517 116.797 85.4184 117.065 85.5517 117.305C85.6851 117.545 85.8617 117.737 86.0817 117.88C86.3051 118.02 86.5484 118.09 86.8117 118.09ZM90.1195 119V114H91.1595V114.53C91.3329 114.323 91.5462 114.16 91.7995 114.04C92.0529 113.92 92.3262 113.86 92.6195 113.86C92.8062 113.86 92.9912 113.885 93.1745 113.935L92.7595 114.985C92.6295 114.935 92.4995 114.91 92.3695 114.91C92.1495 114.91 91.9479 114.965 91.7645 115.075C91.5812 115.182 91.4345 115.327 91.3245 115.51C91.2145 115.693 91.1595 115.897 91.1595 116.12V119H90.1195ZM95.718 119.13C95.258 119.13 94.838 119.012 94.458 118.775C94.0813 118.538 93.7796 118.222 93.553 117.825C93.3296 117.425 93.218 116.983 93.218 116.5C93.218 116.133 93.283 115.792 93.413 115.475C93.543 115.155 93.7213 114.875 93.948 114.635C94.178 114.392 94.4446 114.202 94.748 114.065C95.0513 113.928 95.3746 113.86 95.718 113.86C96.1013 113.86 96.453 113.94 96.773 114.1C97.093 114.257 97.3663 114.475 97.593 114.755C97.8196 115.032 97.9863 115.352 98.093 115.715C98.1996 116.075 98.2313 116.458 98.188 116.865H94.333C94.3763 117.095 94.4596 117.303 94.583 117.49C94.7096 117.673 94.8696 117.818 95.063 117.925C95.2596 118.032 95.478 118.087 95.718 118.09C95.9713 118.09 96.2013 118.027 96.408 117.9C96.618 117.773 96.7896 117.598 96.923 117.375L97.978 117.62C97.778 118.063 97.4763 118.427 97.073 118.71C96.6696 118.99 96.218 119.13 95.718 119.13ZM94.298 116.07H97.138C97.1046 115.83 97.0196 115.613 96.883 115.42C96.7496 115.223 96.5813 115.068 96.378 114.955C96.178 114.838 95.958 114.78 95.718 114.78C95.4813 114.78 95.2613 114.837 95.058 114.95C94.858 115.063 94.6913 115.218 94.558 115.415C94.428 115.608 94.3413 115.827 94.298 116.07Z" fill="white"/>
<path d="M6.03172 236V237.04H3.80172V243H2.76172V237.04H0.536719V236H6.03172ZM8.47383 243.13C8.01383 243.13 7.59383 243.012 7.21383 242.775C6.83716 242.538 6.53549 242.222 6.30883 241.825C6.08549 241.425 5.97383 240.983 5.97383 240.5C5.97383 240.133 6.03883 239.792 6.16883 239.475C6.29883 239.155 6.47716 238.875 6.70383 238.635C6.93383 238.392 7.20049 238.202 7.50383 238.065C7.80716 237.928 8.13049 237.86 8.47383 237.86C8.85716 237.86 9.20883 237.94 9.52883 238.1C9.84883 238.257 10.1222 238.475 10.3488 238.755C10.5755 239.032 10.7422 239.352 10.8488 239.715C10.9555 240.075 10.9872 240.458 10.9438 240.865H7.08883C7.13216 241.095 7.21549 241.303 7.33883 241.49C7.46549 241.673 7.62549 241.818 7.81883 241.925C8.01549 242.032 8.23383 242.087 8.47383 242.09C8.72716 242.09 8.95716 242.027 9.16383 241.9C9.37383 241.773 9.5455 241.598 9.67883 241.375L10.7338 241.62C10.5338 242.063 10.2322 242.427 9.82883 242.71C9.42549 242.99 8.97383 243.13 8.47383 243.13ZM7.05383 240.07H9.89383C9.8605 239.83 9.7755 239.613 9.63883 239.42C9.50549 239.223 9.33716 239.068 9.13383 238.955C8.93383 238.838 8.71383 238.78 8.47383 238.78C8.23716 238.78 8.01716 238.837 7.81383 238.95C7.61383 239.063 7.44716 239.218 7.31383 239.415C7.18383 239.608 7.09716 239.827 7.05383 240.07ZM15.0271 241.58L15.9571 242.085C15.7304 242.402 15.4421 242.655 15.0921 242.845C14.7454 243.035 14.3688 243.13 13.9621 243.13C13.5021 243.13 13.0821 243.012 12.7021 242.775C12.3254 242.538 12.0238 242.222 11.7971 241.825C11.5738 241.425 11.4621 240.983 11.4621 240.5C11.4621 240.133 11.5271 239.792 11.6571 239.475C11.7871 239.155 11.9654 238.875 12.1921 238.635C12.4221 238.392 12.6888 238.202 12.9921 238.065C13.2954 237.928 13.6188 237.86 13.9621 237.86C14.3688 237.86 14.7454 237.955 15.0921 238.145C15.4421 238.335 15.7304 238.59 15.9571 238.91L15.0271 239.415C14.8871 239.248 14.7238 239.122 14.5371 239.035C14.3504 238.945 14.1588 238.9 13.9621 238.9C13.6888 238.9 13.4404 238.975 13.2171 239.125C12.9971 239.272 12.8221 239.467 12.6921 239.71C12.5654 239.95 12.5021 240.213 12.5021 240.5C12.5021 240.783 12.5671 241.047 12.6971 241.29C12.8271 241.53 13.0021 241.723 13.2221 241.87C13.4454 242.017 13.6921 242.09 13.9621 242.09C14.1688 242.09 14.3654 242.043 14.5521 241.95C14.7388 241.857 14.8971 241.733 15.0271 241.58ZM21.2328 239.865V243H20.1928V240.12C20.1928 239.897 20.1378 239.693 20.0278 239.51C19.9211 239.327 19.7761 239.182 19.5928 239.075C19.4128 238.965 19.2095 238.91 18.9828 238.91C18.7628 238.91 18.5611 238.965 18.3778 239.075C18.1945 239.182 18.0478 239.327 17.9378 239.51C17.8278 239.693 17.7728 239.897 17.7728 240.12V243H16.7328V235.5H17.7728V238.53C17.9461 238.323 18.1595 238.16 18.4128 238.04C18.6661 237.92 18.9395 237.86 19.2328 237.86C19.6028 237.86 19.9395 237.95 20.2428 238.13C20.5461 238.31 20.7861 238.552 20.9628 238.855C21.1428 239.158 21.2328 239.495 21.2328 239.865ZM26.7309 239.865V243H25.6909V240.12C25.6909 239.897 25.6359 239.693 25.5259 239.51C25.4192 239.327 25.2742 239.182 25.0909 239.075C24.9109 238.965 24.7075 238.91 24.4809 238.91C24.2609 238.91 24.0592 238.965 23.8759 239.075C23.6925 239.182 23.5459 239.327 23.4359 239.51C23.3259 239.693 23.2709 239.897 23.2709 240.12V243H22.2309V238H23.2709V238.53C23.4442 238.323 23.6575 238.16 23.9109 238.04C24.1642 237.92 24.4375 237.86 24.7309 237.86C25.1009 237.86 25.4375 237.95 25.7409 238.13C26.0442 238.31 26.2842 238.552 26.4609 238.855C26.6409 239.158 26.7309 239.495 26.7309 239.865ZM27.7289 238H28.7689V243H27.7289V238ZM28.2589 237.275C28.0989 237.275 27.9656 237.223 27.8589 237.12C27.7522 237.017 27.6989 236.887 27.6989 236.73C27.6989 236.577 27.7522 236.448 27.8589 236.345C27.9656 236.238 28.0972 236.185 28.2539 236.185C28.4072 236.185 28.5372 236.238 28.6439 236.345C28.7506 236.448 28.8039 236.577 28.8039 236.73C28.8039 236.887 28.7506 237.017 28.6439 237.12C28.5406 237.223 28.4122 237.275 28.2589 237.275ZM33.1423 241.58L34.0723 242.085C33.8457 242.402 33.5573 242.655 33.2073 242.845C32.8607 243.035 32.484 243.13 32.0773 243.13C31.6173 243.13 31.1973 243.012 30.8173 242.775C30.4407 242.538 30.139 242.222 29.9123 241.825C29.689 241.425 29.5773 240.983 29.5773 240.5C29.5773 240.133 29.6423 239.792 29.7723 239.475C29.9023 239.155 30.0807 238.875 30.3073 238.635C30.5373 238.392 30.804 238.202 31.1073 238.065C31.4107 237.928 31.734 237.86 32.0773 237.86C32.484 237.86 32.8607 237.955 33.2073 238.145C33.5573 238.335 33.8457 238.59 34.0723 238.91L33.1423 239.415C33.0023 239.248 32.839 239.122 32.6523 239.035C32.4657 238.945 32.274 238.9 32.0773 238.9C31.804 238.9 31.5557 238.975 31.3323 239.125C31.1123 239.272 30.9373 239.467 30.8073 239.71C30.6807 239.95 30.6173 240.213 30.6173 240.5C30.6173 240.783 30.6823 241.047 30.8123 241.29C30.9423 241.53 31.1173 241.723 31.3373 241.87C31.5607 242.017 31.8073 242.09 32.0773 242.09C32.284 242.09 32.4807 242.043 32.6673 241.95C32.854 241.857 33.0123 241.733 33.1423 241.58ZM38.738 238H39.778V243H38.733L38.693 242.275C38.5464 242.532 38.348 242.738 38.098 242.895C37.848 243.052 37.553 243.13 37.213 243.13C36.8464 243.13 36.5014 243.062 36.178 242.925C35.8547 242.785 35.5697 242.592 35.323 242.345C35.0797 242.098 34.8897 241.815 34.753 241.495C34.6164 241.172 34.548 240.825 34.548 240.455C34.548 240.098 34.6147 239.763 34.748 239.45C34.8814 239.133 35.0664 238.857 35.303 238.62C35.5397 238.383 35.813 238.198 36.123 238.065C36.4364 237.928 36.7714 237.86 37.128 237.86C37.4914 237.86 37.8114 237.943 38.088 238.11C38.368 238.273 38.5997 238.483 38.783 238.74L38.738 238ZM37.188 242.125C37.4814 242.125 37.738 242.053 37.958 241.91C38.178 241.763 38.348 241.567 38.468 241.32C38.5914 241.073 38.653 240.8 38.653 240.5C38.653 240.197 38.5914 239.922 38.468 239.675C38.3447 239.428 38.173 239.233 37.953 239.09C37.7364 238.943 37.4814 238.87 37.188 238.87C36.898 238.87 36.633 238.943 36.393 239.09C36.153 239.237 35.963 239.433 35.823 239.68C35.683 239.927 35.613 240.2 35.613 240.5C35.613 240.803 35.6847 241.078 35.828 241.325C35.9747 241.568 36.1664 241.763 36.403 241.91C36.643 242.053 36.9047 242.125 37.188 242.125ZM40.8148 243V235.5H41.8548V243H40.8148ZM50.3535 243H49.0035L46.9185 240.115L46.4935 240.63V243H45.4535V236H46.4935V239.015L49.0135 236H50.3735L47.6035 239.305L50.3535 243ZM55.6371 239.865V243H54.5971V240.12C54.5971 239.897 54.5421 239.693 54.4321 239.51C54.3254 239.327 54.1804 239.182 53.9971 239.075C53.8171 238.965 53.6138 238.91 53.3871 238.91C53.1671 238.91 52.9654 238.965 52.7821 239.075C52.5988 239.182 52.4521 239.327 52.3421 239.51C52.2321 239.693 52.1771 239.897 52.1771 240.12V243H51.1371V238H52.1771V238.53C52.3504 238.323 52.5638 238.16 52.8171 238.04C53.0704 237.92 53.3438 237.86 53.6371 237.86C54.0071 237.86 54.3438 237.95 54.6471 238.13C54.9504 238.31 55.1904 238.552 55.3671 238.855C55.5471 239.158 55.6371 239.495 55.6371 239.865ZM58.7375 243.13C58.2775 243.13 57.8575 243.012 57.4775 242.775C57.1008 242.538 56.7992 242.222 56.5725 241.825C56.3492 241.425 56.2375 240.983 56.2375 240.5C56.2375 240.133 56.3025 239.792 56.4325 239.475C56.5625 239.155 56.7408 238.875 56.9675 238.635C57.1975 238.392 57.4642 238.202 57.7675 238.065C58.0708 237.928 58.3942 237.86 58.7375 237.86C59.1975 237.86 59.6158 237.978 59.9925 238.215C60.3725 238.452 60.6742 238.77 60.8975 239.17C61.1242 239.57 61.2375 240.013 61.2375 240.5C61.2375 240.863 61.1725 241.203 61.0425 241.52C60.9125 241.837 60.7325 242.117 60.5025 242.36C60.2758 242.6 60.0108 242.788 59.7075 242.925C59.4075 243.062 59.0842 243.13 58.7375 243.13ZM58.7375 242.09C59.0142 242.09 59.2625 242.017 59.4825 241.87C59.7025 241.723 59.8758 241.53 60.0025 241.29C60.1325 241.047 60.1975 240.783 60.1975 240.5C60.1975 240.21 60.1308 239.943 59.9975 239.7C59.8675 239.457 59.6925 239.263 59.4725 239.12C59.2525 238.973 59.0075 238.9 58.7375 238.9C58.4642 238.9 58.2158 238.973 57.9925 239.12C57.7725 239.267 57.5975 239.462 57.4675 239.705C57.3408 239.948 57.2775 240.213 57.2775 240.5C57.2775 240.797 57.3442 241.065 57.4775 241.305C57.6108 241.545 57.7875 241.737 58.0075 241.88C58.2308 242.02 58.4742 242.09 58.7375 242.09ZM64.2209 243H63.1859L61.5109 238H62.5309L63.7109 241.51L64.8809 238H65.9309L67.1009 241.51L68.2759 238H69.2959L67.6259 243H66.5809L65.4009 239.465L64.2209 243ZM70.1996 243V235.5H71.2396V243H70.1996ZM74.5676 243.13C74.1076 243.13 73.6876 243.012 73.3076 242.775C72.9309 242.538 72.6292 242.222 72.4026 241.825C72.1792 241.425 72.0676 240.983 72.0676 240.5C72.0676 240.133 72.1326 239.792 72.2626 239.475C72.3926 239.155 72.5709 238.875 72.7976 238.635C73.0276 238.392 73.2942 238.202 73.5976 238.065C73.9009 237.928 74.2242 237.86 74.5676 237.86C74.9509 237.86 75.3026 237.94 75.6226 238.1C75.9426 238.257 76.2159 238.475 76.4426 238.755C76.6692 239.032 76.8359 239.352 76.9426 239.715C77.0492 240.075 77.0809 240.458 77.0376 240.865H73.1826C73.2259 241.095 73.3092 241.303 73.4326 241.49C73.5592 241.673 73.7192 241.818 73.9126 241.925C74.1092 242.032 74.3276 242.087 74.5676 242.09C74.8209 242.09 75.0509 242.027 75.2576 241.9C75.4676 241.773 75.6392 241.598 75.7726 241.375L76.8276 241.62C76.6276 242.063 76.3259 242.427 75.9226 242.71C75.5192 242.99 75.0676 243.13 74.5676 243.13ZM73.1476 240.07H75.9876C75.9542 239.83 75.8692 239.613 75.7326 239.42C75.5992 239.223 75.4309 239.068 75.2276 238.955C75.0276 238.838 74.8076 238.78 74.5676 238.78C74.3309 238.78 74.1109 238.837 73.9076 238.95C73.7076 239.063 73.5409 239.218 73.4076 239.415C73.2776 239.608 73.1909 239.827 73.1476 240.07ZM81.7509 235.5H82.7909V243H81.7509V242.265C81.5875 242.525 81.3742 242.735 81.1109 242.895C80.8475 243.052 80.5392 243.13 80.1859 243.13C79.8225 243.13 79.4825 243.062 79.1659 242.925C78.8492 242.788 78.5692 242.6 78.3259 242.36C78.0859 242.117 77.8975 241.837 77.7609 241.52C77.6242 241.203 77.5559 240.863 77.5559 240.5C77.5559 240.137 77.6242 239.797 77.7609 239.48C77.8975 239.16 78.0859 238.88 78.3259 238.64C78.5692 238.397 78.8492 238.207 79.1659 238.07C79.4825 237.933 79.8225 237.865 80.1859 237.865C80.5392 237.865 80.8475 237.945 81.1109 238.105C81.3742 238.262 81.5875 238.468 81.7509 238.725V235.5ZM80.1959 242.125C80.4892 242.125 80.7459 242.053 80.9659 241.91C81.1859 241.763 81.3559 241.567 81.4759 241.32C81.5992 241.073 81.6609 240.8 81.6609 240.5C81.6609 240.197 81.5992 239.922 81.4759 239.675C81.3525 239.428 81.1809 239.233 80.9609 239.09C80.7442 238.943 80.4892 238.87 80.1959 238.87C79.9059 238.87 79.6409 238.943 79.4009 239.09C79.1642 239.237 78.9742 239.433 78.8309 239.68C78.6909 239.927 78.6209 240.2 78.6209 240.5C78.6209 240.803 78.6925 241.078 78.8359 241.325C78.9825 241.568 79.1742 241.763 79.4109 241.91C79.6509 242.053 79.9125 242.125 80.1959 242.125ZM87.7253 238H88.7653V243.13C88.7653 243.473 88.692 243.79 88.5453 244.08C88.402 244.37 88.207 244.62 87.9603 244.83C87.7136 245.043 87.4303 245.208 87.1103 245.325C86.7936 245.442 86.462 245.5 86.1153 245.5C85.7653 245.5 85.4286 245.425 85.1053 245.275C84.782 245.128 84.497 244.928 84.2503 244.675C84.007 244.422 83.8253 244.135 83.7053 243.815L84.6603 243.385C84.727 243.592 84.8336 243.775 84.9803 243.935C85.1303 244.095 85.3036 244.222 85.5003 244.315C85.7003 244.408 85.9053 244.455 86.1153 244.455C86.322 244.455 86.5203 244.422 86.7103 244.355C86.9036 244.292 87.0753 244.202 87.2253 244.085C87.3786 243.968 87.5003 243.828 87.5903 243.665C87.6803 243.502 87.7253 243.323 87.7253 243.13V242.285C87.562 242.538 87.352 242.743 87.0953 242.9C86.8386 243.053 86.5403 243.13 86.2003 243.13C85.847 243.13 85.5136 243.062 85.2003 242.925C84.887 242.788 84.612 242.6 84.3753 242.36C84.1386 242.117 83.9536 241.837 83.8203 241.52C83.687 241.203 83.6203 240.863 83.6203 240.5C83.6203 240.137 83.687 239.797 83.8203 239.48C83.9536 239.16 84.1386 238.88 84.3753 238.64C84.612 238.397 84.887 238.207 85.2003 238.07C85.5136 237.933 85.847 237.865 86.2003 237.865C86.5403 237.865 86.8386 237.943 87.0953 238.1C87.352 238.253 87.562 238.458 87.7253 238.715V238ZM86.2103 242.125C86.5003 242.125 86.7536 242.052 86.9703 241.905C87.187 241.755 87.3553 241.557 87.4753 241.31C87.5953 241.063 87.6553 240.793 87.6553 240.5C87.6553 240.2 87.5936 239.928 87.4703 239.685C87.3503 239.438 87.182 239.242 86.9653 239.095C86.7486 238.945 86.497 238.87 86.2103 238.87C85.9303 238.87 85.6736 238.943 85.4403 239.09C85.2103 239.237 85.027 239.433 84.8903 239.68C84.7536 239.927 84.6853 240.2 84.6853 240.5C84.6853 240.8 84.7536 241.073 84.8903 241.32C85.0303 241.567 85.2153 241.763 85.4453 241.91C85.6786 242.053 85.9336 242.125 86.2103 242.125ZM92.0773 243.13C91.6173 243.13 91.1973 243.012 90.8173 242.775C90.4407 242.538 90.139 242.222 89.9123 241.825C89.689 241.425 89.5773 240.983 89.5773 240.5C89.5773 240.133 89.6423 239.792 89.7723 239.475C89.9023 239.155 90.0807 238.875 90.3073 238.635C90.5373 238.392 90.804 238.202 91.1073 238.065C91.4107 237.928 91.734 237.86 92.0773 237.86C92.4607 237.86 92.8123 237.94 93.1323 238.1C93.4523 238.257 93.7257 238.475 93.9523 238.755C94.179 239.032 94.3457 239.352 94.4523 239.715C94.559 240.075 94.5907 240.458 94.5473 240.865H90.6923C90.7357 241.095 90.819 241.303 90.9423 241.49C91.069 241.673 91.229 241.818 91.4223 241.925C91.619 242.032 91.8373 242.087 92.0773 242.09C92.3307 242.09 92.5607 242.027 92.7673 241.9C92.9773 241.773 93.149 241.598 93.2823 241.375L94.3373 241.62C94.1373 242.063 93.8357 242.427 93.4323 242.71C93.029 242.99 92.5773 243.13 92.0773 243.13ZM90.6573 240.07H93.4973C93.464 239.83 93.379 239.613 93.2423 239.42C93.109 239.223 92.9407 239.068 92.7373 238.955C92.5373 238.838 92.3173 238.78 92.0773 238.78C91.8407 238.78 91.6207 238.837 91.4173 238.95C91.2173 239.063 91.0507 239.218 90.9173 239.415C90.7873 239.608 90.7007 239.827 90.6573 240.07Z" fill="white"/>
<defs>
<filter id="filter0_d_4006_4727" x="15.4971" y="-4.14996" width="340.203" height="365.384" filterUnits="userSpaceOnUse" color-interpolation-filters="sRGB">
<feFlood flood-opacity="0" result="BackgroundImageFix"/>
<feColorMatrix in="SourceAlpha" type="matrix" values="0 0 0 0 0 0 0 0 0 0 0 0 0 0 0 0 0 0 127 0" result="hardAlpha"/>
<feOffset/>
<feGaussianBlur stdDeviation="37"/>
<feComposite in2="hardAlpha" operator="out"/>
<feColorMatrix type="matrix" values="0 0 0 0 0.141176 0 0 0 0 0.372549 0 0 0 0 1 0 0 0 0.68 0"/>
<feBlend mode="normal" in2="BackgroundImageFix" result="effect1_dropShadow_4006_4727"/>
<feBlend mode="normal" in="SourceGraphic" in2="effect1_dropShadow_4006_4727" result="shape"/>
</filter>
</defs>
</svg>
