<svg width="202" height="30" viewBox="0 0 202 30" fill="none" xmlns="http://www.w3.org/2000/svg">
<path d="M12.6424 11.5423L9.41278 14.772C9.28698 14.8978 9.28698 15.1018 9.41278 15.2276L12.6424 18.4572L4.88743 26.2122L1.45274 22.7775C1.44671 22.7715 1.44333 22.7633 1.44336 22.7547C1.44339 22.7461 1.44684 22.7379 1.45292 22.7318L8.95717 15.2276C9.08297 15.1018 9.08297 14.8978 8.95717 14.772L1.45295 7.26777C1.44687 7.26168 1.44343 7.25344 1.4434 7.24487C1.44337 7.2363 1.44674 7.22808 1.45278 7.22204L4.88746 3.78735L12.6424 11.5423Z" fill="url(#paint0_linear_1045_7772)"/>
<path d="M16.3283 14.7723L19.3301 11.7704C19.4559 11.6446 19.4559 11.4407 19.3301 11.3148L14.1291 6.11377C14.0033 5.98797 13.7993 5.98797 13.6735 6.11377L10.4666 9.32067C10.4606 9.32671 10.4565 9.33428 10.4554 9.34169C10.4543 9.3491 10.4561 9.35576 10.4606 9.3602L15.8727 14.7723C15.9985 14.8981 15.9985 15.1021 15.8727 15.2279L8.36845 22.7321C8.36236 22.7382 8.35892 22.7464 8.35889 22.755C8.35885 22.7636 8.36223 22.7718 8.36827 22.7778L11.5752 25.9847C11.701 26.1105 11.9049 26.1105 12.0307 25.9847L19.3303 18.6852C19.456 18.5594 19.6599 18.5594 19.7857 18.6851L24.9869 23.8822C25.1127 24.0079 25.3166 24.0079 25.4424 23.8821L28.4422 20.8823C28.568 20.7565 28.568 20.5526 28.4422 20.4268L23.2411 15.2257C23.1153 15.0999 22.9113 15.0999 22.7855 15.2257L19.7836 18.2276C19.6578 18.3534 19.4538 18.3534 19.328 18.2276L16.3283 15.2278C16.2025 15.102 16.2025 14.8981 16.3283 14.7723Z" fill="white"/>
<path d="M5.78223 4.68481C5.74038 4.66913 5.69473 4.6595 5.64746 4.65942H5.57227C5.2048 4.65955 4.90741 4.95799 4.90723 5.32544V24.675C4.90723 25.0427 5.20469 25.3409 5.57227 25.3411H5.64746C5.69502 25.341 5.74017 25.3305 5.78223 25.3147L4.91016 26.1877C4.9041 26.1938 4.90045 26.2017 4.90039 26.2102H0V3.78931H4.88672L5.78223 4.68481Z" fill="white"/>
<path d="M32.7414 22V5.63951H38.7012C40.4152 5.63951 41.9422 6.00568 43.2822 6.738C44.6378 7.45475 45.6895 8.43638 46.4374 9.68289C47.2009 10.9294 47.5827 12.3084 47.5827 13.8198C47.5827 15.3312 47.2009 16.7101 46.4374 17.9566C45.6895 19.2031 44.6378 20.1926 43.2822 20.9249C41.9422 21.6416 40.4152 22 38.7012 22H32.7414ZM38.7012 18.7279C39.7764 18.7279 40.7112 18.5253 41.5059 18.1202C42.3006 17.6995 42.9082 17.123 43.3289 16.3907C43.7496 15.6428 43.96 14.7858 43.96 13.8198C43.96 12.8537 43.7496 12.0045 43.3289 11.2722C42.9082 10.5243 42.3006 9.94778 41.5059 9.54266C40.7112 9.12196 39.7764 8.91161 38.7012 8.91161H36.2472V18.7279H38.7012ZM55.4205 22.3506C54.2363 22.3506 53.1534 22.0701 52.1718 21.5092C51.1902 20.9483 50.4111 20.1848 49.8346 19.2187C49.2737 18.2527 48.9932 17.1931 48.9932 16.0401C48.9932 14.8871 49.2737 13.8275 49.8346 12.8615C50.4111 11.8955 51.1902 11.132 52.1718 10.571C53.1534 10.0101 54.2363 9.72964 55.4205 9.72964C56.6359 9.72964 57.7188 10.0101 58.6693 10.571C59.6353 11.132 60.3832 11.8955 60.913 12.8615C61.4583 13.8275 61.731 14.8871 61.731 16.0401V16.7413H52.3822C52.4601 17.2399 52.6392 17.7073 52.9197 18.1436C53.2158 18.5643 53.5819 18.9071 54.0182 19.172C54.4545 19.4213 54.9219 19.5459 55.4205 19.5459C56.1061 19.5459 56.6748 19.4135 57.1267 19.1486C57.5941 18.8681 57.9213 18.5331 58.1083 18.1436H61.6141C61.2558 19.3122 60.5546 20.3094 59.5107 21.1352C58.4667 21.9455 57.1033 22.3506 55.4205 22.3506ZM58.2252 14.7546C58.1473 14.3495 57.9759 13.9834 57.711 13.6562C57.4617 13.3134 57.1345 13.0407 56.7294 12.8381C56.3398 12.6356 55.9036 12.5343 55.4205 12.5343C54.9375 12.5343 54.4934 12.6356 54.0883 12.8381C53.6832 13.0407 53.3482 13.3134 53.0833 13.6562C52.8184 13.9834 52.6237 14.3495 52.499 14.7546H58.2252ZM69.4347 22.3506C68.2505 22.3506 67.1676 22.0701 66.1859 21.5092C65.2043 20.9483 64.4252 20.1848 63.8487 19.2187C63.2878 18.2527 63.0073 17.1931 63.0073 16.0401C63.0073 14.8871 63.2878 13.8275 63.8487 12.8615C64.4252 11.8955 65.2043 11.132 66.1859 10.571C67.1676 10.0101 68.2505 9.72964 69.4347 9.72964C70.5877 9.72964 71.5849 9.95557 72.4263 10.4074C73.2677 10.8437 73.9377 11.4124 74.4363 12.1136C74.9349 12.8148 75.2933 13.5782 75.5114 14.4041H72.1225C71.9355 13.8899 71.6083 13.4536 71.1408 13.0952C70.689 12.7213 70.1203 12.5343 69.4347 12.5343C68.8893 12.5343 68.3829 12.6823 67.9155 12.9784C67.448 13.2744 67.0741 13.6873 66.7936 14.2171C66.5287 14.7469 66.3963 15.3545 66.3963 16.0401C66.3963 16.7257 66.5287 17.3334 66.7936 17.8631C67.0741 18.3929 67.448 18.8058 67.9155 19.1019C68.3829 19.3979 68.8893 19.5459 69.4347 19.5459C70.1203 19.5459 70.689 19.3667 71.1408 19.0084C71.6083 18.6344 71.9355 18.1903 72.1225 17.6762H75.5114C75.3244 18.502 74.9817 19.2655 74.483 19.9666C73.9844 20.6678 73.3067 21.2443 72.4497 21.6962C71.6083 22.1324 70.6033 22.3506 69.4347 22.3506ZM77.3803 22V10.0802H80.6524V11.8331H80.7692C81.003 11.2722 81.3769 10.8048 81.8911 10.4308C82.4053 10.0413 83.0441 9.8465 83.8076 9.8465H85.2099V13.0017H83.457C82.8805 13.0017 82.3819 13.1108 81.9612 13.3289C81.5405 13.5471 81.2133 13.8587 80.9796 14.2638C80.7614 14.6689 80.6524 15.1442 80.6524 15.6895V22H77.3803ZM90.2413 26.4407L91.5268 22H88.9559L85.8006 10.0802H89.1896L91.5268 19.1953H92.4617L95.0326 10.0802H98.4216L93.6303 26.4407H90.2413ZM99.7025 26.4407V10.0802H102.975V11.5994H103.091C103.325 11.2722 103.621 10.9684 103.98 10.6879C104.338 10.4074 104.759 10.1815 105.242 10.0101C105.725 9.82312 106.254 9.72964 106.831 9.72964C107.844 9.72964 108.763 9.99452 109.589 10.5243C110.43 11.0385 111.092 11.7786 111.576 12.7446C112.074 13.6951 112.323 14.7936 112.323 16.0401C112.323 17.2866 112.074 18.3929 111.576 19.359C111.092 20.3094 110.43 21.0495 109.589 21.5793C108.763 22.0935 107.844 22.3506 106.831 22.3506C106.254 22.3506 105.725 22.2571 105.242 22.0701C104.759 21.8987 104.338 21.6728 103.98 21.3923C103.621 21.1119 103.325 20.808 103.091 20.4808H102.975V26.4407H99.7025ZM106.013 19.5459C106.558 19.5459 107.049 19.4057 107.485 19.1252C107.937 18.8448 108.288 18.4396 108.537 17.9099C108.802 17.3801 108.934 16.7569 108.934 16.0401C108.934 15.3234 108.802 14.7001 108.537 14.1703C108.288 13.6406 107.937 13.2355 107.485 12.955C107.049 12.6745 106.558 12.5343 106.013 12.5343C105.421 12.5343 104.891 12.6745 104.424 12.955C103.972 13.2355 103.613 13.6406 103.349 14.1703C103.099 14.7001 102.975 15.3234 102.975 16.0401C102.975 16.7569 103.099 17.3801 103.349 17.9099C103.613 18.4396 103.972 18.8448 104.424 19.1252C104.891 19.4057 105.421 19.5459 106.013 19.5459ZM114.894 22V12.8849H113.375V10.0802H114.894V7.50929H118.166V10.0802H121.555V12.8849H118.166V19.1953H121.672V22H114.894ZM133.125 22V8.91161H127.866V5.63951H141.889V8.91161H136.63V22H133.125ZM147.383 22.3506C146.371 22.3506 145.444 22.0935 144.602 21.5793C143.776 21.0495 143.114 20.3094 142.616 19.359C142.132 18.3929 141.891 17.2866 141.891 16.0401C141.891 14.7936 142.132 13.6951 142.616 12.7446C143.114 11.7786 143.776 11.0385 144.602 10.5243C145.444 9.99452 146.371 9.72964 147.383 9.72964C147.96 9.72964 148.49 9.82312 148.973 10.0101C149.456 10.1815 149.876 10.4074 150.235 10.6879C150.593 10.9684 150.889 11.2722 151.123 11.5994H151.24V10.0802H154.512V22H151.24V20.4808H151.123C150.889 20.808 150.593 21.1119 150.235 21.3923C149.876 21.6728 149.456 21.8987 148.973 22.0701C148.49 22.2571 147.96 22.3506 147.383 22.3506ZM148.201 19.5459C148.794 19.5459 149.316 19.4057 149.767 19.1252C150.235 18.8448 150.593 18.4396 150.843 17.9099C151.107 17.3801 151.24 16.7569 151.24 16.0401C151.24 15.3234 151.107 14.7001 150.843 14.1703C150.593 13.6406 150.235 13.2355 149.767 12.955C149.316 12.6745 148.794 12.5343 148.201 12.5343C147.656 12.5343 147.158 12.6745 146.706 12.955C146.269 13.2355 145.919 13.6406 145.654 14.1703C145.405 14.7001 145.28 15.3234 145.28 16.0401C145.28 16.7569 145.405 17.3801 145.654 17.9099C145.919 18.4396 146.269 18.8448 146.706 19.1252C147.158 19.4057 147.656 19.5459 148.201 19.5459ZM157.083 22V5.63951H160.355V19.1953H163.043V22H157.083ZM170.295 22.3506C169.111 22.3506 168.028 22.0701 167.047 21.5092C166.065 20.9483 165.286 20.1848 164.709 19.2187C164.149 18.2527 163.868 17.1931 163.868 16.0401C163.868 14.8871 164.149 13.8275 164.709 12.8615C165.286 11.8955 166.065 11.132 167.047 10.571C168.028 10.0101 169.111 9.72964 170.295 9.72964C171.511 9.72964 172.594 10.0101 173.544 10.571C174.51 11.132 175.258 11.8955 175.788 12.8615C176.333 13.8275 176.606 14.8871 176.606 16.0401V16.7413H167.257C167.335 17.2399 167.514 17.7073 167.795 18.1436C168.091 18.5643 168.457 18.9071 168.893 19.172C169.329 19.4213 169.797 19.5459 170.295 19.5459C170.981 19.5459 171.55 19.4135 172.002 19.1486C172.469 18.8681 172.796 18.5331 172.983 18.1436H176.489C176.131 19.3122 175.429 20.3094 174.386 21.1352C173.342 21.9455 171.978 22.3506 170.295 22.3506ZM173.1 14.7546C173.022 14.3495 172.851 13.9834 172.586 13.6562C172.337 13.3134 172.009 13.0407 171.604 12.8381C171.215 12.6356 170.778 12.5343 170.295 12.5343C169.812 12.5343 169.368 12.6356 168.963 12.8381C168.558 13.0407 168.223 13.3134 167.958 13.6562C167.693 13.9834 167.499 14.3495 167.374 14.7546H173.1ZM178.583 22V10.0802H181.855V11.7163H181.972C182.3 11.1553 182.783 10.6879 183.421 10.3139C184.076 9.9244 184.839 9.72964 185.712 9.72964C187.192 9.72964 188.337 10.1659 189.148 11.0385C189.973 11.8955 190.386 13.1342 190.386 14.7546V22H187.114V15.2221C187.114 14.3495 186.896 13.6873 186.46 13.2355C186.024 12.768 185.424 12.5343 184.66 12.5343C184.162 12.5343 183.694 12.6667 183.258 12.9316C182.837 13.1965 182.494 13.5705 182.229 14.0535C181.98 14.5365 181.855 15.0819 181.855 15.6895V22H178.583ZM193.433 22V12.8849H191.914V10.0802H193.433V7.50929H196.705V10.0802H200.094V12.8849H196.705V19.1953H200.211V22H193.433Z" fill="white" fill-opacity="0.8"/>
<defs>
<linearGradient id="paint0_linear_1045_7772" x1="8.41633" y1="15.0635" x2="3.60327" y2="15.0635" gradientUnits="userSpaceOnUse">
<stop stop-color="white"/>
<stop offset="1" stop-color="#D6D6D6"/>
</linearGradient>
</defs>
</svg>
