<svg width="30" height="30" viewBox="0 0 30 30" fill="none" xmlns="http://www.w3.org/2000/svg">
<path fill-rule="evenodd" clip-rule="evenodd" d="M27.6389 -0.00195312H1.61481C0.722567 -0.00195312 0 0.720614 0 1.61285V27.637C0 28.5292 0.722567 29.2518 1.61481 29.2518H15.6244V17.9233H11.8127V13.5089H15.6244V10.2515C15.6244 6.4719 17.9325 4.41536 21.304 4.41536C22.9188 4.41536 24.3055 4.5353 24.7106 4.58942V8.53867H22.3733C20.539 8.53867 20.1851 9.41043 20.1851 10.6888V13.5074H24.557L23.9866 17.9218H20.1836V29.2518H27.6389C28.5312 29.2518 29.2537 28.5292 29.2537 27.637V1.61285C29.2537 0.720614 28.5312 -0.00195312 27.6389 -0.00195312Z" fill="white"/>
</svg>
