<svg width="30" height="30" viewBox="0 0 30 30" fill="none" xmlns="http://www.w3.org/2000/svg">
<g clip-path="url(#clip0_534_40414)">
<path d="M21.7833 7.43541C21.6411 7.43541 21.5047 7.37892 21.4041 7.27837C21.3036 7.17781 21.2471 7.04143 21.2471 6.89922C21.2471 6.75702 21.3036 6.62064 21.4041 6.52008C21.5047 6.41953 21.6411 6.36304 21.7833 6.36304M21.7833 7.43541C21.9255 7.43541 22.0618 7.37892 22.1624 7.27837C22.263 7.17781 22.3194 7.04143 22.3194 6.89922C22.3194 6.75702 22.263 6.62064 22.1624 6.52008C22.0618 6.41953 21.9255 6.36304 21.7833 6.36304" stroke="white" stroke-width="2.14475" stroke-linecap="round" stroke-linejoin="round"/>
<path d="M1.46308 6.97937C1.46308 5.51579 2.04449 4.11216 3.07939 3.07725C4.1143 2.04234 5.51794 1.46094 6.98152 1.46094H21.6988C22.4235 1.46094 23.1411 1.60368 23.8106 1.881C24.4801 2.15833 25.0885 2.56482 25.6009 3.07725C26.1133 3.58968 26.5198 4.19803 26.7971 4.86756C27.0745 5.53709 27.2172 6.25468 27.2172 6.97937V21.6966C27.2172 23.1602 26.6358 24.5638 25.6009 25.5988C24.566 26.6337 23.1623 27.2151 21.6988 27.2151H6.97937C5.51579 27.2151 4.11216 26.6337 3.07725 25.5988C2.04234 24.5638 1.46094 23.1602 1.46094 21.6966L1.46308 6.97937Z" stroke="white" stroke-width="2.14475" stroke-linecap="round" stroke-linejoin="round"/>
<path d="M8.87158 14.3463C8.87158 15.0645 9.01305 15.7757 9.28789 16.4392C9.56274 17.1028 9.96559 17.7057 10.4734 18.2135C10.9813 18.7214 11.5842 19.1242 12.2478 19.3991C12.9113 19.6739 13.6225 19.8154 14.3407 19.8154C15.0589 19.8154 15.7701 19.6739 16.4336 19.3991C17.0972 19.1242 17.7001 18.7214 18.2079 18.2135C18.7158 17.7057 19.1186 17.1028 19.3935 16.4392C19.6683 15.7757 19.8098 15.0645 19.8098 14.3463C19.8098 12.8958 19.2336 11.5047 18.2079 10.4791C17.1823 9.45341 15.7912 8.8772 14.3407 8.8772C12.8902 8.8772 11.4991 9.45341 10.4734 10.4791C9.44779 11.5047 8.87158 12.8958 8.87158 14.3463Z" stroke="white" stroke-width="2.14475" stroke-linecap="round" stroke-linejoin="round"/>
</g>
<defs>
<clipPath id="clip0_534_40414">
<rect width="29.2537" height="29.2537" fill="white"/>
</clipPath>
</defs>
</svg>
