<svg width="30" height="30" viewBox="0 0 30 30" fill="none" xmlns="http://www.w3.org/2000/svg">
<g clip-path="url(#clip0_534_40419)">
<path d="M27.0123 -0.00174865H2.24089C1.96244 -0.00561589 1.68595 0.0454069 1.42722 0.148406C1.16848 0.251405 0.932576 0.404363 0.732963 0.598544C0.53335 0.792725 0.373944 1.02433 0.263848 1.28012C0.153752 1.53591 0.0951229 1.81089 0.0913086 2.08934V27.1532C0.0951229 27.4317 0.153752 27.7066 0.263848 27.9624C0.373944 28.2182 0.53335 28.4498 0.732963 28.644C0.932576 28.8382 1.16848 28.9911 1.42722 29.0941C1.68595 29.1971 1.96244 29.2482 2.24089 29.2443H27.0123C27.2907 29.2482 27.5672 29.1971 27.826 29.0941C28.0847 28.9911 28.3206 28.8382 28.5202 28.644C28.7198 28.4498 28.8792 28.2182 28.9893 27.9624C29.0994 27.7066 29.1581 27.4317 29.1619 27.1532V2.08934C29.1581 1.81089 29.0994 1.53591 28.9893 1.28012C28.8792 1.02433 28.7198 0.792725 28.5202 0.598544C28.3206 0.404363 28.0847 0.251405 27.826 0.148406C27.5672 0.0454069 27.2907 -0.00561589 27.0123 -0.00174865ZM8.90899 24.4772H4.52208V11.3165H8.90899V24.4772ZM6.71554 9.47397C6.11053 9.47397 5.5303 9.23363 5.10249 8.80582C4.67469 8.37802 4.43435 7.79779 4.43435 7.19278C4.43435 6.58777 4.67469 6.00754 5.10249 5.57973C5.5303 5.15193 6.11053 4.91159 6.71554 4.91159C7.0368 4.87515 7.36213 4.90699 7.67024 5.005C7.97834 5.10302 8.26227 5.26501 8.50343 5.48037C8.74459 5.69572 8.93754 5.95959 9.06966 6.25469C9.20177 6.54978 9.27006 6.86946 9.27006 7.19278C9.27006 7.5161 9.20177 7.83577 9.06966 8.13087C8.93754 8.42597 8.74459 8.68984 8.50343 8.90519C8.26227 9.12055 7.97834 9.28254 7.67024 9.38055C7.36213 9.47857 7.0368 9.5104 6.71554 9.47397ZM24.7311 24.4772H20.3442V17.4143C20.3442 15.6449 19.7154 14.4897 18.1215 14.4897C17.6282 14.4933 17.1479 14.648 16.7452 14.933C16.3426 15.218 16.037 15.6196 15.8696 16.0836C15.7551 16.4273 15.7055 16.7892 15.7233 17.1511V24.4626H11.3364V11.3018H15.7233V13.159C16.1218 12.4675 16.7015 11.8978 17.3998 11.5113C18.0981 11.1247 18.8886 10.9361 19.6862 10.9655C22.6108 10.9655 24.7311 12.8519 24.7311 16.9025V24.4772Z" fill="white"/>
</g>
<defs>
<clipPath id="clip0_534_40419">
<rect width="29.2537" height="29.2537" fill="white"/>
</clipPath>
</defs>
</svg>
