<svg width="30" height="30" viewBox="0 0 30 30" fill="none" xmlns="http://www.w3.org/2000/svg">
<g clip-path="url(#clip0_534_40421)">
<path d="M4.07463 0.36377C1.82722 0.36377 0 2.19099 0 4.4384V24.8115C0 27.0589 1.82722 28.8862 4.07463 28.8862H24.4478C26.6952 28.8862 28.5224 27.0589 28.5224 24.8115V4.4384C28.5224 2.19099 26.6952 0.36377 24.4478 0.36377H4.07463ZM22.9898 5.71172L16.3813 13.2625L24.1549 23.5382H18.0684L13.3062 17.3053L7.85002 23.5382H4.82589L11.8928 15.459L4.43752 5.71172H10.6768L14.987 11.4098L19.9657 5.71172H22.9898ZM20.5832 21.7301L9.76637 7.42433H7.96462L18.9024 21.7301H20.5769H20.5832Z" fill="white"/>
</g>
<defs>
<clipPath id="clip0_534_40421">
<rect width="29.2537" height="29.2537" fill="white"/>
</clipPath>
</defs>
</svg>
