<svg width="297" height="252" viewBox="0 0 297 252" fill="none" xmlns="http://www.w3.org/2000/svg">
<g opacity="0.7" filter="url(#filter0_f_789_8280)">
<path d="M263.891 263.338H232.642C231.923 237.283 225.112 211.767 212.792 188.994L239.882 173.369C254.921 200.863 263.172 231.775 263.891 263.338Z" fill="#00AA4E"/>
</g>
<g opacity="0.7" filter="url(#filter1_f_789_8280)">
<path d="M235.385 165.583L208.295 181.23C194.672 159.108 175.991 140.427 153.869 126.803L169.493 99.7141C196.358 116.08 219.019 138.718 235.385 165.583Z" fill="#95DF3D"/>
</g>
<g opacity="0.7" filter="url(#filter2_f_789_8280)">
<path d="M161.719 95.2322L146.072 122.321C123.299 109.98 97.7835 103.168 71.7505 102.448V71.2C103.291 71.9194 134.202 80.17 161.719 95.2322Z" fill="#FFD919"/>
</g>
<g opacity="0.7" filter="url(#filter3_f_789_8280)">
<path d="M62.7553 71.2V102.448C36.7006 103.168 11.1846 109.979 -11.5886 122.299L-27.2354 95.2094C0.258869 80.17 31.1928 71.9194 62.7553 71.2Z" fill="#FFAF19"/>
</g>
<path d="M263.892 263.337H232.643C231.924 237.282 225.113 211.766 212.793 188.993L239.883 173.369C254.922 200.863 263.172 231.774 263.892 263.337Z" fill="#00AA4E"/>
<path d="M235.385 165.583L208.295 181.23C194.672 159.109 175.991 140.427 153.869 126.804L169.493 99.7144C196.358 116.08 219.019 138.718 235.385 165.583Z" fill="#95DF3D"/>
<path d="M161.718 95.2339L146.071 122.323C123.298 109.981 97.7825 103.17 71.7495 102.45V71.2017C103.29 71.9211 134.201 80.1717 161.718 95.2339Z" fill="#EBC505"/>
<path d="M62.7563 71.2017V102.45C36.7016 103.169 11.1856 109.981 -11.5876 122.301L-27.2344 95.2111C0.259846 80.1717 31.1938 71.9211 62.7563 71.2017Z" fill="#FFAF19"/>
<path d="M67.2067 352.108C59.3279 352.108 51.3945 351.149 43.546 349.208C18.168 342.934 -3.24599 327.147 -16.7527 304.758C-44.6094 258.6 -29.7082 198.336 16.4707 170.422L16.5007 170.404C62.7195 142.567 122.987 157.489 150.847 203.673C160.576 219.829 165.421 238.276 164.868 257.034C163.886 290.497 146.206 320.761 117.572 337.99C102.141 347.318 84.8144 352.108 67.2067 352.108ZM39.6998 208.919C14.7482 224.024 6.6913 256.589 21.7439 281.53C29.0479 293.637 40.6225 302.17 54.3392 305.561C68.051 308.951 82.2624 306.795 94.3519 299.488C109.849 290.164 119.394 273.808 119.925 255.712C120.225 245.589 117.6 235.621 112.338 226.883C97.2837 201.929 64.6915 193.862 39.6998 208.919Z" fill="#F2F2F2"/>
<path d="M67.0987 294.305C63.8724 294.305 60.6242 293.912 57.4128 293.118C47.0176 290.548 38.2476 284.082 32.7163 274.912C21.3064 256.006 27.4127 231.321 46.3296 219.887L46.3315 219.887C65.2616 208.483 89.9501 214.596 101.362 233.512C105.344 240.127 107.33 247.682 107.105 255.36C106.702 269.066 99.4647 281.461 87.7417 288.516C81.4117 292.341 74.3111 294.305 67.0987 294.305ZM47.4921 221.811C29.6361 232.605 23.8697 255.905 34.6417 273.75C39.8618 282.406 48.1401 288.509 57.9511 290.936C67.7701 293.362 77.9342 291.818 86.5806 286.59C97.6456 279.931 104.478 268.232 104.856 255.293C105.071 248.047 103.196 240.916 99.4362 234.672C88.6673 216.821 65.3664 211.048 47.4921 221.811Z" fill="#213A5C"/>
<path d="M59.613 245.756L175.399 157.194C176.623 156.244 178.33 158.004 177.145 159.18L74.4541 262.642C62.7175 273.393 47.4132 256.083 59.613 245.756Z" fill="#245FFF"/>
<path d="M56.6259 236.975C66.1528 231.237 78.532 234.294 84.2785 243.821C86.35 247.261 87.275 251.06 87.1645 254.799C86.9703 261.412 83.5197 267.799 77.4351 271.46C67.9138 277.215 55.532 274.152 49.7853 264.625C44.0385 255.104 47.1049 242.73 56.6259 236.975Z" fill="#213A5C"/>
<path d="M271.368 180.358L273.255 184.73L271.842 185.34L270.833 182.998L268.169 184.148L268.95 185.956L267.524 186.57L266.745 184.763L263.6 186.121L264.62 188.486L263.234 189.085L261.335 184.688L271.368 180.358Z" fill="#00AA4E"/>
<path d="M270.007 190.258L273.975 186.478L274.741 188.438L272.273 190.793L275.606 190.649L276.292 192.408L270.357 192.599L266.185 196.56L265.429 194.626L268.125 192.037L264.453 192.126L263.77 190.38L270.007 190.258Z" fill="#00AA4E"/>
<path d="M267.726 198.49C268.157 197.826 268.929 197.3 270.041 196.914L273.736 195.629C274.875 195.234 275.815 195.161 276.554 195.414C277.294 195.666 277.855 196.344 278.238 197.448C278.605 198.502 278.606 199.336 278.245 199.953C277.884 200.569 277.222 201.044 276.263 201.376L275.397 201.678L274.689 199.639L275.643 199.307C275.95 199.201 276.191 199.101 276.368 199.005C276.543 198.911 276.671 198.781 276.753 198.615C276.833 198.449 276.828 198.238 276.741 197.984C276.608 197.601 276.398 197.398 276.115 197.373C275.828 197.348 275.449 197.419 274.974 197.584L270.285 199.214C269.8 199.382 269.462 199.571 269.269 199.781C269.074 199.991 269.039 200.27 269.159 200.619C269.284 200.975 269.484 201.163 269.762 201.18C270.039 201.198 270.415 201.124 270.891 200.959L271.898 200.61L272.607 202.648L271.753 202.944C270.768 203.287 269.93 203.336 269.239 203.09C268.549 202.844 268.02 202.19 267.652 201.128C267.27 200.033 267.295 199.153 267.726 198.49Z" fill="#00AA4E"/>
<path d="M279.949 203.014L281.348 207.565L279.879 208.016L279.129 205.579L276.358 206.432L276.936 208.314L275.453 208.769L274.875 206.887L271.599 207.893L272.357 210.356L270.911 210.799L269.505 206.222L279.949 203.014Z" fill="#00AA4E"/>
<path d="M282.041 209.979L282.62 212.114L273.534 214.582L274.21 217.068L272.751 217.465L271.497 212.844L282.041 209.979Z" fill="#00AA4E"/>
<path d="M283.887 216.958L284.397 219.11L275.235 221.282L275.83 223.789L274.359 224.137L273.255 219.477L283.887 216.958Z" fill="#00AA4E"/>
<path d="M285.493 223.924L286.439 228.59L284.934 228.897L284.426 226.398L281.584 226.976L281.975 228.905L280.455 229.213L280.063 227.284L276.705 227.965L277.218 230.49L275.737 230.791L274.785 226.098L285.493 223.924Z" fill="#00AA4E"/>
<path d="M286.911 231.111L287.164 232.641L281.959 235.963L287.561 235.037L287.862 236.86L277.082 238.642L276.839 237.165L282.405 233.784L276.442 234.77L276.132 232.894L286.911 231.111Z" fill="#00AA4E"/>
<path d="M286.782 241.092L286.567 239.42L288.199 239.21L288.909 244.749L287.278 244.958L287.067 243.312L277.862 244.494L277.578 242.273L286.782 241.092Z" fill="#00AA4E"/>
<path d="M197.102 89.323L198.656 90.4673L195.218 97.3165L200.677 91.9555L202.294 93.1474L194.14 100.711L192.295 99.3512L197.102 89.323Z" fill="#95DF3D"/>
<path d="M204.215 94.6353L207.946 97.5919L206.992 98.7968L204.993 97.2136L203.192 99.4873L204.736 100.71L203.774 101.926L202.23 100.703L200.103 103.389L202.122 104.988L201.184 106.172L197.431 103.199L204.215 94.6353Z" fill="#95DF3D"/>
<path d="M209.937 99.2053L212.093 101.046C212.987 101.81 213.52 102.55 213.691 103.264C213.861 103.977 213.603 104.737 212.914 105.545C212.452 106.085 212.004 106.456 211.571 106.659C211.136 106.862 210.657 106.886 210.127 106.73L207.815 111.762L206.083 110.281L208.355 105.711L207.738 105.185L204.524 108.949L202.841 107.512L209.937 99.2053ZM209.099 104.609C209.496 104.948 209.857 105.089 210.185 105.032C210.512 104.974 210.853 104.737 211.209 104.32C211.561 103.909 211.746 103.548 211.766 103.233C211.786 102.919 211.608 102.602 211.231 102.28L210.647 101.781L208.598 104.181L209.099 104.609Z" fill="#95DF3D"/>
<path d="M213.387 110.994L216.292 104.7L217.829 106.116L216.085 109.738L219.485 107.644L220.982 109.025L214.964 112.447L212.029 115.631L210.452 114.176L213.387 110.994Z" fill="#95DF3D"/>
<path d="M219.039 121.284C219.193 120.504 219.707 119.693 220.582 118.851L223.214 116.313C224.106 115.452 224.951 114.971 225.749 114.872C226.545 114.772 227.349 115.142 228.161 115.984C228.94 116.793 229.298 117.56 229.235 118.284C229.17 119.007 228.767 119.728 228.021 120.446L227.564 120.886L226.067 119.332L226.621 118.798C226.983 118.449 227.211 118.151 227.304 117.905C227.398 117.658 227.308 117.393 227.033 117.109C226.751 116.817 226.475 116.723 226.198 116.826C225.923 116.929 225.602 117.159 225.232 117.514L221.736 120.885C221.368 121.241 221.135 121.565 221.036 121.859C220.938 122.154 221.028 122.442 221.301 122.727C221.571 123.006 221.864 123.1 222.184 123.01C222.504 122.921 222.852 122.696 223.227 122.333L224.063 121.528L223.323 120.761L224.293 119.825L226.428 122.04L222.389 125.934L221.378 124.886L221.974 124.105C221.198 124.389 220.512 124.221 219.912 123.6C219.176 122.834 218.884 122.063 219.039 121.284Z" fill="#95DF3D"/>
<path d="M225.034 127.68C225.159 126.907 225.663 126.129 226.545 125.347L229.59 122.641C230.47 121.859 231.297 121.456 232.068 121.432C232.841 121.407 233.613 121.828 234.384 122.696C235.147 123.556 235.471 124.372 235.356 125.142C235.24 125.913 234.745 126.686 233.871 127.462L230.816 130.176C229.941 130.953 229.112 131.356 228.328 131.386C227.541 131.416 226.767 131.001 226.002 130.14C225.233 129.272 224.909 128.452 225.034 127.68ZM227.986 129.397C228.264 129.324 228.571 129.139 228.907 128.84L232.77 125.409C233.106 125.11 233.323 124.831 233.421 124.569C233.52 124.307 233.444 124.035 233.193 123.753C232.941 123.471 232.682 123.362 232.41 123.43C232.139 123.496 231.834 123.679 231.499 123.978L227.637 127.408C227.294 127.713 227.069 127.995 226.965 128.257C226.86 128.518 226.935 128.793 227.194 129.082C227.443 129.365 227.708 129.469 227.986 129.397Z" fill="#95DF3D"/>
<path d="M230.811 134.311C230.968 133.544 231.504 132.788 232.415 132.042L235.57 129.464C236.481 128.719 237.323 128.35 238.097 128.358C238.869 128.365 239.622 128.818 240.355 129.716C241.085 130.607 241.375 131.436 241.228 132.2C241.081 132.965 240.555 133.718 239.649 134.458L236.484 137.043C235.58 137.783 234.734 138.152 233.948 138.149C233.163 138.147 232.405 137.701 231.677 136.809C230.943 135.911 230.654 135.078 230.811 134.311ZM233.689 136.149C233.969 136.087 234.286 135.915 234.632 135.63L238.633 132.361C238.981 132.076 239.21 131.806 239.319 131.548C239.428 131.291 239.363 131.016 239.125 130.723C238.885 130.431 238.628 130.312 238.355 130.368C238.08 130.423 237.77 130.594 237.42 130.878L233.421 134.147C233.066 134.438 232.83 134.711 232.715 134.967C232.6 135.224 232.665 135.503 232.91 135.802C233.148 136.094 233.408 136.21 233.689 136.149Z" fill="#95DF3D"/>
<path d="M244.077 134.581L245.68 136.717C246.23 137.45 246.565 138.095 246.687 138.651C246.806 139.209 246.735 139.723 246.472 140.196C246.209 140.67 245.749 141.152 245.096 141.643L241.912 144.032C241.245 144.535 240.642 144.853 240.105 144.985C239.571 145.118 239.049 145.053 238.544 144.792C238.038 144.53 237.517 144.04 236.976 143.321L235.34 141.142L244.077 134.581ZM238.2 142.368C238.433 142.677 238.653 142.869 238.86 142.944C239.068 143.018 239.279 143.005 239.496 142.904C239.713 142.803 239.999 142.621 240.351 142.356L243.963 139.643C244.295 139.393 244.527 139.183 244.66 139.009C244.795 138.836 244.849 138.645 244.823 138.44C244.798 138.234 244.67 137.976 244.436 137.667L244.153 137.29L237.908 141.98L238.2 142.368Z" fill="#95DF3D"/>
<path d="M107.476 61.7614C107.16 61.0329 107.122 60.0734 107.362 58.8833L108.083 55.2996C108.329 54.083 108.751 53.2077 109.349 52.672C109.948 52.1364 110.82 51.9841 111.966 52.2148C113.068 52.4372 113.798 52.8636 114.157 53.4958C114.516 54.1278 114.594 54.9508 114.389 55.9644L114.264 56.5855L112.149 56.1591L112.3 55.4055C112.4 54.9125 112.417 54.5379 112.354 54.2821C112.29 54.0263 112.065 53.8591 111.677 53.7806C111.281 53.7006 111 53.7814 110.831 54.023C110.663 54.2645 110.528 54.636 110.428 55.1391L109.469 59.8994C109.369 60.4014 109.36 60.8014 109.447 61.0986C109.534 61.3961 109.772 61.5833 110.16 61.6617C110.538 61.7384 110.835 61.6485 111.046 61.3928C111.258 61.138 111.416 60.7548 111.519 60.2435L111.748 59.1059L110.703 58.8959L110.97 57.5735L113.985 58.1806L112.877 63.6814L111.448 63.3933L111.495 62.4123C111.02 63.087 110.359 63.3392 109.512 63.1685C108.473 62.9591 107.793 62.4902 107.476 61.7614Z" fill="#EBC505"/>
<path d="M116.082 63.6186C115.745 62.9116 115.717 61.9855 115.999 60.8412L116.966 56.8852C117.248 55.7409 117.699 54.9398 118.321 54.4808C118.942 54.0218 119.816 53.9301 120.942 54.2059C122.06 54.48 122.791 54.967 123.132 55.6668C123.476 56.3664 123.507 57.2831 123.229 58.4194L122.256 62.3886C121.98 63.5236 121.525 64.3275 120.897 64.7979C120.268 65.2686 119.393 65.3675 118.275 65.0936C117.15 64.8171 116.417 64.3257 116.082 63.6186ZM119.486 63.3553C119.673 63.1371 119.821 62.8098 119.928 62.3733L121.157 57.3554C121.264 56.9191 121.284 56.5649 121.215 56.2936C121.147 56.022 120.931 55.8421 120.564 55.7523C120.198 55.6624 119.921 55.7215 119.734 55.9314C119.55 56.1404 119.403 56.4635 119.296 56.9L118.067 61.9177C117.959 62.3632 117.935 62.7231 117.997 62.997C118.059 63.272 118.279 63.4553 118.655 63.5477C119.022 63.6368 119.298 63.5736 119.486 63.3553Z" fill="#EBC505"/>
<path d="M124.583 65.7769C124.277 65.0564 124.287 64.1303 124.615 62.9992L125.748 59.0857C126.076 57.9546 126.559 57.1727 127.198 56.7396C127.838 56.3074 128.716 56.2523 129.83 56.5746C130.936 56.8944 131.646 57.4117 131.959 58.1247C132.272 58.8384 132.265 59.7562 131.941 60.8788L130.804 64.8048C130.48 65.9273 129.993 66.711 129.344 67.155C128.696 67.5996 127.82 67.6612 126.714 67.3414C125.599 67.0196 124.89 66.4982 124.583 65.7769ZM127.994 65.6552C128.191 65.4453 128.352 65.1248 128.477 64.6932L129.913 59.7303C130.038 59.299 130.073 58.9459 130.017 58.6717C129.96 58.3978 129.75 58.2088 129.387 58.1037C129.026 57.9988 128.747 58.047 128.553 58.2479C128.358 58.4496 128.199 58.7659 128.074 59.198L126.637 64.1601C126.51 64.6007 126.472 64.9596 126.522 65.2361C126.574 65.5134 126.786 65.7049 127.157 65.8124C127.518 65.9185 127.798 65.866 127.994 65.6552Z" fill="#EBC505"/>
<path d="M135.691 58.4905L138.223 59.3392C139.093 59.6307 139.734 59.9722 140.149 60.3618C140.563 60.7525 140.797 61.2172 140.848 61.756C140.9 62.2947 140.795 62.9529 140.535 63.728L139.271 67.5009C139.006 68.2937 138.689 68.8974 138.323 69.3098C137.956 69.7238 137.492 69.9661 136.927 70.0371C136.362 70.1096 135.655 70.0021 134.802 69.7163L132.218 68.8503L135.691 58.4905ZM135.268 68.2362C135.635 68.3594 135.925 68.3928 136.14 68.3361C136.353 68.2794 136.519 68.1487 136.641 67.9423C136.762 67.7365 136.892 67.4243 137.032 67.0069L138.47 62.7219C138.599 62.3305 138.671 62.0247 138.683 61.8059C138.694 61.5869 138.633 61.3995 138.494 61.2446C138.356 61.0898 138.105 60.9498 137.738 60.8276L137.29 60.6777L134.808 68.0824L135.268 68.2362Z" fill="#EBC505"/>
<path d="M-4.28516 59.7791L0.0956674 58.3342L0.573596 59.7817L-1.70679 60.5338L-0.784072 63.3263L1.14989 62.6884L1.63455 64.1607L-0.297594 64.7994L1.23974 69.4617L-0.860711 70.1545L-4.28516 59.7791Z" fill="#FFAF19"/>
<path d="M3.65723 57.2444L6.02743 56.5505L11.1161 66.4454L9.14715 67.0209L8.08465 64.8306L6.42872 65.3153L6.70187 67.737L4.69462 68.3242L3.65723 57.2444ZM7.49151 63.5706L5.62252 59.5361L6.23559 63.9385L7.49151 63.5706Z" fill="#FFAF19"/>
<path d="M10.4341 55.3473L12.5744 54.7927L15.3161 65.369L13.174 65.9238L10.4341 55.3473Z" fill="#FFAF19"/>
<path d="M15.4927 54.0461L18.2577 53.425C19.407 53.1676 20.318 53.1834 20.9927 53.475C21.6656 53.7657 22.1189 54.4293 22.3504 55.4646C22.507 56.1574 22.5352 56.7386 22.4387 57.2075C22.3403 57.6764 22.0705 58.0753 21.6291 58.4052L24.2709 63.273L22.0454 63.7719L19.75 59.2137L18.9604 59.391L20.0449 64.2216L17.8877 64.7062L15.4927 54.0461ZM19.3171 57.957C19.8251 57.8421 20.1549 57.6373 20.3048 57.3408C20.4547 57.0441 20.4697 56.6286 20.3499 56.0932C20.2315 55.5669 20.0532 55.2021 19.8134 54.9973C19.5737 54.7933 19.2123 54.7451 18.7307 54.8533L17.9797 55.0224L18.6709 58.1015L19.3171 57.957Z" fill="#FFAF19"/>
<defs>
<filter id="filter0_f_789_8280" x="141.592" y="102.169" width="193.499" height="232.368" filterUnits="userSpaceOnUse" color-interpolation-filters="sRGB">
<feFlood flood-opacity="0" result="BackgroundImageFix"/>
<feBlend mode="normal" in="SourceGraphic" in2="BackgroundImageFix" result="shape"/>
<feGaussianBlur stdDeviation="35.6" result="effect1_foregroundBlur_789_8280"/>
</filter>
<filter id="filter1_f_789_8280" x="82.6691" y="28.5141" width="223.916" height="223.915" filterUnits="userSpaceOnUse" color-interpolation-filters="sRGB">
<feFlood flood-opacity="0" result="BackgroundImageFix"/>
<feBlend mode="normal" in="SourceGraphic" in2="BackgroundImageFix" result="shape"/>
<feGaussianBlur stdDeviation="35.6" result="effect1_foregroundBlur_789_8280"/>
</filter>
<filter id="filter2_f_789_8280" x="0.550491" y="-4.57764e-05" width="232.368" height="193.522" filterUnits="userSpaceOnUse" color-interpolation-filters="sRGB">
<feFlood flood-opacity="0" result="BackgroundImageFix"/>
<feBlend mode="normal" in="SourceGraphic" in2="BackgroundImageFix" result="shape"/>
<feGaussianBlur stdDeviation="35.6" result="effect1_foregroundBlur_789_8280"/>
</filter>
<filter id="filter3_f_789_8280" x="-98.4353" y="-4.57764e-05" width="232.391" height="193.499" filterUnits="userSpaceOnUse" color-interpolation-filters="sRGB">
<feFlood flood-opacity="0" result="BackgroundImageFix"/>
<feBlend mode="normal" in="SourceGraphic" in2="BackgroundImageFix" result="shape"/>
<feGaussianBlur stdDeviation="35.6" result="effect1_foregroundBlur_789_8280"/>
</filter>
</defs>
</svg>
