<svg width="182" height="203" viewBox="0 0 182 203" fill="none" xmlns="http://www.w3.org/2000/svg">
<path d="M90.9188 164.69V269.337H181.836L164.567 188.767C162.399 180.011 156.85 172.471 149.134 167.798L121.549 151.091L90.9188 164.69Z" fill="#245FFF"/>
<path d="M0.000244141 269.34L17.271 188.768C19.4403 180.016 24.9893 172.474 32.7019 167.8L54.357 154.687L60.2864 151.092L66.21 153.721L81.9473 160.707V157.708H102.307V161.576C106.714 158.225 110.946 153.364 113.024 146.401C113.024 146.401 118.663 150.354 121.531 154.153C121.531 154.153 121.673 172.128 102.188 186.298C102.188 186.298 104.283 176.354 90.92 169.715V269.34H0.000244141Z" fill="#2054E1"/>
<path d="M66.4852 117.817H115.356V146.646C115.356 146.646 108.838 164.695 90.9207 164.695C73.0033 164.695 66.4852 146.646 66.4852 146.646V117.817Z" fill="#FFD8B5"/>
<path opacity="0.3" d="M115.356 129.732C107.101 136.709 97.0558 143.694 90.8238 143.694C84.6403 143.694 74.703 136.817 66.4846 129.894V117.817H115.355L115.356 129.732Z" fill="#D49C79"/>
<path d="M131.417 78.2666C131.417 78.2666 134.51 67.0551 138.763 70.2769C143.016 73.4986 135.09 91.1536 135.09 95.6635C135.09 100.174 130.644 102.364 129.098 99.2719L131.417 78.2666Z" fill="#F2C6A3"/>
<path d="M50.2244 78.2666C50.2244 78.2666 47.1314 67.0551 42.8788 70.2769C38.6263 73.4986 46.5516 91.1536 46.5516 95.6635C46.5516 100.174 50.9979 102.364 52.5441 99.2719L50.2244 78.2666Z" fill="#F2C6A3"/>
<path d="M90.8195 12.0648C142.09 12.0648 133.098 74.8101 133.098 74.8101L129.329 107.026C129.104 109.503 128.049 111.829 126.338 113.634C119.172 121.194 100.444 137.856 90.8189 137.856C81.1938 137.856 62.4667 121.194 55.3007 113.634C53.5895 111.829 52.5345 109.503 52.309 107.026L48.5406 74.8101C48.5419 74.8101 39.5488 12.0648 90.8195 12.0648Z" fill="#FFD8B5"/>
<path d="M131.696 86.803H126.652V61.1259C126.652 61.1259 116.342 57.9041 113.379 42.6982C113.379 42.6982 98.9454 63.9609 54.7126 63.9609V86.803H49.9472L46.368 64.7502C46.368 64.7502 37.4743 10.4916 90.822 10.4916C144.17 10.4916 135.504 63.4308 135.504 63.4308L131.696 86.803Z" fill="#2B2B2B"/>
<path d="M125.476 20.5052C133.706 22.3101 143.31 28.1273 138.93 63.1715C138.93 63.1715 128.401 63.9233 122.636 56.4031C116.87 48.8829 113.611 38.6048 113.611 38.6048C113.611 38.6048 96.4815 63.1715 41.6233 64.4253C41.6233 64.4253 33.3921 8.67315e-08 88.0407 8.67315e-08C115.353 -0.00127408 125.142 14.0369 125.476 20.5052Z" fill="#2B2B2B"/>
<path d="M90.9215 164.698C90.9215 164.698 71.7045 160.856 66.4861 143.697C66.4861 143.697 60.9887 147.471 58.1976 151.099C58.1976 151.099 58.0581 168.264 77.0375 181.801C77.0375 181.801 74.7039 170.947 90.9215 164.698Z" fill="#E6E6E6"/>
<path d="M90.9212 164.698C90.9212 164.698 110.138 160.856 115.357 143.697C115.357 143.697 120.854 147.471 123.645 151.099C123.645 151.099 123.785 168.264 104.806 181.801C104.806 181.801 107.139 170.947 90.9212 164.698Z" fill="#F2F2F2"/>
<circle cx="0.283949" cy="0.283949" r="0.283949" transform="matrix(-1 0 0 1 142.619 32.5779)" fill="#2054E1"/>
<path d="M142.339 31.7431V8.83154" stroke="#2054E1" stroke-width="0.567898" stroke-linecap="round" stroke-linejoin="round"/>
<circle cx="0.283949" cy="0.283949" r="0.283949" transform="matrix(-1 0 0 1 142.619 7.98596)" fill="#2054E1"/>
<path d="M141.217 8.27112H118.306" stroke="#2054E1" stroke-width="0.567898" stroke-linecap="round" stroke-linejoin="round"/>
<circle cx="0.283949" cy="0.283949" r="0.283949" transform="matrix(-1 0 0 1 118.032 7.98596)" fill="#2054E1"/>
<path d="M139.389 5.65283H145.277V11.4121H139.389V5.65283Z" fill="#2054E1"/>
<circle cx="0.283949" cy="0.283949" r="0.283949" transform="matrix(-1 0 0 1 61.3058 8.14832)" fill="#2054E1"/>
<path d="M59.9044 8.43347H36.9923" stroke="#2054E1" stroke-width="0.567898" stroke-linecap="round" stroke-linejoin="round"/>
<circle cx="0.283949" cy="0.283949" r="0.283949" transform="matrix(-1 0 0 1 36.714 8.14832)" fill="#2054E1"/>
<path d="M36.4337 9.55444V32.466" stroke="#2054E1" stroke-width="0.567898" stroke-linecap="round" stroke-linejoin="round"/>
<circle cx="0.283949" cy="0.283949" r="0.283949" transform="matrix(-1 0 0 1 36.714 32.7402)" fill="#2054E1"/>
<path d="M33.8156 5.49048H39.5748V11.3791H33.8156V5.49048Z" fill="#2054E1"/>
<circle cx="0.283949" cy="0.283949" r="0.283949" transform="matrix(-1 0 0 1 37.0392 108.743)" fill="#2054E1"/>
<path d="M36.7589 110.149V133.061" stroke="#2054E1" stroke-width="0.567898" stroke-linecap="round" stroke-linejoin="round"/>
<circle cx="0.283949" cy="0.283949" r="0.283949" transform="matrix(-1 0 0 1 37.0392 133.335)" fill="#2054E1"/>
<path d="M37.8738 133.62H60.7853" stroke="#2054E1" stroke-width="0.567898" stroke-linecap="round" stroke-linejoin="round"/>
<circle cx="0.283949" cy="0.283949" r="0.283949" transform="matrix(-1 0 0 1 61.631 133.335)" fill="#2054E1"/>
<path d="M33.8142 130.473H39.7028V136.232H33.8142V130.473Z" fill="#2054E1"/>
<circle cx="0.283949" cy="0.283949" r="0.283949" transform="matrix(-1 0 0 1 118.364 133.159)" fill="#2054E1"/>
<path d="M119.194 133.444H142.105" stroke="#2054E1" stroke-width="0.567898" stroke-linecap="round" stroke-linejoin="round"/>
<circle cx="0.283949" cy="0.283949" r="0.283949" transform="matrix(-1 0 0 1 142.951 133.159)" fill="#2054E1"/>
<path d="M142.666 132.324V109.412" stroke="#2054E1" stroke-width="0.567898" stroke-linecap="round" stroke-linejoin="round"/>
<circle cx="0.283949" cy="0.283949" r="0.283949" transform="matrix(-1 0 0 1 142.951 108.567)" fill="#2054E1"/>
<path d="M139.518 130.499H145.277V136.388H139.518V130.499Z" fill="#2054E1"/>
<path opacity="0.2" d="M80.2135 82.9235L72.4185 79.2625H65.1832L61.1149 81.8011L63.3833 84.4499L73.4654 84.992L80.2135 82.9235Z" fill="#00FFFF"/>
<path opacity="0.2" d="M99.4269 82.9235L107.222 79.2625H114.457L118.525 81.8011L116.257 84.4499L106.175 84.992L99.4269 82.9235Z" fill="#00FFFF"/>
<path opacity="0.2" d="M89.7614 120.319L79.5989 119.225L76.3923 113.925L84.9419 108.859L89.7614 113.925V120.319Z" fill="#00FFFF"/>
<path opacity="0.2" d="M90.6168 120.319L100.779 119.225L103.986 113.925L95.4363 108.859L90.6168 113.925V120.319Z" fill="#00FFFF"/>
<path d="M62.6555 81.3535L66.6016 78.5249H73.8363L81.6349 82.6041L74.8697 84.909L64.9101 84.3431L62.6555 81.3535Z" stroke="#00FFFF" stroke-width="0.371485" stroke-miterlimit="10" stroke-linecap="round" stroke-linejoin="round"/>
<path d="M81.6385 82.602L85.0208 92.099L86.0548 82.602L79.5705 74.2378L78.0683 77.1488L81.6385 82.602Z" stroke="#00FFFF" stroke-width="0.371485" stroke-miterlimit="10" stroke-linecap="round" stroke-linejoin="round"/>
<path d="M81.6356 82.597H86.0519L90.8434 81.7099L79.5676 74.2329L90.8434 73.6692L80.4143 65.1031L79.1172 69.913L66.2264 71.3257L68.1994 66.4771L79.1172 69.913L79.5676 74.2329L70.4235 75.0642L73.837 78.5178L78.0654 77.1439" stroke="#00FFFF" stroke-width="0.371485" stroke-miterlimit="10" stroke-linecap="round" stroke-linejoin="round"/>
<path d="M59.6461 70.8464L47.1496 59.3715L62.6525 69.6345L62.0886 52.3408L53.6326 43.4512" stroke="#00FFFF" stroke-width="0.371485" stroke-miterlimit="10" stroke-linecap="round" stroke-linejoin="round"/>
<path d="M62.0951 52.3372L68.2022 66.4792L73.3702 44.8215L63.3164 30.2751L62.0951 52.3372Z" stroke="#00FFFF" stroke-width="0.371485" stroke-miterlimit="10" stroke-linecap="round" stroke-linejoin="round"/>
<path d="M73.3675 44.8211L90.8434 57.7513L80.4143 65.1049L73.3675 44.8211ZM73.3675 44.8211L78.0654 25.1031L90.8434 41.6695V93.3082L85.0179 92.0958L86.0519 99.6115L90.8434 93.3082V102.844L87.5547 101.47H84.0782L81.0367 103.009L63.7838 94.9244L51.9448 94.1163L57.2065 107.531L61.6228 117.794L70.4547 127.249L81.6356 133.795L90.8434 135.007V120.218L81.6356 133.795" stroke="#00FFFF" stroke-width="0.371485" stroke-miterlimit="10" stroke-linecap="round" stroke-linejoin="round"/>
<path d="M84.0777 101.465L86.0514 108.496L87.5543 101.465" stroke="#00FFFF" stroke-width="0.371485" stroke-miterlimit="10" stroke-linecap="round" stroke-linejoin="round"/>
<path d="M81.0397 103.009L77.5045 113.753L65.7598 107.208L81.0397 103.009Z" stroke="#00FFFF" stroke-width="0.371485" stroke-miterlimit="10" stroke-linecap="round" stroke-linejoin="round"/>
<path d="M63.7863 94.9261L65.7594 107.21L57.2091 107.533L63.7863 94.9261Z" stroke="#00FFFF" stroke-width="0.371485" stroke-miterlimit="10" stroke-linecap="round" stroke-linejoin="round"/>
<path d="M64.9101 84.3437L52.6959 79.9802L51.9442 94.1222L64.9101 84.3437ZM64.9101 84.3437L63.7831 94.9303L74.8697 84.9096L81.6349 99.2131L85.0172 92.1017L74.8697 84.9096" stroke="#00FFFF" stroke-width="0.371485" stroke-miterlimit="10" stroke-linecap="round" stroke-linejoin="round"/>
<path d="M52.6929 79.9802L62.6525 81.3542" stroke="#00FFFF" stroke-width="0.371485" stroke-miterlimit="10" stroke-linecap="round" stroke-linejoin="round"/>
<path d="M66.6023 78.5184L70.4235 75.0647L66.2264 71.3262L63.7838 76.3364L66.6023 78.5184ZM66.6023 78.5184L62.6562 81.347L63.7838 76.3364L56.9249 74.7202L59.6498 70.8412L62.6562 69.6293L66.2264 71.3262L56.9249 74.7202L52.6966 79.9731L47.1533 59.3663L53.6363 43.446L63.3136 30.2736L78.0654 25.1019L90.8434 24.051V41.6683L73.3675 44.8199L62.0923 52.3356L47.1533 59.3663" stroke="#00FFFF" stroke-width="0.371485" stroke-miterlimit="10" stroke-linecap="round" stroke-linejoin="round"/>
<path d="M81.6352 99.2034L84.1912 101.87L86.0514 99.6077L87.5543 101.87" stroke="#00FFFF" stroke-width="0.371485" stroke-miterlimit="10" stroke-linecap="round" stroke-linejoin="round"/>
<path d="M86.0519 108.508L90.8434 102.851V108.912V113.761L86.0519 108.508ZM86.0519 108.508L77.5015 113.761H90.8434V120.226L77.5015 113.761L80.6487 119.256L90.8434 120.226L70.4547 127.256L77.5015 113.761L61.6228 117.801L65.7569 107.215" stroke="#00FFFF" stroke-width="0.371485" stroke-miterlimit="10" stroke-linecap="round" stroke-linejoin="round"/>
<path d="M80.6466 119.253L70.4526 127.253" stroke="#00FFFF" stroke-width="0.371485" stroke-miterlimit="10" stroke-linecap="round" stroke-linejoin="round"/>
<path d="M81.61 99.2034L80.9385 103.005" stroke="#00FFFF" stroke-width="0.371485" stroke-miterlimit="10" stroke-linecap="round" stroke-linejoin="round"/>
<path d="M92.1608 135.008C92.1608 135.635 91.5702 136.143 90.842 136.143C90.1138 136.143 89.5232 135.635 89.5232 135.008C89.5232 134.382 90.1138 133.874 90.842 133.874C91.5702 133.875 92.1608 134.382 92.1608 135.008Z" fill="white"/>
<path d="M92.1608 120.387C92.1608 121.014 91.5702 121.521 90.842 121.521C90.1138 121.521 89.5232 121.014 89.5232 120.387C89.5232 119.76 90.1138 119.253 90.842 119.253C91.5702 119.253 92.1608 119.76 92.1608 120.387Z" fill="white"/>
<path d="M92.1608 113.76C92.1608 114.386 91.5702 114.894 90.842 114.894C90.1138 114.894 89.5232 114.386 89.5232 113.76C89.5232 113.133 90.1138 112.625 90.842 112.625C91.5702 112.625 92.1608 113.133 92.1608 113.76Z" fill="white"/>
<path d="M92.1608 102.845C92.1608 103.472 91.5702 103.98 90.842 103.98C90.1138 103.98 89.5232 103.472 89.5232 102.845C89.5232 102.219 90.1138 101.711 90.842 101.711C91.5702 101.711 92.1608 102.219 92.1608 102.845Z" fill="white"/>
<path d="M92.1608 93.2287C92.1608 93.8554 91.5702 94.3631 90.842 94.3631C90.1138 94.3631 89.5232 93.8554 89.5232 93.2287C89.5232 92.602 90.1138 92.0942 90.842 92.0942C91.5702 92.0942 92.1608 92.602 92.1608 93.2287Z" fill="white"/>
<path d="M92.1608 81.7144C92.1608 82.3411 91.5702 82.8488 90.842 82.8488C90.1138 82.8488 89.5232 82.3411 89.5232 81.7144C89.5232 81.0877 90.1138 80.58 90.842 80.58C91.5702 80.58 92.1608 81.0883 92.1608 81.7144Z" fill="white"/>
<path d="M92.1608 73.5531C92.1608 74.1793 91.5702 74.6876 90.842 74.6876C90.1138 74.6876 89.5232 74.1798 89.5232 73.5531C89.5232 72.9265 90.1138 72.4187 90.842 72.4187C91.5702 72.4187 92.1608 72.9265 92.1608 73.5531Z" fill="white"/>
<path d="M92.1608 57.7714C92.1608 58.3981 91.5702 58.9058 90.842 58.9058C90.1138 58.9058 89.5232 58.3981 89.5232 57.7714C89.5232 57.1447 90.1138 56.637 90.842 56.637C91.5702 56.6375 92.1608 57.1453 92.1608 57.7714Z" fill="white"/>
<path d="M92.1608 41.6554C92.1608 42.2821 91.5702 42.7899 90.842 42.7899C90.1138 42.7899 89.5232 42.2821 89.5232 41.6554C89.5232 41.0288 90.1138 40.521 90.842 40.521C91.5702 40.5215 92.1608 41.0293 92.1608 41.6554Z" fill="white"/>
<path d="M92.1608 24.0546C92.1608 24.6813 91.5702 25.189 90.842 25.189C90.1138 25.189 89.5232 24.6813 89.5232 24.0546C89.5232 23.4279 90.1138 22.9202 90.842 22.9202C91.5702 22.9207 92.1608 23.4285 92.1608 24.0546Z" fill="white"/>
<path d="M79.4518 25.1855C79.4518 25.8121 78.8612 26.3199 78.133 26.3199C77.4048 26.3199 76.8142 25.8121 76.8142 25.1855C76.8142 24.5588 77.4048 24.051 78.133 24.051C78.8612 24.051 79.4518 24.5593 79.4518 25.1855Z" fill="white"/>
<path d="M64.7272 30.2788C64.7272 30.905 64.1366 31.4133 63.4084 31.4133C62.6802 31.4133 62.0896 30.9055 62.0896 30.2788C62.0896 29.6522 62.6802 29.1444 63.4084 29.1444C64.1366 29.145 64.7272 29.6527 64.7272 30.2788Z" fill="white"/>
<path d="M63.4098 52.2946C63.4098 52.9213 62.8192 53.429 62.091 53.429C61.3628 53.429 60.7723 52.9213 60.7723 52.2946C60.7723 51.6679 61.3628 51.1602 62.091 51.1602C62.8192 51.1607 63.4098 51.6685 63.4098 52.2946Z" fill="white"/>
<path d="M54.9039 43.445C54.9039 44.0717 54.3133 44.5794 53.5852 44.5794C52.857 44.5794 52.2664 44.0717 52.2664 43.445C52.2664 42.8183 52.857 42.3105 53.5852 42.3105C54.3133 42.3111 54.9039 42.8189 54.9039 43.445Z" fill="white"/>
<path d="M48.4733 59.4037C48.4733 60.0304 47.8827 60.5382 47.1545 60.5382C46.4263 60.5382 45.8357 60.0304 45.8357 59.4037C45.8357 58.7776 46.4263 58.2693 47.1545 58.2693C47.8827 58.2693 48.4733 58.777 48.4733 59.4037Z" fill="white"/>
<path d="M81.8561 65.1067C81.8561 65.7334 81.2655 66.2412 80.5373 66.2412C79.8091 66.2412 79.2185 65.7334 79.2185 65.1067C79.2185 64.48 79.8091 63.9723 80.5373 63.9723C81.2655 63.9723 81.8561 64.48 81.8561 65.1067Z" fill="white"/>
<path d="M69.5402 66.4833C69.5402 67.11 68.9496 67.6177 68.2214 67.6177C67.4932 67.6177 66.9026 67.11 66.9026 66.4833C66.9026 65.8566 67.4932 65.3489 68.2214 65.3489C68.9502 65.3489 69.5402 65.8566 69.5402 66.4833Z" fill="white"/>
<path d="M63.9747 69.7085C63.9747 70.3352 63.3841 70.843 62.656 70.843C61.9278 70.843 61.3372 70.3352 61.3372 69.7085C61.3372 69.0819 61.9278 68.5741 62.656 68.5741C63.3841 68.5741 63.9747 69.0819 63.9747 69.7085Z" fill="white"/>
<path d="M60.9415 70.8393C60.9415 71.4659 60.351 71.9737 59.6228 71.9737C58.8946 71.9737 58.304 71.4659 58.304 70.8393C58.304 70.2126 58.8946 69.7048 59.6228 69.7048C60.351 69.7054 60.9415 70.2131 60.9415 70.8393Z" fill="white"/>
<path d="M78.9738 71.0297C78.2455 71.0297 77.6551 70.5218 77.6551 69.8953C77.6551 69.2688 78.2455 68.7609 78.9738 68.7609C79.7022 68.7609 80.2926 69.2688 80.2926 69.8953C80.2926 70.5218 79.7022 71.0297 78.9738 71.0297Z" fill="white"/>
<path d="M81.1725 74.2415C81.1725 74.8676 80.5819 75.3759 79.8537 75.3759C79.1255 75.3759 78.535 74.8682 78.535 74.2415C78.535 73.6148 79.1255 73.1071 79.8537 73.1071C80.5819 73.1076 81.1725 73.6154 81.1725 74.2415Z" fill="white"/>
<path d="M66.2253 72.4162C65.497 72.4162 64.9065 71.9083 64.9065 71.2818C64.9065 70.6552 65.497 70.1473 66.2253 70.1473C66.9536 70.1473 67.5441 70.6552 67.5441 71.2818C67.5441 71.9083 66.9536 72.4162 66.2253 72.4162Z" fill="white"/>
<path d="M58.6207 74.684C58.6207 75.3107 58.0302 75.8184 57.302 75.8184C56.5738 75.8184 55.9832 75.3107 55.9832 74.684C55.9832 74.0573 56.5738 73.5496 57.302 73.5496C58.0302 73.5496 58.6207 74.0573 58.6207 74.684Z" fill="white"/>
<path d="M54.0192 79.974C54.0192 80.6007 53.4286 81.1085 52.7004 81.1085C51.9722 81.1085 51.3816 80.6007 51.3816 79.974C51.3816 79.3474 51.9722 78.8396 52.7004 78.8396C53.4286 78.8396 54.0192 79.3474 54.0192 79.974Z" fill="white"/>
<path d="M65.0568 76.3457C65.0568 76.9724 64.4662 77.4802 63.738 77.4802C63.0098 77.4802 62.4192 76.9724 62.4192 76.3457C62.4192 75.7191 63.0098 75.2113 63.738 75.2113C64.4662 75.2119 65.0568 75.7196 65.0568 76.3457Z" fill="white"/>
<path d="M63.9747 81.3506C63.9747 81.9767 63.3841 82.4851 62.656 82.4851C61.9278 82.4851 61.3372 81.9773 61.3372 81.3506C61.3372 80.7239 61.9278 80.2162 62.656 80.2162C63.3841 80.2162 63.9747 80.7239 63.9747 81.3506Z" fill="white"/>
<path d="M66.2267 84.2907C66.2267 84.9174 65.6361 85.4251 64.9079 85.4251C64.1797 85.4251 63.5892 84.9174 63.5892 84.2907C63.5892 83.664 64.1797 83.1562 64.9079 83.1562C65.6361 83.1562 66.2267 83.6646 66.2267 84.2907Z" fill="white"/>
<path d="M68.0114 78.5187C68.0114 79.1454 67.4208 79.6531 66.6926 79.6531C65.9644 79.6531 65.3738 79.1454 65.3738 78.5187C65.3738 77.8926 65.9644 77.3843 66.6926 77.3843C67.4208 77.3843 68.0114 77.8926 68.0114 78.5187Z" fill="white"/>
<path d="M71.8361 75.2149C71.8361 75.8416 71.2455 76.3493 70.5173 76.3493C69.7891 76.3493 69.1985 75.8416 69.1985 75.2149C69.1985 74.5882 69.7891 74.0804 70.5173 74.0804C71.2455 74.0804 71.8361 74.5882 71.8361 75.2149Z" fill="white"/>
<path d="M75.1945 78.5187C75.1945 79.1454 74.6039 79.6531 73.8757 79.6531C73.1475 79.6531 72.5569 79.1454 72.5569 78.5187C72.5569 77.8926 73.1475 77.3843 73.8757 77.3843C74.6039 77.3843 75.1945 77.8926 75.1945 78.5187Z" fill="white"/>
<path d="M79.3829 77.1421C79.3829 77.7688 78.7924 78.2766 78.0642 78.2766C77.336 78.2766 76.7454 77.7688 76.7454 77.1421C76.7454 76.5154 77.336 76.0077 78.0642 76.0077C78.7924 76.0077 79.3829 76.5154 79.3829 77.1421Z" fill="white"/>
<path d="M82.9279 82.5994C82.9279 83.2261 82.3373 83.7338 81.6091 83.7338C80.8809 83.7338 80.2903 83.2261 80.2903 82.5994C80.2903 81.9727 80.8809 81.465 81.6091 81.465C82.3379 81.4655 82.9279 81.9733 82.9279 82.5994Z" fill="white"/>
<path d="M87.3722 82.5994C87.3722 83.2261 86.7816 83.7338 86.0534 83.7338C85.3252 83.7338 84.7347 83.2261 84.7347 82.5994C84.7347 81.9727 85.3252 81.465 86.0534 81.465C86.7816 81.4655 87.3722 81.9733 87.3722 82.5994Z" fill="white"/>
<path d="M86.34 91.9701C86.34 92.5968 85.7494 93.1046 85.0212 93.1046C84.293 93.1046 83.7024 92.5968 83.7024 91.9701C83.7024 91.344 84.293 90.8357 85.0212 90.8357C85.7494 90.8357 86.34 91.3435 86.34 91.9701Z" fill="white"/>
<path d="M76.2316 84.9101C76.2316 85.5368 75.641 86.0445 74.9128 86.0445C74.1846 86.0445 73.594 85.5368 73.594 84.9101C73.594 84.2834 74.1846 83.7756 74.9128 83.7756C75.641 83.7756 76.2316 84.284 76.2316 84.9101Z" fill="white"/>
<path d="M82.9279 99.2071C82.9279 99.8338 82.3373 100.342 81.6091 100.342C80.8809 100.342 80.2903 99.8338 80.2903 99.2071C80.2903 98.5804 80.8809 98.0726 81.6091 98.0726C82.3379 98.0732 82.9279 98.5809 82.9279 99.2071Z" fill="white"/>
<path d="M87.3722 99.5414C87.3722 100.168 86.7816 100.676 86.0534 100.676C85.3252 100.676 84.7347 100.168 84.7347 99.5414C84.7347 98.9147 85.3252 98.407 86.0534 98.407C86.7816 98.407 87.3722 98.9147 87.3722 99.5414Z" fill="white"/>
<path d="M88.8766 101.872C88.8766 102.498 88.286 103.006 87.5578 103.006C86.8296 103.006 86.2391 102.498 86.2391 101.872C86.2391 101.245 86.8296 100.737 87.5578 100.737C88.286 100.737 88.8766 101.245 88.8766 101.872Z" fill="white"/>
<path d="M85.3956 101.872C85.3956 102.498 84.805 103.006 84.0769 103.006C83.3487 103.006 82.7581 102.498 82.7581 101.872C82.7581 101.245 83.3487 100.737 84.0769 100.737C84.8057 100.737 85.3956 101.245 85.3956 101.872Z" fill="white"/>
<path d="M87.3722 108.509C87.3722 109.135 86.7816 109.643 86.0534 109.643C85.3252 109.643 84.7347 109.136 84.7347 108.509C84.7347 107.882 85.3252 107.375 86.0534 107.375C86.7816 107.375 87.3722 107.883 87.3722 108.509Z" fill="white"/>
<path d="M77.5529 114.894C76.8246 114.894 76.2342 114.386 76.2342 113.76C76.2342 113.133 76.8246 112.625 77.5529 112.625C78.2813 112.625 78.8717 113.133 78.8717 113.76C78.8717 114.386 78.2813 114.894 77.5529 114.894Z" fill="white"/>
<path d="M80.739 120.381C80.0106 120.381 79.4202 119.873 79.4202 119.246C79.4202 118.62 80.0106 118.112 80.739 118.112C81.4673 118.112 82.0577 118.62 82.0577 119.246C82.0577 119.873 81.4673 120.381 80.739 120.381Z" fill="white"/>
<path d="M65.7585 108.306C65.0302 108.306 64.4397 107.798 64.4397 107.172C64.4397 106.545 65.0302 106.037 65.7585 106.037C66.4868 106.037 67.0773 106.545 67.0773 107.172C67.0773 107.798 66.4868 108.306 65.7585 108.306Z" fill="white"/>
<path d="M82.2589 103.002C82.2589 103.629 81.6683 104.137 80.9401 104.137C80.212 104.137 79.6214 103.629 79.6214 103.002C79.6214 102.376 80.212 101.868 80.9401 101.868C81.6683 101.868 82.2589 102.376 82.2589 103.002Z" fill="white"/>
<path d="M65.0568 94.9297C65.0568 95.5564 64.4662 96.0642 63.738 96.0642C63.0098 96.0642 62.4192 95.5564 62.4192 94.9297C62.4192 94.303 63.0098 93.7953 63.738 93.7953C64.4662 93.7953 65.0568 94.303 65.0568 94.9297Z" fill="white"/>
<path d="M53.2618 94.1234C53.2618 94.7501 52.6713 95.2579 51.9431 95.2579C51.2149 95.2579 50.6243 94.7501 50.6243 94.1234C50.6243 93.4968 51.2149 92.989 51.9431 92.989C52.6713 92.989 53.2618 93.4968 53.2618 94.1234Z" fill="white"/>
<path d="M58.5226 107.526C58.5226 108.152 57.932 108.66 57.2038 108.66C56.4756 108.66 55.885 108.152 55.885 107.526C55.885 106.9 56.4756 106.391 57.2038 106.391C57.932 106.391 58.5226 106.9 58.5226 107.526Z" fill="white"/>
<path d="M74.6876 44.8708C74.6876 45.4974 74.097 46.0052 73.3689 46.0052C72.6407 46.0052 72.0501 45.4974 72.0501 44.8708C72.0501 44.2446 72.6407 43.7363 73.3689 43.7363C74.097 43.7363 74.6876 44.2441 74.6876 44.8708Z" fill="white"/>
<path d="M83.38 133.868C83.38 134.495 82.7894 135.002 82.0612 135.002C81.333 135.002 80.7425 134.495 80.7425 133.868C80.7425 133.241 81.333 132.733 82.0612 132.733C82.7894 132.733 83.38 133.241 83.38 133.868Z" fill="white"/>
<path d="M71.7726 127.241C71.7726 127.867 71.182 128.375 70.4538 128.375C69.7256 128.375 69.135 127.867 69.135 127.241C69.135 126.614 69.7256 126.106 70.4538 126.106C71.182 126.107 71.7726 126.614 71.7726 127.241Z" fill="white"/>
<path d="M62.9425 117.673C62.9425 118.3 62.3519 118.808 61.6237 118.808C60.8956 118.808 60.305 118.3 60.305 117.673C60.305 117.046 60.8956 116.539 61.6237 116.539C62.3519 116.539 62.9425 117.046 62.9425 117.673Z" fill="white"/>
<path d="M119.41 81.3535L115.464 78.5249H108.229L100.43 82.6041L107.196 84.909L117.155 84.3431L119.41 81.3535Z" stroke="#00FFFF" stroke-width="0.371485" stroke-miterlimit="10" stroke-linecap="round" stroke-linejoin="round"/>
<path d="M100.427 82.602L97.0444 92.099L96.0104 82.602L102.495 74.2378L103.997 77.1488L100.427 82.602Z" stroke="#00FFFF" stroke-width="0.371485" stroke-miterlimit="10" stroke-linecap="round" stroke-linejoin="round"/>
<path d="M100.425 82.597H96.0084L91.2169 81.7099L102.493 74.2329L91.2169 73.6692L101.646 65.1031L102.943 69.913L115.834 71.3257L113.861 66.4771L102.943 69.913L102.493 74.2329L111.637 75.0642L108.223 78.5178L103.995 77.1439" stroke="#00FFFF" stroke-width="0.371485" stroke-miterlimit="10" stroke-linecap="round" stroke-linejoin="round"/>
<path d="M122.414 70.8464L134.911 59.3715L119.408 69.6345L119.972 52.3408L128.428 43.4512" stroke="#00FFFF" stroke-width="0.371485" stroke-miterlimit="10" stroke-linecap="round" stroke-linejoin="round"/>
<path d="M119.97 52.3372L113.863 66.4792L108.695 44.8215L118.749 30.2751L119.97 52.3372Z" stroke="#00FFFF" stroke-width="0.371485" stroke-miterlimit="10" stroke-linecap="round" stroke-linejoin="round"/>
<path d="M108.693 44.8211L91.2169 57.7513L101.646 65.1049L108.693 44.8211ZM108.693 44.8211L103.995 25.1031L91.2169 41.6695V93.3082L97.0424 92.0958L96.0084 99.6115L91.2169 93.3082V102.844L94.5056 101.47H97.9821L101.024 103.009L118.276 94.9244L130.115 94.1163L124.854 107.531L120.437 117.794L111.606 127.249L100.425 133.795L91.2169 135.007V120.218L100.425 133.795" stroke="#00FFFF" stroke-width="0.371485" stroke-miterlimit="10" stroke-linecap="round" stroke-linejoin="round"/>
<path d="M97.9826 101.465L96.0089 108.496L94.506 101.465" stroke="#00FFFF" stroke-width="0.371485" stroke-miterlimit="10" stroke-linecap="round" stroke-linejoin="round"/>
<path d="M101.026 103.009L104.561 113.753L116.305 107.208L101.026 103.009Z" stroke="#00FFFF" stroke-width="0.371485" stroke-miterlimit="10" stroke-linecap="round" stroke-linejoin="round"/>
<path d="M118.279 94.9261L116.306 107.21L124.856 107.533L118.279 94.9261Z" stroke="#00FFFF" stroke-width="0.371485" stroke-miterlimit="10" stroke-linecap="round" stroke-linejoin="round"/>
<path d="M117.15 84.3437L129.364 79.9802L130.116 94.1222L117.15 84.3437ZM117.15 84.3437L118.277 94.9303L107.191 84.9096L100.425 99.2131L97.0431 92.1017L107.191 84.9096" stroke="#00FFFF" stroke-width="0.371485" stroke-miterlimit="10" stroke-linecap="round" stroke-linejoin="round"/>
<path d="M129.367 79.9802L119.408 81.3542" stroke="#00FFFF" stroke-width="0.371485" stroke-miterlimit="10" stroke-linecap="round" stroke-linejoin="round"/>
<path d="M115.458 78.5184L111.637 75.0647L115.834 71.3262L118.276 76.3364L115.458 78.5184ZM115.458 78.5184L119.404 81.347L118.276 76.3364L125.135 74.7202L122.411 70.8412L119.404 69.6293L115.834 71.3262L125.135 74.7202L129.364 79.9731L134.907 59.3663L128.424 43.446L118.747 30.2736L103.995 25.1019L91.2169 24.051V41.6683L108.693 44.8199L119.968 52.3356L134.907 59.3663" stroke="#00FFFF" stroke-width="0.371485" stroke-miterlimit="10" stroke-linecap="round" stroke-linejoin="round"/>
<path d="M100.425 99.2034L97.8692 101.87L96.0089 99.6077L94.506 101.87" stroke="#00FFFF" stroke-width="0.371485" stroke-miterlimit="10" stroke-linecap="round" stroke-linejoin="round"/>
<path d="M96.0084 108.508L91.2169 102.851V108.912V113.761L96.0084 108.508ZM96.0084 108.508L104.559 113.761H91.2169V120.226L104.559 113.761L101.412 119.256L91.2169 120.226L111.606 127.256L104.559 113.761L120.437 117.801L116.303 107.215" stroke="#00FFFF" stroke-width="0.371485" stroke-miterlimit="10" stroke-linecap="round" stroke-linejoin="round"/>
<path d="M101.414 119.253L111.608 127.253" stroke="#00FFFF" stroke-width="0.371485" stroke-miterlimit="10" stroke-linecap="round" stroke-linejoin="round"/>
<path d="M100.45 99.2034L101.122 103.005" stroke="#00FFFF" stroke-width="0.371485" stroke-miterlimit="10" stroke-linecap="round" stroke-linejoin="round"/>
<path d="M89.8995 135.008C89.8995 135.635 90.4901 136.143 91.2183 136.143C91.9465 136.143 92.5371 135.635 92.5371 135.008C92.5371 134.382 91.9465 133.874 91.2183 133.874C90.4901 133.875 89.8995 134.382 89.8995 135.008Z" fill="white"/>
<path d="M89.8995 120.387C89.8995 121.014 90.4901 121.521 91.2183 121.521C91.9465 121.521 92.5371 121.014 92.5371 120.387C92.5371 119.76 91.9465 119.253 91.2183 119.253C90.4901 119.253 89.8995 119.76 89.8995 120.387Z" fill="white"/>
<path d="M89.8995 113.76C89.8995 114.386 90.4901 114.894 91.2183 114.894C91.9465 114.894 92.5371 114.386 92.5371 113.76C92.5371 113.133 91.9465 112.625 91.2183 112.625C90.4901 112.625 89.8995 113.133 89.8995 113.76Z" fill="white"/>
<path d="M89.8995 102.845C89.8995 103.472 90.4901 103.98 91.2183 103.98C91.9465 103.98 92.5371 103.472 92.5371 102.845C92.5371 102.219 91.9465 101.711 91.2183 101.711C90.4901 101.711 89.8995 102.219 89.8995 102.845Z" fill="white"/>
<path d="M89.8995 93.2287C89.8995 93.8554 90.4901 94.3631 91.2183 94.3631C91.9465 94.3631 92.5371 93.8554 92.5371 93.2287C92.5371 92.602 91.9465 92.0942 91.2183 92.0942C90.4901 92.0942 89.8995 92.602 89.8995 93.2287Z" fill="white"/>
<path d="M89.8995 81.7144C89.8995 82.3411 90.4901 82.8488 91.2183 82.8488C91.9465 82.8488 92.5371 82.3411 92.5371 81.7144C92.5371 81.0877 91.9465 80.58 91.2183 80.58C90.4901 80.58 89.8995 81.0883 89.8995 81.7144Z" fill="white"/>
<path d="M89.8995 73.5531C89.8995 74.1793 90.4901 74.6876 91.2183 74.6876C91.9465 74.6876 92.5371 74.1798 92.5371 73.5531C92.5371 72.9265 91.9465 72.4187 91.2183 72.4187C90.4901 72.4187 89.8995 72.9265 89.8995 73.5531Z" fill="white"/>
<path d="M89.8995 57.7714C89.8995 58.3981 90.4901 58.9058 91.2183 58.9058C91.9465 58.9058 92.5371 58.3981 92.5371 57.7714C92.5371 57.1447 91.9465 56.637 91.2183 56.637C90.4901 56.6375 89.8995 57.1453 89.8995 57.7714Z" fill="white"/>
<path d="M89.8995 41.6554C89.8995 42.2821 90.4901 42.7899 91.2183 42.7899C91.9465 42.7899 92.5371 42.2821 92.5371 41.6554C92.5371 41.0288 91.9465 40.521 91.2183 40.521C90.4901 40.5215 89.8995 41.0293 89.8995 41.6554Z" fill="white"/>
<path d="M89.8995 24.0546C89.8995 24.6813 90.4901 25.189 91.2183 25.189C91.9465 25.189 92.5371 24.6813 92.5371 24.0546C92.5371 23.4279 91.9465 22.9202 91.2183 22.9202C90.4901 22.9207 89.8995 23.4285 89.8995 24.0546Z" fill="white"/>
<path d="M102.613 25.1855C102.613 25.8121 103.204 26.3199 103.932 26.3199C104.66 26.3199 105.251 25.8121 105.251 25.1855C105.251 24.5588 104.66 24.051 103.932 24.051C103.204 24.051 102.613 24.5593 102.613 25.1855Z" fill="white"/>
<path d="M117.333 30.2788C117.333 30.905 117.924 31.4133 118.652 31.4133C119.38 31.4133 119.971 30.9055 119.971 30.2788C119.971 29.6522 119.38 29.1444 118.652 29.1444C117.924 29.145 117.333 29.6527 117.333 30.2788Z" fill="white"/>
<path d="M118.651 52.2946C118.651 52.9213 119.241 53.429 119.969 53.429C120.697 53.429 121.288 52.9213 121.288 52.2946C121.288 51.6679 120.697 51.1602 119.969 51.1602C119.241 51.1607 118.651 51.6685 118.651 52.2946Z" fill="white"/>
<path d="M127.156 43.445C127.156 44.0717 127.746 44.5794 128.475 44.5794C129.203 44.5794 129.793 44.0717 129.793 43.445C129.793 42.8183 129.203 42.3105 128.475 42.3105C127.746 42.3111 127.156 42.8189 127.156 43.445Z" fill="white"/>
<path d="M133.587 59.4037C133.587 60.0304 134.178 60.5382 134.906 60.5382C135.634 60.5382 136.225 60.0304 136.225 59.4037C136.225 58.7776 135.634 58.2693 134.906 58.2693C134.178 58.2693 133.587 58.777 133.587 59.4037Z" fill="white"/>
<path d="M100.204 65.1067C100.204 65.7334 100.795 66.2412 101.523 66.2412C102.251 66.2412 102.842 65.7334 102.842 65.1067C102.842 64.48 102.251 63.9723 101.523 63.9723C100.795 63.9723 100.204 64.48 100.204 65.1067Z" fill="white"/>
<path d="M112.525 66.4833C112.525 67.11 113.116 67.6177 113.844 67.6177C114.572 67.6177 115.163 67.11 115.163 66.4833C115.163 65.8566 114.572 65.3489 113.844 65.3489C113.115 65.3489 112.525 65.8566 112.525 66.4833Z" fill="white"/>
<path d="M118.09 69.7085C118.09 70.3352 118.681 70.843 119.409 70.843C120.137 70.843 120.728 70.3352 120.728 69.7085C120.728 69.0819 120.137 68.5741 119.409 68.5741C118.681 68.5741 118.09 69.0819 118.09 69.7085Z" fill="white"/>
<path d="M121.119 70.8393C121.119 71.4659 121.709 71.9737 122.438 71.9737C123.166 71.9737 123.756 71.4659 123.756 70.8393C123.756 70.2126 123.166 69.7048 122.438 69.7048C121.709 69.7054 121.119 70.2131 121.119 70.8393Z" fill="white"/>
<path d="M103.086 71.0297C103.815 71.0297 104.405 70.5218 104.405 69.8953C104.405 69.2688 103.815 68.7609 103.086 68.7609C102.358 68.7609 101.768 69.2688 101.768 69.8953C101.768 70.5218 102.358 71.0297 103.086 71.0297Z" fill="white"/>
<path d="M100.893 74.2415C100.893 74.8676 101.483 75.3759 102.211 75.3759C102.94 75.3759 103.53 74.8682 103.53 74.2415C103.53 73.6148 102.94 73.1071 102.211 73.1071C101.483 73.1076 100.893 73.6154 100.893 74.2415Z" fill="white"/>
<path d="M115.84 72.4162C116.568 72.4162 117.159 71.9083 117.159 71.2818C117.159 70.6552 116.568 70.1473 115.84 70.1473C115.112 70.1473 114.521 70.6552 114.521 71.2818C114.521 71.9083 115.112 72.4162 115.84 72.4162Z" fill="white"/>
<path d="M123.444 74.684C123.444 75.3107 124.035 75.8184 124.763 75.8184C125.491 75.8184 126.082 75.3107 126.082 74.684C126.082 74.0573 125.491 73.5496 124.763 73.5496C124.035 73.5496 123.444 74.0573 123.444 74.684Z" fill="white"/>
<path d="M128.046 79.974C128.046 80.6007 128.637 81.1085 129.365 81.1085C130.093 81.1085 130.684 80.6007 130.684 79.974C130.684 79.3474 130.093 78.8396 129.365 78.8396C128.637 78.8396 128.046 79.3474 128.046 79.974Z" fill="white"/>
<path d="M117.008 76.3457C117.008 76.9724 117.599 77.4802 118.327 77.4802C119.055 77.4802 119.646 76.9724 119.646 76.3457C119.646 75.7191 119.055 75.2113 118.327 75.2113C117.599 75.2119 117.008 75.7196 117.008 76.3457Z" fill="white"/>
<path d="M118.09 81.3506C118.09 81.9767 118.681 82.4851 119.409 82.4851C120.137 82.4851 120.728 81.9773 120.728 81.3506C120.728 80.7239 120.137 80.2162 119.409 80.2162C118.681 80.2162 118.09 80.7239 118.09 81.3506Z" fill="white"/>
<path d="M115.839 84.2907C115.839 84.9174 116.429 85.4251 117.157 85.4251C117.885 85.4251 118.476 84.9174 118.476 84.2907C118.476 83.664 117.885 83.1562 117.157 83.1562C116.429 83.1562 115.839 83.6646 115.839 84.2907Z" fill="white"/>
<path d="M114.049 78.5187C114.049 79.1454 114.64 79.6531 115.368 79.6531C116.096 79.6531 116.686 79.1454 116.686 78.5187C116.686 77.8926 116.096 77.3843 115.368 77.3843C114.64 77.3843 114.049 77.8926 114.049 78.5187Z" fill="white"/>
<path d="M110.224 75.2149C110.224 75.8416 110.814 76.3493 111.543 76.3493C112.271 76.3493 112.861 75.8416 112.861 75.2149C112.861 74.5882 112.271 74.0804 111.543 74.0804C110.814 74.0804 110.224 74.5882 110.224 75.2149Z" fill="white"/>
<path d="M106.871 78.5187C106.871 79.1454 107.461 79.6531 108.189 79.6531C108.918 79.6531 109.508 79.1454 109.508 78.5187C109.508 77.8926 108.918 77.3843 108.189 77.3843C107.461 77.3843 106.871 77.8926 106.871 78.5187Z" fill="white"/>
<path d="M102.677 77.1421C102.677 77.7688 103.268 78.2766 103.996 78.2766C104.724 78.2766 105.315 77.7688 105.315 77.1421C105.315 76.5154 104.724 76.0077 103.996 76.0077C103.268 76.0077 102.677 76.5154 102.677 77.1421Z" fill="white"/>
<path d="M99.1324 82.5994C99.1324 83.2261 99.723 83.7338 100.451 83.7338C101.179 83.7338 101.77 83.2261 101.77 82.5994C101.77 81.9727 101.179 81.465 100.451 81.465C99.7224 81.4655 99.1324 81.9733 99.1324 82.5994Z" fill="white"/>
<path d="M94.6881 82.5994C94.6881 83.2261 95.2787 83.7338 96.0069 83.7338C96.7351 83.7338 97.3256 83.2261 97.3256 82.5994C97.3256 81.9727 96.7351 81.465 96.0069 81.465C95.2787 81.4655 94.6881 81.9733 94.6881 82.5994Z" fill="white"/>
<path d="M95.7252 91.9701C95.7252 92.5968 96.3158 93.1046 97.044 93.1046C97.7722 93.1046 98.3628 92.5968 98.3628 91.9701C98.3628 91.344 97.7722 90.8357 97.044 90.8357C96.3158 90.8357 95.7252 91.3435 95.7252 91.9701Z" fill="white"/>
<path d="M105.829 84.9101C105.829 85.5368 106.419 86.0445 107.148 86.0445C107.876 86.0445 108.466 85.5368 108.466 84.9101C108.466 84.2834 107.876 83.7756 107.148 83.7756C106.419 83.7756 105.829 84.284 105.829 84.9101Z" fill="white"/>
<path d="M99.1324 99.2071C99.1324 99.8338 99.723 100.342 100.451 100.342C101.179 100.342 101.77 99.8338 101.77 99.2071C101.77 98.5804 101.179 98.0726 100.451 98.0726C99.7224 98.0732 99.1324 98.5809 99.1324 99.2071Z" fill="white"/>
<path d="M94.6881 99.5414C94.6881 100.168 95.2787 100.676 96.0069 100.676C96.7351 100.676 97.3256 100.168 97.3256 99.5414C97.3256 98.9147 96.7351 98.407 96.0069 98.407C95.2787 98.407 94.6881 98.9147 94.6881 99.5414Z" fill="white"/>
<path d="M93.1886 101.872C93.1886 102.498 93.7792 103.006 94.5074 103.006C95.2356 103.006 95.8261 102.498 95.8261 101.872C95.8261 101.245 95.2356 100.737 94.5074 100.737C93.7792 100.737 93.1886 101.245 93.1886 101.872Z" fill="white"/>
<path d="M96.6647 101.872C96.6647 102.498 97.2553 103.006 97.9834 103.006C98.7116 103.006 99.3022 102.498 99.3022 101.872C99.3022 101.245 98.7116 100.737 97.9834 100.737C97.2546 100.737 96.6647 101.245 96.6647 101.872Z" fill="white"/>
<path d="M94.6881 108.509C94.6881 109.135 95.2787 109.643 96.0069 109.643C96.7351 109.643 97.3256 109.136 97.3256 108.509C97.3256 107.882 96.7351 107.375 96.0069 107.375C95.2787 107.375 94.6881 107.883 94.6881 108.509Z" fill="white"/>
<path d="M104.512 114.894C105.241 114.894 105.831 114.386 105.831 113.76C105.831 113.133 105.241 112.625 104.512 112.625C103.784 112.625 103.193 113.133 103.193 113.76C103.193 114.386 103.784 114.894 104.512 114.894Z" fill="white"/>
<path d="M101.321 120.381C102.05 120.381 102.64 119.873 102.64 119.246C102.64 118.62 102.05 118.112 101.321 118.112C100.593 118.112 100.003 118.62 100.003 119.246C100.003 119.873 100.593 120.381 101.321 120.381Z" fill="white"/>
<path d="M116.302 108.306C117.03 108.306 117.621 107.798 117.621 107.172C117.621 106.545 117.03 106.037 116.302 106.037C115.573 106.037 114.983 106.545 114.983 107.172C114.983 107.798 115.573 108.306 116.302 108.306Z" fill="white"/>
<path d="M99.8014 103.002C99.8014 103.629 100.392 104.137 101.12 104.137C101.848 104.137 102.439 103.629 102.439 103.002C102.439 102.376 101.848 101.868 101.12 101.868C100.392 101.868 99.8014 102.376 99.8014 103.002Z" fill="white"/>
<path d="M117.008 94.9297C117.008 95.5564 117.599 96.0642 118.327 96.0642C119.055 96.0642 119.646 95.5564 119.646 94.9297C119.646 94.303 119.055 93.7953 118.327 93.7953C117.599 93.7953 117.008 94.303 117.008 94.9297Z" fill="white"/>
<path d="M128.798 94.1234C128.798 94.7501 129.389 95.2579 130.117 95.2579C130.845 95.2579 131.436 94.7501 131.436 94.1234C131.436 93.4968 130.845 92.989 130.117 92.989C129.389 92.989 128.798 93.4968 128.798 94.1234Z" fill="white"/>
<path d="M123.538 107.526C123.538 108.152 124.128 108.66 124.856 108.66C125.585 108.66 126.175 108.152 126.175 107.526C126.175 106.9 125.585 106.391 124.856 106.391C124.128 106.391 123.538 106.9 123.538 107.526Z" fill="white"/>
<path d="M107.378 44.8708C107.378 45.4974 107.968 46.0052 108.696 46.0052C109.425 46.0052 110.015 45.4974 110.015 44.8708C110.015 44.2446 109.425 43.7363 108.696 43.7363C107.968 43.7363 107.378 44.2441 107.378 44.8708Z" fill="white"/>
<path d="M98.6852 133.868C98.6852 134.495 99.2758 135.002 100.004 135.002C100.732 135.002 101.323 134.495 101.323 133.868C101.323 133.241 100.732 132.733 100.004 132.733C99.2758 132.733 98.6852 133.241 98.6852 133.868Z" fill="white"/>
<path d="M110.293 127.241C110.293 127.867 110.883 128.375 111.611 128.375C112.34 128.375 112.93 127.867 112.93 127.241C112.93 126.614 112.34 126.106 111.611 126.106C110.883 126.107 110.293 126.614 110.293 127.241Z" fill="white"/>
<path d="M119.118 117.673C119.118 118.3 119.708 118.808 120.437 118.808C121.165 118.808 121.755 118.3 121.755 117.673C121.755 117.046 121.165 116.539 120.437 116.539C119.708 116.539 119.118 117.046 119.118 117.673Z" fill="white"/>
</svg>
