<svg width="326" height="245" viewBox="0 0 326 245" fill="none" xmlns="http://www.w3.org/2000/svg">
<path d="M274.891 90.1896L268.994 94.4173L272.699 102.13L291.249 115.153L303.602 133.257L323.031 145.278L329.955 119.946L328.717 110.569L310.06 94.69L274.891 90.1896Z" fill="#1D252E"/>
<path d="M256.208 109.763L256.872 116.937L285.908 148.288L301.759 153.646L303.6 133.257L295.44 119.9L279.752 108.862L256.208 109.763Z" fill="#CFCFCF"/>
<path d="M279.516 157.111C282.468 155.943 285.871 154.789 288.694 156.24C289.265 156.534 289.795 156.937 290.145 157.476C290.547 158.094 290.688 158.855 290.648 159.59C290.497 162.35 288.066 164.378 285.742 165.873C283.257 167.473 280.651 168.886 277.955 170.098C276.182 170.895 274.224 169.428 274.47 167.5C274.767 165.17 275.324 162.417 275.927 160.941C276.55 159.418 277.986 157.716 279.516 157.111Z" fill="#E0A570"/>
<path d="M330.827 55.9378C302.866 77.8566 275.556 100.604 248.942 124.141C237.782 125.72 226.666 128.936 216.102 132.867C212.762 134.11 209.388 135.514 206.758 137.919C201.805 142.449 200.392 149.591 196.965 155.361C199.535 154.821 201.987 156.326 204.456 157.222C207.24 158.232 210.023 159.241 212.806 160.251C212.824 160.154 213.331 160.847 213.349 160.75C210.912 178.81 202.77 196.695 190.813 210.448C189.206 212.297 187.426 214.328 187.42 216.778C187.411 220.71 192.269 223.151 196.09 222.224C199.91 221.296 202.77 218.213 205.388 215.28C207.472 216.753 210.085 217.938 212.569 218.519C216.725 219.49 221.396 217.588 223.69 213.989C225.423 216.387 229.011 218.183 231.957 217.902C234.834 217.628 237.061 215.361 239.018 213.234C239.049 212.66 240.014 212.813 240.569 212.963C242.569 213.505 244.864 213.777 246.578 212.614C248.797 211.108 249.163 207.806 251.323 206.218C268.452 193.622 277.193 173.08 285.416 153.473C324.449 130.952 362.785 103.575 397.368 74.6817C393.991 68.916 391.16 62.8009 386.693 57.8319C383.838 54.6566 380.698 51.6097 376.839 49.7818C372.207 47.5879 366.931 47.3212 361.812 47.092C355.031 46.7884 348.098 46.5025 341.596 48.4499C336.757 49.8997 334.803 52.8206 330.827 55.9378Z" fill="#FFBC80"/>
<path opacity="0.05" d="M397.369 74.6772C393.992 68.9114 391.162 62.7963 386.694 57.8274C386.539 57.6547 386.382 57.482 386.225 57.3101C356.661 83.4856 326.753 109.274 296.508 134.66C293.5 137.185 289.448 139.85 285.965 138.035C286.596 139.864 287.227 141.693 287.858 143.522C285.287 143.314 282.949 143.194 280.711 141.912C281.97 148.416 280.971 155.196 278.888 161.485C276.805 167.774 273.67 173.654 270.551 179.499L269.051 185.511C269.214 185.685 269.382 185.849 269.551 186.013C275.953 175.936 280.768 164.553 285.418 153.468C324.45 130.948 362.786 103.57 397.369 74.6772Z" fill="black"/>
<path d="M263.204 187.362C263.427 185.65 262.533 183.844 261.036 182.984C259.539 182.124 257.53 182.26 256.164 183.315C257.745 183.056 259.323 183.505 260.678 184.361C261.252 184.723 261.767 185.171 262.277 185.618C262.767 186.048 263.317 186.721 263.204 187.362Z" fill="#F0B179"/>
<path opacity="0.1" d="M274.068 178.254C273.553 178.203 273.048 178.202 272.565 178.275C270.528 178.582 268.459 178.899 266.588 179.76C264.716 180.621 263.034 182.115 262.435 184.086C261.739 184.011 260.604 184.407 260.039 184.822C257.575 186.636 255.644 189.166 254.545 192.021C252.87 192.563 251.418 194.329 250.578 195.877C249.116 198.573 248.056 201.622 248.414 204.668C248.56 205.908 248.994 207.136 249.654 208.205C250.104 207.442 250.618 206.737 251.325 206.217C261.187 198.966 268.265 189.079 274.068 178.254Z" fill="black"/>
<path d="M262.778 195.381C263.509 197.183 263.484 199.34 262.463 200.995C261.61 202.377 260.154 203.303 258.617 203.826C257.08 204.35 255.447 204.513 253.831 204.673C253.351 204.72 252.852 204.765 252.399 204.599C251.487 204.265 251.074 203.206 250.949 202.242C250.628 199.748 251.546 197.19 253.123 195.231C254.248 193.835 256.595 191.505 258.481 191.272C260.357 191.041 262.169 193.876 262.778 195.381Z" fill="#B8875B"/>
<path d="M261.271 202.363C261.121 202.076 260.952 201.8 260.736 201.558C259.937 200.663 258.714 200.3 257.551 200.009C256.742 199.806 255.905 199.509 255.09 199.336C254.421 201.022 254.077 202.835 254.076 204.649C255.611 204.496 257.156 204.324 258.615 203.827C259.574 203.499 260.502 203.016 261.271 202.363Z" fill="#F0B178"/>
<path d="M271.119 188.763C272.014 190.971 271.984 193.613 270.733 195.641C269.688 197.334 267.905 198.468 266.021 199.11C264.138 199.752 262.137 199.952 260.157 200.147C259.57 200.205 258.958 200.26 258.404 200.057C257.287 199.648 256.78 198.35 256.628 197.17C256.234 194.115 257.359 190.979 259.291 188.58C260.668 186.87 263.544 184.016 265.855 183.731C268.153 183.447 270.373 186.92 271.119 188.763Z" fill="#CF9867"/>
<path d="M278.802 183.007C279.214 185.354 278.63 187.93 276.982 189.651C275.605 191.088 273.624 191.822 271.648 192.054C269.672 192.287 267.674 192.063 265.697 191.839C265.11 191.772 264.5 191.698 264.001 191.384C262.995 190.749 262.771 189.374 262.87 188.189C263.125 185.119 264.883 182.289 267.275 180.348C268.98 178.965 272.391 176.777 274.71 176.983C277.016 177.187 278.459 181.049 278.802 183.007Z" fill="#E0A570"/>
<path d="M248.176 210.863C245.875 211.472 243.436 211.363 241.47 210.241C246.126 202.018 250.547 194.319 252.656 185.108C248.552 193.564 243.819 201.714 238.511 209.471C237.185 211.408 235.718 213.409 233.566 214.349C231.416 215.289 228.409 214.678 227.534 212.499C226.841 210.772 227.681 208.847 228.506 207.18C232.671 198.761 236.417 190.032 240.583 181.613C234.739 192.603 228.814 203.711 220.535 213.005C218.986 214.743 217.25 216.48 215.012 217.121C212.773 217.762 209.935 216.877 209.169 214.678C211.371 211.708 214.397 208.989 216.045 205.679C220.771 196.189 224.949 186.426 228.553 176.455C229.401 174.107 230.23 171.664 230.047 169.174C225.647 178.993 222.471 189.35 216.246 198.128C209.825 207.184 202.168 215.36 193.555 222.365C194.41 222.457 195.275 222.421 196.092 222.222C199.912 221.294 202.772 218.211 205.391 215.279C207.474 216.751 210.087 217.937 212.572 218.517C216.728 219.489 221.398 217.586 223.692 213.988C225.426 216.386 229.013 218.181 231.959 217.901C234.836 217.627 237.064 215.359 239.021 213.233C239.051 212.659 240.017 212.812 240.571 212.962C242.572 213.503 244.866 213.776 246.581 212.612C247.248 212.16 247.745 211.545 248.176 210.863Z" fill="#F0B179"/>
<path d="M234.601 141.857C233.307 139.826 232.164 137.423 229.774 137.124C224.195 139.785 218.006 140.813 211.969 142.145C205.932 143.478 199.792 145.226 194.923 149.035C190.101 152.807 186.936 158.275 182.695 162.689C180.336 165.145 178.33 168.048 175.263 169.529C139.837 186.638 103.676 202.228 66.9155 216.241L61.4774 219.657C55.2201 224.483 51.9534 232.213 49.8285 239.824C45.3225 255.963 44.8403 273.386 49.7017 289.421C50.8417 293.181 52.3021 296.918 54.7349 300.003C57.1676 303.089 60.6952 305.48 64.6093 305.822C70.1214 306.304 79.7341 303.846 84.346 300.79C92.6306 295.299 98.6271 287.078 105.293 279.705C112.195 272.07 119.934 265.244 127.653 258.436C134.816 252.119 141.979 245.802 149.142 239.485C154.194 235.029 159.247 230.573 164.429 226.27C169.074 222.411 174.07 218.593 179.35 215.662C182.046 216.028 184.859 216.378 187.499 215.91C187.854 213.839 189.401 212.071 190.816 210.444C202.016 197.561 209.868 181.052 212.82 164.171C213.557 164.069 221.566 159.283 224.054 156.353C227.657 160.351 233.547 161.678 238.872 160.899C241.055 160.58 243.224 159.932 245.059 158.709C246.895 157.486 248.391 155.484 248.887 153.335C243.046 151.2 237.943 147.101 234.601 141.857Z" fill="#EAAF7A"/>
<path d="M245.379 173.162C245.74 170.394 244.294 167.475 241.874 166.083C239.453 164.692 236.204 164.912 233.993 166.618C236.55 166.2 239.102 166.927 241.293 168.309C242.222 168.895 243.055 169.62 243.881 170.344C244.673 171.038 245.562 172.125 245.379 173.162Z" fill="#F0B179"/>
<path d="M252.742 180.899C252.965 179.187 252.072 177.382 250.575 176.522C249.078 175.662 247.069 175.798 245.702 176.852C247.283 176.594 248.861 177.044 250.216 177.898C250.79 178.261 251.305 178.709 251.816 179.156C252.306 179.586 252.855 180.258 252.742 180.899Z" fill="#F0B179"/>
<path d="M233.531 150.509C235.433 151.696 237.989 152.959 240.199 153.337C242.366 153.708 244.496 153.243 246.5 152.328C243.125 150.727 240.068 148.458 237.551 145.697C236.092 147.197 234.741 148.803 233.531 150.509Z" fill="#EDAE77"/>
<path d="M209.291 209.149C207.575 208.563 206.224 207.178 205.315 205.609C204.406 204.039 203.886 202.281 203.374 200.541C205.156 202.807 207.705 204.459 210.501 205.158C210.786 205.229 211.089 205.29 211.371 205.206C211.64 205.125 211.853 204.922 212.054 204.726C212.595 204.199 213.136 203.672 213.677 203.145C214.647 202.199 215.684 201.112 215.729 199.757C215.754 199.012 215.465 198.291 215.115 197.634C214.243 195.997 212.947 194.588 211.389 193.582C214.06 193.709 216.679 194.761 218.696 196.517C218.643 198.626 217.161 201.109 216.066 202.913C215.125 204.463 214.173 206.028 212.923 207.343C211.674 208.657 211.008 209.735 209.291 209.149Z" fill="#F0B179"/>
<path d="M210.616 210.92C211.627 213.92 214.74 216.369 217.842 215.744C219.142 215.482 220.296 214.733 221.293 213.858C222.797 212.539 224.051 210.824 224.384 208.851C224.717 206.879 223.955 204.649 222.23 203.637C223.272 204.021 224.315 204.405 225.358 204.79C225.734 204.928 226.145 205.068 226.528 204.949C226.808 204.862 227.028 204.648 227.218 204.427C229.092 202.247 228.796 198.552 226.599 196.699C228.455 197.829 230.702 198.299 232.855 198.009C230.306 202.518 227.396 206.708 224.847 211.218C223.933 212.833 222.994 214.481 221.598 215.703C218.874 218.088 214.905 218.427 211.311 217.996C210.302 217.875 209.26 217.688 208.43 217.101C207.233 216.257 206.69 214.591 207.159 213.203C207.627 211.815 209.153 210.867 210.616 210.92Z" fill="#F0B179"/>
<path d="M272.979 189.091C273.189 187.403 272.92 185.678 272.368 184.068C270.867 184.598 269.082 183.768 267.663 184.488C266.673 184.99 266.172 186.094 265.744 187.118C265.386 187.975 265.023 188.845 264.924 189.768C264.851 190.453 264.944 191.18 265.259 191.784C265.403 191.804 265.549 191.821 265.693 191.838C267.67 192.061 269.668 192.286 271.644 192.053C271.783 192.036 271.922 192.012 272.06 191.99C272.545 191.096 272.854 190.101 272.979 189.091Z" fill="#F0B178"/>
<path d="M260.16 200.146C262.14 199.95 264.141 199.75 266.024 199.109C266.51 198.943 266.989 198.743 267.451 198.511C267.433 197.636 267.276 196.764 266.975 195.943C266.83 195.548 266.643 195.149 266.316 194.884C265.951 194.588 265.464 194.498 264.998 194.436C263.598 194.251 261.99 194.15 260.584 194.282C259.462 196.024 258.876 198.099 258.892 200.169C259.308 200.224 259.74 200.187 260.16 200.146Z" fill="#F0B178"/>
<path d="M240.859 159.952C238.781 160.143 236.684 160.334 234.611 160.091C232.537 159.849 230.462 159.138 228.921 157.73C226.261 155.301 225.685 151.339 225.824 147.739C225.59 149.829 224.434 151.988 223.618 153.927C223.455 152.639 223.292 151.351 223.129 150.064C222.846 151.607 222.564 153.15 222.282 154.693C219.758 157.529 215.904 160.272 212.108 160.329C208.79 160.379 205.87 158.073 202.578 157.652C204.472 159.216 206.192 160.989 207.698 162.929C205.747 162.729 203.829 162.223 202.034 161.433C205.28 163.974 206.157 168.513 206.143 172.634C206.117 180.085 203.891 187.516 199.815 193.754C196.929 198.171 193.174 201.956 190.148 206.279C188.073 209.243 186.325 212.601 185.615 216.11C186.25 216.079 186.879 216.018 187.498 215.908C187.853 213.837 189.401 212.069 190.815 210.442C202.015 197.559 209.867 181.05 212.819 164.169C213.556 164.067 221.565 159.281 224.053 156.351C227.656 160.349 233.546 161.676 238.871 160.897C240.523 160.656 242.166 160.225 243.663 159.5C242.763 159.769 241.802 159.865 240.859 159.952Z" fill="#D49C6A"/>
<path d="M188.222 213.67C186.424 213.71 184.71 212.552 183.429 211.224C180.724 208.421 179.059 204.638 178.819 200.75C176.623 207.487 173.588 214.013 168.472 218.917C166.777 220.543 164.828 221.881 162.856 223.157C148.142 232.683 131.371 239.397 118.795 251.607C106.277 263.762 92.5973 272.824 78.0345 282.433C69.9212 287.788 60.8674 292.924 51.3747 293.588C52.2685 295.74 53.3627 297.798 54.8028 299.624C57.2355 302.71 60.7631 305.101 64.6772 305.443C70.1893 305.925 79.802 303.468 84.4138 300.411C92.6985 294.92 98.695 286.699 105.361 279.326C112.263 271.692 120.001 264.866 127.721 258.058C134.884 251.741 142.047 245.424 149.21 239.106C154.262 234.651 159.315 230.195 164.497 225.891C169.142 222.033 174.138 218.214 179.418 215.283C182.114 215.65 184.927 215.999 187.567 215.532C187.679 214.882 187.916 214.265 188.222 213.67Z" fill="#D49C6A"/>
<path d="M148.055 177.838C153.689 174.145 159.666 170.974 165.882 168.378C174.121 173.5 179.425 182.117 182.172 191.421C184.919 200.724 185.229 210.562 185.091 220.261C178.828 225.107 172.628 229.728 166.365 234.574C162.343 228.647 158.648 221.804 155.303 215.47C153.134 211.364 151.101 207.149 149.88 202.669C147.487 193.885 147.193 186.902 148.055 177.838Z" fill="#E6E6E6"/>
<path d="M155.302 215.473C158.647 221.807 162.343 228.65 166.365 234.577C170.331 231.508 174.272 228.527 178.22 225.525C175.743 217.019 172.8 208.665 168.933 200.705C164.474 191.526 158.701 182.855 151.484 175.692C150.329 176.389 149.183 177.102 148.054 177.842C147.193 186.905 147.486 193.888 149.88 202.672C151.101 207.152 153.134 211.367 155.302 215.473Z" fill="#D9D9D9"/>
<path d="M101.511 301.045C105.409 297.687 108.575 293.579 111.822 289.587C128.921 268.565 150.902 250.307 173.229 234.952C170.423 213.073 162.167 191.913 149.415 173.914C115.745 189.087 83.1319 205.067 50.907 223.107C49.4766 223.907 7.72197 254.877 7.50331 256.501C5.80624 269.104 44.8364 252.13 45.7566 264.813C46.6769 277.497 49.6421 290.159 55.6401 301.372C56.9181 303.762 58.4084 306.163 60.6844 307.635C62.6009 308.874 64.9056 309.342 67.1634 309.673C79.5593 311.496 92.0194 309.224 101.511 301.045Z" fill="#0030B1"/>
<path d="M173.231 234.957C171.284 219.785 166.716 204.96 159.847 191.294C161.379 202.433 161.621 213.75 160.542 224.942C156.669 220.094 152.433 214.414 148.856 209.344C151.871 216.014 152.576 223.46 153.242 230.749C150.57 226.128 147.807 221.562 144.954 217.051C145.914 223.675 146.194 230.397 145.789 237.077C113.787 255.434 85.3775 279.047 54.2389 298.597C54.6891 299.532 55.1512 300.461 55.6414 301.377C56.9195 303.767 58.4098 306.168 60.6857 307.639C62.6023 308.879 64.9069 309.347 67.1648 309.678C79.5608 311.501 92.0208 309.229 101.513 301.051C105.411 297.692 108.577 293.584 111.824 289.592C128.922 268.57 150.903 250.312 173.231 234.957Z" fill="#011C66" fill-opacity="0.88"/>
<path d="M308.843 140.246C307.516 135.501 305.734 130.947 303.823 127.422C301.436 123.017 299.205 119.677 296.804 116.909C290.134 109.222 280.354 104.29 269.963 103.381L269.404 103.332L268.976 103.695C265.002 107.062 260.839 110.626 256.246 114.593C255.393 115.329 255.767 116.723 256.873 116.935C265.286 118.544 273.122 122.869 278.937 129.113C284.58 135.171 288.308 143.046 289.434 151.288C289.566 152.248 290.639 152.76 291.468 152.257C297.095 148.841 302.75 145.303 308.275 141.742C308.772 141.421 309.002 140.815 308.843 140.246Z" fill="#803903"/>
<path d="M305.927 140.279C305.83 140.261 305.747 140.191 305.717 140.09C305.641 139.832 305.564 139.575 305.485 139.319C305.441 139.177 305.521 139.026 305.663 138.983C305.804 138.939 305.956 139.019 306 139.161C306.08 139.419 306.158 139.678 306.234 139.938C306.276 140.081 306.194 140.231 306.052 140.272C306.01 140.285 305.967 140.287 305.927 140.279Z" fill="#B38104"/>
<path d="M305.361 138.457C305.267 138.439 305.185 138.372 305.153 138.274C304.983 137.747 304.807 137.225 304.626 136.71C304.577 136.569 304.651 136.415 304.792 136.366C304.93 136.316 305.085 136.39 305.135 136.531C305.318 137.051 305.495 137.577 305.667 138.109C305.713 138.25 305.635 138.402 305.494 138.448C305.449 138.462 305.403 138.464 305.361 138.457ZM304.458 135.844C304.368 135.828 304.288 135.766 304.254 135.673C304.062 135.151 303.865 134.636 303.664 134.131C303.609 133.993 303.677 133.836 303.815 133.781C303.953 133.727 304.111 133.794 304.165 133.932C304.367 134.441 304.565 134.96 304.76 135.486C304.811 135.626 304.739 135.78 304.6 135.832C304.553 135.85 304.505 135.853 304.458 135.844ZM303.447 133.274C303.361 133.258 303.284 133.2 303.247 133.113C303.032 132.597 302.811 132.093 302.588 131.601C302.526 131.466 302.585 131.306 302.721 131.245C302.856 131.183 303.017 131.243 303.078 131.378C303.303 131.874 303.526 132.383 303.745 132.904C303.802 133.042 303.738 133.2 303.6 133.257C303.551 133.278 303.497 133.283 303.447 133.274ZM302.315 130.754C302.234 130.74 302.16 130.687 302.122 130.607C301.877 130.099 301.629 129.608 301.378 129.137C301.308 129.005 301.358 128.842 301.489 128.772C301.62 128.703 301.783 128.752 301.853 128.883C302.107 129.361 302.358 129.858 302.606 130.372C302.671 130.506 302.615 130.667 302.481 130.732C302.427 130.758 302.37 130.764 302.315 130.754ZM301.041 128.305C300.964 128.291 300.894 128.243 300.853 128.17C300.581 127.676 300.31 127.197 300.041 126.731C299.966 126.603 300.011 126.438 300.14 126.363C300.268 126.288 300.432 126.332 300.508 126.462C300.778 126.93 301.05 127.412 301.325 127.909C301.397 128.04 301.35 128.204 301.22 128.276C301.162 128.307 301.099 128.315 301.041 128.305ZM299.665 125.909C299.592 125.896 299.525 125.852 299.483 125.783C299.194 125.298 298.905 124.83 298.618 124.377C298.539 124.251 298.576 124.084 298.702 124.005C298.828 123.926 298.994 123.964 299.073 124.089C299.363 124.546 299.653 125.019 299.945 125.506C300.021 125.634 299.979 125.799 299.852 125.876C299.794 125.911 299.727 125.921 299.665 125.909ZM298.198 123.569C298.129 123.557 298.064 123.517 298.023 123.453C297.712 122.983 297.403 122.53 297.094 122.091C297.008 121.97 297.037 121.802 297.158 121.716C297.279 121.63 297.448 121.659 297.534 121.781C297.847 122.224 298.159 122.682 298.472 123.156C298.554 123.28 298.52 123.448 298.395 123.529C298.335 123.569 298.265 123.582 298.198 123.569ZM296.617 121.307C296.552 121.295 296.492 121.259 296.449 121.202C296.115 120.753 295.779 120.32 295.441 119.9C295.348 119.785 295.366 119.615 295.482 119.522C295.597 119.429 295.767 119.446 295.86 119.562C296.203 119.987 296.543 120.425 296.882 120.881C296.97 121 296.945 121.169 296.826 121.258C296.763 121.304 296.688 121.32 296.617 121.307ZM294.896 119.146C294.837 119.136 294.781 119.105 294.74 119.056L294.565 118.852C294.265 118.506 293.957 118.166 293.643 117.832C293.541 117.723 293.546 117.553 293.655 117.451C293.763 117.349 293.934 117.355 294.035 117.463C294.354 117.802 294.667 118.148 294.972 118.5L295.15 118.706C295.246 118.819 295.233 118.99 295.119 119.087C295.055 119.141 294.973 119.16 294.896 119.146ZM293.021 117.119C292.969 117.109 292.92 117.084 292.879 117.045C292.491 116.657 292.091 116.275 291.69 115.909C291.579 115.809 291.571 115.639 291.671 115.529C291.771 115.419 291.943 115.411 292.051 115.511C292.459 115.882 292.866 116.27 293.26 116.664C293.365 116.769 293.365 116.939 293.26 117.044C293.195 117.11 293.105 117.134 293.021 117.119ZM290.994 115.244C290.949 115.235 290.905 115.215 290.868 115.183C290.455 114.83 290.027 114.48 289.594 114.142C289.477 114.05 289.456 113.881 289.548 113.764C289.639 113.646 289.809 113.627 289.926 113.717C290.364 114.059 290.799 114.415 291.218 114.774C291.331 114.871 291.345 115.041 291.248 115.154C291.183 115.23 291.086 115.26 290.994 115.244ZM288.831 113.528C288.792 113.521 288.754 113.505 288.72 113.48C288.278 113.157 287.825 112.839 287.372 112.537C287.248 112.455 287.215 112.287 287.298 112.164C287.379 112.04 287.546 112.007 287.671 112.089C288.13 112.395 288.591 112.717 289.038 113.046C289.158 113.134 289.184 113.303 289.096 113.422C289.034 113.508 288.929 113.546 288.831 113.528ZM286.545 111.979C286.513 111.972 286.481 111.961 286.451 111.942C285.992 111.655 285.516 111.372 285.037 111.101C284.908 111.027 284.863 110.863 284.935 110.734C285.009 110.604 285.172 110.559 285.303 110.632C285.789 110.907 286.271 111.194 286.737 111.486C286.863 111.565 286.901 111.731 286.822 111.857C286.762 111.953 286.651 111.998 286.545 111.979ZM284.151 110.601C284.125 110.596 284.099 110.588 284.074 110.574C283.589 110.318 283.098 110.073 282.602 109.838C282.468 109.775 282.41 109.614 282.474 109.479C282.537 109.345 282.696 109.286 282.833 109.351C283.336 109.589 283.833 109.838 284.325 110.098C284.457 110.167 284.507 110.33 284.438 110.462C284.382 110.569 284.264 110.622 284.151 110.601ZM281.665 109.402C281.645 109.398 281.625 109.392 281.605 109.383C281.104 109.163 280.597 108.954 280.085 108.755C279.946 108.701 279.878 108.545 279.931 108.407C279.985 108.268 280.142 108.2 280.28 108.253C280.797 108.453 281.316 108.668 281.822 108.89C281.958 108.95 282.02 109.108 281.96 109.245C281.909 109.361 281.785 109.424 281.665 109.402ZM279.098 108.384C279.084 108.382 279.07 108.378 279.056 108.373C278.542 108.191 278.016 108.016 277.494 107.856C277.352 107.813 277.272 107.662 277.315 107.52C277.359 107.378 277.513 107.297 277.652 107.342C278.182 107.504 278.716 107.681 279.236 107.866C279.377 107.916 279.45 108.07 279.4 108.21C279.355 108.336 279.226 108.408 279.098 108.384ZM276.465 107.555C276.457 107.554 276.449 107.552 276.441 107.55C275.913 107.404 275.381 107.27 274.845 107.147C274.701 107.114 274.61 106.969 274.643 106.824C274.677 106.679 274.795 106.577 274.966 106.622C275.506 106.746 276.051 106.883 276.584 107.03C276.727 107.07 276.812 107.219 276.772 107.361C276.736 107.498 276.6 107.58 276.465 107.555ZM272.146 106.629C272.003 106.603 271.906 106.468 271.928 106.323C271.951 106.176 272.089 106.075 272.235 106.097C272.786 106.183 273.334 106.281 273.879 106.388C274.024 106.417 274.119 106.559 274.09 106.705C274.061 106.85 273.921 106.944 273.777 106.917C273.776 106.917 273.775 106.917 273.773 106.917C273.238 106.81 272.697 106.714 272.153 106.63C272.151 106.63 272.148 106.629 272.146 106.629Z" fill="#B38104"/>
<path d="M270.238 106.382C270.101 106.357 270.004 106.231 270.019 106.09C270.034 105.942 270.167 105.835 270.315 105.85C270.585 105.877 270.855 105.908 271.123 105.941C271.291 105.97 271.376 106.095 271.357 106.242C271.339 106.389 271.204 106.494 271.056 106.476C270.791 106.443 270.526 106.413 270.259 106.386C270.252 106.385 270.245 106.384 270.238 106.382Z" fill="#B38104"/>
<path d="M260.769 115.361C260.76 115.359 260.753 115.358 260.745 115.355C260.486 115.283 260.227 115.214 259.968 115.147C259.824 115.109 259.737 114.962 259.774 114.819C259.812 114.674 259.97 114.591 260.102 114.625C260.366 114.693 260.628 114.764 260.889 114.836C261.033 114.876 261.116 115.025 261.076 115.168C261.039 115.304 260.904 115.386 260.769 115.361Z" fill="#B38104"/>
<path d="M291.342 147.311C291.241 147.293 291.153 147.215 291.128 147.107C291.006 146.578 290.873 146.052 290.73 145.528C290.691 145.385 290.775 145.237 290.919 145.197C291.062 145.158 291.211 145.242 291.25 145.386C291.394 145.916 291.528 146.449 291.653 146.985C291.686 147.13 291.596 147.275 291.451 147.308C291.415 147.317 291.377 147.318 291.342 147.311ZM290.64 144.673C290.544 144.655 290.461 144.586 290.431 144.486C290.275 143.966 290.109 143.449 289.934 142.935C289.886 142.794 289.961 142.641 290.102 142.593C290.241 142.546 290.396 142.62 290.444 142.761C290.621 143.281 290.789 143.805 290.947 144.331C290.989 144.474 290.908 144.624 290.766 144.666C290.724 144.678 290.681 144.68 290.64 144.673ZM289.775 142.083C289.684 142.066 289.604 142.004 289.57 141.911C289.382 141.402 289.184 140.896 288.978 140.395C288.921 140.257 288.987 140.099 289.125 140.043C289.26 139.987 289.42 140.052 289.476 140.19C289.685 140.698 289.885 141.209 290.075 141.725C290.128 141.864 290.056 142.019 289.916 142.071C289.869 142.088 289.82 142.091 289.775 142.083ZM288.75 139.553C288.665 139.537 288.59 139.481 288.552 139.396C288.333 138.9 288.104 138.408 287.867 137.919C287.802 137.785 287.857 137.624 287.991 137.559C288.124 137.494 288.286 137.549 288.351 137.683C288.591 138.177 288.823 138.676 289.045 139.178C289.105 139.314 289.044 139.473 288.907 139.534C288.856 139.557 288.802 139.562 288.75 139.553ZM287.57 137.091C287.491 137.076 287.419 137.027 287.38 136.949C287.13 136.467 286.872 135.99 286.604 135.518C286.531 135.388 286.577 135.224 286.706 135.151C286.835 135.077 286.999 135.123 287.073 135.253C287.344 135.731 287.606 136.214 287.858 136.702C287.927 136.834 287.875 136.997 287.743 137.065C287.687 137.094 287.627 137.101 287.57 137.091ZM286.241 134.707C286.168 134.693 286.1 134.65 286.059 134.581C285.779 134.115 285.491 133.655 285.195 133.2C285.114 133.075 285.149 132.908 285.274 132.827C285.398 132.746 285.565 132.781 285.647 132.905C285.947 133.366 286.238 133.832 286.521 134.303C286.598 134.431 286.557 134.596 286.429 134.673C286.37 134.708 286.303 134.718 286.241 134.707ZM284.764 132.41C284.696 132.397 284.633 132.359 284.591 132.298C284.282 131.851 283.966 131.409 283.642 130.974C283.553 130.855 283.577 130.686 283.697 130.597C283.817 130.508 283.986 130.534 284.074 130.652C284.402 131.092 284.723 131.539 285.034 131.992C285.118 132.115 285.088 132.282 284.965 132.367C284.904 132.409 284.832 132.422 284.764 132.41ZM283.145 130.211C283.083 130.2 283.024 130.167 282.982 130.113C282.647 129.686 282.303 129.266 281.951 128.853C281.855 128.74 281.869 128.57 281.982 128.473C282.095 128.377 282.266 128.39 282.362 128.504C282.718 128.923 283.066 129.348 283.406 129.78C283.498 129.897 283.477 130.067 283.36 130.159C283.298 130.208 283.219 130.225 283.145 130.211ZM281.389 128.121C281.333 128.11 281.279 128.082 281.237 128.036C281.064 127.842 280.888 127.651 280.712 127.461C280.519 127.254 280.324 127.049 280.127 126.846C280.023 126.739 280.026 126.569 280.133 126.465C280.24 126.362 280.411 126.365 280.513 126.471C280.713 126.677 280.91 126.885 281.106 127.094C281.286 127.287 281.463 127.481 281.638 127.677C281.738 127.788 281.729 127.958 281.618 128.058C281.553 128.114 281.469 128.135 281.389 128.121ZM279.502 126.149C279.45 126.14 279.402 126.115 279.362 126.077C278.974 125.697 278.579 125.325 278.177 124.96C278.067 124.861 278.058 124.69 278.158 124.58C278.259 124.469 278.43 124.462 278.539 124.561C278.946 124.93 279.347 125.307 279.739 125.691C279.845 125.795 279.847 125.966 279.744 126.072C279.678 126.139 279.586 126.165 279.502 126.149ZM277.49 124.303C277.444 124.295 277.4 124.275 277.363 124.243C276.951 123.889 276.533 123.543 276.108 123.205C275.992 123.112 275.973 122.943 276.066 122.826C276.159 122.709 276.329 122.692 276.445 122.783C276.874 123.125 277.298 123.476 277.714 123.835C277.827 123.932 277.84 124.102 277.743 124.215C277.678 124.289 277.58 124.32 277.49 124.303ZM275.365 122.589C275.324 122.581 275.286 122.565 275.251 122.539C274.818 122.212 274.379 121.892 273.934 121.582C273.812 121.497 273.782 121.329 273.867 121.207C273.952 121.085 274.12 121.056 274.242 121.14C274.692 121.455 275.137 121.778 275.575 122.109C275.694 122.199 275.717 122.368 275.628 122.486C275.565 122.57 275.461 122.607 275.365 122.589ZM273.137 121.012C273.102 121.006 273.068 120.992 273.037 120.972C272.584 120.672 272.126 120.381 271.662 120.099C271.535 120.021 271.495 119.855 271.572 119.728C271.65 119.601 271.816 119.562 271.942 119.639C272.412 119.924 272.876 120.219 273.334 120.522C273.458 120.604 273.492 120.772 273.41 120.896C273.348 120.988 273.239 121.031 273.137 121.012ZM270.813 119.577C270.783 119.572 270.754 119.562 270.727 119.546C270.257 119.275 269.782 119.013 269.301 118.76C269.169 118.69 269.119 118.528 269.188 118.396C269.258 118.265 269.419 118.214 269.553 118.283C270.039 118.54 270.52 118.805 270.996 119.079C271.125 119.153 271.169 119.318 271.095 119.447C271.037 119.548 270.922 119.598 270.813 119.577ZM268.406 118.29C268.382 118.286 268.358 118.278 268.335 118.267C267.848 118.026 267.358 117.794 266.863 117.571C266.727 117.51 266.666 117.351 266.728 117.215C266.788 117.079 266.948 117.017 267.083 117.08C267.585 117.305 268.082 117.54 268.574 117.784C268.707 117.85 268.762 118.012 268.695 118.145C268.641 118.255 268.521 118.312 268.406 118.29ZM265.922 117.155C265.904 117.151 265.885 117.146 265.866 117.138C265.367 116.928 264.862 116.727 264.354 116.536C264.215 116.484 264.144 116.328 264.197 116.189C264.25 116.05 264.405 115.981 264.544 116.032C265.058 116.226 265.569 116.429 266.075 116.642C266.213 116.699 266.277 116.857 266.219 116.995C266.17 117.113 266.045 117.177 265.922 117.155ZM263.375 116.177C263.361 116.175 263.347 116.171 263.334 116.167C262.821 115.988 262.306 115.819 261.787 115.661C261.644 115.617 261.564 115.466 261.608 115.324C261.652 115.182 261.805 115.103 261.945 115.146C262.47 115.306 262.992 115.477 263.511 115.658C263.652 115.707 263.726 115.86 263.678 116.001C263.633 116.128 263.503 116.201 263.375 116.177Z" fill="#B38104"/>
<path d="M291.735 149.186C291.628 149.166 291.54 149.083 291.519 148.97C291.47 148.706 291.418 148.443 291.364 148.181C291.334 148.035 291.428 147.893 291.574 147.862C291.719 147.833 291.861 147.926 291.892 148.073C291.946 148.338 291.998 148.605 292.048 148.872C292.075 149.018 291.979 149.159 291.832 149.186C291.799 149.192 291.766 149.192 291.735 149.186Z" fill="#B38104"/>
<path d="M269.823 131.346L273.484 128.82C274.025 128.447 274.766 128.583 275.139 129.124L275.942 130.288C276.316 130.829 276.18 131.57 275.638 131.944L271.977 134.469C271.436 134.842 270.695 134.706 270.322 134.165L269.518 133C269.146 132.46 269.282 131.719 269.823 131.346Z" fill="#949494"/>
<path d="M295.919 136.439C303.791 131.009 305.77 120.225 300.34 112.353C294.909 104.481 284.126 102.501 276.253 107.932C268.381 113.362 266.402 124.146 271.832 132.018C277.263 139.89 288.047 141.87 295.919 136.439Z" fill="#ADADAD"/>
<path d="M283.133 138.286C292.025 139.918 300.556 134.033 302.188 125.142C303.82 116.25 297.935 107.719 289.044 106.087C280.152 104.455 271.621 110.34 269.989 119.231C268.357 128.123 274.242 136.654 283.133 138.286Z" fill="#949494"/>
<path d="M283.424 136.705C291.442 138.177 299.135 132.87 300.607 124.851C302.079 116.833 296.772 109.14 288.753 107.668C280.735 106.196 273.042 111.503 271.57 119.521C270.098 127.54 275.405 135.233 283.424 136.705Z" fill="#DEDEDE"/>
<g opacity="0.1">
<path d="M283.424 136.704C288.074 137.558 292.611 136.128 295.893 133.216C293.077 134.689 289.767 135.27 286.399 134.652C278.381 133.18 273.074 125.487 274.545 117.469C275.164 114.1 276.883 111.213 279.26 109.103C275.372 111.136 272.424 114.871 271.571 119.521C270.099 127.539 275.406 135.232 283.424 136.704Z" fill="black"/>
</g>
<g opacity="0.3">
<path d="M288.755 107.666C288.236 107.57 287.718 107.505 287.202 107.465L281.903 136.339C282.398 136.484 282.906 136.607 283.425 136.702C286.072 137.188 288.683 136.931 291.047 136.086L295.661 110.948C293.751 109.318 291.402 108.151 288.755 107.666Z" fill="white"/>
<path d="M275.437 132.406C276.58 133.601 277.928 134.609 279.441 135.372L284.555 107.511C282.87 107.687 281.251 108.15 279.758 108.861L275.437 132.406Z" fill="white"/>
</g>
<path d="M292.235 130.635L291.816 130.924L293.455 133.299L293.874 133.01L292.235 130.635Z" fill="#949494"/>
<path d="M278.957 111.398L278.538 111.687L280.177 114.062L280.596 113.773L278.957 111.398Z" fill="#949494"/>
<path d="M277.627 127.956L275.252 129.595L275.541 130.014L277.916 128.376L277.627 127.956Z" fill="#949494"/>
<path d="M296.861 114.687L294.486 116.326L294.775 116.745L297.15 115.106L296.861 114.687Z" fill="#949494"/>
<path d="M285.859 121.895L294.408 123.18L294.333 123.684L286.313 122.478L284.984 135.83L284.477 135.78L285.859 121.895Z" fill="#949494"/>
<path d="M256.207 109.764C260.952 111.063 265.717 112.373 270.211 114.371C278.145 117.9 285.077 123.549 290.421 130.392C295.764 137.236 299.538 145.253 301.758 153.648C309.19 148.32 316.236 143.384 323.669 138.056C321.117 130.255 318.346 122.351 312.999 116.125C311.433 114.302 309.663 112.666 307.858 111.079C298.172 102.561 287.019 95.1854 274.407 92.4842C269.639 99.6444 262.946 104.417 256.207 109.764Z" fill="white"/>
<path d="M316.061 143.479C318.573 141.697 321.098 139.9 323.671 138.056C321.12 130.256 318.349 122.352 313.001 116.126C311.435 114.302 309.665 112.666 307.86 111.079C298.174 102.561 287.022 95.1859 274.409 92.4846C273.232 94.2526 271.936 95.8739 270.553 97.3953C280.612 99.7112 301.958 108.689 316.061 143.479Z" fill="#E8E8E8"/>
<path d="M300.495 149.421C300.495 149.421 301.716 153.12 298.415 152.514L301.758 153.644L300.495 149.421Z" fill="white"/>
<path d="M268.993 94.418C272.877 96.5622 277.148 97.8879 281.248 99.5805C300.952 107.714 316.69 124.926 323.031 145.278C342.358 129.528 362.527 115.34 383.105 101.264C389.176 97.1116 395.247 92.9595 401.317 88.8069C396.033 74.7921 385.96 63.0929 373.547 54.7105C361.135 46.3283 346.858 41.0467 332.335 37.3855C317.257 51.4266 301.138 64.6823 284.157 76.349C281.077 78.4654 277.938 80.5663 275.392 83.3036C272.596 86.311 270.869 90.7651 268.993 94.418Z" fill="#283340"/>
<path d="M383.106 101.263C389.177 97.1107 395.247 92.9581 401.318 88.806C399.461 83.8791 397 79.2457 394.066 74.9344C393.291 75.5405 392.517 76.1467 391.742 76.7528C379.294 86.4949 367.495 97.2399 352.023 100.481C344.861 95.9185 337.698 91.3559 330.536 86.7929C335.385 92.5572 338.593 99.6871 339.691 107.14C331.518 101.672 322.734 97.1206 313.554 93.5968C317.378 95.7985 320.079 99.6066 321.707 103.708C323.335 107.808 323.988 112.223 324.514 116.603C310.739 109.259 295.982 103.967 281.285 98.7022C279.526 98.0721 277.75 97.4376 275.896 97.2101C276.016 97.351 276.132 97.494 276.251 97.6353C277.921 98.2753 279.599 98.8983 281.25 99.5798C300.954 107.714 316.691 124.926 323.032 145.278C342.359 129.527 362.528 115.339 383.106 101.263Z" fill="#222B36"/>
</svg>
