<svg width="383" height="245" viewBox="0 0 383 245" fill="none" xmlns="http://www.w3.org/2000/svg">
<path d="M240.809 84.599L225.303 311.088H414.418L431.549 60.869H266.173L240.809 84.599Z" fill="#407BFF" fill-opacity="0.1"/>
<path d="M240.809 84.599L225.303 311.088H414.418L431.549 60.869H266.173L240.809 84.599Z" fill="white" fill-opacity="0.8"/>
<path d="M398.944 137.346C411.686 125.034 412.694 105.407 401.195 93.5082C389.697 81.6096 370.047 81.9452 357.306 94.2577C344.565 106.57 343.557 126.197 355.055 138.096C366.553 149.994 386.203 149.659 398.944 137.346Z" fill="#407BFF"/>
<path d="M397.85 136.214C409.921 124.55 410.876 105.956 399.983 94.6833C389.09 83.411 370.474 83.7291 358.403 95.3939C346.332 107.059 345.377 125.653 356.27 136.925C367.163 148.197 385.779 147.879 397.85 136.214Z" fill="white"/>
<mask id="mask0_789_7942" style="mask-type:luminance" maskUnits="userSpaceOnUse" x="348" y="86" width="60" height="60">
<path d="M397.85 136.214C409.921 124.55 410.876 105.956 399.983 94.6833C389.09 83.411 370.474 83.7291 358.403 95.3939C346.332 107.059 345.377 125.653 356.27 136.925C367.163 148.197 385.779 147.879 397.85 136.214Z" fill="white"/>
</mask>
<g mask="url(#mask0_789_7942)">
<path d="M370.415 126.029L364.631 125.647C364.631 125.647 361.942 139.488 360.217 140.683C357.87 142.31 353.215 146.248 350.134 147.676C349.867 148.298 349.678 150.054 349.938 150.591C354.741 150.617 363.617 145.814 365.154 143.734C368.658 138.99 370.415 126.029 370.415 126.029Z" fill="#FFC3BD"/>
<path d="M373.168 117.322C374.917 120.581 369.469 132.359 369.469 132.359L362.046 129.989C362.046 129.989 362.31 124.126 364.522 119.513C366.357 115.686 371.249 113.745 373.168 117.322Z" fill="#263238"/>
<path opacity="0.2" d="M367.499 123.325C368.527 125.678 367.188 131.38 366.156 134.99C363.646 130.689 363.302 126.691 367.499 123.325Z" fill="black"/>
<path d="M367.466 117.9C366.326 122.069 364.092 133.019 365.921 150.208H385.453C385.904 146.936 385.332 130.975 389.921 115.558C389.921 115.558 386.336 114.825 382.87 114.657C380.159 114.526 376.224 114.439 373.809 114.657C372.347 114.789 371.015 115.082 370.001 115.359C368.774 115.696 367.801 116.674 367.466 117.9Z" fill="#263238"/>
<path d="M382.474 106.183C381.631 109.098 381.012 112.712 382.87 114.657C382.87 114.657 381.423 117.614 376.006 117.614C371.056 117.614 373.809 114.657 373.809 114.657C377.132 113.881 377.336 109.86 376.981 107.595L382.474 106.183Z" fill="#FFC3BD"/>
<path d="M376.006 117.614C376.864 119.068 376.785 120.414 376.785 120.414C376.785 120.414 383.792 118.021 383.801 114.514C383.801 114.514 382.891 113.942 382.323 113.478C382.323 113.478 381.848 116.21 376.006 117.614Z" fill="white"/>
<path d="M375.811 117.613C374.682 119.067 374.434 120.204 374.434 120.204C374.434 120.204 371.554 118.124 372.799 114.658C372.799 114.658 373.7 114.295 374.587 114.106C374.587 114.106 373.741 116.862 375.811 117.613Z" fill="white"/>
<path opacity="0.2" d="M376.978 107.598C377.192 108.925 377.208 110.856 376.511 112.384C376.996 112.313 377.499 112.167 378.005 111.938C379.918 111.073 380.948 109.714 382.076 107.696C382.195 107.179 382.329 106.673 382.472 106.184L376.978 107.598Z" fill="black"/>
<path d="M372.25 104.898C372.557 105.891 373.306 106.607 374.085 106.938C375.256 107.436 376.108 106.375 376.006 105.139C375.915 104.027 375.196 102.427 373.913 102.455C372.649 102.482 371.899 103.762 372.25 104.898Z" fill="#FFC3BD"/>
<path opacity="0.2" d="M372.25 104.898C372.557 105.891 373.306 106.607 374.085 106.938C375.256 107.436 376.108 106.375 376.006 105.139C375.915 104.027 375.196 102.427 373.913 102.455C372.649 102.482 371.899 103.762 372.25 104.898Z" fill="black"/>
<path d="M377.477 96.7329C377.1 94.4189 373.693 98.4779 374.419 100.622C375.145 102.766 377.901 99.3309 377.477 96.7329Z" fill="#263238"/>
<path d="M384.78 102.588C383.527 106.455 382.985 108.765 380.536 110.434C376.853 112.944 372.613 110.33 372.72 106.269C372.816 102.614 374.849 96.9039 378.986 96.0019C383.063 95.1129 386.033 98.7209 384.78 102.588Z" fill="#FFC3BD"/>
<path d="M383.64 100.298C379.418 99.7 373.36 98.924 375.556 95.474C377.651 92.183 385.987 92.781 383.456 94.24C386.734 94.427 390.89 95.998 387.749 97.082C390.281 98.877 389.278 103.701 384.451 105.384C383.056 103.365 381.959 102.467 383.64 100.298Z" fill="#263238"/>
<path d="M385.38 107.198C384.605 108.002 383.564 108.404 382.689 108.445C381.372 108.507 381.123 107.253 381.832 106.159C382.47 105.174 383.924 103.955 385.08 104.411C386.219 104.859 386.266 106.279 385.38 107.198Z" fill="#FFC3BD"/>
<path d="M378.712 102.667C378.629 102.985 378.397 103.214 378.194 103.179C377.991 103.144 377.894 102.857 377.977 102.538C378.06 102.22 378.292 101.991 378.495 102.026C378.698 102.062 378.795 102.349 378.712 102.667Z" fill="#263238"/>
<path d="M375.203 102.053C375.12 102.371 374.888 102.6 374.685 102.565C374.482 102.529 374.385 102.243 374.468 101.924C374.551 101.606 374.783 101.377 374.986 101.412C375.189 101.448 375.286 101.734 375.203 102.053Z" fill="#263238"/>
<path d="M376.277 102.406C376.277 102.406 375.093 104.118 374.085 104.868C374.497 105.49 375.494 105.413 375.494 105.413L376.277 102.406Z" fill="#ED847E"/>
<path d="M376.169 106.451C376.119 106.442 376.089 106.393 376.102 106.342C376.115 106.291 376.167 106.256 376.218 106.265C377.581 106.504 378.471 105.639 378.48 105.631C378.519 105.593 378.579 105.59 378.613 105.626C378.648 105.661 378.645 105.721 378.606 105.76C378.567 105.797 377.63 106.706 376.169 106.451Z" fill="#263238"/>
<path d="M380.072 101.693C380.017 101.683 379.969 101.648 379.946 101.593C379.628 100.842 378.947 100.765 378.941 100.765C378.844 100.759 378.772 100.662 378.791 100.558C378.811 100.454 378.91 100.378 379.012 100.388C379.048 100.391 379.901 100.487 380.295 101.419C380.334 101.512 380.288 101.627 380.192 101.675C380.152 101.694 380.11 101.699 380.072 101.693Z" fill="#263238"/>
<path d="M373.959 100.502C373.933 100.496 373.908 100.483 373.887 100.464C373.813 100.398 373.812 100.279 373.885 100.197C374.617 99.3849 375.472 99.4689 375.509 99.4719C375.609 99.4789 375.677 99.5759 375.657 99.6809C375.636 99.7849 375.538 99.8599 375.436 99.8489C375.407 99.8459 374.739 99.7879 374.155 100.436C374.102 100.495 374.025 100.518 373.959 100.502Z" fill="#263238"/>
<path d="M389.921 115.558C393.616 116.214 396.335 129.388 396.335 129.388L387.216 131.999C387.216 131.999 385.167 127.322 384.013 122.664C382.803 117.782 385.959 114.854 389.921 115.558Z" fill="#263238"/>
</g>
<path d="M388.877 284.404C401.618 272.091 402.626 252.464 391.128 240.566C379.63 228.667 359.98 229.003 347.239 241.315C334.497 253.628 333.49 273.255 344.988 285.153C356.486 297.052 376.136 296.716 388.877 284.404Z" fill="#407BFF"/>
<path d="M387.781 283.262C399.852 271.597 400.807 253.003 389.914 241.73C379.021 230.458 360.405 230.776 348.334 242.441C336.263 254.106 335.308 272.7 346.201 283.972C357.094 295.244 375.71 294.926 387.781 283.262Z" fill="white"/>
<mask id="mask1_789_7942" style="mask-type:luminance" maskUnits="userSpaceOnUse" x="338" y="233" width="60" height="60">
<path d="M387.781 283.262C399.852 271.597 400.807 253.003 389.914 241.73C379.021 230.458 360.405 230.776 348.334 242.441C336.263 254.106 335.308 272.7 346.201 283.972C357.094 295.244 375.71 294.926 387.781 283.262Z" fill="white"/>
</mask>
<g mask="url(#mask1_789_7942)">
<path d="M366.814 245.107C366.431 242.498 363.526 245.49 363.202 247.399C362.878 249.307 364.473 251.243 365.556 249.349C366.638 247.454 367.021 246.517 366.814 245.107Z" fill="#263238"/>
<path d="M374.713 249.638C373.46 253.505 372.918 255.815 370.469 257.484C366.786 259.994 362.546 257.38 362.653 253.319C362.749 249.664 364.782 243.953 368.919 243.052C372.996 242.163 375.966 245.77 374.713 249.638Z" fill="#FFB573"/>
<path d="M372.817 253.688C371.32 252.663 371.052 252.306 371.851 251.407C373.148 249.949 371.217 249.742 372.239 247.929C373.658 245.411 369.132 247.181 369.05 245.349C368.983 243.863 365.023 246.539 364.636 244.826C364.052 242.246 367.826 242.716 368.494 241.46C369.162 240.204 373.03 240.014 373.653 241.846C374.275 243.678 376.22 242.22 377.488 244.464C378.755 246.708 376.129 246.868 377.398 249.051C378.413 250.796 376.467 252.007 375.103 253.439C374.246 254.338 373.746 254.323 372.817 253.688Z" fill="#263238"/>
</g>
<path d="M301.44 210.873C314.181 198.56 315.189 178.933 303.691 167.035C292.193 155.136 272.543 155.472 259.802 167.784C247.06 180.097 246.053 199.724 257.551 211.622C269.049 223.521 288.699 223.185 301.44 210.873Z" fill="#407BFF"/>
<path d="M300.344 209.739C312.415 198.074 313.37 179.48 302.477 168.208C291.584 156.936 272.968 157.254 260.897 168.918C248.826 180.583 247.871 199.177 258.764 210.45C269.657 221.722 288.273 221.404 300.344 209.739Z" fill="white"/>
<mask id="mask2_789_7942" style="mask-type:luminance" maskUnits="userSpaceOnUse" x="251" y="159" width="60" height="60">
<path d="M300.344 209.739C312.415 198.074 313.37 179.48 302.477 168.208C291.584 156.935 272.968 157.254 260.897 168.918C248.826 180.583 247.871 199.177 258.764 210.449C269.657 221.722 288.273 221.404 300.344 209.739Z" fill="white"/>
</mask>
<g mask="url(#mask2_789_7942)">
<path d="M292.906 196.247C293.063 198.632 293.179 201.026 293.275 203.415L293.563 210.556L293.611 211.425L293.681 212.19C293.759 212.715 293.82 213.255 293.93 213.806C294.138 214.906 294.415 216.027 294.729 217.147C295.33 219.396 296.059 221.668 296.773 223.914L294.701 224.878C293.432 222.756 292.365 220.576 291.392 218.294C290.931 217.144 290.5 215.972 290.127 214.745C289.941 214.133 289.769 213.497 289.638 212.841L289.474 211.822L289.367 210.899C288.843 206.06 288.494 201.294 288.299 196.482L292.906 196.247Z" fill="#FF8B7B"/>
<path d="M291.807 191.009C293.634 191.483 294.412 199.136 294.412 199.136L286.968 203.973C286.968 203.973 284.663 194.9 286.234 192.855C287.869 190.727 289.14 190.318 291.807 191.009Z" fill="#407BFF"/>
<path opacity="0.2" d="M291.522 192.719L292.423 200.433L289.408 202.387L291.522 192.719Z" fill="black"/>
<path d="M271.496 171.285C268.374 171.734 261.815 186.692 272.506 193.672C283.197 200.652 291.069 192.725 291.069 192.725C291.069 192.725 284.568 184.997 285.511 179.961C286.454 174.925 290.512 168.57 282.188 166.449C276.318 164.952 268.44 166.398 271.496 171.285Z" fill="#263238"/>
<path d="M291.807 191.009C291.807 191.009 293.905 191.766 287.786 218.245C280.514 218.245 272.997 218.245 269.458 218.245C270.276 210.786 270.6 206.186 268.083 190.878C268.083 190.878 271.98 190.043 275.936 189.853C279.03 189.704 281.564 189.606 284.258 189.853C287.81 190.18 291.807 191.009 291.807 191.009Z" fill="#407BFF"/>
<path opacity="0.2" d="M269.18 196.939C270.811 197.353 272.221 199.164 271.81 202.499C271.563 204.499 270.543 206.012 269.994 206.698C269.876 204.133 269.588 201.154 269.069 197.342L269.18 196.939Z" fill="black"/>
<path d="M282.892 195.723C282.892 195.723 279.717 198.195 279.537 200.826C277.166 198.997 274.143 194.016 274.008 190.836C273.985 190.3 274.446 189.827 274.987 189.795C275.269 189.778 275.497 189.743 275.66 189.709C275.854 189.669 276.046 189.719 276.188 189.843L282.892 195.723Z" fill="#FAFAFA"/>
<path d="M282.892 195.723C282.892 195.723 285.54 197.139 285.803 200.627C288.458 198.775 287.548 193.246 286.325 190.542C286.132 190.114 285.728 189.826 285.253 189.77C284.886 189.727 284.607 189.678 284.424 189.64C284.283 189.611 284.142 189.709 284.112 189.853L282.892 195.723Z" fill="#FAFAFA"/>
<path d="M277.402 180.482C277.744 183.16 277.932 188.066 275.936 189.853C275.936 189.853 278.186 193.149 282.892 195.723C286.808 192.756 284.258 189.853 284.258 189.853C281.321 189.14 281.55 186.924 282.212 184.844L277.402 180.482Z" fill="#FF8B7B"/>
<path opacity="0.2" d="M279.363 182.262L282.21 184.842C282.051 185.334 281.92 185.834 281.852 186.319C280.723 186.154 278.995 185.182 278.835 183.942C278.759 183.355 279.247 182.54 279.363 182.262Z" fill="black"/>
<path d="M273.207 176.182C274.15 180.486 274.456 182.334 277.038 184.084C280.922 186.716 286.106 184.254 286.493 179.667C286.841 175.538 285.24 169.193 280.637 168.406C276.101 167.63 272.264 171.877 273.207 176.182Z" fill="#FF8B7B"/>
<path d="M274.436 180.06C277.21 177.417 277.309 174.151 276.606 173.129C278.988 172.929 285.148 171.434 284.159 169.14C283.169 166.846 273.582 165.6 272.257 171.483C269.083 174.127 271.111 179.462 274.436 180.06Z" fill="#263238"/>
<path d="M280.45 175.793C280.505 176.148 280.74 176.395 280.976 176.343C281.212 176.291 281.359 175.961 281.304 175.606C281.249 175.251 281.014 175.005 280.778 175.056C280.543 175.108 280.396 175.438 280.45 175.793Z" fill="#263238"/>
<path d="M284.528 174.9C284.583 175.255 284.818 175.502 285.054 175.45C285.29 175.398 285.437 175.068 285.382 174.713C285.327 174.358 285.092 174.111 284.856 174.163C284.62 174.215 284.473 174.545 284.528 174.9Z" fill="#263238"/>
<path d="M284.754 174.206L285.583 173.77C285.583 173.77 285.241 174.534 284.754 174.206Z" fill="#263238"/>
<path d="M283.369 175.816C283.369 175.816 284.216 177.212 285.004 177.802C284.595 178.344 283.755 178.321 283.755 178.321L283.369 175.816Z" fill="#FF5652"/>
<path d="M282.001 180.143C282.171 180.132 282.35 180.107 282.538 180.066C282.597 180.053 282.637 179.996 282.628 179.939C282.619 179.881 282.564 179.842 282.506 179.858C280.922 180.202 280.016 179.277 280.007 179.268C279.968 179.227 279.9 179.227 279.856 179.27C279.812 179.312 279.808 179.38 279.847 179.421C279.883 179.457 280.641 180.233 282.001 180.143Z" fill="#263238"/>
<path d="M272.628 180.475C273.089 181.248 273.881 181.711 274.622 181.849C275.737 182.057 276.268 181.022 275.938 180.011C275.64 179.101 274.701 177.896 273.593 178.146C272.5 178.393 272.1 179.591 272.628 180.475Z" fill="#FF8B7B"/>
<path d="M278.535 175.014C278.625 175.002 278.705 174.934 278.728 174.84C278.97 173.867 280.159 173.321 280.17 173.316C280.28 173.266 280.335 173.139 280.293 173.032C280.251 172.925 280.128 172.878 280.016 172.928C279.959 172.954 278.608 173.575 278.312 174.764C278.283 174.88 278.353 174.991 278.467 175.012C278.491 175.017 278.513 175.017 278.535 175.014Z" fill="#263238"/>
<path d="M285.516 172.056C285.589 172.059 285.664 172.026 285.711 171.96C285.783 171.861 285.764 171.729 285.67 171.664C284.727 171.014 283.791 171.397 283.752 171.414C283.64 171.461 283.582 171.587 283.622 171.695C283.662 171.803 283.783 171.852 283.895 171.806C283.932 171.79 284.661 171.504 285.41 172.021C285.443 172.042 285.479 172.054 285.516 172.056Z" fill="#263238"/>
<path d="M280.677 175.099L281.505 174.663C281.505 174.663 281.164 175.427 280.677 175.099Z" fill="#263238"/>
<path d="M269.258 217.17L268.677 218.811C268.604 218.938 268.746 219.068 268.958 219.068H287.821C287.986 219.068 288.129 218.987 288.146 218.883L288.424 217.242C288.443 217.128 288.307 217.032 288.126 217.032H269.567C269.429 217.032 269.304 217.088 269.258 217.17Z" fill="#407BFF"/>
<path opacity="0.2" d="M269.258 217.17L268.677 218.811C268.604 218.938 268.746 219.068 268.958 219.068H287.821C287.986 219.068 288.129 218.987 288.146 218.883L288.424 217.242C288.443 217.128 288.307 217.032 288.126 217.032H269.567C269.429 217.032 269.304 217.088 269.258 217.17Z" fill="white"/>
<path d="M271.669 219.245H271.172C271.073 219.245 271.001 219.194 271.012 219.132L271.391 217.001C271.402 216.939 271.492 216.888 271.591 216.888H272.088C272.187 216.888 272.259 216.939 272.248 217.001L271.869 219.132C271.858 219.194 271.768 219.245 271.669 219.245Z" fill="#407BFF"/>
<path opacity="0.4" d="M271.669 219.245H271.172C271.073 219.245 271.001 219.194 271.012 219.132L271.391 217.001C271.402 216.939 271.492 216.888 271.591 216.888H272.088C272.187 216.888 272.259 216.939 272.248 217.001L271.869 219.132C271.858 219.194 271.768 219.245 271.669 219.245Z" fill="black"/>
<path d="M286.411 219.245H285.914C285.815 219.245 285.743 219.194 285.754 219.132L286.133 217.001C286.144 216.939 286.234 216.888 286.333 216.888H286.83C286.929 216.888 287.001 216.939 286.99 217.001L286.611 219.132C286.6 219.194 286.51 219.245 286.411 219.245Z" fill="#407BFF"/>
<path opacity="0.4" d="M286.411 219.245H285.914C285.815 219.245 285.743 219.194 285.754 219.132L286.133 217.001C286.144 216.939 286.234 216.888 286.333 216.888H286.83C286.929 216.888 287.001 216.939 286.99 217.001L286.611 219.132C286.6 219.194 286.51 219.245 286.411 219.245Z" fill="black"/>
<path d="M279.071 219.245H278.574C278.475 219.245 278.403 219.194 278.414 219.132L278.793 217.001C278.804 216.939 278.894 216.888 278.993 216.888H279.49C279.589 216.888 279.661 216.939 279.65 217.001L279.271 219.132C279.26 219.194 279.17 219.245 279.071 219.245Z" fill="#407BFF"/>
<path opacity="0.4" d="M279.071 219.245H278.574C278.475 219.245 278.403 219.194 278.414 219.132L278.793 217.001C278.804 216.939 278.894 216.888 278.993 216.888H279.49C279.589 216.888 279.661 216.939 279.65 217.001L279.271 219.132C279.26 219.194 279.17 219.245 279.071 219.245Z" fill="black"/>
<path d="M270.118 196.988C269.604 200.042 269.014 203.082 268.411 206.12C268.123 207.641 267.789 209.154 267.474 210.671L266.995 212.944L266.788 213.927C266.771 213.982 266.766 214.034 266.798 214.154C266.858 214.386 267.131 214.835 267.556 215.246C267.974 215.667 268.511 216.078 269.083 216.463C270.239 217.239 271.566 217.893 272.909 218.531C274.259 219.164 275.66 219.736 277.081 220.266C278.491 220.819 279.952 221.315 281.375 221.791L280.859 224.018C277.713 223.501 274.674 222.739 271.63 221.682C270.109 221.152 268.612 220.51 267.12 219.679C266.376 219.253 265.633 218.781 264.905 218.158C264.195 217.531 263.424 216.771 262.947 215.541C262.714 214.935 262.589 214.201 262.664 213.486C262.713 213.058 262.736 212.972 262.767 212.756L262.856 212.182L263.212 209.887C263.453 208.358 263.675 206.825 263.944 205.302C264.454 202.249 264.977 199.199 265.576 196.162L270.118 196.988Z" fill="#FF8B7B"/>
<path d="M268.083 190.879C266.209 191.437 263.57 197.76 263.57 197.76L269.542 204.375C269.542 204.375 273.304 197.575 272.695 195.202C272.061 192.73 270.222 190.242 268.083 190.879Z" fill="#407BFF"/>
</g>
<path opacity="0.3" d="M257.32 112.846H328.976C330.337 112.846 331.516 111.742 331.61 110.381C331.703 109.02 330.675 107.916 329.314 107.916H257.658C256.297 107.916 255.118 109.02 255.025 110.381C254.93 111.742 255.958 112.846 257.32 112.846Z" fill="#407BFF"/>
<path opacity="0.3" d="M277.12 123.687H328.233C329.594 123.687 330.773 122.583 330.866 121.222C330.959 119.861 329.931 118.757 328.57 118.757H277.457C276.096 118.757 274.917 119.861 274.824 121.222C274.731 122.584 275.759 123.687 277.12 123.687Z" fill="#407BFF"/>
<path d="M289.065 102.004H329.718C331.079 102.004 332.258 100.9 332.351 99.539C332.444 98.178 331.416 97.074 330.055 97.074H289.402C288.041 97.074 286.862 98.178 286.768 99.539C286.676 100.901 287.704 102.004 289.065 102.004Z" fill="white"/>
<path opacity="0.3" d="M382.797 197.704H329.402C328.041 197.704 326.862 198.808 326.768 200.169C326.675 201.53 327.703 202.634 329.064 202.634H382.459C383.82 202.634 384.999 201.53 385.093 200.169C385.186 198.807 384.158 197.704 382.797 197.704Z" fill="#407BFF"/>
<path opacity="0.3" d="M355.341 186.862H330.144C328.783 186.862 327.604 187.966 327.51 189.327C327.417 190.688 328.445 191.792 329.806 191.792H355.003C356.364 191.792 357.543 190.688 357.637 189.327C357.73 187.965 356.702 186.862 355.341 186.862Z" fill="#407BFF"/>
<path d="M370.095 176.02H330.887C329.526 176.02 328.347 177.124 328.253 178.485C328.16 179.846 329.188 180.95 330.549 180.95H369.757C371.118 180.95 372.297 179.846 372.391 178.485C372.484 177.124 371.456 176.02 370.095 176.02Z" fill="white"/>
<path opacity="0.3" d="M401.8 186.862H365.998C364.637 186.862 363.458 187.966 363.365 189.327C363.272 190.688 364.3 191.792 365.661 191.792H401.463C402.824 191.792 404.003 190.688 404.097 189.327C404.189 187.965 403.161 186.862 401.8 186.862Z" fill="#407BFF"/>
<path opacity="0.3" d="M240.809 84.599H267.591L266.173 60.869L240.809 84.599Z" fill="#407BFF"/>
<path d="M240.809 84.599L269.48 81.167L266.173 60.869L240.809 84.599Z" fill="#407BFF"/>
<path d="M132.784 154.905C131.931 156.912 130.991 159.122 130.158 161.262C129.32 163.426 128.476 165.586 127.715 167.764C126.153 172.104 124.794 176.488 123.863 180.798C123.725 181.341 123.656 181.867 123.552 182.402L123.406 183.203L123.3 183.83C123.197 184.529 123.19 185.5 123.241 186.508C123.368 188.546 123.718 190.781 124.133 193.022C124.995 197.509 126.131 202.163 127.264 206.723L122.183 208.87C119.662 204.527 117.554 200.101 115.821 195.317C114.966 192.918 114.208 190.457 113.708 187.721C113.458 186.343 113.271 184.903 113.317 183.199L113.345 182.549C113.357 182.335 113.376 182.207 113.391 182.031L113.489 181.043C113.561 180.388 113.606 179.715 113.711 179.078C114.428 173.901 115.687 168.992 117.205 164.217C117.979 161.834 118.785 159.471 119.713 157.158C120.646 154.821 121.543 152.581 122.688 150.209L132.784 154.905Z" fill="#E0A5A3"/>
<path d="M127.087 205.436L130.989 209.243L122.481 213.201C122.481 213.201 120.416 209.596 121.842 206.336L127.087 205.436Z" fill="#E0A5A3"/>
<path d="M134.132 214.912L126.946 217.855L122.48 213.202L130.989 209.243L134.132 214.912Z" fill="#E0A5A3"/>
<g filter="url(#filter0_d_789_7942)">
<path d="M319.802 193.029C331.039 165.902 318.157 134.803 291.031 123.567C263.905 112.331 232.806 125.212 221.57 152.338C210.333 179.465 223.215 210.564 250.341 221.8C277.467 233.036 308.566 220.155 319.802 193.029Z" fill="#407BFF"/>
<path d="M270.677 223.05C298.492 223.05 321.041 200.501 321.041 172.686C321.041 144.871 298.492 122.322 270.677 122.322C242.862 122.322 220.313 144.871 220.313 172.686C220.313 200.501 242.862 223.05 270.677 223.05Z" fill="white"/>
<mask id="mask3_789_7942" style="mask-type:luminance" maskUnits="userSpaceOnUse" x="220" y="122" width="102" height="102">
<path d="M270.677 223.05C298.492 223.05 321.041 200.501 321.041 172.686C321.041 144.871 298.492 122.322 270.677 122.322C242.862 122.322 220.313 144.871 220.313 172.686C220.313 200.501 242.862 223.05 270.677 223.05Z" fill="white"/>
</mask>
<g mask="url(#mask3_789_7942)">
<path d="M292.544 184.285C293.097 188.403 293.58 192.541 294.028 196.674L295.385 209.02L295.569 210.503L295.781 211.829L296.07 213.21L296.423 214.62C296.938 216.507 297.529 218.432 298.185 220.35C299.469 224.198 300.975 228.066 302.44 231.897L298.982 233.742C296.587 230.183 294.526 226.507 292.6 222.66C291.673 220.722 290.781 218.747 290.015 216.668L289.454 215.087L288.954 213.443C288.806 212.876 288.676 212.286 288.539 211.706L288.227 210.102C287.463 205.924 286.832 201.805 286.256 197.659C285.66 193.52 285.125 189.383 284.687 185.223L292.544 184.285Z" fill="#FF8B7B"/>
<path d="M290.054 175.571C293.243 176.383 295.474 189.507 295.474 189.507L283.277 197.802C283.277 197.802 278.259 182.244 280.713 178.738C283.267 175.086 285.4 174.386 290.054 175.571Z" fill="#407BFF"/>
<path opacity="0.2" d="M289.766 178.502L292.216 191.73L287.276 195.08L289.766 178.502Z" fill="black"/>
<path d="M252.911 141.748C247.61 142.518 238.12 168.167 257.271 180.136C276.422 192.106 288.99 178.511 288.99 178.511C288.99 178.511 276.935 165.259 277.961 156.624C278.987 147.989 285.199 137.091 270.676 133.454C260.435 130.89 247.097 133.37 252.911 141.748Z" fill="#263238"/>
<path d="M290.054 175.571C290.054 175.571 293.74 176.869 286.356 222.273C273.886 222.273 260.997 222.273 254.929 222.273C255.456 209.483 255.471 201.596 249.358 175.347C249.358 175.347 255.943 173.915 262.703 173.589C267.991 173.334 272.324 173.165 276.973 173.59C283.103 174.148 290.054 175.571 290.054 175.571Z" fill="#407BFF"/>
<path opacity="0.2" d="M251.95 185.738C254.796 186.447 257.427 189.554 257.112 195.272C256.923 198.701 255.352 201.296 254.491 202.472C253.988 198.073 253.144 192.965 251.806 186.429L251.95 185.738Z" fill="black"/>
<path d="M275.32 183.654C275.32 183.654 270.166 187.894 270.166 192.405C265.886 189.269 260.118 180.728 259.513 175.274C259.411 174.354 260.146 173.545 261.07 173.49C261.551 173.461 261.938 173.4 262.215 173.343C262.543 173.275 262.878 173.36 263.136 173.573L275.32 183.654Z" fill="#FAFAFA"/>
<path d="M275.32 183.654C275.32 183.654 280.027 186.081 280.887 192.064C285.222 188.888 283.012 179.408 280.598 174.771C280.216 174.037 279.49 173.542 278.669 173.447C278.035 173.373 277.551 173.289 277.233 173.225C276.988 173.176 276.758 173.343 276.724 173.59L275.32 183.654Z" fill="#FAFAFA"/>
<path d="M264.117 157.52C265.017 162.112 265.915 170.525 262.703 173.588C262.703 173.588 266.947 179.239 275.319 183.653C281.685 178.566 276.973 173.588 276.973 173.588C271.853 172.365 271.985 168.567 272.877 164.999L264.117 157.52Z" fill="#FF8B7B"/>
<path opacity="0.2" d="M267.689 160.572L272.874 164.996C272.66 165.84 272.494 166.697 272.434 167.529C270.478 167.246 267.402 165.58 266.982 163.453C266.782 162.446 267.522 161.048 267.689 160.572Z" fill="black"/>
<path d="M256.419 150.145C258.542 157.525 259.283 160.695 263.916 163.695C270.885 168.208 279.486 163.987 279.611 156.121C279.724 149.041 276.233 138.161 268.247 136.811C260.378 135.482 254.296 142.765 256.419 150.145Z" fill="#FF8B7B"/>
<path d="M258.98 156.796C263.426 152.265 263.212 146.665 261.887 144.912C265.948 144.57 276.336 142.005 274.37 138.072C272.404 134.139 255.817 132.002 254.235 142.09C249.105 146.622 253.209 155.77 258.98 156.796Z" fill="#263238"/>
<path d="M268.794 149.479C268.929 150.088 269.362 150.51 269.76 150.422C270.158 150.333 270.371 149.768 270.236 149.159C270.101 148.55 269.668 148.128 269.27 148.216C268.872 148.304 268.659 148.87 268.794 149.479Z" fill="#263238"/>
<path d="M275.681 147.949C275.816 148.558 276.249 148.98 276.647 148.892C277.045 148.803 277.258 148.238 277.123 147.629C276.988 147.02 276.555 146.598 276.157 146.686C275.758 146.774 275.545 147.339 275.681 147.949Z" fill="#263238"/>
<path d="M275.988 146.758L277.358 146.011C277.358 146.011 276.861 147.321 275.988 146.758Z" fill="#263238"/>
<path d="M273.801 149.518C273.801 149.518 275.418 151.911 276.837 152.924C276.2 153.854 274.756 153.814 274.756 153.814L273.801 149.518Z" fill="#FF5652"/>
<path d="M271.964 156.939C272.254 156.92 272.558 156.878 272.877 156.807C272.976 156.785 273.038 156.687 273.017 156.589C272.995 156.49 272.896 156.423 272.798 156.45C270.122 157.04 268.46 155.454 268.444 155.438C268.371 155.367 268.256 155.368 268.185 155.441C268.114 155.513 268.116 155.63 268.188 155.7C268.252 155.762 269.642 157.092 271.964 156.939Z" fill="#263238"/>
<path d="M255.93 157.508C256.812 158.833 258.224 159.628 259.511 159.865C261.446 160.221 262.237 158.447 261.551 156.713C260.933 155.152 259.182 153.086 257.311 153.515C255.467 153.937 254.921 155.992 255.93 157.508Z" fill="#FF8B7B"/>
<path d="M265.418 148.143C265.571 148.122 265.7 148.006 265.729 147.845C266.03 146.176 268.004 145.24 268.023 145.231C268.207 145.146 268.286 144.928 268.201 144.744C268.116 144.561 267.9 144.48 267.714 144.566C267.618 144.61 265.376 145.675 265.008 147.714C264.972 147.913 265.104 148.104 265.304 148.14C265.343 148.148 265.382 148.148 265.418 148.143Z" fill="#263238"/>
<path d="M277.042 143.07C277.167 143.076 277.292 143.018 277.366 142.906C277.477 142.737 277.43 142.51 277.261 142.398C275.568 141.283 274.008 141.94 273.943 141.969C273.757 142.05 273.672 142.266 273.753 142.451C273.834 142.636 274.048 142.72 274.235 142.641C274.297 142.614 275.514 142.124 276.858 143.01C276.914 143.048 276.978 143.068 277.042 143.07Z" fill="#263238"/>
<path d="M269.102 148.289L270.472 147.542C270.472 147.542 269.974 148.852 269.102 148.289Z" fill="#263238"/>
<path d="M254.458 220.429L253.654 223.242C253.544 223.46 253.802 223.683 254.166 223.683H286.51C286.793 223.683 287.028 223.544 287.046 223.366L287.33 220.553C287.35 220.358 287.104 220.193 286.794 220.193H254.97C254.736 220.193 254.529 220.288 254.458 220.429Z" fill="#407BFF"/>
<path opacity="0.2" d="M254.458 220.429L253.654 223.242C253.544 223.46 253.802 223.683 254.166 223.683H286.51C286.793 223.683 287.028 223.544 287.046 223.366L287.33 220.553C287.35 220.358 287.104 220.193 286.794 220.193H254.97C254.736 220.193 254.529 220.288 254.458 220.429Z" fill="white"/>
<path d="M258.838 223.987H257.986C257.816 223.987 257.687 223.9 257.699 223.793L258.099 220.138C258.111 220.031 258.259 219.943 258.429 219.943H259.281C259.451 219.943 259.58 220.03 259.568 220.138L259.168 223.793C259.156 223.9 259.007 223.987 258.838 223.987Z" fill="#407BFF"/>
<path opacity="0.4" d="M258.838 223.987H257.986C257.816 223.987 257.687 223.9 257.699 223.793L258.099 220.138C258.111 220.031 258.259 219.943 258.429 219.943H259.281C259.451 219.943 259.58 220.03 259.568 220.138L259.168 223.793C259.156 223.9 259.007 223.987 258.838 223.987Z" fill="black"/>
<path d="M284.115 223.987H283.263C283.093 223.987 282.964 223.9 282.976 223.793L283.376 220.138C283.388 220.031 283.536 219.943 283.706 219.943H284.558C284.728 219.943 284.857 220.03 284.845 220.138L284.445 223.793C284.433 223.9 284.284 223.987 284.115 223.987Z" fill="#407BFF"/>
<path opacity="0.4" d="M284.115 223.987H283.263C283.093 223.987 282.964 223.9 282.976 223.793L283.376 220.138C283.388 220.031 283.536 219.943 283.706 219.943H284.558C284.728 219.943 284.857 220.03 284.845 220.138L284.445 223.793C284.433 223.9 284.284 223.987 284.115 223.987Z" fill="black"/>
<path d="M271.528 223.987H270.676C270.506 223.987 270.377 223.9 270.389 223.793L270.789 220.138C270.801 220.031 270.949 219.943 271.119 219.943H271.971C272.141 219.943 272.27 220.03 272.258 220.138L271.858 223.793C271.846 223.9 271.698 223.987 271.528 223.987Z" fill="#407BFF"/>
<path opacity="0.4" d="M271.528 223.987H270.676C270.506 223.987 270.377 223.9 270.389 223.793L270.789 220.138C270.801 220.031 270.949 219.943 271.119 219.943H271.971C272.141 219.943 272.27 220.03 272.258 220.138L271.858 223.793C271.846 223.9 271.698 223.987 271.528 223.987Z" fill="black"/>
<path d="M253.555 185.56C253.301 188.225 252.967 190.88 252.676 193.541L251.665 201.507C251.346 204.164 250.934 206.811 250.569 209.463L250.005 213.439L249.822 214.705C249.819 214.807 249.848 214.989 249.977 215.259C250.223 215.805 250.865 216.584 251.673 217.286C252.487 218 253.456 218.685 254.487 219.327C256.546 220.636 258.857 221.75 261.202 222.828C263.557 223.896 265.991 224.862 268.459 225.761C270.907 226.699 273.438 227.541 275.906 228.35L275.035 232.171C269.603 231.289 264.346 230.002 259.083 228.233C256.45 227.355 253.854 226.296 251.263 224.952C249.973 224.267 248.689 223.49 247.421 222.523C246.168 221.535 244.867 220.396 243.824 218.586C243.317 217.683 242.895 216.577 242.766 215.344C242.746 215.035 242.719 214.725 242.73 214.414C242.738 214.131 242.768 213.713 242.779 213.613L242.865 212.613L243.213 208.614C243.455 205.95 243.651 203.28 243.939 200.62L244.751 192.636C245.067 189.98 245.34 187.319 245.694 184.667L253.555 185.56Z" fill="#FF8B7B"/>
<path d="M249.358 175.347C246.21 176.305 242.428 187.146 242.428 187.146L253.445 198.49C253.445 198.49 259.098 186.83 257.775 182.76C256.397 178.521 252.951 174.254 249.358 175.347Z" fill="#407BFF"/>
</g>
<g opacity="0.2" filter="url(#filter1_d_789_7942)">
<path d="M222.522 185.661C215.355 159.071 231.099 131.699 257.695 124.53C284.292 117.361 311.659 133.113 318.826 159.703C325.995 186.3 310.251 213.671 283.654 220.84C257.058 228.009 229.691 212.258 222.522 185.661Z" fill="#407BFF"/>
</g>
<path opacity="0.2" d="M306.823 138.32L265.753 222.32C269.223 222.67 272.774 222.66 276.343 222.23L313.273 146.73C311.413 143.68 309.253 140.86 306.823 138.32ZM318.823 159.7C318.733 159.38 318.643 159.05 318.553 158.73L289.063 219.05C312.343 209.85 325.493 184.44 318.823 159.7ZM257.693 124.53C231.103 131.7 215.353 159.07 222.523 185.66C225.173 195.5 230.593 203.85 237.713 210.11L279.983 123.68C272.803 122.31 265.223 122.5 257.693 124.53Z" fill="white"/>
<path d="M214.564 167.27L213.568 167.174C213.733 165.462 213.977 163.741 214.297 162.061L215.279 162.248C214.966 163.899 214.726 165.588 214.564 167.27ZM216.504 157.117L215.543 156.839C216.823 152.417 218.65 148.127 220.975 144.086L221.842 144.585C219.557 148.556 217.761 152.772 216.504 157.117Z" fill="#407BFF"/>
<g filter="url(#filter2_d_789_7942)">
<path d="M322.659 158.671C314.921 129.961 285.372 112.959 256.662 120.698C227.952 128.436 210.95 157.985 218.689 186.695C226.429 215.409 255.978 232.411 284.687 224.673C313.397 216.935 330.399 187.386 322.659 158.671ZM222.522 185.661C215.355 159.071 231.099 131.699 257.695 124.53C284.292 117.361 311.659 133.113 318.826 159.703C325.995 186.3 310.251 213.671 283.654 220.84C257.058 228.009 229.691 212.258 222.522 185.661Z" fill="#407BFF"/>
</g>
<path d="M223.324 193.906C223.295 196.203 222.727 196.498 222.099 196.574L220.285 197.053L216.656 198.011L209.398 199.928L194.853 203.661C185.144 206.1 175.415 208.469 165.673 210.787L136.451 217.756L121.857 221.303C116.999 222.51 112.116 223.625 107.311 225.031C105.258 225.632 103.107 224.455 102.505 222.402C101.904 220.349 103.081 218.197 105.134 217.596C105.183 217.582 105.246 217.565 105.295 217.553C110.155 216.354 114.937 214.864 119.744 213.466L134.144 209.198L162.911 200.537C172.498 197.645 182.099 194.804 191.72 192.033L206.17 187.951L213.409 185.961L217.028 184.966L218.837 184.468C219.418 184.218 220.058 184.188 221.237 186.159C222.679 188.57 223.349 191.288 223.324 193.906Z" fill="#407BFF"/>
</g>
<path d="M160.398 119.296C160.397 119.889 160.711 120.369 161.098 120.37C161.485 120.37 161.8 119.89 161.8 119.298C161.801 118.706 161.487 118.225 161.099 118.225C160.712 118.223 160.398 118.703 160.398 119.296Z" fill="#263238"/>
<path d="M160.656 120.369C160.656 120.369 162 123.789 163.482 125.439C162.433 126.417 160.651 125.968 160.651 125.968L160.656 120.369Z" fill="#D95D75"/>
<path d="M158.301 116.01C158.193 116.01 158.086 115.96 158.018 115.865C157.906 115.709 157.941 115.492 158.097 115.379C159.66 114.254 161.164 114.818 161.228 114.843C161.407 114.913 161.496 115.114 161.426 115.293C161.357 115.472 161.153 115.559 160.978 115.492C160.929 115.473 159.751 115.046 158.503 115.943C158.442 115.989 158.371 116.01 158.301 116.01Z" fill="#263238"/>
<path d="M141.324 123.128C141.845 128.918 141.925 139.445 137.829 142.896C137.829 142.896 138.756 148.806 148.7 149.728C159.634 150.742 154.461 144.439 154.461 144.439C148.634 142.37 149.225 137.674 150.675 133.348L141.324 123.128Z" fill="#E0A5A3"/>
<path d="M124.036 144.767C117.664 147.817 114.996 168.333 114.996 168.333L129.647 174.079C129.647 174.079 133.151 165.78 135.154 156.925C137.252 147.648 130.551 141.649 124.036 144.767Z" fill="#407BFF"/>
<path opacity="0.3" d="M124.036 144.767C117.664 147.817 114.996 168.333 114.996 168.333L129.647 174.079C129.647 174.079 133.151 165.78 135.154 156.925C137.252 147.648 130.551 141.649 124.036 144.767Z" fill="black"/>
<path opacity="0.2" d="M133.532 150.8C134.052 150.55 134.572 150.36 135.092 150.23C135.642 152.15 135.722 154.42 135.152 156.93C133.152 165.78 129.652 174.08 129.652 174.08L124.822 172.19C125.712 166.82 128.442 153.24 133.532 150.8Z" fill="black"/>
<path d="M166.52 144.611C166.52 144.611 174.339 153.443 166.955 208.108C155.116 208.108 133.423 208.108 127.662 208.108C127.391 202.076 131.181 172.652 125.364 144.232C125.364 144.232 132.099 142.88 138.517 142.571C143.538 142.329 150.807 142.169 155.22 142.572C161.039 143.103 166.52 144.611 166.52 144.611Z" fill="#407BFF"/>
<path opacity="0.3" d="M166.52 144.611C166.52 144.611 174.339 153.443 166.955 208.108C155.116 208.108 133.423 208.108 127.662 208.108C127.391 202.076 131.181 172.652 125.364 144.232C125.364 144.232 132.099 142.88 138.517 142.571C143.538 142.329 150.807 142.169 155.22 142.572C161.039 143.103 166.52 144.611 166.52 144.611Z" fill="black"/>
<path opacity="0.2" d="M158.612 156.33C160.392 150.99 164.672 149.28 169.032 152.45C169.912 157.63 170.532 165.98 169.822 179.22L162.152 179.15C162.152 179.15 155.962 164.28 158.612 156.33Z" fill="black"/>
<path d="M171.064 152.684C171.438 154.966 171.856 157.466 172.334 159.847C172.825 162.249 173.311 164.651 173.888 167.015C175.012 171.741 176.336 176.412 178.104 180.621C178.546 181.665 179.013 182.68 179.516 183.631L180.173 184.806C180.266 185 180.488 185.268 180.739 185.548C181.828 186.743 183.767 187.98 185.757 189.088C189.825 191.281 194.508 193.194 199.072 194.946L197.975 200.352C192.61 199.922 187.472 198.987 182.2 197.131C180.885 196.655 179.559 196.121 178.232 195.436C176.902 194.752 175.55 193.963 174.181 192.852C173.501 192.268 172.818 191.633 172.161 190.798L171.677 190.163L171.366 189.698C171.163 189.388 170.947 189.077 170.757 188.766C169.977 187.52 169.291 186.266 168.651 185.008C166.175 179.962 164.493 174.865 163.108 169.739C162.436 167.172 161.821 164.605 161.325 162.017C160.82 159.408 160.359 156.895 160.026 154.139L171.064 152.684Z" fill="#E0A5A3"/>
<path d="M156.702 149.968C154.632 156.68 163.026 176.685 163.026 176.685L180.722 172.235C180.722 172.235 179.098 162.089 175.29 153.839C169.547 141.393 159.186 141.913 156.702 149.968Z" fill="#407BFF"/>
<path opacity="0.3" d="M156.702 149.968C154.632 156.68 163.026 176.685 163.026 176.685L180.722 172.235C180.722 172.235 179.098 162.089 175.29 153.839C169.547 141.393 159.186 141.913 156.702 149.968Z" fill="black"/>
<path d="M199.177 194.956L206.765 198.371L199.414 204.44C199.414 204.44 196.168 203.381 195.639 198.057L194.506 193.639L197.84 194.489C198.299 194.605 198.746 194.762 199.177 194.956Z" fill="#E0A5A3"/>
<path d="M210.803 202.095L203.406 206.499L199.414 204.439L206.765 198.371L210.803 202.095Z" fill="#E0A5A3"/>
<path d="M158.558 141.922C155.388 139.242 147.691 137.315 139.066 136.833C134.143 136.559 129.077 137.367 126.961 138.309C124.844 139.25 127.345 146.044 130.107 146.19C128.651 148.487 130.77 152.927 133.938 153.797C133.436 157.638 143.118 157.996 148.977 154.9C153.643 152.434 162.357 145.134 158.558 141.922Z" fill="#263238"/>
<path d="M140.635 118.023C141.076 125.301 140.964 129.583 144.636 133.321C150.16 138.944 159.146 135.619 160.888 128.357C162.456 121.82 161.472 111.017 154.351 108.115C147.336 105.255 140.194 110.745 140.635 118.023Z" fill="#E0A5A3"/>
<path d="M154.264 122.056C157.005 119.278 161.53 113.223 159.949 108.667C157.616 101.945 150.671 104.222 151.782 105.556C147.745 102.917 139.699 102.792 141.393 106.334C134.115 107.334 133.53 110.279 135.545 111.39C130.365 116.334 130.615 121.445 134.543 121.057C131.56 124.057 137.06 130.001 143.227 132.835C145.338 127.333 156.579 126.329 154.264 122.056Z" fill="#263238"/>
<path d="M151.073 124.694C151.024 124.694 150.975 124.68 150.932 124.651C150.818 124.573 150.788 124.418 150.866 124.304C152.449 121.978 153.991 120.118 155.351 118.476C157.952 115.339 159.831 113.073 159.991 109.986C160.121 107.491 158.655 105.307 156.07 104.143C154.208 103.304 152.209 103.254 151.421 104.028C151.002 104.439 150.963 105.051 151.303 105.847C151.358 105.974 151.299 106.12 151.172 106.175C151.045 106.228 150.898 106.171 150.844 106.043C150.308 104.793 150.672 104.063 151.072 103.671C152.014 102.747 154.202 102.754 156.277 103.687C159.056 104.94 160.632 107.304 160.492 110.012C160.323 113.265 158.399 115.585 155.737 118.795C154.383 120.428 152.849 122.278 151.281 124.585C151.231 124.656 151.153 124.694 151.073 124.694Z" fill="#263238"/>
<path d="M151.428 121.237C151.542 123.143 152.428 124.937 153.493 126.109C155.095 127.873 156.766 126.774 157.049 124.625C157.304 122.691 156.778 119.442 154.82 118.469C152.89 117.512 151.297 119.057 151.428 121.237Z" fill="#E0A5A3"/>
<path d="M153.016 208.108C153.016 208.108 155.496 257.632 150.668 278.609C143.022 311.835 128.386 350.357 128.386 350.357L114.77 347.793C114.77 347.793 126.24 309.21 128.727 281.555C130.961 256.711 127.661 228.177 127.661 208.109C136.814 208.108 153.016 208.108 153.016 208.108Z" fill="#263238"/>
<path opacity="0.2" d="M149.332 222.78C150.354 220.848 152.282 226.6 153.642 233.98C153.682 244.16 153.462 255.74 152.572 265.55C145.774 253 147.219 226.778 149.332 222.78Z" fill="black"/>
<path d="M166.955 208.108C166.955 208.108 178.02 255.009 178.799 277.412C179.673 302.537 170.904 361.8 170.904 361.8H158.46C158.46 361.8 156.928 302.076 156.374 279.191C155.77 254.242 141.126 208.108 141.126 208.108H166.955Z" fill="#263238"/>
<defs>
<filter id="filter0_d_789_7942" x="28.3479" y="44.8292" width="370.18" height="255.712" filterUnits="userSpaceOnUse" color-interpolation-filters="sRGB">
<feFlood flood-opacity="0" result="BackgroundImageFix"/>
<feColorMatrix in="SourceAlpha" type="matrix" values="0 0 0 0 0 0 0 0 0 0 0 0 0 0 0 0 0 0 127 0" result="hardAlpha"/>
<feOffset/>
<feGaussianBlur stdDeviation="37"/>
<feColorMatrix type="matrix" values="0 0 0 0 0.141176 0 0 0 0 0.372549 0 0 0 0 1 0 0 0 0.68 0"/>
<feBlend mode="normal" in2="BackgroundImageFix" result="effect1_dropShadow_789_7942"/>
<feBlend mode="normal" in="SourceGraphic" in2="effect1_dropShadow_789_7942" result="shape"/>
</filter>
<filter id="filter1_d_789_7942" x="146.791" y="48.7991" width="247.766" height="247.772" filterUnits="userSpaceOnUse" color-interpolation-filters="sRGB">
<feFlood flood-opacity="0" result="BackgroundImageFix"/>
<feColorMatrix in="SourceAlpha" type="matrix" values="0 0 0 0 0 0 0 0 0 0 0 0 0 0 0 0 0 0 127 0" result="hardAlpha"/>
<feOffset/>
<feGaussianBlur stdDeviation="37"/>
<feColorMatrix type="matrix" values="0 0 0 0 0.141176 0 0 0 0 0.372549 0 0 0 0 1 0 0 0 0.68 0"/>
<feBlend mode="normal" in2="BackgroundImageFix" result="effect1_dropShadow_789_7942"/>
<feBlend mode="normal" in="SourceGraphic" in2="effect1_dropShadow_789_7942" result="shape"/>
</filter>
<filter id="filter2_d_789_7942" x="142.82" y="44.8292" width="255.708" height="255.712" filterUnits="userSpaceOnUse" color-interpolation-filters="sRGB">
<feFlood flood-opacity="0" result="BackgroundImageFix"/>
<feColorMatrix in="SourceAlpha" type="matrix" values="0 0 0 0 0 0 0 0 0 0 0 0 0 0 0 0 0 0 127 0" result="hardAlpha"/>
<feOffset/>
<feGaussianBlur stdDeviation="37"/>
<feColorMatrix type="matrix" values="0 0 0 0 0.141176 0 0 0 0 0.372549 0 0 0 0 1 0 0 0 0.68 0"/>
<feBlend mode="normal" in2="BackgroundImageFix" result="effect1_dropShadow_789_7942"/>
<feBlend mode="normal" in="SourceGraphic" in2="effect1_dropShadow_789_7942" result="shape"/>
</filter>
</defs>
</svg>
