<svg width="83" height="23" viewBox="0 0 83 23" fill="none" xmlns="http://www.w3.org/2000/svg">
<g clip-path="url(#clip0_4296_118)">
<path d="M8.99436 0H0V21.5102L8.99436 0Z" fill="#FA0C00"/>
<path d="M15.3225 0H24.3052V21.5102L15.3225 0Z" fill="#FA0C00"/>
<path d="M12.1578 7.92793L17.8826 21.5102H14.1266L12.4156 17.1859H8.22604L12.1578 7.92793Z" fill="#FA0C00"/>
<path d="M38.9794 13.6779L40.0401 16.719C40.0752 16.7952 40.128 16.8303 40.2217 16.8303H42.2607C42.3722 16.8303 42.3897 16.7775 42.3722 16.6662L38.1592 4.96477C38.1415 4.87102 38.1239 4.85344 38.0302 4.85344H35.4989C35.4287 4.85344 35.3876 4.90617 35.3876 4.98235C35.3525 5.59759 35.2997 5.7851 35.2235 5.96675L31.4675 16.6486C31.45 16.7775 31.4911 16.8303 31.5965 16.8303H33.4188C33.5301 16.8303 33.5829 16.7952 33.6238 16.6837L34.6258 13.6779H38.9794ZM35.2059 11.6915C35.7567 10.0274 36.4833 7.89453 36.7763 6.67575H36.7938C37.1572 7.95312 38.0126 10.4844 38.3993 11.6915H35.2059Z" fill="#FA0C00"/>
<path d="M47.7877 17.0149C48.8834 17.0149 50.0494 16.8157 51.2331 16.3058C51.3269 16.2707 51.3444 16.2298 51.3444 16.1419C51.3093 15.8137 51.2682 15.3391 51.2682 14.9758V3.95987C51.2682 3.88956 51.2682 3.8544 51.1803 3.8544H49.1939C49.1177 3.8544 49.0826 3.88956 49.0826 3.98331V7.71583C48.7721 7.68067 48.5552 7.66309 48.2975 7.66309C45.0922 7.66309 43.1234 9.77838 43.1234 12.421C43.1234 15.4856 45.145 17.0149 47.7877 17.0149ZM49.0826 14.9758C48.7544 15.0812 48.3913 15.1223 48.0221 15.1223C46.5689 15.1223 45.3793 14.3019 45.3793 12.3097C45.3793 10.546 46.604 9.50297 48.2272 9.50297C48.5552 9.50297 48.8423 9.53813 49.0826 9.63189V14.9758Z" fill="#FA0C00"/>
<path d="M57.6823 7.66367C54.9459 7.66367 53.2525 9.76138 53.2525 12.3513C53.2525 14.6658 54.6002 17.0155 57.6413 17.0155C60.2136 17.0155 62.0183 15.1229 62.0183 12.2927C62.0183 9.79654 60.489 7.66367 57.6823 7.66367ZM57.571 9.50355C59.1178 9.50355 59.7741 10.8337 59.7741 12.3513C59.7741 14.2263 58.8073 15.158 57.6823 15.158C56.2936 15.158 55.4733 13.992 55.4733 12.3103C55.4733 10.5817 56.3464 9.50355 57.571 9.50355Z" fill="#FA0C00"/>
<path d="M64.0714 3.8544C63.9952 3.8544 63.9424 3.88956 63.9424 3.98331V16.4524C63.9424 16.5052 63.9952 16.5989 64.0714 16.6165C64.9444 16.886 65.8585 17.0149 66.8019 17.0149C69.5031 17.0149 72.1282 15.3391 72.1282 11.964C72.1282 9.52055 70.4524 7.66309 67.8273 7.66309C67.2237 7.66309 66.6612 7.75684 66.169 7.92091L66.1456 4.00089C66.1456 3.87198 66.1105 3.8544 65.9815 3.8544H64.0714ZM69.884 12.1866C69.884 14.2082 68.5011 15.1574 67.0069 15.1574C66.6964 15.1574 66.421 15.1398 66.169 15.0636V9.74322C66.4561 9.63189 66.8019 9.53813 67.4406 9.53813C68.882 9.53813 69.884 10.4522 69.884 12.1866Z" fill="#FA0C00"/>
<path d="M79.5411 12.8435C80.4317 12.8435 81.1641 12.8259 81.4162 12.7673C81.5099 12.7497 81.545 12.7146 81.5626 12.6384C81.6154 12.4392 81.6388 12.0232 81.6388 11.5134C81.6388 9.77896 80.5958 7.66367 77.9004 7.66367C75.1464 7.66367 73.617 9.90786 73.617 12.4392C73.617 14.6834 74.8007 17.0155 78.1171 17.0155C79.3594 17.0155 80.1621 16.8163 80.8536 16.4881C80.9238 16.453 80.9591 16.3943 80.9591 16.2889V14.7713C80.9591 14.6834 80.9063 14.6658 80.8536 14.701C80.1621 14.9939 79.4121 15.1404 78.5919 15.1404C76.7344 15.1404 75.8906 14.115 75.8378 12.8435H79.5411ZM75.8378 11.2731C75.9844 10.3825 76.5469 9.41567 77.8066 9.41567C79.1953 9.41567 79.5587 10.5817 79.5587 11.1091C79.5587 11.1266 79.5587 11.2028 79.5587 11.2556C79.4825 11.2731 79.2481 11.2731 78.5566 11.2731H75.8378Z" fill="#FA0C00"/>
</g>
<defs>
<clipPath id="clip0_4296_118">
<rect width="82.5021" height="22.5006" fill="white"/>
</clipPath>
</defs>
</svg>
