<svg width="100" height="22" viewBox="0 0 100 22" fill="none" xmlns="http://www.w3.org/2000/svg">
<g clip-path="url(#clip0_4296_137)">
<path d="M39.811 11.1691L38.083 6.56987C38.0671 6.52842 38.0389 6.49279 38.0023 6.46766C37.9657 6.44253 37.9223 6.42907 37.8779 6.42907C37.8335 6.42907 37.7901 6.44253 37.7535 6.46766C37.7168 6.49279 37.6888 6.52842 37.6727 6.56987L35.9448 11.1699C35.9328 11.2025 35.929 11.2376 35.9336 11.272C35.9383 11.3065 35.9513 11.3393 35.9715 11.3675C35.9918 11.3958 36.0186 11.4187 36.0497 11.4343C36.0808 11.4498 36.1152 11.4574 36.1499 11.4566H39.6205C39.6722 11.4572 39.7221 11.4382 39.7604 11.4034C39.7985 11.3686 39.8221 11.3206 39.8264 11.2691C39.8296 11.2353 39.8243 11.2012 39.811 11.1699V11.1691ZM40.6161 13.75H35.1396C35.095 13.7503 35.0514 13.7642 35.0148 13.7898C34.9782 13.8154 34.9501 13.8515 34.9345 13.8934L33.8507 16.7625C33.8351 16.8043 33.8072 16.8403 33.7707 16.8659C33.7343 16.8915 33.6909 16.9054 33.6463 16.9059H31.272C31.2357 16.9064 31.1999 16.8979 31.1678 16.8811C31.1357 16.8643 31.1082 16.8398 31.0879 16.8097C31.0676 16.7796 31.0551 16.745 31.0516 16.7089C31.0481 16.6728 31.0535 16.6364 31.0676 16.6029L36.5293 3.19634C36.5457 3.15577 36.5743 3.12136 36.6113 3.098C36.6482 3.07464 36.6916 3.06351 36.7352 3.06619H39.0043C39.0474 3.06645 39.0896 3.07879 39.126 3.1018C39.1624 3.12481 39.1915 3.15756 39.2102 3.19634L44.6713 16.6029C44.6853 16.6365 44.6908 16.673 44.6872 16.7092C44.6836 16.7454 44.671 16.7801 44.6507 16.8102C44.6304 16.8403 44.6029 16.8649 44.5706 16.8818C44.5384 16.8986 44.5025 16.9071 44.4661 16.9066H42.0955C42.0507 16.9062 42.0071 16.8923 41.9705 16.8665C41.9339 16.8408 41.906 16.8046 41.8904 16.7625L40.8065 13.8934C40.7962 13.8511 40.7717 13.8137 40.737 13.7874C40.7023 13.7612 40.6596 13.7477 40.6161 13.7493V13.75ZM45.7999 7.76617H47.836C47.8935 7.76728 47.9483 7.79044 47.9892 7.83081C48.0301 7.8711 48.054 7.92566 48.0558 7.98309V16.6912C48.054 16.7485 48.0301 16.8029 47.9891 16.843C47.9482 16.8831 47.8933 16.9059 47.836 16.9066H45.8007C45.7432 16.9061 45.6882 16.8834 45.6471 16.8432C45.606 16.8031 45.582 16.7486 45.5801 16.6912V7.98309C45.5798 7.95419 45.5853 7.92559 45.5963 7.8989C45.6074 7.8722 45.6237 7.84801 45.6443 7.82772C45.6649 7.8075 45.6893 7.79162 45.7162 7.78103C45.7431 7.77044 45.7718 7.76537 45.8007 7.76617H45.7999ZM55.4661 9.88529C55.4644 9.94287 55.4407 9.99757 55.3997 10.0381C55.3588 10.0786 55.3039 10.1018 55.2463 10.1029H55.1874C54.1771 10.1029 53.4448 10.3324 52.9764 10.8088C52.508 11.2853 52.2735 12.0632 52.2735 13.1574V16.6757C52.2716 16.7331 52.2479 16.7875 52.2071 16.8279C52.1664 16.8682 52.1117 16.8914 52.0543 16.8926H50.047C49.9897 16.8914 49.935 16.8682 49.8943 16.8279C49.8535 16.7875 49.8298 16.7331 49.8279 16.6757V7.98309C49.8298 7.92566 49.8536 7.8711 49.8946 7.83081C49.9354 7.79044 49.9903 7.76728 50.0477 7.76617H52.0389C52.0965 7.76713 52.1515 7.79014 52.1926 7.83051C52.2337 7.87088 52.2576 7.92551 52.2595 7.98309V9.69853H52.3029C52.5062 9.04691 52.9049 8.47353 53.4448 8.05588C54.0092 7.65779 54.6884 7.45529 55.3786 7.47941H55.4808V9.88603H55.4661V9.88529ZM61.0161 9.8C60.959 9.80095 60.9045 9.82367 60.8637 9.86367C60.8229 9.9036 60.799 9.95765 60.797 10.0147V13.6338C60.7698 13.9169 60.8477 14.1993 61.0161 14.4279C61.1632 14.5853 61.4117 14.6574 61.7779 14.6574H61.983C62.0404 14.6587 62.095 14.6818 62.1358 14.7222C62.1765 14.7626 62.2003 14.817 62.2021 14.8743V16.6904C62.2003 16.7476 62.1765 16.8019 62.1357 16.842C62.0949 16.8821 62.0402 16.905 61.983 16.9059H61.1198C60.2257 16.9059 59.5382 16.675 59.0551 16.2279C58.5713 15.7676 58.3374 15.1037 58.3374 14.1963V10.0147C58.3354 9.95743 58.3113 9.90316 58.2702 9.86316C58.2291 9.82316 58.1742 9.80051 58.1168 9.8H56.8433C56.7859 9.79875 56.7311 9.77544 56.6904 9.73492C56.6496 9.69441 56.6259 9.63978 56.6242 9.58235V7.98309C56.6259 7.92573 56.6496 7.87117 56.6904 7.83081C56.7312 7.79044 56.786 7.76728 56.8433 7.76617H58.1176C58.1749 7.76544 58.2298 7.74265 58.2707 7.70257C58.3117 7.66242 58.3356 7.60809 58.3374 7.55073V4.3206C58.3393 4.26331 58.3632 4.20894 58.4042 4.16881C58.4451 4.12868 58.5 4.10589 58.5573 4.10516H60.5926C60.6499 4.10589 60.7048 4.12868 60.7457 4.16881C60.7867 4.20894 60.8106 4.26331 60.8124 4.3206V7.55073C60.8143 7.60809 60.8382 7.66242 60.8792 7.70257C60.9201 7.74265 60.975 7.76544 61.0323 7.76617H62.4963C62.5538 7.76728 62.6086 7.79044 62.6495 7.83081C62.6904 7.8711 62.7143 7.92566 62.7161 7.98309V9.58235C62.7144 9.63992 62.6907 9.69463 62.6497 9.73515C62.6088 9.77566 62.5539 9.7989 62.4963 9.8H61.0161ZM70.3154 14.1824C70.5496 13.9346 70.7312 13.6422 70.8495 13.3225C70.9677 13.0028 71.0201 12.6625 71.0036 12.3221C71.0167 11.982 70.9626 11.6426 70.8446 11.3235C70.7265 11.0043 70.5467 10.7115 70.3154 10.4618C69.8196 10.0079 69.1718 9.7561 68.4996 9.7561C67.8274 9.7561 67.1796 10.0079 66.6838 10.4618C66.4496 10.7095 66.2679 11.002 66.1497 11.3216C66.0315 11.6413 65.979 11.9816 65.9955 12.3221C65.9825 12.6621 66.0365 13.0015 66.1546 13.3207C66.2727 13.6399 66.4525 13.9326 66.6838 14.1824C66.9214 14.419 67.2054 14.6038 67.518 14.7253C67.8306 14.8468 68.1649 14.9023 68.4999 14.8882C68.8355 14.9069 69.1712 14.8536 69.4844 14.7319C69.7977 14.6101 70.0812 14.4228 70.3161 14.1824H70.3154ZM65.6286 16.6191C64.941 16.2293 64.3815 15.6478 64.0183 14.9456C63.6326 14.1247 63.4325 13.2287 63.4325 12.3217C63.4325 11.4146 63.6326 10.5187 64.0183 9.69779C64.3859 8.99897 64.9443 8.41889 65.6286 8.025C66.3163 7.63801 67.094 7.43919 67.883 7.44853C68.5282 7.43272 69.1673 7.57669 69.7433 7.86764C70.2525 8.13728 70.678 8.54139 70.9735 9.03603H71.0176V7.96691C71.0196 7.90978 71.0435 7.85566 71.0843 7.81559C71.125 7.77551 71.1796 7.75257 71.2367 7.75147H73.2433C73.3006 7.75242 73.3554 7.77522 73.3962 7.81537C73.4371 7.85544 73.4611 7.9097 73.4632 7.96691V16.6743C73.4615 16.732 73.4376 16.7868 73.3965 16.8274C73.3554 16.8679 73.3003 16.891 73.2426 16.8919H71.2382C71.1806 16.8908 71.1257 16.8676 71.0847 16.8271C71.0438 16.7865 71.02 16.7318 71.0183 16.6743V15.6081H70.9742C70.6787 16.1032 70.253 16.5076 69.7433 16.7772C69.1669 17.0671 68.5281 17.2107 67.883 17.1956C67.094 17.205 66.3163 17.0062 65.6286 16.6191ZM81.8257 14.1824C82.0596 13.9346 82.2412 13.6421 82.3596 13.3224C82.4779 13.0028 82.5301 12.6625 82.514 12.3221C82.5272 11.982 82.4728 11.6426 82.3551 11.3235C82.2368 11.0043 82.0566 10.7115 81.8257 10.4618C81.3301 10.0076 80.6816 9.75573 80.0096 9.75573C79.3375 9.75573 78.689 10.0076 78.1934 10.4618C77.9596 10.7096 77.7779 11.0021 77.6596 11.3218C77.5419 11.6415 77.489 11.9817 77.5059 12.3221C77.4926 12.6621 77.5471 13.0015 77.6647 13.3207C77.7831 13.6399 77.9625 13.9326 78.1941 14.1824C78.4316 14.419 78.7154 14.6038 79.0287 14.7253C79.3412 14.8468 79.675 14.9023 80.0103 14.8882C80.3456 14.9068 80.6816 14.8535 80.9949 14.7318C81.3081 14.61 81.5912 14.4227 81.8265 14.1824H81.8257ZM78.7801 16.7765C78.2706 16.5068 77.8449 16.1024 77.5493 15.6074H77.5051V16.675C77.5029 16.7324 77.4794 16.7868 77.439 16.8271C77.3978 16.8674 77.3434 16.8907 77.286 16.8919H75.25C75.1926 16.8907 75.1382 16.8674 75.0971 16.8271C75.0566 16.7868 75.0324 16.7324 75.0309 16.675V3.26766C75.0324 3.21042 75.0566 3.15608 75.0971 3.11585C75.1382 3.07562 75.1926 3.05259 75.25 3.05148H77.286C77.3434 3.05239 77.3978 3.07525 77.439 3.11534C77.4801 3.15542 77.5037 3.20969 77.5059 3.26692V9.04926H77.55C77.8456 8.55485 78.2713 8.15059 78.7801 7.88015C79.3566 7.59044 79.9949 7.44676 80.6397 7.46176C81.4287 7.45228 82.2066 7.65191 82.8941 8.04044C83.5816 8.42956 84.1412 9.01029 84.5044 9.71176C84.9162 10.5235 85.1176 11.4255 85.0912 12.3353C85.1096 13.2445 84.9088 14.1446 84.5051 14.9596C84.1375 15.6588 83.5787 16.239 82.8949 16.6324C82.2066 17.0194 81.4287 17.2183 80.6397 17.2088C79.9941 17.2141 79.3559 17.0654 78.7794 16.775L78.7801 16.7765ZM88.5184 16.8934H86.4838C86.4265 16.8925 86.3713 16.8693 86.3301 16.8287C86.289 16.7882 86.2654 16.7334 86.264 16.6757V3.26839C86.2662 3.2109 86.2897 3.15635 86.3309 3.11609C86.3721 3.07582 86.4272 3.05295 86.4846 3.05222H88.5191C88.5765 3.05349 88.6309 3.07648 88.6713 3.11651C88.7118 3.15655 88.736 3.21061 88.7382 3.26766V16.675C88.739 16.7173 88.7272 16.7587 88.7044 16.7943C88.6816 16.8298 88.6485 16.8576 88.6096 16.8743C88.5809 16.8867 88.55 16.8927 88.5191 16.8919V16.8934H88.5184ZM93.3074 9.87206C92.9529 10.1549 92.7096 10.5531 92.6191 10.9971C92.6125 11.0291 92.614 11.0622 92.6221 11.0938C92.6301 11.1254 92.6456 11.1549 92.6669 11.1798C92.6875 11.2047 92.714 11.2246 92.7441 11.2379C92.7735 11.2512 92.8066 11.2576 92.839 11.2566H96.7051C96.736 11.2568 96.7669 11.2502 96.7956 11.2376C96.8243 11.2249 96.8493 11.2064 96.8699 11.1832C96.8912 11.16 96.9066 11.1326 96.9162 11.103C96.9257 11.0733 96.9287 11.042 96.925 11.011C96.8662 10.5801 96.6522 10.1853 96.3235 9.90073C95.9 9.56397 95.3706 9.3897 94.8301 9.40956C94.286 9.39485 93.7515 9.55662 93.3074 9.87132L93.3066 9.87206H93.3074ZM98.2574 8.74779C99.0478 9.59706 99.4434 10.7978 99.4426 12.3507V12.6118C99.4404 12.669 99.4169 12.7233 99.3757 12.7634C99.3346 12.8035 99.2801 12.8263 99.2228 12.8272H92.7662C92.7338 12.8279 92.7022 12.8353 92.6735 12.849C92.6441 12.8628 92.6184 12.8826 92.5978 12.907C92.5765 12.9315 92.561 12.9601 92.5522 12.991C92.5434 13.0218 92.5412 13.0542 92.5456 13.086C92.6294 13.626 92.9051 14.1176 93.3228 14.4706C93.8353 14.8715 94.4743 15.0758 95.1243 15.0463C96.0949 15.0328 97.0235 14.6457 97.7162 13.9654C97.739 13.9446 97.7662 13.929 97.7956 13.9198C97.8257 13.9106 97.8566 13.908 97.8875 13.9122C97.9184 13.9164 97.9478 13.9273 97.9735 13.9441C98 13.961 98.0221 13.9833 98.0382 14.0096L99.0191 15.4074C99.0471 15.452 99.0596 15.5046 99.0537 15.5569C99.0485 15.6092 99.0257 15.6583 98.9897 15.6963C98.5029 16.1113 97.9669 16.4649 97.3941 16.7493C96.6801 17.0676 95.9051 17.225 95.1235 17.2103C94.2081 17.2311 93.3015 17.0226 92.4875 16.6037C91.7537 16.2182 91.1478 15.6272 90.7449 14.9029C90.3184 14.1263 90.1015 13.2521 90.1154 12.3662C90.0993 11.4788 90.3059 10.6016 90.7162 9.8147C91.1007 9.09286 91.6853 8.49735 92.4 8.1C93.1765 7.67654 94.0493 7.46265 94.9338 7.47941C96.3684 7.4625 97.4669 7.89559 98.2574 8.74706V8.74779ZM48.319 4.53898C48.3232 4.83442 48.2398 5.12446 48.0791 5.37245C47.9185 5.62043 47.6879 5.81522 47.4166 5.93219C47.1453 6.04916 46.8454 6.08306 46.5548 6.02961C46.2642 5.97615 45.996 5.83774 45.784 5.63187C45.5721 5.426 45.426 5.16191 45.3641 4.873C45.3022 4.58409 45.3274 4.28331 45.4365 4.00871C45.5455 3.7341 45.7335 3.498 45.9768 3.33023C46.22 3.16247 46.5075 3.07059 46.8029 3.06619H46.8102C47.2044 3.06437 47.5835 3.21752 47.8657 3.49262C48.1479 3.76772 48.3108 4.14273 48.319 4.53678V4.53825V4.53898Z" fill="#181D26"/>
<path d="M11.639 0.261562L2.40083 4.08413C1.88724 4.29688 1.89242 5.02658 2.40951 5.23149L11.6862 8.91022C12.5012 9.23346 13.409 9.23346 14.224 8.91022L23.5008 5.23149C24.0176 5.02658 24.0231 4.29688 23.5093 4.08427L14.2713 0.261562C13.4285 -0.0871873 12.4818 -0.0871873 11.639 0.261562Z" fill="#FCB400"/>
<path d="M13.7782 10.9189V20.109C13.7782 20.546 14.2189 20.8454 14.6252 20.6843L24.9623 16.672C25.0776 16.6263 25.1765 16.5471 25.2461 16.4444C25.3158 16.3418 25.353 16.2207 25.353 16.0967V6.90668C25.353 6.46956 24.9123 6.17026 24.506 6.33133L14.1689 10.3437C14.0536 10.3894 13.9548 10.4687 13.8851 10.5713C13.8154 10.6739 13.7782 10.795 13.7782 10.919" fill="#18BFFF"/>
<path d="M11.3643 11.393L8.29655 12.8743L7.98508 13.0249L1.50909 16.1278C1.09872 16.3258 0.574631 16.0267 0.574631 15.5707V6.9451C0.574631 6.78012 0.659226 6.63768 0.772672 6.53054C0.819209 6.48419 0.87201 6.44459 0.929532 6.41289C1.08416 6.32003 1.30489 6.29524 1.49256 6.36947L11.3128 10.2605C11.812 10.4585 11.8512 11.158 11.3643 11.3932" fill="#F82B60"/>
<path d="M11.3643 11.393L8.29647 12.8743L0.772629 6.5304C0.81918 6.4841 0.871982 6.44454 0.929496 6.41289C1.08411 6.32003 1.30485 6.29524 1.49253 6.36947L11.3128 10.2605C11.8119 10.4585 11.8511 11.158 11.3643 11.3932" fill="black" fill-opacity="0.25"/>
</g>
<defs>
<clipPath id="clip0_4296_137">
<rect width="100" height="21.3235" fill="white"/>
</clipPath>
</defs>
</svg>
