<svg width="100" height="31" viewBox="0 0 100 31" fill="none" xmlns="http://www.w3.org/2000/svg">
<g clip-path="url(#clip0_4296_148)">
<path d="M62.0242 23.5794C56.2201 27.8576 47.8071 30.1401 40.5639 30.1401C30.4076 30.1401 21.2643 26.3838 14.347 20.136C13.8036 19.6448 14.2905 18.9751 14.9427 19.3577C22.4078 23.7012 31.638 26.3141 41.1725 26.3141C47.6028 26.3141 54.6766 24.9838 61.1808 22.2229C62.1634 21.8055 62.9851 22.8663 62.0242 23.5794Z" fill="#FF9900"/>
<path d="M64.4373 20.8186C63.6982 19.8708 59.533 20.3708 57.6635 20.5925C57.094 20.6622 57.007 20.1665 57.5201 19.8099C60.8373 17.4753 66.2808 18.1491 66.9154 18.9317C67.5503 19.7187 66.7503 25.1751 63.633 27.7794C63.1547 28.1794 62.6982 27.9663 62.9113 27.4358C63.6113 25.688 65.1808 21.7708 64.4373 20.8186Z" fill="#FF9900"/>
<path d="M57.7939 3.32769V1.05817C57.7939 0.714698 58.0547 0.484268 58.3678 0.484268H68.5285C68.8546 0.484268 69.1154 0.719046 69.1154 1.05817V3.0016C69.1111 3.32769 68.8372 3.75376 68.3503 4.42766L63.0851 11.9449C65.0416 11.8971 67.1068 12.1884 68.8806 13.1884C69.2806 13.4144 69.3894 13.7449 69.4197 14.0709V16.4926C69.4197 16.823 69.0546 17.2099 68.672 17.0099C65.5459 15.3709 61.3939 15.1926 57.9373 17.0274C57.5852 17.2187 57.2156 16.8361 57.2156 16.5057V14.2057C57.2156 13.8362 57.2201 13.2057 57.5896 12.6449L63.6894 3.89724H58.3809C58.0547 3.89724 57.7939 3.66681 57.7939 3.32769Z" fill="#221F1F"/>
<path d="M20.7295 17.4882H17.6383C17.3426 17.4665 17.1078 17.2448 17.0861 16.9622V1.09729C17.0861 0.77991 17.3512 0.527739 17.6818 0.527739H20.5643C20.8642 0.540774 21.1033 0.771211 21.1252 1.05816V3.13204H21.1816C21.9338 1.12773 23.3468 0.192963 25.2511 0.192963C27.1859 0.192963 28.3945 1.12773 29.264 3.13204C30.0119 1.12773 31.7119 0.192963 33.5335 0.192963C34.8292 0.192963 36.2466 0.727734 37.1118 1.92771C38.09 3.26247 37.89 5.20156 37.89 6.90152L37.8856 16.9144C37.8856 17.2317 37.6204 17.4882 37.29 17.4882H34.2031C33.8944 17.4665 33.6466 17.2187 33.6466 16.9144V8.50584C33.6466 7.83628 33.7075 6.16675 33.5597 5.53199C33.3292 4.46678 32.638 4.1668 31.7423 4.1668C30.9945 4.1668 30.2119 4.66678 29.8945 5.46677C29.5771 6.26675 29.6076 7.60585 29.6076 8.50584V16.9144C29.6076 17.2317 29.3423 17.4882 29.0119 17.4882H25.925C25.6119 17.4665 25.3685 17.2187 25.3685 16.9144L25.3642 8.50584C25.3642 6.7363 25.6554 4.13201 23.4599 4.13201C21.2381 4.13201 21.325 6.67109 21.325 8.50584V16.9144C21.325 17.2317 21.0599 17.4882 20.7295 17.4882Z" fill="#221F1F"/>
<path d="M77.863 0.192963C82.4499 0.192963 84.9325 4.13201 84.9325 9.1406C84.9325 13.9796 82.1891 17.8187 77.863 17.8187C73.3589 17.8187 70.9066 13.8796 70.9066 8.97104C70.9066 4.03201 73.3892 0.192963 77.863 0.192963ZM77.8892 3.43202C75.6109 3.43202 75.4675 6.5363 75.4675 8.47106C75.4675 10.4101 75.437 14.5492 77.863 14.5492C80.2587 14.5492 80.3716 11.2101 80.3716 9.17539C80.3716 7.83628 80.3153 6.23632 79.9108 4.96678C79.563 3.86245 78.8718 3.43202 77.8892 3.43202Z" fill="#221F1F"/>
<path d="M90.8803 17.4882H87.802C87.4934 17.4665 87.2454 17.2187 87.2454 16.9144L87.2411 1.04512C87.2673 0.75382 87.5237 0.527739 87.8368 0.527739H90.702C90.9715 0.540774 91.1932 0.723387 91.2541 0.971208V3.39725H91.3106C92.1758 1.22773 93.3889 0.192963 95.5236 0.192963C96.9105 0.192963 98.2627 0.692953 99.1322 2.06249C99.941 3.33202 99.941 5.46677 99.941 7.00151V16.9882C99.9061 17.2665 99.6496 17.4882 99.3453 17.4882H96.2453C95.9627 17.4665 95.7279 17.2579 95.6975 16.9882V8.37106C95.6975 6.6363 95.8975 4.09723 93.7627 4.09723C93.0106 4.09723 92.3192 4.60157 91.9758 5.36677C91.5411 6.33632 91.4846 7.30151 91.4846 8.37106V16.9144C91.4803 17.2317 91.2106 17.4882 90.8803 17.4882Z" fill="#221F1F"/>
<path d="M9.16887 9.91017V9.24062C6.93413 9.24062 4.57331 9.71888 4.57331 12.3536C4.57331 13.6884 5.26461 14.5927 6.45154 14.5927C7.32107 14.5927 8.09932 14.0579 8.59063 13.1884C9.1993 12.1188 9.16887 11.1145 9.16887 9.91017ZM12.2862 17.4448C12.0819 17.6274 11.7862 17.6405 11.5558 17.5187C10.5297 16.6665 10.3471 16.2709 9.7819 15.4579C8.08628 17.1882 6.88632 17.7056 4.68635 17.7056C2.0864 17.7056 0.0603638 16.1014 0.0603638 12.8884C0.0603638 10.3797 1.4212 8.67107 3.35595 7.83631C5.03418 7.09719 7.37761 6.96676 9.16887 6.76241V6.36243C9.16887 5.62765 9.22539 4.75812 8.79497 4.12334C8.41671 3.55379 7.69499 3.31901 7.06021 3.31901C5.88199 3.31901 4.82983 3.92334 4.57331 5.1755C4.52114 5.45375 4.3168 5.72765 4.03854 5.7407L1.0386 5.41896C0.786434 5.36244 0.508179 5.1581 0.577743 4.77115C1.26903 1.13645 4.55157 0.0408173 7.49064 0.0408173C8.99496 0.0408173 10.9601 0.440808 12.1471 1.57991C13.6514 2.98423 13.5079 4.85812 13.5079 6.8972V11.7145C13.5079 13.1623 14.1079 13.7971 14.6731 14.5796C14.8731 14.8579 14.9166 15.1927 14.6644 15.4014C14.034 15.9275 12.9123 16.9056 12.2949 17.4536L12.2862 17.4448Z" fill="#221F1F"/>
<path d="M49.2411 9.91017V9.24062C47.0065 9.24062 44.6456 9.71888 44.6456 12.3536C44.6456 13.6884 45.337 14.5927 46.5239 14.5927C47.3934 14.5927 48.1716 14.0579 48.6629 13.1884C49.2716 12.1188 49.2411 11.1145 49.2411 9.91017ZM52.3585 17.4448C52.1542 17.6274 51.8585 17.6405 51.628 17.5187C50.602 16.6665 50.4194 16.2709 49.8542 15.4579C48.1585 17.1882 46.9585 17.7056 44.7587 17.7056C42.1587 17.7056 40.1327 16.1014 40.1327 12.8884C40.1327 10.3797 41.4935 8.67107 43.4282 7.83631C45.1065 7.09719 47.4499 6.96676 49.2411 6.76241V6.36243C49.2411 5.62765 49.2977 4.75812 48.8673 4.12334C48.4891 3.55379 47.7673 3.31901 47.1325 3.31901C45.9542 3.31901 44.9022 3.92334 44.6456 5.1755C44.5934 5.45375 44.3891 5.72765 44.1108 5.7407L41.111 5.41896C40.8587 5.36244 40.5804 5.1581 40.6501 4.77115C41.3413 1.13645 44.6239 0.0408173 47.563 0.0408173C49.0673 0.0408173 51.0325 0.440808 52.2194 1.57991C53.7237 2.98423 53.5803 4.85812 53.5803 6.8972V11.7145C53.5803 13.1623 54.1803 13.7971 54.7454 14.5796C54.9454 14.8579 54.9889 15.1927 54.7367 15.4014C54.1063 15.9275 52.9846 16.9056 52.3672 17.4536L52.3585 17.4448Z" fill="#221F1F"/>
</g>
<defs>
<clipPath id="clip0_4296_148">
<rect width="100" height="30.1824" fill="white"/>
</clipPath>
</defs>
</svg>
