<svg width="122" height="27" viewBox="0 0 122 27" fill="none" xmlns="http://www.w3.org/2000/svg">
<g clip-path="url(#clip0_4296_165)">
<path d="M11.1904 5.94558C11.1654 5.90355 11.1307 5.86816 11.0891 5.8424C11.0475 5.81665 11.0003 5.80127 10.9515 5.79765C10.8855 5.80085 10.8217 5.82298 10.7679 5.86151C10.0921 6.41332 9.16678 8.75464 8.40851 11.8393L9.07951 11.8479C10.4056 11.8628 11.7742 11.8793 13.1279 11.9011C12.7703 10.4878 12.4361 9.27665 12.1243 8.29968C11.9017 7.48261 11.5885 6.693 11.1904 5.94558Z" fill="#3260E7"/>
<path d="M12.6969 0C5.68464 0 0 5.91504 0 13.2115C0 20.5079 5.68464 26.4219 12.6969 26.4219C19.7092 26.4219 25.3938 20.5074 25.3938 13.2115C25.3938 5.91558 19.7087 0 12.6969 0ZM21.8244 13.4504L21.8212 13.4536C21.8079 13.4642 21.794 13.4759 21.7791 13.486L21.7653 13.4967L21.7355 13.5148C21.7264 13.5207 21.717 13.5263 21.7073 13.5313C21.6118 13.584 21.5045 13.6116 21.3955 13.6116H15.3783C15.4272 13.8186 15.4799 14.0544 15.5379 14.3108C15.8673 15.7928 16.7426 19.7294 17.6728 19.7294H17.7207C18.4481 19.7294 18.8184 18.6364 19.631 16.2419L19.6411 16.2121C19.772 15.8274 19.9188 15.3937 20.079 14.935L20.1195 14.8174C20.1424 14.7539 20.187 14.7005 20.2454 14.6664C20.3037 14.6324 20.3721 14.6199 20.4387 14.6312C20.5061 14.6451 20.5667 14.6818 20.6101 14.7351C20.6537 14.7884 20.6775 14.855 20.6777 14.9238C20.6777 14.9532 20.6736 14.9824 20.6654 15.0106L20.6314 15.1282C20.5467 15.4134 20.4568 15.8018 20.3525 16.2509C19.8683 18.34 19.1361 21.4955 17.2588 21.4955H17.2449C16.0322 21.4854 15.308 19.4676 14.9962 18.6056C14.4162 16.9948 13.9761 15.2772 13.5547 13.6148H8.02064L6.87127 17.4397L6.85371 17.4259C6.78873 17.5354 6.68917 17.6203 6.57067 17.667C6.45217 17.7137 6.32148 17.7197 6.1992 17.6839C6.07591 17.6447 5.96842 17.5671 5.89232 17.4625C5.81618 17.3579 5.77552 17.2317 5.77616 17.1023V17.0816L5.84587 16.649C6.00551 15.6661 6.19441 14.6445 6.41205 13.6127H4.0787L4.07019 13.6036C3.8617 13.5636 3.67335 13.4531 3.53678 13.2905C3.40022 13.128 3.32376 12.9234 3.32026 12.7112C3.31677 12.4989 3.38645 12.2919 3.51758 12.1249C3.64873 11.958 3.83333 11.8413 4.04039 11.7944C4.13101 11.7843 4.22221 11.7804 4.31336 11.7827H4.42724C5.16848 11.796 5.95708 11.8077 6.81646 11.8189C8.03501 6.66055 9.45045 4.03879 11.0191 4.03347C12.7012 4.03347 13.949 8.01958 14.9473 11.9184L14.9515 11.9344C17.0044 11.9775 19.192 12.0408 21.3183 12.2004L21.4077 12.209C21.4418 12.2099 21.4757 12.2129 21.5094 12.218H21.5381C21.6658 12.2463 21.7828 12.3104 21.8752 12.4029C21.9677 12.4953 22.0318 12.6123 22.0601 12.74C22.0901 12.8686 22.084 13.0031 22.0424 13.1285C22.0008 13.2538 21.9254 13.3653 21.8244 13.4504Z" fill="#3260E7"/>
<path d="M32.4401 16.5158L31.4339 19.1041H28.5099L34.0732 5.58821H36.6556L42.2008 19.1041H39.2938L38.2871 16.5158H32.4401ZM35.3439 9.00761L33.4453 13.9281H37.2808L35.3439 9.00761Z" fill="#3260E7"/>
<path d="M58.6813 13.9108V19.1064H56.0415V14.147C56.0415 12.6454 55.3396 11.8355 54.104 11.8355C53.7539 11.8513 53.4133 11.9557 53.1147 12.1388C52.8158 12.322 52.5684 12.5779 52.3954 12.8827C52.4401 13.2235 52.4649 13.5666 52.4699 13.9102V19.1059H49.8327V14.1465C49.8327 12.6449 49.1292 11.835 47.8766 11.835C47.5419 11.8699 47.2205 11.9849 46.9395 12.1701C46.6585 12.3553 46.4262 12.6054 46.2622 12.8992V19.1037H43.6228V9.64264H46.2622V10.2163C46.5514 9.91812 46.9015 9.68585 47.2887 9.53531C47.6758 9.38483 48.0909 9.31959 48.5056 9.34412C49.0597 9.33598 49.6085 9.45251 50.1115 9.68505C50.6145 9.91764 51.0588 10.2603 51.4115 10.6877C51.8341 10.2405 52.3478 9.88912 52.9179 9.65733C53.4878 9.42559 54.1013 9.31874 54.7159 9.34412C56.9343 9.34412 58.6813 11.1443 58.6813 13.9108Z" fill="#3260E7"/>
<path d="M70.2832 14.3838C70.2832 17.1301 68.2702 19.3033 65.7639 19.3033C64.847 19.3215 63.9461 19.0597 63.1815 18.553V23.6704H60.5422V9.64158H63.1815V10.195C63.9461 9.68819 64.847 9.42649 65.7639 9.44469C68.2723 9.44469 70.2832 11.5982 70.2832 14.3838ZM67.6827 14.3838C67.7215 13.8419 67.5795 13.3023 67.2788 12.8498C66.9782 12.3973 66.5354 12.0573 66.0209 11.8833C65.5063 11.7093 64.9481 11.711 64.4346 11.8882C63.9206 12.0654 63.4805 12.4081 63.1826 12.8625V15.8865C63.422 16.2316 63.7434 16.5116 64.118 16.7014C64.4926 16.8912 64.9082 16.9847 65.3281 16.9737C65.6532 16.9593 65.9719 16.8807 66.2667 16.7426C66.561 16.6044 66.8254 16.4093 67.0441 16.1687C67.2628 15.9279 67.4321 15.6463 67.5417 15.34C67.6508 15.0337 67.6992 14.7087 67.6827 14.3838Z" fill="#3260E7"/>
<path d="M74.4031 19.1019H71.7638V5.07414H74.4031V19.1019Z" fill="#3260E7"/>
<path d="M76.779 6.30164C76.7737 6.08996 76.8104 5.87929 76.8875 5.68209C76.9647 5.48494 77.0807 5.30519 77.2286 5.15352C77.3765 5.00186 77.5532 4.88132 77.748 4.79901C77.9433 4.71671 78.1529 4.6743 78.3647 4.6743C78.5765 4.6743 78.7861 4.71671 78.9814 4.79901C79.1762 4.88132 79.3528 5.00186 79.5008 5.15352C79.6487 5.30519 79.7647 5.48494 79.8419 5.68209C79.919 5.87929 79.9557 6.08996 79.9504 6.30164C79.9504 6.72217 79.7833 7.12552 79.4859 7.42292C79.1884 7.72027 78.7851 7.88735 78.3647 7.88735C77.9443 7.88735 77.541 7.72027 77.2435 7.42292C76.9461 7.12552 76.779 6.72217 76.779 6.30164ZM79.703 9.64016V19.1044H77.0637V9.64016H79.703Z" fill="#3260E7"/>
<path d="M89.2903 18.9685C88.5087 19.2644 87.6786 19.4116 86.8426 19.4027C84.6401 19.4027 83.197 17.7829 83.197 15.333V11.9541H81.2814V9.64203H83.197V6.26413H85.8172V9.64203H89.102V11.9536H85.8172V15.3128C85.7948 15.5264 85.8209 15.7424 85.8933 15.9444C85.9662 16.1464 86.0838 16.3294 86.2376 16.4796C86.3914 16.6297 86.5765 16.7431 86.7803 16.8112C86.9841 16.8793 87.2007 16.9005 87.4136 16.873C87.935 16.8536 88.4517 16.7674 88.9509 16.6165L89.2903 18.9685Z" fill="#3260E7"/>
<path d="M99.8837 19.1085H97.2444V18.4365C96.5233 19.0632 95.5991 19.4064 94.6439 19.4023C92.2494 19.4023 90.6562 17.6042 90.6562 14.8585V9.64372H93.2955V14.6031C93.2955 16.1047 94.0176 16.9157 95.2516 16.9157C95.6512 16.8789 96.0375 16.7533 96.3823 16.5482C96.7277 16.3431 97.0225 16.0636 97.2454 15.7301V9.64426H99.8847L99.8837 19.1085Z" fill="#3260E7"/>
<path d="M111.09 19.1024H108.45V18.5496C107.686 19.0561 106.785 19.3178 105.868 19.2998C103.362 19.2998 101.33 17.1463 101.33 14.3607C101.33 11.6144 103.362 9.44125 105.868 9.44125C106.785 9.42316 107.686 9.68491 108.451 10.1915V5.07414H111.09L111.09 19.1024ZM108.45 15.8826V12.858C108.211 12.5128 107.889 12.2327 107.515 12.0429C107.14 11.8531 106.724 11.7596 106.304 11.7709C105.979 11.7834 105.659 11.8607 105.364 11.9981C105.069 12.1356 104.804 12.3304 104.584 12.5714C104.365 12.8123 104.196 13.0945 104.087 13.4014C103.978 13.7084 103.932 14.0339 103.95 14.3591C103.95 15.7623 104.919 16.9878 106.304 16.9878C106.726 16.9995 107.144 16.9043 107.52 16.711C107.895 16.5176 108.215 16.233 108.45 15.8826Z" fill="#3260E7"/>
<path d="M121.798 15.0716H115.093C115.155 15.641 115.435 16.1643 115.874 16.5323C116.313 16.9005 116.877 17.0849 117.449 17.0474C117.746 17.0795 118.045 17.0303 118.316 16.9049C118.587 16.7796 118.818 16.5829 118.986 16.3359H121.74C121.246 18.1536 119.537 19.3983 117.391 19.3983C114.467 19.3983 112.493 17.2059 112.493 14.3804C112.493 11.4537 114.449 9.33908 117.316 9.33908C119.917 9.33908 121.854 11.2547 121.854 14.1814C121.858 14.4797 121.839 14.7779 121.797 15.0732L121.798 15.0716ZM115.113 13.4508H119.235C119.081 12.2657 118.398 11.6139 117.335 11.6139C116.803 11.5913 116.282 11.7666 115.872 12.1058C115.461 12.445 115.191 12.9241 115.113 13.4508Z" fill="#3260E7"/>
</g>
<defs>
<clipPath id="clip0_4296_165">
<rect width="121.855" height="26.606" fill="white"/>
</clipPath>
</defs>
</svg>
