<svg width="100" height="30" viewBox="0 0 100 30" fill="none" xmlns="http://www.w3.org/2000/svg">
<g clip-path="url(#clip0_4296_190)">
<path d="M0.189215 -0.00046348H25.5186C25.5505 -0.000982801 25.5819 0.00666121 25.6099 0.0217396C25.638 0.0368179 25.6616 0.0588271 25.6787 0.0856679C25.6959 0.112509 25.7058 0.143286 25.7076 0.175061C25.7094 0.206838 25.7032 0.238553 25.6892 0.267183C23.5056 4.67669 20.2141 8.44345 16.1373 11.1986C9.55196 15.6417 2.92059 16.1006 0.191176 16.125C0.166258 16.1255 0.141486 16.1211 0.118313 16.112C0.0951391 16.1028 0.0740299 16.089 0.0562241 16.0716C0.0384185 16.0542 0.0242747 16.0334 0.01462 16.0103C0.0049653 15.9874 -5.46178e-06 15.9627 4.5035e-09 15.9377V0.186792C-1.35276e-06 0.162036 0.00490619 0.137524 0.0144391 0.114676C0.0239719 0.0918285 0.0379411 0.0710984 0.0555375 0.0536843C0.073134 0.0362702 0.0940085 0.0225189 0.116954 0.0132245C0.1399 0.00393024 0.16446 -0.00072271 0.189215 -0.00046348Z" fill="#FF6250"/>
<path d="M5.65588 29.4109C8.77954 29.4109 11.3118 26.8787 11.3118 23.755C11.3118 20.6314 8.77954 18.0992 5.65588 18.0992C2.53222 18.0992 0 20.6314 0 23.755C0 26.8787 2.53222 29.4109 5.65588 29.4109Z" fill="#FFDF90"/>
<path d="M17.2175 29.076C15.6175 28.4652 14.7665 26.7045 15.3087 25.1457L19.5782 12.9613C20.1253 11.4025 21.8655 10.6348 23.4655 11.2456C25.0655 11.8574 25.9165 13.6172 25.3743 15.1769L21.1047 27.3613C20.5576 28.9201 18.8175 29.6887 17.2175 29.076Z" fill="#3366FF"/>
<path d="M39.986 21.5553C38.9762 21.5553 38.0902 21.318 37.3281 20.8435C36.5531 20.3524 35.9394 19.6442 35.5634 18.8073C35.1478 17.9249 34.9409 16.8882 34.9428 15.6974C34.9448 14.5066 35.1559 13.4625 35.5762 12.5651C35.9588 11.7141 36.5748 10.9891 37.3527 10.4739C38.1375 9.96909 39.0548 9.70905 39.988 9.72685C40.9978 9.72685 41.8615 9.97162 42.5792 10.4612C43.2968 10.9507 43.7824 11.6487 44.036 12.5553L43.7654 12.7357V9.99842H46.0272V21.4013H43.7664V18.618L44.0369 18.7318C43.7801 19.6364 43.2941 20.3334 42.5792 20.8229C41.8641 21.3125 40.9998 21.5566 39.986 21.5553ZM40.5281 19.7455C41.5549 19.7455 42.3504 19.3909 42.9145 18.6818C43.4785 17.9726 43.7608 16.9621 43.7615 15.6504C43.7615 14.3386 43.4792 13.3281 42.9145 12.6191C42.3498 11.9099 41.5542 11.5553 40.5281 11.5553C39.4882 11.5553 38.6775 11.9206 38.0958 12.6513C37.5141 13.3821 37.2239 14.3952 37.2252 15.6906C37.2252 16.9886 37.5154 17.9882 38.0958 18.6895C38.6762 19.3909 39.4869 19.7428 40.5281 19.7455Z" fill="black"/>
<path d="M49.3514 21.396V13.2058C49.3514 12.6773 49.3417 12.142 49.3172 11.5989C49.2926 11.0558 49.2446 10.5205 49.1711 9.99304H51.3426L51.5466 12.3008L51.3201 12.4361C51.6514 11.546 52.1828 10.8715 52.9143 10.4126C53.6714 9.94653 54.5468 9.70828 55.4358 9.72638C58.1652 9.72638 59.5303 11.2574 59.5308 14.3195V21.4009H57.2456V14.4067C57.2456 13.4264 57.0496 12.71 56.6573 12.2578C56.2652 11.8054 55.6619 11.579 54.8476 11.5783C53.8672 11.5783 53.0871 11.88 52.5073 12.4832C51.9277 13.0865 51.6374 13.8936 51.6367 14.9048V21.398H49.3514V21.396Z" fill="black"/>
<path d="M62.6104 5.01666H65.2573V7.4147H62.6104V5.01666ZM62.7681 21.3971V9.99411H65.0534V21.3971H62.7681Z" fill="black"/>
<path d="M68.379 21.3968V13.2067C68.379 12.6782 68.3691 12.1429 68.3466 11.5998C68.3241 11.0624 68.2747 10.5264 68.1986 9.9939H70.3701L70.574 12.3018L70.3475 12.392C70.6325 11.5468 71.1077 10.8906 71.7731 10.4233C72.4384 9.956 73.2303 9.72234 74.1485 9.72234C75.2341 9.72234 76.0838 9.98966 76.6976 10.5243C77.3113 11.0589 77.7058 11.8834 77.8808 12.9979L77.3387 12.6135C77.5712 11.7574 78.0956 11.0093 78.8211 10.4988C79.5538 9.97594 80.4168 9.71449 81.4103 9.71449C82.6777 9.71449 83.6279 10.0949 84.2613 10.8557C84.8946 11.6165 85.2113 12.7661 85.2113 14.3047V21.3871H82.927V14.4038C82.927 13.4233 82.7554 12.7067 82.4181 12.2538C82.0808 11.8008 81.5358 11.5753 80.777 11.5753C79.9031 11.5753 79.2135 11.8769 78.7084 12.4802C78.2031 13.0834 77.9501 13.9056 77.9496 14.9468V21.3949H75.6643V14.4038C75.6643 13.4233 75.4907 12.7067 75.1437 12.2538C74.7966 11.8008 74.2538 11.5746 73.5152 11.5753C72.6244 11.5753 71.927 11.8769 71.4231 12.4802C70.9191 13.0834 70.6661 13.9056 70.6643 14.9468V21.3949H68.379V21.3968Z" fill="black"/>
<path d="M92.8818 21.5547C91.8719 21.5547 90.9864 21.3174 90.2248 20.8429C89.4498 20.3518 88.8361 19.6438 88.4601 18.8067C88.0445 17.9243 87.8366 16.8878 87.8366 15.6968C87.8366 14.506 88.0478 13.4619 88.47 12.5645C88.8532 11.7143 89.4686 10.9894 90.2454 10.4733C91.0306 9.96834 91.9484 9.70829 92.8818 9.72628C93.8921 9.72628 94.7555 9.97105 95.4719 10.4606C96.1883 10.9501 96.6742 11.6482 96.9298 12.5547L96.6583 12.7351V9.99787H98.921V21.4008H96.6583V18.6174L96.9298 18.7312C96.673 19.6358 96.187 20.3328 95.4719 20.8223C94.757 21.3119 93.8935 21.556 92.8818 21.5547ZM93.423 19.7449C94.4497 19.7449 95.2458 19.3903 95.8112 18.6812C96.3765 17.972 96.6588 16.9615 96.6583 15.6498C96.6583 14.338 96.3759 13.3276 95.8112 12.6185C95.2465 11.9093 94.4504 11.5547 93.423 11.5547C92.3831 11.5547 91.5719 11.9201 90.9896 12.6508C90.4072 13.3815 90.1173 14.3946 90.12 15.69C90.12 16.988 90.4099 17.9878 90.9896 18.6891C91.5693 19.3903 92.3805 19.7423 93.423 19.7449Z" fill="black"/>
</g>
<defs>
<clipPath id="clip0_4296_190">
<rect width="100" height="29.4118" fill="white"/>
</clipPath>
</defs>
</svg>
