<svg width="100" height="13" viewBox="0 0 100 13" fill="none" xmlns="http://www.w3.org/2000/svg">
<g clip-path="url(#clip0_4296_322)">
<path d="M3.63118 5.65008C3.5948 5.60248 3.54677 5.56509 3.49172 5.54149C3.43666 5.51787 3.37645 5.50888 3.31688 5.51534C3.25733 5.52181 3.20047 5.54354 3.15176 5.57841C3.10305 5.61329 3.06418 5.66014 3.03887 5.71444L0.0375596 11.7152C0.010218 11.7699 -0.00269118 11.8306 5.75627e-05 11.8917C0.00280632 11.9528 0.0211218 12.0122 0.0532652 12.0642C0.0854083 12.1162 0.130313 12.1591 0.183714 12.1889C0.237115 12.2187 0.297242 12.2343 0.358385 12.2343H4.53756C4.6045 12.2359 4.67045 12.218 4.72739 12.1828C4.78435 12.1476 4.82985 12.0966 4.85838 12.036C5.75988 10.1732 5.21354 7.3407 3.63118 5.65008Z" fill="url(#paint0_linear_4296_322)"/>
<path d="M5.83249 0.192139C5.08465 1.34283 4.64883 2.66818 4.56782 4.03814C4.48681 5.40811 4.76338 6.77559 5.37039 8.0064L7.38521 12.036C7.41501 12.0956 7.4608 12.1457 7.51746 12.1808C7.57413 12.2158 7.63942 12.2344 7.70604 12.2344H11.8845C11.9456 12.2344 12.0057 12.2187 12.0591 12.1889C12.1125 12.1592 12.1574 12.1162 12.1896 12.0642C12.2217 12.0122 12.24 11.9528 12.2428 11.8918C12.2455 11.8307 12.2326 11.7699 12.2053 11.7152C12.2053 11.7152 6.5839 0.471126 6.44262 0.189888C6.41469 0.132641 6.3712 0.0844267 6.31711 0.050776C6.26302 0.0171254 6.20056 -0.000598946 6.13685 -0.000363903C6.07315 -0.000128858 6.01082 0.0180561 5.95698 0.0521049C5.90315 0.0861539 5.86 0.134687 5.83249 0.192139Z" fill="#2684FF"/>
<path d="M54.8432 5.00356C54.8432 6.48949 55.5325 7.66923 58.2287 8.19006C59.8374 8.52777 60.1743 8.78743 60.1743 9.32364C60.1743 9.84446 59.8366 10.1816 58.7036 10.1816C57.3342 10.157 55.9921 9.79386 54.7972 9.12458V11.5448C55.6092 11.9432 56.6814 12.3874 58.673 12.3874C61.4918 12.3874 62.6102 11.1304 62.6102 9.26229L54.8432 5.00356ZM62.6102 9.26229C62.6102 7.50056 61.6756 6.67317 59.0407 6.10657C57.5854 5.7848 57.233 5.46323 57.233 5.00356C57.233 4.42195 57.7539 4.17636 58.719 4.17636C59.8833 4.17636 61.0323 4.5287 62.1199 5.01895V2.70563C61.0769 2.23096 59.9411 1.99544 58.7955 2.01632C56.1912 2.01632 54.8432 3.14991 54.8432 5.00356" fill="#0052CC"/>
<path d="M91.0567 2.16943V12.2343H93.2013V4.5593L94.1053 6.59664L97.1385 12.2343H99.8347V2.16943H97.6901V8.66493L96.8781 6.7805L94.4422 2.16943H91.0567Z" fill="#0052CC"/>
<path d="M77.4158 2.16943H75.0719V12.2343H77.4158V2.16943Z" fill="#0052CC"/>
<path d="M72.3674 9.26229C72.3674 7.50056 71.4329 6.67317 68.798 6.10657C67.3426 5.7848 66.9903 5.46323 66.9903 5.00356C66.9903 4.42195 67.5111 4.17636 68.4762 4.17636C69.6406 4.17636 70.7895 4.5287 71.8771 5.01895V2.70563C70.8344 2.23096 69.6985 1.99544 68.5528 2.01632C65.9484 2.01632 64.6004 3.14991 64.6004 5.00356C64.6004 6.48949 65.2897 7.66923 67.986 8.19006C69.5946 8.52777 69.9315 8.78743 69.9315 9.32364C69.9315 9.84446 69.5938 10.1816 68.4608 10.1816C67.0914 10.157 65.7494 9.79386 64.5544 9.12458V11.5448C65.3665 11.9432 66.4387 12.3874 68.4302 12.3874C71.249 12.3874 72.3674 11.1304 72.3674 9.26229Z" fill="#0052CC"/>
<path d="M36.6351 2.16943V12.2343H41.4527L42.2113 10.0589H38.9942V2.16943H36.6351Z" fill="#0052CC"/>
<path d="M27.1169 2.16943V4.34467H29.7212V12.2343H32.0803V4.34467H34.8685V2.16943H27.1169Z" fill="#0052CC"/>
<path d="M23.696 2.16943H20.6043L17.0945 12.2343H19.7748L20.2724 10.5392C21.4977 10.899 22.8009 10.899 24.0263 10.5392L24.5238 12.2343H27.2047L23.696 2.16943ZM22.1501 8.72422C21.7135 8.7242 21.2792 8.6617 20.8602 8.53866L22.1501 4.14636L23.4399 8.54017C23.021 8.6627 22.5867 8.72469 22.1501 8.72422Z" fill="#0052CC"/>
<path d="M49.7582 2.16943H46.6666L43.1569 12.2343H45.8377L46.3353 10.5392C47.5608 10.899 48.8638 10.899 50.0891 10.5392L50.5867 12.2343H53.2676L49.7582 2.16943ZM48.2124 8.72422C47.7758 8.7242 47.3415 8.6617 46.9225 8.53866L48.2124 4.14636L49.5023 8.54017C49.0833 8.6627 48.649 8.72469 48.2124 8.72422Z" fill="#0052CC"/>
<path d="M85.8619 2.16943H82.7704L79.2606 12.2343H81.9415L82.439 10.5392C83.6644 10.899 84.9676 10.899 86.1929 10.5392L86.6904 12.2343H89.3715L85.8619 2.16943ZM84.3152 8.72422C83.8786 8.7242 83.4443 8.6617 83.0253 8.53866L84.3152 4.14636L85.6051 8.54017C85.1861 8.6627 84.7518 8.72469 84.3152 8.72422Z" fill="#0052CC"/>
</g>
<defs>
<linearGradient id="paint0_linear_4296_322" x1="5.27602" y1="6.57616" x2="2.10866" y2="12.0623" gradientUnits="userSpaceOnUse">
<stop stop-color="#0052CC"/>
<stop offset="0.923" stop-color="#2684FF"/>
</linearGradient>
<clipPath id="clip0_4296_322">
<rect width="100" height="12.5704" fill="white"/>
</clipPath>
</defs>
</svg>
