<svg width="83" height="24" viewBox="0 0 83 24" fill="none" xmlns="http://www.w3.org/2000/svg">
<g clip-path="url(#clip0_4296_347)">
<path d="M18.8771 0H10.9615L13.4058 7.65021H21.3215L14.9193 12.2062L17.3636 19.8971C21.4833 16.8841 22.8349 12.3199 21.3215 7.64209L18.8771 0ZM0.601442 7.65021H8.51713L10.9615 0H3.04575L0.601442 7.65021C-0.912089 12.3281 0.439567 16.8922 4.55929 19.9052L7.0036 12.2144L0.601442 7.65021ZM4.55929 19.8971L10.9615 24.445L17.3636 19.8971L10.9615 15.268L4.55929 19.8971ZM64.2993 7.4553C62.4296 7.4553 61.2317 8.30803 60.6733 9.69677H60.5276V3.4028H57.7191V19.8646H60.5923V12.7179C60.5923 10.9474 61.685 9.93228 63.2309 9.93228C64.7363 9.93228 65.6266 10.8987 65.6266 12.5473V19.8646H68.4999V12.0681C68.4918 9.10391 66.8245 7.4553 64.2993 7.4553ZM76.2618 3.37031C72.3768 3.37031 70.0296 6.4239 70.0216 11.7271C70.0216 17.0465 72.3525 20.1407 76.2618 20.1407C80.163 20.1488 82.5021 17.0546 82.5021 11.7271C82.494 6.43203 80.1468 3.37031 76.2618 3.37031ZM72.9919 11.7271C73 7.85324 74.2545 5.81481 76.2618 5.81481C77.6377 5.81481 78.6576 6.75687 79.1675 8.58415L73.0405 13.0508C73.0081 12.6448 72.9919 12.1981 72.9919 11.7271ZM76.2618 17.6637C74.8454 17.6637 73.8013 16.6567 73.3076 14.7076L79.4669 10.2165C79.5155 10.6876 79.5398 11.1911 79.5398 11.7352C79.5398 15.6334 78.2852 17.6637 76.2618 17.6637ZM44.7852 14.7238C44.7852 16.5835 43.4578 17.5094 42.1871 17.5094C40.8031 17.5094 39.8885 16.5267 39.8885 14.9756V7.63397H37.0152V15.4223C37.0152 18.3621 38.6826 20.027 41.0783 20.027C42.9075 20.027 44.1863 19.0605 44.7448 17.6962H44.8742V19.8727H47.6585V7.63397H44.7852V14.7238ZM30.5159 7.44718C27.9502 7.44718 25.9835 8.59228 25.3522 10.8256L28.0312 11.2073C28.3144 10.3708 29.1238 9.65616 30.5321 9.65616C31.8676 9.65616 32.5961 10.3383 32.5961 11.5403V11.589C32.5961 12.4174 31.73 12.458 29.5771 12.6854C27.2137 12.9371 24.9474 13.6519 24.9474 16.4049C24.9474 18.8088 26.7038 20.0839 29.0267 20.0839C30.9369 20.0839 32.078 19.1823 32.6041 18.1591H32.7013V19.8402H35.4612V11.654C35.4693 8.42173 32.8469 7.44718 30.5159 7.44718ZM32.6041 15.4466C32.6041 16.811 31.5115 17.9642 29.7794 17.9642C28.5816 17.9642 27.7236 17.4119 27.7236 16.3562C27.7236 15.2517 28.6868 14.7888 29.9656 14.602C30.7183 14.4964 32.2237 14.3096 32.6041 14.001V15.4466ZM53.7936 4.57226H50.9203V7.63397H49.1801V9.93228H50.9203V16.7053C50.9041 19.0037 52.5715 20.1407 54.7324 20.0757C55.38 20.0595 55.8655 19.9539 56.1974 19.8564V17.5744C55.9789 17.6069 55.469 17.6718 55.1048 17.68C54.3844 17.6962 53.8017 17.4282 53.8017 16.2587V9.93228H56.1974V7.64209H53.7936V4.57226Z" fill="black"/>
</g>
<defs>
<clipPath id="clip0_4296_347">
<rect width="82.5021" height="24.4451" fill="white"/>
</clipPath>
</defs>
</svg>
