<svg width="55" height="20" viewBox="0 0 55 20" fill="none" xmlns="http://www.w3.org/2000/svg">
<g clip-path="url(#clip0_4296_404)">
<path fill-rule="evenodd" clip-rule="evenodd" d="M1.96344 9.65311C1.96344 5.42568 5.36373 1.98642 9.54266 1.98642C13.7221 1.98642 17.1222 5.42568 17.1222 9.65311C17.1222 13.8806 13.7221 17.3201 9.54266 17.3201C5.36373 17.3201 1.96344 13.8806 1.96344 9.65311ZM0 9.65305C0 14.9759 4.28087 19.3061 9.54266 19.3061C14.805 19.3061 19.0859 14.9759 19.0859 9.65305C19.0859 4.33027 14.805 0 9.54266 0C4.28087 0 0 4.33027 0 9.65305ZM36.8495 0.0121914H34.7539L28.6491 16.1699L22.531 0.0121914H20.422L27.732 19.3054H28.6491H29.5662L36.8495 0.0121914ZM45.4571 2.00312C41.2782 2.00312 37.8778 5.44265 37.8778 9.66984C37.8778 13.8973 41.2782 17.3368 45.4571 17.3368C49.6363 17.3368 53.0363 13.8973 53.0363 9.66984C53.0363 5.44265 49.6363 2.00312 45.4571 2.00312ZM45.4571 19.3232C40.1953 19.3232 35.9142 14.9926 35.9142 9.66989C35.9142 4.34733 40.1953 0.0167907 45.4571 0.0167907C50.7192 0.0167907 55 4.34733 55 9.66989C55 14.9926 50.7192 19.3232 45.4571 19.3232Z" fill="black"/>
<path fill-rule="evenodd" clip-rule="evenodd" d="M16.5604 19.3243H19.5058V0H16.5604V19.3243Z" fill="#EC008C"/>
</g>
<defs>
<clipPath id="clip0_4296_404">
<rect width="55" height="19.3243" fill="white"/>
</clipPath>
</defs>
</svg>
