<svg width="132" height="21" viewBox="0 0 132 21" fill="none" xmlns="http://www.w3.org/2000/svg">
<g clip-path="url(#clip0_4296_352)">
<path d="M32.8325 16.8757H37.9182C40.55 16.8757 42.3638 15.5243 42.3638 13.1596C42.3638 11.5238 41.4036 10.5281 40.2655 10.0836C40.9945 9.6924 41.7236 8.80336 41.7236 7.62996C41.7236 5.54966 40.0343 4.4295 37.7759 4.4295H32.8325V16.8757ZM35.4642 9.17679V6.54536H37.527C38.7185 6.54536 39.2518 7.02541 39.2518 7.86108C39.2518 8.69681 38.7185 9.17679 37.5804 9.17679H35.4642ZM35.4642 14.5642V11.4349H37.6871C39.163 11.4349 39.8209 12.0038 39.8209 13.0174C39.8209 14.0308 39.163 14.5642 37.6871 14.5642H35.4642Z" fill="black"/>
<path d="M49.4729 13.8302C49.2772 14.5947 48.6193 14.9859 47.6234 14.9859C46.3787 14.9859 45.5785 14.2035 45.4007 12.9411H51.8379C51.8556 12.7456 51.8734 12.4789 51.8734 12.141C51.8734 10.0964 50.6109 7.76712 47.4457 7.76712C44.4049 7.76712 43.0178 10.0964 43.0178 12.3722C43.0178 14.6303 44.5827 17.0128 47.6234 17.0128C49.8285 17.0128 51.5356 15.7682 51.8912 13.8302H49.4729ZM47.4457 9.58076C48.6371 9.58076 49.3305 10.3809 49.4016 11.3766H45.4363C45.6497 10.1319 46.3254 9.58076 47.4457 9.58076Z" fill="black"/>
<path d="M53.8645 5.26392V7.29086C53.8645 7.73541 53.6156 7.91309 53.2422 7.91309H52.1396V9.97553H53.8645V13.6205C53.8645 15.7008 55.1981 16.8744 57.2608 16.8744H58.7369V14.634H57.5988C56.7986 14.634 56.3362 14.225 56.3362 13.3538V9.97553H58.7369V7.91309H56.3362V5.26392H53.8645Z" fill="black"/>
<path d="M60.8719 5.26392V7.29086C60.8719 7.73541 60.6229 7.91309 60.2494 7.91309H59.147V9.97553H60.8719V13.6205C60.8719 15.7008 62.2055 16.8744 64.2682 16.8744H65.7442V14.634H64.6058C63.8059 14.634 63.3435 14.225 63.3435 13.3538V9.97553H65.7442V7.91309H63.3435V5.26392H60.8719Z" fill="black"/>
<path d="M72.5601 13.8302C72.3645 14.5947 71.7062 14.9859 70.711 14.9859C69.466 14.9859 68.6657 14.2035 68.4883 12.9411H74.9248C74.9429 12.7456 74.961 12.4789 74.961 12.141C74.961 10.0964 73.6979 7.76712 70.5329 7.76712C67.4924 7.76712 66.1054 10.0964 66.1054 12.3722C66.1054 14.6303 67.6699 17.0128 70.711 17.0128C72.9157 17.0128 74.6228 15.7682 74.9784 13.8302H72.5601ZM70.5329 9.58076C71.7243 9.58076 72.4181 10.3809 72.4891 11.3766H68.5237C68.7367 10.1319 69.4125 9.58076 70.5329 9.58076Z" fill="black"/>
<path d="M81.7155 9.97376V7.91132H80.7016C79.6166 7.91132 78.9409 8.28468 78.4607 9.40484V7.91132H75.9714V16.8726H78.4607V12.5164C78.4607 10.9873 79.0125 9.97376 80.2395 9.97376H81.7155Z" fill="black"/>
<path d="M90.2439 17.0159C93.0359 17.0159 94.9211 15.5578 94.9211 13.2287C94.9211 8.30359 88.3768 10.4017 88.3768 7.80579C88.3768 7.07675 89.0351 6.57895 90.0839 6.57895C91.2753 6.57895 92.0226 7.21906 92.1111 8.1969H94.6539C94.5829 5.83215 92.7694 4.28531 90.0839 4.28531C87.559 4.28531 85.781 5.74323 85.781 7.80579C85.781 12.6953 92.2356 10.8284 92.2356 13.2642C92.2356 14.2066 91.4353 14.7045 90.2439 14.7045C88.9286 14.7045 88.0928 13.9044 87.9857 12.642H85.4253C85.5318 15.2912 87.4171 17.0159 90.2439 17.0159Z" fill="black"/>
<path d="M97.003 5.26392V7.29086C97.003 7.73541 96.7538 7.91309 96.3808 7.91309H95.2785V9.97553H97.003V13.6205C97.003 15.7008 98.3364 16.8744 100.4 16.8744H101.875V14.634H100.737C99.937 14.634 99.4748 14.225 99.4748 13.3538V9.97553H101.875V7.91309H99.4748V5.26392H97.003Z" fill="black"/>
<path d="M106.611 17.0128C107.66 17.0128 108.603 16.586 109.047 15.9282V16.8706H111.537V7.90937H109.047V8.79834C108.549 8.17618 107.66 7.76712 106.576 7.76712C103.961 7.76712 102.379 9.59845 102.379 12.39C102.379 15.1814 103.961 17.0128 106.611 17.0128ZM107.002 14.8791C105.686 14.8791 104.815 13.8835 104.815 12.39C104.815 10.8787 105.686 9.883 107.002 9.883C108.336 9.883 109.207 10.8787 109.207 12.39C109.207 13.8835 108.336 14.8791 107.002 14.8791Z" fill="black"/>
<path d="M117.305 17.0128C119.635 17.0128 121.484 15.5193 121.751 13.528H119.225C119.049 14.328 118.319 14.8791 117.412 14.8791C116.061 14.8791 115.261 13.8479 115.261 12.39C115.261 10.9321 116.044 9.883 117.376 9.883C118.283 9.883 119.049 10.4697 119.19 11.2698H121.68C121.52 9.18958 119.653 7.76712 117.305 7.76712C114.531 7.76712 112.682 9.77632 112.682 12.39C112.682 15.0037 114.531 17.0128 117.305 17.0128Z" fill="black"/>
<path d="M128.821 16.8725H131.809L127.95 11.4317L131.525 7.9112H128.394L125.283 10.9694V4.01746H122.793V16.8725H125.283V14.0631L126.278 13.0853L128.821 16.8725Z" fill="black"/>
<path fill-rule="evenodd" clip-rule="evenodd" d="M19.3604 16.0483L21.2932 16.4202C23.2122 16.7895 24.6767 14.7325 23.6996 13.0404L16.8404 1.16123C15.8632 -0.530932 13.3494 -0.291276 12.7098 1.55501L12.0654 3.41473C12.4349 3.68239 12.7607 4.03557 13.0151 4.47628L18.9158 14.6953C19.1703 15.1359 19.3133 15.5946 19.3604 16.0483ZM18.1898 15.8231C18.1389 15.6302 18.0608 15.4383 17.9528 15.2514L12.0521 5.03219C11.9441 4.84512 11.8169 4.68141 11.6753 4.54095L10.4274 8.14283L12.7098 14.7685L18.1898 15.8231Z" fill="black"/>
<path d="M1.98668 19.6977C0.552098 19.4718 -0.308875 17.9808 0.212789 16.6256L2.75095 10.0323C3.43982 8.24251 5.89592 8.05037 6.85487 9.71118L11.2966 17.4035C12.2556 19.0642 10.8611 21.095 8.96649 20.7967L1.98668 19.6977Z" fill="black"/>
<path fill-rule="evenodd" clip-rule="evenodd" d="M12.7087 18.2592L15.675 18.6545C17.5513 18.9043 18.8979 16.8925 17.9516 15.2535L12.0508 5.03427C11.1044 3.39535 8.68847 3.55551 7.96691 5.30509L6.82604 8.07126C7.21218 8.34207 7.55276 8.70511 7.81705 9.1627L12.2588 16.855C12.5231 17.3128 12.6671 17.7893 12.7087 18.2592ZM11.562 18.1065C11.5141 17.8723 11.4269 17.6382 11.2957 17.4109L6.85405 9.71865C6.7229 9.49153 6.56375 9.29901 6.38487 9.14063L4.27884 14.2469C3.70821 15.6305 4.60262 17.1794 6.08623 17.377L11.562 18.1065Z" fill="black"/>
</g>
<defs>
<clipPath id="clip0_4296_352">
<rect width="131.855" height="20.8465" fill="white"/>
</clipPath>
</defs>
</svg>
