<svg width="124" height="19" viewBox="0 0 124 19" fill="none" xmlns="http://www.w3.org/2000/svg">
<g clip-path="url(#clip0_4296_381)">
<path d="M1.03501 2.10222C0.953929 2.10117 0.873602 2.11789 0.79967 2.1512C0.725738 2.1845 0.65999 2.23358 0.607045 2.295C0.5541 2.35641 0.51524 2.42867 0.493195 2.50671C0.471149 2.58474 0.466451 2.66665 0.479432 2.74669L2.83786 17.064C2.86725 17.2391 2.95743 17.3984 3.09256 17.5137C3.22769 17.6291 3.39914 17.6931 3.57679 17.6946H14.8912C15.0243 17.6963 15.1537 17.65 15.2557 17.5644C15.3576 17.4788 15.4255 17.3593 15.4468 17.2278L17.8107 2.75225C17.8237 2.67221 17.819 2.5903 17.797 2.51226C17.7749 2.43423 17.7361 2.36197 17.6831 2.30055C17.6302 2.23913 17.5644 2.19006 17.4905 2.15675C17.4166 2.12345 17.3362 2.10673 17.2551 2.10778L1.03501 2.10222ZM10.966 12.4498H7.35472L6.3769 7.34411H11.841L10.966 12.4498Z" fill="#2684FF"/>
<path d="M17.0548 7.34314H11.8407L10.9657 12.4489H7.35437L3.09031 17.5131C3.22546 17.6299 3.39777 17.6948 3.57644 17.6963H14.8936C15.0268 17.698 15.1561 17.6519 15.2581 17.5662C15.36 17.4806 15.4279 17.3611 15.4492 17.2296L17.0548 7.34314Z" fill="url(#paint0_linear_4296_381)"/>
<path d="M32.9444 1.63718C36.2196 1.63718 37.8086 3.25113 37.8086 5.84291C37.8086 7.78744 36.9279 8.97083 35.1195 9.41247C37.4918 9.8042 38.6642 11.0987 38.6642 13.3738C38.6642 15.9406 36.9279 17.7017 33.3361 17.7017H26.7109V1.63718H32.9444ZM28.911 3.74004V8.5291H32.65C34.7278 8.5291 35.5834 7.57632 35.5834 6.02903C35.5834 4.48174 34.6556 3.73171 32.65 3.73171L28.911 3.74004ZM28.911 10.4875V15.4878H33.4083C35.5112 15.4878 36.464 14.7294 36.464 13.1155C36.464 11.4043 35.5585 10.4765 33.3611 10.4765L28.911 10.4875Z" fill="#253858"/>
<path d="M42.2594 0.778494C42.4557 0.764453 42.6526 0.792761 42.8369 0.861507C43.0213 0.930253 43.1886 1.03782 43.3278 1.17693C43.4669 1.31603 43.5744 1.48342 43.6432 1.66773C43.7119 1.85206 43.7402 2.049 43.7262 2.24522C43.7262 2.63422 43.5716 3.00729 43.2966 3.28235C43.0215 3.55742 42.6484 3.71195 42.2594 3.71195C41.8704 3.71195 41.4974 3.55742 41.2223 3.28235C40.9473 3.00729 40.7927 2.63422 40.7927 2.24522C40.7787 2.049 40.807 1.85206 40.8758 1.66773C40.9445 1.48342 41.052 1.31603 41.1912 1.17693C41.3303 1.03782 41.4976 0.930253 41.682 0.861507C41.8663 0.792761 42.0632 0.764453 42.2594 0.778494ZM41.1844 5.47036H43.2873V17.6931H41.1844V5.47036Z" fill="#253858"/>
<path d="M51.3166 15.6388C51.761 15.6256 52.2031 15.5679 52.6361 15.4666V17.4945C52.1754 17.6261 51.6984 17.6916 51.2193 17.689C48.6025 17.689 47.3303 16.15 47.3303 13.8749V7.42184H45.3496V5.47731H47.3303V2.8772H49.372V5.46898H52.6222V7.4135H49.372V13.8277C49.372 14.9027 50.0082 15.6388 51.3166 15.6388Z" fill="#253858"/>
<path d="M61.3027 17.9411C59.5193 17.9411 58.1498 17.1355 57.4136 15.5466V17.6967H55.3108V0.368134H57.4275V7.67399C58.2109 6.06004 59.6776 5.22945 61.5583 5.22945C64.8084 5.22945 66.4473 7.99067 66.4473 11.5853C66.4362 15.0326 64.725 17.9411 61.3027 17.9411ZM60.9832 7.18509C59.0943 7.18509 57.4275 8.38513 57.4275 11.0964V12.0742C57.4275 14.7882 58.9665 15.9855 60.761 15.9855C63.1333 15.9855 64.3556 14.4215 64.3556 11.5853C64.3334 8.65185 63.1611 7.18509 60.9832 7.18509Z" fill="#253858"/>
<path d="M68.6359 5.47345H70.7388V12.8682C70.7388 15.0683 71.6193 16.0461 73.6222 16.0461C75.5668 16.0461 76.9224 14.7516 76.9224 12.282V5.47345H79.0256V17.6962H76.9224V15.6933C76.548 16.3872 75.9895 16.9644 75.3082 17.3614C74.6269 17.7584 73.8494 17.9598 73.0611 17.9434C70.2499 17.9434 68.6359 15.9989 68.6359 12.6377V5.47345Z" fill="#253858"/>
<path d="M90.8323 17.3789C90.0992 17.7706 88.9739 17.9345 87.8493 17.9345C83.4991 17.9345 81.4598 15.2955 81.4598 11.5453C81.4598 7.85352 83.4874 5.21448 87.8493 5.21448C88.8538 5.18596 89.852 5.39237 90.7629 5.81729V7.76181C89.8949 7.35572 88.9434 7.15788 87.985 7.18401C84.807 7.18401 83.5124 9.18967 83.5124 11.5592C83.5124 13.9287 84.8436 15.9233 88.0466 15.9233C88.991 15.9482 89.9331 15.7994 90.8245 15.4844L90.8323 17.3789Z" fill="#253858"/>
<path d="M93.2277 17.6967V0.368134H95.3302V11.202L100.587 5.48224H103.325L97.5778 11.4797L103.567 17.6967H100.706L95.3279 11.9769V17.6967H93.2277Z" fill="#253858"/>
<path d="M110.534 17.9415C105.962 17.9415 103.959 15.3025 103.959 11.5523C103.959 7.86057 106.012 5.22156 109.729 5.22156C113.492 5.22156 115.007 7.83835 115.007 11.5523V12.5052H106.084C106.378 14.5831 107.723 15.9276 110.607 15.9276C111.875 15.9264 113.133 15.7026 114.323 15.2664V17.211C113.321 17.7471 111.781 17.9415 110.534 17.9415ZM106.062 10.719H112.882C112.759 8.44673 111.731 7.14941 109.631 7.14941C107.404 7.1383 106.281 8.58001 106.062 10.7079V10.719Z" fill="#253858"/>
<path d="M122.34 15.6388C122.785 15.6256 123.227 15.5679 123.66 15.4666V17.4945C123.199 17.6261 122.722 17.6916 122.243 17.689C119.626 17.689 118.354 16.15 118.354 13.8749V7.42184H116.374V5.47731H118.354V2.8772H120.407V5.46898H123.657V7.4135H120.407V13.8277C120.409 14.9027 121.04 15.6388 122.34 15.6388Z" fill="#253858"/>
</g>
<defs>
<linearGradient id="paint0_linear_4296_381" x1="18.2604" y1="8.77097" x2="9.64338" y2="15.499" gradientUnits="userSpaceOnUse">
<stop offset="0.18" stop-color="#0052CC"/>
<stop offset="1" stop-color="#2684FF"/>
</linearGradient>
<clipPath id="clip0_4296_381">
<rect width="124" height="18.717" fill="white"/>
</clipPath>
</defs>
</svg>
