<svg width="88" height="20" viewBox="0 0 88 20" fill="none" xmlns="http://www.w3.org/2000/svg">
<g clip-path="url(#clip0_4296_409)">
<path d="M42.9077 5.19902C41.1238 5.19902 39.3599 5.96424 38.0182 7.4748V0.0412598H35.3599V12.558C35.3599 16.6226 38.6543 19.917 42.7189 19.917C46.7835 19.917 50.0779 16.6226 50.0779 12.558C50.0779 8.49343 46.9723 5.19902 42.9077 5.19902ZM42.7139 17.0798C40.2145 17.0798 38.1922 15.0524 38.1922 12.558C38.1922 10.0636 40.2195 8.03629 42.7139 8.03629C45.2133 8.03629 47.2356 10.0636 47.2356 12.558C47.2356 15.0524 45.2133 17.0798 42.7139 17.0798Z" fill="black"/>
<path d="M59.3888 5.19902C57.6049 5.19902 55.8409 5.96424 54.4993 7.4748V0.0412598H51.8409V12.558C51.8409 16.6226 55.1354 19.917 59.1999 19.917C63.2645 19.917 66.559 16.6226 66.559 12.558C66.559 8.49343 63.4484 5.19902 59.3888 5.19902ZM59.195 17.0798C56.6956 17.0798 54.6732 15.0524 54.6732 12.558C54.6732 10.0636 56.7006 8.03629 59.195 8.03629C61.6944 8.03629 63.7167 10.0636 63.7167 12.558C63.7167 15.0524 61.6944 17.0798 59.195 17.0798Z" fill="black"/>
<path d="M20.3929 13.8447V5.59625H23.2451V13.8199C23.2451 15.9217 24.4625 17.2683 26.5147 17.2683C28.5917 17.2683 29.7842 15.9714 29.7842 13.8199V5.59625H32.6613V13.8447C32.6613 17.6559 30.3507 19.9118 26.5147 19.9118C22.778 19.9167 20.3929 17.5813 20.3929 13.8447Z" fill="black"/>
<path d="M71.7018 19.5791H68.8497V0.0412598H71.7018V19.5791Z" fill="black"/>
<path d="M87.8517 13.6917H76.935C77.3524 15.8681 78.8778 17.3488 81.576 17.3488C83.1561 17.3488 85.0791 16.7525 86.3213 15.8432L87.5139 17.9451C86.0878 19.0084 83.8319 19.8879 81.4716 19.8879C76.2344 19.8879 73.9785 16.2308 73.9785 12.5488C73.9785 10.4469 74.6244 8.71279 75.9511 7.33639C77.2729 5.95999 79.012 5.25937 81.1139 5.25937C83.1114 5.25937 84.771 5.88049 86.043 7.15254C87.3151 8.42459 87.9611 10.1339 87.9611 12.3153C87.9511 12.7078 87.9263 13.1749 87.8517 13.6917ZM76.93 11.3563H85.0741C84.8406 9.15005 83.2058 7.72396 81.1039 7.72396C78.9524 7.72396 77.3474 9.17987 76.93 11.3563Z" fill="black"/>
<path d="M11.334 5.19902C9.55019 5.19902 7.78622 5.96424 6.4446 7.4748V0.0412598H3.78125V12.558C3.78125 16.6226 7.07566 19.917 11.1403 19.917C15.2049 19.917 18.4993 16.6226 18.4993 12.558C18.4993 8.49343 15.3937 5.19902 11.334 5.19902ZM11.1403 17.0798C8.64088 17.0798 6.61852 15.0524 6.61852 12.558C6.61852 10.0636 8.64585 8.03629 11.1403 8.03629C13.6396 8.03629 15.662 10.0636 15.662 12.558C15.662 15.0524 13.6396 17.0798 11.1403 17.0798Z" fill="black"/>
<path d="M1.84787 19.9104C2.85227 19.9104 3.6665 19.0962 3.6665 18.0918C3.6665 17.0873 2.85227 16.2731 1.84787 16.2731C0.843468 16.2731 0.0292358 17.0873 0.0292358 18.0918C0.0292358 19.0962 0.843468 19.9104 1.84787 19.9104Z" fill="#0000FF"/>
</g>
<defs>
<clipPath id="clip0_4296_409">
<rect width="88" height="19.9255" fill="white"/>
</clipPath>
</defs>
</svg>
