<svg width="161" height="248" viewBox="0 0 161 248" fill="none" xmlns="http://www.w3.org/2000/svg">
<path d="M87.1584 86.2029L75.7219 17.0697C75.7357 15.317 74.507 11.3584 69.4957 9.63318C65.128 8.12565 61.2904 12.0667 60.3185 14.3538C46.4202 54.4734 21.9004 138.06 21.0889 142.201C20.05 147.416 21.8148 150.262 23.9409 152.231C25.524 153.706 28.8015 154.202 30.4662 153.926L71.0449 147.213L76.3803 233.2C76.8134 235.138 78.9366 239.13 83.7933 239.649C88.659 240.154 91.2182 235.763 91.8923 233.512L136.832 93.1811C137.514 91.3179 138.758 86.4575 135.973 82.821C134.918 81.478 133.582 80.4643 132.102 79.8843C130.621 79.3043 129.051 79.1788 127.551 79.5208L87.1584 86.2029Z" fill="url(#paint0_linear_621_7652)" fill-opacity="0.1"/>
<path d="M63.9106 10.9869C65.3545 10.0259 67.1046 9.48771 68.9603 9.99123L69.3326 10.1058C74.1133 11.7516 75.2348 15.4977 75.2224 17.066L75.2215 17.1087L86.7467 86.7781L127.647 80.0121L127.662 80.0085C129.061 79.6897 130.529 79.8049 131.919 80.3495C133.223 80.8605 134.417 81.7332 135.389 82.8936L135.581 83.1301C136.878 84.8281 137.249 86.8251 137.203 88.6532C137.157 90.4847 136.692 92.1101 136.363 93.009L136.359 93.0184L136.356 93.0289L91.4164 233.359L91.413 233.369C91.0952 234.43 90.3247 236.011 89.063 237.258C87.8128 238.493 86.0972 239.385 83.8441 239.151C79.3023 238.665 77.2952 234.944 76.8754 233.118L71.544 147.183L71.51 146.63L30.3844 153.433C29.6318 153.558 28.4633 153.511 27.2822 153.248C26.0963 152.983 24.9804 152.516 24.282 151.865L24.2809 151.864L23.9018 151.499C23.0326 150.625 22.2729 149.587 21.7987 148.264C21.2574 146.754 21.074 144.833 21.5789 142.298L21.5797 142.297C21.7769 141.291 23.4511 135.322 26.0861 126.26C28.7156 117.216 32.2905 105.127 36.2744 91.9136C44.2386 65.499 53.8345 34.5999 60.7792 14.5497C61.2244 13.502 62.3596 12.0192 63.9106 10.9869Z" stroke="url(#paint1_linear_621_7652)" stroke-opacity="0.1"/>
<defs>
<linearGradient id="paint0_linear_621_7652" x1="61.6224" y1="10.1966" x2="99.2013" y2="237.359" gradientUnits="userSpaceOnUse">
<stop stop-color="#245FFF"/>
<stop offset="1" stop-color="#245FFF" stop-opacity="0.48"/>
</linearGradient>
<linearGradient id="paint1_linear_621_7652" x1="61.6224" y1="10.1966" x2="99.2013" y2="237.359" gradientUnits="userSpaceOnUse">
<stop stop-color="#245FFF"/>
<stop offset="1" stop-color="#245FFF" stop-opacity="0.48"/>
</linearGradient>
</defs>
</svg>
