<svg width="26" height="26" viewBox="0 0 26 26" fill="none" xmlns="http://www.w3.org/2000/svg">
<g clip-path="url(#clip0_826_11074)">
<path d="M12.7646 2.35413C13.5809 2.35416 14.3768 2.45043 15.1406 2.62854L14.7246 4.24182C14.0819 4.09461 13.4245 4.02052 12.7646 4.02112H12.7637C10.9902 4.02149 9.25841 4.56055 7.79883 5.56799C6.33921 6.57548 5.22106 8.00357 4.5918 9.66174C3.96254 11.32 3.85249 13.1309 4.27637 14.8531C4.70026 16.5753 5.63793 18.1275 6.96484 19.3043C8.29186 20.4812 9.94545 21.227 11.7061 21.442C13.4666 21.6569 15.2511 21.3313 16.8223 20.5084C18.3933 19.6855 19.6771 18.4042 20.5029 16.8346C21.293 15.3328 21.6266 13.6351 21.4688 11.9489L23.124 11.7526C23.1561 12.0854 23.1738 12.4222 23.1738 12.7633C23.1738 18.5124 18.5137 23.1732 12.7646 23.1735C7.01542 23.1735 2.35449 18.5125 2.35449 12.7633C2.35466 7.01422 7.01553 2.35413 12.7646 2.35413ZM13.5977 11.9303H16.5723L11.9307 18.4274V13.5973H8.95605L13.5977 7.09827V11.9303ZM21.2764 1.2887C21.3382 1.2887 21.3991 1.30757 21.4502 1.34241C21.5011 1.37718 21.5399 1.42667 21.5625 1.48401L21.5645 1.48792L21.833 2.13635C22.307 3.29216 23.2066 4.22226 24.3457 4.73499L24.3467 4.73596L25.1084 5.07385V5.07483C25.1659 5.10156 25.2149 5.14441 25.249 5.19788C25.2832 5.25142 25.3018 5.31404 25.3018 5.37756C25.3017 5.44089 25.2831 5.50287 25.249 5.55627C25.2319 5.58306 25.2112 5.60784 25.1875 5.62854L25.1084 5.67932L24.3027 6.03772H24.3018C23.1905 6.53615 22.3059 7.4332 21.8232 8.55139L21.5615 9.15393L21.5605 9.15686C21.5372 9.21283 21.4977 9.26088 21.4473 9.29456C21.3967 9.32824 21.3371 9.34631 21.2764 9.34631C21.2156 9.3463 21.156 9.32823 21.1055 9.29456C21.0551 9.26088 21.0155 9.21281 20.9922 9.15686L20.9912 9.15393L20.7295 8.55139C20.2464 7.43347 19.3614 6.53764 18.25 6.03967V6.0387L17.4424 5.67834C17.3854 5.65165 17.3367 5.60929 17.3027 5.55627C17.2685 5.50267 17.25 5.44022 17.25 5.37659C17.25 5.31295 17.2684 5.25051 17.3027 5.1969C17.3371 5.14325 17.3865 5.10049 17.4443 5.07385L17.4434 5.07288L18.2051 4.73596V4.73499C19.3447 4.2228 20.2452 3.29308 20.7197 2.13733L20.7188 2.13635L20.9883 1.48792L20.9902 1.48401C21.0128 1.42654 21.0525 1.3772 21.1035 1.34241C21.1545 1.3077 21.2146 1.28871 21.2764 1.2887Z" fill="#245FFF" stroke="white" stroke-width="0.461237"/>
</g>
<defs>
<clipPath id="clip0_826_11074">
<rect width="25.5365" height="25.5365" fill="white"/>
</clipPath>
</defs>
</svg>
