<svg width="26" height="26" viewBox="0 0 26 26" fill="none" xmlns="http://www.w3.org/2000/svg">
<path d="M6.47538 15.9559C6.06111 15.0196 5.84728 14.007 5.84761 12.9831C5.84761 9.04086 8.94391 5.84773 12.7638 5.84773C16.5836 5.84773 19.6799 9.04193 19.6799 12.9831C19.6802 14.007 19.4664 15.0196 19.0521 15.9559M12.7638 2.12366V3.18768M23.404 12.7639H22.3399M3.18756 12.7639H2.12354M20.2864 5.24018L19.5341 5.99244M5.99338 5.9935L5.24112 5.24124M15.4419 20.5387C16.5166 20.1907 16.9486 19.2065 17.0698 18.217C17.106 17.9212 16.8624 17.6754 16.5644 17.6754H9.0152C8.94245 17.6742 8.87028 17.6885 8.80347 17.7174C8.73665 17.7462 8.67672 17.7889 8.62763 17.8426C8.57855 17.8963 8.54143 17.9598 8.51873 18.0289C8.49603 18.0981 8.48827 18.1712 8.49596 18.2436C8.61513 19.231 8.91519 19.9524 10.0537 20.5376M15.4419 20.5387L10.0537 20.5376M15.4419 20.5387C15.3131 22.6082 14.7152 23.4275 12.7712 23.4041C10.6921 23.4424 10.2133 22.4284 10.0537 20.5376" stroke="#245FFF" stroke-width="1.4162" stroke-linecap="round" stroke-linejoin="round"/>
</svg>
