<svg width="26" height="26" viewBox="0 0 26 26" fill="none" xmlns="http://www.w3.org/2000/svg">
<path d="M22.3261 4.69519C22.3024 4.30609 22.1372 3.93909 21.8615 3.66344C21.5859 3.38779 21.2189 3.22256 20.8298 3.19891C19.5749 3.1241 16.3679 3.23881 13.7065 5.8992L13.2327 6.37901H7.41413C7.20372 6.37777 6.99517 6.4184 6.80063 6.49855C6.60608 6.5787 6.42942 6.69676 6.28095 6.84585L2.85945 10.2693C2.64962 10.479 2.50238 10.743 2.43426 11.0318C2.36613 11.3205 2.37982 11.6225 2.47378 11.9038C2.56775 12.1852 2.73827 12.4348 2.9662 12.6247C3.19414 12.8145 3.47048 12.9371 3.7642 12.9786L7.60166 13.5143L12.0117 17.9243L12.5474 21.7638C12.5886 22.0575 12.7111 22.3339 12.9011 22.5616C13.0911 22.7894 13.3411 22.9594 13.6227 23.0526C13.7867 23.1074 13.9585 23.1353 14.1314 23.1354C14.3408 23.1358 14.5483 23.0948 14.7417 23.0147C14.9352 22.9345 15.1109 22.8169 15.2586 22.6685L18.6821 19.247C18.8312 19.0985 18.9493 18.9219 19.0294 18.7273C19.1096 18.5328 19.1502 18.3242 19.149 18.1138V12.2953L19.6248 11.8195C22.2862 9.1581 22.4009 5.95107 22.3261 4.69519ZM7.41413 7.97504H11.6366L7.69344 11.9172L3.98665 11.4005L7.41413 7.97504ZM14.8367 7.03238C15.6035 6.26084 16.5261 5.6618 17.5429 5.27527C18.5597 4.88874 19.6473 4.72363 20.733 4.79095C20.8029 5.87723 20.6395 6.9659 20.2538 7.98378C19.868 9.00167 19.2689 9.92519 18.4966 10.6923L12.7648 16.422L9.10592 12.7631L14.8367 7.03238ZM17.5529 18.1138L14.1284 21.5413L13.6107 17.8335L17.5529 13.8913V18.1138ZM10.1553 19.0615C9.70643 20.045 8.20516 22.3393 3.98665 22.3393C3.775 22.3393 3.57203 22.2553 3.42237 22.1056C3.27271 21.9559 3.18863 21.753 3.18863 21.5413C3.18863 17.3228 5.48293 15.8215 6.46649 15.3717C6.56185 15.3282 6.66485 15.3039 6.7696 15.3002C6.87435 15.2965 6.9788 15.3135 7.07698 15.3502C7.17517 15.3869 7.26517 15.4425 7.34184 15.514C7.41852 15.5854 7.48037 15.6713 7.52386 15.7667C7.56735 15.862 7.59163 15.965 7.59531 16.0698C7.599 16.1745 7.58202 16.279 7.54534 16.3772C7.50866 16.4754 7.453 16.5654 7.38153 16.642C7.31007 16.7187 7.2242 16.7806 7.12884 16.824C6.48743 17.1163 5.07195 18.057 4.82257 20.7054C7.47099 20.456 8.41365 19.0405 8.70392 18.3991C8.74741 18.3038 8.80926 18.2179 8.88594 18.1464C8.96261 18.075 9.05261 18.0193 9.1508 17.9826C9.24898 17.9459 9.35343 17.929 9.45818 17.9327C9.56293 17.9363 9.66593 17.9606 9.7613 18.0041C9.85666 18.0476 9.94253 18.1094 10.014 18.1861C10.0855 18.2628 10.1411 18.3528 10.1778 18.451C10.2145 18.5492 10.2315 18.6536 10.2278 18.7584C10.2241 18.8631 10.1998 18.9661 10.1563 19.0615H10.1553Z" fill="#245FFF"/>
</svg>
