<svg width="26" height="26" viewBox="0 0 26 26" fill="none" xmlns="http://www.w3.org/2000/svg">
<g clip-path="url(#clip0_826_11076)">
<path d="M25.1858 10.8513L22.6412 5.75894C22.5592 5.59487 22.4458 5.44854 22.3073 5.32832C22.1688 5.20809 22.008 5.11632 21.834 5.05824C21.6601 5.00016 21.4764 4.97691 21.2934 4.98983C21.1105 5.00274 20.9319 5.05156 20.7678 5.1335L18.2182 6.40833L12.9183 5.00582C12.8182 4.97988 12.7132 4.97988 12.6131 5.00582L7.31326 6.40833L4.7646 5.1335C4.60047 5.0514 4.42178 5.00246 4.23874 4.98947C4.05569 4.97647 3.87187 4.99968 3.6978 5.05777C3.52373 5.11585 3.36281 5.20768 3.22425 5.32799C3.08568 5.4483 2.97219 5.59474 2.89025 5.75894L0.34558 10.8513C0.180027 11.1825 0.152808 11.566 0.269909 11.9173C0.38701 12.2686 0.638842 12.559 0.970028 12.7246L3.6783 14.0793L9.22551 18.0414C9.28563 18.0848 9.35328 18.1165 9.42501 18.1352L15.8091 19.7312C15.8577 19.7434 15.9077 19.7494 15.9578 19.7492C16.1165 19.749 16.2686 19.6859 16.3807 19.5736L21.898 14.0563L24.5614 12.7246C24.8926 12.559 25.1444 12.2686 25.2615 11.9173C25.3786 11.566 25.3514 11.1825 25.1858 10.8513ZM19.899 14.3586L16.3279 11.4977C16.2127 11.4055 16.0675 11.3591 15.9202 11.3674C15.773 11.3757 15.6339 11.4381 15.5298 11.5426C13.6695 13.4169 11.5896 13.1805 10.2639 12.3326C10.2379 12.3165 10.2158 12.2947 10.1996 12.2687C10.1833 12.2428 10.1733 12.2134 10.1702 12.183C10.1666 12.155 10.1694 12.1267 10.1782 12.0999C10.187 12.0732 10.2016 12.0487 10.221 12.0284L14.6041 7.77892H17.9817L20.8157 13.4468L19.899 14.3586ZM1.40495 11.5386C1.38845 11.4886 1.39239 11.4341 1.41592 11.387L3.96159 6.29361C3.97832 6.26041 4.004 6.23254 4.03572 6.21315C4.06745 6.19377 4.10396 6.18363 4.14114 6.18389C4.17196 6.18392 4.20235 6.19109 4.22992 6.20484L6.44542 7.31208L3.72019 12.7665L1.5047 11.6593C1.48079 11.6469 1.45963 11.6299 1.44249 11.6091C1.42534 11.5884 1.41257 11.5644 1.40495 11.5386ZM15.7742 18.4883L9.82901 17.002L4.75163 13.375L7.66239 7.55448L12.7657 6.20384L14.242 6.59487C14.1291 6.61671 14.0251 6.67116 13.9428 6.75148L9.38411 11.1755C9.2361 11.3234 9.12322 11.5027 9.05382 11.7001C8.98442 11.8975 8.96027 12.108 8.98316 12.316C9.00604 12.524 9.07538 12.7242 9.18605 12.9018C9.29672 13.0794 9.44588 13.2299 9.62252 13.3421C11.6395 14.6309 14.0864 14.3885 15.9867 12.7546L19.0501 15.2104L15.7742 18.4883ZM24.1265 11.5386C24.1183 11.5635 24.1052 11.5865 24.0881 11.6064C24.071 11.6262 24.0501 11.6425 24.0267 11.6543L21.8112 12.7665L19.086 7.31208L21.3015 6.20484C21.325 6.19305 21.3505 6.18602 21.3767 6.18414C21.4029 6.18225 21.4292 6.18556 21.4541 6.19386C21.479 6.20207 21.502 6.21511 21.5219 6.23222C21.5417 6.24934 21.558 6.2702 21.5698 6.29361L24.1155 11.387C24.139 11.4341 24.143 11.4886 24.1265 11.5386ZM12.9542 21.6893C12.9158 21.8433 12.8179 21.9757 12.6819 22.0574C12.5459 22.1392 12.383 22.1636 12.229 22.1253L8.06639 21.0848C7.99457 21.0664 7.92689 21.0346 7.86688 20.9911L5.23642 19.1147C5.10718 19.0221 5.02002 18.882 4.99411 18.7251C4.96821 18.5683 5.00567 18.4076 5.09827 18.2783C5.19086 18.1491 5.331 18.0619 5.48786 18.036C5.64472 18.0101 5.80545 18.0476 5.93469 18.1402L8.46739 19.9487L12.5183 20.9612C12.5948 20.9803 12.6667 21.0143 12.73 21.0613C12.7933 21.1082 12.8466 21.1672 12.887 21.2349C12.9274 21.3026 12.9541 21.3775 12.9655 21.4555C12.9768 21.5335 12.9727 21.613 12.9532 21.6893H12.9542Z" fill="#245FFF"/>
</g>
<defs>
<clipPath id="clip0_826_11076">
<rect width="25.5365" height="25.5365" fill="white"/>
</clipPath>
</defs>
</svg>
