<svg width="176" height="23" viewBox="0 0 176 23" fill="none" xmlns="http://www.w3.org/2000/svg">
<g clip-path="url(#clip0_420_25659)">
<path d="M6.39141 9.95167C6.32738 9.86789 6.24285 9.80208 6.14597 9.76054C6.04905 9.71897 5.94309 9.70315 5.83825 9.71451C5.73344 9.7259 5.63336 9.76414 5.54763 9.82553C5.46191 9.88691 5.39349 9.96937 5.34895 10.0649L0.0666419 20.6262C0.0185209 20.7225 -0.00419937 20.8295 0.00063842 20.937C0.00547623 21.0445 0.0377115 21.149 0.0942838 21.2405C0.150856 21.332 0.229887 21.4076 0.323874 21.46C0.417859 21.5124 0.523684 21.5399 0.631295 21.5399H7.98664C8.10446 21.5427 8.22052 21.5112 8.32074 21.4492C8.42099 21.3872 8.50107 21.2975 8.55129 21.1909C10.1379 17.9123 9.17637 12.9272 6.39141 9.95167Z" fill="url(#paint0_linear_420_25659)"/>
<path d="M10.2657 0.338809C8.94954 2.36402 8.18251 4.69664 8.03992 7.10778C7.89734 9.51891 8.3841 11.9257 9.45245 14.0919L12.9985 21.1841C13.051 21.289 13.1316 21.3771 13.2313 21.4388C13.331 21.5005 13.4459 21.5331 13.5632 21.5331H20.9172C21.0248 21.5331 21.1307 21.5056 21.2246 21.4532C21.3186 21.4008 21.3977 21.3252 21.4542 21.2337C21.5108 21.1421 21.543 21.0376 21.5479 20.9301C21.5527 20.8226 21.53 20.7157 21.4819 20.6194C21.4819 20.6194 11.5882 0.829826 11.3396 0.334847C11.2904 0.234092 11.2139 0.149236 11.1187 0.0900103C11.0235 0.0307853 10.9135 -0.000409614 10.8014 4.06148e-06C10.6893 0.000417741 10.5796 0.0324232 10.4848 0.0923492C10.3901 0.152275 10.3142 0.237694 10.2657 0.338809Z" fill="#2684FF"/>
<path d="M96.5243 8.80667C96.5243 11.4219 97.7374 13.4982 102.483 14.4149C105.314 15.0093 105.907 15.4663 105.907 16.41C105.907 17.3267 105.313 17.92 103.319 17.92C100.908 17.8767 98.5464 17.2376 96.4434 16.0597V20.3193C97.8725 21.0203 99.7596 21.8023 103.265 21.8023C108.226 21.8023 110.194 19.5899 110.194 16.302L96.5243 8.80667ZM110.194 16.302C110.194 13.2014 108.549 11.7452 103.912 10.748C101.351 10.1816 100.73 9.61567 100.73 8.80667C100.73 7.78303 101.647 7.35079 103.346 7.35079C105.395 7.35079 107.417 7.97092 109.331 8.83375V4.7623C107.496 3.92688 105.497 3.51237 103.48 3.54912C98.8968 3.54912 96.5243 5.54423 96.5243 8.80667" fill="#0052CC"/>
<path d="M160.26 3.82031V21.5346H164.034V8.02648L165.625 11.6122L170.964 21.5346H175.709V3.82031H171.935V15.2524L170.505 11.9358L166.218 3.82031H160.26Z" fill="#0052CC"/>
<path d="M136.252 3.82031H132.127V21.5346H136.252V3.82031Z" fill="#0052CC"/>
<path d="M127.368 16.302C127.368 13.2014 125.723 11.7452 121.086 10.748C118.524 10.1816 117.904 9.61567 117.904 8.80667C117.904 7.78303 118.821 7.35079 120.519 7.35079C122.569 7.35079 124.591 7.97092 126.505 8.83375V4.7623C124.67 3.92688 122.671 3.51237 120.654 3.54912C116.071 3.54912 113.698 5.54423 113.698 8.80667C113.698 11.4219 114.911 13.4982 119.657 14.4149C122.488 15.0093 123.081 15.4663 123.081 16.41C123.081 17.3267 122.487 17.92 120.492 17.92C118.082 17.8767 115.72 17.2376 113.617 16.0597V20.3193C115.046 21.0203 116.933 21.8023 120.439 21.8023C125.4 21.8023 127.368 19.5899 127.368 16.302Z" fill="#0052CC"/>
<path d="M64.4785 3.82031V21.5346H72.9576L74.2926 17.7058H68.6305V3.82031H64.4785Z" fill="#0052CC"/>
<path d="M47.7266 3.82031V7.64873H52.3102V21.5346H56.4622V7.64873H61.3694V3.82031H47.7266Z" fill="#0052CC"/>
<path d="M41.7046 3.82031H36.2631L30.0859 21.5346H34.8033L35.679 18.5511C37.8356 19.1844 40.1292 19.1844 42.2857 18.5511L43.1615 21.5346H47.8798L41.7046 3.82031ZM38.9837 15.3567C38.2153 15.3567 37.4509 15.2467 36.7135 15.0302L38.9837 7.2997L41.2538 15.0328C40.5165 15.2485 39.7521 15.3576 38.9837 15.3567Z" fill="#0052CC"/>
<path d="M87.5753 3.82031H82.1342L75.957 21.5346H80.6754L81.5511 18.5511C83.708 19.1844 86.0013 19.1844 88.1578 18.5511L89.0335 21.5346H93.7518L87.5753 3.82031ZM84.8548 15.3567C84.0864 15.3567 83.322 15.2467 82.5846 15.0302L84.8548 7.2997L87.1249 15.0328C86.3876 15.2485 85.6232 15.3576 84.8548 15.3567Z" fill="#0052CC"/>
<path d="M151.116 3.82031H145.675L139.498 21.5346H144.216L145.092 18.5511C147.249 19.1844 149.542 19.1844 151.699 18.5511L152.575 21.5346H157.293L151.116 3.82031ZM148.394 15.3567C147.626 15.3567 146.861 15.2467 146.124 15.0302L148.394 7.2997L150.664 15.0328C149.927 15.2485 149.163 15.3576 148.394 15.3567Z" fill="#0052CC"/>
</g>
<defs>
<linearGradient id="paint0_linear_420_25659" x1="9.28633" y1="11.5816" x2="3.71179" y2="21.2371" gradientUnits="userSpaceOnUse">
<stop stop-color="#0052CC"/>
<stop offset="0.923" stop-color="#2684FF"/>
</linearGradient>
<clipPath id="clip0_420_25659">
<rect width="176" height="22.1238" fill="white"/>
</clipPath>
</defs>
</svg>
