<svg width="28" height="28" viewBox="0 0 28 28" fill="none" xmlns="http://www.w3.org/2000/svg">
<g clip-path="url(#clip0_621_7743)">
<path d="M25.8404 13.5849C25.9607 6.69339 20.4716 1.00924 13.5801 0.888949C6.68869 0.768658 1.00454 6.25778 0.884245 13.1492C0.763954 20.0407 6.25307 25.7249 13.1445 25.8451C20.036 25.9654 25.7201 20.4763 25.8404 13.5849Z" fill="url(#paint0_linear_621_7743)"/>
<path d="M25.8404 13.5849C25.9607 6.69339 20.4716 1.00924 13.5801 0.888949C6.68869 0.768658 1.00454 6.25778 0.884245 13.1492C0.763954 20.0407 6.25307 25.7249 13.1445 25.8451C20.036 25.9654 25.7201 20.4763 25.8404 13.5849Z" stroke="url(#paint1_radial_621_7743)" stroke-width="1.31368"/>
<path fill-rule="evenodd" clip-rule="evenodd" d="M5.47998 8.11089C5.47998 6.65983 6.65629 5.48352 8.10735 5.48352H18.6169C20.0679 5.48352 21.2443 6.65983 21.2443 8.11089V18.6203C21.2443 20.0714 20.0679 21.2477 18.6169 21.2477H8.10735C6.65629 21.2477 5.47998 20.0714 5.47998 18.6203V8.11089ZM7.23155 8.11089C7.23155 7.6272 7.62366 7.23509 8.10735 7.23509H8.98314V8.98668C8.98314 9.47037 8.59103 9.86246 8.10735 9.86246C7.62366 9.86246 7.23155 9.47037 7.23155 8.98668V8.11089ZM11.6105 9.86246C11.1268 9.86246 10.7347 9.47037 10.7347 8.98668V7.23509H12.4863V8.98668C12.4863 9.47037 12.0942 9.86246 11.6105 9.86246ZM15.1137 9.86246C14.63 9.86246 14.2379 9.47037 14.2379 8.98668V7.23509H15.9895V8.98668C15.9895 9.47037 15.5974 9.86246 15.1137 9.86246ZM18.6169 9.86246C18.1332 9.86246 17.7411 9.47037 17.7411 8.98668V7.23509H18.6169C19.1005 7.23509 19.4926 7.6272 19.4926 8.11089V8.98668C19.4926 9.47037 19.1005 9.86246 18.6169 9.86246ZM11.6105 16.8688C11.6105 16.3851 12.0026 15.9931 12.4863 15.9931H14.2379C14.7216 15.9931 15.1137 16.3851 15.1137 16.8688V19.4961H16.8652V16.8688C16.8652 15.4177 15.6889 14.2414 14.2379 14.2414H12.4863C11.0352 14.2414 9.85894 15.4177 9.85894 16.8688V19.4961H11.6105V16.8688Z" fill="white"/>
</g>
<defs>
<linearGradient id="paint0_linear_621_7743" x1="13.6033" y1="0.221046" x2="13.1448" y2="26.4907" gradientUnits="userSpaceOnUse">
<stop stop-color="#5E6AD2"/>
<stop offset="1" stop-color="#5790FF"/>
</linearGradient>
<radialGradient id="paint1_radial_621_7743" cx="0" cy="0" r="1" gradientUnits="userSpaceOnUse" gradientTransform="translate(12.4878 0.201574) rotate(88.5684) scale(26.2973 28.8134)">
<stop stop-color="white" stop-opacity="0.48"/>
<stop offset="1" stop-color="white" stop-opacity="0.04"/>
</radialGradient>
<clipPath id="clip0_621_7743">
<rect width="27.5874" height="27.5874" fill="white"/>
</clipPath>
</defs>
</svg>
