<svg width="28" height="28" viewBox="0 0 28 28" fill="none" xmlns="http://www.w3.org/2000/svg">
<g clip-path="url(#clip0_621_7700)">
<path d="M25.8431 13.5849C25.9634 6.69339 20.4743 1.00924 13.5828 0.888949C6.69137 0.768658 1.00722 6.25778 0.88693 13.1492C0.766639 20.0407 6.25576 25.7249 13.1472 25.8451C20.0387 25.9654 25.7228 20.4763 25.8431 13.5849Z" fill="url(#paint0_linear_621_7700)"/>
<path d="M25.8431 13.5849C25.9634 6.69339 20.4743 1.00924 13.5828 0.888949C6.69137 0.768658 1.00722 6.25778 0.88693 13.1492C0.766639 20.0407 6.25576 25.7249 13.1472 25.8451C20.0387 25.9654 25.7228 20.4763 25.8431 13.5849Z" stroke="url(#paint1_radial_621_7700)" stroke-width="1.31368"/>
<mask id="mask0_621_7700" style="mask-type:luminance" maskUnits="userSpaceOnUse" x="2" y="2" width="22" height="22">
<path d="M23.8712 2.85999H2.85229V23.8789H23.8712V2.85999Z" fill="white"/>
</mask>
<g mask="url(#mask0_621_7700)">
<path d="M9.85684 16.8666C9.85684 17.3503 10.2489 17.7425 10.7326 17.7425C11.2163 17.7425 11.6084 17.3503 11.6084 16.8666C11.6084 14.845 12.0558 13.5891 12.8207 12.8242C13.5856 12.0593 14.8415 11.612 16.8632 11.612C17.3468 11.612 17.7389 11.2199 17.7389 10.7362C17.7389 10.2525 17.3468 9.86039 16.8632 9.86039C14.8415 9.86039 13.5856 9.41303 12.8207 8.64813C12.0558 7.88323 11.6084 6.6274 11.6084 4.60565C11.6084 4.12197 11.2163 3.72986 10.7326 3.72986C10.2489 3.72986 9.85684 4.12197 9.85684 4.60565C9.85684 6.6274 9.40947 7.88323 8.64458 8.64813C7.87969 9.41303 6.62385 9.86039 4.6021 9.86039C4.11841 9.86039 3.72632 10.2525 3.72632 10.7362C3.72632 11.2199 4.11841 11.612 4.6021 11.612C6.62385 11.612 7.87969 12.0593 8.64458 12.8242C9.40947 13.5891 9.85684 14.845 9.85684 16.8666Z" fill="white"/>
<path d="M17.3038 22.1204C17.3038 22.6041 17.696 22.9962 18.1797 22.9962C18.6632 22.9962 19.0554 22.6041 19.0554 22.1204C19.0554 20.859 19.3355 20.1505 19.7431 19.7428C20.1507 19.3352 20.8592 19.0551 22.1207 19.0551C22.6043 19.0551 22.9964 18.663 22.9964 18.1793C22.9964 17.6957 22.6043 17.3036 22.1207 17.3036C20.8592 17.3036 20.1507 17.0235 19.7431 16.6159C19.3355 16.2083 19.0554 15.4998 19.0554 14.2383C19.0554 13.7547 18.6632 13.3625 18.1797 13.3625C17.696 13.3625 17.3038 13.7547 17.3038 14.2383C17.3038 15.4998 17.0238 16.2083 16.6161 16.6159C16.2085 17.0235 15.5 17.3036 14.2386 17.3036C13.7549 17.3036 13.3628 17.6957 13.3628 18.1793C13.3628 18.663 13.7549 19.0551 14.2386 19.0551C15.5 19.0551 16.2085 19.3352 16.6161 19.7428C17.0238 20.1505 17.3038 20.859 17.3038 22.1204Z" fill="white"/>
</g>
</g>
<defs>
<linearGradient id="paint0_linear_621_7700" x1="13.606" y1="0.221046" x2="13.1475" y2="26.4907" gradientUnits="userSpaceOnUse">
<stop stop-color="#245FFF" stop-opacity="0.18"/>
<stop offset="1" stop-color="#245FFF"/>
</linearGradient>
<radialGradient id="paint1_radial_621_7700" cx="0" cy="0" r="1" gradientUnits="userSpaceOnUse" gradientTransform="translate(12.4905 0.201574) rotate(88.5684) scale(26.2973 28.8134)">
<stop stop-color="white" stop-opacity="0.48"/>
<stop offset="1" stop-color="white" stop-opacity="0.04"/>
</radialGradient>
<clipPath id="clip0_621_7700">
<rect width="27.5874" height="27.5874" fill="white"/>
</clipPath>
</defs>
</svg>
