<svg width="28" height="28" viewBox="0 0 28 28" fill="none" xmlns="http://www.w3.org/2000/svg">
<g clip-path="url(#clip0_621_7663)">
<path d="M26.1335 13.7423C26.2552 6.77269 20.7038 1.02406 13.7341 0.902406C6.76451 0.78075 1.01588 6.33214 0.894225 13.3018C0.77257 20.2714 6.32396 26.02 13.2936 26.1417C20.2632 26.2634 26.0119 20.712 26.1335 13.7423Z" fill="url(#paint0_linear_621_7663)"/>
<path d="M26.1335 13.7423C26.2552 6.77269 20.7038 1.02406 13.7341 0.902406C6.76451 0.78075 1.01588 6.33214 0.894225 13.3018C0.77257 20.2714 6.32396 26.02 13.2936 26.1417C20.2632 26.2634 26.0119 20.712 26.1335 13.7423Z" stroke="url(#paint1_radial_621_7663)" stroke-width="1.32859"/>
<path d="M14.0324 6.32163C13.8356 6.42897 13.6629 6.53675 13.5154 6.63703C13.3679 6.53675 13.1953 6.42897 12.9985 6.32163C12.2918 5.93617 11.2608 5.54919 9.97255 5.54919C8.62774 5.54919 7.28435 6.08823 6.2817 7.15773C5.2748 8.23174 4.6582 9.78821 4.6582 11.7493C4.6582 14.7119 6.75983 17.1542 8.71648 18.7706C9.71865 19.5985 10.7404 20.2579 11.5595 20.7131C11.9689 20.9404 12.3363 21.1216 12.6333 21.2489C12.7809 21.3121 12.9211 21.3665 13.0464 21.4066C13.142 21.4372 13.3242 21.4923 13.5154 21.4923C13.7066 21.4923 13.8889 21.4372 13.9844 21.4066C14.1098 21.3665 14.25 21.3121 14.3976 21.2489C14.6945 21.1216 15.062 20.9404 15.4714 20.7131C16.2906 20.2579 17.3123 19.5985 18.3144 18.7706C20.271 17.1542 22.3727 14.7119 22.3727 11.7493C22.3727 9.78821 21.7561 8.23174 20.7492 7.15773C19.7465 6.08823 18.4032 5.54919 17.0584 5.54919C15.77 5.54919 14.739 5.93617 14.0324 6.32163Z" fill="white"/>
</g>
<defs>
<linearGradient id="paint0_linear_621_7663" x1="13.7576" y1="0.226927" x2="13.2939" y2="26.7946" gradientUnits="userSpaceOnUse">
<stop stop-color="#245FFF"/>
<stop offset="1" stop-color="#3269FF"/>
</linearGradient>
<radialGradient id="paint1_radial_621_7663" cx="0" cy="0" r="1" gradientUnits="userSpaceOnUse" gradientTransform="translate(12.6294 0.207234) rotate(88.5684) scale(26.5956 29.1403)">
<stop stop-color="white" stop-opacity="0.48"/>
<stop offset="1" stop-color="white" stop-opacity="0.04"/>
</radialGradient>
<clipPath id="clip0_621_7663">
<rect width="27.9003" height="27.9003" fill="white"/>
</clipPath>
</defs>
</svg>
