<svg width="40" height="40" viewBox="0 0 40 40" fill="none" xmlns="http://www.w3.org/2000/svg">
<rect width="39.2368" height="39.2368" rx="19.6184" fill="white"/>
<g style="mix-blend-mode:hard-light">
<path d="M21.6182 26.5215C21.6182 26.5215 21.0973 28.6907 19.1702 29.3708C19.1702 29.3708 18.3675 31.9812 16.9213 32.1804C16.9213 32.1804 16.3177 32.4623 16.2381 31.8985C16.1584 31.3378 16.7191 29.57 16.7191 29.57C16.7191 29.57 12.9444 31.5768 10.1349 27.2016C10.1349 27.2016 5.27563 25.2745 7.16296 20.3356C7.16296 20.3356 6.84125 11.7844 15.5548 9.89702C15.5548 9.89702 22.1789 6.84543 27.4395 10.8621C27.4395 10.8621 31.0763 11.5331 32.6419 15.5161C33.2302 17.0051 33.2669 18.6719 32.6266 20.1425C32.0445 21.4814 30.8496 22.8479 28.4016 22.949C28.4046 22.949 26.3151 27.9676 21.6182 26.5215Z" fill="url(#paint0_linear_534_27969)"/>
<path d="M11.1482 16.6361C11.1451 16.5717 11.0899 16.5258 11.0256 16.5227C10.9613 16.5258 10.9092 16.5809 10.9122 16.6453C10.9153 16.6851 11.1512 20.7386 15.3885 21.3544C15.6765 21.6547 17.9131 23.83 21.4457 22.3471C21.6847 22.5677 22.6192 23.3428 23.8754 23.3428C24.2338 23.3428 24.6199 23.2785 25.0213 23.1222C25.0825 23.0977 25.1132 23.0303 25.0887 22.969C25.0641 22.9078 24.9967 22.8802 24.9355 22.9016C23.0543 23.64 21.5714 22.1418 21.556 22.1265C21.5223 22.0897 21.4703 22.0805 21.4243 22.0989C17.7783 23.6768 15.6275 21.2686 15.5386 21.1675C15.5203 21.1461 15.4927 21.1307 15.4651 21.1277C11.381 20.5609 11.1543 16.7954 11.1482 16.6361Z" fill="url(#paint1_linear_534_27969)"/>
<path d="M23.9306 15.1133C23.3822 14.1206 23.4343 12.8215 24.0624 11.8748C24.0991 11.8197 24.0838 11.7461 24.0287 11.7124C23.9735 11.6757 23.9 11.691 23.8663 11.7461C23.1922 12.7603 23.134 14.1604 23.7253 15.2267C24.3013 16.2714 25.4809 16.9608 26.6728 16.9608C26.6973 16.9608 26.7218 16.9608 26.7463 16.9608C26.8106 16.9577 26.8627 16.9056 26.8627 16.8413C26.8597 16.777 26.8045 16.7249 26.7432 16.7249C25.6096 16.7555 24.479 16.1029 23.9306 15.1133Z" fill="url(#paint2_linear_534_27969)"/>
<path d="M32.7878 15.4561C31.2927 11.66 27.904 10.8022 27.5057 10.7133C22.3646 6.81609 15.8784 9.57968 15.5046 9.74513C10.9487 10.7378 8.88061 13.5627 7.94613 15.7625C6.99021 18.0114 6.99634 20.0213 7.00553 20.3093C5.21625 25.046 9.52095 27.1049 10.0295 27.3286C12.401 30.9837 15.4801 30.2208 16.4728 29.8501C16.3104 30.4016 16.0194 31.477 16.0837 31.9243C16.1205 32.1756 16.2461 32.2951 16.3472 32.3502C16.433 32.3962 16.5249 32.4115 16.6107 32.4115C16.767 32.4115 16.9079 32.3594 16.9661 32.3349C18.354 32.1204 19.1506 29.9359 19.2977 29.4916C20.9399 28.8697 21.568 27.2366 21.7304 26.7158C22.2758 26.869 22.7874 26.9364 23.2623 26.9364C26.559 26.9364 28.2319 23.6918 28.5107 23.0974C31.0567 22.9564 32.2363 21.449 32.7786 20.202C33.4098 18.7345 33.4159 17.0493 32.7878 15.4561ZM10.3666 27.2673C11.1662 26.8169 14.5855 25.19 16.6505 25.717C17.0151 25.8089 17.3307 26.0172 17.5207 26.2868C17.7167 26.5657 17.7841 26.9486 17.7259 27.4297C17.6218 28.2814 17.3521 28.8482 16.8252 29.3354L16.6444 29.4304C16.4973 29.51 13.0505 31.2656 10.3666 27.2673ZM32.4845 20.0764C32.1199 20.9159 31.6052 21.5593 30.9464 22.0128C31.452 21.2315 31.7001 20.3889 31.6542 19.5954C31.5929 18.5169 30.9526 17.5549 30.0487 17.1658C30.2755 16.1884 30.0763 15.1191 29.5095 14.2827C28.9243 13.4187 27.95 12.8151 26.9083 12.665C26.8439 12.6558 26.7857 12.6987 26.7765 12.763C26.7674 12.8274 26.8133 12.8856 26.8746 12.8948C27.855 13.0357 28.768 13.6025 29.3165 14.4114C29.8649 15.2202 30.0457 16.265 29.7975 17.2025C29.7822 17.2608 29.8128 17.319 29.868 17.3404C30.735 17.6682 31.3601 18.5782 31.4183 19.6015C31.4673 20.487 31.1241 21.4398 30.4501 22.2916C29.8741 22.5765 29.2092 22.7389 28.4555 22.7757C28.4402 21.6084 27.2821 20.0152 26.0811 19.2553C24.782 18.4342 23.0877 18.2412 21.6354 18.7467C21.1207 17.9624 20.1525 17.4293 19.0189 17.3159C18.0354 17.2179 17.058 17.4139 16.0653 17.6499C15.8631 16.7368 15.0206 15.6522 14.0432 15.4684C13.9789 15.4561 13.9176 15.499 13.9053 15.5634C13.8931 15.6277 13.936 15.689 14.0003 15.7013C14.898 15.8698 15.7222 16.9544 15.857 17.8122C15.8631 17.8459 15.8815 17.8735 15.9091 17.8919C15.9367 17.9103 15.9704 17.9164 16.001 17.9072C17.0151 17.6621 18.0078 17.4507 18.9974 17.5488C20.0943 17.6591 21.0257 18.1799 21.4853 18.9489C21.5159 18.998 21.5741 19.0194 21.6262 18.998C23.0295 18.4771 24.687 18.6517 25.9524 19.4514C27.1657 20.2204 28.3514 21.9086 28.2074 22.9687C27.8857 23.6519 25.8084 27.6319 21.6569 26.3543L21.4975 26.3052C21.4975 26.3052 20.1065 25.7231 19.6133 25.1471C19.5704 25.0981 19.4968 25.0919 19.4478 25.1348C19.3988 25.1777 19.3927 25.2513 19.4356 25.3003C19.9625 25.9131 20.655 26.3665 21.4209 26.6086C21.2708 27.0865 20.6611 28.6613 19.1139 29.2098L19.0403 29.2373L19.0158 29.3139C19.0066 29.3384 18.2253 31.8294 16.8956 32.0162L16.8527 32.0285C16.7945 32.0561 16.6015 32.1204 16.4943 32.0591C16.4759 32.0469 16.4146 32.0162 16.3932 31.8661C16.3319 31.4341 16.7149 30.0891 16.8681 29.6081L16.8711 29.6019C17.5145 29.0596 17.8424 28.4101 17.9619 27.448C18.0293 26.9088 17.9465 26.4676 17.7167 26.1398C17.4961 25.8273 17.1315 25.5852 16.7118 25.478C14.5273 24.9204 11.0498 26.5963 10.2348 27.062L10.1919 27.0436C10.002 26.967 5.58391 25.1471 7.2629 20.5084C7.39464 21.0048 7.62137 21.449 7.94307 21.8443C8.60793 22.6623 9.81814 23.3915 10.8476 23.3915C11.0253 23.3915 11.1969 23.3701 11.3593 23.3241C11.4205 23.3057 11.4573 23.2414 11.4389 23.177C11.4205 23.1158 11.3562 23.0759 11.2919 23.0974C10.3084 23.3793 8.85916 22.598 8.12384 21.6941C7.62136 21.0783 7.36707 20.3277 7.35787 19.4269C7.43141 18.5905 7.64281 17.2608 8.24026 15.8606C9.46887 12.9775 11.7024 11.081 14.8766 10.2108C14.9103 10.2445 14.9593 10.2568 15.0052 10.2384C15.7528 9.94122 16.623 9.99024 17.3307 10.3763C18.0384 10.7623 18.5532 11.464 18.7064 12.2544C18.7156 12.3096 18.7615 12.3463 18.8167 12.3494C19.4141 12.3739 19.9993 12.6251 20.4283 13.0418C20.8572 13.4555 21.1299 14.0345 21.1728 14.6289C21.1789 14.6902 21.2279 14.7392 21.2892 14.7392C21.2923 14.7392 21.2953 14.7392 21.2984 14.7392C21.3627 14.7331 21.4117 14.6779 21.4087 14.6136C21.3597 13.961 21.0625 13.3268 20.5937 12.8733C20.1464 12.4413 19.5397 12.1686 18.9178 12.1227C18.7309 11.3016 18.1855 10.5754 17.4441 10.171C17.0458 9.95347 16.6046 9.83398 16.1542 9.8156C17.8209 9.20896 23.0754 7.7138 27.3434 10.9737L27.374 10.9952L27.4108 11.0013C27.4475 11.0074 30.9801 11.7091 32.4967 15.5573C33.0911 17.0861 33.0881 18.6854 32.4845 20.0764Z" fill="url(#paint3_linear_534_27969)"/>
<path d="M21.4739 14.7152C21.4739 14.8653 21.3513 14.9909 21.1981 14.9909C21.0449 14.9909 20.9224 14.8684 20.9224 14.7152C20.9224 14.5651 21.0449 14.4395 21.1981 14.4395C21.3513 14.4395 21.4739 14.562 21.4739 14.7152Z" fill="url(#paint4_linear_534_27969)"/>
<path d="M19.7273 25.1383C19.7273 25.2884 19.6047 25.414 19.4515 25.414C19.3014 25.414 19.1758 25.2915 19.1758 25.1383C19.1758 24.9882 19.2983 24.8625 19.4515 24.8625C19.6017 24.8625 19.7273 24.9851 19.7273 25.1383Z" fill="url(#paint5_linear_534_27969)"/>
<path d="M11.302 16.5668C11.302 16.7169 11.1794 16.8425 11.0262 16.8425C10.8761 16.8425 10.7505 16.72 10.7505 16.5668C10.7505 16.4166 10.873 16.291 11.0262 16.291C11.1764 16.291 11.302 16.4136 11.302 16.5668Z" fill="url(#paint6_linear_534_27969)"/>
<path d="M11.4213 23.4609C11.5735 23.4609 11.697 23.3375 11.697 23.1852C11.697 23.0329 11.5735 22.9094 11.4213 22.9094C11.269 22.9094 11.1455 23.0329 11.1455 23.1852C11.1455 23.3375 11.269 23.4609 11.4213 23.4609Z" fill="url(#paint7_linear_534_27969)"/>
<path d="M14.1389 15.4703C14.1389 15.6205 14.0163 15.7461 13.8631 15.7461C13.713 15.7461 13.5874 15.6235 13.5874 15.4703C13.5874 15.3202 13.71 15.1946 13.8631 15.1946C14.0163 15.1946 14.1389 15.3171 14.1389 15.4703Z" fill="url(#paint8_linear_534_27969)"/>
<path d="M27.1203 16.7533C27.1203 16.9034 26.9978 17.029 26.8446 17.029C26.6914 17.029 26.5688 16.9065 26.5688 16.7533C26.5688 16.6032 26.6914 16.4775 26.8446 16.4775C26.9978 16.4775 27.1203 16.6001 27.1203 16.7533Z" fill="url(#paint9_linear_534_27969)"/>
<path d="M25.322 22.9432C25.322 23.0934 25.1994 23.219 25.0463 23.219C24.8961 23.219 24.7705 23.0964 24.7705 22.9432C24.7705 22.7931 24.8931 22.6675 25.0463 22.6675C25.1964 22.6705 25.322 22.7931 25.322 22.9432Z" fill="url(#paint10_linear_534_27969)"/>
<path d="M27.0593 12.7704C27.0593 12.9205 26.9368 13.0461 26.7836 13.0461C26.6334 13.0461 26.5078 12.9236 26.5078 12.7704C26.5078 12.6202 26.6304 12.4946 26.7836 12.4946C26.9368 12.4977 27.0593 12.6202 27.0593 12.7704Z" fill="url(#paint11_linear_534_27969)"/>
<path d="M21.7689 10.008C21.9026 10.008 22.0109 9.89965 22.0109 9.76597C22.0109 9.63229 21.9026 9.52393 21.7689 9.52393C21.6352 9.52393 21.5269 9.63229 21.5269 9.76597C21.5269 9.89965 21.6352 10.008 21.7689 10.008Z" fill="#07E2FF"/>
<path d="M25.1543 10.4122C25.1543 10.2774 25.2615 10.1702 25.3963 10.1702C25.5311 10.1702 25.6384 10.2774 25.6384 10.4122C25.6384 10.547 25.5311 10.6543 25.3963 10.6543C25.2615 10.6543 25.1543 10.544 25.1543 10.4122Z" fill="#07E2FF"/>
<path d="M23.7021 11.7262C23.7021 11.5914 23.8094 11.4841 23.9442 11.4841C24.079 11.4841 24.1862 11.5914 24.1862 11.7262C24.1862 11.861 24.079 11.9682 23.9442 11.9682C23.8124 11.9682 23.7021 11.861 23.7021 11.7262Z" fill="#07E2FF"/>
<path d="M14.9549 11.1257C15.0886 11.1257 15.197 11.0173 15.197 10.8836C15.197 10.75 15.0886 10.6416 14.9549 10.6416C14.8213 10.6416 14.7129 10.75 14.7129 10.8836C14.7129 11.0173 14.8213 11.1257 14.9549 11.1257Z" fill="#07E2FF"/>
<path d="M20.1971 7.80342C20.3308 7.80342 20.4392 7.69506 20.4392 7.56138C20.4392 7.4277 20.3308 7.31934 20.1971 7.31934C20.0634 7.31934 19.9551 7.4277 19.9551 7.56138C19.9551 7.69506 20.0634 7.80342 20.1971 7.80342Z" fill="#07E2FF"/>
<path d="M27.7466 9.7899C27.7466 9.65509 27.8538 9.54785 27.9886 9.54785C28.1234 9.54785 28.2307 9.65509 28.2307 9.7899C28.2307 9.92471 28.1234 10.0319 27.9886 10.0319C27.8569 10.0319 27.7466 9.92164 27.7466 9.7899Z" fill="#07E2FF"/>
<path d="M8.70787 17.5168C8.84154 17.5168 8.94991 17.4084 8.94991 17.2748C8.94991 17.1411 8.84154 17.0327 8.70787 17.0327C8.57419 17.0327 8.46582 17.1411 8.46582 17.2748C8.46582 17.4084 8.57419 17.5168 8.70787 17.5168Z" fill="#07E2FF"/>
<path d="M12.3749 14.7761C12.5085 14.7761 12.6169 14.6677 12.6169 14.534C12.6169 14.4004 12.5085 14.292 12.3749 14.292C12.2412 14.292 12.1328 14.4004 12.1328 14.534C12.1328 14.6677 12.2412 14.7761 12.3749 14.7761Z" fill="#07E2FF"/>
<path d="M22.912 9.53633C23.0456 9.53633 23.154 9.42797 23.154 9.29429C23.154 9.16061 23.0456 9.05225 22.912 9.05225C22.7783 9.05225 22.6699 9.16061 22.6699 9.29429C22.6699 9.42797 22.7783 9.53633 22.912 9.53633Z" fill="#07E2FF"/>
<path d="M13.665 12.4289C13.665 12.3462 13.7324 12.2788 13.8152 12.2788C13.8979 12.2788 13.9653 12.3462 13.9653 12.4289C13.9653 12.5117 13.8979 12.5791 13.8152 12.5791C13.7324 12.5791 13.665 12.5117 13.665 12.4289Z" fill="#00B0F0"/>
<path d="M14.373 17.0032C14.373 16.9204 14.4405 16.853 14.5232 16.853C14.6059 16.853 14.6733 16.9204 14.6733 17.0032C14.6733 17.0859 14.6059 17.1533 14.5232 17.1533C14.4405 17.1533 14.373 17.0859 14.373 17.0032Z" fill="#00B0F0"/>
<path d="M18.8462 18.2097C18.8462 18.127 18.9136 18.0596 18.9963 18.0596C19.079 18.0596 19.1464 18.127 19.1464 18.2097C19.1464 18.2924 19.079 18.3598 18.9963 18.3598C18.9136 18.3629 18.8462 18.2955 18.8462 18.2097Z" fill="#00B0F0"/>
<path d="M16.8115 15.0601C16.8115 14.9652 16.8912 14.8855 16.9862 14.8855C17.0811 14.8855 17.1608 14.9652 17.1608 15.0601C17.1608 15.1551 17.0811 15.2348 16.9862 15.2348C16.8881 15.2348 16.8115 15.1582 16.8115 15.0601Z" fill="#006BED"/>
<path d="M10.9536 25.1615C10.9536 25.0665 11.0333 24.9868 11.1283 24.9868C11.2232 24.9868 11.3029 25.0665 11.3029 25.1615C11.3029 25.2564 11.2232 25.3361 11.1283 25.3361C11.0302 25.3361 10.9536 25.2564 10.9536 25.1615Z" fill="#006BED"/>
<path d="M28.5278 19.7086C28.5278 19.6136 28.6075 19.5339 28.7025 19.5339C28.7975 19.5339 28.8771 19.6136 28.8771 19.7086C28.8771 19.8036 28.7975 19.8832 28.7025 19.8832C28.6044 19.8832 28.5278 19.8066 28.5278 19.7086Z" fill="#006BED"/>
<path d="M13.0892 18.4303C13.1856 18.4303 13.2638 18.3521 13.2638 18.2557C13.2638 18.1592 13.1856 18.0811 13.0892 18.0811C12.9927 18.0811 12.9146 18.1592 12.9146 18.2557C12.9146 18.3521 12.9927 18.4303 13.0892 18.4303Z" fill="#006BED"/>
<path d="M13.7723 28.8427C13.8687 28.8427 13.9469 28.7645 13.9469 28.668C13.9469 28.5716 13.8687 28.4934 13.7723 28.4934C13.6758 28.4934 13.5977 28.5716 13.5977 28.668C13.5977 28.7645 13.6758 28.8427 13.7723 28.8427Z" fill="#006BED"/>
<path d="M12.1885 28.012C12.1885 27.9171 12.2681 27.8374 12.3631 27.8374C12.4581 27.8374 12.5378 27.9171 12.5378 28.012C12.5378 28.107 12.4581 28.1867 12.3631 28.1867C12.2681 28.1867 12.1885 28.107 12.1885 28.012Z" fill="#006BED"/>
<path d="M25.7733 15.1535C25.8697 15.1535 25.9479 15.0753 25.9479 14.9788C25.9479 14.8824 25.8697 14.8042 25.7733 14.8042C25.6768 14.8042 25.5986 14.8824 25.5986 14.9788C25.5986 15.0753 25.6768 15.1535 25.7733 15.1535Z" fill="#006BED"/>
<path d="M9.54417 18.2019C9.62709 18.2019 9.6943 18.1347 9.6943 18.0517C9.6943 17.9688 9.62709 17.9016 9.54417 17.9016C9.46126 17.9016 9.39404 17.9688 9.39404 18.0517C9.39404 18.1347 9.46126 18.2019 9.54417 18.2019Z" fill="#00B0F0"/>
<path d="M9.01123 24.6604C9.01123 24.5777 9.07864 24.5103 9.16136 24.5103C9.24408 24.5103 9.31149 24.5777 9.31149 24.6604C9.31149 24.7431 9.24408 24.8105 9.16136 24.8105C9.07864 24.8136 9.01123 24.7462 9.01123 24.6604Z" fill="#00B0F0"/>
<path d="M8.94043 15.4714C8.94043 15.3887 9.00784 15.3213 9.09056 15.3213C9.17328 15.3213 9.24069 15.3887 9.24069 15.4714C9.24069 15.5541 9.17328 15.6215 9.09056 15.6215C9.00784 15.6215 8.94043 15.5541 8.94043 15.4714Z" fill="#00B0F0"/>
<path d="M9.00195 21.477C9.00195 21.3943 9.06936 21.3269 9.15208 21.3269C9.23481 21.3269 9.30221 21.3943 9.30221 21.477C9.30221 21.5598 9.23481 21.6272 9.15208 21.6272C9.06936 21.6272 9.00195 21.5598 9.00195 21.477Z" fill="#00B0F0"/>
<path d="M7.93262 18.9756C7.93262 18.8928 8.00002 18.8254 8.08275 18.8254C8.16547 18.8254 8.23288 18.8928 8.23288 18.9756C8.23288 19.0583 8.16547 19.1257 8.08275 19.1257C8.00002 19.1257 7.93262 19.0614 7.93262 18.9756Z" fill="#00B0F0"/>
<path d="M10.9658 13.1328C10.9658 13.0501 11.0332 12.9827 11.116 12.9827C11.1987 12.9827 11.2661 13.0501 11.2661 13.1328C11.2661 13.2155 11.1987 13.2829 11.116 13.2829C11.0332 13.2829 10.9658 13.2155 10.9658 13.1328Z" fill="#00B0F0"/>
<path d="M10.4326 15.4617C10.4326 15.3789 10.5 15.3115 10.5827 15.3115C10.6655 15.3115 10.7329 15.3789 10.7329 15.4617C10.7329 15.5444 10.6655 15.6118 10.5827 15.6118C10.5 15.6118 10.4326 15.5444 10.4326 15.4617Z" fill="#00B0F0"/>
<path d="M18.7144 19.7727C18.7144 19.69 18.7818 19.6226 18.8645 19.6226C18.9472 19.6226 19.0146 19.69 19.0146 19.7727C19.0146 19.8554 18.9472 19.9228 18.8645 19.9228C18.7818 19.9259 18.7144 19.8585 18.7144 19.7727Z" fill="#00B0F0"/>
<path d="M23.4326 19.9355C23.4326 19.8528 23.5 19.7854 23.5827 19.7854C23.6655 19.7854 23.7329 19.8528 23.7329 19.9355C23.7329 20.0183 23.6655 20.0857 23.5827 20.0857C23.5 20.0857 23.4326 20.0183 23.4326 19.9355Z" fill="#00B0F0"/>
<path d="M19.4189 10.945C19.4189 10.8623 19.4864 10.7949 19.5691 10.7949C19.6518 10.7949 19.7192 10.8623 19.7192 10.945C19.7192 11.0278 19.6518 11.0952 19.5691 11.0952C19.4894 11.0952 19.4189 11.0278 19.4189 10.945Z" fill="#00B0F0"/>
<path d="M11.8667 10.2749C11.8667 10.1922 11.9341 10.1248 12.0168 10.1248C12.0995 10.1248 12.167 10.1922 12.167 10.2749C12.167 10.3576 12.0995 10.425 12.0168 10.425C11.9341 10.425 11.8667 10.3576 11.8667 10.2749Z" fill="#00B0F0"/>
<path d="M6.20459 16.4121C6.20459 16.3294 6.272 16.262 6.35472 16.262C6.43744 16.262 6.50485 16.3294 6.50485 16.4121C6.50485 16.4948 6.43744 16.5622 6.35472 16.5622C6.272 16.5622 6.20459 16.4948 6.20459 16.4121Z" fill="#00B0F0"/>
<path d="M7.84375 13.9538C7.84375 13.8711 7.91116 13.8037 7.99388 13.8037C8.0766 13.8037 8.14401 13.8711 8.14401 13.9538C8.14401 14.0366 8.0766 14.104 7.99388 14.104C7.91116 14.107 7.84375 14.0396 7.84375 13.9538Z" fill="#00B0F0"/>
<path d="M17.1826 11.8738C17.1826 11.791 17.25 11.7236 17.3327 11.7236C17.4155 11.7236 17.4829 11.791 17.4829 11.8738C17.4829 11.9565 17.4155 12.0239 17.3327 12.0239C17.25 12.0239 17.1826 11.9565 17.1826 11.8738Z" fill="#00B0F0"/>
<path d="M30.5254 20.0552C30.5254 19.9724 30.5928 19.905 30.6755 19.905C30.7582 19.905 30.8256 19.9724 30.8256 20.0552C30.8256 20.1379 30.7582 20.2053 30.6755 20.2053C30.5928 20.2084 30.5254 20.1409 30.5254 20.0552Z" fill="#00B0F0"/>
<path d="M23.6743 10.8037C23.6743 10.721 23.7417 10.6536 23.8244 10.6536C23.9072 10.6536 23.9746 10.721 23.9746 10.8037C23.9746 10.8864 23.9072 10.9538 23.8244 10.9538C23.7417 10.9538 23.6743 10.8864 23.6743 10.8037Z" fill="#00B0F0"/>
<path d="M27.0908 13.8677C27.0908 13.7849 27.1582 13.7175 27.2409 13.7175C27.3237 13.7175 27.3911 13.7849 27.3911 13.8677C27.3911 13.9504 27.3237 14.0178 27.2409 14.0178C27.1582 14.0178 27.0908 13.9504 27.0908 13.8677Z" fill="#00B0F0"/>
<path d="M28.8525 16.1272C28.8525 16.0445 28.9199 15.9771 29.0027 15.9771C29.0854 15.9771 29.1528 16.0445 29.1528 16.1272C29.1528 16.2099 29.0854 16.2773 29.0027 16.2773C28.9199 16.2773 28.8525 16.2099 28.8525 16.1272Z" fill="#00B0F0"/>
<path d="M32.0786 17.1924C32.0786 17.1096 32.146 17.0422 32.2287 17.0422C32.3115 17.0422 32.3789 17.1096 32.3789 17.1924C32.3789 17.2751 32.3115 17.3425 32.2287 17.3425C32.146 17.3456 32.0786 17.2782 32.0786 17.1924Z" fill="#00B0F0"/>
<path d="M26.8979 11.2082C26.8979 11.1255 26.9654 11.0581 27.0481 11.0581C27.1308 11.0581 27.1982 11.1255 27.1982 11.2082C27.1982 11.291 27.1308 11.3584 27.0481 11.3584C26.9654 11.3584 26.8979 11.291 26.8979 11.2082Z" fill="#00B0F0"/>
<path d="M23.3101 9.7744C23.3101 9.69167 23.3775 9.62427 23.4602 9.62427C23.5429 9.62427 23.6103 9.69167 23.6103 9.7744C23.6103 9.85712 23.5429 9.92452 23.4602 9.92452C23.3775 9.92759 23.3101 9.86018 23.3101 9.7744Z" fill="#00B0F0"/>
<path d="M30.1118 13.0825C30.1118 12.9998 30.1792 12.9324 30.2619 12.9324C30.3447 12.9324 30.4121 12.9998 30.4121 13.0825C30.4121 13.1652 30.3447 13.2326 30.2619 13.2326C30.1792 13.2357 30.1118 13.1683 30.1118 13.0825Z" fill="#00B0F0"/>
<path d="M20.3379 9.55418C20.3379 9.47146 20.4053 9.40405 20.488 9.40405C20.5707 9.40405 20.6381 9.47146 20.6381 9.55418C20.6381 9.6369 20.5707 9.70431 20.488 9.70431C20.4053 9.70431 20.3379 9.6369 20.3379 9.55418Z" fill="#00B0F0"/>
<path d="M18.2178 6.79686C18.2178 6.71413 18.2852 6.64673 18.3679 6.64673C18.4506 6.64673 18.518 6.71413 18.518 6.79686C18.518 6.87958 18.4506 6.94699 18.3679 6.94699C18.2852 6.94699 18.2178 6.87958 18.2178 6.79686Z" fill="#00B0F0"/>
<path d="M21.2544 5.77708C21.2544 5.69436 21.3218 5.62695 21.4045 5.62695C21.4872 5.62695 21.5547 5.69436 21.5547 5.77708C21.5547 5.85981 21.4872 5.92721 21.4045 5.92721C21.3218 5.92721 21.2544 5.85981 21.2544 5.77708Z" fill="#00B0F0"/>
<path d="M10.4727 20.4189C10.4727 20.3362 10.5401 20.2688 10.6228 20.2688C10.7055 20.2688 10.7729 20.3362 10.7729 20.4189C10.7729 20.5017 10.7055 20.5691 10.6228 20.5691C10.5401 20.5691 10.4727 20.5017 10.4727 20.4189Z" fill="#00B0F0"/>
<path d="M9.31738 25.8215C9.31738 25.7388 9.38479 25.6714 9.46751 25.6714C9.55024 25.6714 9.61764 25.7388 9.61764 25.8215C9.61764 25.9042 9.55024 25.9716 9.46751 25.9716C9.38479 25.9716 9.31738 25.9042 9.31738 25.8215Z" fill="#00B0F0"/>
<path d="M24.8818 21.2424C24.8818 21.1597 24.9492 21.0923 25.032 21.0923C25.1147 21.0923 25.1821 21.1597 25.1821 21.2424C25.1821 21.3251 25.1147 21.3925 25.032 21.3925C24.9492 21.3925 24.8818 21.3282 24.8818 21.2424Z" fill="#00B0F0"/>
<path d="M13.8491 11.1076C13.8491 11.0249 13.9165 10.9575 13.9992 10.9575C14.082 10.9575 14.1494 11.0249 14.1494 11.1076C14.1494 11.1904 14.082 11.2578 13.9992 11.2578C13.9165 11.2578 13.8491 11.1904 13.8491 11.1076Z" fill="#00B0F0"/>
<path d="M8.93164 12.1802C8.93164 12.0974 8.99904 12.03 9.08177 12.03C9.16449 12.03 9.2319 12.0974 9.2319 12.1802C9.2319 12.2629 9.16449 12.3303 9.08177 12.3303C8.99904 12.3303 8.93164 12.2659 8.93164 12.1802Z" fill="#00B0F0"/>
<path d="M16.5791 11.0478C16.5791 10.9651 16.6465 10.8977 16.7292 10.8977C16.812 10.8977 16.8794 10.9651 16.8794 11.0478C16.8794 11.1306 16.812 11.198 16.7292 11.198C16.6465 11.198 16.5791 11.1306 16.5791 11.0478Z" fill="#00B0F0"/>
<path d="M17.7061 9.75779C17.7061 9.67507 17.7735 9.60767 17.8562 9.60767C17.9389 9.60767 18.0063 9.67507 18.0063 9.75779C18.0063 9.84052 17.9389 9.90792 17.8562 9.90792C17.7735 9.90792 17.7061 9.84052 17.7061 9.75779Z" fill="#00B0F0"/>
<path d="M13.5947 7.82127C13.5947 7.73855 13.6621 7.67114 13.7449 7.67114C13.8276 7.67114 13.895 7.73855 13.895 7.82127C13.895 7.904 13.8276 7.9714 13.7449 7.9714C13.6621 7.9714 13.5947 7.90706 13.5947 7.82127Z" fill="#00B0F0"/>
<path d="M17.6357 8.2307C17.6357 8.14797 17.7031 8.08057 17.7859 8.08057C17.8686 8.08057 17.936 8.14797 17.936 8.2307C17.936 8.31342 17.8686 8.38082 17.7859 8.38082C17.7031 8.38082 17.6357 8.31342 17.6357 8.2307Z" fill="#00B0F0"/>
<path d="M22.25 7.70408C22.25 7.62136 22.3174 7.55396 22.4001 7.55396C22.4828 7.55396 22.5503 7.62136 22.5503 7.70408C22.5503 7.78681 22.4828 7.85421 22.4001 7.85421C22.3174 7.85421 22.25 7.78681 22.25 7.70408Z" fill="#00B0F0"/>
<path d="M26.5488 9.29808C26.5488 9.21535 26.6162 9.14795 26.699 9.14795C26.7817 9.14795 26.8491 9.21535 26.8491 9.29808C26.8491 9.3808 26.7817 9.44821 26.699 9.44821C26.6162 9.44821 26.5488 9.3808 26.5488 9.29808Z" fill="#00B0F0"/>
<path d="M33.5894 16.175C33.5894 16.0923 33.6568 16.0249 33.7395 16.0249C33.8222 16.0249 33.8896 16.0923 33.8896 16.175C33.8896 16.2578 33.8222 16.3252 33.7395 16.3252C33.6568 16.3252 33.5894 16.2578 33.5894 16.175Z" fill="#00B0F0"/>
<path d="M30.3203 11.1604C30.3203 11.0777 30.3877 11.0103 30.4704 11.0103C30.5532 11.0103 30.6206 11.0777 30.6206 11.1604C30.6206 11.2431 30.5532 11.3105 30.4704 11.3105C30.3877 11.3136 30.3203 11.2431 30.3203 11.1604Z" fill="#00B0F0"/>
<path d="M30.124 9.50633C30.124 9.42361 30.1914 9.3562 30.2742 9.3562C30.3569 9.3562 30.4243 9.42361 30.4243 9.50633C30.4243 9.58905 30.3569 9.65646 30.2742 9.65646C30.1914 9.65646 30.124 9.58905 30.124 9.50633Z" fill="#00B0F0"/>
<path d="M12.7612 9.26463C12.7612 9.18191 12.8286 9.1145 12.9114 9.1145C12.9941 9.1145 13.0615 9.18191 13.0615 9.26463C13.0615 9.34735 12.9941 9.41476 12.9114 9.41476C12.8317 9.41476 12.7612 9.34735 12.7612 9.26463Z" fill="#00B0F0"/>
<path d="M11.0698 8.85057C11.0698 8.76784 11.1372 8.70044 11.22 8.70044C11.3027 8.70044 11.3701 8.76784 11.3701 8.85057C11.3701 8.93329 11.3027 9.0007 11.22 9.0007C11.1372 9.0007 11.0698 8.93329 11.0698 8.85057Z" fill="#00B0F0"/>
<path d="M7.22803 11.8498C7.22803 11.7671 7.29543 11.6997 7.37815 11.6997C7.46088 11.6997 7.52828 11.7671 7.52828 11.8498C7.52828 11.9326 7.46088 12 7.37815 12C7.29543 12 7.22803 11.9326 7.22803 11.8498Z" fill="#00B0F0"/>
<path d="M14.4829 9.3867C14.4829 9.30398 14.5503 9.23657 14.633 9.23657C14.7158 9.23657 14.7832 9.30398 14.7832 9.3867C14.7832 9.46943 14.7158 9.53683 14.633 9.53683C14.5503 9.53989 14.4829 9.47249 14.4829 9.3867Z" fill="#00B0F0"/>
<path d="M23.7544 6.94041C23.7544 6.85769 23.8218 6.79028 23.9045 6.79028C23.9872 6.79028 24.0547 6.85769 24.0547 6.94041C24.0547 7.02314 23.9872 7.09054 23.9045 7.09054C23.8218 7.09054 23.7544 7.02314 23.7544 6.94041Z" fill="#00B0F0"/>
<path d="M26.5054 7.39769C26.5054 7.31496 26.5728 7.24756 26.6555 7.24756C26.7382 7.24756 26.8056 7.31496 26.8056 7.39769C26.8056 7.48041 26.7382 7.54782 26.6555 7.54782C26.5728 7.55088 26.5054 7.48041 26.5054 7.39769Z" fill="#00B0F0"/>
<path d="M16.355 5.99974C16.355 5.91701 16.4224 5.84961 16.5051 5.84961C16.5878 5.84961 16.6552 5.91701 16.6552 5.99974C16.6552 6.08246 16.5878 6.14987 16.5051 6.14987C16.4224 6.14987 16.355 6.08246 16.355 5.99974Z" fill="#00B0F0"/>
<path d="M7.76123 23.5316C7.76123 23.3968 7.86847 23.2896 8.00328 23.2896C8.13809 23.2896 8.24532 23.3968 8.24532 23.5316C8.24532 23.6664 8.13809 23.7736 8.00328 23.7736C7.86847 23.7736 7.76123 23.6664 7.76123 23.5316Z" fill="#07E2FF"/>
<path d="M8.58838 20.068C8.58838 19.9332 8.69561 19.8259 8.83042 19.8259C8.96523 19.8259 9.07246 19.9332 9.07246 20.068C9.07246 20.2028 8.96523 20.31 8.83042 20.31C8.69561 20.31 8.58838 20.1997 8.58838 20.068Z" fill="#07E2FF"/>
<path d="M15.54 12.7291C15.54 12.5943 15.6473 12.4871 15.7821 12.4871C15.9169 12.4871 16.0241 12.5943 16.0241 12.7291C16.0241 12.8639 15.9169 12.9711 15.7821 12.9711C15.6503 12.9711 15.54 12.8639 15.54 12.7291Z" fill="#07E2FF"/>
<path d="M16.1592 10.1488C16.1592 10.014 16.2664 9.90674 16.4012 9.90674C16.536 9.90674 16.6433 10.014 16.6433 10.1488C16.6433 10.2836 16.536 10.3908 16.4012 10.3908C16.2664 10.3908 16.1592 10.2836 16.1592 10.1488Z" fill="#07E2FF"/>
<path d="M12.7738 13.4021C12.9075 13.4021 13.0158 13.2937 13.0158 13.16C13.0158 13.0263 12.9075 12.918 12.7738 12.918C12.6401 12.918 12.5317 13.0263 12.5317 13.16C12.5317 13.2937 12.6401 13.4021 12.7738 13.4021Z" fill="#07E2FF"/>
<path d="M17.2528 18.7565C17.3865 18.7565 17.4948 18.6482 17.4948 18.5145C17.4948 18.3808 17.3865 18.2725 17.2528 18.2725C17.1191 18.2725 17.0107 18.3808 17.0107 18.5145C17.0107 18.6482 17.1191 18.7565 17.2528 18.7565Z" fill="#07E2FF"/>
<path d="M25.1761 20.1857C25.3098 20.1857 25.4182 20.0774 25.4182 19.9437C25.4182 19.81 25.3098 19.7017 25.1761 19.7017C25.0425 19.7017 24.9341 19.81 24.9341 19.9437C24.9341 20.0774 25.0425 20.1857 25.1761 20.1857Z" fill="#07E2FF"/>
<path d="M21.3861 11.76C21.5198 11.76 21.6281 11.6516 21.6281 11.5179C21.6281 11.3842 21.5198 11.2759 21.3861 11.2759C21.2524 11.2759 21.144 11.3842 21.144 11.5179C21.144 11.6516 21.2524 11.76 21.3861 11.76Z" fill="#07E2FF"/>
<path d="M22.7953 16.3391C22.9289 16.3391 23.0373 16.2307 23.0373 16.097C23.0373 15.9633 22.9289 15.855 22.7953 15.855C22.6616 15.855 22.5532 15.9633 22.5532 16.097C22.5532 16.2307 22.6616 16.3391 22.7953 16.3391Z" fill="#07E2FF"/>
<path d="M31.1997 15.2281C31.1997 15.0933 31.3069 14.9861 31.4418 14.9861C31.5766 14.9861 31.6838 15.0933 31.6838 15.2281C31.6838 15.3629 31.5766 15.4702 31.4418 15.4702C31.31 15.4702 31.1997 15.3599 31.1997 15.2281Z" fill="#07E2FF"/>
<path d="M28.6011 12.3463C28.6011 12.2115 28.7083 12.1042 28.8431 12.1042C28.9779 12.1042 29.0852 12.2115 29.0852 12.3463C29.0852 12.4811 28.9779 12.5883 28.8431 12.5883C28.7083 12.5883 28.6011 12.4811 28.6011 12.3463Z" fill="#07E2FF"/>
<path d="M18.3223 14.4623C18.3223 14.3274 18.4295 14.2202 18.5643 14.2202C18.6991 14.2202 18.8064 14.3274 18.8064 14.4623C18.8064 14.5971 18.6991 14.7043 18.5643 14.7043C18.4295 14.7043 18.3223 14.5971 18.3223 14.4623Z" fill="#07E2FF"/>
<path d="M19.9736 18.8568C19.9736 18.722 20.0809 18.6147 20.2157 18.6147C20.3505 18.6147 20.4577 18.722 20.4577 18.8568C20.4577 18.9916 20.3505 19.0988 20.2157 19.0988C20.0839 19.0988 19.9736 18.9916 19.9736 18.8568Z" fill="#07E2FF"/>
<path d="M18.7266 9.96934C18.7266 9.83453 18.8338 9.72729 18.9686 9.72729C19.1034 9.72729 19.2107 9.83453 19.2107 9.96934C19.2107 10.1041 19.1034 10.2114 18.9686 10.2114C18.8338 10.2114 18.7266 10.1041 18.7266 9.96934Z" fill="#07E2FF"/>
<path d="M15.2308 8.7585C15.3645 8.7585 15.4729 8.65014 15.4729 8.51646C15.4729 8.38278 15.3645 8.27441 15.2308 8.27441C15.0971 8.27441 14.9888 8.38278 14.9888 8.51646C14.9888 8.65014 15.0971 8.7585 15.2308 8.7585Z" fill="#07E2FF"/>
<path d="M24.3945 8.14292C24.3945 8.00811 24.5018 7.90088 24.6366 7.90088C24.7714 7.90088 24.8786 8.00811 24.8786 8.14292C24.8786 8.27773 24.7714 8.38497 24.6366 8.38497C24.5048 8.3819 24.3945 8.27467 24.3945 8.14292Z" fill="#07E2FF"/>
<path d="M31.7847 12.3868C31.7847 12.252 31.8919 12.1448 32.0267 12.1448C32.1615 12.1448 32.2688 12.252 32.2688 12.3868C32.2688 12.5216 32.1615 12.6289 32.0267 12.6289C31.895 12.6289 31.7847 12.5216 31.7847 12.3868Z" fill="#07E2FF"/>
<path d="M10.252 10.6251C10.252 10.4903 10.3592 10.3831 10.494 10.3831C10.6288 10.3831 10.736 10.4903 10.736 10.6251C10.736 10.7599 10.6288 10.8671 10.494 10.8671C10.3622 10.8671 10.252 10.7568 10.252 10.6251Z" fill="#07E2FF"/>
<path d="M10.1201 14.1822C10.1201 14.0474 10.2273 13.9402 10.3622 13.9402C10.497 13.9402 10.6042 14.0474 10.6042 14.1822C10.6042 14.317 10.497 14.4243 10.3622 14.4243C10.2273 14.4243 10.1201 14.314 10.1201 14.1822Z" fill="#07E2FF"/>
<path d="M12.0135 12.4064C12.1472 12.4064 12.2556 12.2981 12.2556 12.1644C12.2556 12.0307 12.1472 11.9224 12.0135 11.9224C11.8798 11.9224 11.7715 12.0307 11.7715 12.1644C11.7715 12.2981 11.8798 12.4064 12.0135 12.4064Z" fill="#07E2FF"/>
<path d="M25.3659 11.9373C26.1561 11.9373 26.7967 11.2967 26.7967 10.5065C26.7967 9.71628 26.1561 9.07568 25.3659 9.07568C24.5757 9.07568 23.9351 9.71628 23.9351 10.5065C23.9351 11.2967 24.5757 11.9373 25.3659 11.9373Z" fill="url(#paint12_radial_534_27969)"/>
<path d="M21.4533 13.0242C22.2435 13.0242 22.8841 12.3836 22.8841 11.5934C22.8841 10.8032 22.2435 10.1626 21.4533 10.1626C20.6631 10.1626 20.0225 10.8032 20.0225 11.5934C20.0225 12.3836 20.6631 13.0242 21.4533 13.0242Z" fill="url(#paint13_radial_534_27969)"/>
<path d="M15.8522 14.2759C16.6424 14.2759 17.283 13.6353 17.283 12.8451C17.283 12.0549 16.6424 11.4143 15.8522 11.4143C15.062 11.4143 14.4214 12.0549 14.4214 12.8451C14.4214 13.6353 15.062 14.2759 15.8522 14.2759Z" fill="url(#paint14_radial_534_27969)"/>
<path d="M10.4508 15.7266C11.2411 15.7266 11.8817 15.086 11.8817 14.2958C11.8817 13.5056 11.2411 12.865 10.4508 12.865C9.66062 12.865 9.02002 13.5056 9.02002 14.2958C9.02002 15.086 9.66062 15.7266 10.4508 15.7266Z" fill="url(#paint15_radial_534_27969)"/>
<path d="M26.8546 18.1441C27.6449 18.1441 28.2855 17.5035 28.2855 16.7133C28.2855 15.9231 27.6449 15.2825 26.8546 15.2825C26.0644 15.2825 25.4238 15.9231 25.4238 16.7133C25.4238 17.5035 26.0644 18.1441 26.8546 18.1441Z" fill="url(#paint16_radial_534_27969)"/>
<path d="M13.7541 16.8946C14.5443 16.8946 15.1849 16.254 15.1849 15.4638C15.1849 14.6736 14.5443 14.033 13.7541 14.033C12.9638 14.033 12.3232 14.6736 12.3232 15.4638C12.3232 16.254 12.9638 16.8946 13.7541 16.8946Z" fill="url(#paint17_radial_534_27969)"/>
<path d="M21.2941 16.1287C22.0843 16.1287 22.7249 15.4881 22.7249 14.6979C22.7249 13.9077 22.0843 13.2671 21.2941 13.2671C20.5039 13.2671 19.8633 13.9077 19.8633 14.6979C19.8633 15.4881 20.5039 16.1287 21.2941 16.1287Z" fill="url(#paint18_radial_534_27969)"/>
<path d="M16.0118 20.0207C17.3249 20.0207 18.3894 18.9563 18.3894 17.6432C18.3894 16.3301 17.3249 15.2656 16.0118 15.2656C14.6987 15.2656 13.6343 16.3301 13.6343 17.6432C13.6343 18.9563 14.6987 20.0207 16.0118 20.0207Z" fill="url(#paint19_radial_534_27969)"/>
<path d="M31.2482 15.9467C32.5612 15.9467 33.6257 14.8823 33.6257 13.5692C33.6257 12.2561 32.5612 11.1917 31.2482 11.1917C29.9351 11.1917 28.8706 12.2561 28.8706 13.5692C28.8706 14.8823 29.9351 15.9467 31.2482 15.9467Z" fill="url(#paint20_radial_534_27969)"/>
<path d="M4.94824 19.1579C4.75216 17.6014 6.06042 16.2932 7.61685 16.4893C8.67694 16.6241 9.53176 17.4789 9.66657 18.539C9.86265 20.0954 8.55439 21.4037 6.99796 21.2076C5.93787 21.0758 5.07999 20.218 4.94824 19.1579Z" fill="url(#paint21_radial_534_27969)"/>
<path d="M24.315 21.1865C25.6281 21.1865 26.6926 20.122 26.6926 18.8089C26.6926 17.4959 25.6281 16.4314 24.315 16.4314C23.002 16.4314 21.9375 17.4959 21.9375 18.8089C21.9375 20.122 23.002 21.1865 24.315 21.1865Z" fill="url(#paint22_radial_534_27969)"/>
<path d="M11.0944 18.065C11.8846 18.065 12.5252 17.4244 12.5252 16.6342C12.5252 15.844 11.8846 15.2034 11.0944 15.2034C10.3042 15.2034 9.66357 15.844 9.66357 16.6342C9.66357 17.4244 10.3042 18.065 11.0944 18.065Z" fill="url(#paint23_radial_534_27969)"/>
<path d="M25.0807 24.3531C25.8709 24.3531 26.5115 23.7125 26.5115 22.9223C26.5115 22.1321 25.8709 21.4915 25.0807 21.4915C24.2905 21.4915 23.6499 22.1321 23.6499 22.9223C23.6499 23.7125 24.2905 24.3531 25.0807 24.3531Z" fill="url(#paint24_radial_534_27969)"/>
<path d="M19.4401 26.5816C20.2303 26.5816 20.8709 25.941 20.8709 25.1508C20.8709 24.3606 20.2303 23.72 19.4401 23.72C18.6499 23.72 18.0093 24.3606 18.0093 25.1508C18.0093 25.941 18.6499 26.5816 19.4401 26.5816Z" fill="url(#paint25_radial_534_27969)"/>
<path d="M11.6183 24.7576C12.4085 24.7576 13.0491 24.117 13.0491 23.3268C13.0491 22.5366 12.4085 21.896 11.6183 21.896C10.8281 21.896 10.1875 22.5366 10.1875 23.3268C10.1875 24.117 10.8281 24.7576 11.6183 24.7576Z" fill="url(#paint26_radial_534_27969)"/>
<path d="M16.778 31.0433C17.5682 31.0433 18.2088 30.4027 18.2088 29.6125C18.2088 28.8222 17.5682 28.1816 16.778 28.1816C15.9878 28.1816 15.3472 28.8222 15.3472 29.6125C15.3472 30.4027 15.9878 31.0433 16.778 31.0433Z" fill="url(#paint27_radial_534_27969)"/>
<path d="M23.8341 13.2684C24.6244 13.2684 25.265 12.6278 25.265 11.8376C25.265 11.0473 24.6244 10.4067 23.8341 10.4067C23.0439 10.4067 22.4033 11.0473 22.4033 11.8376C22.4033 12.6278 23.0439 13.2684 23.8341 13.2684Z" fill="url(#paint28_radial_534_27969)"/>
<path d="M26.6129 14.2759C27.4032 14.2759 28.0438 13.6353 28.0438 12.8451C28.0438 12.0549 27.4032 11.4143 26.6129 11.4143C25.8227 11.4143 25.1821 12.0549 25.1821 12.8451C25.1821 13.6353 25.8227 14.2759 26.6129 14.2759Z" fill="url(#paint29_radial_534_27969)"/>
<path d="M29.839 18.8311C30.6292 18.8311 31.2698 18.1905 31.2698 17.4003C31.2698 16.6101 30.6292 15.9695 29.839 15.9695C29.0488 15.9695 28.4082 16.6101 28.4082 17.4003C28.4082 18.1905 29.0488 18.8311 29.839 18.8311Z" fill="url(#paint30_radial_534_27969)"/>
<path d="M14.9245 11.5352C15.7147 11.5352 16.3553 10.8946 16.3553 10.1044C16.3553 9.31418 15.7147 8.67358 14.9245 8.67358C14.1343 8.67358 13.4937 9.31418 13.4937 10.1044C13.4937 10.8946 14.1343 11.5352 14.9245 11.5352Z" fill="url(#paint31_radial_534_27969)"/>
<path d="M22.9455 10.7261C23.7357 10.7261 24.3763 10.0855 24.3763 9.29532C24.3763 8.5051 23.7357 7.8645 22.9455 7.8645C22.1552 7.8645 21.5146 8.5051 21.5146 9.29532C21.5146 10.0855 22.1552 10.7261 22.9455 10.7261Z" fill="url(#paint32_radial_534_27969)"/>
<path d="M12.1422 13.5101C12.9325 13.5101 13.5731 12.8695 13.5731 12.0793C13.5731 11.289 12.9325 10.6484 12.1422 10.6484C11.352 10.6484 10.7114 11.289 10.7114 12.0793C10.7114 12.8695 11.352 13.5101 12.1422 13.5101Z" fill="url(#paint33_radial_534_27969)"/>
<path opacity="0.47" d="M36.491 14.7244C36.5951 22.7731 29.2235 29.391 20.0258 29.5074C10.8312 29.6239 3.2911 23.1959 3.18999 15.1472C3.08889 7.09844 10.4574 0.480531 19.6551 0.364105C28.8497 0.247679 36.3868 6.6787 36.491 14.7244Z" fill="url(#paint34_radial_534_27969)"/>
</g>
<defs>
<linearGradient id="paint0_linear_534_27969" x1="19.9112" y1="32.357" x2="19.9112" y2="11.2587" gradientUnits="userSpaceOnUse">
<stop stop-color="#011224" stop-opacity="0"/>
<stop offset="0.1404" stop-color="#011429" stop-opacity="0.1404"/>
<stop offset="0.3044" stop-color="#011C37" stop-opacity="0.3044"/>
<stop offset="0.48" stop-color="#02274E" stop-opacity="0.48"/>
<stop offset="0.6641" stop-color="#03386F" stop-opacity="0.6641"/>
<stop offset="0.8525" stop-color="#044D99" stop-opacity="0.8525"/>
<stop offset="1" stop-color="#0560BF"/>
</linearGradient>
<linearGradient id="paint1_linear_534_27969" x1="18.0027" y1="29.8125" x2="18.0027" y2="9.07271" gradientUnits="userSpaceOnUse">
<stop offset="0.00446912" stop-color="#033263"/>
<stop offset="0.2605" stop-color="#0560BF"/>
<stop offset="0.3847" stop-color="#0567C1"/>
<stop offset="0.5714" stop-color="#057CC7"/>
<stop offset="0.7961" stop-color="#069DD1"/>
<stop offset="1" stop-color="#06C2DB"/>
</linearGradient>
<linearGradient id="paint2_linear_534_27969" x1="25.0901" y1="29.8124" x2="25.0901" y2="9.0727" gradientUnits="userSpaceOnUse">
<stop offset="0.00446912" stop-color="#033263"/>
<stop offset="0.2605" stop-color="#0560BF"/>
<stop offset="0.3847" stop-color="#0567C1"/>
<stop offset="0.5714" stop-color="#057CC7"/>
<stop offset="0.7961" stop-color="#069DD1"/>
<stop offset="1" stop-color="#06C2DB"/>
</linearGradient>
<linearGradient id="paint3_linear_534_27969" x1="19.9125" y1="29.8121" x2="19.9125" y2="9.07243" gradientUnits="userSpaceOnUse">
<stop offset="0.00446912" stop-color="#033263"/>
<stop offset="0.2605" stop-color="#0560BF"/>
<stop offset="0.3847" stop-color="#0567C1"/>
<stop offset="0.5714" stop-color="#057CC7"/>
<stop offset="0.7961" stop-color="#069DD1"/>
<stop offset="1" stop-color="#06C2DB"/>
</linearGradient>
<linearGradient id="paint4_linear_534_27969" x1="21.1982" y1="29.8129" x2="21.1982" y2="9.07281" gradientUnits="userSpaceOnUse">
<stop offset="0.00446912" stop-color="#033263"/>
<stop offset="0.2605" stop-color="#0560BF"/>
<stop offset="0.3847" stop-color="#0567C1"/>
<stop offset="0.5714" stop-color="#057CC7"/>
<stop offset="0.7961" stop-color="#069DD1"/>
<stop offset="1" stop-color="#06C2DB"/>
</linearGradient>
<linearGradient id="paint5_linear_534_27969" x1="19.4514" y1="29.8156" x2="19.4514" y2="9.07607" gradientUnits="userSpaceOnUse">
<stop offset="0.00446912" stop-color="#033263"/>
<stop offset="0.2605" stop-color="#0560BF"/>
<stop offset="0.3847" stop-color="#0567C1"/>
<stop offset="0.5714" stop-color="#057CC7"/>
<stop offset="0.7961" stop-color="#069DD1"/>
<stop offset="1" stop-color="#06C2DB"/>
</linearGradient>
<linearGradient id="paint6_linear_534_27969" x1="11.0261" y1="29.8169" x2="11.0261" y2="9.07687" gradientUnits="userSpaceOnUse">
<stop offset="0.00446912" stop-color="#033263"/>
<stop offset="0.2605" stop-color="#0560BF"/>
<stop offset="0.3847" stop-color="#0567C1"/>
<stop offset="0.5714" stop-color="#057CC7"/>
<stop offset="0.7961" stop-color="#069DD1"/>
<stop offset="1" stop-color="#06C2DB"/>
</linearGradient>
<linearGradient id="paint7_linear_534_27969" x1="11.4208" y1="29.8171" x2="11.4208" y2="9.07772" gradientUnits="userSpaceOnUse">
<stop offset="0.00446912" stop-color="#033263"/>
<stop offset="0.2605" stop-color="#0560BF"/>
<stop offset="0.3847" stop-color="#0567C1"/>
<stop offset="0.5714" stop-color="#057CC7"/>
<stop offset="0.7961" stop-color="#069DD1"/>
<stop offset="1" stop-color="#06C2DB"/>
</linearGradient>
<linearGradient id="paint8_linear_534_27969" x1="13.8634" y1="29.8173" x2="13.8634" y2="9.07729" gradientUnits="userSpaceOnUse">
<stop offset="0.00446912" stop-color="#033263"/>
<stop offset="0.2605" stop-color="#0560BF"/>
<stop offset="0.3847" stop-color="#0567C1"/>
<stop offset="0.5714" stop-color="#057CC7"/>
<stop offset="0.7961" stop-color="#069DD1"/>
<stop offset="1" stop-color="#06C2DB"/>
</linearGradient>
<linearGradient id="paint9_linear_534_27969" x1="26.8463" y1="29.8165" x2="26.8463" y2="9.07653" gradientUnits="userSpaceOnUse">
<stop offset="0.00446912" stop-color="#033263"/>
<stop offset="0.2605" stop-color="#0560BF"/>
<stop offset="0.3847" stop-color="#0567C1"/>
<stop offset="0.5714" stop-color="#057CC7"/>
<stop offset="0.7961" stop-color="#069DD1"/>
<stop offset="1" stop-color="#06C2DB"/>
</linearGradient>
<linearGradient id="paint10_linear_534_27969" x1="25.0462" y1="29.8173" x2="25.0462" y2="9.07776" gradientUnits="userSpaceOnUse">
<stop offset="0.00446912" stop-color="#033263"/>
<stop offset="0.2605" stop-color="#0560BF"/>
<stop offset="0.3847" stop-color="#0567C1"/>
<stop offset="0.5714" stop-color="#057CC7"/>
<stop offset="0.7961" stop-color="#069DD1"/>
<stop offset="1" stop-color="#06C2DB"/>
</linearGradient>
<linearGradient id="paint11_linear_534_27969" x1="26.7863" y1="29.8167" x2="26.7863" y2="9.07667" gradientUnits="userSpaceOnUse">
<stop offset="0.00446912" stop-color="#033263"/>
<stop offset="0.2605" stop-color="#0560BF"/>
<stop offset="0.3847" stop-color="#0567C1"/>
<stop offset="0.5714" stop-color="#057CC7"/>
<stop offset="0.7961" stop-color="#069DD1"/>
<stop offset="1" stop-color="#06C2DB"/>
</linearGradient>
<radialGradient id="paint12_radial_534_27969" cx="0" cy="0" r="1" gradientUnits="userSpaceOnUse" gradientTransform="translate(25.3645 10.5071) scale(1.26329 1.29057)">
<stop stop-color="white"/>
<stop offset="0.0458" stop-color="#B5D7FB"/>
<stop offset="0.0895" stop-color="#77B5F7"/>
<stop offset="0.129" stop-color="#469BF4"/>
<stop offset="0.1635" stop-color="#2388F2"/>
<stop offset="0.1917" stop-color="#0E7CF0"/>
<stop offset="0.2101" stop-color="#0678F0"/>
<stop offset="0.3009" stop-color="#0568CF" stop-opacity="0.8149"/>
<stop offset="0.5007" stop-color="#033E7D" stop-opacity="0.4075"/>
<stop offset="0.7006" stop-color="#011224" stop-opacity="0"/>
<stop offset="1" stop-color="#011224" stop-opacity="0"/>
</radialGradient>
<radialGradient id="paint13_radial_534_27969" cx="0" cy="0" r="1" gradientUnits="userSpaceOnUse" gradientTransform="translate(21.4544 11.5948) scale(1.26329 1.29057)">
<stop stop-color="white"/>
<stop offset="0.0458" stop-color="#B5D7FB"/>
<stop offset="0.0895" stop-color="#77B5F7"/>
<stop offset="0.129" stop-color="#469BF4"/>
<stop offset="0.1635" stop-color="#2388F2"/>
<stop offset="0.1917" stop-color="#0E7CF0"/>
<stop offset="0.2101" stop-color="#0678F0"/>
<stop offset="0.3009" stop-color="#0568CF" stop-opacity="0.8149"/>
<stop offset="0.5007" stop-color="#033E7D" stop-opacity="0.4075"/>
<stop offset="0.7006" stop-color="#011224" stop-opacity="0"/>
<stop offset="1" stop-color="#011224" stop-opacity="0"/>
</radialGradient>
<radialGradient id="paint14_radial_534_27969" cx="0" cy="0" r="1" gradientUnits="userSpaceOnUse" gradientTransform="translate(15.851 12.846) scale(1.26329 1.29057)">
<stop stop-color="white"/>
<stop offset="0.0458" stop-color="#B5D7FB"/>
<stop offset="0.0895" stop-color="#77B5F7"/>
<stop offset="0.129" stop-color="#469BF4"/>
<stop offset="0.1635" stop-color="#2388F2"/>
<stop offset="0.1917" stop-color="#0E7CF0"/>
<stop offset="0.2101" stop-color="#0678F0"/>
<stop offset="0.3009" stop-color="#0568CF" stop-opacity="0.8149"/>
<stop offset="0.5007" stop-color="#033E7D" stop-opacity="0.4075"/>
<stop offset="0.7006" stop-color="#011224" stop-opacity="0"/>
<stop offset="1" stop-color="#011224" stop-opacity="0"/>
</radialGradient>
<radialGradient id="paint15_radial_534_27969" cx="0" cy="0" r="1" gradientUnits="userSpaceOnUse" gradientTransform="translate(10.4497 14.2956) scale(1.26329 1.29057)">
<stop stop-color="white"/>
<stop offset="0.0458" stop-color="#B5D7FB"/>
<stop offset="0.0895" stop-color="#77B5F7"/>
<stop offset="0.129" stop-color="#469BF4"/>
<stop offset="0.1635" stop-color="#2388F2"/>
<stop offset="0.1917" stop-color="#0E7CF0"/>
<stop offset="0.2101" stop-color="#0678F0"/>
<stop offset="0.3009" stop-color="#0568CF" stop-opacity="0.8149"/>
<stop offset="0.5007" stop-color="#033E7D" stop-opacity="0.4075"/>
<stop offset="0.7006" stop-color="#011224" stop-opacity="0"/>
<stop offset="1" stop-color="#011224" stop-opacity="0"/>
</radialGradient>
<radialGradient id="paint16_radial_534_27969" cx="0" cy="0" r="1" gradientUnits="userSpaceOnUse" gradientTransform="translate(26.8557 16.7143) scale(1.26329 1.29057)">
<stop stop-color="white"/>
<stop offset="0.0458" stop-color="#B5D7FB"/>
<stop offset="0.0895" stop-color="#77B5F7"/>
<stop offset="0.129" stop-color="#469BF4"/>
<stop offset="0.1635" stop-color="#2388F2"/>
<stop offset="0.1917" stop-color="#0E7CF0"/>
<stop offset="0.2101" stop-color="#0678F0"/>
<stop offset="0.3009" stop-color="#0568CF" stop-opacity="0.8149"/>
<stop offset="0.5007" stop-color="#033E7D" stop-opacity="0.4075"/>
<stop offset="0.7006" stop-color="#011224" stop-opacity="0"/>
<stop offset="1" stop-color="#011224" stop-opacity="0"/>
</radialGradient>
<radialGradient id="paint17_radial_534_27969" cx="0" cy="0" r="1" gradientUnits="userSpaceOnUse" gradientTransform="translate(13.7555 15.4653) scale(1.26329 1.29057)">
<stop stop-color="white"/>
<stop offset="0.0458" stop-color="#B5D7FB"/>
<stop offset="0.0895" stop-color="#77B5F7"/>
<stop offset="0.129" stop-color="#469BF4"/>
<stop offset="0.1635" stop-color="#2388F2"/>
<stop offset="0.1917" stop-color="#0E7CF0"/>
<stop offset="0.2101" stop-color="#0678F0"/>
<stop offset="0.3009" stop-color="#0568CF" stop-opacity="0.8149"/>
<stop offset="0.5007" stop-color="#033E7D" stop-opacity="0.4075"/>
<stop offset="0.7006" stop-color="#011224" stop-opacity="0"/>
<stop offset="1" stop-color="#011224" stop-opacity="0"/>
</radialGradient>
<radialGradient id="paint18_radial_534_27969" cx="0" cy="0" r="1" gradientUnits="userSpaceOnUse" gradientTransform="translate(21.2933 14.6994) scale(1.26329 1.29057)">
<stop stop-color="white"/>
<stop offset="0.0458" stop-color="#B5D7FB"/>
<stop offset="0.0895" stop-color="#77B5F7"/>
<stop offset="0.129" stop-color="#469BF4"/>
<stop offset="0.1635" stop-color="#2388F2"/>
<stop offset="0.1917" stop-color="#0E7CF0"/>
<stop offset="0.2101" stop-color="#0678F0"/>
<stop offset="0.3009" stop-color="#0568CF" stop-opacity="0.8149"/>
<stop offset="0.5007" stop-color="#033E7D" stop-opacity="0.4075"/>
<stop offset="0.7006" stop-color="#011224" stop-opacity="0"/>
<stop offset="1" stop-color="#011224" stop-opacity="0"/>
</radialGradient>
<radialGradient id="paint19_radial_534_27969" cx="0" cy="0" r="1" gradientUnits="userSpaceOnUse" gradientTransform="translate(16.0125 17.643) scale(2.09953 2.14488)">
<stop stop-color="white"/>
<stop offset="0.1609" stop-color="white"/>
<stop offset="0.1989" stop-color="#B5D7FB"/>
<stop offset="0.2352" stop-color="#77B5F7"/>
<stop offset="0.2679" stop-color="#469BF4"/>
<stop offset="0.2966" stop-color="#2388F2"/>
<stop offset="0.3199" stop-color="#0E7CF0"/>
<stop offset="0.3352" stop-color="#0678F0"/>
<stop offset="0.4028" stop-color="#0568CF" stop-opacity="0.8149"/>
<stop offset="0.5517" stop-color="#033E7D" stop-opacity="0.4075"/>
<stop offset="0.7006" stop-color="#011224" stop-opacity="0"/>
<stop offset="1" stop-color="#011224" stop-opacity="0"/>
</radialGradient>
<radialGradient id="paint20_radial_534_27969" cx="0" cy="0" r="1" gradientUnits="userSpaceOnUse" gradientTransform="translate(31.2493 13.5696) scale(2.09953 2.14488)">
<stop stop-color="white"/>
<stop offset="0.1609" stop-color="white"/>
<stop offset="0.1989" stop-color="#B5D7FB"/>
<stop offset="0.2352" stop-color="#77B5F7"/>
<stop offset="0.2679" stop-color="#469BF4"/>
<stop offset="0.2966" stop-color="#2388F2"/>
<stop offset="0.3199" stop-color="#0E7CF0"/>
<stop offset="0.3352" stop-color="#0678F0"/>
<stop offset="0.4028" stop-color="#0568CF" stop-opacity="0.8149"/>
<stop offset="0.5517" stop-color="#033E7D" stop-opacity="0.4075"/>
<stop offset="0.7006" stop-color="#011224" stop-opacity="0"/>
<stop offset="1" stop-color="#011224" stop-opacity="0"/>
</radialGradient>
<radialGradient id="paint21_radial_534_27969" cx="0" cy="0" r="1" gradientUnits="userSpaceOnUse" gradientTransform="translate(7.30566 18.8504) scale(2.09953 2.14488)">
<stop stop-color="white"/>
<stop offset="0.1609" stop-color="white"/>
<stop offset="0.1989" stop-color="#B5D7FB"/>
<stop offset="0.2352" stop-color="#77B5F7"/>
<stop offset="0.2679" stop-color="#469BF4"/>
<stop offset="0.2966" stop-color="#2388F2"/>
<stop offset="0.3199" stop-color="#0E7CF0"/>
<stop offset="0.3352" stop-color="#0678F0"/>
<stop offset="0.4028" stop-color="#0568CF" stop-opacity="0.8149"/>
<stop offset="0.5517" stop-color="#033E7D" stop-opacity="0.4075"/>
<stop offset="0.7006" stop-color="#011224" stop-opacity="0"/>
<stop offset="1" stop-color="#011224" stop-opacity="0"/>
</radialGradient>
<radialGradient id="paint22_radial_534_27969" cx="0" cy="0" r="1" gradientUnits="userSpaceOnUse" gradientTransform="translate(24.3165 18.8105) scale(2.09953 2.14488)">
<stop stop-color="white"/>
<stop offset="0.1609" stop-color="white"/>
<stop offset="0.1989" stop-color="#B5D7FB"/>
<stop offset="0.2352" stop-color="#77B5F7"/>
<stop offset="0.2679" stop-color="#469BF4"/>
<stop offset="0.2966" stop-color="#2388F2"/>
<stop offset="0.3199" stop-color="#0E7CF0"/>
<stop offset="0.3352" stop-color="#0678F0"/>
<stop offset="0.4028" stop-color="#0568CF" stop-opacity="0.8149"/>
<stop offset="0.5517" stop-color="#033E7D" stop-opacity="0.4075"/>
<stop offset="0.7006" stop-color="#011224" stop-opacity="0"/>
<stop offset="1" stop-color="#011224" stop-opacity="0"/>
</radialGradient>
<radialGradient id="paint23_radial_534_27969" cx="0" cy="0" r="1" gradientUnits="userSpaceOnUse" gradientTransform="translate(11.0948 16.6343) scale(1.26329 1.29057)">
<stop stop-color="white"/>
<stop offset="0.0458" stop-color="#B5D7FB"/>
<stop offset="0.0895" stop-color="#77B5F7"/>
<stop offset="0.129" stop-color="#469BF4"/>
<stop offset="0.1635" stop-color="#2388F2"/>
<stop offset="0.1917" stop-color="#0E7CF0"/>
<stop offset="0.2101" stop-color="#0678F0"/>
<stop offset="0.3009" stop-color="#0568CF" stop-opacity="0.8149"/>
<stop offset="0.5007" stop-color="#033E7D" stop-opacity="0.4075"/>
<stop offset="0.7006" stop-color="#011224" stop-opacity="0"/>
<stop offset="1" stop-color="#011224" stop-opacity="0"/>
</radialGradient>
<radialGradient id="paint24_radial_534_27969" cx="0" cy="0" r="1" gradientUnits="userSpaceOnUse" gradientTransform="translate(25.0821 22.9238) scale(1.26329 1.29057)">
<stop stop-color="white"/>
<stop offset="0.0458" stop-color="#B5D7FB"/>
<stop offset="0.0895" stop-color="#77B5F7"/>
<stop offset="0.129" stop-color="#469BF4"/>
<stop offset="0.1635" stop-color="#2388F2"/>
<stop offset="0.1917" stop-color="#0E7CF0"/>
<stop offset="0.2101" stop-color="#0678F0"/>
<stop offset="0.3009" stop-color="#0568CF" stop-opacity="0.8149"/>
<stop offset="0.5007" stop-color="#033E7D" stop-opacity="0.4075"/>
<stop offset="0.7006" stop-color="#011224" stop-opacity="0"/>
<stop offset="1" stop-color="#011224" stop-opacity="0"/>
</radialGradient>
<radialGradient id="paint25_radial_534_27969" cx="0" cy="0" r="1" gradientUnits="userSpaceOnUse" gradientTransform="translate(19.4387 25.1523) scale(1.26329 1.29057)">
<stop stop-color="white"/>
<stop offset="0.0458" stop-color="#B5D7FB"/>
<stop offset="0.0895" stop-color="#77B5F7"/>
<stop offset="0.129" stop-color="#469BF4"/>
<stop offset="0.1635" stop-color="#2388F2"/>
<stop offset="0.1917" stop-color="#0E7CF0"/>
<stop offset="0.2101" stop-color="#0678F0"/>
<stop offset="0.3009" stop-color="#0568CF" stop-opacity="0.8149"/>
<stop offset="0.5007" stop-color="#033E7D" stop-opacity="0.4075"/>
<stop offset="0.7006" stop-color="#011224" stop-opacity="0"/>
<stop offset="1" stop-color="#011224" stop-opacity="0"/>
</radialGradient>
<radialGradient id="paint26_radial_534_27969" cx="0" cy="0" r="1" gradientUnits="userSpaceOnUse" gradientTransform="translate(11.6188 23.327) scale(1.26329 1.29057)">
<stop stop-color="white"/>
<stop offset="0.0458" stop-color="#B5D7FB"/>
<stop offset="0.0895" stop-color="#77B5F7"/>
<stop offset="0.129" stop-color="#469BF4"/>
<stop offset="0.1635" stop-color="#2388F2"/>
<stop offset="0.1917" stop-color="#0E7CF0"/>
<stop offset="0.2101" stop-color="#0678F0"/>
<stop offset="0.3009" stop-color="#0568CF" stop-opacity="0.8149"/>
<stop offset="0.5007" stop-color="#033E7D" stop-opacity="0.4075"/>
<stop offset="0.7006" stop-color="#011224" stop-opacity="0"/>
<stop offset="1" stop-color="#011224" stop-opacity="0"/>
</radialGradient>
<radialGradient id="paint27_radial_534_27969" cx="0" cy="0" r="1" gradientUnits="userSpaceOnUse" gradientTransform="translate(16.7786 29.6141) scale(1.26329 1.29057)">
<stop stop-color="white"/>
<stop offset="0.0458" stop-color="#B5D7FB"/>
<stop offset="0.0895" stop-color="#77B5F7"/>
<stop offset="0.129" stop-color="#469BF4"/>
<stop offset="0.1635" stop-color="#2388F2"/>
<stop offset="0.1917" stop-color="#0E7CF0"/>
<stop offset="0.2101" stop-color="#0678F0"/>
<stop offset="0.3009" stop-color="#0568CF" stop-opacity="0.8149"/>
<stop offset="0.5007" stop-color="#033E7D" stop-opacity="0.4075"/>
<stop offset="0.7006" stop-color="#011224" stop-opacity="0"/>
<stop offset="1" stop-color="#011224" stop-opacity="0"/>
</radialGradient>
<radialGradient id="paint28_radial_534_27969" cx="0" cy="0" r="1" gradientUnits="userSpaceOnUse" gradientTransform="translate(23.8329 11.8387) scale(1.26329 1.29057)">
<stop stop-color="white"/>
<stop offset="0.0458" stop-color="#B5D7FB"/>
<stop offset="0.0895" stop-color="#77B5F7"/>
<stop offset="0.129" stop-color="#469BF4"/>
<stop offset="0.1635" stop-color="#2388F2"/>
<stop offset="0.1917" stop-color="#0E7CF0"/>
<stop offset="0.2101" stop-color="#0678F0"/>
<stop offset="0.3009" stop-color="#0568CF" stop-opacity="0.8149"/>
<stop offset="0.5007" stop-color="#033E7D" stop-opacity="0.4075"/>
<stop offset="0.7006" stop-color="#011224" stop-opacity="0"/>
<stop offset="1" stop-color="#011224" stop-opacity="0"/>
</radialGradient>
<radialGradient id="paint29_radial_534_27969" cx="0" cy="0" r="1" gradientUnits="userSpaceOnUse" gradientTransform="translate(26.6142 12.846) scale(1.26329 1.29057)">
<stop stop-color="white"/>
<stop offset="0.0458" stop-color="#B5D7FB"/>
<stop offset="0.0895" stop-color="#77B5F7"/>
<stop offset="0.129" stop-color="#469BF4"/>
<stop offset="0.1635" stop-color="#2388F2"/>
<stop offset="0.1917" stop-color="#0E7CF0"/>
<stop offset="0.2101" stop-color="#0678F0"/>
<stop offset="0.3009" stop-color="#0568CF" stop-opacity="0.8149"/>
<stop offset="0.5007" stop-color="#033E7D" stop-opacity="0.4075"/>
<stop offset="0.7006" stop-color="#011224" stop-opacity="0"/>
<stop offset="1" stop-color="#011224" stop-opacity="0"/>
</radialGradient>
<radialGradient id="paint30_radial_534_27969" cx="0" cy="0" r="1" gradientUnits="userSpaceOnUse" gradientTransform="translate(29.8388 17.4003) scale(1.26329 1.29057)">
<stop stop-color="white"/>
<stop offset="0.0458" stop-color="#B5D7FB"/>
<stop offset="0.0895" stop-color="#77B5F7"/>
<stop offset="0.129" stop-color="#469BF4"/>
<stop offset="0.1635" stop-color="#2388F2"/>
<stop offset="0.1917" stop-color="#0E7CF0"/>
<stop offset="0.2101" stop-color="#0678F0"/>
<stop offset="0.3009" stop-color="#0568CF" stop-opacity="0.8149"/>
<stop offset="0.5007" stop-color="#033E7D" stop-opacity="0.4075"/>
<stop offset="0.7006" stop-color="#011224" stop-opacity="0"/>
<stop offset="1" stop-color="#011224" stop-opacity="0"/>
</radialGradient>
<radialGradient id="paint31_radial_534_27969" cx="0" cy="0" r="1" gradientUnits="userSpaceOnUse" gradientTransform="translate(14.9245 10.1033) scale(1.26329 1.29057)">
<stop stop-color="white"/>
<stop offset="0.0458" stop-color="#B5D7FB"/>
<stop offset="0.0895" stop-color="#77B5F7"/>
<stop offset="0.129" stop-color="#469BF4"/>
<stop offset="0.1635" stop-color="#2388F2"/>
<stop offset="0.1917" stop-color="#0E7CF0"/>
<stop offset="0.2101" stop-color="#0678F0"/>
<stop offset="0.3009" stop-color="#0568CF" stop-opacity="0.8149"/>
<stop offset="0.5007" stop-color="#033E7D" stop-opacity="0.4075"/>
<stop offset="0.7006" stop-color="#011224" stop-opacity="0"/>
<stop offset="1" stop-color="#011224" stop-opacity="0"/>
</radialGradient>
<radialGradient id="paint32_radial_534_27969" cx="0" cy="0" r="1" gradientUnits="userSpaceOnUse" gradientTransform="translate(22.9459 9.29686) scale(1.26329 1.29057)">
<stop stop-color="white"/>
<stop offset="0.0458" stop-color="#B5D7FB"/>
<stop offset="0.0895" stop-color="#77B5F7"/>
<stop offset="0.129" stop-color="#469BF4"/>
<stop offset="0.1635" stop-color="#2388F2"/>
<stop offset="0.1917" stop-color="#0E7CF0"/>
<stop offset="0.2101" stop-color="#0678F0"/>
<stop offset="0.3009" stop-color="#0568CF" stop-opacity="0.8149"/>
<stop offset="0.5007" stop-color="#033E7D" stop-opacity="0.4075"/>
<stop offset="0.7006" stop-color="#011224" stop-opacity="0"/>
<stop offset="1" stop-color="#011224" stop-opacity="0"/>
</radialGradient>
<radialGradient id="paint33_radial_534_27969" cx="0" cy="0" r="1" gradientUnits="userSpaceOnUse" gradientTransform="translate(12.1429 12.0802) scale(1.26329 1.29057)">
<stop stop-color="white"/>
<stop offset="0.0458" stop-color="#B5D7FB"/>
<stop offset="0.0895" stop-color="#77B5F7"/>
<stop offset="0.129" stop-color="#469BF4"/>
<stop offset="0.1635" stop-color="#2388F2"/>
<stop offset="0.1917" stop-color="#0E7CF0"/>
<stop offset="0.2101" stop-color="#0678F0"/>
<stop offset="0.3009" stop-color="#0568CF" stop-opacity="0.8149"/>
<stop offset="0.5007" stop-color="#033E7D" stop-opacity="0.4075"/>
<stop offset="0.7006" stop-color="#011224" stop-opacity="0"/>
<stop offset="1" stop-color="#011224" stop-opacity="0"/>
</radialGradient>
<radialGradient id="paint34_radial_534_27969" cx="0" cy="0" r="1" gradientTransform="matrix(14.699 -0.187635 0.168032 13.141 19.8429 14.9332)" gradientUnits="userSpaceOnUse">
<stop stop-color="#0560BF"/>
<stop offset="0.3597" stop-color="#055FBD" stop-opacity="0.6403"/>
<stop offset="0.5139" stop-color="#055BB6" stop-opacity="0.4861"/>
<stop offset="0.6287" stop-color="#0455A9" stop-opacity="0.3713"/>
<stop offset="0.724" stop-color="#044C97" stop-opacity="0.276"/>
<stop offset="0.8073" stop-color="#034080" stop-opacity="0.1927"/>
<stop offset="0.8821" stop-color="#033264" stop-opacity="0.1179"/>
<stop offset="0.949" stop-color="#022143" stop-opacity="0.051"/>
<stop offset="1" stop-color="#011224" stop-opacity="0"/>
</radialGradient>
</defs>
</svg>
