<svg width="17" height="17" viewBox="0 0 17 17" fill="none" xmlns="http://www.w3.org/2000/svg">
<path d="M14.3054 13.794C14.3054 13.9295 14.2516 14.0594 14.1558 14.1553C14.06 14.2511 13.93 14.3049 13.7945 14.3049H2.55484C2.41934 14.3049 2.28939 14.2511 2.19358 14.1553C2.09777 14.0594 2.04395 13.9295 2.04395 13.794C2.04395 13.6585 2.09777 13.5285 2.19358 13.4327C2.28939 13.3369 2.41934 13.2831 2.55484 13.2831H13.7945C13.93 13.2831 14.06 13.3369 14.1558 13.4327C14.2516 13.5285 14.3054 13.6585 14.3054 13.794ZM5.10932 11.2395C5.17643 11.2396 5.24289 11.2264 5.30492 11.2008C5.36694 11.1751 5.4233 11.1375 5.47078 11.0901L11.751 4.80926V9.70683C11.751 9.84233 11.8048 9.97228 11.9006 10.0681C11.9964 10.1639 12.1264 10.2177 12.2619 10.2177C12.3974 10.2177 12.5273 10.1639 12.6231 10.0681C12.7189 9.97228 12.7728 9.84233 12.7728 9.70683V3.57608C12.7728 3.44058 12.7189 3.31064 12.6231 3.21482C12.5273 3.11901 12.3974 3.06519 12.2619 3.06519H6.13111C5.99561 3.06519 5.86566 3.11901 5.76985 3.21482C5.67404 3.31064 5.62021 3.44058 5.62021 3.57608C5.62021 3.71158 5.67404 3.84153 5.76985 3.93734C5.86566 4.03315 5.99561 4.08698 6.13111 4.08698H11.0287L4.74786 10.3672C4.67633 10.4386 4.62761 10.5297 4.60786 10.6288C4.58811 10.728 4.59823 10.8308 4.63693 10.9242C4.67564 11.0176 4.74118 11.0974 4.82527 11.1535C4.90936 11.2097 5.00821 11.2396 5.10932 11.2395Z" fill="white"/>
</svg>
