<svg width="1613" height="1462" viewBox="0 0 1613 1462" fill="none" xmlns="http://www.w3.org/2000/svg">
<g opacity="0.5">
<path d="M806.07 1460C1250.46 1460 1610.7 1088.84 1610.7 631C1610.7 173.156 1250.46 -198 806.07 -198C361.685 -198 1.43945 173.156 1.43945 631C1.43945 1088.84 361.685 1460 806.07 1460Z" stroke="black" stroke-opacity="0.18" stroke-width="2.87847" stroke-miterlimit="10" style="mix-blend-mode:soft-light"/>
<path d="M806.068 1427.97C1233.28 1427.97 1579.6 1071.16 1579.6 631.005C1579.6 190.854 1233.28 -165.959 806.068 -165.959C378.856 -165.959 32.5322 190.854 32.5322 631.005C32.5322 1071.16 378.856 1427.97 806.068 1427.97Z" stroke="black" stroke-opacity="0.18" stroke-width="2.87847" stroke-miterlimit="10" style="mix-blend-mode:soft-light"/>
<path d="M806.071 1395.92C1216.11 1395.92 1548.5 1053.45 1548.5 631C1548.5 208.547 1216.11 -133.919 806.071 -133.919C396.037 -133.919 63.6387 208.547 63.6387 631C63.6387 1053.45 396.037 1395.92 806.071 1395.92Z" stroke="black" stroke-opacity="0.18" stroke-width="2.87847" stroke-miterlimit="10" style="mix-blend-mode:soft-light"/>
<path d="M806.071 1363.89C1198.93 1363.89 1517.41 1035.76 1517.41 631.004C1517.41 226.245 1198.93 -101.878 806.071 -101.878C413.209 -101.878 94.7324 226.245 94.7324 631.004C94.7324 1035.76 413.209 1363.89 806.071 1363.89Z" stroke="black" stroke-opacity="0.18" stroke-width="2.87847" stroke-miterlimit="10" style="mix-blend-mode:soft-light"/>
<path d="M806.069 1331.85C1181.76 1331.85 1486.31 1018.07 1486.31 630.999C1486.31 243.933 1181.76 -69.8464 806.069 -69.8464C430.381 -69.8464 125.825 243.933 125.825 630.999C125.825 1018.07 430.381 1331.85 806.069 1331.85Z" stroke="black" stroke-opacity="0.18" stroke-width="2.87847" stroke-miterlimit="10" style="mix-blend-mode:soft-light"/>
<path d="M806.072 1299.81C1164.59 1299.81 1455.22 1000.38 1455.22 631.004C1455.22 261.63 1164.59 -37.8059 806.072 -37.8059C447.556 -37.8059 156.922 261.63 156.922 631.004C156.922 1000.38 447.556 1299.81 806.072 1299.81Z" stroke="black" stroke-opacity="0.18" stroke-width="2.87847" stroke-miterlimit="10" style="mix-blend-mode:soft-light"/>
<path d="M806.07 1267.76C1147.41 1267.76 1424.12 982.674 1424.12 630.999C1424.12 279.324 1147.41 -5.76514 806.07 -5.76514C464.733 -5.76514 188.024 279.324 188.024 630.999C188.024 982.674 464.733 1267.76 806.07 1267.76Z" stroke="black" stroke-opacity="0.18" stroke-width="2.87847" stroke-miterlimit="10" style="mix-blend-mode:soft-light"/>
<path d="M806.069 1235.73C1130.23 1235.73 1393.02 964.985 1393.02 631.003C1393.02 297.021 1130.23 26.2754 806.069 26.2754C481.904 26.2754 219.117 297.021 219.117 631.003C219.117 964.985 481.904 1235.73 806.069 1235.73Z" stroke="black" stroke-opacity="0.18" stroke-width="2.87847" stroke-miterlimit="10" style="mix-blend-mode:soft-light"/>
<path d="M806.07 1203.69C1113.06 1203.69 1361.93 947.288 1361.93 630.999C1361.93 314.71 1113.06 58.3071 806.07 58.3071C499.078 58.3071 250.213 314.71 250.213 630.999C250.213 947.288 499.078 1203.69 806.07 1203.69Z" stroke="black" stroke-opacity="0.18" stroke-width="2.87847" stroke-miterlimit="10" style="mix-blend-mode:soft-light"/>
<path d="M806.068 1171.66C1095.89 1171.66 1330.83 929.599 1330.83 631.003C1330.83 332.407 1095.89 90.3477 806.068 90.3477C516.25 90.3477 281.306 332.407 281.306 631.003C281.306 929.599 516.25 1171.66 806.068 1171.66Z" stroke="black" stroke-opacity="0.18" stroke-width="2.87847" stroke-miterlimit="10" style="mix-blend-mode:soft-light"/>
<path d="M806.07 1139.61C1078.71 1139.61 1299.73 911.896 1299.73 630.998C1299.73 350.101 1078.71 122.388 806.07 122.388C533.43 122.388 312.411 350.101 312.411 630.998C312.411 911.896 533.43 1139.61 806.07 1139.61Z" stroke="black" stroke-opacity="0.18" stroke-width="2.87847" stroke-miterlimit="10" style="mix-blend-mode:soft-light"/>
<path d="M806.069 1107.58C1061.54 1107.58 1268.63 894.207 1268.63 631.003C1268.63 367.798 1061.54 154.429 806.069 154.429C550.602 154.429 343.505 367.798 343.505 631.003C343.505 894.207 550.602 1107.58 806.069 1107.58Z" stroke="black" stroke-opacity="0.18" stroke-width="2.87847" stroke-miterlimit="10" style="mix-blend-mode:soft-light"/>
<path d="M806.067 1075.54C1044.36 1075.54 1237.54 876.509 1237.54 630.998C1237.54 385.487 1044.36 186.46 806.067 186.46C567.773 186.46 374.598 385.487 374.598 630.998C374.598 876.509 567.773 1075.54 806.067 1075.54Z" stroke="black" stroke-opacity="0.18" stroke-width="2.87847" stroke-miterlimit="10" style="mix-blend-mode:soft-light"/>
<path d="M806.07 1043.5C1027.19 1043.5 1206.45 858.821 1206.45 631.002C1206.45 403.184 1027.19 218.501 806.07 218.501C584.949 218.501 405.695 403.184 405.695 631.002C405.695 858.821 584.949 1043.5 806.07 1043.5Z" stroke="black" stroke-opacity="0.18" stroke-width="2.87847" stroke-miterlimit="10" style="mix-blend-mode:soft-light"/>
<path d="M806.07 1011.45C1010.01 1011.45 1175.34 841.117 1175.34 630.997C1175.34 420.878 1010.01 250.542 806.07 250.542C602.126 250.542 436.798 420.878 436.798 630.997C436.798 841.117 602.126 1011.45 806.07 1011.45Z" stroke="black" stroke-opacity="0.18" stroke-width="2.87847" stroke-miterlimit="10" style="mix-blend-mode:soft-light"/>
<path d="M806.07 979.422C992.841 979.422 1144.25 823.429 1144.25 631.002C1144.25 438.575 992.841 282.583 806.07 282.583C619.3 282.583 467.893 438.575 467.893 631.002C467.893 823.429 619.3 979.422 806.07 979.422Z" stroke="black" stroke-opacity="0.18" stroke-width="2.87847" stroke-miterlimit="10" style="mix-blend-mode:soft-light"/>
<path d="M806.07 947.381C975.667 947.381 1113.15 805.731 1113.15 630.997C1113.15 456.264 975.667 314.614 806.07 314.614C636.472 314.614 498.987 456.264 498.987 630.997C498.987 805.731 636.472 947.381 806.07 947.381Z" stroke="black" stroke-opacity="0.18" stroke-width="2.87847" stroke-miterlimit="10" style="mix-blend-mode:soft-light"/>
<path d="M806.07 915.349C958.495 915.349 1082.06 788.042 1082.06 631.002C1082.06 473.961 958.495 346.655 806.07 346.655C653.646 346.655 530.082 473.961 530.082 631.002C530.082 788.042 653.646 915.349 806.07 915.349Z" stroke="black" stroke-opacity="0.18" stroke-width="2.87847" stroke-miterlimit="10" style="mix-blend-mode:soft-light"/>
<path d="M806.071 883.298C941.317 883.298 1050.96 770.339 1050.96 630.997C1050.96 491.655 941.317 378.695 806.071 378.695C670.825 378.695 561.186 491.655 561.186 630.997C561.186 770.339 670.825 883.298 806.071 883.298Z" stroke="black" stroke-opacity="0.18" stroke-width="2.87847" stroke-miterlimit="10" style="mix-blend-mode:soft-light"/>
<path d="M806.068 851.267C924.141 851.267 1019.86 752.651 1019.86 631.001C1019.86 509.352 924.141 410.736 806.068 410.736C687.995 410.736 592.277 509.352 592.277 631.001C592.277 752.651 687.995 851.267 806.068 851.267Z" stroke="black" stroke-opacity="0.18" stroke-width="2.87847" stroke-miterlimit="10" style="mix-blend-mode:soft-light"/>
<path d="M806.068 819.226C906.969 819.226 988.764 734.953 988.764 630.997C988.764 527.041 906.969 442.768 806.068 442.768C705.168 442.768 623.373 527.041 623.373 630.997C623.373 734.953 705.168 819.226 806.068 819.226Z" stroke="black" stroke-opacity="0.18" stroke-width="2.87847" stroke-miterlimit="10" style="mix-blend-mode:soft-light"/>
<path d="M806.067 787.194C889.794 787.194 957.668 717.264 957.668 631.001C957.668 544.738 889.794 474.808 806.067 474.808C722.34 474.808 654.465 544.738 654.465 631.001C654.465 717.264 722.34 787.194 806.067 787.194Z" stroke="black" stroke-opacity="0.18" stroke-width="2.87847" stroke-miterlimit="10" style="mix-blend-mode:soft-light"/>
<path d="M806.068 755.144C872.617 755.144 926.566 699.561 926.566 630.996C926.566 562.432 872.617 506.849 806.068 506.849C739.519 506.849 685.57 562.432 685.57 630.996C685.57 699.561 739.519 755.144 806.068 755.144Z" stroke="black" stroke-opacity="0.18" stroke-width="2.87847" stroke-miterlimit="10" style="mix-blend-mode:soft-light"/>
<path d="M806.069 723.112C855.445 723.112 895.472 681.872 895.472 631.001C895.472 580.129 855.445 538.89 806.069 538.89C756.693 538.89 716.666 580.129 716.666 631.001C716.666 681.872 756.693 723.112 806.069 723.112Z" stroke="black" stroke-opacity="0.18" stroke-width="2.87847" stroke-miterlimit="10" style="mix-blend-mode:soft-light"/>
</g>
</svg>
