<svg width="12" height="12" viewBox="0 0 12 12" fill="none" xmlns="http://www.w3.org/2000/svg">
<path fill-rule="evenodd" clip-rule="evenodd" d="M11.7504 6.1313C11.7504 5.70619 11.7123 5.29744 11.6414 4.90503H5.99512V7.22405H9.22158C9.0826 7.97344 8.66022 8.60838 8.02528 9.03348V10.5377H9.9628C11.0964 9.49402 11.7504 7.95709 11.7504 6.1313Z" fill="#4285F4"/>
<path fill-rule="evenodd" clip-rule="evenodd" d="M5.99564 11.9901C7.61432 11.9901 8.9714 11.4532 9.96332 10.5376L8.0258 9.0334C7.48897 9.3931 6.80226 9.60566 5.99564 9.60566C4.43418 9.60566 3.11253 8.55106 2.6411 7.13403H0.638184V8.68731C1.62465 10.6466 3.65209 11.9901 5.99564 11.9901Z" fill="#34A853"/>
<path fill-rule="evenodd" clip-rule="evenodd" d="M2.64058 7.13416C2.52067 6.77445 2.45255 6.39022 2.45255 5.99509C2.45255 5.59996 2.52067 5.21572 2.64058 4.85602V3.30273H0.637663C0.23163 4.11208 0 5.02769 0 5.99509C0 6.96248 0.23163 7.8781 0.637663 8.68744L2.64058 7.13416Z" fill="#FBBC05"/>
<path fill-rule="evenodd" clip-rule="evenodd" d="M5.99564 2.38442C6.87583 2.38442 7.6661 2.6869 8.28741 3.28096L10.0069 1.56146C8.96867 0.594062 7.6116 0 5.99564 0C3.65209 0 1.62465 1.34345 0.638184 3.30276L2.6411 4.85605C3.11253 3.43902 4.43418 2.38442 5.99564 2.38442Z" fill="#EA4335"/>
</svg>
