<svg width="40" height="40" viewBox="0 0 40 40" fill="none" xmlns="http://www.w3.org/2000/svg">
<rect width="39.2368" height="39.2368" rx="19.6184" fill="url(#paint0_linear_534_27927)"/>
<path d="M23.6527 12.3059H27.1552L27.2322 12.3167L27.3083 12.3382L27.3545 12.3582C27.416 12.3849 27.4721 12.4233 27.5229 12.4736L27.5537 12.5074L27.5875 12.5513L27.629 12.6205L27.659 12.6897L27.6736 12.7389L27.6844 12.7881L27.6913 12.8612V16.3469C27.6913 16.493 27.6358 16.6337 27.536 16.7405C27.4362 16.8473 27.2996 16.9123 27.1538 16.9222C27.008 16.9322 26.8638 16.8864 26.7505 16.7942C26.6371 16.702 26.5629 16.5701 26.543 16.4253L26.5376 16.3469V14.2741L21.5845 19.2273C21.4868 19.325 21.3573 19.3843 21.2196 19.3947C21.0818 19.405 20.9449 19.3655 20.8338 19.2834L20.7692 19.228L18.4388 16.9899L14.0624 21.3654C13.9595 21.4686 13.8213 21.5291 13.6757 21.5345C13.53 21.54 13.3877 21.4901 13.2773 21.3949C13.1669 21.2998 13.0966 21.1663 13.0806 21.0214C13.0646 20.8765 13.1041 20.731 13.191 20.614L13.2472 20.5494L18.0311 15.7654C18.1289 15.6679 18.2584 15.6086 18.3962 15.5984C18.5339 15.5883 18.6708 15.6279 18.7818 15.7101L18.8464 15.7654L21.1768 18.0036L25.7208 13.4596H23.6519C23.5126 13.4594 23.3781 13.4088 23.2732 13.3172C23.1683 13.2256 23.1001 13.0992 23.0812 12.9612L23.0758 12.8828C23.0758 12.7434 23.1263 12.6087 23.2179 12.5036C23.3095 12.3986 23.4361 12.3302 23.5742 12.3113L23.6527 12.3059ZM13.6548 23.8428C13.8078 23.8428 13.9545 23.9035 14.0627 24.0117C14.1709 24.1199 14.2316 24.2666 14.2316 24.4196V27.1116C14.2316 27.2645 14.1709 27.4113 14.0627 27.5194C13.9545 27.6276 13.8078 27.6884 13.6548 27.6884C13.5018 27.6884 13.3551 27.6276 13.2469 27.5194C13.1387 27.4113 13.078 27.2645 13.078 27.1116V24.4196C13.078 24.2666 13.1387 24.1199 13.2469 24.0117C13.3551 23.9035 13.5018 23.8428 13.6548 23.8428ZM18.0773 21.3431C18.0773 21.1901 18.0165 21.0434 17.9083 20.9352C17.8001 20.8271 17.6534 20.7663 17.5004 20.7663C17.3474 20.7663 17.2007 20.8271 17.0925 20.9352C16.9844 21.0434 16.9236 21.1901 16.9236 21.3431V27.1116C16.9236 27.2645 16.9844 27.4113 17.0925 27.5194C17.2007 27.6276 17.3474 27.6884 17.5004 27.6884C17.6534 27.6884 17.8001 27.6276 17.9083 27.5194C18.0165 27.4113 18.0773 27.2645 18.0773 27.1116V21.3431ZM21.3461 22.3045C21.499 22.3045 21.6458 22.3653 21.7539 22.4735C21.8621 22.5817 21.9229 22.7284 21.9229 22.8814V27.1116C21.9229 27.2645 21.8621 27.4113 21.7539 27.5194C21.6458 27.6276 21.499 27.6884 21.3461 27.6884C21.1931 27.6884 21.0463 27.6276 20.9382 27.5194C20.83 27.4113 20.7692 27.2645 20.7692 27.1116V22.8814C20.7692 22.7284 20.83 22.5817 20.9382 22.4735C21.0463 22.3653 21.1931 22.3045 21.3461 22.3045ZM25.7685 19.0357C25.7685 18.8828 25.7077 18.736 25.5996 18.6279C25.4914 18.5197 25.3447 18.4589 25.1917 18.4589C25.0387 18.4589 24.892 18.5197 24.7838 18.6279C24.6756 18.736 24.6148 18.8828 24.6148 19.0357V27.1116C24.6148 27.2645 24.6756 27.4113 24.7838 27.5194C24.892 27.6276 25.0387 27.6884 25.1917 27.6884C25.3447 27.6884 25.4914 27.6276 25.5996 27.5194C25.7077 27.4113 25.7685 27.2645 25.7685 27.1116V19.0357Z" fill="#1355E9"/>
<defs>
<linearGradient id="paint0_linear_534_27927" x1="19.6184" y1="0" x2="19.6184" y2="39.2368" gradientUnits="userSpaceOnUse">
<stop stop-color="#D2DFFB"/>
<stop offset="1" stop-color="#D2DFFB" stop-opacity="0.81"/>
</linearGradient>
</defs>
</svg>
