<svg width="40" height="40" viewBox="0 0 40 40" fill="none" xmlns="http://www.w3.org/2000/svg">
<rect width="39.2368" height="39.2368" rx="19.6184" fill="url(#paint0_linear_534_27907)"/>
<path d="M20 10C20.3753 10 20.7453 10.0203 21.11 10.061C21.2405 10.0754 21.3669 10.1155 21.482 10.1788C21.5971 10.2421 21.6986 10.3274 21.7806 10.4299C21.8627 10.5324 21.9238 10.6501 21.9604 10.7762C21.997 10.9024 22.0084 11.0345 21.994 11.165C21.9796 11.2955 21.9395 11.4219 21.8762 11.537C21.8129 11.6521 21.7276 11.7536 21.6251 11.8356C21.5226 11.9177 21.4049 11.9788 21.2788 12.0154C21.1526 12.052 21.0205 12.0634 20.89 12.049C19.242 11.8646 17.5775 12.1969 16.1267 12.9999C14.6758 13.8029 13.5104 15.0369 12.7915 16.5312C12.0726 18.0255 11.8358 19.7063 12.1139 21.341C12.392 22.9758 13.1712 24.4837 14.3437 25.6563C15.5163 26.8288 17.0242 27.608 18.659 27.8861C20.2937 28.1642 21.9745 27.9274 23.4688 27.2085C24.9631 26.4896 26.1971 25.3242 27.0001 23.8733C27.8031 22.4225 28.1354 20.758 27.951 19.11C27.9366 18.9795 27.948 18.8474 27.9846 18.7212C28.0212 18.5951 28.0823 18.4774 28.1644 18.3749C28.3301 18.1679 28.5714 18.0352 28.835 18.006C29.0986 17.9768 29.363 18.0536 29.5701 18.2194C29.6726 18.3014 29.7579 18.4029 29.8212 18.518C29.8845 18.6331 29.9246 18.7595 29.939 18.89C29.979 19.2547 29.9993 19.6247 30 20C30 25.523 25.523 30 20 30C14.477 30 10 25.523 10 20C10 14.477 14.477 10 20 10ZM19.968 15.877C20.0339 16.1337 19.9952 16.4061 19.8604 16.6343C19.7256 16.8625 19.5057 17.0278 19.249 17.094C18.5439 17.2787 17.93 17.7137 17.522 18.3177C17.114 18.9217 16.9398 19.6536 17.0317 20.3767C17.1236 21.0998 17.4755 21.7647 18.0217 22.2474C18.5679 22.7301 19.2711 22.9976 20 23C20.6653 23.0003 21.3118 22.7794 21.8379 22.3721C22.3639 21.9648 22.7397 21.3942 22.906 20.75C22.9769 20.4984 23.1435 20.2845 23.3701 20.1542C23.5968 20.0239 23.8655 19.9875 24.1186 20.0529C24.3717 20.1183 24.5892 20.2802 24.7244 20.5039C24.8596 20.7277 24.9018 20.9955 24.842 21.25C24.5352 22.4259 23.8108 23.45 22.8042 24.1308C21.7975 24.8116 20.5774 25.1026 19.3718 24.9495C18.1662 24.7964 17.0575 24.2096 16.253 23.2987C15.4485 22.3879 15.0031 21.2153 15 20C14.9998 18.8914 15.3681 17.8142 16.0469 16.9377C16.7257 16.0612 17.6766 15.4352 18.75 15.158C18.8772 15.1252 19.0096 15.1178 19.1396 15.1362C19.2697 15.1546 19.3948 15.1984 19.5079 15.2652C19.621 15.332 19.7199 15.4204 19.7988 15.5253C19.8778 15.6303 19.9353 15.7498 19.968 15.877ZM26.504 10.127C26.6865 10.2027 26.8425 10.3307 26.9524 10.495C27.0622 10.6593 27.1209 10.8524 27.121 11.05V12.88H28.95C29.1478 12.88 29.341 12.9387 29.5055 13.0486C29.6699 13.1585 29.798 13.3146 29.8737 13.4973C29.9493 13.68 29.9692 13.8811 29.9306 14.075C29.892 14.269 29.7968 14.4471 29.657 14.587L26.12 18.12C25.9325 18.3075 25.6782 18.4129 25.413 18.413H23L21.172 20.242C20.9844 20.4296 20.7299 20.5351 20.4645 20.5351C20.1991 20.5351 19.9446 20.4296 19.757 20.242C19.5694 20.0544 19.4639 19.7999 19.4639 19.5345C19.4639 19.2691 19.5694 19.0146 19.757 18.827L21.586 17V14.586C21.5861 14.3208 21.6915 14.0665 21.879 13.879L25.414 10.343C25.5538 10.2031 25.7321 10.1078 25.9261 10.0691C26.1201 10.0305 26.3212 10.0503 26.504 10.126M25.121 13.463L23.586 15V16.414H25L26.536 14.879H26.121C25.8558 14.879 25.6014 14.7736 25.4139 14.5861C25.2264 14.3986 25.121 14.1442 25.121 13.879V13.463Z" fill="#7D3F98"/>
<defs>
<linearGradient id="paint0_linear_534_27907" x1="19.6184" y1="0" x2="19.6184" y2="39.2368" gradientUnits="userSpaceOnUse">
<stop stop-color="#F1E0F9"/>
<stop offset="1" stop-color="white" stop-opacity="0.81"/>
</linearGradient>
</defs>
</svg>
