<svg width="356" height="53" viewBox="0 0 356 53" fill="none" xmlns="http://www.w3.org/2000/svg">
<path d="M22.3267 20.3937L16.623 26.0974C16.4009 26.3196 16.4009 26.6798 16.623 26.9019L22.3267 32.6056L8.63115 46.3012L2.5654 40.2354C2.55474 40.2247 2.54877 40.2102 2.54883 40.1951C2.54889 40.18 2.55497 40.1654 2.56572 40.1547L15.8184 26.9019C16.0406 26.6798 16.0406 26.3196 15.8184 26.0974L2.56577 12.8448C2.55502 12.834 2.54896 12.8195 2.5489 12.8043C2.54885 12.7892 2.55479 12.7747 2.56546 12.764L8.63121 6.69824L22.3267 20.3937Z" fill="url(#paint0_linear_1137_7790)"/>
<path d="M28.8359 26.0948L34.1372 20.7934C34.3594 20.5713 34.3594 20.2111 34.1372 19.9889L24.952 10.8036C24.7298 10.5815 24.3696 10.5815 24.1475 10.8036L18.484 16.4671C18.4733 16.4778 18.4662 16.4911 18.4642 16.5042C18.4622 16.5173 18.4655 16.5291 18.4733 16.5369L28.0313 26.0949C28.2534 26.317 28.2534 26.6772 28.0313 26.8994L14.7786 40.1521C14.7679 40.1628 14.7618 40.1774 14.7617 40.1925C14.7617 40.2077 14.7676 40.2222 14.7783 40.2328L20.4418 45.8963C20.6639 46.1185 21.0241 46.1185 21.2463 45.8963L34.1375 33.0051C34.3596 32.783 34.7197 32.783 34.9419 33.005L44.1272 42.1832C44.3494 42.4052 44.7095 42.4051 44.9316 42.183L50.2293 36.8853C50.4515 36.6632 50.4515 36.303 50.2293 36.0808L41.0441 26.8955C40.8219 26.6734 40.4617 26.6734 40.2395 26.8955L34.9381 32.197C34.7159 32.4191 34.3557 32.4191 34.1335 32.197L28.8359 26.8993C28.6137 26.6772 28.6137 26.317 28.8359 26.0948Z" fill="#081225"/>
<path d="M10.21 8.28711C10.1364 8.25984 10.0566 8.24327 9.97363 8.24316H9.8418C9.19267 8.24316 8.66635 8.76989 8.66602 9.41895V43.5908C8.66602 44.2402 9.19246 44.7666 9.8418 44.7666H9.97363C10.0573 44.7665 10.1369 44.7484 10.2109 44.7207L8.6709 46.2617C8.66033 46.2723 8.65449 46.2868 8.6543 46.3018H0V6.70605H8.62988L10.21 8.28711Z" fill="#081225"/>
<path d="M58.0462 39V10.1069H68.5715C71.5984 10.1069 74.2951 10.7536 76.6616 12.0469C79.0556 13.3127 80.913 15.0463 82.2338 17.2477C83.5822 19.449 84.2563 21.8843 84.2563 24.5535C84.2563 27.2226 83.5822 29.6579 82.2338 31.8593C80.913 34.0607 79.0556 35.808 76.6616 37.1013C74.2951 38.3671 71.5984 39 68.5715 39H58.0462ZM68.5715 33.2214C70.4702 33.2214 72.1213 32.8637 73.5246 32.1482C74.928 31.4053 76.0012 30.3871 76.7441 29.0938C77.4871 27.773 77.8586 26.2595 77.8586 24.5535C77.8586 22.8474 77.4871 21.3477 76.7441 20.0544C76.0012 18.7336 74.928 17.7154 73.5246 17C72.1213 16.257 70.4702 15.8856 68.5715 15.8856H64.2376V33.2214H68.5715ZM98.0982 39.6191C96.0069 39.6191 94.0945 39.1238 92.3609 38.1332C90.6273 37.1426 89.2515 35.7942 88.2333 34.0882C87.2427 32.3821 86.7474 30.5109 86.7474 28.4747C86.7474 26.4384 87.2427 24.5672 88.2333 22.8612C89.2515 21.1551 90.6273 19.8068 92.3609 18.8161C94.0945 17.8255 96.0069 17.3302 98.0982 17.3302C100.245 17.3302 102.157 17.8255 103.836 18.8161C105.542 19.8068 106.862 21.1551 107.798 22.8612C108.761 24.5672 109.243 26.4384 109.243 28.4747V29.7129H92.7324C92.87 30.5935 93.1864 31.419 93.6817 32.1895C94.2046 32.9325 94.8512 33.5378 95.6217 34.0056C96.3922 34.4459 97.2177 34.666 98.0982 34.666C99.309 34.666 100.313 34.4321 101.111 33.9644C101.937 33.469 102.515 32.8774 102.845 32.1895H109.036C108.403 34.2533 107.165 36.0144 105.321 37.4728C103.478 38.9037 101.07 39.6191 98.0982 39.6191ZM103.051 26.2045C102.914 25.4891 102.611 24.8424 102.143 24.2645C101.703 23.6592 101.125 23.1776 100.41 22.8199C99.7218 22.4622 98.9513 22.2833 98.0982 22.2833C97.2452 22.2833 96.461 22.4622 95.7455 22.8199C95.0301 23.1776 94.4384 23.6592 93.9707 24.2645C93.5029 24.8424 93.1589 25.4891 92.9388 26.2045H103.051ZM122.848 39.6191C120.756 39.6191 118.844 39.1238 117.11 38.1332C115.377 37.1426 114.001 35.7942 112.983 34.0882C111.992 32.3821 111.497 30.5109 111.497 28.4747C111.497 26.4384 111.992 24.5672 112.983 22.8612C114.001 21.1551 115.377 19.8068 117.11 18.8161C118.844 17.8255 120.756 17.3302 122.848 17.3302C124.884 17.3302 126.645 17.7292 128.131 18.5272C129.617 19.2977 130.8 20.3021 131.681 21.5403C132.561 22.7786 133.194 24.127 133.579 25.5854H127.594C127.264 24.6773 126.686 23.9068 125.861 23.2739C125.063 22.6135 124.058 22.2833 122.848 22.2833C121.884 22.2833 120.99 22.5447 120.165 23.0675C119.339 23.5904 118.679 24.3196 118.183 25.2552C117.716 26.1907 117.482 27.2639 117.482 28.4747C117.482 29.6854 117.716 30.7586 118.183 31.6942C118.679 32.6298 119.339 33.359 120.165 33.8818C120.99 34.4046 121.884 34.666 122.848 34.666C124.058 34.666 125.063 34.3496 125.861 33.7167C126.686 33.0563 127.264 32.272 127.594 31.364H133.579C133.249 32.8224 132.644 34.1707 131.763 35.409C130.883 36.6473 129.686 37.6654 128.172 38.4634C126.686 39.2339 124.911 39.6191 122.848 39.6191ZM136.88 39V17.9493H142.658V21.045H142.865C143.277 20.0544 143.938 19.2289 144.846 18.5685C145.754 17.8806 146.882 17.5366 148.231 17.5366H150.707V23.1088H147.611C146.593 23.1088 145.713 23.3014 144.97 23.6867C144.227 24.0719 143.649 24.6223 143.236 25.3377C142.851 26.0532 142.658 26.8924 142.658 27.8555V39H136.88ZM159.593 46.8424L161.863 39H157.323L151.75 17.9493H157.735L161.863 34.0469H163.514L168.054 17.9493H174.039L165.578 46.8424H159.593ZM176.301 46.8424V17.9493H182.08V20.6323H182.286C182.699 20.0544 183.222 19.5178 183.855 19.0225C184.488 18.5272 185.231 18.1282 186.084 17.8255C186.937 17.4953 187.872 17.3302 188.89 17.3302C190.679 17.3302 192.303 17.798 193.761 18.7336C195.247 19.6417 196.416 20.9487 197.269 22.6548C198.15 24.3333 198.59 26.2733 198.59 28.4747C198.59 30.676 198.15 32.6298 197.269 34.3358C196.416 36.0144 195.247 37.3215 193.761 38.257C192.303 39.1651 190.679 39.6191 188.89 39.6191C187.872 39.6191 186.937 39.454 186.084 39.1238C185.231 38.8211 184.488 38.4221 183.855 37.9268C183.222 37.4315 182.699 36.8949 182.286 36.3171H182.08V46.8424H176.301ZM187.446 34.666C188.409 34.666 189.276 34.4184 190.046 33.9231C190.844 33.4278 191.463 32.7123 191.904 31.7767C192.371 30.8412 192.605 29.7405 192.605 28.4747C192.605 27.2089 192.371 26.1082 191.904 25.1726C191.463 24.237 190.844 23.5216 190.046 23.0263C189.276 22.531 188.409 22.2833 187.446 22.2833C186.4 22.2833 185.465 22.531 184.639 23.0263C183.841 23.5216 183.208 24.237 182.74 25.1726C182.3 26.1082 182.08 27.2089 182.08 28.4747C182.08 29.7405 182.3 30.8412 182.74 31.7767C183.208 32.7123 183.841 33.4278 184.639 33.9231C185.465 34.4184 186.4 34.666 187.446 34.666ZM203.131 39V22.9024H200.448V17.9493H203.131V13.409H208.909V17.9493H214.894V22.9024H208.909V34.0469H215.101V39H203.131ZM235.326 39V15.8856H226.039V10.1069H250.804V15.8856H241.517V39H235.326ZM260.507 39.6191C258.719 39.6191 257.081 39.1651 255.595 38.257C254.137 37.3215 252.967 36.0144 252.087 34.3358C251.234 32.6298 250.807 30.676 250.807 28.4747C250.807 26.2733 251.234 24.3333 252.087 22.6548C252.967 20.9487 254.137 19.6417 255.595 18.7336C257.081 17.798 258.719 17.3302 260.507 17.3302C261.525 17.3302 262.461 17.4953 263.314 17.8255C264.167 18.1282 264.91 18.5272 265.543 19.0225C266.176 19.5178 266.699 20.0544 267.111 20.6323H267.318V17.9493H273.096V39H267.318V36.3171H267.111C266.699 36.8949 266.176 37.4315 265.543 37.9268C264.91 38.4221 264.167 38.8211 263.314 39.1238C262.461 39.454 261.525 39.6191 260.507 39.6191ZM261.952 34.666C262.997 34.666 263.919 34.4184 264.717 33.9231C265.543 33.4278 266.176 32.7123 266.616 31.7767C267.084 30.8412 267.318 29.7405 267.318 28.4747C267.318 27.2089 267.084 26.1082 266.616 25.1726C266.176 24.237 265.543 23.5216 264.717 23.0263C263.919 22.531 262.997 22.2833 261.952 22.2833C260.989 22.2833 260.108 22.531 259.31 23.0263C258.54 23.5216 257.921 24.237 257.453 25.1726C257.013 26.1082 256.792 27.2089 256.792 28.4747C256.792 29.7405 257.013 30.8412 257.453 31.7767C257.921 32.7123 258.54 33.4278 259.31 33.9231C260.108 34.4184 260.989 34.666 261.952 34.666ZM277.637 39V10.1069H283.415V34.0469H288.162V39H277.637ZM300.97 39.6191C298.879 39.6191 296.967 39.1238 295.233 38.1332C293.499 37.1426 292.124 35.7942 291.105 34.0882C290.115 32.3821 289.62 30.5109 289.62 28.4747C289.62 26.4384 290.115 24.5672 291.105 22.8612C292.124 21.1551 293.499 19.8068 295.233 18.8161C296.967 17.8255 298.879 17.3302 300.97 17.3302C303.117 17.3302 305.029 17.8255 306.708 18.8161C308.414 19.8068 309.735 21.1551 310.67 22.8612C311.633 24.5672 312.115 26.4384 312.115 28.4747V29.7129H295.605C295.742 30.5935 296.059 31.419 296.554 32.1895C297.077 32.9325 297.723 33.5378 298.494 34.0056C299.264 34.4459 300.09 34.666 300.97 34.666C302.181 34.666 303.185 34.4321 303.983 33.9644C304.809 33.469 305.387 32.8774 305.717 32.1895H311.908C311.276 34.2533 310.037 36.0144 308.194 37.4728C306.35 38.9037 303.942 39.6191 300.97 39.6191ZM305.923 26.2045C305.786 25.4891 305.483 24.8424 305.015 24.2645C304.575 23.6592 303.997 23.1776 303.282 22.8199C302.594 22.4622 301.823 22.2833 300.97 22.2833C300.117 22.2833 299.333 22.4622 298.618 22.8199C297.902 23.1776 297.311 23.6592 296.843 24.2645C296.375 24.8424 296.031 25.4891 295.811 26.2045H305.923ZM315.607 39V17.9493H321.386V20.8387H321.592C322.17 19.848 323.023 19.0225 324.151 18.3621C325.307 17.6742 326.655 17.3302 328.196 17.3302C330.81 17.3302 332.833 18.1007 334.264 19.6417C335.722 21.1551 336.451 23.3427 336.451 26.2045V39H330.673V27.03C330.673 25.4891 330.288 24.3196 329.517 23.5216C328.747 22.6961 327.687 22.2833 326.339 22.2833C325.458 22.2833 324.633 22.5172 323.862 22.985C323.119 23.4528 322.514 24.1132 322.046 24.9662C321.606 25.8193 321.386 26.7824 321.386 27.8555V39H315.607ZM341.832 39V22.9024H339.149V17.9493H341.832V13.409H347.61V17.9493H353.595V22.9024H347.61V34.0469H353.802V39H341.832Z" fill="#081225"/>
<defs>
<linearGradient id="paint0_linear_1137_7790" x1="22.3267" y1="26.4997" x2="2.54883" y2="26.4997" gradientUnits="userSpaceOnUse">
<stop stop-color="#245FFF"/>
<stop offset="1" stop-color="#163999"/>
</linearGradient>
</defs>
</svg>
