<svg width="213" height="165" viewBox="0 0 213 165" fill="none" xmlns="http://www.w3.org/2000/svg">
<g clip-path="url(#clip0_1308_32599)">
<path d="M60.0135 63.2373C59.5234 64.3905 58.9833 65.6603 58.5046 66.8899C58.0231 68.1333 57.5382 69.3744 57.1009 70.6258C56.2035 73.1194 55.4226 75.6384 54.8877 78.1148C54.8084 78.4268 54.7688 78.729 54.709 79.0364L54.6251 79.4966L54.5642 79.8569C54.505 80.2585 54.501 80.8164 54.5303 81.3956C54.6033 82.5666 54.8044 83.8508 55.0428 85.1384C55.5381 87.7165 56.1908 90.3906 56.8418 93.0106L53.9224 94.2442C52.4739 91.7488 51.2627 89.2058 50.267 86.457C49.7757 85.0786 49.3402 83.6646 49.0529 82.0926C48.9092 81.3008 48.8018 80.4734 48.8282 79.4943L48.8443 79.1209C48.8512 78.9979 48.8621 78.9244 48.8708 78.8232L48.9271 78.2556C48.9684 77.8792 48.9943 77.4925 49.0546 77.1265C49.4666 74.1519 50.19 71.3314 51.0622 68.5878C51.5069 67.2186 51.97 65.8608 52.5032 64.5319C53.0393 63.1891 53.5547 61.902 54.2126 60.5391L60.0135 63.2373Z" fill="#E0A5A3"/>
<path d="M56.7357 92.2656L58.9777 94.453L54.0892 96.7272C54.0892 96.7272 52.9027 94.6558 53.722 92.7827L56.7357 92.2656Z" fill="#E0A5A3"/>
<g clip-path="url(#clip1_1308_32599)">
<path d="M121.909 18.6346L113 148.769H221.661L231.504 5H136.483L121.909 18.6346Z" fill="#407BFF" fill-opacity="0.1"/>
<path d="M121.922 20.7636L113.023 167.266H221.547L231.378 5.41406H136.477L121.922 20.7636Z" fill="#EDEDED" fill-opacity="0.8"/>
<path d="M212.77 48.9421C220.092 41.8676 220.671 30.5905 214.064 23.7539C207.457 16.9173 196.167 17.1101 188.846 24.1846C181.525 31.259 180.946 42.5362 187.553 49.3728C194.159 56.2094 205.45 56.0165 212.77 48.9421Z" fill="#407BFF"/>
<path d="M212.139 48.2829C219.075 41.5807 219.623 30.897 213.364 24.4202C207.106 17.9434 196.409 18.1262 189.474 24.8285C182.538 31.5307 181.989 42.2145 188.248 48.6912C194.507 55.168 205.203 54.9852 212.139 48.2829Z" fill="white"/>
<mask id="mask0_1308_32599" style="mask-type:luminance" maskUnits="userSpaceOnUse" x="183" y="19" width="35" height="35">
<path d="M212.139 48.2751C219.075 41.5728 219.624 30.8891 213.365 24.4124C207.106 17.9356 196.409 18.1184 189.474 24.8206C182.538 31.5229 181.989 42.2066 188.248 48.6834C194.507 55.1602 205.203 54.9773 212.139 48.2751Z" fill="white"/>
</mask>
<g mask="url(#mask0_1308_32599)">
<path d="M196.376 42.4304L193.053 42.2109C193.053 42.2109 191.508 50.1636 190.516 50.8502C189.168 51.785 186.493 54.0477 184.723 54.8682C184.57 55.2256 184.461 56.2345 184.61 56.5431C187.37 56.558 192.47 53.7983 193.353 52.6032C195.366 49.8774 196.376 42.4304 196.376 42.4304Z" fill="#FFC3BD"/>
<path d="M197.961 37.4365C198.966 39.309 195.835 46.0763 195.835 46.0763L191.57 44.7146C191.57 44.7146 191.722 41.3459 192.993 38.6954C194.047 36.4965 196.858 35.3812 197.961 37.4365Z" fill="#263238"/>
<path opacity="0.2" d="M194.702 40.8828C195.293 42.2348 194.524 45.511 193.931 47.5853C192.489 45.114 192.291 42.8169 194.702 40.8828Z" fill="black"/>
<path d="M194.681 37.7678C194.026 40.1632 192.743 46.4548 193.794 56.3312H205.016C205.275 54.4512 204.947 45.2804 207.583 36.4222C207.583 36.4222 205.524 36.001 203.532 35.9045C201.974 35.8292 199.713 35.7792 198.326 35.9045C197.486 35.9803 196.72 36.1487 196.138 36.3078C195.433 36.5015 194.874 37.0634 194.681 37.7678Z" fill="#263238"/>
<path opacity="0.2" d="M204.718 38.6066C204.378 40.0643 204.514 43.5525 205.527 47.5826C205.82 44.4805 206.341 40.8842 207.329 37.3006L207.331 37.2834C206.532 37.2012 205.04 37.2403 204.718 38.6066Z" fill="black"/>
<path d="M203.3 31.0312C202.816 32.7062 202.46 34.7827 203.528 35.9003C203.528 35.9003 202.696 37.5993 199.584 37.5993C196.74 37.5993 198.321 35.9003 198.321 35.9003C200.231 35.4544 200.348 33.144 200.144 31.8426L203.3 31.0312Z" fill="#FFC3BD"/>
<path d="M199.586 37.603C200.079 38.4384 200.033 39.2118 200.033 39.2118C200.033 39.2118 204.06 37.8368 204.065 35.8218C204.065 35.8218 203.542 35.4932 203.215 35.2266C203.215 35.2266 202.943 36.7963 199.586 37.603Z" fill="white"/>
<path d="M199.476 37.6009C198.828 38.4363 198.685 39.0896 198.685 39.0896C198.685 39.0896 197.03 37.8945 197.746 35.903C197.746 35.903 198.263 35.6945 198.773 35.5859C198.773 35.5859 198.287 37.1694 199.476 37.6009Z" fill="white"/>
<path opacity="0.2" d="M200.143 31.8438C200.266 32.6061 200.275 33.7157 199.875 34.5937C200.154 34.5529 200.443 34.469 200.733 34.3374C201.833 33.8404 202.424 33.0596 203.073 31.9001C203.141 31.603 203.218 31.3122 203.3 31.0312L200.143 31.8438Z" fill="black"/>
<path d="M197.429 30.2866C197.605 30.8572 198.035 31.2686 198.483 31.4588C199.156 31.7449 199.645 31.1353 199.587 30.4251C199.534 29.7862 199.121 28.8669 198.384 28.883C197.658 28.8985 197.227 29.6339 197.429 30.2866Z" fill="#FFC3BD"/>
<path opacity="0.2" d="M197.429 30.2866C197.605 30.8572 198.035 31.2686 198.483 31.4588C199.156 31.7449 199.645 31.1353 199.587 30.4251C199.534 29.7862 199.121 28.8669 198.384 28.883C197.658 28.8985 197.227 29.6339 197.429 30.2866Z" fill="black"/>
<path d="M200.436 25.6004C200.22 24.2709 198.262 26.6031 198.679 27.835C199.096 29.0668 200.68 27.0932 200.436 25.6004Z" fill="#263238"/>
<path d="M204.626 28.964C203.906 31.1858 203.594 32.5131 202.187 33.4721C200.071 34.9143 197.635 33.4123 197.696 31.079C197.752 28.9789 198.92 25.6981 201.297 25.1798C203.639 24.669 205.346 26.7421 204.626 28.964Z" fill="#FFC3BD"/>
<path d="M203.975 27.6544C201.549 27.3108 198.068 26.8649 199.33 24.8827C200.534 22.9917 205.323 23.3353 203.869 24.1736C205.752 24.2811 208.14 25.1837 206.336 25.8066C207.79 26.8379 207.214 29.6097 204.441 30.5767C203.639 29.4166 203.009 28.9007 203.975 27.6544Z" fill="#263238"/>
<path d="M204.973 31.6111C204.527 32.0731 203.929 32.3041 203.426 32.3276C202.67 32.3632 202.527 31.6427 202.934 31.0141C203.3 30.4482 204.136 29.7478 204.8 30.0098C205.455 30.2672 205.482 31.0831 204.973 31.6111Z" fill="#FFC3BD"/>
<path d="M201.139 29.011C201.091 29.1937 200.958 29.3253 200.841 29.3051C200.724 29.285 200.669 29.1201 200.716 28.9368C200.764 28.7541 200.897 28.6226 201.014 28.6427C201.131 28.6633 201.186 28.8283 201.139 29.011Z" fill="#263238"/>
<path d="M199.127 28.6594C199.079 28.8421 198.946 28.9736 198.829 28.9535C198.713 28.9329 198.657 28.7685 198.705 28.5852C198.752 28.4025 198.886 28.2709 199.002 28.2911C199.119 28.3117 199.175 28.4761 199.127 28.6594Z" fill="#263238"/>
<path d="M199.744 28.8594C199.744 28.8594 199.064 29.8431 198.484 30.274C198.721 30.6314 199.294 30.5872 199.294 30.5872L199.744 28.8594Z" fill="#ED847E"/>
<path d="M199.681 31.1838C199.652 31.1787 199.635 31.1505 199.642 31.1212C199.65 31.0919 199.68 31.0718 199.709 31.077C200.492 31.2143 201.004 30.7173 201.009 30.7127C201.031 30.6909 201.066 30.6891 201.085 30.7098C201.105 30.7299 201.104 30.7644 201.081 30.7868C201.059 30.8081 200.52 31.3304 199.681 31.1838Z" fill="#263238"/>
<path d="M201.921 28.4456C201.89 28.4399 201.862 28.4198 201.849 28.3882C201.666 27.9567 201.275 27.9124 201.272 27.9124C201.216 27.909 201.174 27.8533 201.185 27.7935C201.197 27.7337 201.254 27.6901 201.312 27.6958C201.333 27.6975 201.823 27.7527 202.05 28.2882C202.072 28.3416 202.045 28.4077 201.99 28.4353C201.967 28.4462 201.943 28.4491 201.921 28.4456Z" fill="#263238"/>
<path d="M198.406 27.7658C198.391 27.7624 198.376 27.7549 198.364 27.744C198.322 27.7061 198.321 27.6377 198.363 27.5906C198.784 27.124 199.275 27.1723 199.296 27.174C199.354 27.178 199.393 27.2338 199.381 27.2941C199.369 27.3539 199.313 27.3969 199.254 27.3906C199.238 27.3889 198.854 27.3556 198.518 27.7279C198.488 27.7618 198.444 27.775 198.406 27.7658Z" fill="#263238"/>
<path d="M208.573 39.4922L205.53 41.1027C205.53 41.1027 208.467 48.3458 207.966 49.4323C207.284 50.9112 206.153 54.1737 205.039 55.7877C205.097 56.1583 205.546 57.0299 205.845 57.1982C208.281 55.7262 211.277 50.7584 211.409 49.3197C211.708 46.0394 208.573 39.4922 208.573 39.4922Z" fill="#FFC3BD"/>
<path d="M207.584 36.4191C209.707 36.796 211.269 44.3654 211.269 44.3654L206.03 45.8656C206.03 45.8656 204.853 43.1783 204.19 40.502C203.494 37.6969 205.308 36.0146 207.584 36.4191Z" fill="#263238"/>
</g>
<path d="M206.985 133.426C214.306 126.352 214.885 115.074 208.279 108.238C201.672 101.402 190.382 101.594 183.061 108.669C175.74 115.743 175.161 127.02 181.768 133.857C188.374 140.693 199.665 140.5 206.985 133.426Z" fill="#407BFF"/>
<path d="M206.358 132.767C213.293 126.065 213.842 115.381 207.583 108.905C201.324 102.428 190.628 102.61 183.692 109.313C176.757 116.015 176.208 126.699 182.467 133.176C188.726 139.652 199.422 139.47 206.358 132.767Z" fill="white"/>
<mask id="mask1_1308_32599" style="mask-type:luminance" maskUnits="userSpaceOnUse" x="178" y="104" width="34" height="34">
<path d="M206.365 132.775C213.301 126.072 213.849 115.389 207.591 108.912C201.332 102.436 190.636 102.618 183.7 109.32C176.765 116.022 176.216 126.706 182.475 133.183C188.733 139.66 199.43 139.477 206.365 132.775Z" fill="white"/>
</mask>
<g mask="url(#mask1_1308_32599)">
<path d="M189.158 127.071L186.039 126.055C186.039 126.055 182.643 133.533 181.531 133.973C180.019 134.571 176.92 136.161 175.032 136.545C174.8 136.86 174.452 137.83 174.52 138.171C177.15 138.85 182.683 137.353 183.815 136.385C186.395 134.18 189.158 127.071 189.158 127.071Z" fill="#FFB573"/>
<path d="M191.88 122.505C192.386 124.595 187.764 130.522 187.764 130.522L184.023 128.152C184.023 128.152 184.982 124.863 186.836 122.552C188.374 120.636 191.325 120.211 191.88 122.505Z" fill="#407BFF"/>
<path opacity="0.3" d="M191.88 122.505C192.386 124.595 187.764 130.522 187.764 130.522L184.023 128.152C184.023 128.152 184.982 124.863 186.836 122.552C188.374 120.636 191.325 120.211 191.88 122.505Z" fill="black"/>
<path opacity="0.2" d="M188.96 125.109C189.308 126.557 188.992 128.869 188.066 130.839C187.248 129.607 186.285 126.635 188.96 125.109Z" fill="black"/>
<path d="M188.908 122.245C188.253 124.64 186.969 130.932 188.02 140.808H199.243C199.502 138.928 199.173 129.757 201.81 120.899C201.81 120.899 199.75 120.478 197.759 120.381C196.201 120.306 193.94 120.256 192.552 120.381C191.712 120.457 190.947 120.626 190.364 120.785C189.659 120.978 189.1 121.541 188.908 122.245Z" fill="#407BFF"/>
<path opacity="0.3" d="M188.908 122.245C188.253 124.64 186.969 130.932 188.02 140.808H199.243C199.502 138.928 199.173 129.757 201.81 120.899C201.81 120.899 199.75 120.478 197.759 120.381C196.201 120.306 193.94 120.256 192.552 120.381C191.712 120.457 190.947 120.626 190.364 120.785C189.659 120.978 189.1 121.541 188.908 122.245Z" fill="black"/>
<path opacity="0.2" d="M198.978 124.975C198.638 126.433 198.34 129.895 199.749 132.067C200.042 128.965 200.563 125.369 201.551 121.785L201.553 121.768C200.753 121.686 199.3 123.608 198.978 124.975Z" fill="black"/>
<g opacity="0.95">
<path d="M193.67 124.892L193.053 125.163L192.583 124.736C191.003 123.297 191.027 121.616 191.38 120.548C191.744 120.479 192.137 120.419 192.55 120.382C193.937 120.256 196.198 120.306 197.756 120.382C198.157 120.401 198.56 120.434 198.948 120.474L198.556 120.978C198.471 121.087 196.44 123.674 193.67 124.892Z" fill="white"/>
</g>
<path d="M197.529 115.516C197.044 117.191 196.688 119.268 197.756 120.385C197.756 120.385 195.848 122.84 193.308 123.957C191.421 122.238 192.55 120.385 192.55 120.385C194.459 119.94 194.576 117.629 194.372 116.328L197.529 115.516Z" fill="#FFB573"/>
<path opacity="0.2" d="M194.374 116.329C194.497 117.091 194.506 118.201 194.105 119.079C194.384 119.038 194.673 118.954 194.964 118.823C196.063 118.326 196.655 117.544 197.303 116.385C197.371 116.088 197.448 115.797 197.531 115.516L194.374 116.329Z" fill="black"/>
<path d="M191.655 114.778C191.831 115.349 192.262 115.76 192.709 115.951C193.382 116.237 193.872 115.627 193.814 114.917C193.761 114.278 193.348 113.359 192.611 113.375C191.885 113.39 191.454 114.126 191.655 114.778Z" fill="#FFB573"/>
<path opacity="0.2" d="M191.655 114.778C191.831 115.349 192.262 115.76 192.709 115.951C193.382 116.237 193.872 115.627 193.814 114.917C193.761 114.278 193.348 113.359 192.611 113.375C191.885 113.39 191.454 114.126 191.655 114.778Z" fill="black"/>
<path d="M194.315 110.844C194.095 109.345 192.426 111.064 192.239 112.161C192.053 113.258 192.97 114.37 193.592 113.282C194.214 112.193 194.434 111.655 194.315 110.844Z" fill="#263238"/>
<path d="M198.856 113.448C198.136 115.67 197.825 116.997 196.418 117.956C194.302 119.398 191.865 117.896 191.927 115.563C191.982 113.463 193.15 110.181 195.527 109.664C197.87 109.153 199.576 111.225 198.856 113.448Z" fill="#FFB573"/>
<path d="M197.763 115.776C196.903 115.187 196.749 114.982 197.208 114.465C197.953 113.628 196.844 113.509 197.431 112.467C198.246 111.02 195.646 112.037 195.599 110.985C195.56 110.131 193.285 111.668 193.062 110.684C192.727 109.202 194.895 109.472 195.279 108.75C195.663 108.029 197.885 107.919 198.243 108.972C198.601 110.025 199.718 109.187 200.447 110.476C201.175 111.766 199.666 111.857 200.395 113.112C200.978 114.114 199.86 114.81 199.076 115.633C198.584 116.15 198.297 116.141 197.763 115.776Z" fill="#263238"/>
<path d="M199.341 115.791C198.935 116.287 198.356 116.568 197.854 116.635C197.099 116.737 196.892 116.036 197.246 115.378C197.563 114.786 198.339 114.019 199.028 114.22C199.707 114.418 199.805 115.223 199.341 115.791Z" fill="#FFB573"/>
<path d="M195.365 113.496C195.317 113.679 195.184 113.81 195.068 113.79C194.951 113.769 194.895 113.605 194.943 113.422C194.991 113.239 195.124 113.107 195.241 113.127C195.357 113.148 195.413 113.313 195.365 113.496Z" fill="#263238"/>
<path d="M193.353 113.136C193.306 113.319 193.172 113.451 193.056 113.431C192.939 113.41 192.883 113.246 192.931 113.062C192.979 112.88 193.112 112.748 193.229 112.768C193.345 112.789 193.401 112.954 193.353 113.136Z" fill="#263238"/>
<path d="M193.971 113.352C193.971 113.352 193.29 114.336 192.711 114.766C192.948 115.124 193.521 115.08 193.521 115.08L193.971 113.352Z" fill="#ED893E"/>
<path d="M193.9 115.669C193.871 115.664 193.854 115.636 193.861 115.606C193.869 115.576 193.898 115.557 193.928 115.562C194.711 115.699 195.222 115.202 195.227 115.197C195.25 115.175 195.284 115.174 195.304 115.194C195.324 115.214 195.322 115.249 195.3 115.271C195.277 115.294 194.739 115.816 193.9 115.669Z" fill="#263238"/>
<path d="M196.152 112.938C196.121 112.932 196.093 112.912 196.08 112.881C195.897 112.449 195.507 112.405 195.502 112.405C195.446 112.401 195.405 112.346 195.416 112.285C195.427 112.226 195.484 112.182 195.543 112.188C195.564 112.189 196.054 112.245 196.28 112.78C196.302 112.834 196.276 112.9 196.22 112.927C196.199 112.938 196.175 112.942 196.152 112.938Z" fill="#263238"/>
<path d="M192.632 112.25C192.617 112.247 192.603 112.239 192.591 112.229C192.548 112.191 192.548 112.122 192.59 112.075C193.01 111.609 193.502 111.656 193.522 111.659C193.58 111.663 193.619 111.718 193.607 111.779C193.595 111.838 193.539 111.882 193.48 111.875C193.464 111.873 193.08 111.84 192.744 112.212C192.714 112.247 192.67 112.26 192.632 112.25Z" fill="#263238"/>
<path d="M203.032 124.234L199.833 125.454C199.833 125.454 201.784 133.078 201.151 134.101C200.29 135.493 198.757 138.612 197.453 140.083C197.462 140.461 197.792 141.391 198.063 141.598C200.648 140.439 204.234 135.853 204.549 134.431C205.267 131.188 203.032 124.234 203.032 124.234Z" fill="#FFB573"/>
<path d="M202.453 121.032C204.491 121.682 205.048 129.457 205.048 129.457L199.704 130.284C199.704 130.284 198.895 127.444 198.589 124.68C198.268 121.785 200.267 120.335 202.453 121.032Z" fill="#407BFF"/>
<path opacity="0.3" d="M202.453 121.032C204.491 121.682 205.048 129.457 205.048 129.457L199.704 130.284C199.704 130.284 198.895 127.444 198.589 124.68C198.268 121.785 200.267 120.335 202.453 121.032Z" fill="black"/>
</g>
<path d="M156.739 91.1765C164.06 84.102 164.639 72.8249 158.033 65.9883C151.426 59.1517 140.136 59.3445 132.815 66.419C125.494 73.4934 124.915 84.7706 131.522 91.6072C138.128 98.4438 149.418 98.2509 156.739 91.1765Z" fill="#407BFF"/>
<path d="M156.108 90.5329C163.043 83.8307 163.592 73.147 157.333 66.6702C151.074 60.1934 140.378 60.3762 133.442 67.0785C126.507 73.7807 125.958 84.4644 132.217 90.9412C138.476 97.418 149.172 97.2352 156.108 90.5329Z" fill="white"/>
<mask id="mask2_1308_32599" style="mask-type:luminance" maskUnits="userSpaceOnUse" x="127" y="61" width="35" height="35">
<path d="M156.1 90.5407C163.035 83.8384 163.584 73.1547 157.325 66.6779C151.067 60.2012 140.37 60.384 133.435 67.0862C126.499 73.7885 125.95 84.4722 132.209 90.949C138.468 97.4257 149.164 97.2429 156.1 90.5407Z" fill="white"/>
</mask>
<g mask="url(#mask2_1308_32599)">
<path d="M151.831 82.7734C151.921 84.1438 151.987 85.5193 152.043 86.892L152.208 90.995L152.236 91.4943L152.276 91.9339C152.321 92.2355 152.356 92.5458 152.419 92.8624C152.538 93.4944 152.698 94.1385 152.878 94.782C153.223 96.0742 153.642 97.3797 154.052 98.6702L152.862 99.2241C152.133 98.0048 151.52 96.7522 150.961 95.4411C150.696 94.7803 150.448 94.1069 150.234 93.4019C150.127 93.0503 150.028 92.6848 149.953 92.3079L149.859 91.7224L149.797 91.1921C149.496 88.4117 149.296 85.6733 149.184 82.9085L151.831 82.7734Z" fill="#FF8B7B"/>
<path d="M151.205 79.771C152.254 80.0434 152.701 84.4406 152.701 84.4406L148.424 87.2198C148.424 87.2198 147.1 82.0067 148.002 80.8317C148.942 79.609 149.672 79.374 151.205 79.771Z" fill="#407BFF"/>
<path opacity="0.2" d="M151.043 80.7578L151.56 85.19L149.828 86.3128L151.043 80.7578Z" fill="black"/>
<path d="M139.534 68.4381C137.741 68.6961 133.972 77.2906 140.115 81.3011C146.258 85.3117 150.781 80.757 150.781 80.757C150.781 80.757 147.045 76.3167 147.587 73.4231C148.129 70.5296 150.461 66.8782 145.678 65.6595C142.305 64.7994 137.779 65.6302 139.534 68.4381Z" fill="#263238"/>
<path d="M151.202 79.7743C151.202 79.7743 152.407 80.2092 148.891 95.4234C144.713 95.4234 140.394 95.4234 138.36 95.4234C138.83 91.1376 139.017 88.4946 137.57 79.699C137.57 79.699 139.809 79.2192 142.082 79.1101C143.86 79.0244 145.316 78.9681 146.864 79.1101C148.905 79.2979 151.202 79.7743 151.202 79.7743Z" fill="#407BFF"/>
<path opacity="0.2" d="M138.204 83.1797C139.142 83.4176 139.952 84.4582 139.716 86.3744C139.574 87.5235 138.988 88.3928 138.672 88.787C138.604 87.3132 138.439 85.6016 138.141 83.4113L138.204 83.1797Z" fill="black"/>
<path d="M146.085 82.4789C146.085 82.4789 144.261 83.8992 144.158 85.4109C142.795 84.36 141.059 81.4981 140.981 79.6709C140.968 79.363 141.233 79.0912 141.543 79.0728C141.706 79.063 141.837 79.0429 141.93 79.0234C142.042 79.0004 142.152 79.0291 142.234 79.1004L146.085 82.4789Z" fill="#FAFAFA"/>
<path d="M146.078 82.4747C146.078 82.4747 147.6 83.2883 147.751 85.2924C149.276 84.2283 148.753 81.0515 148.051 79.4978C147.94 79.2519 147.708 79.0864 147.435 79.0542C147.224 79.0295 147.064 79.0014 146.958 78.9795C146.877 78.9629 146.796 79.0192 146.779 79.1019L146.078 82.4747Z" fill="#FAFAFA"/>
<path d="M142.928 73.7266C143.125 75.2653 143.233 78.0842 142.086 79.111C142.086 79.111 143.379 81.0048 146.083 82.4837C148.333 80.779 146.868 79.111 146.868 79.111C145.18 78.7013 145.312 77.428 145.692 76.2329L142.928 73.7266Z" fill="#FF8B7B"/>
<path opacity="0.2" d="M144.058 74.7422L145.694 76.2246C145.602 76.5073 145.527 76.7946 145.488 77.0732C144.839 76.9784 143.846 76.4199 143.755 75.7075C143.711 75.3702 143.991 74.9019 144.058 74.7422Z" fill="black"/>
<path d="M140.512 71.2475C141.054 73.7205 141.23 74.7823 142.713 75.7878C144.945 77.3001 147.924 75.8855 148.146 73.2499C148.346 70.8775 147.426 67.2318 144.781 66.7796C142.175 66.3337 139.97 68.774 140.512 71.2475Z" fill="#FF8B7B"/>
<path d="M141.219 73.4805C142.813 71.9619 142.87 70.0854 142.466 69.4982C143.835 69.3832 147.374 68.5243 146.806 67.2062C146.237 65.8881 140.729 65.1722 139.967 68.5524C138.144 70.0716 139.309 73.1369 141.219 73.4805Z" fill="#263238"/>
<path d="M144.682 71.0289C144.714 71.2329 144.849 71.3748 144.984 71.3449C145.12 71.315 145.204 71.1254 145.173 70.9215C145.141 70.7175 145.006 70.5761 144.871 70.6054C144.736 70.6353 144.651 70.8249 144.682 71.0289Z" fill="#263238"/>
<path d="M147.022 70.5134C147.054 70.7174 147.189 70.8593 147.324 70.8294C147.46 70.7995 147.545 70.6099 147.513 70.4059C147.481 70.202 147.346 70.0601 147.211 70.0899C147.075 70.1198 146.991 70.3094 147.022 70.5134Z" fill="#263238"/>
<path d="M147.156 70.1099L147.633 69.8594C147.633 69.8594 147.436 70.2984 147.156 70.1099Z" fill="#263238"/>
<path d="M146.359 71.0391C146.359 71.0391 146.846 71.8412 147.299 72.1802C147.064 72.4916 146.581 72.4784 146.581 72.4784L146.359 71.0391Z" fill="#FF5652"/>
<path d="M145.573 73.5281C145.671 73.5218 145.774 73.5074 145.882 73.4839C145.916 73.4764 145.939 73.4437 145.934 73.4109C145.928 73.3776 145.897 73.3552 145.864 73.3644C144.953 73.562 144.433 73.0305 144.428 73.0254C144.405 73.0018 144.366 73.0018 144.341 73.0265C144.316 73.0507 144.313 73.0897 144.336 73.1133C144.356 73.134 144.792 73.5798 145.573 73.5281Z" fill="#263238"/>
<path d="M140.187 73.7168C140.452 74.1609 140.907 74.4269 141.333 74.5062C141.974 74.6257 142.279 74.0311 142.089 73.4502C141.918 72.9273 141.379 72.2349 140.742 72.3786C140.114 72.5205 139.884 73.2089 140.187 73.7168Z" fill="#FF8B7B"/>
<path d="M143.581 70.585C143.633 70.5781 143.679 70.5391 143.692 70.4851C143.831 69.926 144.514 69.6123 144.521 69.6094C144.584 69.5807 144.615 69.5077 144.591 69.4462C144.567 69.3847 144.496 69.3577 144.432 69.3865C144.399 69.4014 143.623 69.7582 143.453 70.4414C143.436 70.508 143.477 70.5718 143.542 70.5839C143.556 70.5868 143.569 70.5868 143.581 70.585Z" fill="#263238"/>
<path d="M147.588 68.8796C147.63 68.8814 147.673 68.8624 147.7 68.8245C147.741 68.7676 147.73 68.6918 147.676 68.6544C147.134 68.2809 146.597 68.501 146.574 68.5108C146.51 68.5378 146.476 68.6102 146.499 68.6722C146.522 68.7343 146.592 68.7624 146.656 68.736C146.678 68.7268 147.096 68.5625 147.527 68.8595C147.546 68.8716 147.566 68.8785 147.588 68.8796Z" fill="#263238"/>
<path d="M144.809 70.6255L145.284 70.375C145.284 70.375 145.088 70.814 144.809 70.6255Z" fill="#263238"/>
<path d="M138.251 94.8137L137.917 95.7566C137.875 95.8295 137.957 95.9042 138.079 95.9042H148.917C149.012 95.9042 149.094 95.8577 149.104 95.7979L149.263 94.8551C149.274 94.7895 149.196 94.7344 149.092 94.7344H138.429C138.349 94.7344 138.278 94.7666 138.251 94.8137Z" fill="#407BFF"/>
<path opacity="0.2" d="M138.251 94.8137L137.917 95.7566C137.875 95.8295 137.957 95.9042 138.079 95.9042H148.917C149.012 95.9042 149.094 95.8577 149.104 95.7979L149.263 94.8551C149.274 94.7895 149.196 94.7344 149.092 94.7344H138.429C138.349 94.7344 138.278 94.7666 138.251 94.8137Z" fill="white"/>
<path d="M139.624 95.9948H139.339C139.282 95.9948 139.24 95.9655 139.247 95.9299L139.465 94.7055C139.471 94.6699 139.523 94.6406 139.579 94.6406H139.865C139.922 94.6406 139.963 94.6699 139.957 94.7055L139.739 95.9299C139.733 95.9655 139.681 95.9948 139.624 95.9948Z" fill="#407BFF"/>
<path opacity="0.4" d="M139.624 95.9948H139.339C139.282 95.9948 139.24 95.9655 139.247 95.9299L139.465 94.7055C139.471 94.6699 139.523 94.6406 139.579 94.6406H139.865C139.922 94.6406 139.963 94.6699 139.957 94.7055L139.739 95.9299C139.733 95.9655 139.681 95.9948 139.624 95.9948Z" fill="black"/>
<path d="M148.097 95.9948H147.811C147.754 95.9948 147.713 95.9655 147.719 95.9299L147.937 94.7055C147.943 94.6699 147.995 94.6406 148.052 94.6406H148.338C148.394 94.6406 148.436 94.6699 148.43 94.7055L148.212 95.9299C148.205 95.9655 148.154 95.9948 148.097 95.9948Z" fill="#407BFF"/>
<path opacity="0.4" d="M148.097 95.9948H147.811C147.754 95.9948 147.713 95.9655 147.719 95.9299L147.937 94.7055C147.943 94.6699 147.995 94.6406 148.052 94.6406H148.338C148.394 94.6406 148.436 94.6699 148.43 94.7055L148.212 95.9299C148.205 95.9655 148.154 95.9948 148.097 95.9948Z" fill="black"/>
<path d="M143.882 95.9948H143.596C143.54 95.9948 143.498 95.9655 143.505 95.9299L143.722 94.7055C143.729 94.6699 143.78 94.6406 143.837 94.6406H144.123C144.18 94.6406 144.221 94.6699 144.215 94.7055L143.997 95.9299C143.991 95.9655 143.939 95.9948 143.882 95.9948Z" fill="#407BFF"/>
<path opacity="0.4" d="M143.882 95.9948H143.596C143.54 95.9948 143.498 95.9655 143.505 95.9299L143.722 94.7055C143.729 94.6699 143.78 94.6406 143.837 94.6406H144.123C144.18 94.6406 144.221 94.6699 144.215 94.7055L143.997 95.9299C143.991 95.9655 143.939 95.9948 143.882 95.9948Z" fill="black"/>
<path d="M138.741 83.2012C138.445 84.9559 138.106 86.7026 137.76 88.4482C137.594 89.3221 137.403 90.1914 137.222 91.0631L136.946 92.3691L136.827 92.9339C136.818 92.9655 136.815 92.9954 136.833 93.0643C136.868 93.1976 137.024 93.4556 137.269 93.6917C137.509 93.9336 137.817 94.1698 138.146 94.391C138.81 94.8369 139.573 95.2126 140.344 95.5792C141.12 95.9429 141.925 96.2716 142.741 96.5761C143.552 96.8938 144.391 97.1788 145.209 97.4523L144.912 98.7319C143.105 98.4349 141.358 97.997 139.609 97.3897C138.736 97.0852 137.875 96.7163 137.018 96.2388C136.591 95.9941 136.164 95.7229 135.745 95.3649C135.338 95.0046 134.895 94.568 134.62 93.8612C134.487 93.5131 134.415 93.0913 134.458 92.6805C134.486 92.4346 134.499 92.3852 134.517 92.2611L134.568 91.9313L134.773 90.6126C134.911 89.7341 135.039 88.8533 135.193 87.9782C135.486 86.224 135.787 84.4716 136.131 82.7266L138.741 83.2012Z" fill="#FF8B7B"/>
<path d="M137.57 79.6908C136.493 80.0114 134.977 83.6444 134.977 83.6444L138.408 87.4453C138.408 87.4453 140.569 83.5382 140.22 82.1747C139.855 80.7543 138.799 79.3248 137.57 79.6908Z" fill="#407BFF"/>
</g>
<path opacity="0.3" d="M131.396 34.8718H172.568C173.35 34.8718 174.028 34.2375 174.082 33.4555C174.135 32.6735 173.544 32.0391 172.762 32.0391H131.591C130.809 32.0391 130.131 32.6735 130.078 33.4555C130.023 34.2375 130.614 34.8718 131.396 34.8718Z" fill="#407BFF"/>
<path opacity="0.3" d="M142.768 41.0983H172.136C172.918 41.0983 173.595 40.4639 173.649 39.6819C173.702 38.8999 173.112 38.2656 172.33 38.2656H142.961C142.179 38.2656 141.502 38.8999 141.449 39.6819C141.395 40.4645 141.986 41.0983 142.768 41.0983Z" fill="#407BFF"/>
<path d="M149.64 28.6295H172.998C173.78 28.6295 174.457 27.9952 174.51 27.2132C174.564 26.4312 173.973 25.7969 173.191 25.7969H149.833C149.051 25.7969 148.374 26.4312 148.32 27.2132C148.267 27.9958 148.858 28.6295 149.64 28.6295Z" fill="white"/>
<path opacity="0.3" d="M149.681 125.859H166.335C167.117 125.859 167.708 126.494 167.655 127.276C167.601 128.058 166.924 128.692 166.141 128.692H149.487C148.705 128.692 148.114 128.058 148.167 127.276C148.221 126.494 148.899 125.859 149.681 125.859Z" fill="#407BFF"/>
<path opacity="0.3" d="M127.126 125.859H143.781C144.563 125.859 145.153 126.494 145.1 127.276C145.047 128.058 144.369 128.692 143.587 128.692H126.932C126.15 128.692 125.559 128.058 125.613 127.276C125.667 126.494 126.344 125.859 127.126 125.859Z" fill="#407BFF"/>
<path opacity="0.3" d="M137.392 119.641H166.76C167.542 119.641 168.133 120.276 168.079 121.058C168.026 121.84 167.348 122.474 166.566 122.474H137.198C136.416 122.474 135.825 121.84 135.878 121.058C135.932 120.275 136.61 119.641 137.392 119.641Z" fill="#407BFF"/>
<path d="M133.521 113.398H167.186C167.968 113.398 168.559 114.032 168.505 114.814C168.452 115.596 167.774 116.23 166.992 116.23H133.326C132.544 116.23 131.954 115.596 132.007 114.814C132.061 114.031 132.738 113.398 133.521 113.398Z" fill="white"/>
<path opacity="0.3" d="M203.485 83.6172H172.806C172.024 83.6172 171.346 84.2516 171.292 85.0336C171.239 85.8156 171.83 86.4499 172.612 86.4499H203.291C204.073 86.4499 204.75 85.8156 204.805 85.0336C204.858 84.251 204.267 83.6172 203.485 83.6172Z" fill="#407BFF"/>
<path opacity="0.3" d="M187.717 77.3906H173.24C172.458 77.3906 171.78 78.0249 171.726 78.8069C171.673 79.5889 172.263 80.2232 173.045 80.2232H187.523C188.305 80.2232 188.982 79.5889 189.036 78.8069C189.09 78.0243 188.499 77.3906 187.717 77.3906Z" fill="#407BFF"/>
<path d="M196.197 71.1641H173.669C172.887 71.1641 172.21 71.7984 172.156 72.5804C172.102 73.3624 172.693 73.9967 173.475 73.9967H196.003C196.785 73.9967 197.462 73.3624 197.516 72.5804C197.57 71.7984 196.979 71.1641 196.197 71.1641Z" fill="white"/>
<path opacity="0.3" d="M214.411 77.3906H193.84C193.058 77.3906 192.381 78.0249 192.328 78.8069C192.274 79.5889 192.865 80.2232 193.647 80.2232H214.217C214.999 80.2232 215.677 79.5889 215.731 78.8069C215.784 78.0243 215.193 77.3906 214.411 77.3906Z" fill="#407BFF"/>
<path opacity="0.3" d="M121.91 18.6346H137.298L136.484 5L121.91 18.6346Z" fill="#407BFF"/>
<path d="M121.91 18.6346L138.384 16.6627L136.484 5L121.91 18.6346Z" fill="#407BFF"/>
</g>
<path d="M60.7847 97.7103L56.6558 99.4013L54.0898 96.7278L58.9788 94.4531L60.7847 97.7103Z" fill="#E0A5A3"/>
<path d="M167.459 85.1347C173.915 69.5486 166.514 51.68 150.928 45.2239C135.342 38.7678 117.473 46.1691 111.017 61.7551C104.561 77.3411 111.962 95.2098 127.548 101.666C143.134 108.122 161.003 100.721 167.459 85.1347Z" fill="#407BFF"/>
<path d="M139.231 102.391C155.213 102.391 168.169 89.4354 168.169 73.4535C168.169 57.4715 155.213 44.5156 139.231 44.5156C123.249 44.5156 110.293 57.4715 110.293 73.4535C110.293 89.4354 123.249 102.391 139.231 102.391Z" fill="white"/>
<mask id="mask3_1308_32599" style="mask-type:luminance" maskUnits="userSpaceOnUse" x="110" y="44" width="59" height="59">
<path d="M139.227 102.399C155.209 102.399 168.165 89.4432 168.165 73.4612C168.165 57.4793 155.209 44.5234 139.227 44.5234C123.245 44.5234 110.289 57.4793 110.289 73.4612C110.289 89.4432 123.245 102.399 139.227 102.399Z" fill="white"/>
</mask>
<g mask="url(#mask3_1308_32599)">
<path d="M151.787 80.125C152.105 82.4911 152.382 84.8687 152.64 87.2434L153.419 94.3371L153.525 95.1892L153.647 95.951L153.813 96.7445L154.016 97.5547C154.312 98.6389 154.651 99.745 155.028 100.847C155.766 103.058 156.631 105.281 157.473 107.482L155.486 108.542C154.11 106.497 152.926 104.385 151.819 102.174C151.287 101.061 150.774 99.926 150.334 98.7314L150.012 97.823L149.725 96.8784C149.64 96.5526 149.565 96.2136 149.486 95.8804L149.307 94.9588C148.868 92.5582 148.505 90.1915 148.174 87.8093C147.832 85.4312 147.524 83.0542 147.273 80.6639L151.787 80.125Z" fill="#FF8B7B"/>
<path d="M150.365 75.1167C152.197 75.5833 153.479 83.124 153.479 83.124L146.471 87.8901C146.471 87.8901 143.588 78.9508 144.998 76.9364C146.465 74.838 147.691 74.4358 150.365 75.1167Z" fill="#407BFF"/>
<path opacity="0.2" d="M150.201 76.8047L151.608 84.4052L148.77 86.33L150.201 76.8047Z" fill="black"/>
<path d="M129.02 55.6866C125.975 56.129 120.522 70.8662 131.525 77.7433C142.529 84.621 149.75 76.8096 149.75 76.8096C149.75 76.8096 142.824 69.1954 143.413 64.2339C144.003 59.2725 147.572 53.0108 139.228 50.921C133.343 49.4478 125.68 50.8728 129.02 55.6866Z" fill="#263238"/>
<path d="M150.363 75.1153C150.363 75.1153 152.481 75.8611 148.238 101.949C141.073 101.949 133.668 101.949 130.181 101.949C130.484 94.6003 130.493 90.0686 126.98 74.9866C126.98 74.9866 130.764 74.1638 134.648 73.9765C137.686 73.83 140.176 73.7329 142.847 73.9771C146.369 74.2977 150.363 75.1153 150.363 75.1153Z" fill="#407BFF"/>
<path opacity="0.2" d="M128.466 80.9531C130.101 81.3604 131.613 83.1456 131.432 86.431C131.323 88.4013 130.42 89.8923 129.926 90.568C129.637 88.0404 129.152 85.1055 128.383 81.3501L128.466 80.9531Z" fill="black"/>
<path d="M141.892 79.7579C141.892 79.7579 138.931 82.1941 138.931 84.786C136.472 82.9841 133.157 78.0767 132.81 74.943C132.751 74.4144 133.174 73.9495 133.704 73.9179C133.981 73.9013 134.203 73.8662 134.362 73.8335C134.551 73.7944 134.743 73.8432 134.892 73.9656L141.892 79.7579Z" fill="#FAFAFA"/>
<path d="M141.895 79.7628C141.895 79.7628 144.6 81.1572 145.094 84.5949C147.585 82.7701 146.315 77.3231 144.928 74.6588C144.708 74.2371 144.291 73.9526 143.82 73.8981C143.455 73.8555 143.177 73.8073 142.995 73.7705C142.854 73.7423 142.722 73.8383 142.702 73.9802L141.895 79.7628Z" fill="#FAFAFA"/>
<path d="M135.454 64.75C135.971 67.3884 136.487 72.2223 134.641 73.9822C134.641 73.9822 137.08 77.2291 141.89 79.7653C145.548 76.8424 142.841 73.9822 142.841 73.9822C139.899 73.2795 139.975 71.0973 140.487 69.0472L135.454 64.75Z" fill="#FF8B7B"/>
<path opacity="0.2" d="M137.515 66.5L140.494 69.0419C140.371 69.5269 140.276 70.0193 140.242 70.4973C139.118 70.3347 137.35 69.3775 137.109 68.1554C136.994 67.5768 137.419 66.7735 137.515 66.5Z" fill="black"/>
<path d="M131.031 60.5021C132.251 64.7425 132.676 66.5639 135.338 68.2876C139.343 70.8807 144.284 68.4554 144.356 63.9358C144.421 59.8678 142.415 53.6164 137.827 52.8408C133.306 52.0772 129.811 56.2618 131.031 60.5021Z" fill="#FF8B7B"/>
<path d="M132.506 64.3342C135.06 61.7308 134.937 58.5132 134.176 57.506C136.509 57.3095 142.478 55.8357 141.348 53.5759C140.219 51.3161 130.688 50.0882 129.779 55.8845C126.832 58.4885 129.19 63.7447 132.506 64.3342Z" fill="#263238"/>
<path d="M138.141 60.123C138.218 60.4729 138.467 60.7154 138.696 60.6648C138.924 60.6137 139.047 60.2891 138.969 59.9392C138.892 59.5892 138.643 59.3468 138.414 59.3973C138.185 59.4479 138.063 59.7731 138.141 60.123Z" fill="#263238"/>
<path d="M142.098 59.2479C142.175 59.5979 142.424 59.8403 142.653 59.7898C142.881 59.7386 143.004 59.414 142.926 59.0641C142.849 58.7142 142.6 58.4717 142.371 58.5223C142.142 58.5728 142.019 58.8974 142.098 59.2479Z" fill="#263238"/>
<path d="M142.281 58.562L143.068 58.1328C143.068 58.1328 142.782 58.8855 142.281 58.562Z" fill="#263238"/>
<path d="M141.027 60.1484C141.027 60.1484 141.956 61.5233 142.771 62.1054C142.405 62.6397 141.575 62.6167 141.575 62.6167L141.027 60.1484Z" fill="#FF5652"/>
<path d="M139.963 64.4082C140.13 64.3973 140.304 64.3732 140.488 64.3324C140.545 64.3197 140.58 64.2634 140.568 64.2071C140.556 64.1502 140.499 64.1117 140.442 64.1273C138.905 64.4663 137.95 63.555 137.941 63.5458C137.899 63.505 137.833 63.5056 137.792 63.5475C137.751 63.5889 137.752 63.6561 137.794 63.6963C137.83 63.732 138.629 64.4961 139.963 64.4082Z" fill="#263238"/>
<path d="M130.756 64.7413C131.263 65.5026 132.074 65.9594 132.813 66.0955C133.925 66.3001 134.38 65.2808 133.986 64.2845C133.631 63.3876 132.624 62.2005 131.549 62.447C130.49 62.6895 130.176 63.8702 130.756 64.7413Z" fill="#FF8B7B"/>
<path d="M136.207 59.3563C136.295 59.3442 136.369 59.2776 136.386 59.1851C136.559 58.2261 137.693 57.6883 137.704 57.6831C137.81 57.6343 137.855 57.509 137.806 57.4033C137.757 57.2982 137.633 57.2516 137.527 57.301C137.471 57.3263 136.183 57.9382 135.972 59.1098C135.951 59.2241 136.027 59.3339 136.142 59.3546C136.164 59.3592 136.187 59.3592 136.207 59.3563Z" fill="#263238"/>
<path d="M142.888 56.4379C142.96 56.4413 143.032 56.408 143.074 56.3437C143.138 56.2466 143.111 56.1161 143.014 56.0518C142.041 55.4111 141.145 55.7886 141.108 55.8053C141.001 55.8518 140.952 55.9759 140.998 56.0822C141.045 56.1885 141.168 56.2368 141.275 56.1914C141.311 56.1759 142.01 55.8943 142.783 56.4034C142.815 56.4252 142.852 56.4367 142.888 56.4379Z" fill="#263238"/>
<path d="M138.324 59.4448L139.111 59.0156C139.111 59.0156 138.825 59.7683 138.324 59.4448Z" fill="#263238"/>
<path d="M129.906 100.886L129.444 102.502C129.381 102.627 129.529 102.755 129.738 102.755H148.323C148.485 102.755 148.62 102.675 148.63 102.573L148.794 100.957C148.805 100.845 148.664 100.75 148.486 100.75H130.2C130.066 100.75 129.947 100.805 129.906 100.886Z" fill="#407BFF"/>
<path opacity="0.2" d="M129.906 100.886L129.444 102.502C129.381 102.627 129.529 102.755 129.738 102.755H148.323C148.485 102.755 148.62 102.675 148.63 102.573L148.794 100.957C148.805 100.845 148.664 100.75 148.486 100.75H130.2C130.066 100.75 129.947 100.805 129.906 100.886Z" fill="white"/>
<path d="M132.417 102.941H131.927C131.83 102.941 131.755 102.891 131.762 102.83L131.992 100.729C131.999 100.668 132.084 100.617 132.182 100.617H132.671C132.769 100.617 132.843 100.667 132.836 100.729L132.606 102.83C132.6 102.891 132.514 102.941 132.417 102.941Z" fill="#407BFF"/>
<path opacity="0.4" d="M132.417 102.941H131.927C131.83 102.941 131.755 102.891 131.762 102.83L131.992 100.729C131.999 100.668 132.084 100.617 132.182 100.617H132.671C132.769 100.617 132.843 100.667 132.836 100.729L132.606 102.83C132.6 102.891 132.514 102.941 132.417 102.941Z" fill="black"/>
<path d="M146.952 102.941H146.462C146.364 102.941 146.29 102.891 146.297 102.83L146.527 100.729C146.534 100.668 146.619 100.617 146.717 100.617H147.206C147.304 100.617 147.378 100.667 147.371 100.729L147.141 102.83C147.134 102.891 147.049 102.941 146.952 102.941Z" fill="#407BFF"/>
<path opacity="0.4" d="M146.952 102.941H146.462C146.364 102.941 146.29 102.891 146.297 102.83L146.527 100.729C146.534 100.668 146.619 100.617 146.717 100.617H147.206C147.304 100.617 147.378 100.667 147.371 100.729L147.141 102.83C147.134 102.891 147.049 102.941 146.952 102.941Z" fill="black"/>
<path d="M139.713 102.941H139.224C139.126 102.941 139.052 102.891 139.059 102.83L139.289 100.729C139.296 100.668 139.381 100.617 139.478 100.617H139.968C140.065 100.617 140.14 100.667 140.133 100.729L139.903 102.83C139.896 102.891 139.811 102.941 139.713 102.941Z" fill="#407BFF"/>
<path opacity="0.4" d="M139.713 102.941H139.224C139.126 102.941 139.052 102.891 139.059 102.83L139.289 100.729C139.296 100.668 139.381 100.617 139.478 100.617H139.968C140.065 100.617 140.14 100.667 140.133 100.729L139.903 102.83C139.896 102.891 139.811 102.941 139.713 102.941Z" fill="black"/>
<path d="M129.385 80.8647C129.239 82.3959 129.047 83.9214 128.88 85.4504L128.299 90.0274C128.116 91.5541 127.879 93.075 127.669 94.5987L127.345 96.8832L127.24 97.6107C127.238 97.6693 127.255 97.7738 127.329 97.929C127.47 98.2427 127.839 98.6903 128.304 99.0936C128.771 99.5039 129.328 99.8975 129.92 100.266C131.103 101.018 132.431 101.658 133.779 102.278C135.132 102.891 136.53 103.447 137.948 103.963C139.355 104.502 140.809 104.986 142.227 105.451L141.727 107.646C138.606 107.139 135.585 106.4 132.561 105.383C131.048 104.879 129.557 104.27 128.068 103.498C127.327 103.105 126.589 102.658 125.86 102.103C125.141 101.535 124.393 100.88 123.794 99.8406C123.502 99.3217 123.26 98.6863 123.186 97.9778C123.174 97.8003 123.159 97.6222 123.165 97.4435C123.17 97.2809 123.187 97.0407 123.193 96.9832L123.243 96.4087L123.443 94.1109C123.582 92.5803 123.694 91.0462 123.86 89.5178L124.326 84.9304C124.508 83.4043 124.665 81.8754 124.868 80.3516L129.385 80.8647Z" fill="#FF8B7B"/>
<path d="M126.978 74.9902C125.169 75.5406 122.996 81.7696 122.996 81.7696L129.326 88.2876C129.326 88.2876 132.575 81.588 131.814 79.2495C131.023 76.8139 129.043 74.3622 126.978 74.9902Z" fill="#407BFF"/>
</g>
<g opacity="0.2" filter="url(#filter0_d_1308_32599)">
<path d="M111.576 80.9079C107.458 65.63 116.504 49.9028 131.786 45.7837C147.068 41.6645 162.792 50.7153 166.91 65.9932C171.029 81.2752 161.983 97.0018 146.701 101.121C131.42 105.24 115.695 96.1898 111.576 80.9079Z" fill="#407BFF"/>
</g>
<path opacity="0.2" d="M160.013 53.7065L136.416 101.971C138.409 102.172 140.45 102.166 142.5 101.919L163.719 58.5386C162.651 56.7862 161.41 55.1659 160.013 53.7065ZM166.908 65.9909C166.857 65.807 166.805 65.6174 166.753 65.4335L149.809 100.092C163.185 94.8058 170.741 80.2058 166.908 65.9909ZM131.784 45.7831C116.507 49.9028 107.457 65.6289 111.577 80.9068C113.099 86.5606 116.214 91.3583 120.305 94.9552L144.592 45.2947C140.466 44.5075 136.111 44.6167 131.784 45.7831Z" fill="white"/>
<path d="M107.002 70.3444L106.43 70.2892C106.524 69.3055 106.665 68.3167 106.848 67.3514L107.413 67.4588C107.233 68.4075 107.095 69.3779 107.002 70.3444ZM108.117 64.5107L107.564 64.351C108.3 61.8102 109.35 59.3453 110.685 57.0234L111.184 57.3101C109.871 59.5918 108.839 62.0142 108.117 64.5107Z" fill="#407BFF"/>
<g filter="url(#filter1_d_1308_32599)">
<path d="M169.102 65.4077C164.656 48.9116 147.678 39.1427 131.182 43.5894C114.686 48.0354 104.917 65.0135 109.363 81.5095C113.811 98.0078 130.789 107.777 147.284 103.331C163.78 98.8846 173.549 81.9066 169.102 65.4077ZM111.566 80.9154C107.448 65.6375 116.494 49.9102 131.775 45.7911C147.057 41.672 162.782 50.7227 166.9 66.0006C171.019 81.2826 161.973 97.0092 146.691 101.128C131.409 105.247 115.685 96.1974 111.566 80.9154Z" fill="#407BFF"/>
</g>
<g filter="url(#filter2_d_1308_32599)">
<path d="M112.029 85.6476C112.012 86.9674 111.686 87.1369 111.325 87.1805L110.283 87.4558L108.198 88.0062L104.028 89.1077L95.6705 91.2525C90.092 92.6539 84.502 94.0151 78.9045 95.347L62.1143 99.3512L53.7289 101.389C50.9376 102.083 48.132 102.724 45.3712 103.532C44.1916 103.877 42.9556 103.201 42.6098 102.021C42.2644 100.841 42.9407 99.6046 44.1203 99.2592C44.1485 99.2512 44.1847 99.2414 44.2128 99.2345C47.0052 98.5456 49.7529 97.6895 52.5148 96.8862L60.7887 94.434L77.3175 89.4576C82.8259 87.7959 88.3424 86.1635 93.8704 84.5714L102.173 82.226L106.332 81.0826L108.412 80.5109L109.451 80.2248C109.785 80.0811 110.153 80.0639 110.83 81.1964C111.659 82.5817 112.043 84.1433 112.029 85.6476Z" fill="#407BFF"/>
</g>
<path d="M75.8789 42.7716C75.8784 43.1123 76.0588 43.3881 76.2811 43.3887C76.5035 43.3887 76.6845 43.1129 76.6845 42.7728C76.6851 42.4326 76.5046 42.1563 76.2817 42.1563C76.0593 42.1551 75.8789 42.4309 75.8789 42.7716Z" fill="#263238"/>
<path d="M76.0302 43.3906C76.0302 43.3906 76.8024 45.3556 77.6539 46.3037C77.0512 46.8656 76.0273 46.6076 76.0273 46.6076L76.0302 43.3906Z" fill="#D95D75"/>
<path d="M74.6768 40.8893C74.6148 40.8893 74.5533 40.8606 74.5142 40.806C74.4499 40.7164 74.47 40.5917 74.5596 40.5268C75.4577 39.8804 76.3218 40.2044 76.3586 40.2188C76.4615 40.259 76.5126 40.3745 76.4724 40.4773C76.4327 40.5802 76.3155 40.6302 76.215 40.5917C76.1868 40.5808 75.51 40.3354 74.7929 40.8508C74.7579 40.8772 74.7171 40.8893 74.6768 40.8893Z" fill="#263238"/>
<path d="M64.9261 44.9844C65.2255 48.3112 65.2714 54.3598 62.918 56.3426C62.918 56.3426 63.4506 59.7383 69.1642 60.2681C75.4466 60.8507 72.4743 57.2292 72.4743 57.2292C69.1263 56.0404 69.4658 53.3422 70.299 50.8566L64.9261 44.9844Z" fill="#E0A5A3"/>
<path d="M54.995 57.4153C51.3338 59.1678 49.8008 70.9557 49.8008 70.9557L58.2189 74.2572C58.2189 74.2572 60.2322 69.4889 61.3831 64.401C62.5885 59.0707 58.7383 55.6238 54.995 57.4153Z" fill="#407BFF"/>
<path opacity="0.3" d="M54.995 57.4153C51.3338 59.1678 49.8008 70.9557 49.8008 70.9557L58.2189 74.2572C58.2189 74.2572 60.2322 69.4889 61.3831 64.401C62.5885 59.0707 58.7383 55.6238 54.995 57.4153Z" fill="black"/>
<path opacity="0.2" d="M60.442 60.8822C60.7408 60.7386 61.0395 60.6294 61.3383 60.5547C61.6543 61.6579 61.7003 62.9621 61.3728 64.4043C60.2237 69.4893 58.2126 74.2583 58.2126 74.2583L55.4375 73.1723C55.9488 70.0869 57.5174 62.2842 60.442 60.8822Z" fill="black"/>
<path d="M79.4011 57.3206C79.4011 57.3206 83.8937 62.3953 79.6511 93.8044C72.8487 93.8044 60.3844 93.8044 57.0743 93.8044C56.9186 90.3386 59.0962 73.4323 55.7539 57.1029C55.7539 57.1029 59.6237 56.3261 63.3113 56.1485C66.1962 56.0095 70.3728 55.9175 72.9084 56.1491C76.2519 56.4542 79.4011 57.3206 79.4011 57.3206Z" fill="#407BFF"/>
<path opacity="0.3" d="M79.4011 57.3206C79.4011 57.3206 83.8937 62.3953 79.6511 93.8044C72.8487 93.8044 60.3844 93.8044 57.0743 93.8044C56.9186 90.3386 59.0962 73.4323 55.7539 57.1029C55.7539 57.1029 59.6237 56.3261 63.3113 56.1485C66.1962 56.0095 70.3728 55.9175 72.9084 56.1491C76.2519 56.4542 79.4011 57.3206 79.4011 57.3206Z" fill="black"/>
<path opacity="0.2" d="M74.8556 64.0492C75.8783 60.981 78.3375 59.9985 80.8426 61.8199C81.3482 64.7962 81.7045 69.5939 81.2965 77.2012L76.8895 77.161C76.8895 77.161 73.3329 68.6171 74.8556 64.0492Z" fill="black"/>
<path d="M82.0063 61.9609C82.2212 63.2721 82.4614 64.7086 82.736 66.0766C83.0181 67.4567 83.2974 68.8369 83.6289 70.1952C84.2747 72.9106 85.0354 75.5944 86.0513 78.0128C86.3053 78.6127 86.5736 79.1959 86.8626 79.7423L87.2401 80.4174C87.2935 80.5289 87.4211 80.6829 87.5653 80.8437C88.191 81.5304 89.3051 82.2411 90.4485 82.8777C92.7859 84.1378 95.4766 85.2369 98.099 86.2436L97.4687 89.3497C94.3861 89.1027 91.4339 88.5654 88.4047 87.499C87.6492 87.2255 86.8873 86.9187 86.1248 86.5251C85.3607 86.1321 84.5838 85.6788 83.7972 85.0404C83.4065 84.7049 83.0141 84.34 82.6366 83.8603L82.3585 83.4954L82.1798 83.2282C82.0632 83.0501 81.9391 82.8714 81.8299 82.6927C81.3817 81.9768 80.9876 81.2563 80.6198 80.5335C79.1972 77.6342 78.2308 74.7056 77.435 71.7603C77.0489 70.2854 76.6955 68.8104 76.4105 67.3234C76.1204 65.8244 75.8555 64.3805 75.6641 62.7969L82.0063 61.9609Z" fill="#E0A5A3"/>
<path d="M73.759 60.3974C72.5697 64.2539 77.3927 75.7483 77.3927 75.7483L87.5603 73.1914C87.5603 73.1914 86.6272 67.3618 84.4392 62.6216C81.1394 55.4704 75.1863 55.7692 73.759 60.3974Z" fill="#407BFF"/>
<path opacity="0.3" d="M73.759 60.3974C72.5697 64.2539 77.3927 75.7483 77.3927 75.7483L87.5603 73.1914C87.5603 73.1914 86.6272 67.3618 84.4392 62.6216C81.1394 55.4704 75.1863 55.7692 73.759 60.3974Z" fill="black"/>
<path d="M98.1644 86.2489L102.524 88.2111L98.3006 91.6982C98.3006 91.6982 96.4355 91.0897 96.1315 88.0307L95.4805 85.4922L97.3962 85.9806C97.6599 86.0473 97.9167 86.1375 98.1644 86.2489Z" fill="#E0A5A3"/>
<path d="M104.837 90.3506L100.587 92.881L98.293 91.6974L102.517 88.2109L104.837 90.3506Z" fill="#E0A5A3"/>
<path d="M74.8204 55.7754C72.999 54.2356 68.5765 53.1284 63.6208 52.8514C60.7921 52.694 57.8814 53.1583 56.6656 53.6995C55.4492 54.2402 56.8862 58.1438 58.4732 58.2277C57.6366 59.5475 58.8541 62.0986 60.6744 62.5985C60.3859 64.8054 65.949 65.0111 69.3154 63.2323C71.9963 61.8154 77.0032 57.621 74.8204 55.7754Z" fill="#263238"/>
<path d="M64.5268 42.0424C64.7802 46.2241 64.7158 48.6844 66.8256 50.8322C69.9996 54.063 75.1627 52.1526 76.1636 47.98C77.0645 44.224 76.4992 38.017 72.4076 36.3496C68.377 34.7063 64.2734 37.8606 64.5268 42.0424Z" fill="#E0A5A3"/>
<path d="M72.3529 44.3659C73.9278 42.7697 76.5278 39.2907 75.6194 36.6729C74.2789 32.8106 70.2885 34.1189 70.9268 34.8854C68.6072 33.3691 63.9842 33.2973 64.9576 35.3324C60.7758 35.907 60.4397 37.5991 61.5974 38.2375C58.6212 41.0782 58.7648 44.0148 61.0217 43.7919C59.3078 45.5156 62.4679 48.9309 66.0113 50.5592C67.2243 47.3979 73.683 46.821 72.3529 44.3659Z" fill="#263238"/>
<path d="M70.5246 45.8811C70.4964 45.8811 70.4683 45.873 70.4436 45.8564C70.3781 45.8115 70.3608 45.7225 70.4056 45.657C71.3152 44.3205 72.2012 43.2518 72.9826 42.3084C74.4771 40.5059 75.5567 39.2039 75.6486 37.4302C75.7233 35.9967 74.881 34.7418 73.3957 34.073C72.3259 33.5909 71.1773 33.5622 70.7245 34.0069C70.4838 34.2431 70.4614 34.5947 70.6567 35.0521C70.6883 35.125 70.6544 35.2089 70.5814 35.2405C70.5085 35.271 70.424 35.2382 70.393 35.1647C70.085 34.4465 70.2942 34.027 70.524 33.8018C71.0652 33.2709 72.3224 33.2749 73.5146 33.811C75.1114 34.5309 76.0169 35.8892 75.9365 37.4452C75.8394 39.3143 74.7339 40.6473 73.2044 42.4917C72.4264 43.4299 71.545 44.4929 70.6441 45.8184C70.6154 45.8592 70.5705 45.8811 70.5246 45.8811Z" fill="#263238"/>
<path d="M70.7192 43.8894C70.7847 44.9845 71.2938 46.0153 71.9057 46.6887C72.8262 47.7023 73.7863 47.0708 73.9489 45.836C74.0954 44.7248 73.7932 42.858 72.6682 42.299C71.5593 41.7491 70.644 42.6368 70.7192 43.8894Z" fill="#E0A5A3"/>
<path d="M71.6393 93.8125C71.6393 93.8125 73.0642 122.268 70.2902 134.321C65.897 153.412 57.4875 175.545 57.4875 175.545L49.6641 174.072C49.6641 174.072 56.2545 151.903 57.6834 136.014C58.967 121.739 57.0709 105.344 57.0709 93.8131C62.33 93.8125 71.6393 93.8125 71.6393 93.8125Z" fill="#263238"/>
<path opacity="0.2" d="M69.517 102.241C70.1043 101.13 71.212 104.435 71.9935 108.676C72.0164 114.525 71.89 121.178 71.3787 126.815C67.4727 119.604 68.303 104.538 69.517 102.241Z" fill="black"/>
<path d="M79.6454 93.8125C79.6454 93.8125 86.0031 120.761 86.4506 133.633C86.9528 148.069 81.9144 182.12 81.9144 182.12H74.7644C74.7644 182.12 73.8841 147.804 73.5658 134.655C73.2188 120.32 64.8047 93.8125 64.8047 93.8125H79.6454Z" fill="#263238"/>
</g>
<defs>
<filter id="filter0_d_1308_32599" x="68.0636" y="2.27066" width="142.361" height="142.365" filterUnits="userSpaceOnUse" color-interpolation-filters="sRGB">
<feFlood flood-opacity="0" result="BackgroundImageFix"/>
<feColorMatrix in="SourceAlpha" type="matrix" values="0 0 0 0 0 0 0 0 0 0 0 0 0 0 0 0 0 0 127 0" result="hardAlpha"/>
<feOffset/>
<feGaussianBlur stdDeviation="21.2592"/>
<feColorMatrix type="matrix" values="0 0 0 0 0.141176 0 0 0 0 0.372549 0 0 0 0 1 0 0 0 0.68 0"/>
<feBlend mode="normal" in2="BackgroundImageFix" result="effect1_dropShadow_1308_32599"/>
<feBlend mode="normal" in="SourceGraphic" in2="effect1_dropShadow_1308_32599" result="shape"/>
</filter>
<filter id="filter1_d_1308_32599" x="83.8891" y="18.1156" width="110.687" height="110.691" filterUnits="userSpaceOnUse" color-interpolation-filters="sRGB">
<feFlood flood-opacity="0" result="BackgroundImageFix"/>
<feColorMatrix in="SourceAlpha" type="matrix" values="0 0 0 0 0 0 0 0 0 0 0 0 0 0 0 0 0 0 127 0" result="hardAlpha"/>
<feOffset/>
<feGaussianBlur stdDeviation="12.2"/>
<feComposite in2="hardAlpha" operator="out"/>
<feColorMatrix type="matrix" values="0 0 0 0 0.25098 0 0 0 0 0.482353 0 0 0 0 1 0 0 0 1 0"/>
<feBlend mode="normal" in2="BackgroundImageFix" result="effect1_dropShadow_1308_32599"/>
<feBlend mode="normal" in="SourceGraphic" in2="effect1_dropShadow_1308_32599" result="shape"/>
</filter>
<filter id="filter2_d_1308_32599" x="18.1195" y="55.7563" width="118.312" height="72.2687" filterUnits="userSpaceOnUse" color-interpolation-filters="sRGB">
<feFlood flood-opacity="0" result="BackgroundImageFix"/>
<feColorMatrix in="SourceAlpha" type="matrix" values="0 0 0 0 0 0 0 0 0 0 0 0 0 0 0 0 0 0 127 0" result="hardAlpha"/>
<feOffset/>
<feGaussianBlur stdDeviation="12.2"/>
<feComposite in2="hardAlpha" operator="out"/>
<feColorMatrix type="matrix" values="0 0 0 0 0.25098 0 0 0 0 0.482353 0 0 0 0 1 0 0 0 1 0"/>
<feBlend mode="normal" in2="BackgroundImageFix" result="effect1_dropShadow_1308_32599"/>
<feBlend mode="normal" in="SourceGraphic" in2="effect1_dropShadow_1308_32599" result="shape"/>
</filter>
<clipPath id="clip0_1308_32599">
<rect width="213" height="165" fill="white"/>
</clipPath>
<clipPath id="clip1_1308_32599">
<rect width="100" height="156" fill="white" transform="translate(113 5)"/>
</clipPath>
</defs>
</svg>
