<svg width="111" height="212" viewBox="0 0 111 212" fill="none" xmlns="http://www.w3.org/2000/svg">
<path d="M101.804 228.956H0L35.24 6.10352e-05H66.5638L101.804 228.956Z" fill="url(#paint0_linear_826_11551)"/>
<path d="M66.8576 210.21H60.4971V218.337H66.8576V210.21Z" fill="#80211A"/>
<path d="M42.3352 211.096L37.1014 216.451C37.1014 216.451 30.0425 215.112 29.3121 218.885C31.2595 218.885 47.9338 218.885 47.9338 218.885C47.9338 218.885 48.7858 214.139 46.8385 211.096C44.8912 208.053 42.3352 211.096 42.3352 211.096Z" fill="#80211A"/>
<path d="M39.2118 152.677C39.2118 152.677 37.2645 209.883 40.3071 212.561C38.6031 213.9 42.7415 215.117 47.6098 215.239C52.4781 215.36 49.5571 152.799 49.5571 152.799L39.2118 152.677Z" fill="#510C0B"/>
<path d="M51.875 154.382C52.362 161.44 58.569 212.075 59.9076 213.657C59.1773 215.605 58.8123 215.483 59.6643 215.726C60.5163 215.969 67.6974 215.361 68.5489 215.239C69.401 215.117 67.9402 213.292 67.4536 213.17C68.0623 211.466 63.6806 155.842 62.3416 152.069C61.0034 148.296 51.875 154.382 51.875 154.382Z" fill="#510C0B"/>
<path d="M61.1175 161.807L42.7391 162.293L43.2262 149.149L57.3445 148.662L61.1175 161.807Z" fill="#510C0B"/>
<path opacity="0.5" d="M39.2097 152.748C39.1404 154.916 37.3215 209.94 40.3072 212.567C39.2293 213.414 40.491 214.212 42.7947 214.715C46.6375 208.521 44.0223 152.804 44.0223 152.804L39.2097 152.748Z" fill="#510C0B"/>
<path opacity="0.5" d="M67.4482 213.17C68.0569 211.466 63.6752 155.842 62.3362 152.069C61.6735 150.2 59.1008 150.75 56.672 151.78C56.7205 151.869 56.7643 151.964 56.8013 152.069C58.1399 155.842 62.5216 211.466 61.9129 213.17C62.4 213.292 63.8603 215.117 63.0083 215.239C62.6297 215.293 61.0005 215.443 59.2323 215.573C59.3059 215.627 59.4433 215.665 59.6581 215.726C60.5101 215.969 67.6907 215.361 68.5431 215.239C69.3956 215.117 67.9349 213.292 67.4482 213.17Z" fill="#510C0B"/>
<path opacity="0.5" d="M62.3366 152.07C61.8023 150.564 60.0285 150.629 58.0893 151.249L57.3466 148.662L43.2282 149.149L43.096 152.724L39.2119 152.679C39.2119 152.679 39.1749 153.815 39.1196 155.778C41.9134 156.643 48.4658 157.871 48.4658 157.871L49.6343 156.595L50.7543 158.365C50.7543 158.365 59.7116 158.335 63.2056 157.844C62.8576 154.777 62.5561 152.688 62.3366 152.07Z" fill="#510C0B"/>
<path d="M53.2842 112.742C50.712 112.742 48.6268 110.657 48.6268 108.085V100.667H57.9415V108.085C57.9415 110.657 55.8564 112.742 53.2842 112.742Z" fill="#F6AB7D"/>
<path opacity="0.5" d="M56.0589 100.667V108.085C56.0589 110.335 54.4629 112.213 52.3412 112.648C52.6449 112.71 52.9592 112.742 53.2812 112.742C55.8534 112.742 57.9386 110.657 57.9386 108.085V100.667H56.0589Z" fill="#F36449"/>
<path opacity="0.3" d="M49.9161 111.3C50.7145 110.464 51.2058 109.332 51.2058 108.085V100.667H48.6268V108.085C48.6268 109.332 49.1181 110.464 49.9161 111.3Z" fill="#F6AB7D"/>
<path opacity="0.5" d="M48.6268 104.23C50.2602 105.92 52.5496 106.973 55.0856 106.973C56.0844 106.973 57.044 106.808 57.9415 106.507V100.667H48.6268V104.23Z" fill="#F36449"/>
<path d="M53.2877 105.328C48.3258 105.328 44.304 101.305 44.304 96.344V90.0124C44.304 85.051 48.3262 81.0287 53.2877 81.0287C58.2492 81.0287 62.2714 85.051 62.2714 90.0124V96.344C62.2719 101.305 58.2496 105.328 53.2877 105.328Z" fill="#F6AB7D"/>
<path opacity="0.5" d="M53.2756 81.0287C52.7409 81.0287 52.2181 81.078 51.709 81.1678C55.9235 81.9092 59.1265 85.5856 59.1265 90.0129V96.3444C59.1265 100.772 55.9235 104.448 51.709 105.19C52.2177 105.279 52.7409 105.329 53.2756 105.329C58.2371 105.329 62.2593 101.306 62.2593 96.3449V90.0133C62.2598 85.051 58.2375 81.0287 53.2756 81.0287Z" fill="#F36449"/>
<path opacity="0.3" d="M44.304 90.0205V96.352C44.304 99.1595 45.5924 101.665 47.6095 103.313C49.6266 101.665 50.915 99.1595 50.915 96.352V90.0205C50.915 87.213 49.6266 84.7072 47.6095 83.0598C45.5924 84.7068 44.304 87.213 44.304 90.0205Z" fill="#F6AB7D"/>
<path opacity="0.2" d="M62.2714 96.3469V90.0153C62.2714 88.8128 62.0332 87.6664 61.6049 86.6183L61.0625 86.5605L60.0655 97.0147C59.9511 98.2134 58.9442 99.1288 57.74 99.1288C57.74 97.7961 48.8354 97.7961 48.8354 99.1288C47.6312 99.1288 46.6243 98.2134 46.5099 97.0147L45.5128 86.5605L44.9705 86.6183C44.5417 87.6664 44.304 88.8128 44.304 90.0153V96.3469C44.304 101.308 48.3262 105.331 53.2877 105.331C58.2492 105.331 62.2714 101.308 62.2714 96.3469Z" fill="#5F140F"/>
<path d="M54.3556 89.5303C51.6549 86.0427 50.187 82.3548 50.3273 79.9302C50.3307 79.9344 50.3341 79.9383 50.3375 79.9425L54.8907 84.4246C56.2706 86.2065 56.1965 88.8663 56.0787 90.9523C55.459 90.6571 54.8711 90.196 54.3556 89.5303Z" fill="#5F140F"/>
<path d="M59.5724 83.398C59.5724 87.809 60.6698 91.6237 62.2654 93.4545C62.2654 93.4489 62.2658 93.4438 62.2658 93.4383L63.1216 87.1067C63.1216 84.8531 61.4346 82.7956 60.0641 81.2184C59.7544 81.8313 59.5724 82.5557 59.5724 83.398Z" fill="#5F140F"/>
<path opacity="0.5" d="M59.5724 83.398C59.5724 87.809 60.6698 91.6237 62.2654 93.4545C62.2654 93.4489 62.2658 93.4438 62.2658 93.4383L63.1216 87.1067C63.1216 84.8531 61.4346 82.7956 60.0641 81.2184C59.7544 81.8313 59.5724 82.5557 59.5724 83.398Z" fill="#5F140F"/>
<path d="M46.9997 83.398C46.9997 87.809 45.9023 91.6237 44.3067 93.4545C44.3067 93.4489 44.3063 93.4438 44.3063 93.4383L43.4504 87.1067C43.4504 84.8531 45.1374 82.7956 46.508 81.2184C46.8172 81.8313 46.9997 82.5557 46.9997 83.398Z" fill="#5F140F"/>
<path d="M53.3451 82.1746C50.9728 84.6336 48.0191 86.0097 45.3537 86.1509C44.5489 86.1935 44.0325 85.3006 44.4549 84.6145C44.4571 84.6107 44.4583 84.6085 44.4583 84.6085L46.7864 80.75C48.2751 79.2072 51.5875 79.6824 54.2158 80.1328C54.169 80.8985 53.9015 81.5978 53.3451 82.1746Z" fill="#5F140F"/>
<path opacity="0.5" d="M46.9997 83.398C46.9997 87.809 45.9023 91.6237 44.3067 93.4545C44.3067 93.4489 44.3063 93.4438 44.3063 93.4383L43.4504 87.1067C43.4504 84.8531 45.1374 82.7956 46.508 81.2184C46.8172 81.8313 46.9997 82.5557 46.9997 83.398Z" fill="#510C0B"/>
<path d="M53.6355 101.109H52.9247C52.3053 101.109 51.8038 100.607 51.8038 99.9878H54.7567C54.7563 100.607 54.2544 101.109 53.6355 101.109Z" fill="white"/>
<path opacity="0.5" d="M54.6156 96.368C54.6156 96.8419 54.0231 97.226 53.2927 97.226C52.562 97.226 51.9698 96.8419 51.9698 96.368C51.9698 95.8942 54.6156 95.8942 54.6156 96.368Z" fill="#F36449"/>
<path d="M57.0692 94.9055C57.3363 94.9055 57.5532 94.689 57.5532 94.4215V93.1849C57.5532 92.9178 57.3367 92.7013 57.0692 92.7013C56.802 92.7013 56.5851 92.9178 56.5851 93.1849V94.4215C56.5855 94.6886 56.802 94.9055 57.0692 94.9055Z" fill="#2C0107"/>
<path d="M49.506 94.9055C49.7732 94.9055 49.9897 94.689 49.9897 94.4215V93.1849C49.9897 92.9178 49.7732 92.7013 49.506 92.7013C49.2389 92.7013 49.022 92.9178 49.022 93.1849V94.4215C49.022 94.6886 49.2389 94.9055 49.506 94.9055Z" fill="#2C0107"/>
<path d="M52.6583 88.2457C55.0637 88.2457 57.0136 86.2957 57.0136 83.8904C57.0136 81.485 55.0637 79.535 52.6583 79.535C50.2529 79.535 48.303 81.485 48.303 83.8904C48.303 86.2957 50.2529 88.2457 52.6583 88.2457Z" fill="#5F140F"/>
<path d="M59.7439 90.1042C64.2337 90.1042 67.8735 86.4644 67.8735 81.9746C67.8735 77.4847 64.2337 73.845 59.7439 73.845C55.254 73.845 51.6143 77.4847 51.6143 81.9746C51.6143 86.4644 55.254 90.1042 59.7439 90.1042Z" fill="#5F140F"/>
<path opacity="0.5" d="M59.7481 73.845C59.1195 73.845 58.5082 73.9186 57.9208 74.0538C61.53 74.8833 64.223 78.1135 64.223 81.9746C64.223 85.8356 61.5304 89.0659 57.9208 89.8953C58.5086 90.0306 59.1195 90.1042 59.7481 90.1042C64.2383 90.1042 67.8778 86.4643 67.8778 81.9746C67.8782 77.4848 64.2383 73.845 59.7481 73.845Z" fill="#5F140F"/>
<path d="M63.7381 99.7287C65.4495 99.7287 66.8369 98.3413 66.8369 96.6299C66.8369 94.9185 65.4495 93.5311 63.7381 93.5311C62.0267 93.5311 60.6393 94.9185 60.6393 96.6299C60.6393 98.3413 62.0267 99.7287 63.7381 99.7287Z" fill="#F6AB7D"/>
<path opacity="0.5" d="M63.7381 99.7287C65.4495 99.7287 66.8369 98.3413 66.8369 96.6299C66.8369 94.9185 65.4495 93.5311 63.7381 93.5311C62.0267 93.5311 60.6393 94.9185 60.6393 96.6299C60.6393 98.3413 62.0267 99.7287 63.7381 99.7287Z" fill="#F36449"/>
<g opacity="0.5">
<path d="M64.6607 94.8937C64.1222 95.0133 63.6615 95.2459 63.3059 95.6049C62.9477 95.961 62.7151 96.4212 62.5947 96.9597C62.4709 96.4144 62.6831 95.8002 63.0936 95.3931C63.5016 94.9826 64.1154 94.7704 64.6607 94.8937Z" fill="#F36449"/>
</g>
<path d="M42.8349 99.7287C44.5463 99.7287 45.9337 98.3413 45.9337 96.6299C45.9337 94.9185 44.5463 93.5311 42.8349 93.5311C41.1235 93.5311 39.7361 94.9185 39.7361 96.6299C39.7361 98.3413 41.1235 99.7287 42.8349 99.7287Z" fill="#F6AB7D"/>
<path opacity="0.3" d="M42.8349 99.7287C44.5463 99.7287 45.9337 98.3413 45.9337 96.6299C45.9337 94.9185 44.5463 93.5311 42.8349 93.5311C41.1235 93.5311 39.7361 94.9185 39.7361 96.6299C39.7361 98.3413 41.1235 99.7287 42.8349 99.7287Z" fill="#F6AB7D"/>
<g opacity="0.5">
<path d="M41.9094 94.8936C42.4547 94.7706 43.0685 94.9825 43.476 95.3925C43.8865 95.7996 44.0992 96.4143 43.975 96.9592C43.8546 96.4206 43.6224 95.9604 43.2638 95.6044C42.909 95.2458 42.4479 95.0131 41.9094 94.8936Z" fill="#F36449"/>
</g>
<path d="M49.568 107.645C43.906 108.129 39.8314 109.228 38.8577 110.81C37.884 112.392 36.7887 154.017 38.0057 154.747C39.2227 155.478 48.5943 156.694 48.5943 156.694L49.6897 155.356L50.9066 157.06C50.9066 157.06 63.1993 156.33 64.5379 155.478C65.3899 154.869 63.8076 110.566 63.5643 110.201C63.3214 109.836 59.5484 106.793 49.568 107.645Z" fill="#510C0B"/>
<g opacity="0.5">
<path d="M63.5656 110.201C63.3278 109.844 59.7199 106.932 50.2469 107.593C55.8665 108.044 58.1562 109.919 58.3442 110.201C58.5875 110.566 60.1699 154.868 59.3179 155.477C58.5544 155.962 54.2301 156.409 50.6532 156.703L50.908 157.059C50.908 157.059 63.2006 156.329 64.5393 155.477C65.3913 154.868 63.8093 110.566 63.5656 110.201Z" fill="#510C0B"/>
</g>
<path opacity="0.5" d="M64.6824 142.053C64.6374 139.759 64.5786 137.313 64.5119 134.835C62.9031 133.812 55.8238 131.374 52.5846 130.543C49.0677 129.64 46.7307 135.863 47.8783 136.744C48.8218 137.468 59.1382 143.319 64.6824 142.053Z" fill="#510C0B"/>
<path opacity="0.5" d="M38.8577 110.809C37.884 112.391 36.7887 154.016 38.0057 154.746C38.5349 155.064 40.6051 155.473 42.7766 155.835C43.353 155.719 43.7728 155.599 43.9655 155.477C44.8175 154.868 43.2352 110.566 42.9918 110.201C42.9089 110.077 42.4159 109.641 41.4082 109.155C40.1291 109.624 39.2461 110.178 38.8577 110.809Z" fill="#510C0B"/>
<path d="M62.2573 109.495C62.2573 109.495 67.9627 110.363 69.0789 113.96C70.1951 117.557 70.443 131.572 67.7147 137.897C66.8878 139.814 64.8533 140.535 62.3849 140.588C61.5618 140.605 62.2573 109.495 62.2573 109.495Z" fill="#510C0B"/>
<path opacity="0.5" d="M62.2573 109.495C62.2573 109.495 67.9627 110.363 69.0789 113.96C70.1951 117.557 70.443 131.572 67.7147 137.897C66.8878 139.814 64.8533 140.535 62.3849 140.588C61.5618 140.605 62.2573 109.495 62.2573 109.495Z" fill="#510C0B"/>
<path d="M47.403 107.511C47.403 107.511 45.1643 112.891 44.864 114.951C45.6607 116.21 46.2694 116.21 46.2694 116.21L44.6279 119.072L52.3675 132.577L47.403 107.511Z" fill="#80211A"/>
<path d="M52.3663 132.569L47.4019 107.503L59.0518 107.274C58.1092 116.795 56.0266 125.35 52.3663 132.569Z" fill="white"/>
<path d="M52.365 132.57C56.0253 125.351 58.1079 116.795 59.0509 107.274C59.0509 107.274 61.3972 114.828 61.7073 116.087C62.0174 117.347 59.5124 117.69 59.5124 117.69L61.6444 120.551C61.6444 120.551 56.235 128.335 52.365 132.57Z" fill="#80211A"/>
<path d="M46.3747 131C46.4912 130.55 46.2207 130.09 45.7702 129.973L42.7655 129.216C42.315 129.1 41.8552 129.37 41.7386 129.821C41.6221 130.271 41.8926 130.731 42.3431 130.847L45.3479 131.605C45.7983 131.721 46.2581 131.45 46.3747 131Z" fill="#F6AB7D"/>
<path d="M47.0069 135.908C47.1234 135.457 46.8529 134.998 46.4024 134.881L43.3977 134.124C42.9472 134.007 42.4874 134.278 42.3708 134.728C42.2543 135.179 42.5248 135.639 42.9753 135.755L45.9801 136.512C46.4305 136.629 46.8899 136.358 47.0069 135.908Z" fill="#F6AB7D"/>
<path d="M46.2719 134.169C46.3885 133.719 46.1179 133.259 45.6675 133.142L42.6627 132.385C42.2122 132.269 41.7524 132.539 41.6358 132.99C41.5193 133.44 41.7898 133.9 42.2403 134.017L45.2451 134.774C45.6955 134.89 46.1554 134.62 46.2719 134.169Z" fill="#F6AB7D"/>
<path d="M46.2482 132.676C46.3648 132.225 46.0942 131.765 45.6438 131.649L42.639 130.892C42.1885 130.775 41.7287 131.046 41.6122 131.496C41.4956 131.946 41.7661 132.406 42.2166 132.523L45.2214 133.28C45.6719 133.397 46.1317 133.126 46.2482 132.676Z" fill="#F6AB7D"/>
<path d="M45.8993 136.514C47.7816 137.002 49.7029 135.871 50.1908 133.989C50.6783 132.107 49.5477 130.185 47.6654 129.698C45.7828 129.21 43.8618 130.341 43.3739 132.223C42.8864 134.105 44.0171 136.027 45.8993 136.514Z" fill="#F6AB7D"/>
<path d="M47.9444 130.955C48.1681 130.46 47.9482 129.877 47.4531 129.653L44.8715 128.486C44.3764 128.263 43.7932 128.483 43.5695 128.978C43.3457 129.473 43.5656 130.056 44.0608 130.28L46.6423 131.446C47.1375 131.67 47.7202 131.45 47.9444 130.955Z" fill="#F6AB7D"/>
<path d="M59.511 129.672C59.3673 129.23 59.6097 128.754 60.0521 128.611L63.0054 127.674C63.4478 127.53 63.9234 127.772 64.0667 128.215C64.2105 128.657 63.968 129.133 63.5256 129.276L60.5723 130.213C60.1299 130.357 59.6548 130.115 59.511 129.672Z" fill="#F6AB7D"/>
<path d="M58.896 134.549C58.7794 134.098 59.0499 133.638 59.5004 133.522L62.5052 132.765C62.9557 132.648 63.4155 132.919 63.532 133.369C63.6486 133.82 63.3781 134.279 62.9276 134.396L59.9228 135.153C59.4723 135.27 59.0125 134.999 58.896 134.549Z" fill="#F6AB7D"/>
<path d="M59.6152 132.818C59.4987 132.367 59.7692 131.908 60.2196 131.791L63.2244 131.034C63.6749 130.917 64.1347 131.188 64.2513 131.638C64.3678 132.089 64.0973 132.549 63.6468 132.665L60.642 133.422C60.1916 133.539 59.7318 133.268 59.6152 132.818Z" fill="#F6AB7D"/>
<path d="M59.6546 131.308C59.5381 130.858 59.8086 130.398 60.2591 130.282L63.2639 129.524C63.7143 129.408 64.1742 129.678 64.2907 130.129C64.4073 130.579 64.1367 131.039 63.6863 131.156L60.6815 131.913C60.231 132.029 59.7712 131.759 59.6546 131.308Z" fill="#F6AB7D"/>
<path d="M59.9783 135.147C58.0961 135.635 56.1747 134.504 55.6868 132.622C55.1993 130.74 56.3299 128.818 58.2122 128.33C60.0944 127.843 62.0158 128.973 62.5037 130.856C62.9916 132.738 61.861 134.66 59.9783 135.147Z" fill="#F6AB7D"/>
<path d="M58.1644 129.708C57.8165 129.29 57.8735 128.669 58.2908 128.322L60.4678 126.509C60.8855 126.161 61.5061 126.217 61.8536 126.635C62.2016 127.053 62.1446 127.674 61.7273 128.021L59.5503 129.834C59.133 130.182 58.5124 130.125 58.1644 129.708Z" fill="#F6AB7D"/>
<path d="M67.7153 137.891C64.9866 144.216 49.1115 137.519 47.8711 136.775C46.6308 136.031 48.2433 129.582 51.8398 130.078C55.4367 130.574 63.7462 132.434 64.4906 133.178L67.7153 137.891Z" fill="#510C0B"/>
<path opacity="0.5" d="M64.4844 133.178C63.7404 132.434 55.4305 130.574 51.8336 130.078C51.0352 129.968 50.3346 130.2 49.7412 130.636C52.5091 131.178 55.7865 131.941 57.67 132.542C58.5433 132.821 59.2979 133.383 59.816 134.14C61.3154 136.331 60.3511 139.157 58.2175 140.184C62.3614 140.956 66.4454 140.821 67.7091 137.892L64.4844 133.178Z" fill="#510C0B"/>
<path d="M39.7044 109.961C36.905 112.03 33.984 115.317 32.7671 134.668C32.6454 137.711 40.9218 139.902 47.7374 137.589C49.6847 136.859 43.3557 132.599 40.6785 131.626C43.0499 130.771 41.254 110.579 39.7044 109.961Z" fill="#510C0B"/>
<path opacity="0.5" d="M45.5442 137.576C47.4916 136.846 41.1625 132.586 38.4853 131.613C40.5194 130.879 39.4879 115.92 38.1752 111.289C35.8986 113.746 33.7629 118.826 32.7671 134.655C32.6875 136.647 36.207 138.274 40.5598 138.511C42.2153 138.422 43.921 138.127 45.5442 137.576Z" fill="#510C0B"/>
<path d="M81.6875 -5.78544L69.8586 16.223C67.6141 20.4745 69.2413 25.7402 73.4923 27.9846C77.7438 30.229 83.0094 28.6018 85.2539 24.3509L97.0828 2.34286C99.3273 -1.90861 97.7006 -7.17426 93.4491 -9.4187C92.8765 -9.72115 92.2849 -9.95096 91.6852 -10.1157H87.0919C84.8507 -9.50369 82.858 -8.00281 81.6875 -5.78544Z" fill="#F6AB7D"/>
<path opacity="0.3" d="M86.2569 -9.83911C84.361 -9.11028 82.7101 -7.71955 81.6873 -5.78185L69.8584 16.2266C68.1904 19.386 68.6618 23.1052 70.7586 25.7285C72.6545 24.9992 74.3054 23.609 75.3282 21.6718L87.1572 -0.336707C88.8257 -3.49658 88.3537 -7.21578 86.2569 -9.83911Z" fill="#F6AB7D"/>
<path d="M32.0481 20.1252C31.7921 18.3438 33.0286 16.6914 34.8105 16.4355L54.0855 13.6977C55.867 13.4418 57.5193 14.6782 57.7753 16.4602C58.0312 18.2417 56.7948 19.8935 55.0128 20.1499L35.7378 22.8877C33.9563 23.1436 32.304 21.9067 32.0481 20.1252Z" fill="#FFB587"/>
<path opacity="0.3" d="M32.0481 20.1252C31.7921 18.3438 33.0286 16.6914 34.8105 16.4355L54.0855 13.6977C55.867 13.4418 57.5193 14.6782 57.7753 16.4602C58.0312 18.2417 56.7948 19.8935 55.0128 20.1499L35.7378 22.8877C33.9563 23.1436 32.304 21.9067 32.0481 20.1252Z" fill="#FFB587"/>
<path opacity="0.3" d="M38.7413 15.877L34.8151 16.4349C34.7149 16.4492 34.6166 16.4696 34.5198 16.4928C34.8531 16.9287 35.363 17.4463 35.8872 17.4031L37.2689 17.2725C38.0414 17.2093 38.6407 16.6139 38.7413 15.877Z" fill="white"/>
<path d="M27.5917 30.9691C26.6183 29.0864 27.3548 26.7713 29.2374 25.7979L53.129 13.6038C55.0116 12.6304 57.3268 13.3669 58.3002 15.2495C59.2735 17.1321 58.5371 19.4473 56.6545 20.4207L32.7629 32.6148C30.8807 33.5886 28.5655 32.8517 27.5917 30.9691Z" fill="#FFB587"/>
<path opacity="0.3" d="M32.9238 23.9064L29.2421 25.8028C28.9415 25.958 28.6742 26.1508 28.4344 26.3668C29.0056 26.7044 29.8105 27.052 30.3779 26.7666L31.8702 25.9941C32.6617 25.5967 33.0667 24.7363 32.9238 23.9064Z" fill="white"/>
<path d="M79.5886 28.3772L69.5434 29.3805C63.6833 31.4616 49.7514 34.9163 47.6703 29.0567L48.9001 26.967C46.819 21.1074 49.8824 14.6699 55.7421 12.5888L72.0523 7.15646C77.912 5.07536 84.3495 8.13884 86.4306 13.9985C88.5117 19.8586 85.4487 26.2961 79.5886 28.3772Z" fill="#FFB587"/>
<path d="M68.1121 46.3341C65.5856 45.779 63.9874 43.2806 64.5425 40.7536L67.3875 27.8074C67.9426 25.2805 70.441 23.6827 72.968 24.2378C75.4945 24.7928 77.0927 27.2913 76.5376 29.8183L73.6926 42.7645C73.137 45.2914 70.6386 46.8896 68.1121 46.3341Z" fill="#FFB587"/>
<path d="M69.6616 45.8005C68.3663 45.5161 67.5473 44.2351 67.8317 42.9398L68.4874 39.7809C68.7718 38.4856 70.0528 37.6665 71.3481 37.9509C72.6434 38.2353 73.4625 39.5164 73.178 40.8117L72.5223 43.9706C72.2374 45.2659 70.9569 46.0854 69.6616 45.8005Z" fill="#FFB587"/>
<path opacity="0.3" d="M70.0014 45.3343C68.7062 45.0499 67.8871 43.7688 68.1715 42.4735L68.8272 39.3146C69.1116 38.0193 70.3927 37.2003 71.688 37.4847C72.9833 37.7691 73.8023 39.0501 73.5179 40.3454L72.8622 43.5043C72.5773 44.7996 71.2967 45.6192 70.0014 45.3343Z" fill="white"/>
<path d="M84.0918 27.2547L78.1642 34.2183C76.0703 36.779 72.297 37.1574 69.7363 35.0635C67.1757 32.9696 66.7972 29.1962 68.8912 26.6351L74.8187 19.6715C76.9126 17.1109 80.686 16.7324 83.2471 18.8263C85.8073 20.9207 86.1857 24.6941 84.0918 27.2547Z" fill="#FFB587"/>
<path d="M45.7666 51.2309C43.4357 50.7931 41.9011 48.5482 42.3394 46.2174L47.1188 21.0148C47.5571 18.684 49.8015 17.1494 52.1323 17.5877C54.4632 18.0259 55.9978 20.2703 55.56 22.6012L50.7806 47.8037C50.3423 50.1346 48.0974 51.6692 45.7666 51.2309Z" fill="#FFB587"/>
<path opacity="0.3" d="M42.2661 47.111C42.9769 46.8536 44.0428 46.3432 44.1905 45.5565L44.5158 43.7042C44.7062 42.6905 44.1663 41.7105 43.268 41.3007L42.3378 46.2065C42.2804 46.5108 42.2585 46.8133 42.2661 47.111Z" fill="#FFFFE1"/>
<path d="M29.2808 44.307C27.675 42.7553 27.6313 40.1956 29.183 38.5903L49.0904 18.1459C50.6421 16.54 53.2018 16.4964 54.8076 18.048C56.4134 19.5997 56.4571 22.1594 54.9054 23.7652L34.998 44.2097C33.4463 45.8146 30.8866 45.8587 29.2808 44.307Z" fill="#FFB587"/>
<path opacity="0.3" d="M28.2686 40.1044C28.9651 40.2317 29.9499 40.2953 30.4199 39.7792L31.596 38.4554C32.2503 37.7365 32.3016 36.6834 31.7826 35.9109L29.1883 38.5869C28.7571 39.0328 28.4542 39.5532 28.2686 40.1044Z" fill="white"/>
<path d="M80.0815 -10.1157L74.2461 0.740844C71.0805 6.73724 92.7951 18.2011 95.9611 12.2047L107.958 -10.1157H80.0815Z" fill="#D1D9F1"/>
<path opacity="0.5" d="M78.0688 0.740844L83.9042 -10.1157H80.0815L74.2461 0.740844C71.4789 5.98229 87.7222 15.4011 93.9698 13.6842C86.6586 12.3761 75.7627 5.10863 78.0688 0.740844Z" fill="#D1D9F1"/>
<path opacity="0.5" d="M80.0784 -10.1157L79.3215 -8.70743H102.121L90.1235 13.613C90.1121 13.6344 90.0988 13.6529 90.0869 13.6738C92.8385 14.1766 95.0924 13.8442 95.958 12.2047L107.955 -10.1157H80.0784Z" fill="#D1D9F1"/>
<path d="M77.2635 -10.1157L75.2356 -6.34239C71.4172 0.889935 97.6082 14.7169 101.426 7.48459L110.886 -10.1157H77.2635Z" fill="#7E8AC3"/>
<path opacity="0.5" d="M79.6613 -6.34239L81.6897 -10.1157H77.2635L75.2356 -6.34239C71.9095 -0.042119 91.3535 11.2598 98.9453 9.28793C90.1261 7.76141 76.8689 -1.05299 79.6613 -6.34239Z" fill="#7E8AC3"/>
<path opacity="0.5" d="M103.845 -10.1157L94.3854 7.48459C94.0454 8.12891 93.525 8.60277 92.8669 8.93277C96.8416 9.94886 100.231 9.74944 101.427 7.48459L110.887 -10.1157H103.845Z" fill="#7E8AC3"/>
<defs>
<linearGradient id="paint0_linear_826_11551" x1="50.9019" y1="36.151" x2="50.9019" y2="126.95" gradientUnits="userSpaceOnUse">
<stop stop-color="#245FFF" stop-opacity="0.18"/>
<stop offset="1" stop-color="white" stop-opacity="0"/>
</linearGradient>
</defs>
</svg>
