<svg width="165" height="112" viewBox="0 0 165 112" fill="none" xmlns="http://www.w3.org/2000/svg">
<path d="M193.212 0H30.8669L12.9055 25.9065H211.174L193.212 0Z" fill="#245FFF"/>
<path d="M207.436 74.3507H16.6515V153.22H207.436V74.3507Z" fill="#EEEEEE"/>
<path d="M207.436 74.3507H16.6515V79.6472H207.436V74.3507Z" fill="#8FB6FF"/>
<path opacity="0.15" d="M207.436 79.6456H16.6515V81.2865H207.436V79.6456Z" fill="#8FB6FF"/>
<path d="M196.164 25.9137H24.4912V74.3579H196.164V25.9137Z" fill="#EEEEEE"/>
<path d="M200.415 25.9137H23.6772V28.9935H200.415V25.9137Z" fill="#8FB6FF"/>
<path d="M138.89 88.3942H85.1849L74.8802 105.512H149.195L138.89 88.3942Z" fill="#245FFF"/>
<path d="M143.356 105.512H80.7126V150.799H143.356V105.512Z" fill="#EEEEEE"/>
<path d="M40.16 108.549H27.9843V98.499C27.9843 96.6633 29.4728 95.1749 31.3084 95.1749H36.8351C38.6715 95.1749 40.1592 96.6633 40.1592 98.499V108.549H40.16Z" fill="#CDCDCD"/>
<path d="M63.8213 108.549H51.6456V98.499C51.6456 96.6633 53.1341 95.1749 54.9698 95.1749H60.4964C62.3328 95.1749 63.8205 96.6633 63.8205 98.499V108.549H63.8213Z" fill="#CDCDCD"/>
<path d="M41.059 108.531H27.4153V110.296H41.059V108.531Z" fill="#8FB6FF"/>
<path opacity="0.15" d="M34.0172 108.531H27.4153V110.296H34.0172V108.531Z" fill="#8FB6FF"/>
<path d="M64.5623 108.531H50.9186V110.296H64.5623V108.531Z" fill="#8FB6FF"/>
<path opacity="0.15" d="M57.7404 108.531H50.9186V110.296H57.7404V108.531Z" fill="#8FB6FF"/>
<path d="M46.4743 45.9106H34.2986V35.8605C34.2986 34.024 35.7871 32.5363 37.6228 32.5363H43.1494C44.9858 32.5363 46.4735 34.0248 46.4735 35.8605V45.9106H46.4743Z" fill="#CDCDCD"/>
<path d="M70.1277 45.9106H57.9521V35.8605C57.9521 34.024 59.4406 32.5363 61.277 32.5363H66.8036C68.64 32.5363 70.1285 34.0248 70.1285 35.8605V45.9106H70.1277Z" fill="#CDCDCD"/>
<path d="M46.4743 68.023H34.2986V57.9728C34.2986 56.1364 35.7871 54.6487 37.6228 54.6487H43.1494C44.9858 54.6487 46.4735 56.1372 46.4735 57.9728V68.023H46.4743Z" fill="#CDCDCD"/>
<path d="M70.1277 68.023H57.9521V57.9728C57.9521 56.1364 59.4406 54.6487 61.277 54.6487H66.8036C68.64 54.6487 70.1285 56.1372 70.1285 57.9728V68.023H70.1277Z" fill="#CDCDCD"/>
<path d="M47.3654 45.9081H33.7217V47.673H47.3654V45.9081Z" fill="#8FB6FF"/>
<path opacity="0.15" d="M40.5436 45.9081H33.7217V47.673H40.5436V45.9081Z" fill="#8FB6FF"/>
<path d="M47.3654 68.0204H33.7217V69.7854H47.3654V68.0204Z" fill="#8FB6FF"/>
<path opacity="0.15" d="M40.5436 68.0204H33.7217V69.7854H40.5436V68.0204Z" fill="#8FB6FF"/>
<path d="M70.8687 45.9081H57.225V47.673H70.8687V45.9081Z" fill="#8FB6FF"/>
<path opacity="0.15" d="M64.0469 45.9081H57.225V47.673H64.0469V45.9081Z" fill="#8FB6FF"/>
<path d="M70.8687 68.0204H57.225V69.7854H70.8687V68.0204Z" fill="#8FB6FF"/>
<path opacity="0.15" d="M64.0469 68.0204H57.225V69.7854H64.0469V68.0204Z" fill="#8FB6FF"/>
<path d="M104.505 45.9106H92.3298V35.8605C92.3298 34.024 93.8183 32.5363 95.654 32.5363H101.181C103.017 32.5363 104.505 34.0248 104.505 35.8605L104.505 45.9106Z" fill="#CDCDCD"/>
<path d="M128.167 45.9106H115.991V35.8605C115.991 34.024 117.48 32.5363 119.316 32.5363H124.843C126.679 32.5363 128.168 34.0248 128.168 35.8605V45.9106H128.167Z" fill="#CDCDCD"/>
<path d="M104.505 68.023H92.3298V57.9728C92.3298 56.1364 93.8183 54.6487 95.654 54.6487H101.181C103.017 54.6487 104.505 56.1372 104.505 57.9728L104.505 68.023Z" fill="#CDCDCD"/>
<path d="M128.167 68.023H115.991V57.9728C115.991 56.1364 117.48 54.6487 119.316 54.6487H124.843C126.679 54.6487 128.168 56.1372 128.168 57.9728V68.023H128.167Z" fill="#CDCDCD"/>
<path d="M105.397 45.9081H91.7529V47.673H105.397V45.9081Z" fill="#8FB6FF"/>
<path d="M105.397 68.0204H91.7529V69.7854H105.397V68.0204Z" fill="#8FB6FF"/>
<path d="M128.9 45.9081H115.256V47.673H128.9V45.9081Z" fill="#8FB6FF"/>
<path d="M128.9 68.0204H115.256V69.7854H128.9V68.0204Z" fill="#8FB6FF"/>
<path opacity="0.15" d="M122.078 45.9081H115.256V47.673H122.078V45.9081Z" fill="#8FB6FF"/>
<path opacity="0.15" d="M98.5748 45.9081H91.7529V47.673H98.5748V45.9081Z" fill="#8FB6FF"/>
<path opacity="0.15" d="M98.5748 68.0204H91.7529V69.7854H98.5748V68.0204Z" fill="#8FB6FF"/>
<path opacity="0.15" d="M122.078 68.0204H115.256V69.7854H122.078V68.0204Z" fill="#8FB6FF"/>
<path d="M162.537 45.9106H150.361V35.8605C150.361 34.024 151.849 32.5363 153.686 32.5363H159.212C161.048 32.5363 162.537 34.0248 162.537 35.8605V45.9106Z" fill="#CDCDCD"/>
<path d="M162.537 68.023H150.361V57.9728C150.361 56.1364 151.849 54.6487 153.686 54.6487H159.212C161.048 54.6487 162.537 56.1372 162.537 57.9728V68.023Z" fill="#CDCDCD"/>
<path d="M163.428 45.9081H149.784V47.673H163.428V45.9081Z" fill="#8FB6FF"/>
<path d="M163.428 68.0204H149.784V69.7854H163.428V68.0204Z" fill="#8FB6FF"/>
<path opacity="0.15" d="M157.182 45.9081H149.784V47.673H157.182V45.9081Z" fill="#8FB6FF"/>
<path opacity="0.15" d="M157.182 68.0204H149.784V69.7854H157.182V68.0204Z" fill="#8FB6FF"/>
<path d="M172.344 108.549H160.169V98.499C160.169 96.6633 161.657 95.1749 163.493 95.1749H169.02C170.856 95.1749 172.344 96.6633 172.344 98.499V108.549Z" fill="#CDCDCD"/>
<path d="M173.235 108.531H159.592V110.296H173.235V108.531Z" fill="#8FB6FF"/>
<path opacity="0.15" d="M166.713 108.531H159.592V110.296H166.713V108.531Z" fill="#8FB6FF"/>
<path d="M86.3531 105.528H80.7126V150.815H86.3531V105.528Z" fill="#CDCDCD"/>
<path d="M143.357 105.528H137.716V150.815H143.357V105.528Z" fill="#CDCDCD"/>
<path d="M87.7387 105.512H79.298V107.862H87.7387V105.512Z" fill="#8FB6FF"/>
<path d="M144.758 105.512H136.318V107.862H144.758V105.512Z" fill="#8FB6FF"/>
</svg>
